<svg width="359" height="65" viewBox="0 0 359 65" fill="none" xmlns="http://www.w3.org/2000/svg">
<path d="M126.875 34.0286C125.94 35.6924 124.529 37.0231 122.644 38.0228C120.759 39.0202 118.451 39.52 115.726 39.52H111.113V50.8362H101.794V17.3144H115.726C118.419 17.3144 120.711 17.7892 122.596 18.7409C124.481 19.6927 125.901 21.0074 126.85 22.6872C127.802 24.3671 128.277 26.3003 128.277 28.4891C128.277 30.5182 127.809 32.3647 126.873 34.0286H126.875ZM118.768 28.4891C118.768 26.0492 117.454 24.8281 114.822 24.8281H111.113V32.1022H114.822C117.454 32.1022 118.768 30.8971 118.768 28.4891Z" fill="black"/>
<path d="M141.353 43.706H151.765V50.8385H132.034V17.3167H141.353V43.706Z" fill="black"/>
<path d="M164.51 17.3167V36.7629C164.51 38.5706 164.93 39.9651 165.77 40.9466C166.61 41.9303 167.886 42.421 169.598 42.421C171.31 42.421 172.602 41.9211 173.473 40.9237C174.345 39.924 174.781 38.5386 174.781 36.7629V17.3167H184.1V36.7629C184.1 39.8373 183.45 42.4621 182.151 44.6327C180.85 46.8032 179.084 48.4374 176.849 49.5307C174.615 50.624 172.134 51.1718 169.408 51.1718C166.683 51.1718 164.25 50.624 162.109 49.5307C159.971 48.4374 158.289 46.8124 157.07 44.6578C155.849 42.5032 155.239 39.8715 155.239 36.7652V17.319H164.51V17.3167Z" fill="black"/>
<path d="M210.631 28.3476C210.092 27.4598 209.355 26.7796 208.419 26.3026C207.483 25.8278 206.383 25.5905 205.114 25.5905C202.768 25.5905 200.921 26.3505 199.575 27.8729C198.228 29.3953 197.555 31.438 197.555 34.0057C197.555 36.8907 198.276 39.0864 199.719 40.5905C201.161 42.0969 203.261 42.8501 206.018 42.8501C209.282 42.8501 211.612 41.3756 213.007 38.429H203.64V31.7256H221.043V40.7594C220.313 42.5351 219.245 44.199 217.834 45.751C216.424 47.3053 214.641 48.5812 212.484 49.5786C210.327 50.576 207.871 51.0759 205.114 51.0759C201.755 51.0759 198.783 50.3546 196.199 48.9122C193.615 47.4697 191.618 45.4566 190.208 42.8729C188.797 40.2892 188.092 37.3335 188.092 34.0057C188.092 30.678 188.797 27.7702 190.208 25.1865C191.618 22.6028 193.609 20.5897 196.174 19.1472C198.742 17.7047 201.704 16.9835 205.066 16.9835C209.282 16.9835 212.769 17.9992 215.527 20.0259C218.284 22.055 219.996 24.8282 220.662 28.3476H210.629H210.631Z" fill="black"/>
<path d="M230.672 50.0283C229.009 49.2682 227.701 48.2069 226.749 46.842C225.797 45.4794 225.29 43.957 225.227 42.2772H228.746C228.904 43.8931 229.618 45.3128 230.885 46.5339C232.151 47.755 234.007 48.3644 236.447 48.3644C238.697 48.3644 240.48 47.7869 241.797 46.6297C243.112 45.4726 243.769 44.0073 243.769 42.2315C243.769 40.805 243.404 39.657 242.676 38.7851C241.945 37.9132 241.044 37.2627 239.966 36.8359C238.889 36.4068 237.399 35.9412 235.497 35.4322C233.279 34.8297 231.519 34.2431 230.22 33.6725C228.92 33.1019 227.81 32.214 226.893 31.0089C225.973 29.8038 225.514 28.1719 225.514 26.1109C225.514 24.3991 225.957 22.8698 226.845 21.5232C227.733 20.1766 228.983 19.1221 230.602 18.3621C232.218 17.602 234.073 17.2209 236.164 17.2209C239.238 17.2209 241.719 17.9741 243.605 19.4804C245.49 20.9868 246.576 22.9269 246.862 25.3052H243.248C243.027 23.9426 242.281 22.7306 241.014 21.667C239.745 20.6057 238.033 20.0739 235.879 20.0739C233.881 20.0739 232.218 20.6057 230.887 21.667C229.556 22.7283 228.89 24.1799 228.89 26.0173C228.89 27.4118 229.253 28.5371 229.983 29.393C230.711 30.2489 231.624 30.8994 232.717 31.3421C233.811 31.7872 235.292 32.262 237.164 32.7687C239.318 33.3712 241.062 33.9646 242.395 34.5512C243.726 35.1378 244.851 36.0325 245.771 37.2376C246.69 38.4427 247.149 40.0587 247.149 42.0878C247.149 43.6421 246.736 45.1142 245.912 46.5088C245.088 47.9033 243.867 49.0286 242.251 49.8845C240.635 50.7404 238.7 51.1672 236.449 51.1672C234.199 51.1672 232.336 50.786 230.672 50.026V50.0283Z" fill="black"/>
<path d="M254.184 25.4239C255.61 22.8402 257.559 20.8271 260.031 19.3846C262.503 17.9421 265.263 17.2209 268.305 17.2209C272.014 17.2209 275.191 18.0996 277.839 19.8593C280.484 21.6191 282.41 24.1 283.615 27.3H279.717C278.765 25.0495 277.316 23.2898 275.367 22.0231C273.418 20.7563 271.064 20.1218 268.305 20.1218C265.863 20.1218 263.669 20.6924 261.72 21.8336C259.771 22.9748 258.242 24.6159 257.133 26.7545C256.023 28.8931 255.469 31.3741 255.469 34.1952C255.469 37.0162 256.023 39.4904 257.133 41.613C258.242 43.7379 259.771 45.3699 261.72 46.5111C263.669 47.6523 265.865 48.2229 268.305 48.2229C271.062 48.2229 273.415 47.5975 275.367 46.3444C277.316 45.0937 278.765 43.3568 279.717 41.1383H283.615C282.41 44.3085 280.477 46.7644 277.814 48.5082C275.15 50.2519 271.98 51.1238 268.303 51.1238C265.26 51.1238 262.501 50.4026 260.029 48.9601C257.557 47.5176 255.608 45.5136 254.181 42.9459C252.755 40.3782 252.041 37.4613 252.041 34.1974C252.041 30.9336 252.753 28.0098 254.181 25.4239H254.184Z" fill="black"/>
<path d="M309.482 42.9437H294.361L291.46 50.8362H287.941L300.065 18.0288H303.822L315.898 50.8362H312.378L309.478 42.9437H309.482ZM308.485 40.1865L301.923 22.2125L295.361 40.1865H308.485Z" fill="black"/>
<path d="M324.555 48.127H336.49V50.8362H321.228V17.5997H324.555V48.1247V48.127Z" fill="black"/>
<path d="M344.572 20.3113V32.7207H357.173V35.4779H344.572V48.0791H358.599V50.8362H341.244V17.5518H358.599V20.309H344.572V20.3113Z" fill="black"/>
<path d="M74.9935 38.3751C72.2731 52.6041 59.7626 63.3587 44.7402 63.3587C27.7285 63.3587 13.9375 49.5677 13.9375 32.5559C13.9375 15.5442 27.7285 1.75323 44.7402 1.75323C59.1757 1.75323 71.2914 11.6836 74.6304 25.0846" stroke="black" stroke-width="3" stroke-linecap="round" stroke-linejoin="round"/>
<path d="M31.4595 13.9698C34.7485 9.36385 39.2757 5.70118 44.554 3.46881" stroke="black" stroke-width="3" stroke-miterlimit="10"/>
<path d="M27.403 41.8543C26.3262 38.718 25.7422 35.3522 25.7422 31.8499C25.7422 27.6071 26.6 23.564 28.1523 19.886" stroke="black" stroke-width="3" stroke-miterlimit="10"/>
<path d="M45.1717 60.4856C38.4784 57.8248 32.9388 52.8865 29.5105 46.6264" stroke="black" stroke-width="3" stroke-miterlimit="10"/>
<path d="M5.00897 35.0554C6.84984 35.0554 8.34216 33.563 8.34216 31.7222C8.34216 29.8813 6.84984 28.389 5.00897 28.389C3.1681 28.389 1.67578 29.8813 1.67578 31.7222C1.67578 33.563 3.1681 35.0554 5.00897 35.0554Z" stroke="black" stroke-width="3" stroke-miterlimit="10"/>
<path d="M84.416 35.0554C86.2568 35.0554 87.7491 33.563 87.7491 31.7222C87.7491 29.8813 86.2568 28.389 84.416 28.389C82.5751 28.389 81.0828 29.8813 81.0828 31.7222C81.0828 33.563 82.5751 35.0554 84.416 35.0554Z" stroke="black" stroke-width="3" stroke-miterlimit="10"/>
<path d="M62.4774 44.6824C62.7723 42.8653 61.5384 41.1531 59.7213 40.8582C57.9042 40.5632 56.1921 41.7972 55.8971 43.6142C55.6021 45.4313 56.8361 47.1435 58.6532 47.4384C60.4703 47.7334 62.1824 46.4995 62.4774 44.6824Z" stroke="black" stroke-width="3" stroke-miterlimit="10"/>
<path d="M26.6537 48.3756C28.4946 48.3756 29.9869 46.8833 29.9869 45.0424C29.9869 43.2016 28.4946 41.7092 26.6537 41.7092C24.8129 41.7092 23.3206 43.2016 23.3206 45.0424C23.3206 46.8833 24.8129 48.3756 26.6537 48.3756Z" stroke="black" stroke-width="3" stroke-miterlimit="10"/>
<path d="M29.7275 19.9426C31.5684 19.9426 33.0607 18.4503 33.0607 16.6095C33.0607 14.7686 31.5684 13.2763 29.7275 13.2763C27.8866 13.2763 26.3943 14.7686 26.3943 16.6095C26.3943 18.4503 27.8866 19.9426 29.7275 19.9426Z" stroke="black" stroke-width="3" stroke-miterlimit="10"/>
<path d="M59.3132 23.5285C61.154 23.5285 62.6464 22.0361 62.6464 20.1953C62.6464 18.3544 61.154 16.8621 59.3132 16.8621C57.4723 16.8621 55.98 18.3544 55.98 20.1953C55.98 22.0361 57.4723 23.5285 59.3132 23.5285Z" stroke="black" stroke-width="3" stroke-miterlimit="10"/>
<path d="M44.7405 1.75323V64.0099" stroke="black" stroke-width="3" stroke-miterlimit="10"/>
<path d="M8.34229 31.8989H39.2363" stroke="black" stroke-width="3" stroke-miterlimit="10" stroke-linecap="round"/>
<path d="M49.7393 31.8989H80.0213" stroke="black" stroke-width="3" stroke-miterlimit="10" stroke-linecap="round"/>
<path d="M37.614 21.1472C40.5908 21.7389 44.5868 22.1731 49.2264 21.6592C51.3934 21.419 53.3386 21.0127 55.0321 20.5488" stroke="black" stroke-width="3" stroke-miterlimit="10" stroke-linecap="round"/>
<path d="M63.2295 18.9273C64.4725 18.6833 65.9287 18.2905 67.4983 17.6469C68.4214 17.2684 69.2475 16.8582 69.9746 16.4519" stroke="black" stroke-width="3" stroke-miterlimit="10" stroke-linecap="round"/>
<path d="M30.4421 5.86352C31.5036 6.85291 36.9625 11.7384 45.2993 11.4992C52.9551 11.2792 57.8732 6.88749 59.0461 5.77803" stroke="black" stroke-width="3" stroke-miterlimit="10" stroke-linecap="round"/>
<path d="M30.2715 58.7162C31.0755 57.8133 36.2174 52.2323 44.7012 52.142C53.3627 52.0498 58.6814 57.7527 59.4729 58.6317" stroke="black" stroke-width="3" stroke-miterlimit="10" stroke-linecap="round"/>
<path d="M62.6379 44.6928C66.2151 45.6505 69.8125 47.0942 71.0852 47.6158" stroke="black" stroke-width="3" stroke-miterlimit="10" stroke-linecap="round"/>
<path d="M35.2241 43.176C45.8404 42.5622 53.6864 42.86 56.058 43.2615" stroke="black" stroke-width="3" stroke-miterlimit="10" stroke-linecap="round"/>
<path d="M55.2883 9.70581C56.0212 10.5415 56.8195 11.5616 57.5937 12.7796C58.4582 14.1379 59.0912 15.4231 59.5571 16.5365" stroke="black" stroke-width="3" stroke-linecap="round" stroke-linejoin="round"/>
<path d="M19.2563 16.3655C20.1449 16.5768 21.1765 16.766 22.3302 16.8775C23.5021 16.9908 24.5654 17.0023 25.4895 16.9629" stroke="black" stroke-width="3" stroke-miterlimit="10"/>
<path d="M54.8621 53.849C56.1425 51.9422 57.4239 50.0355 58.7044 48.1278" stroke="black" stroke-width="3" stroke-miterlimit="10"/>
<path d="M18.6589 46.7628C20.0815 46.3363 21.5051 45.9089 22.9277 45.4824" stroke="black" stroke-width="3" stroke-miterlimit="10"/>
</svg>
