<svg width="322" height="36" viewBox="0 0 322 36" fill="none" xmlns="http://www.w3.org/2000/svg">
<path d="M207.556 20.4651C208.638 22.0381 209.173 23.7422 209.173 25.5774C209.173 28.8546 208.082 31.3856 205.909 33.1905C203.737 34.9955 200.502 35.8929 196.217 35.8929H177.515V0.923157H195.879C200.066 0.923157 203.092 1.77017 204.967 3.47429C206.832 5.17841 207.765 7.28588 207.765 9.80676C207.765 13.2755 206.266 15.7157 203.27 17.1274C205.046 17.7829 206.465 18.892 207.546 20.4651" fill="#2B2A29"/>
<path d="M253.153 22.3709V35.8929H224.849V0.923157H238.371V22.3709H253.153Z" fill="#2B2A29"/>
<path d="M282.291 24.7607C285.892 22.391 287.698 18.6803 287.698 14.2133C287.698 6.7212 282.638 1.24583 272.469 0.943324V0.923157H256.407V35.8929H270.455V25.527L275.039 35.903H287.708L282.291 24.7708V24.7607Z" fill="#2B2A29"/>
<path d="M308.522 21.8768V0.923157H321.569V22.512C321.569 26.737 320.249 30.0243 317.61 32.3939C314.931 34.7333 311.132 35.903 306.191 35.903C301.25 35.903 297.431 34.7333 294.812 32.3939C292.133 30.0646 290.803 26.7673 290.803 22.512V0.923157H303.85V21.8768C303.85 23.1876 304.891 24.2464 306.181 24.2464C307.471 24.2464 308.512 23.1876 308.512 21.8768" fill="#2B2A29"/>
<path d="M210.919 0.923157V17.1778H216.773L222.636 0.923157H210.919Z" fill="#2B2A29"/>
<path d="M10.1907 35.2036V9.88855H0.568604V0.929779H30.869V9.88855H21.2535V35.2036H10.1907Z" fill="#2B2A29"/>
<path d="M102.425 6.97385C101.152 5.03066 99.3497 3.53641 97.0179 2.49111C94.686 1.44581 91.9187 0.923157 88.7225 0.923157H72.2188V35.197H83.7707V26.7743H88.7158C91.912 26.7743 94.6793 26.2449 97.0112 25.1862C99.343 24.1275 101.145 22.6333 102.419 20.7035C103.692 18.7804 104.328 16.4955 104.328 13.8487C104.328 11.202 103.692 8.91034 102.419 6.96715L102.425 6.97385Z" fill="#2B2A29"/>
<path d="M135.399 35.2035H147.883L147.789 0.929688H135.392L127.419 18.1839L119.224 0.929688H106.754V35.2035H119.237V22.9547L127.265 35.2035L135.332 22.4924L135.399 35.2035Z" fill="#2B2A29"/>
<path d="M150.308 35.2035V0.929688H161.86V35.2035H150.308Z" fill="#2B2A29"/>
<path d="M57.9799 35.2035H69.7931L56.5593 0.929688H46.5285L33.2947 35.2035H44.9337L46.0594 31.8934H56.8542L57.9799 35.2035Z" fill="#2B2A29"/>
</svg>
