<svg width="320" height="48" viewBox="0 0 320 48" fill="none" xmlns="http://www.w3.org/2000/svg">
<g clip-path="url(#clip0_75_60)">
<path d="M2.58548 5.64853H0.5V15.1465H2.58548V5.64853Z" fill="#1D1E1C"/>
<path d="M4.41797 5.64709H6.48966L10.4449 12.0189H10.4727V5.64709H12.4235V15.145H10.3401L6.3966 8.78728H6.3688V15.145H4.41797V5.64709Z" fill="#1D1E1C"/>
<mask id="mask0_75_60" style="mask-type:luminance" maskUnits="userSpaceOnUse" x="0" y="0" width="320" height="48">
<path d="M320 0H0V47.2H320V0Z" fill="white"/>
</mask>
<g mask="url(#mask0_75_60)">
<path d="M15.6766 11.9925C15.6766 13.2574 16.6598 13.7491 17.774 13.7491C18.504 13.7491 19.6201 13.5371 19.6201 12.5656C19.6201 11.5406 18.1994 11.3682 16.8044 10.9955C15.3974 10.6227 13.9769 10.0776 13.9769 8.29522C13.9769 6.35263 15.8092 5.42093 17.5227 5.42093C19.5013 5.42093 21.3198 6.28517 21.3198 8.48169H19.3014C19.2343 7.33589 18.425 7.04444 17.4296 7.04444C16.7648 7.04444 15.9951 7.32392 15.9951 8.12094C15.9951 8.85235 16.4464 8.94558 18.8225 9.5582C19.5132 9.73063 21.6382 10.1708 21.6382 12.3257C21.6382 14.0682 20.2711 15.3708 17.6948 15.3708C15.5973 15.3708 13.6327 14.3339 13.6585 11.9925H15.6766Z" fill="#1D1E1C"/>
<path d="M24.9723 7.40307H22.1309V5.64673H29.8993V7.40307H27.0578V15.1447H24.9723V7.40307Z" fill="#1D1E1C"/>
<path d="M33.0718 5.6481H30.9863V15.146H33.0718V5.6481Z" fill="#1D1E1C"/>
<path d="M37.2672 7.40307H34.4258V5.64673H42.1942V7.40307H39.3527V15.1447H37.2672V7.40307Z" fill="#1D1E1C"/>
<path d="M51.3291 11.5537C51.3291 14.1211 49.8153 15.3719 47.2787 15.3719C44.7302 15.3719 43.2422 14.1349 43.2422 11.5537V5.6481H45.3277V11.5537C45.3277 12.5906 45.5928 13.6155 47.2787 13.6155C48.7666 13.6155 49.2436 12.9633 49.2436 11.5537V5.6481H51.3291V11.5537Z" fill="#1D1E1C"/>
<path d="M55.2204 7.40307H52.3789V5.64673H60.1473V7.40307H57.3058V15.1447H55.2204V7.40307Z" fill="#1D1E1C"/>
<path d="M63.8531 5.6481H61.7676V15.146H63.8531V5.6481Z" fill="#1D1E1C"/>
<path d="M69.6677 5.42047C72.602 5.42047 74.3274 7.61699 74.3274 10.436C74.3274 13.1777 72.602 15.3724 69.6677 15.3724C66.7332 15.3724 65.0078 13.1777 65.0078 10.436C65.0078 7.61699 66.7332 5.42047 69.6677 5.42047ZM69.6677 13.6158C71.5395 13.6158 72.2438 12.0199 72.2438 10.436C72.2438 8.77269 71.5395 7.17681 69.6677 7.17681C67.796 7.17681 67.0915 8.77269 67.0915 10.436C67.0915 12.0199 67.796 13.6158 69.6677 13.6158Z" fill="#1D1E1C"/>
<path d="M75.2188 5.64719H77.2904L81.2456 12.019H81.2734V5.64719H83.2243V15.1451H81.1409L77.1974 8.78738H77.1696V15.1451H75.2188V5.64719Z" fill="#1D1E1C"/>
<path d="M91.4314 5.42047C94.3657 5.42047 96.0911 7.61699 96.0911 10.436C96.0911 13.1777 94.3657 15.3724 91.4314 15.3724C88.4969 15.3724 86.7715 13.1777 86.7715 10.436C86.7715 7.61699 88.4969 5.42047 91.4314 5.42047ZM91.4314 13.6158C93.3032 13.6158 94.0075 12.0199 94.0075 10.436C94.0075 8.77269 93.3032 7.17681 91.4314 7.17681C89.5596 7.17681 88.8551 8.77269 88.8551 10.436C88.8551 12.0199 89.5596 13.6158 91.4314 13.6158Z" fill="#1D1E1C"/>
<path d="M97.5117 5.64719H104.178V7.40376H99.5972V9.59821H103.566V11.2219H99.5972V15.1451H97.5117V5.64719Z" fill="#1D1E1C"/>
<path d="M0 41.8484H104.056V18.8502H0V41.8484ZM15.5085 36.0379H6.59675V24.276H15.378V26.4509H9.17901V28.9707H14.8677V30.9807H9.17901V33.8633H15.5085V36.0379ZM30.5524 36.0379H28.1363V27.7019H28.1028L25.2257 36.0379H23.2353L20.3585 27.785H20.3265V36.0379H17.9088V24.276H21.5416L24.288 32.3645H24.3215L26.9196 24.276H30.5524V36.0379ZM36.0591 36.0379H33.4771V24.276H36.0591V36.0379ZM48.9006 36.0379H46.3204L41.4369 28.1637H41.4033V36.0379H38.9854V24.276H41.5518L46.4509 32.1663H46.4845V24.276H48.9006V36.0379ZM60.7388 36.0379H51.8268V24.276H60.6063V26.4509H54.4091V28.9707H60.0978V30.9807H54.4091V33.8633H60.7388V36.0379ZM73.0539 36.0379H70.4718L65.5883 28.1637H65.5548V36.0379H63.1389V24.276H65.7032L70.6044 32.1663H70.6359V24.276H73.0539V36.0379ZM80.9112 36.3176C77.2784 36.3176 75.1394 33.5997 75.1394 30.2058C75.1394 26.7127 77.2784 23.9947 80.9112 23.9947C83.4932 23.9947 85.6637 25.5112 85.9765 28.2291H83.4774C83.3131 27.0594 82.1934 26.1693 80.9112 26.1693C78.5941 26.1693 77.7216 28.1479 77.7216 30.2058C77.7216 32.1663 78.5941 34.1428 80.9112 34.1428C82.4903 34.1428 83.3786 33.0564 83.5764 31.5081H86.0755C85.8122 34.4402 83.7901 36.3176 80.9112 36.3176ZM97.7318 36.0379H88.8198V24.276H97.5992V26.4509H91.402V28.9707H97.0907V30.9807H91.402V33.8633H97.7318V36.0379Z" fill="#1D1E1C"/>
<path d="M114.636 0.10321H114.248V47.2001H114.636V0.10321Z" fill="#1D1E1C"/>
<path d="M208.107 0.103241H207.719V47.2001H208.107V0.103241Z" fill="#1D1E1C"/>
<path d="M190.622 33.5732C191.141 32.3165 191.58 31.022 191.857 29.6678V29.6657C192.862 29.765 193.867 29.442 194.658 28.6944C195.442 27.9234 196.034 26.7042 196.051 25.356C195.222 25.5761 194.348 26.2025 193.438 27.0371C192.755 27.6674 192.276 28.4902 191.932 29.2C192.149 27.9571 192.231 26.6586 192.203 25.3878C193.22 25.2826 194.16 24.7614 194.761 23.901C195.078 23.4549 195.345 22.9136 195.484 22.3268C195.61 21.7441 195.644 21.1057 195.571 20.4496C194.797 20.7984 193.994 21.5597 193.271 22.5271C192.68 23.2843 192.379 24.2181 192.183 24.9971C192.171 24.6919 192.163 24.3845 192.142 24.0873C192.084 23.0822 191.936 22.1028 191.748 21.1414C193.78 20.634 195.056 18.2807 194.356 15.7789C193.659 16.223 192.951 17.0914 192.371 18.1518C191.928 19.0064 191.716 20.0371 191.68 20.8479C191.536 20.1443 191.384 19.4445 191.206 18.7683C191.039 18.1677 190.838 17.5988 190.638 17.0258C192.591 16.2467 193.566 13.7429 192.533 11.3661C191.894 11.8993 191.336 12.833 190.879 13.9708C190.535 14.9144 190.481 16.0068 190.572 16.8255C190.23 15.8602 189.86 14.9225 189.447 14.0481C189.296 13.7212 189.128 13.4298 188.97 13.1164C189.9 12.5892 190.535 11.7109 190.782 10.6344C190.988 9.58579 190.848 8.31705 190.153 7.22466C189.575 7.84901 189.176 8.83044 188.859 10.0257C188.612 11.0963 188.754 12.2899 188.968 13.1125C188.42 12.036 187.844 11.0189 187.268 10.1052C186.868 9.53422 186.5 8.97525 186.12 8.46577C185.723 7.97195 185.343 7.50415 184.989 7.06397C184.225 6.22735 183.558 5.50377 182.951 4.96667C182.674 4.6911 182.41 4.46502 182.175 4.27072C181.461 2.21693 179.328 0.991935 177.191 1.43396C177.571 2.2091 178.315 2.98609 179.314 3.64245C180.206 4.22122 181.334 4.38376 182.151 4.35406C182.369 4.55435 182.606 4.78042 182.86 5.05991C183.438 5.6228 184.063 6.37607 184.773 7.24054C185.102 7.69454 185.454 8.17616 185.822 8.68379C186.166 9.20915 186.526 9.7603 186.902 10.337C187.421 11.2153 187.935 12.1868 188.424 13.2076C188.169 12.9044 187.862 12.5952 187.501 12.3275C187.072 12.036 186.58 11.806 186.069 11.699C184.953 11.4572 183.899 11.5841 183.141 11.9092C183.758 12.6723 184.553 13.2355 185.533 13.4832C186.453 13.7509 187.512 13.741 188.491 13.3464C188.638 13.6577 188.796 13.953 188.934 14.2802C189.3 15.1127 189.627 16.0008 189.931 16.9109C189.467 16.2449 188.784 15.5549 187.895 15.2655C186.807 14.8887 185.78 14.8571 184.967 15.0869C185.913 16.7403 187.97 17.6879 190.028 17.2222C190.212 17.7892 190.399 18.3541 190.563 18.9449C190.717 19.5593 190.845 20.1957 190.974 20.832C190.602 20.1402 190.048 19.4166 189.241 19.0361C188.188 18.5245 187.211 18.3521 186.368 18.475C187.068 20.2235 188.976 21.4131 191.067 21.2584C191.241 22.202 191.378 23.1595 191.425 24.1368C191.439 24.3926 191.443 24.6463 191.453 24.902C191.204 24.1785 190.715 23.4114 190.044 22.9295C189.073 22.2755 188.107 21.9739 187.28 21.978C187.496 22.9118 188.067 23.6968 188.805 24.3134C189.555 24.8981 190.452 25.3164 191.471 25.3977C191.487 26.5891 191.408 27.7747 191.194 28.9739C191.085 28.2345 190.76 27.4236 190.189 26.8527C189.377 26.0499 188.432 25.5978 187.624 25.4711C187.717 26.3969 188.077 27.2176 188.734 27.9531C189.32 28.635 190.125 29.2239 191.103 29.5172C191.101 29.5232 191.101 29.5271 191.101 29.5311C190.877 30.669 190.527 31.787 190.118 32.8794C190.139 32.1519 190.005 31.3351 189.559 30.6729C188.95 29.7074 188.127 29.087 187.341 28.7997C187.135 30.4729 188.083 32.4532 189.88 33.4602C189.716 33.8567 189.583 34.2671 189.393 34.6458C189.069 35.302 188.701 35.9263 188.327 36.5428C188.471 35.8451 188.461 35.0342 188.188 34.3385C187.731 33.2641 187.068 32.4988 186.37 32.0607C186.204 32.4889 186.16 32.9487 186.17 33.4086C186.166 33.8626 186.249 34.3325 186.403 34.7985C186.682 35.6627 187.191 36.5032 187.97 37.1357C187.616 37.685 187.238 38.2062 186.849 38.7157V36.3686H134.798V39.4431C134.693 39.3202 134.588 39.2095 134.483 39.0865C133.997 38.47 133.538 37.8118 133.102 37.1357C133.882 36.5032 134.391 35.6627 134.668 34.7985C134.824 34.3325 134.907 33.8626 134.901 33.4086C134.911 32.9487 134.867 32.4889 134.703 32.0607C134.005 32.4988 133.342 33.2641 132.883 34.3385C132.61 35.0342 132.602 35.8451 132.744 36.5428C132.37 35.9263 132.004 35.302 131.678 34.6458C131.49 34.2671 131.355 33.8567 131.193 33.4602C132.99 32.4532 133.938 30.4729 133.732 28.7997C132.946 29.087 132.121 29.7074 131.514 30.6729C131.068 31.3351 130.934 32.1519 130.955 32.8794C130.544 31.787 130.194 30.669 129.972 29.5311C129.972 29.5271 129.97 29.5232 129.97 29.5172C130.946 29.2239 131.753 28.635 132.339 27.9531C132.994 27.2176 133.356 26.3969 133.449 25.4711C132.639 25.5978 131.696 26.0499 130.882 26.8527C130.313 27.4236 129.988 28.2345 129.877 28.9739C129.665 27.7747 129.584 26.5891 129.602 25.3977C130.621 25.3164 131.518 24.8981 132.267 24.3134C133.003 23.6968 133.577 22.9118 133.791 21.978C132.964 21.9739 131.998 22.2755 131.029 22.9295C130.356 23.4114 129.869 24.1785 129.62 24.902C129.628 24.6463 129.632 24.3926 129.648 24.1368C129.693 23.1595 129.83 22.202 130.006 21.2584C132.095 21.4131 134.005 20.2235 134.703 18.475C133.862 18.3521 132.883 18.5245 131.832 19.0361C131.025 19.4166 130.469 20.1402 130.099 20.832C130.225 20.1957 130.356 19.5593 130.51 18.9449C130.673 18.3541 130.861 17.7892 131.045 17.2222C133.102 17.6879 135.16 16.7403 136.106 15.0869C135.293 14.8571 134.266 14.8887 133.178 15.2655C132.289 15.5549 131.607 16.2449 131.142 16.9109C131.446 16.0008 131.773 15.1127 132.137 14.2802C132.277 13.953 132.434 13.6577 132.582 13.3464C133.56 13.741 134.62 13.7509 135.538 13.4832C136.52 13.2355 137.315 12.6723 137.93 11.9092C137.173 11.5841 136.12 11.4572 135.004 11.699C134.492 11.806 133.999 12.036 133.569 12.3275C133.209 12.5952 132.903 12.9044 132.647 13.2076C133.138 12.1868 133.653 11.2153 134.171 10.337C134.547 9.7603 134.907 9.20915 135.249 8.68379C135.619 8.17616 135.969 7.69454 136.3 7.24054C137.01 6.37607 137.636 5.6228 138.213 5.05991C138.465 4.78042 138.702 4.55435 138.922 4.35406C139.739 4.38376 140.867 4.22122 141.757 3.64245C142.756 2.98609 143.502 2.2091 143.882 1.43396C141.743 0.991935 139.612 2.21693 138.896 4.27072C138.66 4.46502 138.399 4.6911 138.122 4.96667C137.513 5.50377 136.846 6.22735 136.084 7.06397C135.728 7.50415 135.35 7.97195 134.951 8.46577C134.571 8.97525 134.205 9.53422 133.803 10.1052C133.227 11.0189 132.651 12.036 132.105 13.1125C132.317 12.2899 132.461 11.0963 132.212 10.0257C131.895 8.83044 131.498 7.84901 130.92 7.22466C130.223 8.31705 130.085 9.58579 130.291 10.6344C130.538 11.7109 131.173 12.5892 132.101 13.1164C131.943 13.4298 131.777 13.7212 131.626 14.0481C131.213 14.9225 130.843 15.8602 130.499 16.8255C130.591 16.0068 130.538 14.9144 130.192 13.9708C129.737 12.833 129.177 11.8993 128.54 11.3661C127.505 13.7429 128.48 16.2467 130.433 17.0258C130.235 17.5988 130.034 18.1677 129.865 18.7683C129.689 19.4445 129.537 20.1443 129.39 20.8479C129.357 20.0371 129.143 19.0064 128.7 18.1518C128.122 17.0914 127.414 16.223 126.717 15.7789C126.015 18.2807 127.291 20.634 129.325 21.1414C129.137 22.1028 128.989 23.0822 128.932 24.0873C128.91 24.3845 128.9 24.6919 128.888 24.9971C128.694 24.2181 128.393 23.2843 127.801 22.5271C127.079 21.5597 126.276 20.7984 125.502 20.4496C125.429 21.1057 125.463 21.7441 125.588 22.3268C125.728 22.9136 125.993 23.4549 126.31 23.901C126.911 24.7614 127.853 25.2826 128.87 25.3878C128.84 26.6586 128.922 27.9571 129.141 29.2C128.797 28.4902 128.316 27.6674 127.635 27.0371C126.723 26.2025 125.849 25.5761 125.02 25.356C125.039 26.7042 125.629 27.9234 126.415 28.6944C127.206 29.442 128.209 29.765 129.214 29.6657C129.216 29.6657 129.216 29.6678 129.216 29.6678C129.493 31.022 129.931 32.3183 130.451 33.5732C129.984 32.8872 129.242 32.0745 128.377 31.5374C127.301 30.9287 126.3 30.4885 125.461 30.4291C126.126 33.1432 128.54 34.4635 130.528 33.7595C130.699 34.1601 130.839 34.5763 131.035 34.9629C131.48 35.8372 131.973 36.6738 132.497 37.4748C131.889 36.882 131.009 36.1365 129.964 35.7737C128.827 35.3535 127.742 35.1334 126.899 35.2522C127.2 35.8591 127.566 36.3983 128.009 36.8226C128.466 37.2388 128.967 37.556 129.477 37.7561C130.516 38.1486 131.618 38.0496 132.539 37.5321C132.992 38.2182 133.463 38.8823 133.965 39.5046C134.236 39.8278 134.521 40.1193 134.798 40.4285V40.6447C134.131 40.2125 133.237 39.7901 132.325 39.6218C131.102 39.4413 130.014 39.4176 129.218 39.6851C129.59 40.2462 130.083 40.6764 130.591 41.0114C131.092 41.3505 131.638 41.5685 132.192 41.6558C133.138 41.8202 134.032 41.6279 134.798 41.1343V43.0178C133.793 43.0631 132.893 43.2436 132.256 43.5984C132.736 44.0505 133.267 44.4113 133.813 44.6572C134.141 44.7858 134.47 44.8692 134.798 44.9288V47.1985H186.849V44.7801C186.987 44.7384 187.124 44.7108 187.26 44.6572C187.806 44.4113 188.335 44.0505 188.817 43.5984C188.305 43.3131 187.618 43.1425 186.849 43.0592V41.4357C187.476 41.6915 188.163 41.7806 188.879 41.6558C189.435 41.5685 189.979 41.3505 190.481 41.0114C190.988 40.6764 191.483 40.2462 191.853 39.6851C191.059 39.4176 189.969 39.4413 188.746 39.6218C188.077 39.7447 187.421 40.0102 186.849 40.3115V39.7901C186.934 39.6911 187.023 39.6038 187.108 39.5046C187.611 38.8823 188.081 38.2182 188.532 37.5321C189.455 38.0496 190.557 38.1486 191.594 37.7561C192.106 37.556 192.606 37.2388 193.064 36.8226C193.505 36.3983 193.871 35.8591 194.172 35.2522C193.329 35.1334 192.246 35.3535 191.109 35.7737C190.064 36.1365 189.181 36.882 188.574 37.4748C189.101 36.6738 189.593 35.8372 190.036 34.9629C190.234 34.5763 190.373 34.1601 190.543 33.7595C192.533 34.4635 194.945 33.1432 195.61 30.4291C194.771 30.4885 193.772 30.9287 192.696 31.5374C191.829 32.0745 191.089 32.8872 190.622 33.5732ZM143.504 45.2023H143.128C142.881 45.2023 142.723 45.0734 142.673 44.8158L142.406 43.5369H141.019L140.754 44.8158C140.702 45.0734 140.554 45.2023 140.297 45.2023H139.921C139.624 45.2023 139.476 45.0338 139.535 44.7363L140.811 38.7693C140.871 38.5216 141.019 38.3906 141.276 38.3906H142.149C142.406 38.3906 142.564 38.5216 142.614 38.7693L143.89 44.7363C143.949 45.0338 143.811 45.2023 143.504 45.2023ZM148.392 40.3253C148.392 40.5931 148.233 40.7517 147.966 40.7517H147.56C147.283 40.7517 147.135 40.5931 147.135 40.3253V40.0677C147.135 39.701 146.927 39.4431 146.423 39.4431C145.928 39.4431 145.73 39.6911 145.73 40.0677V43.527C145.73 43.9036 145.928 44.1516 146.423 44.1516C146.927 44.1516 147.135 43.9036 147.135 43.527V43.2892C147.135 43.0115 147.283 42.8532 147.56 42.8532H147.966C148.233 42.8532 148.392 43.0115 148.392 43.2892V43.5866C148.392 44.5879 147.748 45.3013 146.423 45.3013C145.107 45.3013 144.474 44.5879 144.474 43.5866V40.0083C144.474 39.0071 145.107 38.2934 146.423 38.2934C147.748 38.2934 148.392 39.0071 148.392 40.0083V40.3253ZM153.073 40.3253C153.073 40.5931 152.915 40.7517 152.648 40.7517H152.242C151.965 40.7517 151.817 40.5931 151.817 40.3253V40.0677C151.817 39.701 151.609 39.4431 151.104 39.4431C150.608 39.4431 150.412 39.6911 150.412 40.0677V43.527C150.412 43.9036 150.608 44.1516 151.104 44.1516C151.609 44.1516 151.817 43.9036 151.817 43.527V43.2892C151.817 43.0115 151.965 42.8532 152.242 42.8532H152.648C152.915 42.8532 153.073 43.0115 153.073 43.2892V43.5866C153.073 44.5879 152.43 45.3013 151.104 45.3013C149.788 45.3013 149.153 44.5879 149.153 43.5866V40.0083C149.153 39.0071 149.788 38.2934 151.104 38.2934C152.43 38.2934 153.073 39.0071 153.073 40.0083V40.3253ZM157.832 41.0096C157.832 41.6636 157.564 42.189 157.011 42.4765L157.822 44.7066C157.931 45.0041 157.792 45.2023 157.485 45.2023H157.001C156.743 45.2023 156.585 45.0932 156.496 44.8356L155.804 42.7143H155.289V44.7759C155.289 45.0536 155.131 45.2023 154.864 45.2023H154.458C154.181 45.2023 154.033 45.0536 154.033 44.7759V38.8188C154.033 38.551 154.181 38.3906 154.458 38.3906H155.873C157.198 38.3906 157.832 39.0964 157.832 40.1073V41.0096ZM162.137 39.0665C162.137 39.3343 161.979 39.4929 161.712 39.4929H160.089V41.2075H161.435C161.712 41.2075 161.86 41.3662 161.86 41.6339V41.8816C161.86 42.1494 161.712 42.308 161.435 42.308H160.089V44.112H161.712C161.979 44.112 162.137 44.2605 162.137 44.5381V44.7759C162.137 45.0536 161.979 45.2023 161.712 45.2023H159.258C158.981 45.2023 158.833 45.0536 158.833 44.7759V38.8188C158.833 38.551 158.981 38.3906 159.258 38.3906H161.712C161.979 38.3906 162.137 38.551 162.137 38.8188V39.0665ZM166.876 43.4973C166.876 44.4985 166.233 45.2023 164.907 45.2023H163.384C163.107 45.2023 162.958 45.0536 162.958 44.7759V38.8188C162.958 38.551 163.107 38.3906 163.384 38.3906H164.907C166.233 38.3906 166.876 39.0964 166.876 40.1073V43.4973ZM169.173 44.7759C169.173 45.0536 169.025 45.2023 168.746 45.2023H168.332C168.055 45.2023 167.907 45.0536 167.907 44.7759V38.8188C167.907 38.551 168.055 38.3906 168.332 38.3906H168.746C169.025 38.3906 169.173 38.551 169.173 38.8188V44.7759ZM173.536 39.0665C173.536 39.3343 173.388 39.4929 173.111 39.4929H172.3V44.7759C172.3 45.0536 172.151 45.2023 171.874 45.2023H171.459C171.182 45.2023 171.023 45.0536 171.023 44.7759V39.4929H170.212C169.935 39.4929 169.787 39.3343 169.787 39.0665V38.8188C169.787 38.551 169.935 38.3906 170.212 38.3906H173.111C173.388 38.3906 173.536 38.551 173.536 38.8188V39.0665ZM177.456 39.0665C177.456 39.3343 177.296 39.4929 177.029 39.4929H175.406V41.2075H176.754C177.029 41.2075 177.179 41.3662 177.179 41.6339V41.8816C177.179 42.1494 177.029 42.308 176.754 42.308H175.406V44.112H177.029C177.296 44.112 177.456 44.2605 177.456 44.5381V44.7759C177.456 45.0536 177.296 45.2023 177.029 45.2023H174.575C174.298 45.2023 174.15 45.0536 174.15 44.7759V38.8188C174.15 38.551 174.298 38.3906 174.575 38.3906H177.029C177.296 38.3906 177.456 38.551 177.456 38.8188V39.0665ZM182.195 43.4973C182.195 44.4985 181.552 45.2023 180.226 45.2023H178.703C178.426 45.2023 178.277 45.0536 178.277 44.7759V38.8188C178.277 38.551 178.426 38.3906 178.703 38.3906H180.226C181.552 38.3906 182.195 39.0964 182.195 40.1073V43.4973Z" fill="#1D1E1C"/>
<path d="M187.202 3.40271C186.719 4.10856 186.462 5.1533 186.331 6.37047C186.213 7.48864 186.545 8.63444 186.85 9.43123C188.575 8.17861 188.909 5.4664 187.202 3.40271Z" fill="#1D1E1C"/>
<path d="M186.448 9.69919C185.853 9.07483 184.834 8.48202 183.797 8.41249C182.643 8.34734 181.636 8.62084 180.936 9.05296C182.289 10.3514 184.572 10.7499 186.448 9.69919Z" fill="#1D1E1C"/>
<path d="M184.251 6.06401C184.999 5.30474 185.401 4.25817 185.288 3.16762C185.216 2.05566 184.617 0.907788 183.608 0.00164795C183.262 0.780939 183.168 1.89497 183.264 3.10638C183.327 4.23837 183.839 5.31672 184.251 6.06401Z" fill="#1D1E1C"/>
<path d="M178.412 6.65157C179.872 7.66477 182.189 7.68641 183.891 6.38797C183.216 5.85271 182.11 5.42635 181.087 5.53156C179.932 5.67821 179.023 6.09859 178.412 6.65157Z" fill="#1D1E1C"/>
<path d="M134.22 9.43123C134.525 8.63444 134.857 7.48841 134.739 6.37047C134.61 5.1533 134.351 4.10833 133.868 3.40271C132.161 5.4664 132.495 8.17838 134.22 9.43123Z" fill="#1D1E1C"/>
<path d="M140.134 9.05234C139.433 8.62021 138.426 8.34671 137.275 8.41209C136.238 8.48139 135.219 9.07421 134.621 9.69879C136.497 10.7493 138.78 10.351 140.134 9.05234Z" fill="#1D1E1C"/>
<path d="M137.808 3.10659C137.901 1.89541 137.808 0.781147 137.464 0.000244141C136.453 0.908229 135.853 2.05587 135.782 3.16806C135.671 4.25861 136.071 5.30518 136.821 6.06445C137.232 5.31716 137.743 4.23858 137.808 3.10659Z" fill="#1D1E1C"/>
<path d="M142.659 6.65157C142.047 6.09859 141.139 5.67821 139.981 5.53156C138.96 5.42635 137.854 5.85271 137.18 6.38797C138.881 7.68641 141.198 7.66477 142.659 6.65157Z" fill="#1D1E1C"/>
<path d="M144.033 33.7432L144.785 31.4079H151.779L152.531 33.7432H157.846L151.279 15.8616H145.262L138.92 33.7432H144.033ZM147.393 23.1451C147.543 22.6434 147.826 21.6961 148.245 20.3062C148.344 20.7602 148.629 21.706 149.096 23.1451L150.426 27.2646H146.089L147.393 23.1451Z" fill="#1D1E1C"/>
<path d="M166.448 19.1619H163.265V15.9524H161.098V19.1619H157.895V21.1662H161.098V24.3561H163.265V21.1662H166.448V19.1619Z" fill="#1D1E1C"/>
<path d="M173.95 15.9529H171.784V19.1626H168.58V21.1648H171.784V24.3566H173.95V21.1648H177.134V19.1626H173.95V15.9529Z" fill="#1D1E1C"/>
<path d="M148.286 6.59881H148.311L150.595 13.0954H152.72V3.81754H151.009V10.1711H150.983L148.727 3.81754H146.574V13.0954H148.286V6.59881Z" fill="#1D1E1C"/>
<path d="M155.741 11.1332H158.205L158.634 13.0958H160.577L158.128 3.81799H155.819L153.369 13.0958H155.314L155.741 11.1332ZM156.96 5.42976H156.986L157.88 9.60087H156.066L156.96 5.42976Z" fill="#1D1E1C"/>
<path d="M163.321 11.1332H165.785L166.212 13.0958H168.157L165.708 3.81799H163.399L160.949 13.0958H162.894L163.321 11.1332ZM164.54 5.42976H164.566L165.46 9.60087H163.646L164.54 5.42976Z" fill="#1D1E1C"/>
<path d="M168.768 11.926C168.99 12.3503 169.307 12.6813 169.722 12.9191C170.138 13.159 170.694 13.2781 171.394 13.2781C172.007 13.2781 172.508 13.177 172.892 12.9788C173.278 12.7785 173.575 12.5089 173.786 12.1659C173.998 11.8249 174.144 11.4285 174.222 10.9784C174.299 10.5265 174.338 10.0506 174.338 9.54919H172.47C172.47 10.0506 172.441 10.4551 172.379 10.7622C172.32 11.0716 172.237 11.3094 172.134 11.478C172.029 11.6465 171.907 11.7595 171.764 11.815C171.622 11.8726 171.467 11.9004 171.303 11.9004C171.105 11.9004 170.929 11.8585 170.779 11.7775C170.626 11.6941 170.502 11.5334 170.403 11.2956C170.304 11.0576 170.229 10.7226 170.181 10.2884C170.134 9.8563 170.11 9.28743 170.11 8.58549C170.11 7.92937 170.128 7.37224 170.163 6.9164C170.197 6.46241 170.258 6.09383 170.343 5.81227C170.43 5.53071 170.549 5.32858 170.702 5.2015C170.852 5.07672 171.044 5.01318 171.277 5.01318C171.701 5.01318 171.994 5.16789 172.154 5.47523C172.314 5.78234 172.393 6.27409 172.393 6.95024H174.261C174.261 6.61113 174.237 6.25038 174.188 5.86568C174.142 5.47914 174.022 5.12023 173.832 4.78734C173.642 4.45421 173.355 4.17864 172.971 3.96062C172.585 3.74444 172.061 3.63739 171.394 3.63739C170.694 3.63739 170.138 3.75641 169.722 3.99423C169.307 4.23205 168.99 4.5631 168.768 4.9874C168.549 5.41169 168.406 5.92117 168.341 6.51398C168.276 7.10864 168.244 7.75509 168.244 8.4568C168.244 9.15851 168.276 9.80681 168.341 10.3996C168.406 10.9924 168.549 11.5017 168.768 11.926Z" fill="#1D1E1C"/>
<path d="M162.591 28.8672H162.996C163.265 28.8672 163.424 28.7187 163.424 28.451V28.3814C163.424 27.3784 162.779 26.6626 161.451 26.6626C160.133 26.6626 159.5 27.3784 159.5 28.3814V31.9837C159.5 32.9373 159.995 33.6431 161.095 33.6431C161.867 33.6431 162.175 33.1454 162.224 32.9769V33.1553C162.224 33.4348 162.373 33.5835 162.65 33.5835H162.986C163.256 33.5835 163.414 33.4348 163.414 33.1553V30.1776C163.414 29.9099 163.256 29.7515 162.986 29.7515H161.987C161.708 29.7515 161.56 29.9099 161.56 30.1776V30.4253C161.56 30.6951 161.708 30.8535 161.987 30.8535H162.165V31.9045C162.165 32.283 161.948 32.5309 161.451 32.5309C160.956 32.5309 160.759 32.283 160.759 31.9045V28.4411C160.759 28.0624 160.956 27.8146 161.451 27.8146C161.957 27.8146 162.165 28.0624 162.165 28.4312V28.5005C162.165 28.7286 162.314 28.8672 162.591 28.8672Z" fill="#1D1E1C"/>
<path d="M168.307 29.3839V28.48C168.307 27.4689 167.674 26.7633 166.346 26.7633H164.928C164.65 26.7633 164.502 26.9217 164.502 27.1894V33.1565C164.502 33.4341 164.65 33.5828 164.928 33.5828H165.335C165.602 33.5828 165.76 33.4341 165.76 33.1565V31.0907H166.277L166.969 33.2161C167.058 33.4737 167.217 33.5828 167.474 33.5828H167.961C168.267 33.5828 168.406 33.3844 168.297 33.0872L167.484 30.8529C168.04 30.5653 168.307 30.0402 168.307 29.3839ZM167.049 29.374C167.049 29.7506 166.851 29.9886 166.346 29.9886H165.76V27.8653H166.346C166.851 27.8653 167.049 28.1032 167.049 28.48V29.374Z" fill="#1D1E1C"/>
<path d="M171.476 26.7628H170.604C170.346 26.7628 170.198 26.8915 170.139 27.1395L168.861 33.1164C168.801 33.4138 168.95 33.5824 169.246 33.5824H169.622C169.88 33.5824 170.03 33.4534 170.077 33.1956L170.346 31.9151H171.734L172.001 33.1956C172.05 33.4534 172.209 33.5824 172.456 33.5824H172.834C173.14 33.5824 173.279 33.4138 173.22 33.1164L171.941 27.1395C171.892 26.8915 171.734 26.7628 171.476 26.7628ZM170.564 30.8425L170.604 30.6641C170.891 29.225 170.98 28.6283 171.039 27.9938C171.089 28.638 171.187 29.205 171.476 30.6641L171.516 30.8425H170.564Z" fill="#1D1E1C"/>
<path d="M174.429 26.7633C174.152 26.7633 174.004 26.9219 174.004 27.1896V33.1567C174.004 33.4341 174.152 33.5828 174.429 33.5828H175.955C177.283 33.5828 177.928 32.8772 177.928 31.876V28.48C177.928 27.4671 177.283 26.7633 175.955 26.7633H174.429ZM176.669 28.48V31.8661C176.669 32.2427 176.461 32.4904 175.955 32.4904H175.262V27.8656H175.955C176.461 27.8656 176.669 28.1034 176.669 28.48Z" fill="#1D1E1C"/>
<path d="M181.84 27.8646C182.107 27.8646 182.265 27.706 182.265 27.4385V27.1887C182.265 26.9212 182.107 26.7623 181.84 26.7623H179.383C179.105 26.7623 178.957 26.9212 178.957 27.1887V33.1557C178.957 33.4334 179.105 33.5821 179.383 33.5821H181.84C182.107 33.5821 182.265 33.4334 182.265 33.1557V32.9179C182.265 32.6405 182.107 32.4897 181.84 32.4897H180.216V30.6837H181.563C181.84 30.6837 181.988 30.525 181.988 30.2575V30.0096C181.988 29.74 181.84 29.5814 181.563 29.5814H180.216V27.8646H181.84Z" fill="#1D1E1C"/>
<path d="M164.907 39.4922H164.215V44.1113H164.907C165.412 44.1113 165.62 43.8636 165.62 43.4868V40.1069C165.62 39.7303 165.412 39.4922 164.907 39.4922Z" fill="#1D1E1C"/>
<path d="M155.871 39.4922H155.287V41.6135H155.871C156.375 41.6135 156.573 41.3756 156.573 40.999V40.1069C156.573 39.7303 156.375 39.4922 155.871 39.4922Z" fill="#1D1E1C"/>
<path d="M141.713 39.6211C141.654 40.2556 141.565 40.8502 141.278 42.2875L141.238 42.4659H142.188L142.148 42.2875C141.861 40.8304 141.763 40.2655 141.713 39.6211Z" fill="#1D1E1C"/>
<path d="M180.226 39.4922H179.533V44.1113H180.226C180.73 44.1113 180.938 43.8636 180.938 43.4868V40.1069C180.938 39.7303 180.73 39.4922 180.226 39.4922Z" fill="#1D1E1C"/>
<path d="M301.684 38.8684C300.616 38.7059 299.606 38.4501 298.657 38.1172C298.671 37.9505 298.653 37.235 298.186 36.4974C297.65 35.6608 296.807 35.0226 296.807 35.0127C296.815 35.0127 296.49 35.7858 296.973 36.6859C297.321 37.334 298.035 37.8276 298.419 38.0318C297.569 37.7205 296.767 37.3421 296.019 36.9118C296.065 36.7492 296.189 36.0455 295.89 35.2484C295.546 34.3446 294.856 33.5793 294.856 33.5713C294.866 33.5713 294.409 34.2751 294.699 35.2346C294.907 35.9267 295.491 36.5273 295.809 36.7868C295.018 36.3132 294.282 35.772 293.605 35.1831C293.682 35.0343 293.942 34.3683 293.813 33.5377C293.661 32.5961 293.136 31.7298 293.14 31.7259C293.15 31.7259 292.574 32.3343 292.669 33.3197C292.736 34.0313 293.18 34.7192 293.431 35.0265C292.81 34.4675 292.242 33.857 291.731 33.2126C291.834 33.0756 292.204 32.4711 292.226 31.6345C292.242 30.6889 291.876 29.7492 291.882 29.7453C291.89 29.7453 291.221 30.2488 291.144 31.2341C291.09 31.9418 291.399 32.6893 291.587 33.0342C291.065 32.3562 290.596 31.6345 290.192 30.8892C290.315 30.7741 290.787 30.2449 290.954 29.4301C291.136 28.5042 290.936 27.5248 290.936 27.5191C290.94 27.523 290.2 27.8996 289.957 28.8493C289.782 29.5372 289.957 30.3181 290.081 30.6889C289.701 29.9633 289.379 29.2121 289.114 28.4448C289.254 28.3515 289.808 27.9116 290.107 27.1364C290.437 26.2581 290.396 25.259 290.4 25.2512C290.404 25.2551 289.612 25.5028 289.221 26.397C288.935 27.0414 288.983 27.8402 289.042 28.2226C288.769 27.3961 288.562 26.5436 288.421 25.6812C288.574 25.6138 289.195 25.2809 289.622 24.5729C290.097 23.7663 290.226 22.777 290.23 22.7731C290.233 22.777 289.412 22.8841 288.872 23.6889C288.48 24.2737 288.392 25.0668 288.387 25.4551C288.267 24.6485 288.207 23.8356 288.207 23.0208C288.37 22.9812 289.038 22.7551 289.571 22.1248C290.17 21.4072 290.459 20.4476 290.465 20.4437C290.469 20.4476 289.638 20.414 288.971 21.1256C288.489 21.639 288.273 22.4064 288.203 22.789C288.217 21.9623 288.289 21.1355 288.425 20.3208C288.591 20.3068 289.29 20.196 289.919 19.6686C290.635 19.062 291.086 18.1579 291.094 18.154C291.098 18.1579 290.281 17.9834 289.503 18.5762C288.942 19.0023 288.595 19.728 288.469 20.0947C288.617 19.288 288.825 18.4949 289.098 17.7198C289.264 17.7357 289.97 17.7456 290.691 17.3174C291.504 16.8357 292.115 16.009 292.125 16.0051C292.129 16.009 291.35 15.7017 290.469 16.1575C289.834 16.4906 289.367 17.1528 289.175 17.4937C289.482 16.6612 289.86 15.8504 290.311 15.0753C290.473 15.1229 291.171 15.2537 291.967 14.9601C292.869 14.6231 293.657 13.9016 293.671 13.9016C293.671 13.9115 292.958 13.4635 291.989 13.7648C291.286 13.9868 290.691 14.5637 290.435 14.871C290.869 14.1493 291.371 13.4536 291.937 12.7975C292.089 12.8707 292.758 13.1165 293.619 12.9519C294.589 12.7597 295.546 12.163 295.556 12.163C295.556 12.171 294.929 11.6079 293.886 11.7527C293.134 11.8598 292.418 12.3414 292.099 12.605C292.38 12.2898 292.673 11.9866 292.984 11.6892C293.376 11.5147 294.066 11.1857 294.769 10.6702C295.793 9.91097 296.577 8.96339 296.585 8.95948C296.599 8.95533 295.309 9.06653 294.189 9.89302C293.435 10.4442 293.006 11.1341 292.818 11.5147C292.503 11.816 292.2 12.1234 291.919 12.4445C292.147 12.0856 292.602 11.3602 292.857 10.5968C293.21 9.54032 292.929 8.76701 292.921 8.76701C292.917 8.75919 291.793 9.79586 291.524 10.9041C291.282 11.8676 291.668 12.4901 291.755 12.6269C291.18 13.297 290.669 14.0008 290.226 14.7304C290.376 14.3496 290.673 13.5745 290.762 12.8034C290.887 11.7327 290.459 11.0331 290.451 11.0331C290.447 11.0232 289.583 12.1966 289.545 13.3049C289.501 14.2743 289.996 14.8156 290.107 14.9344C289.646 15.7235 289.264 16.5461 288.953 17.3906C289.025 16.9941 289.165 16.1932 289.094 15.4339C288.995 14.3814 288.437 13.7787 288.429 13.7826C288.421 13.7747 287.83 15.0495 288.008 16.1338C288.158 17.0795 288.74 17.5195 288.872 17.6127C288.595 18.4017 288.381 19.2086 288.233 20.0273C288.233 19.6308 288.233 18.8241 288.029 18.0946C287.748 17.0853 287.089 16.5938 287.083 16.5938C287.076 16.5857 286.728 17.924 287.088 18.9528C287.4 19.8528 288.047 20.1859 288.192 20.2575C288.051 21.09 287.978 21.9245 287.966 22.765C287.901 22.3725 287.764 21.5835 287.438 20.9056C286.986 19.964 286.254 19.5933 286.25 19.5972C286.241 19.5892 286.13 20.9571 286.658 21.9047C287.113 22.7314 287.808 22.9494 287.96 22.9971C287.96 23.8236 288.021 24.6503 288.144 25.465C288.015 25.0905 287.756 24.3351 287.327 23.7207C286.731 22.8682 285.948 22.6304 285.944 22.6343C285.934 22.6304 286.045 23.9903 286.722 24.8347C287.305 25.5762 288.02 25.6752 288.182 25.6953C288.322 26.5694 288.536 27.4318 288.811 28.2763C288.625 27.9254 288.237 27.2276 287.709 26.7022C286.977 25.9688 286.169 25.8755 286.163 25.8797C286.156 25.8755 286.496 27.1979 287.305 27.9095C288.004 28.5359 288.726 28.5062 288.888 28.4984C289.157 29.2775 289.484 30.0406 289.872 30.7741C289.63 30.459 289.135 29.8325 288.53 29.4023C287.693 28.7995 286.88 28.8394 286.876 28.8472C286.866 28.8433 287.416 30.0922 288.326 30.6691C289.118 31.1706 289.824 31.0221 289.982 30.9882C290.396 31.7475 290.869 32.4771 291.401 33.167C291.102 32.8993 290.506 32.3601 289.834 32.0369C288.902 31.585 288.11 31.7694 288.106 31.7733C288.097 31.7733 288.85 32.9113 289.852 33.3215C290.718 33.6825 291.395 33.4108 291.546 33.3514C292.064 34.0036 292.644 34.622 293.269 35.189C292.925 34.971 292.234 34.5407 291.512 34.3308C290.511 34.0412 289.757 34.3485 289.753 34.3566C289.741 34.3566 290.685 35.3635 291.753 35.6014C292.681 35.8155 293.307 35.4349 293.447 35.3497C294.134 35.9524 294.878 36.4974 295.683 36.9792C295.291 36.8266 294.507 36.5232 293.746 36.4458C292.685 36.3348 292.001 36.7789 292.001 36.7831C291.987 36.7868 293.124 37.6116 294.248 37.6572C295.222 37.7046 295.776 37.215 295.898 37.1042C296.66 37.5423 297.473 37.9268 298.334 38.242C297.899 38.1568 297.04 37.9901 296.253 38.0417C295.158 38.1091 294.553 38.6603 294.553 38.6683C294.541 38.6723 295.847 39.2987 297.006 39.1539C298.01 39.0351 298.479 38.46 298.581 38.3311C299.547 38.6683 300.568 38.928 301.654 39.0906C301.773 39.1083 301.876 39.0687 301.884 39.0012C301.888 38.9497 301.799 38.8864 301.684 38.8684Z" fill="#1D1E1C"/>
<path d="M318.638 27.9249C319.443 27.2094 319.787 25.8912 319.779 25.8948C319.774 25.8912 318.966 25.9881 318.234 26.7177C317.706 27.2469 317.318 27.9429 317.13 28.2919C317.407 27.4511 317.62 26.5869 317.761 25.7125C317.923 25.6909 318.642 25.5917 319.221 24.8501C319.894 24.0057 320.009 22.6458 319.999 22.6497C319.995 22.6458 319.211 22.8836 318.616 23.7379C318.186 24.3505 317.921 25.1059 317.799 25.4807C317.917 24.6618 317.983 23.8392 317.983 23.0125C318.139 22.9649 318.834 22.7468 319.285 21.9201C319.813 20.9725 319.702 19.6048 319.692 19.6126C319.688 19.6087 318.956 19.9794 318.505 20.923C318.177 21.601 318.042 22.39 317.977 22.7804C317.965 21.942 317.892 21.1054 317.751 20.2727C317.896 20.2013 318.549 19.8684 318.853 18.9685C319.215 17.9415 318.867 16.6014 318.859 16.6092C318.849 16.6053 318.194 17.0968 317.913 18.1118C317.71 18.8396 317.71 19.6462 317.71 20.0429C317.559 19.2279 317.348 18.4173 317.071 17.6302C317.203 17.531 317.785 17.0929 317.935 16.1494C318.113 15.067 317.522 13.7902 317.514 13.8001C317.504 13.7961 316.948 14.3968 316.849 15.4496C316.778 16.2088 316.918 17.0116 316.99 17.408C316.679 16.5636 316.295 15.7449 315.836 14.95C315.947 14.831 316.441 14.2897 316.398 13.3223C316.36 12.2081 315.495 11.0365 315.492 11.0485C315.482 11.0485 315.056 11.7483 315.181 12.8186C315.27 13.5901 315.567 14.3671 315.717 14.7458C315.274 14.0123 314.767 13.3083 314.188 12.6423C314.273 12.5076 314.661 11.8851 314.417 10.9196C314.154 9.81151 313.026 8.77069 313.022 8.7845C313.014 8.7845 312.737 9.55573 313.086 10.6124C313.337 11.3756 313.796 12.101 314.021 12.4599C313.737 12.1409 313.44 11.8275 313.125 11.5303C312.937 11.1495 312.502 10.4596 311.754 9.90866C310.63 9.08194 309.344 8.97075 309.358 8.97489C309.362 8.97881 310.145 9.92639 311.174 10.6856C311.876 11.1972 312.571 11.5303 312.959 11.7046C313.27 11.9979 313.566 12.3052 313.843 12.6206C313.525 12.3568 312.808 11.8752 312.057 11.7681C311.014 11.6194 310.383 12.1823 310.387 12.1784C310.396 12.1784 311.354 12.7751 312.324 12.9674C313.184 13.134 313.851 12.8822 314.006 12.8129C314.572 13.4711 315.074 14.165 315.507 14.8865C315.252 14.5791 314.657 13.9983 313.954 13.7823C312.985 13.4789 312.268 13.923 312.272 13.917C312.282 13.917 313.074 14.6387 313.976 14.9756C314.771 15.2691 315.47 15.1383 315.632 15.0907C316.087 15.8718 316.461 16.6766 316.768 17.5093C316.576 17.1682 316.109 16.5021 315.474 16.1752C314.593 15.7132 313.814 16.0244 313.818 16.0205C313.828 16.0205 314.443 16.8472 315.252 17.3348C315.972 17.7571 316.679 17.7472 316.845 17.7352C317.118 18.5103 317.326 19.3094 317.474 20.1101C317.348 19.7434 317.001 19.0177 316.439 18.5916C315.662 17.999 314.845 18.1733 314.848 18.1694C314.856 18.1733 315.308 19.0792 316.024 19.684C316.657 20.2174 317.352 20.3242 317.518 20.3362C317.654 21.1549 317.729 21.9777 317.737 22.8062C317.67 22.4218 317.452 21.6544 316.972 21.1431C316.305 20.4334 315.474 20.469 315.478 20.4591C315.482 20.4651 315.773 21.4245 316.372 22.1402C316.904 22.7666 317.573 22.9927 317.735 23.0364C317.735 23.851 317.674 24.6659 317.555 25.4708C317.551 25.0822 317.462 24.2891 317.071 23.7064C316.53 22.8956 315.703 22.7924 315.713 22.7885C315.717 22.7924 315.844 23.7856 316.321 24.5886C316.748 25.2963 317.369 25.6294 317.522 25.6966C317.381 26.559 317.173 27.4076 316.9 28.2383C316.96 27.8556 317.007 27.0565 316.722 26.4145C316.327 25.5224 315.533 25.2705 315.543 25.2666C315.547 25.2705 315.504 26.2676 315.836 27.1518C316.135 27.9231 316.687 28.3669 316.827 28.4602C316.564 29.2275 316.241 29.9787 315.862 30.7044C315.986 30.3337 316.16 29.5526 315.986 28.8668C315.739 27.915 314.997 27.5405 315.007 27.5345C315.011 27.5405 314.807 28.5198 314.989 29.4455C315.155 30.2603 315.632 30.7895 315.751 30.9046C315.347 31.6559 314.878 32.3716 314.356 33.0496C314.542 32.7045 314.853 31.9611 314.797 31.2495C314.722 30.2681 314.053 29.7667 314.061 29.7607C314.065 29.7667 313.695 30.7044 313.717 31.6519C313.739 32.4865 314.112 33.0933 314.211 33.228C313.695 33.8722 313.129 34.479 312.512 35.0419C312.763 34.7307 313.206 34.0488 313.274 33.3351C313.368 32.3497 312.793 31.7413 312.803 31.7413C312.803 31.7491 312.278 32.6115 312.13 33.5531C312.001 34.3858 312.26 35.0458 312.338 35.1985C311.661 35.7934 310.929 36.3307 310.133 36.8024C310.452 36.5427 311.036 35.9418 311.243 35.25C311.532 34.2907 311.077 33.5867 311.087 33.5867C311.087 33.5968 310.396 34.354 310.052 35.2641C309.754 36.0609 309.878 36.7647 309.924 36.9272C309.176 37.3614 308.374 37.738 307.524 38.0472C307.901 37.8432 308.622 37.3494 308.97 36.7011C309.451 35.8012 309.128 35.0281 309.136 35.0281C309.136 35.038 308.293 35.6723 307.757 36.513C307.29 37.2504 307.272 37.968 307.284 38.1345C306.336 38.4655 305.327 38.7174 304.259 38.8838C304.144 38.9018 304.059 38.9692 304.067 39.0325C304.075 39.1018 304.178 39.1396 304.296 39.1239C305.383 38.9573 306.408 38.7015 307.371 38.3644C307.472 38.4913 307.941 39.0724 308.944 39.1872C310.104 39.3321 311.406 38.7056 311.398 38.7015C311.398 38.6916 310.792 38.1425 309.698 38.0751C308.911 38.0235 308.052 38.1941 307.617 38.2754C308.481 37.9542 309.291 37.5755 310.052 37.1355C310.171 37.2465 310.725 37.732 311.703 37.6904C312.826 37.6429 313.964 36.8204 313.95 36.8162C313.95 36.8082 313.262 36.3682 312.205 36.4792C311.443 36.5565 310.66 36.8579 310.268 37.0126C311.073 36.5307 311.823 35.9835 312.504 35.3829C312.64 35.4683 313.266 35.8528 314.198 35.6347C315.266 35.3969 316.212 34.3897 316.198 34.3897C316.198 34.3819 315.444 34.0745 314.441 34.3639C313.717 34.572 313.026 35.0044 312.682 35.2203C313.311 34.6533 313.887 34.0349 314.405 33.3827C314.556 33.446 315.232 33.7156 316.101 33.3528C317.1 32.9446 317.854 31.8046 317.846 31.8046C317.846 31.7967 317.049 31.6183 316.117 32.0702C315.444 32.3935 314.848 32.9306 314.552 33.2002C315.082 32.5084 315.555 31.7788 315.968 31.0195C316.125 31.0552 316.837 31.2039 317.625 30.7004C318.535 30.1295 319.085 28.8806 319.075 28.8806C319.071 28.8766 318.258 28.8329 317.421 29.4335C316.815 29.8698 316.323 30.4962 316.079 30.8075C316.463 30.074 316.79 29.3106 317.063 28.5297C317.215 28.5217 317.939 28.5513 318.638 27.9249Z" fill="#1D1E1C"/>
<path d="M304.887 18.9848H305.714V17.4909H306.81V18.9848H307.8V19.8035H306.81V22.462C306.81 22.579 306.815 22.6775 306.825 22.7611C306.835 22.8447 306.856 22.9149 306.891 22.9733C306.926 23.0318 306.98 23.0753 307.05 23.1037C307.122 23.132 307.216 23.1472 307.338 23.1472C307.415 23.1472 307.493 23.1456 307.57 23.1421C307.647 23.1389 307.724 23.1271 307.8 23.1087V23.9559C307.679 23.9693 307.56 23.9826 307.445 23.9944C307.33 24.0077 307.21 24.0144 307.088 24.0144C306.8 24.0144 306.568 23.9859 306.391 23.9324C306.216 23.8774 306.077 23.7971 305.977 23.6919C305.879 23.5848 305.811 23.4513 305.776 23.2908C305.741 23.1304 305.721 22.9483 305.714 22.7427V19.8035H304.887V18.9848Z" fill="#1D1E1C"/>
<path d="M308.688 17.0869H309.783V19.64H309.803C309.937 19.4144 310.137 19.2275 310.404 19.0769C310.671 18.925 310.966 18.8497 311.293 18.8497C311.838 18.8497 312.268 18.9917 312.582 19.2742C312.895 19.5565 313.054 19.981 313.054 20.5457V23.9661H311.956V20.8349C311.945 20.4421 311.861 20.158 311.706 19.9826C311.553 19.8056 311.312 19.7169 310.986 19.7169C310.799 19.7169 310.632 19.7503 310.485 19.8189C310.338 19.8857 310.213 19.9794 310.11 20.098C310.008 20.2165 309.928 20.3569 309.87 20.5174C309.812 20.6779 309.783 20.8482 309.783 21.0269V23.9661H308.688V17.0869Z" fill="#1D1E1C"/>
<path d="M249.217 2.39921C249.351 1.94131 249.456 1.58056 249.577 1.16225C249.814 1.70741 250.036 2.21895 250.303 2.83341C250.549 2.41901 250.733 2.10776 250.966 1.71524C251.055 2.32785 251.132 2.87116 251.229 3.5411C251.562 3.22386 251.807 2.99203 252.14 2.67686C252.088 3.28947 252.047 3.79296 251.993 4.42929C252.389 4.2092 252.697 4.03883 253.101 3.81483C252.879 4.38163 252.682 4.88121 252.434 5.51362C252.907 5.39276 253.279 5.29767 253.722 5.18256C253.354 5.67224 253.026 6.10643 252.618 6.64768C253.048 6.68728 253.378 6.71905 253.819 6.76256C253.374 7.11733 252.992 7.41891 252.525 7.78957C252.955 7.94819 253.289 8.07297 253.689 8.21962C253.145 8.44961 252.656 8.65588 252.056 8.90958C252.436 9.14763 252.739 9.33779 253.156 9.59955C252.519 9.68864 252.005 9.76208 251.49 9.83345C251.461 9.88502 251.431 9.93452 251.401 9.98609C251.726 10.1981 252.05 10.4104 252.373 10.6206C252.321 10.68 252.268 10.7414 252.215 10.8008C251.674 10.7334 251.134 10.6662 250.463 10.5828C250.689 11.005 250.863 11.3322 251.079 11.7364C250.501 11.5046 250.001 11.3025 249.393 11.0566C249.504 11.5184 249.585 11.8654 249.694 12.3194C249.187 11.9446 248.764 11.6315 248.255 11.2569V12.5988C247.818 12.0518 247.472 11.6177 247.08 11.128C246.943 11.5562 246.841 11.8833 246.7 12.3253C246.455 11.7523 246.255 11.2866 246.006 10.7037C245.758 11.0884 245.558 11.3976 245.303 11.7922C245.224 11.1853 245.155 10.6779 245.07 10.0298C244.741 10.3013 244.476 10.5213 244.118 10.8167C244.189 10.214 244.251 9.70062 244.326 9.07212C243.9 9.30211 243.574 9.47869 243.182 9.68864C243.402 9.13175 243.596 8.63608 243.841 8.01541C243.408 8.10681 243.081 8.17403 242.606 8.27533C242.996 7.74997 243.305 7.3335 243.694 6.8063H242.393C242.913 6.38592 243.293 6.07858 243.768 5.69596C243.317 5.54355 242.96 5.42453 242.567 5.29169C243.099 5.07367 243.605 4.86532 244.227 4.60978C243.829 4.35401 243.53 4.16177 243.123 3.90001C243.754 3.81875 244.28 3.75129 244.937 3.66795C244.597 3.31111 244.349 3.04936 244.051 2.73418C244.654 2.79197 245.179 2.84124 245.814 2.90086C245.6 2.49637 245.426 2.1713 245.21 1.76289C245.78 2.0007 246.267 2.20491 246.878 2.46276C246.785 2.00485 246.712 1.63995 246.621 1.19793C247.09 1.55086 247.527 1.88191 248.055 2.28019V1.16823C248.093 1.14429 248.131 1.12058 248.168 1.09894C248.495 1.5032 248.821 1.90977 249.217 2.39921Z" fill="#1D1E1C"/>
<path d="M222.295 38.1186C222.295 37.2244 222.303 36.4019 222.291 35.5811C222.285 35.1352 222.669 35.1391 222.914 35.0756C224.187 34.7385 225.457 34.3679 226.753 34.1499C230.243 33.5649 233.745 33.549 237.267 33.9735C240.083 34.3124 242.863 34.818 245.52 35.7596C246.997 36.2829 248.257 36.3086 249.727 35.7635C251.385 35.149 253.158 34.8101 254.903 34.471C256.488 34.1637 258.097 33.9574 259.705 33.8207C261.17 33.6959 262.648 33.668 264.12 33.6959C267.105 33.7514 270.038 34.2054 272.901 35.0797C273.291 35.2006 273.475 35.3749 273.451 35.821C273.409 36.5644 273.439 37.3117 273.439 38.1067C272.28 37.8233 271.191 37.53 270.091 37.2919C266.728 36.5644 263.318 36.2294 259.881 36.3386C255.983 36.4633 252.137 37.0184 248.391 38.1366C247.473 38.4122 246.664 38.0592 245.833 37.8412C243.379 37.195 240.904 36.7071 238.372 36.5347C237.479 36.4732 236.591 36.3524 235.698 36.3326C231.238 36.2334 226.86 36.7884 222.578 38.0673C222.511 38.0869 222.44 38.0931 222.295 38.1186Z" fill="#1D1E1C"/>
<path d="M222.27 39.1316C222.384 39.0741 222.495 38.9868 222.618 38.9652C224.824 38.5469 227.02 38.0374 229.246 37.7558C231.217 37.504 233.219 37.4089 235.208 37.4167C239.304 37.4347 243.315 38.0968 247.226 39.3418C247.535 39.439 247.931 39.4252 248.243 39.3259C250.606 38.5786 253.01 38.0434 255.467 37.7063C258.609 37.2742 261.754 37.2802 264.896 37.524C267.642 37.7381 270.347 38.2614 273.004 38.9949C273.166 39.0384 273.309 39.1535 273.459 39.2368C273.438 39.2902 273.416 39.3418 273.392 39.3955C272.717 39.2269 272.051 39.0126 271.368 38.8938C269.3 38.537 267.234 38.1564 265.155 37.9025C263.699 37.7241 262.219 37.6686 260.751 37.6785C256.467 37.7084 252.26 38.2812 248.178 39.6492C247.903 39.7403 247.549 39.7463 247.276 39.657C244.919 38.88 242.505 38.3427 240.052 38.0434C237.329 37.7123 234.585 37.5993 231.848 37.8728C229.666 38.089 227.491 38.3862 225.318 38.6836C224.529 38.7927 223.756 39.0108 222.976 39.1772C222.762 39.2228 222.548 39.2605 222.335 39.3022C222.313 39.2447 222.291 39.1892 222.27 39.1316Z" fill="#1D1E1C"/>
<path d="M276.466 14.6898C275.821 14.6898 275.243 14.6978 274.668 14.6879C273.872 14.676 273.498 14.2741 273.546 13.4825C273.597 12.6042 274.023 12.0372 274.883 11.966C275.728 11.8965 276.591 11.9421 277.436 12.0353C277.897 12.0851 278.079 11.9978 278.241 11.5556C278.641 10.4613 279.118 9.39473 279.559 8.31431C279.689 7.99914 279.448 7.91787 279.231 7.8663C276.731 7.28937 274.185 7.11486 271.694 7.66992C268.663 8.34608 267.382 9.6208 267.165 12.5886C267.111 13.3119 267.081 14.0376 267.042 14.789C264.901 15.0586 263.021 15.7444 262.066 17.9352C262.022 17.9073 261.981 17.8797 261.939 17.8518V14.323H255.892V31.5842H262.45C262.45 31.3482 262.447 31.1461 262.45 30.9439C262.451 28.7354 262.434 26.5251 262.467 24.3185C262.485 23.2164 262.568 22.1063 263.067 21.0931C263.872 19.4576 265.453 19.2516 267.089 18.9421V31.5782H273.476V30.8726C273.475 27.1117 273.481 23.349 273.459 19.5884C273.455 19.0729 273.605 18.851 274.123 18.9401C274.537 19.0114 274.737 18.8471 274.895 18.4387C275.372 17.2077 275.912 16.0002 276.466 14.6898ZM228.387 14.2795H222.32V31.5563H228.854V30.9023C228.854 28.2458 228.824 25.5874 228.874 22.9328C228.887 22.1456 229.032 21.3291 229.287 20.5836C229.707 19.3683 230.862 18.8075 232.162 19.0372C233.237 19.2276 233.913 20.1038 233.923 21.4262C233.949 24.588 233.945 27.7501 233.955 30.9101C233.957 31.1281 233.975 31.3443 233.985 31.5584H240.536C240.554 31.374 240.577 31.2294 240.577 31.0825C240.579 27.5102 240.587 23.9358 240.567 20.3635C240.564 19.6756 240.51 18.9758 240.368 18.3058C239.83 15.7683 238.312 14.2597 235.975 13.9425C233.11 13.5559 230.662 14.3371 228.804 16.6563C228.707 16.7753 228.595 16.8785 228.387 17.0965V14.2795ZM252.564 33.5765V14.3806H243.828V33.7093C245.006 31.5881 246.185 29.6057 248.193 28.1051C248.979 28.9832 249.796 29.8218 250.524 30.7337C251.25 31.6417 251.885 32.6229 252.564 33.5765Z" fill="#1D1E1C"/>
<path d="M276.469 14.6903C275.915 16.0007 275.374 17.2079 274.898 18.4391C274.739 18.8476 274.537 19.0122 274.124 18.9408C273.607 18.8515 273.457 19.0736 273.461 19.5889C273.481 23.3497 273.475 27.1124 273.479 30.8731V31.5787H267.092V18.9426C265.455 19.2518 263.874 19.4581 263.069 21.0936C262.57 22.1065 262.487 23.2169 262.469 24.3192C262.434 26.5256 262.454 28.7359 262.45 30.9444V31.5847H255.895V14.3235H261.939V17.8523C261.983 17.8799 262.024 17.9078 262.066 17.9357C263.023 15.7449 264.901 15.0591 267.042 14.7895C267.084 14.038 267.113 13.3126 267.167 12.5888C267.384 9.62129 268.665 8.34656 271.694 7.67041C274.187 7.11535 276.734 7.28986 279.233 7.86679C279.448 7.91836 279.692 7.99963 279.561 8.31479C279.12 9.39521 278.643 10.4618 278.241 11.5561C278.081 11.9981 277.897 12.0853 277.438 12.0358C276.593 11.9426 275.73 11.897 274.886 11.9665C274.025 12.0379 273.6 12.6049 273.546 13.483C273.5 14.2733 273.874 14.6751 274.67 14.6884C275.246 14.6983 275.821 14.6903 276.469 14.6903Z" fill="#1D1E1C"/>
<path d="M228.389 14.2792V17.0964C228.595 16.8802 228.709 16.7752 228.804 16.6562C230.664 14.3368 233.11 13.5556 235.977 13.9442C238.314 14.2594 239.829 15.7701 240.37 18.3055C240.512 18.9757 240.566 19.6774 240.57 20.3634C240.589 23.9376 240.579 27.5101 240.577 31.0845C240.577 31.2291 240.554 31.3757 240.538 31.5581H233.984C233.975 31.3442 233.957 31.128 233.957 30.9118C233.947 27.75 233.951 24.588 233.925 21.4259C233.913 20.1037 233.239 19.2294 232.164 19.039C230.864 18.8072 229.709 19.3703 229.289 20.5854C229.032 21.3287 228.89 22.1456 228.874 22.9327C228.824 25.5889 228.854 28.2457 228.854 30.902V31.5562H222.322V14.2792H228.389Z" fill="#1D1E1C"/>
<path d="M252.564 33.5769C251.885 32.6233 251.25 31.6421 250.524 30.7341C249.796 29.8222 248.978 28.9836 248.193 28.1055C246.184 29.6061 245.005 31.5885 243.828 33.7097V14.381H252.564V33.5769Z" fill="#1D1E1C"/>
<path d="M304.888 25.6529V28.3669H303.076V31.3934H299.782V28.3669H293.176V25.2622L299.451 17.4909H303.076V25.6529H304.888ZM299.88 20.7517L295.923 25.6529H299.88V20.7517Z" fill="#1D1E1C"/>
</g>
</g>
<defs>
<clipPath id="clip0_75_60">
<rect width="320" height="47.2" fill="white"/>
</clipPath>
</defs>
</svg>
