<?xml version="1.0" encoding="UTF-8"?>
<svg id="Layer_2" data-name="Layer 2" xmlns="http://www.w3.org/2000/svg" viewBox="0 0 128.98 21.29">
  <defs>
    <style>
      .cls-1 {
        fill: #231f20;
      }
    </style>
  </defs>
  <g id="Layer_1-2" data-name="Layer 1">
    <g>
      <g>
        <path class="cls-1" d="M1.06,2.54H.21v4.29h.85V2.54Z"/>
        <path class="cls-1" d="M1.81,2.53h.85l1.62,2.88h.01v-2.88h.8v4.29h-.85l-1.61-2.87h-.01v2.87h-.8V2.53Z"/>
        <path class="cls-1" d="M6.42,5.4c0,.57.4.79.86.79.3,0,.76-.1.76-.53,0-.46-.58-.54-1.15-.71-.58-.17-1.16-.41-1.16-1.22,0-.88.75-1.3,1.45-1.3.81,0,1.55.39,1.55,1.38h-.82c-.03-.52-.36-.65-.77-.65-.27,0-.59.12-.59.48,0,.33.18.37,1.16.65.28.08,1.15.28,1.15,1.25,0,.79-.56,1.37-1.61,1.37-.86,0-1.66-.47-1.65-1.52h.83,0Z"/>
        <path class="cls-1" d="M10.22,3.33h-1.16v-.79h3.18v.79h-1.16v3.49h-.85v-3.49Z"/>
        <path class="cls-1" d="M13.53,2.54h-.85v4.29h.85V2.54Z"/>
        <path class="cls-1" d="M15.25,3.33h-1.16v-.79h3.18v.79h-1.16v3.49h-.85v-3.49Z"/>
        <path class="cls-1" d="M21,5.2c0,1.16-.62,1.72-1.66,1.72s-1.65-.56-1.65-1.72v-2.66h.85v2.66c0,.47.11.93.8.93.61,0,.8-.29.8-.93v-2.66h.85v2.66h0Z"/>
        <path class="cls-1" d="M22.59,3.33h-1.16v-.79h3.18v.79h-1.16v3.49h-.85v-3.49Z"/>
        <path class="cls-1" d="M26.12,2.54h-.85v4.29h.85V2.54Z"/>
        <path class="cls-1" d="M28.5,6.13c.76,0,1.05-.72,1.05-1.44s-.29-1.47-1.05-1.47-1.06.72-1.06,1.47.29,1.44,1.06,1.44ZM28.5,2.43c1.2,0,1.91.99,1.91,2.26s-.71,2.23-1.91,2.23-1.91-.99-1.91-2.23.71-2.26,1.91-2.26Z"/>
        <path class="cls-1" d="M30.77,2.53h.85l1.62,2.88h.01v-2.88h.8v4.29h-.85l-1.61-2.87h-.01v2.87h-.8V2.53Z"/>
        <path class="cls-1" d="M37.41,6.13c.77,0,1.05-.72,1.05-1.44s-.29-1.47-1.05-1.47-1.06.72-1.06,1.47.29,1.44,1.06,1.44ZM37.41,2.43c1.2,0,1.91.99,1.91,2.26s-.71,2.23-1.91,2.23-1.91-.99-1.91-2.23.71-2.26,1.91-2.26Z"/>
        <path class="cls-1" d="M39.9,2.53h2.72v.79h-1.87v.99h1.62v.73h-1.62v1.77h-.85V2.53Z"/>
        <path class="cls-1" d="M39.98,16.25h-3.65v-5.31h3.59v.98h-2.54v1.14h2.33v.9h-2.33v1.3h2.59v.98ZM33.1,16.38c-1.49,0-2.36-1.23-2.36-2.76s.87-2.8,2.36-2.8c1.06,0,1.94.68,2.07,1.91h-1.02c-.07-.53-.52-.93-1.05-.93-.95,0-1.31.89-1.31,1.82s.36,1.78,1.31,1.78c.65,0,1.01-.49,1.09-1.19h1.02c-.11,1.32-.94,2.17-2.11,2.17M29.89,16.25h-1.06l-2-3.55h-.01v3.55h-.99v-5.31h1.05l2,3.56h.01v-3.56h.99v5.31ZM24.85,16.25h-3.65v-5.31h3.59v.98h-2.54v1.14h2.33v.9h-2.33v1.3h2.59v.98ZM20.01,16.25h-1.06l-2-3.55h-.01v3.55h-.99v-5.31h1.05l2,3.56h.01v-3.56h.99v5.31ZM14.75,16.25h-1.06v-5.31h1.06v5.31ZM12.5,16.25h-.99v-3.76h-.01l-1.18,3.76h-.81l-1.18-3.72h-.01v3.72h-.99v-5.31h1.49l1.12,3.65h.01l1.06-3.65h1.49v5.31ZM6.34,16.25h-3.65v-5.31h3.59v.98h-2.54v1.14h2.33v.9h-2.33v1.3h2.59v.98ZM0,18.87h42.57v-10.38H0v10.38Z"/>
        <path class="cls-1" d="M74.56,19.63c0,.45-.26.77-.8.77h-.62c-.11,0-.18-.07-.18-.19v-2.69c0-.12.06-.19.18-.19h.62c.54,0,.8.32.8.77v1.53h0ZM72.62,17.63c0,.12-.06.19-.17.19h-.66v.77h.55c.11,0,.17.07.17.19v.11c0,.12-.06.19-.17.19h-.55v.81h.66c.11,0,.17.07.17.19v.11c0,.12-.06.19-.17.19h-1c-.11,0-.17-.07-.17-.19v-2.69c0-.12.06-.19.17-.19h1c.11,0,.17.07.17.19v.11h0ZM71.02,17.63c0,.12-.06.19-.17.19h-.33v2.39c0,.12-.06.19-.18.19h-.17c-.11,0-.18-.07-.18-.19v-2.39h-.33c-.11,0-.18-.07-.18-.19v-.11c0-.12.06-.19.18-.19h1.19c.11,0,.17.07.17.19v.11ZM69.23,20.21c0,.12-.06.19-.17.19h-.17c-.11,0-.17-.07-.17-.19v-2.69c0-.12.06-.19.17-.19h.17c.11,0,.17.07.17.19v2.69ZM68.29,19.63c0,.45-.26.77-.8.77h-.63c-.11,0-.17-.07-.17-.19v-2.69c0-.12.06-.19.17-.19h.63c.54,0,.8.32.8.77v1.53h0ZM66.36,17.63c0,.12-.06.19-.18.19h-.66v.77h.55c.11,0,.17.07.17.19v.11c0,.12-.06.19-.17.19h-.55v.81h.66c.11,0,.18.07.18.19v.11c0,.12-.06.19-.18.19h-1c-.11,0-.17-.07-.17-.19v-2.69c0-.12.06-.19.17-.19h1c.11,0,.18.07.18.19v.11h0ZM64.6,18.51c0,.3-.11.53-.34.66l.33,1.01c.04.13-.01.22-.14.22h-.2c-.1,0-.17-.05-.21-.16l-.28-.96h-.21v.93c0,.12-.06.19-.17.19h-.16c-.11,0-.18-.07-.18-.19v-2.69c0-.12.06-.19.18-.19h.58c.54,0,.8.32.8.77v.41h0ZM62.65,18.2c0,.12-.06.19-.18.19h-.16c-.11,0-.18-.07-.18-.19v-.12c0-.16-.08-.28-.29-.28s-.28.11-.28.28v1.56c0,.17.08.28.28.28s.29-.11.29-.28v-.11c0-.12.06-.2.18-.2h.16c.11,0,.18.07.18.2v.13c0,.45-.26.77-.8.77s-.8-.32-.8-.77v-1.61c0-.45.26-.77.8-.77s.8.32.8.77v.14h0ZM60.73,18.2c0,.12-.06.19-.17.19h-.17c-.11,0-.17-.07-.17-.19v-.12c0-.16-.08-.28-.29-.28s-.28.11-.28.28v1.56c0,.17.08.28.28.28s.29-.11.29-.28v-.11c0-.12.06-.2.17-.2h.17c.11,0,.17.07.17.2v.13c0,.45-.26.77-.81.77s-.8-.32-.8-.77v-1.61c0-.45.26-.77.8-.77s.81.32.81.77v.14h0ZM58.73,20.4h-.15c-.1,0-.16-.06-.19-.17l-.11-.58h-.57l-.11.58c-.02.12-.08.17-.19.17h-.15c-.12,0-.18-.08-.16-.21l.52-2.69c.02-.11.08-.17.19-.17h.36c.1,0,.17.06.19.17l.52,2.69c.02.13-.03.21-.16.21M78.01,15.15c.21-.57.39-1.15.5-1.76.41.04.82-.1,1.15-.44.32-.35.56-.9.57-1.51-.34.1-.7.38-1.07.76-.28.29-.47.66-.62.98.09-.56.12-1.15.11-1.72.41-.05.8-.28,1.05-.67.13-.2.24-.44.3-.71.05-.26.07-.55.04-.85-.32.16-.65.5-.94.94-.24.34-.36.76-.44,1.11,0-.14,0-.28-.02-.41-.02-.45-.08-.89-.16-1.33.83-.23,1.36-1.29,1.07-2.42-.29.2-.58.59-.81,1.07-.18.39-.27.85-.28,1.22-.06-.32-.12-.63-.2-.94-.07-.27-.15-.53-.23-.79.8-.35,1.2-1.48.78-2.55-.26.24-.49.66-.68,1.17-.14.43-.16.92-.12,1.29-.14-.43-.29-.86-.46-1.25-.06-.15-.13-.28-.2-.42.38-.24.64-.63.74-1.12.08-.47.03-1.05-.26-1.54-.24.28-.4.72-.53,1.26-.1.48-.04,1.02.04,1.39-.23-.48-.46-.95-.7-1.36-.16-.26-.31-.51-.47-.74-.16-.22-.32-.43-.46-.63-.31-.38-.59-.7-.83-.95-.11-.12-.22-.23-.32-.32-.29-.93-1.16-1.48-2.04-1.28.15.35.46.7.87,1,.36.26.83.34,1.16.32.09.09.19.19.29.32.24.26.49.59.78.99.13.21.28.42.43.65.14.24.29.49.44.75.21.4.42.83.62,1.3-.1-.13-.23-.28-.38-.4-.17-.13-.38-.24-.59-.28-.46-.11-.89-.05-1.2.09.25.34.58.6.98.71.38.12.81.12,1.21-.06.06.14.12.27.18.42.15.38.28.78.41,1.19-.19-.3-.47-.61-.83-.74-.44-.17-.86-.18-1.2-.08.39.75,1.23,1.17,2.07.97.07.26.15.51.22.78.06.28.11.57.17.85-.15-.31-.38-.64-.71-.81-.43-.23-.83-.31-1.17-.25.29.79,1.07,1.33,1.92,1.25.07.43.13.86.15,1.3,0,.11,0,.23,0,.35-.1-.33-.3-.67-.58-.89-.4-.3-.79-.43-1.13-.43.09.42.32.78.63,1.05.31.26.67.45,1.09.49,0,.54-.03,1.07-.11,1.61-.04-.33-.18-.7-.41-.96-.33-.36-.72-.57-1.05-.62.04.42.19.79.45,1.12.24.31.57.57.97.71h0c-.09.52-.24,1.03-.4,1.52,0-.33-.05-.7-.23-1-.25-.44-.59-.72-.91-.84-.08.75.31,1.65,1.04,2.1-.07.18-.12.36-.2.53-.13.3-.28.58-.44.86.06-.32.05-.68-.06-1-.19-.48-.46-.83-.74-1.03-.07.2-.08.4-.08.61,0,.21.03.42.09.63.11.39.32.77.64,1.06-.14.25-.3.48-.46.71v-1.06h-21.29v1.39l-.13-.16c-.2-.28-.39-.58-.56-.88.32-.29.53-.67.64-1.06.06-.21.1-.42.09-.63,0-.21-.01-.41-.08-.61-.29.2-.56.54-.74,1.03-.11.31-.11.68-.06,1-.15-.28-.3-.56-.44-.86-.08-.17-.13-.36-.2-.53.74-.45,1.12-1.35,1.04-2.1-.32.13-.66.41-.91.84-.18.3-.24.67-.23,1-.17-.49-.31-1-.4-1.51h0c.4-.14.73-.41.97-.71.27-.33.42-.7.45-1.12-.33.06-.72.26-1.05.62-.23.26-.37.62-.41.96-.08-.54-.12-1.08-.11-1.61.42-.04.78-.23,1.09-.49.3-.28.53-.63.62-1.05-.34,0-.73.13-1.13.43-.28.22-.47.57-.58.89,0-.11,0-.23,0-.35.02-.44.07-.87.15-1.3.85.07,1.64-.47,1.92-1.25-.34-.05-.74.02-1.17.25-.33.17-.56.5-.71.81.05-.29.1-.58.17-.85.07-.27.14-.52.22-.78.84.21,1.69-.22,2.07-.97-.33-.1-.75-.09-1.2.08-.36.13-.64.44-.83.74.12-.41.26-.81.41-1.19.06-.15.12-.28.18-.42.4.18.83.18,1.21.06.4-.11.73-.37.98-.71-.31-.15-.74-.21-1.2-.09-.21.05-.41.15-.59.28-.15.12-.27.26-.38.4.2-.46.41-.9.62-1.3.15-.26.3-.51.44-.75.15-.23.3-.45.43-.65.29-.39.55-.73.78-.99.1-.12.2-.23.29-.32.33.01.79-.06,1.16-.32.41-.3.71-.65.87-1-.87-.2-1.75.35-2.04,1.28-.1.09-.2.19-.32.32-.25.24-.52.57-.83.95-.14.2-.3.41-.46.63-.15.23-.31.48-.47.74-.24.41-.47.87-.7,1.36.09-.37.14-.91.04-1.39-.13-.54-.29-.98-.53-1.26-.29.49-.34,1.07-.26,1.54.1.48.36.88.74,1.12-.06.14-.13.27-.2.42-.17.39-.32.82-.46,1.25.04-.37.02-.86-.12-1.29-.19-.51-.42-.94-.68-1.17-.42,1.07-.02,2.2.77,2.55-.08.26-.16.51-.23.79-.07.31-.13.62-.2.94-.01-.37-.1-.83-.28-1.22-.24-.48-.52-.87-.81-1.07-.29,1.13.24,2.19,1.07,2.42-.08.43-.14.88-.16,1.33,0,.13-.01.27-.02.41-.08-.35-.2-.77-.44-1.11-.3-.44-.63-.78-.94-.94-.03.3-.02.59.03.85.06.27.17.51.3.71.25.39.63.63,1.05.67-.01.58.02,1.16.11,1.72-.14-.32-.34-.69-.62-.98-.37-.38-.73-.66-1.07-.76,0,.61.25,1.16.57,1.51.32.34.73.48,1.14.44.11.61.29,1.2.5,1.76-.19-.31-.49-.68-.85-.92-.44-.27-.85-.47-1.19-.5.27,1.22,1.26,1.82,2.07,1.5.07.18.13.37.21.54.18.39.38.77.6,1.13-.25-.27-.61-.61-1.04-.77-.46-.19-.91-.29-1.25-.24.12.27.27.51.45.71.19.19.39.33.6.42.42.18.87.13,1.25-.1.18.31.38.61.58.89.11.14.23.28.34.42v.1c-.27-.2-.64-.39-1.01-.46-.5-.08-.94-.09-1.27.03.15.25.35.45.56.6.21.15.43.25.66.29.39.07.75-.01,1.07-.24v.85c-.41.02-.78.1-1.04.26.2.2.41.37.64.48.13.06.27.09.4.12v1.03h21.29v-1.09l.17-.05c.22-.11.44-.28.64-.48-.21-.13-.49-.21-.8-.24v-.73c.26.12.54.16.83.1.23-.04.45-.14.66-.29.21-.15.41-.35.56-.6-.32-.12-.77-.11-1.27-.03-.27.05-.54.17-.78.31v-.24l.1-.13c.21-.28.4-.58.58-.89.38.23.83.28,1.25.1.21-.09.41-.23.6-.42.18-.19.33-.43.45-.71-.34-.05-.79.04-1.25.24-.43.16-.79.5-1.04.77.22-.36.42-.74.6-1.13.08-.17.14-.36.21-.54.81.32,1.8-.28,2.07-1.5-.34.03-.75.23-1.19.5-.35.24-.66.61-.85.92"/>
        <path class="cls-1" d="M76.61,1.54c-.2.32-.3.79-.36,1.34-.05.5.09,1.02.21,1.38.71-.57.84-1.79.14-2.72Z"/>
        <path class="cls-1" d="M76.3,4.38c-.25-.28-.66-.55-1.08-.58-.47-.03-.89.09-1.17.29.55.59,1.49.77,2.25.29Z"/>
        <path class="cls-1" d="M75.4,2.74c.31-.34.47-.81.42-1.31-.03-.5-.28-1.02-.69-1.43-.14.35-.18.85-.14,1.4.03.51.24,1,.4,1.34Z"/>
        <path class="cls-1" d="M73.02,3c.6.46,1.54.47,2.24-.12-.28-.24-.73-.43-1.15-.39-.47.06-.84.26-1.09.5Z"/>
        <path class="cls-1" d="M54.93,4.26c.12-.36.26-.87.21-1.38-.05-.55-.16-1.02-.36-1.34-.7.93-.56,2.16.14,2.72Z"/>
        <path class="cls-1" d="M57.35,4.09c-.29-.2-.7-.32-1.17-.29-.42.03-.84.3-1.08.58.77.47,1.7.29,2.25-.29"/>
        <path class="cls-1" d="M56.4,1.4c.04-.54,0-1.05-.14-1.4-.41.41-.66.93-.69,1.43-.04.49.12.96.42,1.31.17-.34.38-.82.4-1.34"/>
        <path class="cls-1" d="M58.39,3c-.25-.25-.62-.44-1.1-.5-.42-.05-.87.14-1.15.39.7.59,1.64.58,2.24.12"/>
        <path class="cls-1" d="M60.32,10.45c.06-.23.18-.65.35-1.28.04.21.16.63.35,1.28l.54,1.86h-1.77l.53-1.86h0ZM58.95,15.23l.31-1.05h2.86l.31,1.05h2.18l-2.69-8.07h-2.46l-2.59,8.07h2.09Z"/>
        <path class="cls-1" d="M68.12,8.65h-1.31v-1.45h-.88v1.45h-1.31v.9h1.31v1.44h.88v-1.44h1.31v-.9Z"/>
        <path class="cls-1" d="M71.19,7.2h-.89v1.45h-1.31v.9h1.31v1.44h.89v-1.44h1.3v-.9h-1.3v-1.45Z"/>
        <path class="cls-1" d="M60.69,2.98h0l.94,2.93h.87V1.73h-.7v2.87h-.01l-.92-2.87h-.88v4.18h.7v-2.93Z"/>
        <path class="cls-1" d="M64.24,2.45h.01l.37,1.88h-.74l.37-1.88ZM63.74,5.03h1.01l.17.88h.79l-1-4.18h-.95l-1,4.18h.8l.17-.88Z"/>
        <path class="cls-1" d="M67.34,2.45h0l.37,1.88h-.74l.37-1.88ZM66.84,5.03h1.01l.18.88h.79l-1-4.18h-.95l-1,4.18h.8l.17-.88Z"/>
        <path class="cls-1" d="M69.07,5.38c.09.19.22.34.39.45.17.11.4.16.68.16.25,0,.46-.05.61-.13.16-.09.28-.21.37-.37.09-.15.14-.33.18-.53.03-.21.05-.42.05-.65h-.76c0,.23-.01.41-.04.55-.02.14-.06.25-.1.32-.04.07-.09.12-.15.15-.06.03-.12.04-.19.04-.08,0-.15-.02-.22-.05-.06-.04-.11-.11-.16-.22-.04-.11-.07-.26-.09-.45-.02-.2-.03-.45-.03-.77,0-.3,0-.55.02-.75.01-.21.04-.37.07-.5.03-.13.08-.22.14-.28.06-.06.14-.08.24-.08.17,0,.29.07.36.21.06.14.1.36.1.67h.76c0-.15,0-.32-.03-.49-.02-.17-.07-.34-.14-.49-.08-.15-.2-.27-.35-.37-.16-.1-.37-.14-.65-.14s-.51.05-.68.16c-.17.11-.3.26-.39.45s-.15.42-.18.69c-.03.27-.04.56-.04.88s.01.61.04.87c.03.27.08.5.18.69"/>
        <path class="cls-1" d="M66.54,13.03h.16c.11,0,.18-.07.18-.19v-.03c0-.45-.27-.78-.81-.78s-.8.32-.8.78v1.62c0,.43.2.75.65.75.32,0,.44-.23.46-.3v.08c0,.13.06.19.17.19h.14c.11,0,.18-.07.18-.19v-1.34c0-.12-.06-.19-.18-.19h-.41c-.11,0-.17.07-.17.19v.11c0,.12.06.19.17.19h.07v.47c0,.17-.09.28-.29.28s-.28-.11-.28-.28v-1.56c0-.17.08-.28.28-.28s.29.11.29.28v.03c0,.1.06.16.18.16Z"/>
        <path class="cls-1" d="M68.37,13.26c0,.17-.08.28-.29.28h-.24v-.96h.24c.21,0,.29.11.29.28v.4h0ZM68.88,13.26v-.41c0-.46-.26-.77-.8-.77h-.58c-.11,0-.18.07-.18.19v2.69c0,.12.06.19.18.19h.17c.11,0,.18-.07.18-.19v-.93h.21l.28.96c.04.11.1.16.21.16h.2c.12,0,.18-.09.14-.22l-.33-1.01c.23-.13.34-.37.34-.66"/>
        <path class="cls-1" d="M69.8,13.92l.02-.08c.12-.65.15-.92.18-1.2.02.29.06.55.18,1.2l.02.08h-.39ZM70.18,12.08h-.36c-.1,0-.16.06-.19.17l-.52,2.7c-.02.13.04.21.16.21h.15c.1,0,.17-.06.19-.17l.11-.58h.57l.11.58c.02.12.08.17.19.17h.15c.13,0,.18-.08.16-.21l-.52-2.7c-.02-.11-.08-.17-.19-.17"/>
        <path class="cls-1" d="M72.3,12.85v1.53c0,.17-.08.28-.29.28h-.28v-2.09h.28c.21,0,.29.11.29.28ZM71.38,12.08c-.11,0-.18.07-.18.19v2.69c0,.13.06.19.18.19h.62c.54,0,.81-.32.81-.77v-1.53c0-.46-.27-.77-.81-.77h-.62Z"/>
        <path class="cls-1" d="M74.42,12.57c.11,0,.17-.07.17-.19v-.11c0-.12-.06-.19-.17-.19h-1.01c-.11,0-.17.07-.17.19v2.69c0,.12.06.19.17.19h1.01c.11,0,.17-.07.17-.19v-.11c0-.12-.06-.19-.17-.19h-.67v-.81h.55c.11,0,.18-.07.18-.19v-.11c0-.12-.06-.19-.18-.19h-.55v-.78h.67Z"/>
        <path class="cls-1" d="M67.49,17.82h-.28v2.09h.28c.21,0,.29-.11.29-.28v-1.52c0-.17-.08-.28-.29-.28"/>
        <path class="cls-1" d="M63.79,17.82h-.24v.96h.24c.21,0,.29-.11.29-.28v-.4c0-.17-.08-.28-.29-.28Z"/>
        <path class="cls-1" d="M58,17.88c-.02.29-.06.56-.18,1.2l-.02.08h.39l-.02-.08c-.12-.66-.16-.91-.18-1.2Z"/>
        <path class="cls-1" d="M73.76,17.82h-.28v2.09h.28c.21,0,.29-.11.29-.28v-1.52c0-.17-.08-.28-.29-.28"/>
        <path class="cls-1" d="M120.7,18.58c-.48-.07-.94-.18-1.37-.32,0-.07,0-.38-.21-.7-.24-.36-.62-.63-.62-.64,0,0-.14.33.08.72.16.28.48.49.65.58-.38-.13-.75-.3-1.08-.48.02-.07.08-.37-.06-.71-.16-.39-.47-.72-.47-.72,0,0-.2.3-.07.72.09.3.36.56.5.67-.36-.2-.69-.44-1-.69.04-.06.15-.35.09-.71-.07-.4-.3-.78-.3-.78,0,0-.25.26-.21.69.03.31.23.6.34.73-.28-.24-.54-.5-.77-.78.05-.06.21-.32.22-.68,0-.41-.16-.81-.16-.81,0,0-.3.22-.33.64-.02.31.11.63.2.77-.23-.29-.45-.6-.63-.92.05-.05.27-.28.34-.63.08-.4,0-.82,0-.82,0,0-.33.16-.44.57-.08.3,0,.63.05.79-.17-.31-.32-.64-.44-.97.06-.04.32-.23.45-.56.15-.38.13-.81.13-.81,0,0-.36.11-.53.49-.13.28-.11.62-.08.78-.12-.36-.22-.72-.28-1.09.07-.03.35-.17.54-.48.21-.35.27-.77.28-.77,0,0-.37.05-.61.39-.18.25-.22.59-.22.76-.06-.35-.08-.7-.08-1.05.07-.02.37-.11.62-.39.27-.31.4-.72.41-.72,0,0-.37-.01-.68.29-.22.22-.32.55-.35.72,0-.36.04-.71.1-1.06.07,0,.39-.05.68-.28.32-.26.53-.65.53-.65,0,0-.37-.07-.72.18-.25.19-.41.49-.47.65.07-.35.16-.69.29-1.02.07,0,.39.01.72-.17.37-.21.64-.56.65-.56,0,0-.35-.13-.75.06-.29.14-.5.43-.59.58.14-.36.31-.71.51-1.04.07.02.39.08.75-.05.41-.14.77-.45.77-.45,0,0-.32-.19-.76-.06-.32.1-.59.34-.7.47.19-.31.42-.61.68-.89.07.03.37.14.76.07.44-.08.87-.34.88-.34,0,0-.29-.24-.76-.17-.34.05-.66.25-.81.37.13-.13.26-.27.4-.39.18-.08.49-.22.81-.44.46-.33.82-.73.82-.73,0,0-.58.04-1.08.4-.34.24-.53.53-.62.7-.14.13-.28.26-.41.4.1-.15.31-.47.43-.79.16-.45.03-.79.03-.79,0,0-.51.44-.63.92-.11.41.07.68.11.74-.26.29-.49.59-.69.9.07-.16.2-.5.24-.83.06-.46-.14-.76-.14-.76,0,0-.39.5-.41.98-.02.42.2.65.25.7-.21.34-.38.69-.52,1.06.03-.17.09-.51.06-.84-.04-.45-.3-.71-.3-.71,0,0-.27.54-.19,1.01.07.4.33.6.39.64-.12.34-.22.69-.29,1.04,0-.17,0-.52-.09-.83-.13-.43-.43-.65-.43-.65,0,0-.16.57,0,1.01.14.39.43.53.5.56-.06.36-.1.72-.1,1.08-.03-.17-.09-.51-.24-.8-.2-.41-.53-.57-.54-.56,0,0-.06.59.18.99.21.36.52.45.59.47,0,.36.03.71.09,1.06-.06-.16-.18-.48-.37-.75-.27-.37-.62-.47-.62-.47,0,0,.05.58.35.95.27.32.59.36.66.37.06.38.16.75.29,1.11-.08-.15-.26-.45-.5-.68-.33-.32-.69-.36-.7-.35,0,0,.15.57.52.87.32.27.64.26.71.25.12.33.27.66.44.98-.11-.13-.33-.4-.61-.59-.38-.26-.75-.24-.75-.24,0,0,.25.53.66.78.36.22.68.15.75.14.19.33.4.64.64.94-.13-.11-.4-.35-.71-.48-.42-.2-.78-.11-.78-.11,0,0,.34.49.79.67.39.15.7.04.77.01.23.28.5.54.78.79-.16-.09-.47-.28-.8-.37-.45-.12-.79,0-.8.01,0,0,.42.43.91.53.42.09.7-.07.76-.11.31.26.65.49,1.01.7-.18-.06-.53-.2-.87-.23-.48-.05-.79.14-.79.14,0,0,.51.36,1.01.38.44.02.69-.19.75-.24.34.19.71.35,1.1.49-.2-.04-.59-.11-.94-.09-.5.03-.77.27-.77.27,0,0,.59.27,1.11.21.45-.05.66-.3.71-.35.44.14.9.26,1.39.33l.1-.04-.09-.06h.01Z"/>
        <path class="cls-1" d="M128.37,13.88c.36-.31.52-.87.52-.87,0,0-.37.04-.7.35-.24.23-.41.52-.5.68.12-.36.22-.73.28-1.11.07-.01.4-.05.66-.37.3-.36.36-.95.35-.95,0,0-.36.1-.62.47-.2.26-.32.59-.37.75.06-.35.08-.7.08-1.06.07-.02.39-.11.59-.47.24-.41.19-1,.18-.99,0,0-.34.16-.54.56-.15.29-.21.63-.24.8,0-.36-.04-.72-.1-1.08.07-.03.36-.17.5-.56.16-.44,0-1.02,0-1.01,0,0-.3.21-.43.65-.09.31-.09.66-.09.83-.07-.35-.16-.7-.29-1.04.06-.04.32-.23.39-.64.08-.46-.19-1.01-.19-1.01,0,0-.26.26-.3.71-.03.33.03.67.06.84-.14-.36-.31-.72-.52-1.06.05-.05.27-.28.25-.7-.02-.48-.41-.98-.41-.98,0,0-.2.3-.14.76.04.33.17.67.24.83-.2-.32-.43-.62-.69-.9.04-.06.21-.33.11-.74-.12-.48-.63-.92-.63-.92,0,0-.13.33.03.78.11.33.32.64.42.79-.13-.14-.27-.27-.41-.4-.09-.16-.28-.46-.62-.7-.51-.36-1.09-.4-1.08-.4,0,0,.36.41.82.74.32.22.63.36.81.44.14.12.27.26.4.39-.14-.11-.47-.32-.81-.37-.47-.06-.76.18-.75.17,0,0,.44.26.87.34.39.07.69-.04.76-.07.26.28.48.58.68.89-.12-.13-.39-.38-.7-.47-.44-.13-.76.06-.76.06,0,0,.36.31.77.46.36.12.68.07.75.05.21.33.37.68.52,1.04-.09-.14-.3-.43-.59-.57-.4-.2-.75-.06-.75-.07,0,0,.28.35.65.57.32.18.64.18.72.17.12.33.22.68.29,1.02-.06-.16-.21-.47-.47-.65-.35-.26-.72-.18-.72-.18s.21.39.53.65c.29.23.6.28.68.28.06.35.09.71.1,1.06-.03-.16-.13-.49-.35-.72-.3-.3-.68-.29-.68-.29,0,0,.13.41.41.72.24.27.54.37.62.38,0,.35-.03.7-.08,1.05,0-.17-.04-.51-.22-.76-.25-.35-.62-.39-.61-.39,0,0,.06.43.27.77.2.3.47.45.54.47-.06.37-.16.74-.28,1.09.03-.16.05-.51-.08-.78-.18-.38-.54-.49-.53-.49,0,0-.02.43.13.81.13.33.39.52.45.56-.12.33-.27.65-.44.96.06-.16.13-.49.06-.79-.11-.41-.45-.57-.44-.57,0,0-.09.42,0,.82.07.35.29.58.34.63-.18.32-.39.63-.63.92.08-.15.22-.47.2-.77-.03-.42-.34-.64-.33-.64,0,0-.16.4-.16.81,0,.36.18.62.22.68-.23.28-.49.54-.77.78.11-.13.31-.43.34-.73.04-.42-.22-.68-.21-.68,0,0-.24.37-.3.78-.06.36.06.64.09.71-.31.26-.64.48-1,.69.14-.11.41-.37.5-.67.13-.41-.07-.72-.07-.72,0,0-.31.33-.47.72-.14.34-.08.65-.06.72-.34.19-.7.35-1.09.48.17-.09.5-.3.65-.58.22-.39.07-.72.07-.72,0,0-.38.28-.62.64-.21.32-.22.63-.21.7-.43.14-.89.25-1.37.32l-.09.06.1.04c.49-.07.96-.18,1.39-.33.04.05.26.3.71.35.52.06,1.11-.21,1.11-.21,0,0-.27-.24-.77-.27-.36-.02-.75.05-.94.09.39-.14.76-.3,1.1-.49.05.05.3.26.75.24.51-.02,1.02-.37,1.01-.37,0,0-.31-.19-.79-.14-.34.03-.7.16-.87.23.36-.21.7-.44,1.01-.7.06.04.34.2.76.11.48-.1.91-.53.91-.53,0,0-.34-.13-.79-.01-.33.09-.64.28-.8.37.28-.24.54-.51.78-.79.07.03.37.14.76-.01.45-.17.79-.67.79-.67,0,0-.36-.08-.78.11-.3.14-.57.37-.71.48.24-.3.45-.61.64-.94.07.01.39.08.75-.14.41-.25.66-.78.66-.78,0,0-.37-.02-.75.24-.27.19-.5.46-.61.59.17-.32.32-.64.44-.98.07,0,.4.01.71-.26"/>
        <path class="cls-1" d="M99.28,2.91c.05-.2.09-.35.14-.53.09.24.18.45.28.72.1-.18.17-.31.26-.48.03.26.06.5.1.78.13-.13.23-.24.35-.37-.02.26-.04.48-.06.75.15-.09.28-.17.43-.26-.09.24-.16.46-.26.73.19-.05.33-.09.5-.14-.14.21-.27.4-.43.63.17.02.3.03.47.05-.18.15-.32.28-.5.44.17.07.3.12.45.19-.21.1-.4.19-.64.3.15.1.27.19.43.3-.25.04-.45.07-.65.1l-.03.06c.12.09.25.18.38.27l-.06.08c-.21-.03-.42-.06-.68-.09.09.18.15.32.24.49-.23-.1-.42-.18-.66-.29.04.2.07.35.12.54-.2-.16-.36-.3-.56-.46v.58c-.17-.24-.31-.42-.46-.63-.05.19-.09.32-.15.51-.1-.25-.18-.45-.27-.7-.1.16-.17.3-.27.47-.03-.26-.06-.48-.09-.76-.13.12-.23.21-.37.34.03-.26.05-.48.08-.75-.17.1-.29.17-.45.27.08-.24.16-.45.26-.72-.17.04-.3.07-.48.11.15-.23.27-.4.42-.63h-.51c.21-.18.35-.31.54-.48-.18-.06-.32-.12-.47-.17.21-.09.4-.18.65-.29-.16-.11-.27-.19-.43-.31.25-.03.45-.06.71-.1-.13-.15-.23-.27-.35-.4.24.02.44.05.69.07-.08-.17-.15-.31-.24-.49.22.1.41.19.65.3-.04-.2-.06-.35-.1-.54.18.15.35.29.56.46v-.48l.04-.03c.13.17.26.35.41.56"/>
        <path class="cls-1" d="M88.79,18.26c0-.38,0-.74,0-1.09,0-.19.15-.19.24-.22.49-.14.99-.3,1.49-.4,1.36-.25,2.72-.26,4.1-.08,1.1.14,2.18.36,3.22.77.58.23,1.07.24,1.64,0,.65-.27,1.34-.41,2.02-.56.62-.13,1.24-.22,1.87-.28.57-.05,1.15-.07,1.72-.05,1.16.02,2.3.22,3.42.6.15.05.22.13.22.32-.02.32,0,.64,0,.98-.45-.12-.87-.25-1.31-.35-1.31-.31-2.64-.46-3.98-.41-1.52.05-3.02.29-4.48.77-.36.12-.67-.03-1-.13-.96-.28-1.92-.49-2.91-.56-.35-.03-.69-.08-1.04-.09-1.74-.04-3.44.2-5.11.74l-.11.02h0Z"/>
        <path class="cls-1" d="M88.78,18.7l.13-.07c.86-.18,1.72-.4,2.58-.52.77-.11,1.55-.15,2.32-.14,1.59,0,3.16.29,4.68.83.12.04.28.04.4,0,.92-.32,1.86-.55,2.82-.7,1.22-.19,2.45-.18,3.67-.08,1.07.09,2.12.32,3.16.63.06.02.12.07.18.1l-.03.07c-.26-.07-.52-.16-.79-.22-.81-.15-1.61-.32-2.42-.42-.57-.08-1.14-.1-1.72-.1-1.67.01-3.31.26-4.9.85-.11.04-.25.04-.35,0-.92-.33-1.86-.57-2.82-.69-1.06-.14-2.13-.19-3.2-.07-.85.09-1.7.22-2.55.35-.31.05-.61.14-.91.21-.08.02-.17.04-.25.05l-.03-.07h0Z"/>
        <path class="cls-1" d="M100.58,16.31v-8.25h-3.4v8.31c.46-.91.92-1.77,1.7-2.41.31.38.63.74.91,1.13.28.39.53.81.79,1.22ZM91.16,8.02h-2.36v7.42h2.55v-.28c0-1.14,0-2.28,0-3.42,0-.34.06-.69.16-1.01.16-.52.61-.76,1.12-.67.42.08.68.46.69,1.03,0,1.36,0,2.72.01,4.07,0,.09,0,.19.01.28h2.55c0-.08.02-.14.02-.21,0-1.53,0-3.07,0-4.61,0-.3-.02-.6-.08-.88-.21-1.09-.8-1.74-1.71-1.87-1.12-.16-2.07.17-2.79,1.17-.04.05-.08.09-.16.19v-1.21h0ZM109.89,8.19c-.25,0-.47,0-.7,0-.31,0-.46-.18-.44-.52.02-.38.19-.62.52-.65.33-.03.67-.01,1,.03.18.02.25-.02.31-.21.15-.47.34-.93.51-1.39.05-.14-.04-.17-.13-.2-.97-.25-1.96-.32-2.94-.08-1.18.29-1.68.84-1.76,2.11-.02.31-.03.62-.05.95-.83.11-1.57.41-1.94,1.35l-.05-.03v-1.52h-2.35v7.42h2.55v-.28c0-.95,0-1.9,0-2.85,0-.47.04-.95.23-1.39.31-.7.93-.79,1.57-.93v5.43h2.49v-.3c0-1.62,0-3.23,0-4.85,0-.22.06-.32.26-.28.16.03.24-.04.3-.22.19-.53.4-1.05.61-1.61"/>
        <path class="cls-1" d="M109.89,8.19c-.22.56-.43,1.08-.61,1.61-.06.17-.14.25-.3.22-.2-.04-.26.06-.26.28,0,1.61,0,3.23,0,4.85v.3h-2.49v-5.43c-.64.13-1.25.22-1.57.93-.2.43-.23.91-.23,1.39-.01.95,0,1.9,0,2.85v.28h-2.55v-7.42h2.35v1.52l.05.03c.37-.94,1.1-1.23,1.94-1.35.02-.32.03-.64.05-.95.08-1.27.58-1.82,1.76-2.11.97-.24,1.96-.16,2.94.08.08.02.18.06.13.2-.17.46-.36.92-.51,1.39-.06.19-.13.23-.31.21-.33-.04-.67-.06-1-.03-.34.03-.5.27-.52.65-.02.34.13.51.44.52.23,0,.45,0,.7,0"/>
        <path class="cls-1" d="M91.16,8.02v1.21c.08-.09.12-.14.16-.19.73-1,1.68-1.33,2.8-1.16.91.13,1.5.78,1.71,1.87.05.29.08.59.08.88,0,1.54,0,3.07,0,4.61,0,.06,0,.12-.02.2h-2.55c0-.09,0-.18,0-.28,0-1.36,0-2.72-.01-4.08,0-.57-.27-.95-.69-1.03-.51-.1-.96.14-1.12.66-.1.32-.15.67-.16,1.01-.02,1.14,0,2.28,0,3.42v.28h-2.54v-7.42h2.36,0Z"/>
        <path class="cls-1" d="M100.58,16.31c-.27-.41-.51-.83-.79-1.22-.28-.39-.6-.75-.91-1.13-.78.64-1.24,1.5-1.7,2.41v-8.31h3.4v8.25Z"/>
      </g>
      <g>
        <path class="cls-1" d="M124.05,9.27s.04,0,.06,0v.21h-.06c-.09,0-.15.02-.2.06s-.07.11-.07.19v.47h-.22v-.92h.22v.16c.05-.12.14-.18.27-.18Z"/>
        <path class="cls-1" d="M124.84,9.4v-.47h.22v1.26h-.22v-.13c-.07.1-.16.15-.29.15s-.23-.04-.3-.13c-.07-.09-.11-.2-.11-.35s.04-.26.11-.35c.07-.09.17-.13.3-.13s.22.05.28.14ZM124.38,9.75c0,.09.02.17.06.21.04.05.1.07.17.07s.13-.03.17-.08c.04-.05.06-.12.06-.22s-.02-.17-.06-.22c-.04-.05-.1-.08-.17-.08s-.13.03-.17.08-.06.13-.06.22Z"/>
      </g>
      <path class="cls-1" d="M122.08,11.95c.32.13.57.31.76.56.19.24.28.53.28.86,0,.53-.21.96-.62,1.28-.42.33-.98.49-1.68.49-.78,0-1.37-.18-1.78-.53-.41-.36-.62-.85-.62-1.49h1.13c.02.74.43,1.11,1.24,1.11.35,0,.62-.08.82-.24.2-.16.3-.38.3-.65,0-.29-.1-.52-.31-.68s-.49-.24-.86-.24h-.46v-.8h.45c.72,0,1.07-.27,1.07-.8,0-.24-.09-.43-.27-.57-.18-.14-.44-.21-.76-.21-.69,0-1.06.3-1.09.91h-1.12c.01-.57.21-1.01.59-1.33.38-.31.92-.47,1.63-.47.66,0,1.18.14,1.57.42.39.28.58.66.58,1.14,0,.55-.29.96-.86,1.23Z"/>
    </g>
  </g>
</svg>