<svg width="121" height="14" viewBox="0 0 121 14" fill="none" xmlns="http://www.w3.org/2000/svg">
<g clip-path="url(#clip0_84_1213)">
<path d="M10.9521 0L8.13217 5.44945L5.25711 0H0.0583801V13.9474H5.45797V9.60389L8.1046 13.9474L10.7512 9.48324V13.9474H16.1508V0H10.9521Z" fill="#F7038F"/>
<path d="M26.7452 12.592H23.3109L22.7753 13.9474H17.7026L22.3263 0H27.6195L32.5111 13.9474H27.2808L26.7452 12.592Z" fill="#F7038F"/>
<path d="M57.339 3.98152H53.2666V5.01912H57.339V8.84379H53.2666V9.98998H57.339V13.9474H47.9734V0.0201111H57.339V3.98152Z" fill="#F7038F"/>
<path d="M41.0811 0H46.3862V13.9474H41.0811V8.81563H39.0883V13.9474H33.7832V0H39.0883V4.89847H41.0811V0Z" fill="#F7038F"/>
<path d="M75.4794 7.80618C75.9087 8.43357 76.1214 9.11324 76.1214 9.84519C76.1214 11.1523 75.6881 12.1617 74.8256 12.8816C73.9631 13.6015 72.6792 13.9594 70.9778 13.9594H63.5538V0.0120621H70.8438C72.5059 0.0120621 73.7071 0.349887 74.4515 1.02956C75.1919 1.70923 75.5621 2.54977 75.5621 3.55521C75.5621 4.93868 74.9674 5.91194 73.778 6.47498C74.483 6.7364 75.0462 7.17879 75.4755 7.80618" fill="#F7038F"/>
<path d="M93.5804 8.56628V13.9594H82.3441V0.0120621H87.7122V8.56628H93.5804Z" fill="#F7038F"/>
<path d="M105.148 9.51943C106.577 8.57433 107.294 7.09433 107.294 5.3127C107.294 2.32456 105.285 0.140757 101.249 0.0201055V0.0120621H94.8722V13.9594H100.449V9.82508L102.269 13.9634H107.298L105.148 9.52345V9.51943Z" fill="#F7038F"/>
<path d="M115.561 8.36922V0.0120621H120.74V8.62259C120.74 10.3077 120.216 11.6188 119.168 12.5639C118.105 13.4969 116.597 13.9634 114.635 13.9634C112.674 13.9634 111.158 13.4969 110.118 12.5639C109.055 11.6349 108.527 10.3198 108.527 8.62259V0.0120621H113.706V8.36922C113.706 8.89204 114.119 9.31433 114.631 9.31433C115.143 9.31433 115.557 8.89204 115.557 8.36922" fill="#F7038F"/>
<path d="M76.8145 0.0120621V6.49509H79.1382L81.4658 0.0120621H76.8145Z" fill="#F7038F"/>
</g>
<defs>
<clipPath id="clip0_84_1213">
<rect width="120.681" height="13.9594" fill="white" transform="translate(0.0583801)"/>
</clipPath>
</defs>
</svg>
