<svg width="239" height="28" viewBox="0 0 239 28" fill="none" xmlns="http://www.w3.org/2000/svg">
<path d="M21.5706 0.0223999L15.9972 10.8597L10.296 0.0223999H0V27.7931H10.7002V19.1407L15.9333 27.7931L21.1665 18.9003V27.7931H31.8667V0.0223999H21.5706Z" fill="#EC2088"/>
<path d="M52.8629 25.0831H46.0556L44.9919 27.7924H34.9512L44.0985 -0.00012207H54.586L64.2651 27.7924H53.9052L52.8416 25.0831H52.8629Z" fill="#EC2088"/>
<path d="M113.427 7.93127H105.364V10.007H113.427V17.6106H105.364V19.8829H113.427V27.7706H94.8767V0.021759H113.427V7.90942V7.93127Z" fill="#EC2088"/>
<path d="M81.2409 0.021759H91.7497V27.8143H81.2409V17.5887H77.2842V27.8143H66.7754V0.021759H77.2842V9.76663H81.2409V0.021759Z" fill="#EC2088"/>
<path d="M149.356 15.5567C150.207 16.8022 150.633 18.1568 150.633 19.6207C150.633 22.2208 149.782 24.231 148.059 25.6731C146.357 27.0933 143.804 27.8143 140.443 27.8143H125.744V0.021759H140.188C143.485 0.021759 145.868 0.699094 147.336 2.05376C148.803 3.40843 149.548 5.09084 149.548 7.07914C149.548 9.83218 148.378 11.7768 146.017 12.8911C147.399 13.4155 148.527 14.2895 149.378 15.5349L149.356 15.5567Z" fill="#EC2088"/>
<path d="M185.201 17.0863V27.8362H162.95V0.0436707H173.586V17.0863H185.201Z" fill="#EC2088"/>
<path d="M208.112 18.9653C210.941 17.0862 212.367 14.1366 212.367 10.5751C212.367 4.63203 208.389 0.283983 200.39 0.0217896H187.754V27.7925H198.794V19.5552L202.39 27.7925H212.345L208.091 18.9434L208.112 18.9653Z" fill="#EC2088"/>
<path d="M228.747 16.6711V0.0217896H239V17.1736C239 20.5385 237.958 23.1385 235.894 25.0176C233.788 26.8748 230.789 27.7925 226.917 27.7925C223.046 27.7925 220.025 26.8748 217.983 25.0176C215.877 23.1604 214.834 20.5385 214.834 17.1736V0.0217896H225.088V16.6711C225.088 17.7199 225.917 18.5501 226.917 18.5501C227.938 18.5501 228.747 17.698 228.747 16.6711Z" fill="#EC2088"/>
<path d="M151.994 0.0436707V12.9567H156.61L161.227 0.0436707H151.994Z" fill="#EC2088"/>
</svg>
