<svg width="322" height="35" viewBox="0 0 322 35" fill="none" xmlns="http://www.w3.org/2000/svg">
<path d="M207.488 19.5619C208.569 21.135 209.105 22.8391 209.105 24.6743C209.105 27.9514 208.013 30.4824 205.841 32.2874C203.668 34.0923 200.434 34.9898 196.148 34.9898H177.447V0.0200195H195.811C199.997 0.0200195 203.023 0.867038 204.898 2.57116C206.763 4.27528 207.696 6.38274 207.696 8.90363C207.696 12.3724 206.198 14.8126 203.202 16.2243C204.978 16.8797 206.396 17.9889 207.478 19.5619" fill="#2B2A29"/>
<path d="M253.085 21.4677V34.9898H224.78V0.0200195H238.302V21.4677H253.085Z" fill="#2B2A29"/>
<path d="M282.223 23.8575C285.824 21.4879 287.63 17.7771 287.63 13.3101C287.63 5.81806 282.57 0.342693 272.401 0.0401866V0.0200195H256.339V34.9898H270.387V24.6239L274.97 34.9999H287.639L282.223 23.8676V23.8575Z" fill="#2B2A29"/>
<path d="M308.454 20.9736V0.0200195H321.5V21.6089C321.5 25.8339 320.18 29.1211 317.541 31.4908C314.863 33.8302 311.063 34.9999 306.122 34.9999C301.182 34.9999 297.362 33.8302 294.743 31.4908C292.064 29.1615 290.735 25.8642 290.735 21.6089V0.0200195H303.781V20.9736C303.781 22.2845 304.823 23.3433 306.112 23.3433C307.402 23.3433 308.444 22.2845 308.444 20.9736" fill="#2B2A29"/>
<path d="M210.851 0.0200195V16.2747H216.704L222.568 0.0200195H210.851Z" fill="#2B2A29"/>
<path d="M10.1221 34.3007V8.98563H0.5V0.0268555H30.8003V8.98563H21.1849V34.3007H10.1221Z" fill="#2B2A29"/>
<path d="M102.357 6.07071C101.083 4.12752 99.281 2.63327 96.9491 1.58797C94.6173 0.54267 91.8499 0.0200195 88.6537 0.0200195H72.15V34.2939H83.702V25.8711H88.647C91.8432 25.8711 94.6106 25.3418 96.9424 24.2831C99.2743 23.2244 101.077 21.7301 102.35 19.8003C103.623 17.8773 104.26 15.5923 104.26 12.9456C104.26 10.2988 103.623 8.0072 102.35 6.06401L102.357 6.07071Z" fill="#2B2A29"/>
<path d="M135.33 34.3002H147.814L147.72 0.0263672H135.324L127.35 17.2805L119.155 0.0263672H106.685V34.3002H119.168V22.0514L127.196 34.3002L135.263 21.5891L135.33 34.3002Z" fill="#2B2A29"/>
<path d="M150.239 34.3002V0.0263672H161.791V34.3002H150.239Z" fill="#2B2A29"/>
<path d="M57.9113 34.3002H69.7245L56.4907 0.0263672H46.4599L33.2261 34.3002H44.8651L45.9908 30.9901H56.7856L57.9113 34.3002Z" fill="#2B2A29"/>
</svg>
