<svg width="915" height="227" viewBox="0 0 915 227" fill="none" xmlns="http://www.w3.org/2000/svg">
<path d="M0.109375 225.957L24.6477 171.771H32.311L56.9267 225.957H48.7989L26.8925 176.106H29.9888L8.08238 225.957H0.109375ZM10.5594 212.41L12.6494 206.218H43.1481L45.393 212.41H10.5594Z" fill="#2B2A29"/>
<path d="M74.5999 225.957L56.4865 171.771H64.4595L81.1022 221.777H77.077L94.3389 171.771H101.46L118.335 221.777H114.465L131.34 171.771H138.694L120.58 225.957H112.452L96.6611 179.589H98.7511L82.8825 225.957H74.5999Z" fill="#2B2A29"/>
<path d="M138.219 225.957L162.757 171.771H170.421L195.036 225.957H186.908L165.002 176.106H168.098L146.192 225.957H138.219ZM148.669 212.41L150.759 206.218H181.258L183.502 212.41H148.669Z" fill="#2B2A29"/>
<path d="M203.119 225.957V171.771H224.252C231.27 171.771 236.792 173.448 240.817 176.803C244.842 180.105 246.855 184.724 246.855 190.659C246.855 194.581 245.952 197.961 244.145 200.799C242.339 203.586 239.759 205.727 236.405 207.224C233.05 208.721 228.999 209.469 224.252 209.469H207.377L210.86 205.908V225.957H203.119ZM239.346 225.957L225.568 206.295H233.85L247.784 225.957H239.346ZM210.86 206.682L207.377 202.889H224.019C228.974 202.889 232.715 201.831 235.244 199.715C237.824 197.548 239.114 194.529 239.114 190.659C239.114 186.788 237.824 183.795 235.244 181.679C232.715 179.564 228.974 178.506 224.019 178.506H207.377L210.86 174.635V206.682Z" fill="#2B2A29"/>
<path d="M259.361 225.957V171.771H282.196C287.976 171.771 293.059 172.907 297.446 175.177C301.884 177.448 305.315 180.622 307.741 184.698C310.218 188.775 311.456 193.497 311.456 198.864C311.456 204.231 310.218 208.953 307.741 213.03C305.315 217.106 301.884 220.28 297.446 222.551C293.059 224.821 287.976 225.957 282.196 225.957H259.361ZM267.102 219.222H281.732C286.221 219.222 290.092 218.371 293.343 216.668C296.646 214.965 299.2 212.591 301.006 209.546C302.813 206.45 303.716 202.889 303.716 198.864C303.716 194.787 302.813 191.226 301.006 188.182C299.2 185.137 296.646 182.763 293.343 181.06C290.092 179.357 286.221 178.506 281.732 178.506H267.102V219.222Z" fill="#2B2A29"/>
<path d="M339.104 226.576C334.976 226.576 331.028 225.957 327.261 224.718C323.494 223.428 320.526 221.777 318.359 219.764L321.223 213.726C323.287 215.532 325.919 217.029 329.119 218.216C332.318 219.403 335.647 219.996 339.104 219.996C342.252 219.996 344.807 219.635 346.768 218.913C348.729 218.19 350.174 217.21 351.103 215.971C352.031 214.681 352.496 213.236 352.496 211.636C352.496 209.778 351.877 208.282 350.638 207.147C349.451 206.011 347.877 205.108 345.916 204.437C344.007 203.715 341.891 203.096 339.569 202.58C337.247 202.064 334.898 201.47 332.525 200.799C330.202 200.077 328.061 199.174 326.1 198.09C324.19 197.006 322.642 195.561 321.455 193.755C320.268 191.897 319.675 189.523 319.675 186.634C319.675 183.847 320.397 181.292 321.842 178.97C323.339 176.596 325.61 174.713 328.654 173.319C331.751 171.874 335.673 171.152 340.42 171.152C343.568 171.152 346.69 171.565 349.787 172.391C352.883 173.216 355.566 174.403 357.837 175.951L355.283 182.144C352.96 180.596 350.509 179.486 347.929 178.815C345.349 178.093 342.846 177.732 340.42 177.732C337.376 177.732 334.873 178.119 332.912 178.893C330.951 179.667 329.506 180.699 328.577 181.989C327.7 183.279 327.261 184.724 327.261 186.324C327.261 188.233 327.854 189.756 329.041 190.891C330.28 192.026 331.854 192.929 333.763 193.6C335.724 194.271 337.866 194.89 340.188 195.458C342.51 195.974 344.832 196.568 347.155 197.238C349.529 197.909 351.67 198.787 353.58 199.87C355.541 200.954 357.115 202.399 358.301 204.205C359.488 206.011 360.082 208.334 360.082 211.172C360.082 213.907 359.334 216.461 357.837 218.835C356.34 221.157 354.018 223.041 350.87 224.486C347.774 225.879 343.852 226.576 339.104 226.576Z" fill="#2B2A29"/>
<path d="M386.915 225.957V220.693L408.976 199.406C410.937 197.548 412.382 195.922 413.311 194.529C414.292 193.084 414.937 191.768 415.246 190.581C415.608 189.343 415.788 188.156 415.788 187.021C415.788 184.234 414.808 182.041 412.847 180.441C410.886 178.841 408.022 178.041 404.254 178.041C401.365 178.041 398.759 178.532 396.436 179.512C394.114 180.441 392.101 181.912 390.398 183.924L385.135 179.357C387.199 176.725 389.96 174.713 393.417 173.319C396.927 171.874 400.771 171.152 404.951 171.152C408.718 171.152 411.995 171.771 414.782 173.01C417.569 174.197 419.71 175.925 421.207 178.196C422.755 180.467 423.529 183.15 423.529 186.247C423.529 188.001 423.297 189.73 422.832 191.433C422.368 193.136 421.491 194.942 420.2 196.851C418.91 198.761 417.053 200.902 414.627 203.276L394.966 222.241L393.108 219.222H425.851V225.957H386.915Z" fill="#2B2A29"/>
<path d="M454.279 226.576C450.047 226.576 446.254 225.492 442.9 223.325C439.597 221.157 436.965 218.01 435.004 213.881C433.095 209.753 432.14 204.747 432.14 198.864C432.14 192.981 433.095 187.975 435.004 183.847C436.965 179.718 439.597 176.571 442.9 174.403C446.254 172.236 450.047 171.152 454.279 171.152C458.459 171.152 462.226 172.236 465.58 174.403C468.935 176.571 471.566 179.718 473.476 183.847C475.385 187.975 476.34 192.981 476.34 198.864C476.34 204.747 475.385 209.753 473.476 213.881C471.566 218.01 468.935 221.157 465.58 223.325C462.226 225.492 458.459 226.576 454.279 226.576ZM454.279 219.687C457.117 219.687 459.594 218.913 461.71 217.364C463.877 215.816 465.554 213.494 466.741 210.398C467.98 207.301 468.599 203.457 468.599 198.864C468.599 194.271 467.98 190.427 466.741 187.33C465.554 184.234 463.877 181.912 461.71 180.364C459.594 178.815 457.117 178.041 454.279 178.041C451.44 178.041 448.938 178.815 446.77 180.364C444.603 181.912 442.9 184.234 441.661 187.33C440.474 190.427 439.881 194.271 439.881 198.864C439.881 203.457 440.474 207.301 441.661 210.398C442.9 213.494 444.603 215.816 446.77 217.364C448.938 218.913 451.44 219.687 454.279 219.687Z" fill="#2B2A29"/>
<path d="M482.919 225.957V220.693L504.98 199.406C506.941 197.548 508.386 195.922 509.315 194.529C510.296 193.084 510.941 191.768 511.25 190.581C511.611 189.343 511.792 188.156 511.792 187.021C511.792 184.234 510.812 182.041 508.851 180.441C506.89 178.841 504.026 178.041 500.258 178.041C497.368 178.041 494.762 178.532 492.44 179.512C490.118 180.441 488.105 181.912 486.402 183.924L481.139 179.357C483.203 176.725 485.964 174.713 489.421 173.319C492.93 171.874 496.775 171.152 500.955 171.152C504.722 171.152 507.999 171.771 510.786 173.01C513.573 174.197 515.714 175.925 517.211 178.196C518.759 180.467 519.533 183.15 519.533 186.247C519.533 188.001 519.301 189.73 518.836 191.433C518.372 193.136 517.494 194.942 516.204 196.851C514.914 198.761 513.056 200.902 510.631 203.276L490.969 222.241L489.112 219.222H521.855V225.957H482.919Z" fill="#2B2A29"/>
<path d="M545.714 226.576C541.895 226.576 538.179 225.983 534.567 224.796C531.006 223.609 528.091 222.009 525.82 219.996L529.381 213.881C531.187 215.584 533.535 216.977 536.425 218.061C539.315 219.145 542.385 219.687 545.636 219.687C549.765 219.687 552.938 218.809 555.157 217.055C557.376 215.3 558.486 212.952 558.486 210.011C558.486 207.998 557.996 206.244 557.015 204.747C556.035 203.25 554.332 202.115 551.906 201.341C549.532 200.515 546.256 200.103 542.076 200.103H529.768L532.632 171.771H563.208V178.506H535.496L539.521 174.713L537.276 197.084L533.251 193.368H543.701C549.12 193.368 553.48 194.065 556.783 195.458C560.086 196.851 562.485 198.787 563.982 201.264C565.478 203.689 566.227 206.502 566.227 209.701C566.227 212.797 565.478 215.636 563.982 218.216C562.485 220.745 560.215 222.783 557.17 224.331C554.177 225.828 550.358 226.576 545.714 226.576Z" fill="#2B2A29"/>
<path d="M37.4884 140.945C32.0717 140.945 27.1006 140.076 22.5677 138.34C18.0311 136.604 14.0874 134.128 10.7291 130.915C7.36718 127.702 4.76012 123.93 2.90056 119.604C1.041 115.273 0.109375 110.521 0.109375 105.339C0.109375 100.157 1.041 95.4043 2.89687 91.0774C4.75643 86.7506 7.38191 82.9789 10.7733 79.7662C14.1647 76.5534 18.1453 74.0772 22.7113 72.3413C27.2774 70.6017 32.3037 69.7319 37.783 69.7319C43.8477 69.7319 49.3122 70.7497 54.1729 72.7818C59.0335 74.8138 63.1282 77.7675 66.4533 81.6354L56.2755 91.0774C53.7936 88.4569 51.0871 86.5026 48.1523 85.2256C45.2175 83.9487 42.0213 83.3084 38.5636 83.3084C35.1059 83.3084 32.2043 83.8339 29.4646 84.8814C26.725 85.9326 24.361 87.439 22.3689 89.4044C20.3767 91.3699 18.8449 93.7017 17.7697 96.3889C16.6944 99.0797 16.1568 102.063 16.1568 105.339C16.1568 108.614 16.6944 111.501 17.7697 114.192C18.8449 116.883 20.3767 119.226 22.3689 121.225C24.3573 123.227 26.7066 124.748 29.4131 125.8C32.1196 126.851 35.1022 127.373 38.3684 127.373C41.6346 127.373 44.5473 126.866 47.519 125.848C50.4869 124.834 53.3738 123.112 56.1797 120.684L65.1793 132.192C61.4601 135.012 57.1408 137.178 52.2139 138.684C47.287 140.19 42.3821 140.945 37.4884 140.945ZM65.1793 132.192L50.6968 130.126V104.258H65.1793V132.192Z" fill="#2B2A29"/>
<path d="M112.641 140.945C107.356 140.945 102.448 140.076 97.9151 138.34C93.3785 136.604 89.4495 134.128 86.1243 130.915C82.7955 127.702 80.2032 123.93 78.3437 119.603C76.4841 115.277 75.5562 110.524 75.5562 105.342C75.5562 100.16 76.4878 95.4079 78.3437 91.081C80.2032 86.7542 82.8103 82.9825 86.1722 79.7698C89.5305 76.557 93.4632 74.0808 97.9629 72.3449C102.463 70.6016 107.386 69.7318 112.736 69.7318C118.672 69.7318 124.037 70.7644 128.832 72.8298C133.626 74.8951 137.654 77.9302 140.917 81.9276L130.739 91.3697C128.39 88.6826 125.783 86.6653 122.91 85.3218C120.038 83.9782 116.908 83.3045 113.517 83.3045C110.321 83.3045 107.382 83.8301 104.709 84.8776C102.032 85.9288 99.7194 87.4352 97.7604 89.4006C95.8051 91.366 94.288 93.6979 93.2091 96.385C92.1339 99.0759 91.5962 102.059 91.5962 105.335C91.5962 108.611 92.1339 111.598 93.2091 114.285C94.2843 116.976 95.8014 119.3 97.7604 121.269C99.7194 123.238 102.032 124.745 104.709 125.792C107.382 126.843 110.317 127.365 113.517 127.365C116.908 127.365 120.038 126.695 122.91 125.348C125.779 124.004 128.39 121.954 130.739 119.2L140.917 128.642C137.654 132.643 133.626 135.693 128.832 137.788C124.037 139.887 118.639 140.934 112.637 140.934L112.641 140.945Z" fill="#2B2A29"/>
<path d="M183.484 140.945C178.2 140.945 173.291 140.076 168.758 138.34C164.222 136.604 160.293 134.128 156.968 130.915C153.639 127.702 151.046 123.93 149.187 119.603C147.327 115.277 146.399 110.524 146.399 105.342C146.399 100.16 147.331 95.4079 149.187 91.081C151.046 86.7542 153.654 82.9825 157.015 79.7698C160.374 76.557 164.306 74.0808 168.806 72.3449C173.306 70.6016 178.229 69.7318 183.58 69.7318C189.515 69.7318 194.881 70.7644 199.675 72.8298C204.469 74.8951 208.498 77.9302 211.76 81.9276L201.582 91.3697C199.233 88.6826 196.626 86.6653 193.754 85.3218C190.882 83.9782 187.752 83.3045 184.36 83.3045C181.164 83.3045 178.226 83.8301 175.552 84.8776C172.875 85.9288 170.563 87.4352 168.604 89.4006C166.648 91.366 165.131 93.6979 164.052 96.385C162.977 99.0759 162.439 102.059 162.439 105.335C162.439 108.611 162.977 111.598 164.052 114.285C165.128 116.976 166.645 119.3 168.604 121.269C170.559 123.234 172.875 124.745 175.552 125.792C178.226 126.843 181.16 127.365 184.36 127.365C187.752 127.365 190.882 126.695 193.754 125.348C196.622 124.004 199.233 121.954 201.582 119.2L211.76 128.642C208.498 132.643 204.469 135.693 199.675 137.788C194.881 139.887 189.482 140.934 183.48 140.934L183.484 140.945Z" fill="#2B2A29"/>
<path d="M249.239 139.765V70.9126H301.001V83.7007H264.992V126.977H302.271V139.765H249.235H249.239ZM263.817 111.042V98.6504H296.792V111.042H263.817Z" fill="#2B2A29"/>
<path d="M423.511 140.945C418.227 140.945 413.319 140.075 408.786 138.339C404.249 136.603 400.32 134.127 396.995 130.914C393.666 127.702 391.074 123.93 389.214 119.603C387.355 115.276 386.427 110.524 386.427 105.342C386.427 100.16 387.358 95.4076 389.214 91.0807C391.074 86.7538 393.681 82.9822 397.043 79.7694C400.401 76.5567 404.334 74.0805 408.834 72.3446C413.333 70.6086 418.26 69.7388 423.611 69.7388C429.546 69.7388 434.912 70.7715 439.706 72.8368C444.5 74.9022 448.529 77.9373 451.791 81.9347L441.613 91.3768C439.264 88.6896 436.657 86.6724 433.785 85.3288C430.913 83.9853 427.783 83.3116 424.391 83.3116C421.195 83.3116 418.257 83.8372 415.583 84.8847C412.906 85.9359 410.594 87.4423 408.635 89.4077C406.679 91.3731 405.162 93.7049 404.083 96.3921C403.008 99.083 402.471 102.066 402.471 105.342C402.471 108.618 403.008 111.605 404.083 114.292C405.159 116.983 406.676 119.307 408.635 121.276C410.59 123.242 412.906 124.752 415.583 125.799C418.257 126.85 421.191 127.372 424.391 127.372C427.783 127.372 430.913 126.702 433.785 125.355C436.653 124.011 439.264 121.961 441.613 119.207L451.791 128.649C448.529 132.65 444.5 135.7 439.706 137.795C434.912 139.894 429.513 140.941 423.511 140.941V140.945Z" fill="#2B2A29"/>
<path d="M461.575 139.765V70.9126H513.34V83.7007H477.331V126.977H514.615V139.765H461.578H461.575ZM476.157 111.042V98.6504H509.132V111.042H476.157Z" fill="#2B2A29"/>
<path d="M527.234 139.765V70.9126H543.086V126.78H577.431V139.765H527.234Z" fill="#2B2A29"/>
<path d="M586.335 139.765V70.9126H602.187V126.78H636.532V139.765H586.335Z" fill="#2B2A29"/>
<path d="M645.435 139.765V70.9126H697.197V83.7007H661.188V126.977H698.468V139.765H645.432H645.435ZM660.017 111.042V98.6504H692.992V111.042H660.017Z" fill="#2B2A29"/>
<path d="M711.095 139.765V70.9126H724.207L764.621 120.485H758.261V70.9126H773.918V139.761H760.905L720.396 90.1891H726.756V139.761H711.098L711.095 139.765Z" fill="#2B2A29"/>
<path d="M822.937 140.945C817.653 140.945 812.745 140.075 808.212 138.339C803.675 136.603 799.746 134.127 796.421 130.914C793.096 127.702 790.5 123.93 788.644 119.603C786.784 115.276 785.856 110.524 785.856 105.342C785.856 100.16 786.788 95.4076 788.644 91.0807C790.503 86.7538 793.111 82.9822 796.472 79.7694C799.831 76.5567 803.763 74.0805 808.263 72.3446C812.763 70.6086 817.69 69.7388 823.04 69.7388C828.976 69.7388 834.341 70.7715 839.136 72.8368C843.93 74.9022 847.958 77.9373 851.221 81.9347L841.043 91.3768C838.697 88.6896 836.087 86.6724 833.214 85.3288C830.342 83.9853 827.212 83.3116 823.821 83.3116C820.625 83.3116 817.69 83.8372 815.017 84.8847C812.34 85.9359 810.027 87.4423 808.068 89.4077C806.113 91.3731 804.592 93.7049 803.517 96.3921C802.441 99.083 801.904 102.066 801.904 105.342C801.904 108.618 802.441 111.605 803.517 114.292C804.592 116.983 806.109 119.307 808.068 121.276C810.023 123.242 812.34 124.752 815.017 125.799C817.69 126.85 820.625 127.372 823.821 127.372C827.212 127.372 830.346 126.702 833.214 125.355C836.083 124.011 838.694 121.961 841.043 119.207L851.221 128.649C847.958 132.65 843.93 135.7 839.136 137.795C834.341 139.894 828.943 140.941 822.941 140.941L822.937 140.945Z" fill="#2B2A29"/>
<path d="M861.001 139.765V70.9126H912.767V83.7007H876.758V126.977H914.041V139.765H861.005H861.001ZM875.583 111.042V98.6504H908.558V111.042H875.583Z" fill="#2B2A29"/>
<path d="M322.638 139.48H309.521V126.296L366.358 69.7172H379.474V82.9014L322.634 139.48H322.638ZM366.361 139.48H379.478V126.296L364.285 111.028H351.168V124.212L366.358 139.48H366.361ZM324.711 98.1731H337.827V84.9889L322.638 69.7172H309.521V82.9014L324.711 98.1694V98.1731Z" fill="url(#paint0_linear_228_6046)"/>
<line x1="586.334" y1="196.114" x2="914.041" y2="196.114" stroke="#2B2A29"/>
<path d="M207.097 20.0411C208.178 21.6141 208.714 23.3182 208.714 25.1534C208.714 28.4306 207.623 30.9615 205.45 32.7665C203.277 34.5715 200.043 35.4689 195.757 35.4689H177.056V0.499146H195.42C199.607 0.499146 202.633 1.34616 204.508 3.05028C206.373 4.7544 207.305 6.86187 207.305 9.38275C207.305 12.8515 205.807 15.2917 202.811 16.7034C204.587 17.3588 206.006 18.468 207.087 20.0411" fill="#2B2A29"/>
<path d="M252.694 21.9469V35.4689H224.39V0.499146H237.912V21.9469H252.694Z" fill="#2B2A29"/>
<path d="M281.832 24.3367C285.434 21.967 287.239 18.2563 287.239 13.7893C287.239 6.29719 282.179 0.821819 272.01 0.519313V0.499146H255.948V35.4689H269.996V25.103L274.58 35.479H287.249L281.832 24.3467V24.3367Z" fill="#2B2A29"/>
<path d="M308.063 21.4528V0.499146H321.109V22.088C321.109 26.313 319.79 29.6003 317.151 31.9699C314.472 34.3093 310.672 35.479 305.732 35.479C300.791 35.479 296.971 34.3093 294.352 31.9699C291.674 29.6406 290.344 26.3433 290.344 22.088V0.499146H303.39V21.4528C303.39 22.7636 304.432 23.8224 305.722 23.8224C307.012 23.8224 308.053 22.7636 308.053 21.4528" fill="#2B2A29"/>
<path d="M210.46 0.499146V16.7538H216.313L222.177 0.499146H210.46Z" fill="#2B2A29"/>
<path d="M9.73151 34.7796V9.46457H0.109375V0.505798H30.4097V9.46457H20.7943V34.7796H9.73151Z" fill="#2B2A29"/>
<path d="M101.966 6.54984C100.693 4.60665 98.8902 3.1124 96.5584 2.0671C94.2266 1.0218 91.4592 0.499146 88.263 0.499146H71.7593V34.773H83.3112V26.3503H88.2563C91.4525 26.3503 94.2199 25.8209 96.5517 24.7622C98.8835 23.7035 100.686 22.2093 101.959 20.2795C103.232 18.3564 103.869 16.0715 103.869 13.4247C103.869 10.7779 103.232 8.48632 101.959 6.54313L101.966 6.54984Z" fill="#2B2A29"/>
<path d="M134.94 34.7795H147.423L147.329 0.505676H134.933L126.959 17.7599L118.764 0.505676H106.294V34.7795H118.778V22.5307L126.805 34.7795L134.873 22.0684L134.94 34.7795Z" fill="#2B2A29"/>
<path d="M149.849 34.7795V0.505676H161.401V34.7795H149.849Z" fill="#2B2A29"/>
<path d="M57.5206 34.7795H69.3339L56.1001 0.505676H46.0692L32.8354 34.7795H44.4745L45.6002 31.4694H56.3949L57.5206 34.7795Z" fill="#2B2A29"/>
<defs>
<linearGradient id="paint0_linear_228_6046" x1="344.5" y1="69.7172" x2="344.5" y2="139.48" gradientUnits="userSpaceOnUse">
<stop stop-color="#EC2188"/>
<stop offset="1" stop-color="#FF9618"/>
</linearGradient>
</defs>
</svg>
