<svg width="314" height="99" viewBox="0 0 314 99" fill="none" xmlns="http://www.w3.org/2000/svg">
<path d="M0.328125 98.1573L13.91 68.1658H18.1516L31.7763 98.1573H27.2776L15.1525 70.5651H16.8663L4.74115 98.1573H0.328125ZM6.11219 90.6594L7.269 87.2318H24.1499L25.3924 90.6594H6.11219Z" fill="#2B2A29"/>
<path d="M41.5583 98.1573L31.5326 68.1658H35.9456L45.1573 95.8436H42.9294L52.4838 68.1658H56.4255L65.7657 95.8436H63.6234L72.9636 68.1658H77.0339L67.0082 98.1573H62.5095L53.7691 72.4932H54.9259L46.1427 98.1573H41.5583Z" fill="#2B2A29"/>
<path d="M76.7711 98.1573L90.353 68.1658H94.5946L108.219 98.1573H103.721L91.5955 70.5651H93.3093L81.1842 98.1573H76.7711ZM82.5552 90.6594L83.712 87.2318H100.593L101.835 90.6594H82.5552Z" fill="#2B2A29"/>
<path d="M112.693 98.1573V68.1658H124.39C128.275 68.1658 131.331 69.0941 133.559 70.9507C135.787 72.7788 136.901 75.3352 136.901 78.62C136.901 80.7908 136.401 82.6617 135.401 84.2327C134.401 85.7751 132.973 86.9605 131.117 87.7888C129.26 88.6171 127.018 89.0313 124.39 89.0313H115.05L116.978 87.0604V98.1573H112.693ZM132.745 98.1573L125.118 87.2746H129.703L137.415 98.1573H132.745ZM116.978 87.4889L115.05 85.3895H124.261C127.003 85.3895 129.074 84.8039 130.474 83.6328C131.902 82.4332 132.616 80.7622 132.616 78.62C132.616 76.4777 131.902 74.8211 130.474 73.65C129.074 72.4789 127.003 71.8933 124.261 71.8933H115.05L116.978 69.7511V87.4889Z" fill="#2B2A29"/>
<path d="M143.823 98.1573V68.1658H156.462C159.661 68.1658 162.475 68.7942 164.902 70.051C167.359 71.3078 169.258 73.0644 170.601 75.3209C171.972 77.5774 172.657 80.191 172.657 83.1615C172.657 86.1321 171.972 88.7457 170.601 91.0022C169.258 93.2587 167.359 95.0153 164.902 96.2721C162.475 97.5289 159.661 98.1573 156.462 98.1573H143.823ZM148.107 94.4297H156.205C158.69 94.4297 160.832 93.9585 162.632 93.0159C164.46 92.0733 165.874 90.7594 166.873 89.0741C167.873 87.3603 168.373 85.3895 168.373 83.1615C168.373 80.905 167.873 78.9342 166.873 77.2489C165.874 75.5637 164.46 74.2498 162.632 73.3072C160.832 72.3646 158.69 71.8933 156.205 71.8933H148.107V94.4297Z" fill="#2B2A29"/>
<path d="M187.96 98.5C185.675 98.5 183.49 98.1573 181.405 97.4717C179.32 96.7577 177.678 95.8436 176.478 94.7297L178.063 91.3878C179.206 92.3875 180.662 93.2158 182.433 93.8728C184.204 94.5297 186.047 94.8582 187.96 94.8582C189.703 94.8582 191.117 94.6583 192.202 94.2584C193.287 93.8585 194.087 93.3158 194.601 92.6303C195.115 91.9162 195.373 91.1164 195.373 90.2309C195.373 89.2027 195.03 88.3743 194.344 87.7459C193.687 87.1175 192.816 86.6177 191.731 86.2464C190.674 85.8465 189.503 85.5037 188.217 85.2181C186.932 84.9325 185.632 84.604 184.319 84.2327C183.033 83.8328 181.848 83.3329 180.762 82.7331C179.706 82.1333 178.849 81.3335 178.192 80.3338C177.535 79.3055 177.206 77.9916 177.206 76.392C177.206 74.8496 177.606 73.4357 178.406 72.1504C179.234 70.8365 180.491 69.7939 182.176 69.0227C183.89 68.2229 186.061 67.8231 188.689 67.8231C190.431 67.8231 192.159 68.0516 193.873 68.5086C195.587 68.9656 197.072 69.6225 198.329 70.4794L196.915 73.907C195.63 73.0501 194.273 72.436 192.845 72.0647C191.417 71.6648 190.031 71.4649 188.689 71.4649C187.004 71.4649 185.618 71.6791 184.533 72.1075C183.447 72.536 182.648 73.1073 182.133 73.8213C181.648 74.5354 181.405 75.3352 181.405 76.2207C181.405 77.2775 181.734 78.1201 182.391 78.7485C183.076 79.3769 183.947 79.8768 185.004 80.2481C186.089 80.6194 187.275 80.9622 188.56 81.2764C189.846 81.562 191.131 81.8905 192.416 82.2618C193.73 82.6331 194.916 83.1187 195.972 83.7185C197.058 84.3183 197.929 85.1181 198.586 86.1178C199.243 87.1175 199.571 88.4029 199.571 89.9739C199.571 91.4877 199.157 92.9016 198.329 94.2155C197.501 95.5009 196.215 96.5434 194.473 97.3432C192.759 98.1144 190.588 98.5 187.96 98.5Z" fill="#2B2A29"/>
<path d="M214.423 98.1573V95.2438L226.634 83.4615C227.72 82.4332 228.519 81.5334 229.034 80.7622C229.576 79.9625 229.933 79.2341 230.105 78.5771C230.305 77.8916 230.405 77.2347 230.405 76.6063C230.405 75.0638 229.862 73.8499 228.777 72.9644C227.691 72.079 226.106 71.6363 224.021 71.6363C222.421 71.6363 220.979 71.9076 219.693 72.4503C218.408 72.9644 217.294 73.7785 216.352 74.8925L213.438 72.3646C214.581 70.9079 216.109 69.7939 218.022 69.0227C219.965 68.2229 222.093 67.8231 224.406 67.8231C226.491 67.8231 228.305 68.1658 229.848 68.8513C231.39 69.5083 232.575 70.4652 233.404 71.7219C234.261 72.9787 234.689 74.464 234.689 76.1778C234.689 77.149 234.561 78.1058 234.303 79.0484C234.046 79.991 233.561 80.9907 232.847 82.0476C232.133 83.1044 231.104 84.2898 229.762 85.6037L218.879 96.1007L217.851 94.4297H235.974V98.1573H214.423Z" fill="#2B2A29"/>
<path d="M251.709 98.5C249.367 98.5 247.267 97.9002 245.411 96.7005C243.583 95.5009 242.126 93.7585 241.041 91.4734C239.984 89.1884 239.455 86.4177 239.455 83.1615C239.455 79.9053 239.984 77.1347 241.041 74.8496C242.126 72.5646 243.583 70.8222 245.411 69.6225C247.267 68.4229 249.367 67.8231 251.709 67.8231C254.023 67.8231 256.108 68.4229 257.964 69.6225C259.821 70.8222 261.278 72.5646 262.334 74.8496C263.391 77.1347 263.92 79.9053 263.92 83.1615C263.92 86.4177 263.391 89.1884 262.334 91.4734C261.278 93.7585 259.821 95.5009 257.964 96.7005C256.108 97.9002 254.023 98.5 251.709 98.5ZM251.709 94.6868C253.28 94.6868 254.651 94.2584 255.822 93.4015C257.022 92.5446 257.95 91.2592 258.607 89.5454C259.292 87.8316 259.635 85.7037 259.635 83.1615C259.635 80.6194 259.292 78.4914 258.607 76.7776C257.95 75.0638 257.022 73.7785 255.822 72.9216C254.651 72.0647 253.28 71.6363 251.709 71.6363C250.138 71.6363 248.753 72.0647 247.553 72.9216C246.353 73.7785 245.411 75.0638 244.725 76.7776C244.068 78.4914 243.74 80.6194 243.74 83.1615C243.74 85.7037 244.068 87.8316 244.725 89.5454C245.411 91.2592 246.353 92.5446 247.553 93.4015C248.753 94.2584 250.138 94.6868 251.709 94.6868Z" fill="#2B2A29"/>
<path d="M267.561 98.1573V95.2438L279.772 83.4615C280.857 82.4332 281.657 81.5334 282.171 80.7622C282.714 79.9625 283.071 79.2341 283.242 78.5771C283.442 77.8916 283.542 77.2347 283.542 76.6063C283.542 75.0638 283 73.8499 281.914 72.9644C280.829 72.079 279.244 71.6363 277.158 71.6363C275.559 71.6363 274.116 71.9076 272.831 72.4503C271.546 72.9644 270.432 73.7785 269.489 74.8925L266.576 72.3646C267.718 70.9079 269.246 69.7939 271.16 69.0227C273.102 68.2229 275.23 67.8231 277.544 67.8231C279.629 67.8231 281.443 68.1658 282.985 68.8513C284.528 69.5083 285.713 70.4652 286.542 71.7219C287.398 72.9787 287.827 74.464 287.827 76.1778C287.827 77.149 287.698 78.1058 287.441 79.0484C287.184 79.991 286.699 80.9907 285.984 82.0476C285.27 83.1044 284.242 84.2898 282.9 85.6037L272.017 96.1007L270.989 94.4297H289.112V98.1573H267.561Z" fill="#2B2A29"/>
<path d="M302.318 98.5C300.204 98.5 298.148 98.1715 296.148 97.5146C294.177 96.8576 292.563 95.9722 291.307 94.8582L293.278 91.4734C294.277 92.416 295.577 93.1872 297.176 93.7871C298.776 94.3869 300.475 94.6868 302.275 94.6868C304.56 94.6868 306.317 94.2012 307.545 93.2301C308.773 92.2589 309.387 90.9593 309.387 89.3312C309.387 88.2172 309.116 87.2461 308.573 86.4177C308.03 85.5894 307.088 84.961 305.745 84.5326C304.431 84.0756 302.618 83.8471 300.304 83.8471H293.492L295.077 68.1658H312.001V71.8933H296.662L298.89 69.7939L297.648 82.1761L295.42 80.1195H301.204C304.203 80.1195 306.617 80.5052 308.445 81.2764C310.273 82.0476 311.601 83.1187 312.429 84.4897C313.258 85.8322 313.672 87.3889 313.672 89.1598C313.672 90.8736 313.258 92.4446 312.429 93.8728C311.601 95.2724 310.344 96.4006 308.659 97.2575C307.002 98.0858 304.888 98.5 302.318 98.5Z" fill="#2B2A29"/>
<path d="M15.6061 57.644C13.7808 57.644 12.1056 57.3508 10.5781 56.7659C9.04933 56.1809 7.72036 55.3465 6.58868 54.2638C5.45577 53.1812 4.57723 51.9102 3.95059 50.4521C3.32395 48.9928 3.01001 47.3913 3.01001 45.6451C3.01001 43.8989 3.32395 42.2974 3.94935 40.8393C4.57599 39.3812 5.46073 38.1102 6.60357 37.0276C7.74642 35.9449 9.0878 35.1105 10.6265 34.5255C12.1652 33.9393 13.859 33.6462 15.7054 33.6462C17.7491 33.6462 19.5905 33.9892 21.2285 34.6739C22.8664 35.3587 24.2463 36.354 25.3668 37.6574L21.937 40.8393C21.1007 39.9562 20.1886 39.2976 19.1997 38.8673C18.2107 38.437 17.1336 38.2212 15.9684 38.2212C14.8033 38.2212 13.8254 38.3983 12.9022 38.7513C11.979 39.1055 11.1824 39.6132 10.5111 40.2755C9.83977 40.9378 9.32357 41.7236 8.96123 42.6291C8.5989 43.5359 8.41773 44.5412 8.41773 45.6451C8.41773 46.7489 8.5989 47.7218 8.96123 48.6286C9.32357 49.5354 9.83977 50.3249 10.5111 50.9984C11.1812 51.6732 11.9728 52.1858 12.8849 52.5401C13.7969 52.8943 14.802 53.0702 15.9027 53.0702C17.0033 53.0702 17.9848 52.8993 18.9862 52.5563C19.9864 52.2145 20.9592 51.6345 21.9048 50.8163L24.9375 54.6941C23.6842 55.6446 22.2286 56.3742 20.5683 56.8819C18.9081 57.3895 17.2552 57.644 15.6061 57.644ZM24.9375 54.6941L20.0571 53.9981V45.2809H24.9375V54.6941Z" fill="#2B2A29"/>
<path d="M40.9309 57.6439C39.1503 57.6439 37.4962 57.3508 35.9687 56.7658C34.4399 56.1809 33.1159 55.3464 31.9954 54.2638C30.8736 53.1811 30.0001 51.9102 29.3734 50.4521C28.7468 48.994 28.4341 47.3925 28.4341 45.6463C28.4341 43.9001 28.748 42.2986 29.3734 40.8405C30.0001 39.3824 30.8786 38.1114 32.0115 37.0288C33.1432 35.9461 34.4684 35.1117 35.9848 34.5267C37.5011 33.9393 39.1602 33.6461 40.9632 33.6461C42.9634 33.6461 44.7714 33.9941 46.387 34.6901C48.0026 35.3861 49.3601 36.4089 50.4596 37.756L47.0298 40.9378C46.2381 40.0323 45.3596 39.3525 44.3917 38.8997C43.4238 38.447 42.3691 38.2199 41.2262 38.2199C40.1492 38.2199 39.1589 38.3971 38.2581 38.75C37.3559 39.1043 36.5767 39.6119 35.9165 40.2742C35.2576 40.9365 34.7464 41.7223 34.3828 42.6279C34.0205 43.5346 33.8393 44.5399 33.8393 45.6438C33.8393 46.7476 34.0205 47.7542 34.3828 48.6597C34.7452 49.5665 35.2564 50.3498 35.9165 51.0134C36.5767 51.6769 37.3559 52.1846 38.2581 52.5375C39.1589 52.8918 40.1479 53.0676 41.2262 53.0676C42.3691 53.0676 43.4238 52.8419 44.3917 52.3879C45.3583 51.9351 46.2381 51.2441 47.0298 50.3161L50.4596 53.4979C49.3601 54.8463 48.0026 55.874 46.387 56.58C44.7714 57.2872 42.9523 57.6402 40.9297 57.6402L40.9309 57.6439Z" fill="#2B2A29"/>
<path d="M64.8039 57.6439C63.0233 57.6439 61.3692 57.3508 59.8417 56.7658C58.3129 56.1809 56.9889 55.3464 55.8684 54.2638C54.7467 53.1811 53.8731 51.9102 53.2465 50.4521C52.6198 48.994 52.3071 47.3925 52.3071 45.6463C52.3071 43.9001 52.6211 42.2986 53.2465 40.8405C53.8731 39.3824 54.7516 38.1114 55.8846 37.0288C57.0162 35.9461 58.3415 35.1117 59.8578 34.5267C61.3742 33.9393 63.0332 33.6461 64.8362 33.6461C66.8365 33.6461 68.6444 33.9941 70.2601 34.6901C71.8757 35.3861 73.2332 36.4089 74.3326 37.756L70.9028 40.9378C70.1112 40.0323 69.2326 39.3525 68.2647 38.8997C67.2969 38.447 66.2421 38.2199 65.0993 38.2199C64.0222 38.2199 63.032 38.3971 62.1311 38.75C61.229 39.1043 60.4497 39.6119 59.7896 40.2742C59.1307 40.9365 58.6194 41.7223 58.2559 42.6279C57.8935 43.5346 57.7124 44.5399 57.7124 45.6438C57.7124 46.7476 57.8935 47.7542 58.2559 48.6597C58.6182 49.5665 59.1294 50.3498 59.7896 51.0134C60.4485 51.6757 61.229 52.1846 62.1311 52.5375C63.032 52.8918 64.021 53.0676 65.0993 53.0676C66.2421 53.0676 67.2969 52.8419 68.2647 52.3879C69.2314 51.9351 70.1112 51.2441 70.9028 50.3161L74.3326 53.4979C73.2332 54.8463 71.8757 55.874 70.2601 56.58C68.6444 57.2872 66.8253 57.6402 64.8027 57.6402L64.8039 57.6439Z" fill="#2B2A29"/>
<path d="M86.9622 57.2461V34.0441H104.405V38.3534H92.2706V52.9367H104.833V57.2461H86.9609H86.9622ZM91.8748 47.5671V43.3912H102.987V47.5671H91.8748Z" fill="#2B2A29"/>
<path d="M145.689 57.6438C143.909 57.6438 142.254 57.3507 140.727 56.7657C139.198 56.1807 137.874 55.3463 136.754 54.2637C135.632 53.181 134.758 51.91 134.132 50.452C133.505 48.9939 133.192 47.3924 133.192 45.6462C133.192 43.9 133.506 42.2985 134.132 40.8404C134.758 39.3823 135.637 38.1113 136.77 37.0287C137.901 35.946 139.227 35.1116 140.743 34.5266C142.259 33.9416 143.92 33.6485 145.723 33.6485C147.723 33.6485 149.531 33.9965 151.147 34.6925C152.762 35.3885 154.12 36.4113 155.219 37.7583L151.789 40.9402C150.998 40.0346 150.119 39.3549 149.151 38.9021C148.183 38.4493 147.129 38.2223 145.986 38.2223C144.909 38.2223 143.918 38.3994 143.018 38.7524C142.115 39.1067 141.336 39.6143 140.676 40.2766C140.017 40.9389 139.506 41.7247 139.142 42.6302C138.78 43.537 138.599 44.5423 138.599 45.6462C138.599 46.75 138.78 47.7566 139.142 48.6621C139.505 49.5689 140.016 50.3522 140.676 51.0157C141.335 51.678 142.115 52.1869 143.018 52.5399C143.918 52.8941 144.907 53.07 145.986 53.07C147.129 53.07 148.183 52.8443 149.151 52.3902C150.118 51.9375 150.998 51.2465 151.789 50.3185L155.219 53.5003C154.12 54.8486 152.762 55.8764 151.147 56.5824C149.531 57.2896 147.712 57.6426 145.689 57.6426V57.6438Z" fill="#2B2A29"/>
<path d="M158.516 57.2461V34.0441H175.96V38.3534H163.826V52.9367H176.39V57.2461H158.517H158.516ZM163.43 47.5671V43.3912H174.542V47.5671H163.43Z" fill="#2B2A29"/>
<path d="M180.642 57.2461V34.0441H185.984V52.8706H197.558V57.2461H180.642Z" fill="#2B2A29"/>
<path d="M200.558 57.2461V34.0441H205.9V52.8706H217.474V57.2461H200.558Z" fill="#2B2A29"/>
<path d="M220.474 57.2461V34.0441H237.917V38.3534H225.782V52.9367H238.345V57.2461H220.473H220.474ZM225.388 47.5671V43.3912H236.5V47.5671H225.388Z" fill="#2B2A29"/>
<path d="M242.6 57.2461V34.0441H247.019L260.637 50.749H258.494V34.0441H263.771V57.2448H259.385L245.735 40.5399H247.878V57.2448H242.601L242.6 57.2461Z" fill="#2B2A29"/>
<path d="M280.289 57.6438C278.508 57.6438 276.854 57.3507 275.327 56.7657C273.798 56.1807 272.474 55.3463 271.354 54.2637C270.233 53.181 269.358 51.91 268.733 50.452C268.106 48.9939 267.793 47.3924 267.793 45.6462C267.793 43.9 268.107 42.2985 268.733 40.8404C269.359 39.3823 270.238 38.1113 271.371 37.0287C272.503 35.946 273.828 35.1116 275.344 34.5266C276.86 33.9416 278.521 33.6485 280.324 33.6485C282.324 33.6485 284.132 33.9965 285.748 34.6925C287.363 35.3885 288.721 36.4113 289.82 37.7583L286.39 40.9402C285.6 40.0346 284.72 39.3549 283.752 38.9021C282.784 38.4493 281.73 38.2223 280.587 38.2223C279.51 38.2223 278.521 38.3994 277.62 38.7524C276.718 39.1067 275.939 39.6143 275.278 40.2766C274.619 40.9389 274.107 41.7247 273.745 42.6302C273.382 43.537 273.201 44.5423 273.201 45.6462C273.201 46.75 273.382 47.7566 273.745 48.6621C274.107 49.5689 274.618 50.3522 275.278 51.0157C275.937 51.678 276.718 52.1869 277.62 52.5399C278.521 52.8941 279.51 53.07 280.587 53.07C281.73 53.07 282.786 52.8443 283.752 52.3902C284.719 51.9375 285.599 51.2465 286.39 50.3185L289.82 53.5003C288.721 54.8486 287.363 55.8764 285.748 56.5824C284.132 57.2896 282.313 57.6426 280.29 57.6426L280.289 57.6438Z" fill="#2B2A29"/>
<path d="M293.116 57.2461V34.0441H310.56V38.3534H298.426V52.9367H310.99V57.2461H293.117H293.116ZM298.03 47.5671V43.3912H309.142V47.5671H298.03Z" fill="#2B2A29"/>
<path d="M111.697 57.1501H107.277V52.7073L126.43 33.6413H130.85V38.0841L111.696 57.1501H111.697ZM126.431 57.1501H130.851V52.7073L125.731 47.5622H121.311V52.005L126.43 57.1501H126.431ZM112.395 43.2304H116.815V38.7876L111.697 33.6413H107.277V38.0841L112.395 43.2291V43.2304Z" fill="url(#paint0_linear_228_6135)"/>
<path d="M177.973 9.33883C178.461 10.0485 178.702 10.8173 178.702 11.6452C178.702 13.1237 178.21 14.2655 177.23 15.0798C176.249 15.8941 174.79 16.299 172.857 16.299H164.42V0.522598H172.705C174.593 0.522598 175.959 0.904726 176.805 1.67353C177.646 2.44233 178.067 3.3931 178.067 4.53039C178.067 6.09529 177.391 7.19618 176.039 7.83306C176.84 8.12876 177.48 8.62916 177.968 9.33883" fill="#2B2A29"/>
<path d="M198.543 10.1986V16.299H185.774V0.522598H191.874V10.1986H198.543Z" fill="#2B2A29"/>
<path d="M211.689 11.2768C213.314 10.2077 214.128 8.53363 214.128 6.51836C214.128 3.13835 211.846 0.668171 207.258 0.531697V0.522598H200.012V16.299H206.349V11.6225L208.417 16.3036H214.133L211.689 11.2813V11.2768Z" fill="#2B2A29"/>
<path d="M223.523 9.97571V0.522598H229.409V10.2623C229.409 12.1684 228.814 13.6514 227.623 14.7205C226.414 15.7759 224.7 16.3036 222.471 16.3036C220.242 16.3036 218.519 15.7759 217.338 14.7205C216.129 13.6696 215.529 12.182 215.529 10.2623V0.522598H221.415V9.97571C221.415 10.5671 221.885 11.0448 222.467 11.0448C223.049 11.0448 223.519 10.5671 223.519 9.97571" fill="#2B2A29"/>
<path d="M179.49 0.522598V7.85581H182.13L184.776 0.522598H179.49Z" fill="#2B2A29"/>
<path d="M88.9323 15.988V4.56729H84.5913V0.525589H98.2611V4.56729H93.9232V15.988H88.9323Z" fill="#2B2A29"/>
<path d="M130.543 3.25233C129.969 2.37567 129.156 1.70155 128.104 1.22997C127.052 0.758389 125.803 0.522598 124.361 0.522598H116.916V15.985H122.127V12.1852H124.358C125.8 12.1852 127.048 11.9464 128.1 11.4687C129.152 10.9911 129.966 10.317 130.54 9.44638C131.114 8.57879 131.402 7.54796 131.402 6.35389C131.402 5.15982 131.114 4.12597 130.54 3.24931L130.543 3.25233Z" fill="#2B2A29"/>
<path d="M145.419 15.988H151.051L151.009 0.525543H145.416L141.819 8.30967L138.122 0.525543H132.496V15.988H138.128V10.462L141.749 15.988L145.389 10.2534L145.419 15.988Z" fill="#2B2A29"/>
<path d="M152.146 15.988V0.525543H157.357V15.988H152.146Z" fill="#2B2A29"/>
<path d="M110.492 15.988H115.822L109.851 0.525543H105.326L99.3555 15.988H104.606L105.114 14.4946H109.984L110.492 15.988Z" fill="#2B2A29"/>
<defs>
<linearGradient id="paint0_linear_228_6135" x1="119.064" y1="33.6413" x2="119.064" y2="57.1501" gradientUnits="userSpaceOnUse">
<stop stop-color="#EC2188"/>
<stop offset="1" stop-color="#FF9618"/>
</linearGradient>
</defs>
</svg>
