<svg width="1002" height="320" viewBox="0 0 1002 320" fill="none" xmlns="http://www.w3.org/2000/svg">
<path d="M0.793945 0.654785H28.4562V119.248H106.344V147.067H41.7402L0.793945 105.889V0.654785Z" fill="#2B2A29"/>
<path d="M159.469 28.4737V60.1331H244.272V87.7649H159.469V119.237H251.91V147.056H172.753L131.806 105.878V41.8219L172.753 0.654785H251.91V28.4737H159.469Z" fill="#2B2A29"/>
<path d="M373.468 101.861H308.689V147.067H281.027V41.8329L321.962 0.654785H360.173L401.119 41.8329V147.067H373.457V101.861H373.468ZM373.468 74.4057V28.4737H308.689V74.4057H373.468Z" fill="#2B2A29"/>
<path d="M514.854 0.654785L555.8 41.8329V105.889L514.854 147.067H430.237V0.654785H514.854ZM528.138 119.248V28.4737H457.899V119.248H528.138Z" fill="#2B2A29"/>
<path d="M859.209 101.904H794.496V147.055H766.866V41.942L807.758 0.818848H845.925L886.827 41.953V147.066H859.198V101.915L859.209 101.904ZM859.209 74.4817V28.6047H794.496V74.4927H859.209V74.4817Z" fill="#2B2A29"/>
<path d="M915.923 28.4177V0.818848H935.554L972.276 37.5622V119.456H1001V147.242L915.934 147.055V119.456H944.658V28.4177H915.934H915.923ZM972.09 0.818848H1000.99V28.6047H972.09V0.818848Z" fill="#2B2A29"/>
<path d="M613.116 0.906738L645.014 32.9849V60.5747L704.934 0.906738H732.476V28.605L673.144 87.6987H700.578L732.475 119.776V147.485H704.933L673.026 115.396V87.8159L613.116 147.485H585.564V119.776L644.906 60.6821H617.472L585.564 28.605V0.906738H613.116Z" fill="url(#paint0_linear_214_4357)"/>
<rect x="0.793945" y="179.274" width="1000.21" height="86.5" fill="#FE8129"/>
<path d="M30.6715 230.404V209.704H36.1435V233.032H51.5515V238.504H38.7715L30.6715 230.404ZM80.3417 215.176H62.0537V221.404H78.8297V226.84H62.0537V233.032H80.3417V238.504H64.6817L56.5817 230.404V217.804L64.6817 209.704H80.3417V215.176ZM104.401 238.504V229.612H91.5849V238.504H86.1129V217.804L94.2129 209.704H101.773L109.873 217.804V238.504H104.401ZM91.5849 224.212H104.401V215.176H91.5849V224.212ZM115.68 209.704H131.232L139.332 217.804V221.692L133.932 227.092L139.404 232.456V238.504H133.932V229.828H121.152L121.116 238.504H115.644L115.68 223.528V209.704ZM121.152 224.356H133.86V215.176H121.152V224.356ZM150.719 238.504H145.175V215.176H150.719V238.504ZM150.719 215.176V209.704H161.915L170.015 217.804V238.504H164.543V215.176H150.719ZM181.449 232.888V215.14H175.761V209.668H178.821L186.921 217.768V232.996H192.609V238.468H187.029L186.993 238.432H175.761V232.996H181.557L181.449 232.888ZM187.173 215.176V209.74H192.609V215.176H187.173ZM203.911 238.504H198.367V215.176H203.911V238.504ZM203.911 215.176V209.704H215.107L223.207 217.804V238.504H217.735V215.176H203.911ZM251.309 215.104H234.425V233.104H247.601V226.696H240.509V221.512H253.073V230.404L244.973 238.504H237.053L228.953 230.404V217.804L237.053 209.704H251.309V215.104ZM295.924 220.684V226.084H292.324V230.404L284.26 238.504H275.584L267.484 230.404V228.784L272.884 223.384L267.484 217.984V215.176H272.956V220.684H295.924ZM272.956 233.032H286.852V226.156H272.956V233.032ZM272.956 215.176V209.704H290.524V215.176H272.956ZM310.339 209.704H327.079L335.179 217.804V230.404L327.079 238.504H310.339V209.704ZM315.811 233.032H329.707V215.176H315.811V233.032ZM364.685 215.176H346.397V221.404H363.173V226.84H346.397V233.032H364.685V238.504H349.025L340.925 230.404V217.804L349.025 209.704H364.685V215.176ZM375.857 209.704V233.032H387.737V209.704H393.137V230.404L385.037 238.504H378.557L370.457 230.404V209.704H375.857ZM422.658 215.176H404.37V221.404H421.146V226.84H404.37V233.032H422.658V238.504H406.998L398.898 230.404V217.804L406.998 209.704H422.658V215.176ZM428.429 230.404V209.704H433.901V233.032H449.309V238.504H436.529L428.429 230.404ZM462.439 238.468L454.339 230.368V217.768L462.439 209.668H470.359L478.459 217.768V230.368L470.359 238.468H462.439ZM459.811 232.996H472.951V215.14H459.811V232.996ZM483.862 238.504V209.704H499.522L507.622 217.804V221.692L499.522 229.792H489.334V238.504H483.862ZM489.334 224.32H501.358V215.176H489.334V224.32ZM518.208 238.504H512.664V215.176H518.208V238.504ZM518.208 215.176V209.704H524.004L532.104 217.804V238.504H526.632V215.176H518.208ZM532.104 215.464V209.992H537.9L546 218.092V238.792H540.528V215.464H532.104ZM575.517 215.176H557.229V221.404H574.005V226.84H557.229V233.032H575.517V238.504H559.857L551.757 230.404V217.804L559.857 209.704H575.517V215.176ZM586.833 238.504H581.289V215.176H586.833V238.504ZM586.833 215.176V209.704H598.029L606.129 217.804V238.504H600.657V215.176H586.833ZM619.723 238.504V215.176H610.795V209.704H617.095L625.195 217.804V238.504H619.723ZM625.447 215.176V209.704H634.483V215.176H625.447ZM653.7 238.504H648.156V215.176H653.7V238.504ZM653.7 215.176V209.704H659.496L667.596 217.804V238.504H662.124V215.176H653.7ZM667.596 215.464V209.992H673.392L681.492 218.092V238.792H676.02V215.464H667.596ZM705.538 238.504V229.612H692.722V238.504H687.25V217.804L695.35 209.704H702.91L711.01 217.804V238.504H705.538ZM692.722 224.212H705.538V215.176H692.722V224.212ZM736.149 233.032V238.504H718.221V233.032H736.149ZM716.421 218.704V217.804L724.521 209.704H739.821V215.176H721.893V221.332H733.521L741.621 229.432V232.744H736.149V226.804H724.521L716.421 218.704ZM754.863 238.504V215.176H745.935V209.704H752.955L760.335 217.084V238.504H754.863ZM760.587 215.176V209.704H769.623V215.176H760.587ZM796.967 215.176H778.679V221.404H795.455V226.84H778.679V233.032H796.967V238.504H781.307L773.207 230.404V217.804L781.307 209.704H796.967V215.176ZM802.774 209.704H818.326L826.426 217.804V221.692L821.026 227.092L826.498 232.456V238.504H821.026V229.828H808.246L808.21 238.504H802.738L802.774 223.528V209.704ZM808.246 224.356H820.954V215.176H808.246V224.356ZM854.949 215.104H837.021V233.104H854.949V238.504H839.649L831.549 230.404V217.804L839.649 209.704H854.949V215.104ZM859.972 230.404V209.704H865.444V233.032H880.852V238.504H868.072L859.972 230.404ZM904.17 238.504V229.612H891.354V238.504H885.882V217.804L893.982 209.704H901.542L909.642 217.804V238.504H904.17ZM891.354 224.212H904.17V215.176H891.354V224.212ZM934.782 233.032V238.504H916.854V233.032H934.782ZM915.054 218.704V217.804L923.154 209.704H938.454V215.176H920.526V221.332H932.154L940.254 229.432V232.744H934.782V226.804H923.154L915.054 218.704ZM965.016 233.032V238.504H947.088V233.032H965.016ZM945.288 218.704V217.804L953.388 209.704H968.688V215.176H950.76V221.332H962.388L970.488 229.432V232.744H965.016V226.804H953.388L945.288 218.704Z" fill="white"/>
<path d="M23.8365 315.024H19.2605L17.4685 310H7.48447L5.72447 315.024H1.27647L9.94847 292.24H15.0045L23.8365 315.024ZM9.66047 303.856L8.79647 306.32H16.1565L15.2605 303.856C14.5138 301.957 13.5751 299.355 12.4445 296.048C11.5485 298.693 10.6205 301.296 9.66047 303.856ZM43.359 308.976L43.551 312.368C43.5723 313.456 43.807 314.341 44.255 315.024H39.807C39.423 314.384 39.2203 313.477 39.199 312.304L39.103 309.808C39.039 308.421 38.719 307.461 38.143 306.928C37.5883 306.373 36.6923 306.096 35.455 306.096H29.823V315.024H25.503V292.24H35.839C38.3776 292.24 40.351 292.816 41.759 293.968C43.167 295.12 43.871 296.688 43.871 298.672C43.871 301.403 42.6016 303.216 40.063 304.112C41.215 304.475 42.0363 305.051 42.527 305.84C43.039 306.608 43.3163 307.653 43.359 308.976ZM29.823 295.792V302.704H35.583C36.799 302.704 37.7376 302.405 38.399 301.808C39.0816 301.189 39.423 300.304 39.423 299.152C39.423 298.064 39.071 297.232 38.367 296.656C37.6843 296.08 36.703 295.792 35.423 295.792H29.823ZM44.534 292.24H63.478V296.112H56.182V315.024H51.83V296.112H44.534V292.24ZM73.7062 315.536C70.6129 315.536 68.2129 314.843 66.5062 313.456C64.8209 312.069 63.9676 310.085 63.9462 307.504H68.2022C68.2236 309.125 68.7036 310.288 69.6422 310.992C70.6022 311.696 71.9996 312.048 73.8342 312.048C75.3276 312.048 76.4689 311.771 77.2582 311.216C78.0476 310.64 78.4422 309.819 78.4422 308.752C78.4422 307.856 78.1009 307.173 77.4182 306.704C76.7569 306.235 75.5409 305.819 73.7702 305.456L71.8502 305.072C66.9649 304.155 64.5222 301.851 64.5222 298.16C64.5222 296.197 65.2689 294.64 66.7622 293.488C68.2556 292.315 70.3249 291.728 72.9702 291.728C75.9782 291.728 78.2502 292.368 79.7862 293.648C81.3436 294.928 82.1649 296.72 82.2502 299.024H78.0582C77.9729 297.723 77.5356 296.763 76.7462 296.144C75.9782 295.525 74.7409 295.216 73.0342 295.216C71.7116 295.216 70.6982 295.461 69.9942 295.952C69.2902 296.443 68.9382 297.136 68.9382 298.032C68.9382 298.949 69.2582 299.653 69.8982 300.144C70.5596 300.635 71.7222 301.051 73.3862 301.392L75.3702 301.776C78.0369 302.309 79.9569 303.109 81.1302 304.176C82.3249 305.221 82.9222 306.672 82.9222 308.528C82.9222 310.747 82.1116 312.475 80.4902 313.712C78.8689 314.928 76.6076 315.536 73.7062 315.536ZM94.8945 307.76H85.3905V304.304H94.8945V307.76ZM112.471 303.024C113.729 303.472 114.7 304.187 115.383 305.168C116.087 306.149 116.439 307.259 116.439 308.496C116.439 310.565 115.756 312.176 114.391 313.328C113.047 314.459 111.084 315.024 108.503 315.024H97.8467V292.24H108.151C110.54 292.24 112.364 292.784 113.623 293.872C114.881 294.96 115.511 296.379 115.511 298.128C115.511 300.368 114.497 302 112.471 303.024ZM107.831 295.792H102.167V301.744H107.831C108.919 301.744 109.751 301.477 110.327 300.944C110.924 300.389 111.223 299.632 111.223 298.672C111.223 297.776 110.924 297.072 110.327 296.56C109.729 296.048 108.897 295.792 107.831 295.792ZM102.167 311.44H108.279C109.495 311.44 110.423 311.173 111.063 310.64C111.703 310.085 112.023 309.307 112.023 308.304C112.023 306.192 110.775 305.136 108.279 305.136H102.167V311.44ZM139.149 315.024H134.573L132.781 310H122.797L121.037 315.024H116.589L125.261 292.24H130.317L139.149 315.024ZM124.973 303.856L124.109 306.32H131.469L130.573 303.856C129.826 301.957 128.888 299.355 127.757 296.048C126.861 298.693 125.933 301.296 124.973 303.856ZM148.987 315.536C145.894 315.536 143.494 314.843 141.787 313.456C140.102 312.069 139.249 310.085 139.227 307.504H143.483C143.505 309.125 143.985 310.288 144.923 310.992C145.883 311.696 147.281 312.048 149.115 312.048C150.609 312.048 151.75 311.771 152.539 311.216C153.329 310.64 153.723 309.819 153.723 308.752C153.723 307.856 153.382 307.173 152.699 306.704C152.038 306.235 150.822 305.819 149.051 305.456L147.131 305.072C142.246 304.155 139.803 301.851 139.803 298.16C139.803 296.197 140.55 294.64 142.043 293.488C143.537 292.315 145.606 291.728 148.251 291.728C151.259 291.728 153.531 292.368 155.067 293.648C156.625 294.928 157.446 296.72 157.531 299.024H153.339C153.254 297.723 152.817 296.763 152.027 296.144C151.259 295.525 150.022 295.216 148.315 295.216C146.993 295.216 145.979 295.461 145.275 295.952C144.571 296.443 144.219 297.136 144.219 298.032C144.219 298.949 144.539 299.653 145.179 300.144C145.841 300.635 147.003 301.051 148.667 301.392L150.651 301.776C153.318 302.309 155.238 303.109 156.411 304.176C157.606 305.221 158.203 306.672 158.203 308.528C158.203 310.747 157.393 312.475 155.771 313.712C154.15 314.928 151.889 315.536 148.987 315.536ZM177.49 292.24V296.112H165.01V301.488H176.306V305.2H165.01V311.152H177.426V315.024H160.69V292.24H177.49ZM180.159 292.24H188.863C192.511 292.24 195.327 293.253 197.311 295.28C199.295 297.328 200.287 300.112 200.287 303.632C200.287 307.152 199.295 309.925 197.311 311.952C195.327 314 192.511 315.024 188.863 315.024H180.159V292.24ZM184.479 311.312H188.799C191.039 311.312 192.767 310.661 193.983 309.36C195.199 308.037 195.807 306.128 195.807 303.632C195.807 301.136 195.199 299.237 193.983 297.936C192.767 296.613 191.039 295.952 188.799 295.952H184.479V311.312ZM224.148 303.088L227.956 292.24H234.228V315.024H230.1V308.08C230.1 303.813 230.142 300.048 230.228 296.784C229.758 298.384 229.182 300.133 228.5 302.032L223.892 315.024H220.34L215.7 302.032C214.889 299.664 214.324 297.936 214.004 296.848C214.089 300.091 214.132 303.835 214.132 308.08V315.024H209.972V292.24H216.244L220.18 303.312C220.436 304.059 221.086 306.117 222.132 309.488C222.814 307.12 223.486 304.987 224.148 303.088ZM258.461 315.024H253.885L252.093 310H242.109L240.349 315.024H235.901L244.573 292.24H249.629L258.461 315.024ZM244.285 303.856L243.421 306.32H250.781L249.885 303.856C249.139 301.957 248.2 299.355 247.069 296.048C246.173 298.693 245.245 301.296 244.285 303.856ZM275.2 298.192V292.24H279.36V315.024H274.56L268.224 304.88C266.496 302.171 265.141 299.888 264.16 298.032C264.245 300.421 264.288 304.101 264.288 309.072V315.024H260.128V292.24H264.928L271.296 302.384C273.195 305.456 274.539 307.739 275.328 309.232C275.243 306.053 275.2 302.373 275.2 298.192ZM303.586 315.024H299.01L297.218 310H287.234L285.474 315.024H281.026L289.698 292.24H294.754L303.586 315.024ZM289.41 303.856L288.546 306.32H295.906L295.01 303.856C294.264 301.957 293.325 299.355 292.194 296.048C291.298 298.693 290.37 301.296 289.41 303.856ZM314.946 306.224V302.736H325.122V315.024H321.986L321.378 312.016C319.736 314.363 317.261 315.536 313.954 315.536C310.669 315.536 308.034 314.448 306.05 312.272C304.066 310.096 303.074 307.216 303.074 303.632C303.074 300.048 304.088 297.157 306.114 294.96C308.141 292.805 310.882 291.728 314.338 291.728C317.197 291.728 319.576 292.453 321.474 293.904C323.352 295.355 324.482 297.328 324.866 299.824H320.418C320.098 298.48 319.394 297.424 318.306 296.656C317.24 295.888 315.928 295.504 314.37 295.504C312.28 295.504 310.626 296.229 309.41 297.68C308.194 299.131 307.586 301.115 307.586 303.632C307.586 306.149 308.205 308.133 309.442 309.584C310.68 311.035 312.376 311.76 314.53 311.76C316.237 311.76 317.698 311.248 318.914 310.224C320.13 309.2 320.792 307.867 320.898 306.224H314.946ZM345.303 292.24V296.112H332.823V301.488H344.119V305.2H332.823V311.152H345.239V315.024H328.503V292.24H345.303ZM362.148 303.088L365.956 292.24H372.228V315.024H368.1V308.08C368.1 303.813 368.142 300.048 368.228 296.784C367.758 298.384 367.182 300.133 366.5 302.032L361.892 315.024H358.34L353.7 302.032C352.889 299.664 352.324 297.936 352.004 296.848C352.089 300.091 352.132 303.835 352.132 308.08V315.024H347.972V292.24H354.244L358.18 303.312C358.436 304.059 359.086 306.117 360.132 309.488C360.814 307.12 361.486 304.987 362.148 303.088ZM392.772 292.24V296.112H380.292V301.488H391.588V305.2H380.292V311.152H392.708V315.024H375.972V292.24H392.772ZM410.512 298.192V292.24H414.672V315.024H409.872L403.536 304.88C401.808 302.171 400.454 299.888 399.472 298.032C399.558 300.421 399.6 304.101 399.6 309.072V315.024H395.44V292.24H400.24L406.608 302.384C408.507 305.456 409.851 307.739 410.64 309.232C410.555 306.053 410.512 302.373 410.512 298.192ZM416.878 292.24H435.822V296.112H428.526V315.024H424.174V296.112H416.878V292.24ZM461.193 292.24V296.112H449.417V301.488H460.137V305.2H449.417V315.024H445.097V292.24H461.193ZM482.003 312.272C479.913 314.448 477.161 315.536 473.747 315.536C470.334 315.536 467.582 314.448 465.491 312.272C463.401 310.075 462.355 307.195 462.355 303.632C462.355 300.069 463.401 297.189 465.491 294.992C467.582 292.816 470.334 291.728 473.747 291.728C477.161 291.728 479.913 292.816 482.003 294.992C484.073 297.147 485.107 300.027 485.107 303.632C485.107 307.237 484.073 310.117 482.003 312.272ZM466.867 303.632C466.867 306.128 467.497 308.101 468.755 309.552C470.014 311.003 471.678 311.728 473.747 311.728C475.838 311.728 477.513 311.003 478.771 309.552C480.009 308.123 480.627 306.149 480.627 303.632C480.627 301.115 480.009 299.141 478.771 297.712C477.513 296.261 475.838 295.536 473.747 295.536C471.678 295.536 470.014 296.261 468.755 297.712C467.497 299.163 466.867 301.136 466.867 303.632ZM505.734 308.976L505.926 312.368C505.947 313.456 506.182 314.341 506.63 315.024H502.182C501.798 314.384 501.595 313.477 501.574 312.304L501.478 309.808C501.414 308.421 501.094 307.461 500.518 306.928C499.963 306.373 499.067 306.096 497.83 306.096H492.198V315.024H487.878V292.24H498.214C500.753 292.24 502.726 292.816 504.134 293.968C505.542 295.12 506.246 296.688 506.246 298.672C506.246 301.403 504.977 303.216 502.438 304.112C503.59 304.475 504.411 305.051 504.902 305.84C505.414 306.608 505.691 307.653 505.734 308.976ZM492.198 295.792V302.704H497.958C499.174 302.704 500.113 302.405 500.774 301.808C501.457 301.189 501.798 300.304 501.798 299.152C501.798 298.064 501.446 297.232 500.742 296.656C500.059 296.08 499.078 295.792 497.798 295.792H492.198ZM532.161 292.24V296.112H520.385V301.488H531.105V305.2H520.385V315.024H516.065V292.24H532.161ZM552.972 312.272C550.882 314.448 548.13 315.536 544.716 315.536C541.303 315.536 538.551 314.448 536.46 312.272C534.37 310.075 533.324 307.195 533.324 303.632C533.324 300.069 534.37 297.189 536.46 294.992C538.551 292.816 541.303 291.728 544.716 291.728C548.13 291.728 550.882 292.816 552.972 294.992C555.042 297.147 556.076 300.027 556.076 303.632C556.076 307.237 555.042 310.117 552.972 312.272ZM537.836 303.632C537.836 306.128 538.466 308.101 539.724 309.552C540.983 311.003 542.647 311.728 544.716 311.728C546.807 311.728 548.482 311.003 549.74 309.552C550.978 308.123 551.596 306.149 551.596 303.632C551.596 301.115 550.978 299.141 549.74 297.712C548.482 296.261 546.807 295.536 544.716 295.536C542.647 295.536 540.983 296.261 539.724 297.712C538.466 299.163 537.836 301.136 537.836 303.632ZM567.269 315.536C564.175 315.536 561.775 314.843 560.069 313.456C558.383 312.069 557.53 310.085 557.509 307.504H561.765C561.786 309.125 562.266 310.288 563.205 310.992C564.165 311.696 565.562 312.048 567.397 312.048C568.89 312.048 570.031 311.771 570.821 311.216C571.61 310.64 572.005 309.819 572.005 308.752C572.005 307.856 571.663 307.173 570.981 306.704C570.319 306.235 569.103 305.819 567.333 305.456L565.413 305.072C560.527 304.155 558.085 301.851 558.085 298.16C558.085 296.197 558.831 294.64 560.325 293.488C561.818 292.315 563.887 291.728 566.533 291.728C569.541 291.728 571.813 292.368 573.349 293.648C574.906 294.928 575.727 296.72 575.813 299.024H571.621C571.535 297.723 571.098 296.763 570.309 296.144C569.541 295.525 568.303 295.216 566.597 295.216C565.274 295.216 564.261 295.461 563.557 295.952C562.853 296.443 562.501 297.136 562.501 298.032C562.501 298.949 562.821 299.653 563.461 300.144C564.122 300.635 565.285 301.051 566.949 301.392L568.933 301.776C571.599 302.309 573.519 303.109 574.693 304.176C575.887 305.221 576.485 306.672 576.485 308.528C576.485 310.747 575.674 312.475 574.053 313.712C572.431 314.928 570.17 315.536 567.269 315.536ZM576.44 292.24H595.384V296.112H588.088V315.024H583.736V296.112H576.44V292.24ZM614.365 292.24V296.112H601.885V301.488H613.181V305.2H601.885V311.152H614.301V315.024H597.565V292.24H614.365ZM634.89 308.976L635.082 312.368C635.104 313.456 635.338 314.341 635.786 315.024H631.338C630.954 314.384 630.752 313.477 630.73 312.304L630.634 309.808C630.57 308.421 630.25 307.461 629.674 306.928C629.12 306.373 628.224 306.096 626.986 306.096H621.354V315.024H617.034V292.24H627.37C629.909 292.24 631.882 292.816 633.29 293.968C634.698 295.12 635.402 296.688 635.402 298.672C635.402 301.403 634.133 303.216 631.594 304.112C632.746 304.475 633.568 305.051 634.058 305.84C634.57 306.608 634.848 307.653 634.89 308.976ZM621.354 295.792V302.704H627.114C628.33 302.704 629.269 302.405 629.93 301.808C630.613 301.189 630.954 300.304 630.954 299.152C630.954 298.064 630.602 297.232 629.898 296.656C629.216 296.08 628.234 295.792 626.954 295.792H621.354ZM642.635 315.024H638.315V292.24H642.635V315.024ZM661.45 298.192V292.24H665.61V315.024H660.81L654.474 304.88C652.746 302.171 651.391 299.888 650.41 298.032C650.495 300.421 650.538 304.101 650.538 309.072V315.024H646.378V292.24H651.178L657.546 302.384C659.445 305.456 660.789 307.739 661.578 309.232C661.493 306.053 661.45 302.373 661.45 298.192ZM680.259 306.224V302.736H690.435V315.024H687.299L686.691 312.016C685.048 314.363 682.573 315.536 679.267 315.536C675.981 315.536 673.347 314.448 671.363 312.272C669.379 310.096 668.387 307.216 668.387 303.632C668.387 300.048 669.4 297.157 671.427 294.96C673.453 292.805 676.195 291.728 679.651 291.728C682.509 291.728 684.888 292.453 686.787 293.904C688.664 295.355 689.795 297.328 690.179 299.824H685.731C685.411 298.48 684.707 297.424 683.619 296.656C682.552 295.888 681.24 295.504 679.683 295.504C677.592 295.504 675.939 296.229 674.723 297.68C673.507 299.131 672.899 301.115 672.899 303.632C672.899 306.149 673.517 308.133 674.755 309.584C675.992 311.035 677.688 311.76 679.843 311.76C681.549 311.76 683.011 311.248 684.227 310.224C685.443 309.2 686.104 307.867 686.211 306.224H680.259ZM721.618 315.024H717.042L715.25 310H705.266L703.506 315.024H699.058L707.73 292.24H712.786L721.618 315.024ZM707.442 303.856L706.578 306.32H713.938L713.042 303.856C712.295 301.957 711.356 299.355 710.226 296.048C709.33 298.693 708.402 301.296 707.442 303.856ZM732.977 306.224V302.736H743.153V315.024H740.017L739.409 312.016C737.767 314.363 735.292 315.536 731.985 315.536C728.7 315.536 726.065 314.448 724.081 312.272C722.097 310.096 721.105 307.216 721.105 303.632C721.105 300.048 722.119 297.157 724.145 294.96C726.172 292.805 728.913 291.728 732.369 291.728C735.228 291.728 737.607 292.453 739.505 293.904C741.383 295.355 742.513 297.328 742.897 299.824H738.449C738.129 298.48 737.425 297.424 736.337 296.656C735.271 295.888 733.959 295.504 732.401 295.504C730.311 295.504 728.657 296.229 727.441 297.68C726.225 299.131 725.617 301.115 725.617 303.632C725.617 306.149 726.236 308.133 727.473 309.584C728.711 311.035 730.407 311.76 732.561 311.76C734.268 311.76 735.729 311.248 736.945 310.224C738.161 309.2 738.823 307.867 738.929 306.224H732.977ZM750.854 315.024H746.534V292.24H750.854V315.024ZM758.917 292.24V311.152H769.765V315.024H754.597V292.24H758.917ZM788.928 292.24V296.112H776.448V301.488H787.744V305.2H776.448V311.152H788.864V315.024H772.128V292.24H788.928ZM820.871 301.424L823.271 292.24H827.751L821.447 315.024H816.583L814.151 305.552C813.148 301.392 812.53 298.704 812.295 297.488C811.698 300.325 811.079 303.013 810.439 305.552L808.007 315.024H803.175L796.839 292.24H801.351L803.719 301.424C804.828 305.861 805.522 308.752 805.799 310.096C806.482 306.896 807.132 303.995 807.751 301.392L810.087 292.24H814.535L816.871 301.392C817.468 303.824 818.108 306.736 818.791 310.128C819.239 308.144 819.932 305.243 820.871 301.424ZM847.628 312.272C845.538 314.448 842.786 315.536 839.372 315.536C835.959 315.536 833.207 314.448 831.116 312.272C829.026 310.075 827.98 307.195 827.98 303.632C827.98 300.069 829.026 297.189 831.116 294.992C833.207 292.816 835.959 291.728 839.372 291.728C842.786 291.728 845.538 292.816 847.628 294.992C849.698 297.147 850.732 300.027 850.732 303.632C850.732 307.237 849.698 310.117 847.628 312.272ZM832.492 303.632C832.492 306.128 833.122 308.101 834.38 309.552C835.639 311.003 837.303 311.728 839.372 311.728C841.463 311.728 843.138 311.003 844.396 309.552C845.634 308.123 846.252 306.149 846.252 303.632C846.252 301.115 845.634 299.141 844.396 297.712C843.138 296.261 841.463 295.536 839.372 295.536C837.303 295.536 835.639 296.261 834.38 297.712C833.122 299.163 832.492 301.136 832.492 303.632ZM871.359 308.976L871.551 312.368C871.572 313.456 871.807 314.341 872.255 315.024H867.807C867.423 314.384 867.22 313.477 867.199 312.304L867.103 309.808C867.039 308.421 866.719 307.461 866.143 306.928C865.588 306.373 864.692 306.096 863.455 306.096H857.823V315.024H853.503V292.24H863.839C866.378 292.24 868.351 292.816 869.759 293.968C871.167 295.12 871.871 296.688 871.871 298.672C871.871 301.403 870.602 303.216 868.063 304.112C869.215 304.475 870.036 305.051 870.527 305.84C871.039 306.608 871.316 307.653 871.359 308.976ZM857.823 295.792V302.704H863.583C864.799 302.704 865.738 302.405 866.399 301.808C867.082 301.189 867.423 300.304 867.423 299.152C867.423 298.064 867.071 297.232 866.367 296.656C865.684 296.08 864.703 295.792 863.423 295.792H857.823ZM889.76 292.24H895.136L885.76 301.52L895.136 315.024H889.984L882.688 304.4L879.104 307.888V315.024H874.784V292.24H879.104V302.992L889.76 292.24ZM912.943 292.24V296.112H901.167V301.488H911.887V305.2H901.167V315.024H896.847V292.24H912.943ZM933.753 312.272C931.663 314.448 928.911 315.536 925.497 315.536C922.084 315.536 919.332 314.448 917.241 312.272C915.151 310.075 914.105 307.195 914.105 303.632C914.105 300.069 915.151 297.189 917.241 294.992C919.332 292.816 922.084 291.728 925.497 291.728C928.911 291.728 931.663 292.816 933.753 294.992C935.823 297.147 936.857 300.027 936.857 303.632C936.857 307.237 935.823 310.117 933.753 312.272ZM918.617 303.632C918.617 306.128 919.247 308.101 920.505 309.552C921.764 311.003 923.428 311.728 925.497 311.728C927.588 311.728 929.263 311.003 930.521 309.552C931.759 308.123 932.377 306.149 932.377 303.632C932.377 301.115 931.759 299.141 930.521 297.712C929.263 296.261 927.588 295.536 925.497 295.536C923.428 295.536 921.764 296.261 920.505 297.712C919.247 299.163 918.617 301.136 918.617 303.632ZM957.484 308.976L957.676 312.368C957.697 313.456 957.932 314.341 958.38 315.024H953.932C953.548 314.384 953.345 313.477 953.324 312.304L953.228 309.808C953.164 308.421 952.844 307.461 952.268 306.928C951.713 306.373 950.817 306.096 949.58 306.096H943.948V315.024H939.628V292.24H949.964C952.503 292.24 954.476 292.816 955.884 293.968C957.292 295.12 957.996 296.688 957.996 298.672C957.996 301.403 956.727 303.216 954.188 304.112C955.34 304.475 956.161 305.051 956.652 305.84C957.164 306.608 957.441 307.653 957.484 308.976ZM943.948 295.792V302.704H949.708C950.924 302.704 951.863 302.405 952.524 301.808C953.207 301.189 953.548 300.304 953.548 299.152C953.548 298.064 953.196 297.232 952.492 296.656C951.809 296.08 950.828 295.792 949.548 295.792H943.948ZM970.989 315.536C967.704 315.536 965.048 314.459 963.021 312.304C960.973 310.149 959.949 307.259 959.949 303.632C959.949 299.984 960.963 297.083 962.989 294.928C964.995 292.795 967.661 291.728 970.989 291.728C973.656 291.728 975.928 292.443 977.805 293.872C979.683 295.301 980.856 297.371 981.325 300.08H976.941C976.557 298.587 975.843 297.456 974.797 296.688C973.773 295.899 972.504 295.504 970.989 295.504C968.963 295.504 967.363 296.229 966.189 297.68C965.037 299.109 964.461 301.093 964.461 303.632C964.461 306.192 965.037 308.187 966.189 309.616C967.341 311.045 968.941 311.76 970.989 311.76C972.568 311.76 973.923 311.291 975.053 310.352C976.184 309.413 976.867 308.112 977.101 306.448H981.421C981.144 309.349 980.013 311.589 978.029 313.168C976.067 314.747 973.72 315.536 970.989 315.536ZM1000.9 292.24V296.112H988.417V301.488H999.713V305.2H988.417V311.152H1000.83V315.024H984.097V292.24H1000.9Z" fill="#2B2A29"/>
<defs>
<linearGradient id="paint0_linear_214_4357" x1="659.02" y1="0.906738" x2="659.02" y2="147.485" gradientUnits="userSpaceOnUse">
<stop stop-color="#FF9618"/>
<stop offset="1" stop-color="#FD6C3A"/>
</linearGradient>
</defs>
</svg>
