<svg width="712" height="247" viewBox="0 0 712 247" fill="none" xmlns="http://www.w3.org/2000/svg">
<g clip-path="url(#clip0_228_6047)">
<path d="M24.1919 0L17.9296 12.1017L11.5449 0H0V30.9732H11.991V21.3276L17.8684 30.9732L23.7458 21.0596V30.9732H35.7368V0H24.1919Z" fill="#F7038F"/>
<path d="M59.2641 27.9634H51.6374L50.4479 30.9732H39.1829L49.4509 0H61.2057L72.0684 30.9732H60.4535L59.2641 27.9634Z" fill="#F7038F"/>
<path d="M127.204 8.84182H118.161V11.1461H127.204V19.6396H118.161V22.185H127.204V30.9732H106.406V0.0446472H127.204V8.84182Z" fill="#F7038F"/>
<path d="M91.1001 0H102.881V30.9732H91.1001V19.5771H86.6745V30.9732H74.8934V0H86.6745V10.8781H91.1001V0Z" fill="#F7038F"/>
<path d="M167.489 17.3354C168.442 18.7286 168.915 20.238 168.915 21.8634C168.915 24.7661 167.953 27.0078 166.037 28.6065C164.122 30.2051 161.27 31 157.492 31H141.006V0.0267944H157.195C160.886 0.0267944 163.553 0.77701 165.206 2.28637C166.851 3.79574 167.673 5.66235 167.673 7.89513C167.673 10.9674 166.352 13.1288 163.711 14.3791C165.276 14.9597 166.527 15.9421 167.48 17.3354" fill="#F7038F"/>
<path d="M207.686 19.0233V31H182.734V0.0267944H194.655V19.0233H207.686Z" fill="#F7038F"/>
<path d="M233.374 21.14C236.549 19.0412 238.141 15.7545 238.141 11.798C238.141 5.1622 233.68 0.312591 224.715 0.0446567V0.0267944H210.555V31H222.94V21.8188L226.98 31.0089H238.149L233.374 21.1489V21.14Z" fill="#F7038F"/>
<path d="M256.499 18.5857V0.0267944H268V19.1484C268 22.8905 266.837 25.8021 264.51 27.9009C262.149 29.9729 258.799 31.0089 254.443 31.0089C250.088 31.0089 246.721 29.9729 244.412 27.9009C242.05 25.8378 240.878 22.9173 240.878 19.1484V0.0267944H252.379V18.5857C252.379 19.7468 253.298 20.6845 254.435 20.6845C255.572 20.6845 256.49 19.7468 256.49 18.5857" fill="#F7038F"/>
<path d="M170.454 0.0267944V14.4238H175.614L180.783 0.0267944H170.454Z" fill="#F7038F"/>
</g>
<path d="M1.00244 56.4844H20.6477V140.707H75.9621V160.464H30.0817L1.00244 131.22V56.4844Z" fill="#F7038F"/>
<path d="M113.691 76.2409V98.7248H173.916V118.348H113.691V140.7H179.341V160.456H123.125L94.0454 131.212V85.7206L123.125 56.4844H179.341V76.2409H113.691Z" fill="#F7038F"/>
<path d="M265.669 128.36H219.665V160.464H200.019V85.7284L229.091 56.4844H256.227L285.307 85.7284V160.464H265.661V128.36H265.669ZM265.669 108.861V76.2409H219.665V108.861H265.669Z" fill="#F7038F"/>
<path d="M366.079 56.4844L395.158 85.7284V131.22L366.079 160.464H305.985V56.4844H366.079ZM375.513 140.707V76.2409H325.631V140.707H375.513Z" fill="#F7038F"/>
<path d="M610.634 128.391H564.676V160.456H545.054V85.8065L574.095 56.6016H601.2L630.248 85.8143V160.464H610.627V128.399L610.634 128.391ZM610.634 108.916V76.3346H564.676V108.923H610.634V108.916Z" fill="#F7038F"/>
<path d="M650.912 76.2018V56.6016H664.853L690.933 82.6961V140.856H711.332V160.589L650.919 160.456V140.856H671.318V76.2018H650.919H650.912ZM690.801 56.6016H711.324V76.3346H690.801V56.6016Z" fill="#F7038F"/>
<path d="M435.863 160.761H416.296V141.083L501.07 56.6641H520.63V76.3347L435.863 160.761Z" fill="#FF9618"/>
<path d="M501.07 160.761H520.63V141.083L497.977 118.302H478.41V137.972L501.07 160.761Z" fill="#FF9618"/>
<path d="M438.956 99.1156H458.516V79.4451L435.863 56.6641H416.296V76.3347L438.956 99.1156Z" fill="#FF9618"/>
<path d="M5.14444 187.732V204.745H17.5315V198.688H10.8639V193.788H22.676V202.197L15.0603 209.856H7.61564L0 202.197V190.287L7.61564 182.628H21.0207V187.732H5.14444Z" fill="#2B2A29"/>
<path d="M27.7505 182.62H32.8949V204.675H47.3802V209.848H35.3661L27.7505 202.189V182.62Z" fill="#2B2A29"/>
<path d="M52.1205 202.158V190.248L59.7361 182.589H67.1808L74.7964 190.248V202.158L67.1808 209.817H59.7361L52.1205 202.158ZM69.6131 204.643V187.763H57.2649V204.643H69.6131Z" fill="#2B2A29"/>
<path d="M95.9415 182.62L103.557 190.279V191.983L98.7857 196.133L103.557 200.486V202.189L95.9415 209.848H80.2051V182.62H95.9415ZM98.4127 193.585V187.732H85.3495V193.585H98.4127ZM98.4127 204.745V198.618H85.3495V204.745H98.4127Z" fill="#2B2A29"/>
<path d="M125.829 201.447H113.784V209.856H108.639V190.287L116.255 182.628H123.366L130.981 190.287V209.856H125.837V201.447H125.829ZM125.829 196.336V187.794H113.784V196.336H125.829Z" fill="#2B2A29"/>
<path d="M136.39 182.62H141.534V204.675H156.02V209.848H144.006L136.39 202.189V182.62Z" fill="#2B2A29"/>
<path d="M169.215 182.62H174.359V204.675H188.845V209.848H176.83L169.215 202.189V182.62Z" fill="#2B2A29"/>
<path d="M198.729 187.794V193.679H214.497V198.821H198.729V204.675H215.919V209.848H201.2L193.585 202.189V190.279L201.2 182.62H215.919V187.794H198.729Z" fill="#2B2A29"/>
<path d="M238.525 201.447H226.48V209.856H221.335V190.287L228.951 182.628H236.061L243.677 190.287V209.856H238.533V201.447H238.525ZM238.525 196.336V187.794H226.48V196.336H238.525Z" fill="#2B2A29"/>
<path d="M264.822 182.62L272.438 190.279V202.189L264.822 209.848H249.086V182.62H264.822ZM267.293 204.675V187.794H254.23V204.675H267.293Z" fill="#2B2A29"/>
<path d="M282.999 187.794V193.679H298.766V198.821H282.999V204.675H300.188V209.848H285.47L277.854 202.189V190.279L285.47 182.62H300.188V187.794H282.999Z" fill="#2B2A29"/>
<path d="M320.261 182.62L327.877 190.279V193.952L322.802 199.056L327.947 204.128V209.848H322.802V201.642H310.788L310.757 209.848H305.613L305.644 195.687V182.62H320.261ZM322.732 196.477V187.802H310.788V196.477H322.732Z" fill="#2B2A29"/>
<path d="M333.021 190.279L340.637 182.62H355.021V187.794H338.165V193.616H349.099L356.715 201.275V204.409H351.571V198.79H340.637L333.021 191.131V190.279ZM351.563 209.848H334.707V204.675H351.563V209.848Z" fill="#2B2A29"/>
<path d="M366.864 209.848H361.79V198.212L366.864 193.038L379.383 193.007V182.628H384.458V209.856H379.383V198.18L366.864 198.212V209.848ZM361.79 182.62H366.864V193.038H361.79V182.62Z" fill="#2B2A29"/>
<path d="M389.874 187.763V182.62H393.526L400.365 189.459V204.706H405.711V209.879L389.874 209.848V204.706H395.22V187.755H389.874V187.763ZM400.334 182.62H405.711V187.794H400.334V182.62Z" fill="#2B2A29"/>
<path d="M410.794 182.62H425.512L433.128 190.279V193.952L425.512 201.611H415.938V209.848H410.794V182.62ZM427.237 196.438V187.794H415.938V196.438H427.237Z" fill="#2B2A29"/>
<path d="M450.792 187.732V204.745H467.647V209.848H453.263L445.647 202.189V190.279L453.263 182.62H467.647V187.724H450.792V187.732Z" fill="#2B2A29"/>
<path d="M472.387 202.158V190.248L480.003 182.589H487.448L495.063 190.248V202.158L487.448 209.817H480.003L472.387 202.158ZM489.88 204.643V187.763H477.532V204.643H489.88Z" fill="#2B2A29"/>
<path d="M500.48 209.848V187.794H505.694V209.848H500.48ZM505.686 182.62H516.208L523.824 190.279V209.848H518.68V187.794H505.686V182.62Z" fill="#2B2A29"/>
<path d="M533.709 187.732V193.788H546.096V198.727H533.709V209.856H528.564V190.287L536.18 182.628H547.518V187.732H533.709Z" fill="#2B2A29"/>
<path d="M556.727 187.794V193.679H572.494V198.821H556.727V204.675H573.916V209.848H559.198L551.582 202.189V190.279L559.198 182.62H573.916V187.794H556.727Z" fill="#2B2A29"/>
<path d="M593.989 182.62L601.604 190.279V193.952L596.53 199.056L601.674 204.128V209.848H596.53V201.642H584.516L584.485 209.848H579.34L579.371 195.687V182.62H593.989ZM596.46 196.477V187.802H584.516V196.477H596.46Z" fill="#2B2A29"/>
<path d="M612.227 187.794V193.679H627.995V198.821H612.227V204.675H629.417V209.848H614.699L607.083 202.189V190.279L614.699 182.62H629.417V187.794H612.227Z" fill="#2B2A29"/>
<path d="M634.833 209.848V187.794H640.048V209.848H634.833ZM640.048 182.62H650.57L658.186 190.279V209.848H653.041V187.794H640.048V182.62Z" fill="#2B2A29"/>
<path d="M668.07 187.732V204.745H684.926V209.848H670.542L662.926 202.189V190.279L670.542 182.62H684.926V187.724H668.07V187.732Z" fill="#2B2A29"/>
<path d="M694.803 187.794V193.679H710.57V198.821H694.803V204.675H711.993V209.848H697.274L689.658 202.189V190.279L697.274 182.62H711.993V187.794H694.803Z" fill="#2B2A29"/>
<path d="M711.448 234.559H589V239.592H711.448V234.559Z" fill="url(#paint0_linear_228_6047)"/>
<path d="M9.20871 239.779V237.27H16.6845V246.125H14.3765L13.9335 243.96C12.729 245.648 10.9106 246.5 8.47823 246.5C6.04589 246.5 4.12644 245.718 2.66548 244.148C1.20452 242.577 0.481812 240.506 0.481812 237.927C0.481812 235.348 1.22783 233.261 2.71988 231.682C4.21192 230.127 6.22463 229.354 8.76576 229.354C10.8639 229.354 12.6124 229.877 14.0112 230.924C15.3945 231.972 16.2182 233.394 16.5057 235.191H13.2341C13.001 234.222 12.4881 233.464 11.6955 232.909C10.9028 232.355 9.93142 232.081 8.78908 232.081C7.25041 232.081 6.03812 232.605 5.14445 233.652C4.25078 234.699 3.80783 236.129 3.80783 237.942C3.80783 239.755 4.25855 241.186 5.16776 242.233C6.07698 243.28 7.32034 243.804 8.90564 243.804C10.1568 243.804 11.237 243.436 12.1306 242.694C13.0243 241.959 13.5139 240.998 13.5916 239.81H9.21648L9.20871 239.779Z" fill="#2B2A29"/>
<path d="M26.5926 246.484C24.1758 246.484 22.2252 245.711 20.7332 244.156C19.2256 242.6 18.4718 240.522 18.4718 237.911C18.4718 235.301 19.2178 233.191 20.7099 231.644C22.1864 230.104 24.1447 229.338 26.5926 229.338C28.5509 229.338 30.2216 229.854 31.6049 230.886C32.9881 231.917 33.843 233.41 34.1927 235.356H30.9677C30.6879 234.277 30.1672 233.465 29.4057 232.902C28.6441 232.339 27.7116 232.058 26.5926 232.058C25.1005 232.058 23.9349 232.574 23.08 233.613C22.2252 234.652 21.7978 236.083 21.7978 237.911C21.7978 239.74 22.2175 241.194 23.0645 242.225C23.9115 243.257 25.085 243.773 26.5926 243.773C27.7504 243.773 28.7451 243.437 29.5766 242.757C30.4082 242.077 30.9055 241.139 31.0842 239.943H34.2626C34.0605 242.03 33.229 243.648 31.7681 244.789C30.3227 245.93 28.5975 246.492 26.5926 246.492V246.484Z" fill="#2B2A29"/>
<path d="M43.6422 246.484C41.2254 246.484 39.2749 245.711 37.7829 244.156C36.2753 242.6 35.5215 240.522 35.5215 237.911C35.5215 235.301 36.2675 233.191 37.7596 231.644C39.2361 230.104 41.1944 229.338 43.6422 229.338C45.6006 229.338 47.2713 229.854 48.6546 230.886C50.0378 231.917 50.8926 233.41 51.2423 235.356H48.0174C47.7376 234.277 47.2169 233.465 46.4554 232.902C45.6938 232.339 44.7613 232.058 43.6422 232.058C42.1502 232.058 40.9845 232.574 40.1297 233.613C39.2749 234.652 38.8475 236.083 38.8475 237.911C38.8475 239.74 39.2671 241.194 40.1142 242.225C40.9612 243.257 42.1347 243.773 43.6422 243.773C44.8001 243.773 45.7948 243.437 46.6263 242.757C47.4578 242.077 47.9552 241.139 48.1339 239.943H51.3123C51.1102 242.03 50.2787 243.648 48.8178 244.789C47.3724 245.93 45.6472 246.492 43.6422 246.492V246.484Z" fill="#2B2A29"/>
<path d="M67.8957 237.356C68.7738 237.724 69.4654 238.263 69.9783 238.958C70.4912 239.654 70.7399 240.475 70.7399 241.412C70.7399 242.936 70.1726 244.156 69.0458 245.078C67.9035 246.016 66.3726 246.484 64.4609 246.484C62.3316 246.484 60.6997 245.976 59.5806 244.953C58.4616 243.929 57.9021 242.507 57.9021 240.678H60.9794C61.0261 242.796 62.1529 243.859 64.3676 243.859C65.3235 243.859 66.0773 243.624 66.629 243.163C67.1807 242.702 67.4527 242.077 67.4527 241.295C67.4527 240.451 67.173 239.795 66.6057 239.334C66.0384 238.873 65.2535 238.646 64.2511 238.646H63.0077V236.364H64.2277C66.186 236.364 67.1652 235.606 67.1652 234.082C67.1652 233.394 66.9165 232.847 66.4114 232.456C65.9063 232.066 65.2224 231.87 64.3443 231.87C62.4482 231.87 61.4535 232.738 61.3602 234.473H58.3062C58.3373 232.831 58.8735 231.558 59.9148 230.667C60.9561 229.776 62.4404 229.33 64.3754 229.33C66.1783 229.33 67.6082 229.737 68.665 230.542C69.7219 231.347 70.2503 232.441 70.2503 233.824C70.2503 235.395 69.4654 236.567 67.8957 237.349V237.356Z" fill="#2B2A29"/>
<path d="M75.558 246.117H72.0999V242.819H75.558V246.117Z" fill="#2B2A29"/>
<path d="M100.146 243.5H96.6877V240.202H100.146V243.5Z" fill="#2B2A29"/>
<path d="M100.146 236.576H96.6877V233.278H100.146V236.576Z" fill="#2B2A29"/>
<path d="M88.3802 244.273C87.2378 245.75 85.567 246.484 83.3678 246.484C81.1686 246.484 79.5056 245.75 78.371 244.273C77.2365 242.796 76.6692 240.678 76.6692 237.911C76.6692 235.145 77.2365 233.027 78.371 231.55C79.5056 230.073 81.1764 229.338 83.3678 229.338C85.5593 229.338 87.2301 230.073 88.3802 231.55C89.5225 233.027 90.0976 235.145 90.0976 237.911C90.0976 240.678 89.5225 242.796 88.3802 244.273ZM83.3678 243.859C85.637 243.859 86.7793 241.874 86.7793 237.911C86.7793 233.949 85.6448 231.964 83.3678 231.964C81.0909 231.964 79.9797 233.949 79.9797 237.911C79.9797 241.874 81.1065 243.859 83.3678 243.859Z" fill="#2B2A29"/>
<path d="M121.536 241.756L121.676 244.202C121.691 244.984 121.862 245.625 122.196 246.117H118.925C118.645 245.656 118.497 244.999 118.474 244.155L118.404 242.358C118.357 241.358 118.124 240.662 117.712 240.271C117.293 239.881 116.632 239.685 115.723 239.685H111.581V246.117H108.403V229.705H116.003C117.868 229.705 119.321 230.12 120.354 230.948C121.388 231.776 121.909 232.91 121.909 234.34C121.909 236.309 120.976 237.614 119.111 238.255C119.958 238.513 120.564 238.927 120.937 239.49C121.303 240.053 121.505 240.811 121.536 241.764V241.756ZM111.589 232.261V237.239H115.824C116.718 237.239 117.409 237.02 117.907 236.583C118.404 236.145 118.645 235.512 118.645 234.684C118.645 233.902 118.388 233.3 117.883 232.886C117.37 232.472 116.648 232.261 115.707 232.261H111.589Z" fill="#2B2A29"/>
<path d="M136.495 229.705V232.495H127.325V236.372H135.625V239.044H127.325V243.335H136.448V246.125H124.147V229.713H136.495V229.705Z" fill="#2B2A29"/>
<path d="M141.624 246.117H138.445V229.705H141.624V246.117Z" fill="#2B2A29"/>
<path d="M154.796 237.521L157.593 229.705H162.202V246.117H159.171V241.115C159.171 238.044 159.202 235.332 159.264 232.98C158.922 234.137 158.495 235.395 157.997 236.762L154.609 246.125H151.998L148.587 236.762C147.988 235.059 147.576 233.808 147.343 233.027C147.406 235.364 147.437 238.06 147.437 241.115V246.117H144.383V229.705H148.991L151.882 237.685C152.068 238.224 152.55 239.709 153.319 242.131C153.824 240.428 154.314 238.888 154.804 237.521H154.796Z" fill="#2B2A29"/>
<path d="M180.005 246.117H176.64L175.319 242.499H167.983L166.685 246.117H163.414L169.786 229.705H173.501L179.989 246.117H180.005ZM169.584 238.068L168.947 239.842H174.355L173.695 238.068C173.143 236.7 172.459 234.824 171.628 232.441C170.967 234.348 170.291 236.223 169.584 238.068Z" fill="#2B2A29"/>
<path d="M188.359 239.779V237.27H195.835V246.125H193.527L193.084 243.96C191.879 245.648 190.061 246.5 187.628 246.5C185.196 246.5 183.277 245.719 181.816 244.148C180.355 242.577 179.632 240.506 179.632 237.927C179.632 235.348 180.378 233.261 181.87 231.683C183.362 230.127 185.375 229.354 187.916 229.354C190.014 229.354 191.763 229.877 193.161 230.925C194.545 231.972 195.368 233.394 195.656 235.192H192.384C192.151 234.223 191.638 233.464 190.846 232.91C190.053 232.355 189.082 232.081 187.939 232.081C186.401 232.081 185.188 232.605 184.295 233.652C183.401 234.699 182.958 236.129 182.958 237.943C182.958 239.756 183.409 241.186 184.318 242.233C185.227 243.28 186.471 243.804 188.056 243.804C189.307 243.804 190.387 243.437 191.281 242.694C192.175 241.959 192.664 240.998 192.742 239.81H188.367L188.359 239.779Z" fill="#2B2A29"/>
<path d="M201.5 246.117H198.321V229.705H201.5V246.117Z" fill="#2B2A29"/>
<path d="M215.332 233.988V229.698H218.386V246.109H214.858L210.203 238.802C208.937 236.848 207.934 235.207 207.219 233.871C207.281 235.59 207.313 238.247 207.313 241.827V246.117H204.259V229.705H207.787L212.465 237.013C213.864 239.224 214.85 240.873 215.426 241.944C215.363 239.654 215.332 237.005 215.332 233.988Z" fill="#2B2A29"/>
<path d="M224.315 246.117H221.137V229.705H224.315V246.117Z" fill="#2B2A29"/>
<path d="M238.148 233.988V229.698H241.202V246.109H237.674L233.019 238.802C231.752 236.848 230.75 235.207 230.035 233.871C230.097 235.59 230.128 238.247 230.128 241.827V246.117H227.074V229.705H230.602L235.28 237.013C236.679 239.224 237.666 240.873 238.241 241.944C238.179 239.654 238.148 237.005 238.148 233.988Z" fill="#2B2A29"/>
<path d="M251.973 239.779V237.27H259.449V246.125H257.141L256.698 243.96C255.493 245.648 253.675 246.5 251.242 246.5C248.81 246.5 246.89 245.719 245.43 244.148C243.969 242.577 243.246 240.506 243.246 237.927C243.246 235.348 243.992 233.261 245.484 231.683C246.976 230.127 248.989 229.354 251.53 229.354C253.628 229.354 255.376 229.877 256.775 230.925C258.159 231.972 258.982 233.394 259.27 235.192H255.998C255.765 234.223 255.252 233.464 254.46 232.91C253.667 232.355 252.695 232.081 251.553 232.081C250.014 232.081 248.802 232.605 247.908 233.652C247.015 234.699 246.572 236.129 246.572 237.943C246.572 239.756 247.023 241.186 247.932 242.233C248.841 243.28 250.084 243.804 251.67 243.804C252.921 243.804 254.001 243.437 254.895 242.694C255.788 241.959 256.278 240.998 256.356 239.81H251.981L251.973 239.779Z" fill="#2B2A29"/>
<path d="M275.053 239.779V237.27H282.529V246.125H280.221L279.778 243.96C278.573 245.648 276.755 246.5 274.322 246.5C271.89 246.5 269.971 245.719 268.51 244.148C267.049 242.577 266.326 240.506 266.326 237.927C266.326 235.348 267.072 233.261 268.564 231.683C270.056 230.127 272.069 229.354 274.61 229.354C276.708 229.354 278.457 229.877 279.855 230.925C281.239 231.972 282.062 233.394 282.35 235.192H279.078C278.845 234.223 278.332 233.464 277.54 232.91C276.747 232.355 275.776 232.081 274.633 232.081C273.095 232.081 271.882 232.605 270.989 233.652C270.095 234.699 269.652 236.129 269.652 237.943C269.652 239.756 270.103 241.186 271.012 242.233C271.921 243.28 273.164 243.804 274.75 243.804C276.001 243.804 277.081 243.437 277.975 242.694C278.868 241.959 279.358 240.998 279.436 239.81H275.061L275.053 239.779Z" fill="#2B2A29"/>
<path d="M288.202 229.705V243.327H296.175V246.117H285.023V229.705H288.202Z" fill="#2B2A29"/>
<path d="M304.264 246.484C301.754 246.484 299.734 245.703 298.195 244.132C296.656 242.546 295.887 240.475 295.887 237.911C295.887 235.348 296.656 233.269 298.195 231.69C299.734 230.12 301.754 229.338 304.264 229.338C306.774 229.338 308.795 230.12 310.333 231.69C311.856 233.246 312.618 235.317 312.618 237.911C312.618 240.506 311.856 242.585 310.333 244.132C308.795 245.703 306.774 246.484 304.264 246.484ZM299.205 237.911C299.205 239.709 299.664 241.131 300.596 242.178C301.521 243.226 302.741 243.749 304.264 243.749C305.787 243.749 307.031 243.226 307.955 242.178C308.865 241.147 309.323 239.724 309.323 237.911C309.323 236.098 308.865 234.676 307.955 233.644C307.031 232.597 305.803 232.073 304.264 232.073C302.725 232.073 301.521 232.597 300.596 233.644C299.671 234.691 299.205 236.114 299.205 237.911Z" fill="#2B2A29"/>
<path d="M325.402 237.474C326.326 237.794 327.041 238.31 327.554 239.021C328.067 239.732 328.316 240.529 328.316 241.42C328.316 242.913 327.818 244.07 326.824 244.89C325.829 245.711 324.384 246.125 322.488 246.125H314.654V229.713H322.231C323.987 229.713 325.332 230.104 326.256 230.886C327.181 231.667 327.648 232.691 327.648 233.949C327.648 235.559 326.901 236.739 325.409 237.474H325.402ZM321.998 232.261H317.833V236.551H321.998C322.798 236.551 323.412 236.356 323.847 235.965C324.275 235.575 324.492 235.035 324.492 234.34C324.492 233.691 324.275 233.191 323.832 232.816C323.389 232.449 322.783 232.261 321.998 232.261ZM317.833 243.53H322.324C323.218 243.53 323.902 243.335 324.368 242.944C324.834 242.553 325.075 241.999 325.075 241.272C325.075 239.748 324.158 238.99 322.324 238.99H317.833V243.53Z" fill="#2B2A29"/>
<path d="M345.024 246.117H341.659L340.338 242.499H333.002L331.704 246.117H328.432L334.805 229.705H338.519L345.008 246.117H345.024ZM334.603 238.068L333.965 239.842H339.374L338.713 238.068C338.162 236.7 337.478 234.824 336.646 232.441C335.986 234.348 335.31 236.223 334.603 238.068Z" fill="#2B2A29"/>
<path d="M349.422 229.705V243.327H357.395V246.117H346.244V229.705H349.422Z" fill="#2B2A29"/>
<path d="M372.587 238.185L375.548 229.698H378.843L372.844 246.109H369.129L362.99 229.698H366.378L369.409 238.185C370.116 240.271 370.645 241.983 371.01 243.304C371.422 241.78 371.942 240.076 372.587 238.185Z" fill="#2B2A29"/>
<path d="M393.025 246.117H389.66L388.339 242.499H381.003L379.706 246.117H376.434L382.806 229.705H386.521L393.01 246.117H393.025ZM382.604 238.068L381.967 239.842H387.376L386.715 238.068C386.163 236.7 385.48 234.824 384.648 232.441C383.988 234.348 383.311 236.223 382.604 238.068Z" fill="#2B2A29"/>
<path d="M397.424 229.705V243.327H405.397V246.117H394.245V229.705H397.424Z" fill="#2B2A29"/>
<path d="M413.347 246.461C411.171 246.461 409.453 245.89 408.21 244.742C406.967 243.601 406.337 241.999 406.337 239.935V229.698H409.516V239.959C409.516 241.201 409.842 242.147 410.502 242.796C411.163 243.444 412.111 243.765 413.347 243.765C414.582 243.765 415.538 243.444 416.191 242.796C416.851 242.147 417.178 241.201 417.178 239.959V229.698H420.356V239.935C420.356 242.022 419.734 243.64 418.499 244.765C417.263 245.898 415.546 246.461 413.347 246.461Z" fill="#2B2A29"/>
<path d="M435.199 229.705V232.495H426.029V236.372H434.329V239.044H426.029V243.335H435.152V246.125H422.851V229.713H435.199V229.705Z" fill="#2B2A29"/>
<path d="M454.059 229.705V232.495H445.403V236.372H453.282V239.044H445.403V246.125H442.224V229.713H454.052L454.059 229.705Z" fill="#2B2A29"/>
<path d="M468.902 241.756L469.042 244.202C469.058 244.984 469.229 245.625 469.563 246.117H466.291C466.011 245.656 465.864 245 465.84 244.156L465.77 242.358C465.724 241.358 465.491 240.662 465.079 240.271C464.659 239.881 463.999 239.685 463.089 239.685H458.947V246.117H455.769V229.705H463.369C465.234 229.705 466.687 230.12 467.721 230.948C468.754 231.776 469.275 232.91 469.275 234.34C469.275 236.309 468.343 237.614 466.478 238.255C467.325 238.513 467.931 238.927 468.304 239.49C468.669 240.053 468.871 240.811 468.902 241.764V241.756ZM458.947 232.261V237.239H463.183C464.076 237.239 464.768 237.02 465.265 236.583C465.763 236.145 466.004 235.512 466.004 234.684C466.004 233.902 465.747 233.3 465.242 232.886C464.729 232.472 464.006 232.261 463.066 232.261H458.947Z" fill="#2B2A29"/>
<path d="M479.082 246.484C476.572 246.484 474.552 245.703 473.013 244.132C471.474 242.546 470.705 240.475 470.705 237.911C470.705 235.348 471.474 233.269 473.013 231.69C474.552 230.12 476.572 229.338 479.082 229.338C481.592 229.338 483.613 230.12 485.151 231.69C486.675 233.246 487.436 235.317 487.436 237.911C487.436 240.506 486.675 242.585 485.151 244.132C483.613 245.703 481.592 246.484 479.082 246.484ZM474.023 237.911C474.023 239.709 474.482 241.131 475.414 242.178C476.339 243.226 477.559 243.749 479.082 243.749C480.605 243.749 481.849 243.226 482.774 242.178C483.683 241.147 484.141 239.724 484.141 237.911C484.141 236.098 483.683 234.676 482.774 233.644C481.849 232.597 480.621 232.073 479.082 232.073C477.544 232.073 476.339 232.597 475.414 233.644C474.49 234.691 474.023 236.114 474.023 237.911Z" fill="#2B2A29"/>
<path d="M499.901 237.521L502.698 229.705H507.307V246.117H504.276V241.115C504.276 238.044 504.307 235.332 504.369 232.98C504.027 234.137 503.6 235.395 503.102 236.762L499.714 246.125H497.103L493.692 236.762C493.093 235.059 492.681 233.808 492.448 233.027C492.51 235.364 492.542 238.06 492.542 241.115V246.117H489.488V229.705H494.096L496.987 237.685C497.173 238.224 497.655 239.709 498.424 242.131C498.929 240.428 499.419 238.888 499.909 237.521H499.901Z" fill="#2B2A29"/>
<path d="M518.318 246.117H515.14V229.705H518.318V246.117Z" fill="#2B2A29"/>
<path d="M532.143 233.988V229.698H535.197V246.109H531.669L527.014 238.802C525.747 236.848 524.745 235.207 524.03 233.871C524.092 235.59 524.123 238.247 524.123 241.827V246.117H521.069V229.705H524.597L529.275 237.013C530.674 239.224 531.661 240.873 532.236 241.944C532.174 239.654 532.143 237.005 532.143 233.988Z" fill="#2B2A29"/>
<path d="M537.956 229.705H544.351C547.032 229.705 549.1 230.432 550.56 231.894C552.021 233.371 552.744 235.371 552.744 237.911C552.744 240.451 552.014 242.444 550.56 243.905C549.1 245.382 547.032 246.117 544.351 246.117H537.956V229.705ZM541.126 243.444H544.305C545.952 243.444 547.219 242.975 548.113 242.03C549.006 241.084 549.457 239.717 549.457 237.911C549.457 236.106 549.006 234.738 548.113 233.801C547.219 232.855 545.952 232.386 544.305 232.386H541.126V243.452V243.444Z" fill="#2B2A29"/>
<path d="M557.966 246.117H554.788V229.705H557.966V246.117Z" fill="#2B2A29"/>
<path d="M575.778 246.117H572.413L571.092 242.499H563.756L562.458 246.117H559.186L565.559 229.705H569.273L575.762 246.117H575.778ZM565.357 238.068L564.719 239.842H570.128L569.467 238.068C568.916 236.7 568.232 234.824 567.4 232.441C566.74 234.348 566.064 236.223 565.357 238.068Z" fill="#2B2A29"/>
<defs>
<linearGradient id="paint0_linear_228_6047" x1="589" y1="237.075" x2="711.455" y2="237.075" gradientUnits="userSpaceOnUse">
<stop stop-color="#FF9618"/>
<stop offset="1" stop-color="#F7038F"/>
</linearGradient>
<clipPath id="clip0_228_6047">
<rect width="268" height="31" fill="white"/>
</clipPath>
</defs>
</svg>
