<svg width="1124" height="256" viewBox="0 0 1124 256" fill="none" xmlns="http://www.w3.org/2000/svg">
<path d="M361.946 255.112L379.179 217.058H384.561L401.848 255.112H396.14L380.755 220.102H382.93L367.545 255.112H361.946ZM369.285 245.599L370.753 241.25H392.172L393.748 245.599H369.285Z" fill="#2B2A29"/>
<path d="M414.26 255.112L401.539 217.058H407.139L418.827 252.177H416L428.123 217.058H433.124L444.975 252.177H442.257L454.108 217.058H459.273L446.552 255.112H440.844L429.754 222.549H431.221L420.077 255.112H414.26Z" fill="#2B2A29"/>
<path d="M458.939 255.112L476.173 217.058H481.555L498.842 255.112H493.134L477.749 220.102H479.924L464.539 255.112H458.939ZM466.279 245.599L467.746 241.25H489.165L490.742 245.599H466.279Z" fill="#2B2A29"/>
<path d="M504.519 255.112V217.058H519.36C524.289 217.058 528.167 218.236 530.994 220.592C533.82 222.911 535.234 226.155 535.234 230.323C535.234 233.077 534.6 235.451 533.331 237.444C532.063 239.401 530.251 240.905 527.895 241.956C525.539 243.007 522.694 243.533 519.36 243.533H507.509L509.955 241.032V255.112H504.519ZM529.961 255.112L520.284 241.304H526.101L535.886 255.112H529.961ZM509.955 241.576L507.509 238.912H519.197C522.676 238.912 525.304 238.169 527.079 236.683C528.892 235.161 529.798 233.041 529.798 230.323C529.798 227.604 528.892 225.502 527.079 224.016C525.304 222.531 522.676 221.788 519.197 221.788H507.509L509.955 219.069V241.576Z" fill="#2B2A29"/>
<path d="M544.017 255.112V217.058H560.054C564.113 217.058 567.683 217.855 570.764 219.45C573.88 221.045 576.291 223.273 577.994 226.137C579.734 229 580.603 232.316 580.603 236.085C580.603 239.854 579.734 243.17 577.994 246.034C576.291 248.897 573.88 251.126 570.764 252.72C567.683 254.315 564.113 255.112 560.054 255.112H544.017ZM549.453 250.383H559.728C562.881 250.383 565.599 249.785 567.882 248.589C570.202 247.393 571.996 245.725 573.264 243.587C574.533 241.413 575.167 238.912 575.167 236.085C575.167 233.222 574.533 230.721 573.264 228.583C571.996 226.445 570.202 224.778 567.882 223.582C565.599 222.386 562.881 221.788 559.728 221.788H549.453V250.383Z" fill="#2B2A29"/>
<path d="M600.02 255.547C597.121 255.547 594.349 255.112 591.703 254.242C589.057 253.336 586.973 252.177 585.451 250.763L587.463 246.523C588.912 247.791 590.761 248.842 593.008 249.676C595.255 250.509 597.592 250.926 600.02 250.926C602.231 250.926 604.025 250.673 605.402 250.165C606.78 249.658 607.794 248.969 608.447 248.099C609.099 247.193 609.425 246.178 609.425 245.055C609.425 243.75 608.99 242.699 608.121 241.902C607.287 241.105 606.182 240.47 604.804 239.999C603.463 239.492 601.977 239.057 600.347 238.694C598.716 238.332 597.067 237.915 595.4 237.444C593.769 236.937 592.265 236.303 590.887 235.541C589.546 234.78 588.459 233.766 587.626 232.497C586.792 231.192 586.375 229.525 586.375 227.496C586.375 225.539 586.883 223.745 587.897 222.114C588.948 220.447 590.543 219.124 592.681 218.145C594.856 217.13 597.61 216.623 600.945 216.623C603.155 216.623 605.348 216.913 607.523 217.493C609.697 218.073 611.582 218.906 613.176 219.994L611.382 224.343C609.751 223.255 608.03 222.476 606.218 222.005C604.406 221.498 602.648 221.244 600.945 221.244C598.806 221.244 597.049 221.516 595.671 222.059C594.294 222.603 593.279 223.328 592.627 224.234C592.011 225.14 591.703 226.155 591.703 227.278C591.703 228.619 592.12 229.688 592.953 230.486C593.823 231.283 594.928 231.917 596.269 232.388C597.647 232.86 599.151 233.294 600.781 233.693C602.412 234.056 604.043 234.472 605.674 234.943C607.341 235.415 608.845 236.031 610.186 236.792C611.564 237.553 612.669 238.568 613.502 239.836C614.336 241.105 614.753 242.735 614.753 244.729C614.753 246.65 614.227 248.444 613.176 250.111C612.125 251.742 610.494 253.064 608.284 254.079C606.109 255.058 603.355 255.547 600.02 255.547Z" fill="#2B2A29"/>
<path d="M633.598 255.112V251.415L649.091 236.466C650.468 235.161 651.483 234.019 652.136 233.041C652.824 232.026 653.277 231.102 653.495 230.268C653.748 229.398 653.875 228.565 653.875 227.767C653.875 225.81 653.187 224.27 651.809 223.147C650.432 222.023 648.421 221.461 645.775 221.461C643.746 221.461 641.915 221.806 640.284 222.494C638.653 223.147 637.24 224.18 636.044 225.593L632.347 222.386C633.797 220.537 635.736 219.124 638.164 218.145C640.629 217.13 643.329 216.623 646.264 216.623C648.91 216.623 651.211 217.058 653.168 217.928C655.126 218.761 656.63 219.975 657.681 221.57C658.768 223.165 659.312 225.049 659.312 227.224C659.312 228.456 659.148 229.67 658.822 230.866C658.496 232.062 657.88 233.331 656.974 234.672C656.068 236.013 654.763 237.517 653.06 239.184L639.252 252.503L637.947 250.383H660.942V255.112H633.598Z" fill="#2B2A29"/>
<path d="M680.907 255.547C677.935 255.547 675.271 254.786 672.915 253.264C670.596 251.742 668.748 249.531 667.37 246.632C666.029 243.732 665.359 240.217 665.359 236.085C665.359 231.953 666.029 228.438 667.37 225.539C668.748 222.639 670.596 220.428 672.915 218.906C675.271 217.384 677.935 216.623 680.907 216.623C683.842 216.623 686.488 217.384 688.844 218.906C691.2 220.428 693.048 222.639 694.389 225.539C695.73 228.438 696.4 231.953 696.4 236.085C696.4 240.217 695.73 243.732 694.389 246.632C693.048 249.531 691.2 251.742 688.844 253.264C686.488 254.786 683.842 255.547 680.907 255.547ZM680.907 250.709C682.9 250.709 684.64 250.165 686.126 249.078C687.648 247.991 688.826 246.36 689.659 244.185C690.529 242.011 690.964 239.311 690.964 236.085C690.964 232.86 690.529 230.159 689.659 227.985C688.826 225.81 687.648 224.18 686.126 223.092C684.64 222.005 682.9 221.461 680.907 221.461C678.914 221.461 677.156 222.005 675.634 223.092C674.111 224.18 672.915 225.81 672.046 227.985C671.212 230.159 670.795 232.86 670.795 236.085C670.795 239.311 671.212 242.011 672.046 244.185C672.915 246.36 674.111 247.991 675.634 249.078C677.156 250.165 678.914 250.709 680.907 250.709Z" fill="#2B2A29"/>
<path d="M701.021 255.112V251.415L716.514 236.466C717.892 235.161 718.906 234.019 719.559 233.041C720.247 232.026 720.7 231.102 720.918 230.268C721.171 229.398 721.298 228.565 721.298 227.767C721.298 225.81 720.61 224.27 719.232 223.147C717.855 222.023 715.844 221.461 713.198 221.461C711.169 221.461 709.338 221.806 707.707 222.494C706.077 223.147 704.663 224.18 703.467 225.593L699.77 222.386C701.22 220.537 703.159 219.124 705.587 218.145C708.052 217.13 710.752 216.623 713.687 216.623C716.333 216.623 718.634 217.058 720.592 217.928C722.549 218.761 724.053 219.975 725.104 221.57C726.191 223.165 726.735 225.049 726.735 227.224C726.735 228.456 726.571 229.67 726.245 230.866C725.919 232.062 725.303 233.331 724.397 234.672C723.491 236.013 722.186 237.517 720.483 239.184L706.675 252.503L705.37 250.383H728.365V255.112H701.021Z" fill="#2B2A29"/>
<path d="M745.121 255.547C742.439 255.547 739.83 255.13 737.293 254.297C734.792 253.463 732.745 252.34 731.15 250.926L733.651 246.632C734.919 247.828 736.568 248.806 738.598 249.567C740.627 250.328 742.784 250.709 745.067 250.709C747.966 250.709 750.195 250.093 751.754 248.86C753.312 247.628 754.091 245.979 754.091 243.913C754.091 242.5 753.747 241.268 753.058 240.217C752.37 239.166 751.174 238.368 749.47 237.825C747.803 237.245 745.502 236.955 742.566 236.955H733.922L735.934 217.058H757.407V221.788H737.945L740.772 219.124L739.196 234.835L736.369 232.225H743.708C747.513 232.225 750.576 232.715 752.895 233.693C755.215 234.672 756.9 236.031 757.951 237.77C759.002 239.474 759.527 241.449 759.527 243.696C759.527 245.87 759.002 247.864 757.951 249.676C756.9 251.452 755.305 252.883 753.167 253.971C751.065 255.022 748.383 255.547 745.121 255.547Z" fill="#2B2A29"/>
<path d="M46.5075 174.417C39.8541 174.417 33.748 173.349 28.1802 171.216C22.6078 169.084 17.7636 166.043 13.6386 162.096C9.50912 158.15 6.30682 153.517 4.02269 148.203C1.73856 142.883 0.594238 137.046 0.594238 130.681C0.594238 124.316 1.73856 118.478 4.01817 113.163C6.3023 107.849 9.52721 103.216 13.6929 99.2696C17.8586 95.3234 22.748 92.2818 28.3566 90.1496C33.9651 88.0127 40.139 86.9443 46.8693 86.9443C54.3187 86.9443 61.0309 88.1946 67.0013 90.6906C72.9717 93.1865 78.0013 96.8146 82.0856 101.566L69.5839 113.163C66.5354 109.945 63.211 107.544 59.6061 105.976C56.0013 104.407 52.0753 103.621 47.8282 103.621C43.5811 103.621 40.0169 104.266 36.6518 105.553C33.2867 106.844 30.3829 108.694 27.9359 111.108C25.489 113.523 23.6074 116.387 22.2867 119.688C20.9659 122.993 20.3056 126.657 20.3056 130.681C20.3056 134.704 20.9659 138.251 22.2867 141.556C23.6074 144.861 25.489 147.739 27.9359 150.194C30.3784 152.654 33.264 154.522 36.5885 155.813C39.9129 157.104 43.5765 157.745 47.5885 157.745C51.6004 157.745 55.1781 157.123 58.8282 155.872C62.4737 154.627 66.0198 152.513 69.4663 149.53L80.5206 163.665C75.9524 167.129 70.6468 169.789 64.595 171.639C58.5432 173.49 52.5186 174.417 46.5075 174.417ZM80.5206 163.665L62.7316 161.128V129.353H80.5206V163.665Z" fill="#2B2A29"/>
<path d="M138.818 174.416C132.327 174.416 126.298 173.348 120.73 171.216C115.158 169.083 110.332 166.042 106.248 162.095C102.159 158.149 98.9747 153.516 96.6905 148.202C94.4064 142.887 93.2666 137.049 93.2666 130.684C93.2666 124.319 94.4109 118.482 96.6905 113.167C98.9747 107.852 102.177 103.219 106.306 99.2732C110.431 95.3269 115.262 92.2854 120.789 90.1531C126.316 88.0118 132.364 86.9434 138.936 86.9434C146.227 86.9434 152.817 88.2118 158.706 90.7487C164.595 93.2856 169.543 97.0136 173.55 101.924L161.049 113.522C158.163 110.221 154.961 107.743 151.433 106.093C147.905 104.442 144.06 103.615 139.894 103.615C135.968 103.615 132.359 104.261 129.075 105.547C125.787 106.838 122.947 108.689 120.54 111.103C118.139 113.517 116.275 116.381 114.95 119.682C113.629 122.987 112.969 126.652 112.969 130.675C112.969 134.699 113.629 138.368 114.95 141.668C116.271 144.974 118.134 147.829 120.54 150.247C122.947 152.666 125.787 154.517 129.075 155.803C132.359 157.094 135.964 157.735 139.894 157.735C144.06 157.735 147.905 156.913 151.433 155.258C154.956 153.607 158.163 151.089 161.049 147.706L173.55 159.304C169.543 164.219 164.595 167.965 158.706 170.538C152.817 173.116 146.186 174.403 138.813 174.403L138.818 174.416Z" fill="#2B2A29"/>
<path d="M225.837 174.416C219.346 174.416 213.317 173.348 207.749 171.216C202.177 169.083 197.351 166.042 193.266 162.095C189.177 158.149 185.993 153.516 183.709 148.202C181.425 142.887 180.285 137.049 180.285 130.684C180.285 124.319 181.429 118.482 183.709 113.167C185.993 107.852 189.196 103.219 193.325 99.2732C197.45 95.3269 202.281 92.2854 207.808 90.1531C213.335 88.0118 219.382 86.9434 225.954 86.9434C233.245 86.9434 239.835 88.2118 245.724 90.7487C251.613 93.2856 256.561 97.0136 260.569 101.924L248.067 113.522C245.182 110.221 241.979 107.743 238.451 106.093C234.923 104.442 231.079 103.615 226.913 103.615C222.987 103.615 219.378 104.261 216.094 105.547C212.806 106.838 209.965 108.689 207.559 111.103C205.157 113.517 203.294 116.381 201.969 119.682C200.648 122.987 199.987 126.652 199.987 130.675C199.987 134.699 200.648 138.368 201.969 141.668C203.289 144.974 205.153 147.829 207.559 150.247C209.961 152.662 212.806 154.517 216.094 155.803C219.378 157.094 222.983 157.735 226.913 157.735C231.079 157.735 234.923 156.913 238.451 155.258C241.975 153.607 245.182 151.089 248.067 147.706L260.569 159.304C256.561 164.219 251.613 167.965 245.724 170.538C239.835 173.116 233.205 174.403 225.832 174.403L225.837 174.416Z" fill="#2B2A29"/>
<path d="M306.604 172.967V88.3945H370.184V104.102H325.954V157.259H371.745V172.967H306.6H306.604ZM324.511 137.687V122.465H365.014V137.687H324.511Z" fill="#2B2A29"/>
<path d="M520.665 174.416C514.175 174.416 508.145 173.347 502.578 171.215C497.005 169.083 492.179 166.041 488.095 162.095C484.006 158.149 480.822 153.516 478.538 148.201C476.254 142.887 475.114 137.049 475.114 130.684C475.114 124.319 476.258 118.481 478.538 113.167C480.822 107.852 484.024 103.219 488.154 99.2729C492.279 95.3266 497.109 92.2851 502.636 90.1528C508.163 88.0206 514.215 86.9521 520.787 86.9521C528.078 86.9521 534.668 88.2206 540.557 90.7575C546.446 93.2944 551.395 97.0224 555.402 101.933L542.9 113.53C540.015 110.23 536.812 107.752 533.284 106.102C529.756 104.451 525.912 103.624 521.746 103.624C517.82 103.624 514.211 104.269 510.927 105.556C507.639 106.847 504.798 108.698 502.392 111.112C499.99 113.526 498.127 116.39 496.802 119.691C495.481 122.996 494.821 126.66 494.821 130.684C494.821 134.708 495.481 138.377 496.802 141.677C498.122 144.982 499.986 147.838 502.392 150.256C504.794 152.67 507.639 154.525 510.927 155.812C514.211 157.103 517.816 157.744 521.746 157.744C525.912 157.744 529.756 156.921 533.284 155.266C536.808 153.616 540.015 151.097 542.9 147.715L555.402 159.313C551.395 164.227 546.446 167.974 540.557 170.547C534.668 173.125 528.038 174.411 520.665 174.411V174.416Z" fill="#2B2A29"/>
<path d="M567.42 172.967V88.3945H631.005V104.102H586.774V157.259H632.57V172.967H567.424H567.42ZM585.331 137.687V122.465H625.835V137.687H585.331Z" fill="#2B2A29"/>
<path d="M648.069 172.967V88.3945H667.541V157.018H709.727V172.967H648.069Z" fill="#2B2A29"/>
<path d="M720.664 172.967V88.3945H740.136V157.018H782.322V172.967H720.664Z" fill="#2B2A29"/>
<path d="M793.259 172.967V88.3945H856.839V104.102H812.608V157.259H858.4V172.967H793.254H793.259ZM811.17 137.687V122.465H851.674V137.687H811.17Z" fill="#2B2A29"/>
<path d="M873.909 172.967V88.3945H890.015L939.655 149.285H931.844V88.3945H951.076V172.962H935.092L885.334 112.072H893.145V172.962H873.913L873.909 172.967Z" fill="#2B2A29"/>
<path d="M1011.29 174.416C1004.8 174.416 998.767 173.347 993.199 171.215C987.627 169.083 982.801 166.041 978.716 162.095C974.632 158.149 971.443 153.516 969.164 148.201C966.879 142.887 965.74 137.049 965.74 130.684C965.74 124.319 966.884 118.481 969.164 113.167C971.448 107.852 974.65 103.219 978.78 99.2729C982.905 95.3266 987.735 92.2851 993.262 90.1528C998.789 88.0206 1004.84 86.9521 1011.41 86.9521C1018.7 86.9521 1025.29 88.2206 1031.18 90.7575C1037.07 93.2944 1042.02 97.0224 1046.03 101.933L1033.53 113.53C1030.65 110.23 1027.44 107.752 1023.91 106.102C1020.38 104.451 1016.54 103.624 1012.37 103.624C1008.45 103.624 1004.84 104.269 1001.56 105.556C998.269 106.847 995.429 108.698 993.023 111.112C990.621 113.526 988.753 116.39 987.432 119.691C986.111 122.996 985.451 126.66 985.451 130.684C985.451 134.708 986.111 138.377 987.432 141.677C988.753 144.982 990.616 147.838 993.023 150.256C995.424 152.67 998.269 154.525 1001.56 155.812C1004.84 157.103 1008.45 157.744 1012.37 157.744C1016.54 157.744 1020.39 156.921 1023.91 155.266C1027.43 153.616 1030.64 151.097 1033.53 147.715L1046.03 159.313C1042.02 164.227 1037.07 167.974 1031.18 170.547C1025.29 173.125 1018.66 174.411 1011.29 174.411L1011.29 174.416Z" fill="#2B2A29"/>
<path d="M1058.04 172.967V88.3945H1121.63V104.102H1077.4V157.259H1123.19V172.967H1058.05H1058.04ZM1075.95 137.687V122.465H1116.46V137.687H1075.95Z" fill="#2B2A29"/>
<path d="M396.761 172.616H380.65V156.422L450.463 86.9258H466.574V103.12L396.757 172.616H396.761ZM450.468 172.616H466.579V156.422L447.917 137.668H431.806V153.862L450.463 172.616H450.468ZM399.308 121.879H415.419V105.684L396.761 86.9258H380.65V103.12L399.308 121.874V121.879Z" fill="url(#paint0_linear_241_6167)"/>
<line x1="782.322" y1="235.075" x2="1123.19" y2="235.075" stroke="#2B2A29"/>
<line x1="0.594238" y1="235.075" x2="341.463" y2="235.075" stroke="#2B2A29"/>
<path d="M608.179 19.5419C609.26 21.115 609.796 22.8191 609.796 24.6543C609.796 27.9314 608.704 30.4624 606.532 32.2674C604.359 34.0723 601.125 34.9697 596.839 34.9697H578.138V0H596.502C600.688 0 603.714 0.847018 605.589 2.55114C607.454 4.25526 608.387 6.36272 608.387 8.88361C608.387 12.3523 606.889 14.7926 603.893 16.2043C605.669 16.8597 607.087 17.9689 608.169 19.5419" fill="#2B2A29"/>
<path d="M653.775 21.4477V34.9697H625.471V0H638.993V21.4477H653.775Z" fill="#2B2A29"/>
<path d="M682.913 23.8375C686.515 21.4679 688.32 17.7571 688.32 13.2901C688.32 5.79804 683.26 0.322674 673.091 0.0201671V0H657.029V34.9697H671.077V24.6039L675.661 34.9798H688.33L682.913 23.8476V23.8375Z" fill="#2B2A29"/>
<path d="M709.145 20.9536V0H722.191V21.5889C722.191 25.8139 720.871 29.1011 718.232 31.4708C715.554 33.8101 711.754 34.9798 706.813 34.9798C701.873 34.9798 698.053 33.8101 695.434 31.4708C692.755 29.1415 691.426 25.8441 691.426 21.5889V0H704.472V20.9536C704.472 22.2645 705.514 23.3232 706.803 23.3232C708.093 23.3232 709.135 22.2645 709.135 20.9536" fill="#2B2A29"/>
<path d="M611.542 0V16.2547H617.395L623.259 0H611.542Z" fill="#2B2A29"/>
<path d="M410.813 34.2807V8.96561H401.191V0.00683594H431.491V8.96561H421.876V34.2807H410.813Z" fill="#2B2A29"/>
<path d="M503.047 6.05069C501.774 4.1075 499.972 2.61325 497.64 1.56795C495.308 0.522651 492.541 0 489.345 0H472.841V34.2738H484.393V25.8511H489.338C492.534 25.8511 495.301 25.3218 497.633 24.2631C499.965 23.2044 501.768 21.7101 503.041 19.7803C504.314 17.8572 504.95 15.5723 504.95 12.9256C504.95 10.2788 504.314 7.98718 503.041 6.04399L503.047 6.05069Z" fill="#2B2A29"/>
<path d="M536.021 34.2807H548.505L548.411 0.00683594H536.015L528.041 17.261L519.846 0.00683594H507.376V34.2807H519.859V22.0319L527.887 34.2807L535.954 21.5695L536.021 34.2807Z" fill="#2B2A29"/>
<path d="M550.93 34.2807V0.00683594H562.482V34.2807H550.93Z" fill="#2B2A29"/>
<path d="M458.602 34.2807H470.415L457.182 0.00683594H447.151L433.917 34.2807H445.556L446.682 30.9705H457.476L458.602 34.2807Z" fill="#2B2A29"/>
<defs>
<linearGradient id="paint0_linear_241_6167" x1="423.615" y1="86.9258" x2="423.615" y2="172.616" gradientUnits="userSpaceOnUse">
<stop stop-color="#EC2188"/>
<stop offset="1" stop-color="#FF9618"/>
</linearGradient>
</defs>
</svg>
