<svg width="267" height="256" viewBox="0 0 267 256" fill="none" xmlns="http://www.w3.org/2000/svg">
<path d="M94.6531 228.057C88.7015 222.106 86.962 213.234 90.2049 205.468L96.9393 189.415C93.5969 184.93 92.8266 178.991 95.0507 173.71C97.0138 169.038 101.015 165.758 105.612 164.516L107.687 159.583C106.109 158.229 104.605 156.825 103.152 155.371C81.4577 133.677 74.4624 102.925 85.3343 77.0436C92.8142 59.2012 107.612 45.7449 126.971 39.1597C145.968 32.7111 167.128 33.643 186.573 41.8062C197.159 46.2544 206.565 52.529 214.492 60.4562C236.186 82.1502 243.182 112.877 232.322 138.771C221.649 164.18 196.277 180.258 166.644 180.867L163.388 188.62C165.848 192.87 166.258 198.076 164.283 202.76C162.63 206.699 159.549 209.755 155.598 211.37C154.343 211.88 153.051 212.228 151.758 212.402L145.024 228.455C140.613 238.954 128.486 243.899 118 239.501L101.263 232.48C98.7782 231.437 96.5665 229.946 94.6655 228.045L94.6531 228.057Z" fill="white"/>
<path d="M224.221 135.366C214.007 159.695 188.399 173.424 160.841 172.008L154.305 187.589C152.243 192.484 146.602 194.795 141.694 192.745L117.962 182.78C113.067 180.718 110.756 175.077 112.806 170.169L118.397 156.874C93.2487 138.535 82.178 107.311 93.4599 80.4727C106.891 48.4286 147.061 34.7487 183.181 49.9196C219.3 65.0905 237.665 103.36 224.221 135.391L224.221 135.366Z" fill="#FC296C"/>
<path d="M117.776 182.122L115.651 179.55C130.362 167.448 141.806 151.382 148.515 133.54C145.024 131.266 142.737 127.539 140.936 124.097C139.283 120.929 137.556 117.114 137.208 113.039C136.798 108.429 138.351 104.142 141.333 101.558C143.682 99.5326 146.676 98.8493 149.161 99.7687C150.441 100.253 151.621 101.135 152.727 102.49C156.89 107.572 157.561 114.952 154.777 125.116C154.144 127.39 153.46 129.638 152.69 131.875C154.318 132.384 156.032 132.459 157.747 132.26C158.741 130.098 159.785 127.911 160.878 125.675C164.655 117.947 169.364 109.336 177.428 104.751C178.695 104.031 180.621 103.148 182.622 103.732C183.877 104.093 184.871 104.938 185.479 106.143C186.598 108.354 186.225 111.262 185.504 113.225C182.659 121.04 176.21 127.887 167.339 132.509C164.804 133.826 162.369 134.745 160.058 135.242C149.758 158.042 145.26 176.53 145.608 194.298L142.265 194.36C141.93 176.555 146.266 158.129 156.206 135.689C154.566 135.714 153.013 135.478 151.572 135.006C144.638 153.271 132.884 169.746 117.813 182.134L117.776 182.122ZM149.571 103.956C149.049 103.434 148.515 103.074 147.993 102.875C146.664 102.39 144.912 102.85 143.508 104.055C141.333 105.932 140.228 109.174 140.526 112.728C140.824 116.207 142.327 119.5 143.893 122.531C145.359 125.339 147.148 128.346 149.671 130.272C150.354 128.272 150.963 126.246 151.534 124.209C154.019 115.188 153.547 108.777 150.118 104.602C149.932 104.366 149.745 104.155 149.559 103.968L149.571 103.956ZM182.187 107.199C182.038 107.05 181.864 106.95 181.653 106.888C181.056 106.714 180.224 106.95 179.043 107.609C171.8 111.722 167.401 119.823 163.848 127.104C163.177 128.495 162.506 129.862 161.872 131.216C163.276 130.732 164.605 130.123 165.761 129.514C173.899 125.277 179.776 119.077 182.324 112.057C182.908 110.454 182.957 108.615 182.46 107.621C182.373 107.46 182.286 107.323 182.174 107.211L182.187 107.199Z" fill="#412945"/>
<path d="M156.181 199.38C154.641 203.033 150.429 204.76 146.776 203.219L146.192 202.983L136.923 225.075C134.388 231.113 127.442 233.959 121.416 231.412L104.68 224.392C98.6411 221.857 95.7958 214.911 98.3429 208.885L103.773 195.976L113.091 193.292L107.624 186.806L107.028 186.557C103.375 185.017 101.648 180.805 103.189 177.152C104.729 173.499 108.941 171.772 112.594 173.312L152.354 190.012C156.007 191.552 157.734 195.764 156.194 199.417L156.181 199.38Z" fill="#B5E1E8"/>
<path d="M146.191 202.983L103.748 195.951L107.599 186.781L146.191 202.983Z" fill="#412945"/>
<path d="M208.925 95.4946C209.571 96.9359 210.043 98.4269 210.342 99.9676C210.478 100.676 210.578 101.397 210.677 102.117C210.777 102.863 210.876 103.633 210.789 104.391C210.677 105.472 210.752 106.565 211.1 107.609C211.323 108.28 211.708 108.889 212.193 109.398C212.926 110.181 213.883 110.74 214.914 111.051C217.846 111.92 221.686 109.87 221.748 106.503C221.847 100.465 221.822 91.8914 216.219 88.2757C211.87 86.2877 206.95 91.1086 208.925 95.4946Z" fill="#F7EDE5"/>
<path d="M208.056 120.866C207.136 127.849 203.682 134.36 199.172 139.69C199.122 139.74 199.072 139.79 199.035 139.852C194.525 145.431 203.309 152.376 207.77 146.723C213.684 139.79 217.536 131.241 219.076 122.295C220.083 115.201 209 113.734 208.056 120.866Z" fill="#F7EDE5"/>
<path d="M31.4168 95.0121L45.0113 96.726C46.4655 96.9047 46.7796 98.8743 45.459 99.5009L33.2357 105.394C32.7893 105.602 32.4842 106.037 32.4179 106.527L30.573 121.084C30.3971 122.501 28.509 122.849 27.8209 121.599L21.3857 109.735C21.173 109.345 20.7928 109.063 20.3496 108.991L6.17241 106.474C4.77972 106.225 4.50702 104.324 5.78901 103.713L18.6849 97.4707C19.1413 97.2538 19.4464 96.8193 19.5041 96.3189L21.1054 82.2481C21.2742 80.8024 23.2095 80.4482 23.8661 81.7431L30.2807 94.2315C30.509 94.6608 30.9163 94.9544 31.4068 95.0207L31.4168 95.0121Z" fill="#FFCD40"/>
<path d="M234.417 198.012L248.011 199.726C249.466 199.905 249.78 201.874 248.459 202.501L236.236 208.394C235.789 208.602 235.484 209.037 235.418 209.527L233.573 224.084C233.397 225.501 231.509 225.849 230.821 224.599L224.386 212.735C224.173 212.345 223.793 212.063 223.35 211.991L209.172 209.474C207.78 209.225 207.507 207.324 208.789 206.713L221.685 200.471C222.141 200.254 222.446 199.819 222.504 199.319L224.105 185.248C224.274 183.802 226.209 183.448 226.866 184.743L233.281 197.232C233.509 197.661 233.916 197.954 234.407 198.021L234.417 198.012Z" fill="#FFCD40"/>
</svg>
