<svg width="119" height="114" viewBox="0 0 119 114" fill="none" xmlns="http://www.w3.org/2000/svg">
<path d="M31.7735 98.7101C29.512 95.5712 29.3768 91.4182 31.4205 88.134L35.6591 81.3474C34.4734 79.066 34.5617 76.3147 35.96 74.0829C37.195 72.1081 39.252 70.9148 41.4293 70.69L42.7343 68.6051C42.1182 67.8743 41.5396 67.1265 40.9872 66.3598C32.7441 54.9183 31.8373 40.451 38.6775 29.5104C43.3863 21.9669 51.0919 16.9528 60.3599 15.3922C69.4543 13.8669 78.9855 15.8495 87.2058 20.9864C91.6807 23.7848 95.4854 27.3249 98.4975 31.5057C106.741 42.9471 107.649 57.4032 100.814 68.3504C94.0985 79.0914 81.4024 84.5155 67.9132 82.6073L65.8647 85.8849C66.6676 87.9941 66.4699 90.3862 65.2283 92.3658C64.1882 94.0309 62.565 95.1905 60.6533 95.632C60.0464 95.7706 59.4345 95.8332 58.8354 95.8169L54.5968 102.604C51.8217 107.042 45.9554 108.391 41.522 105.623L34.4463 101.204C33.3958 100.547 32.5024 99.708 31.78 98.7054L31.7735 98.7101Z" fill="white"/>
<path d="M97.3893 66.2086C90.9623 76.4931 78.3323 80.8344 65.9337 78.1603L61.8201 84.7474C60.5234 86.8164 57.7938 87.4491 55.7183 86.1572L45.6861 79.8869C43.6171 78.5903 42.9845 75.8607 44.2764 73.7852L47.7931 68.1657C37.7355 57.9916 35.0145 43.0096 42.1113 31.6652C50.5671 18.1173 69.8001 14.872 85.0687 24.4174C100.337 33.9627 105.848 52.6786 97.3875 66.2199L97.3893 66.2086Z" fill="#FEBD03"/>
<path d="M45.6501 79.5744L44.8758 78.2509C52.4422 73.8448 58.8182 67.3997 63.1774 59.7994C61.761 58.5105 60.9985 56.6508 60.4349 54.9566C59.9187 53.3973 59.4163 51.5394 59.5589 49.6648C59.7127 47.5432 60.7333 45.7129 62.2767 44.7603C63.4914 44.0145 64.9003 43.9252 65.9599 44.5255C66.5048 44.8397 66.9753 45.327 67.3772 46.0229C68.891 48.6353 68.6514 52.0332 66.6395 56.4391C66.1844 57.424 65.7085 58.3939 65.1942 59.3518C65.8951 59.7029 66.6675 59.8631 67.4601 59.8993C68.0704 58.9918 68.7051 58.0766 69.366 57.1425C71.6494 53.9147 74.4206 50.3553 78.417 48.8697C79.0451 48.6361 79.9839 48.3779 80.8484 48.7903C81.3912 49.0463 81.7798 49.5028 81.9672 50.0945C82.3115 51.1803 81.9281 52.4719 81.4564 53.3095C79.5894 56.6454 76.1591 59.2761 71.7936 60.7191C70.5465 61.1298 69.3739 61.3675 68.2887 61.4226C61.9349 71.0073 58.5315 79.0637 57.3796 87.1503L55.8586 86.9321C57.0189 78.8295 60.3445 70.7894 66.5083 61.3416C65.7624 61.232 65.0751 61.0104 64.456 60.6899C59.9642 68.4653 53.417 75.0736 45.6661 79.5828L45.6501 79.5744ZM65.8373 46.4554C65.639 46.1802 65.4232 45.9774 65.2011 45.8487C64.6336 45.5309 63.8049 45.6103 63.0791 46.0536C61.9543 46.7445 61.2136 48.1343 61.0869 49.7684C60.9657 51.3688 61.4051 52.9734 61.8919 54.4643C62.3501 55.8463 62.9402 57.3424 63.9425 58.4021C64.4 57.5449 64.8255 56.6709 65.235 55.7886C67.0274 51.8792 67.2858 48.9357 66.0377 46.7889C65.9706 46.668 65.9016 46.5585 65.8308 46.4602L65.8373 46.4554ZM80.3955 50.331C80.3389 50.2523 80.2673 50.1944 80.176 50.1506C79.9183 50.0278 79.5232 50.0735 78.9391 50.2853C75.3496 51.6172 72.7569 54.9683 70.608 58.0097C70.201 58.5915 69.7958 59.1622 69.4085 59.7299C70.0812 59.6135 70.7293 59.4353 71.2984 59.2443C75.303 57.922 78.4263 55.5423 80.0994 52.5451C80.4825 51.861 80.6406 51.0304 80.4884 50.5428C80.4609 50.4631 80.4315 50.3947 80.389 50.3357L80.3955 50.331Z" fill="#412945"/>
<path d="M61.802 90.2353C60.8337 91.779 58.7955 92.2521 57.2517 91.2838L57.0042 91.1337L51.1705 100.473C49.5754 103.026 46.2145 103.805 43.6683 102.205L36.5927 97.7863C34.0399 96.1912 33.261 92.8304 34.8608 90.2841L38.2758 84.8275L42.7015 84.2968L40.6993 80.9513L40.447 80.7946C38.9033 79.8263 38.4302 77.788 39.3985 76.2443C40.3668 74.7006 42.405 74.2275 43.9488 75.1958L60.7564 85.7029C62.3001 86.6711 62.7732 88.7094 61.8049 90.2531L61.802 90.2353Z" fill="#B5E1E8"/>
<path d="M57.0042 91.1337L38.2664 84.8144L40.6898 80.9382L57.0042 91.1337Z" fill="#412945"/>
<path d="M93.3891 46.9919C93.576 47.6934 93.6803 48.4046 93.702 49.1256C93.7118 49.457 93.7038 49.7913 93.6958 50.1256C93.6859 50.4711 93.6742 50.8279 93.5789 51.1654C93.4485 51.6476 93.4017 52.1491 93.4826 52.6483C93.5346 52.9692 93.6645 53.2738 93.8468 53.5406C94.1217 53.9498 94.5145 54.274 94.9595 54.4909C96.2257 55.1017 98.1187 54.4546 98.3951 52.9315C98.8853 50.1992 99.506 46.3078 97.2302 44.2544C95.4038 43.0319 92.8162 44.8563 93.3891 46.9919Z" fill="#F7EDE5"/>
<path d="M91.1242 58.4386C90.1923 61.5389 88.1452 64.2381 85.7061 66.3239C85.6799 66.3428 85.6536 66.3617 85.6322 66.3871C83.1747 68.5857 86.6481 72.3843 89.0885 70.1483C92.2828 67.4388 94.6605 63.8444 96.0189 59.8993C96.9985 56.7547 92.0783 55.2726 91.1242 58.4386Z" fill="#F7EDE5"/>
</svg>
