<svg width="324" height="216" viewBox="0 0 324 216" fill="none" xmlns="http://www.w3.org/2000/svg">
<path d="M29.533 30.2532L32.9022 30.0356C34.204 28.9173 35.8589 28.2342 37.595 28.1221L37.9922 28.0964L38.4659 28.1102C39.2367 28.149 39.9847 28.2928 40.6942 28.5277C41.3739 28.5281 41.9994 28.6059 42.6003 28.7591C42.9211 28.6941 43.2438 28.6585 43.5675 28.6376C44.5238 28.5758 45.4769 28.6915 46.3658 28.9591C49.0677 21.8407 55.6625 16.8939 63.3867 16.3949C65.4465 16.2619 67.5125 16.4535 69.5258 16.9735C74.8601 18.3575 79.3483 21.968 81.9077 26.8259L86.2921 26.5427C89.004 19.3498 95.5978 14.3882 103.322 13.8893C105.382 13.7563 107.448 13.9479 109.461 14.4679C113.998 15.6375 117.915 18.3984 120.55 22.1434C123.628 16.0496 129.714 11.9187 136.732 11.4654C138.792 11.3323 140.858 11.5239 142.872 12.0439C147.379 13.2154 151.28 15.9626 153.915 19.7075C157.084 13.8739 163.009 9.98972 169.806 9.55067C171.866 9.41763 173.932 9.60921 175.945 10.1292C181.28 11.5133 185.765 15.0796 188.305 19.8649C190.983 12.6003 197.618 7.59176 205.386 7.08999C207.446 6.95695 209.512 7.14853 211.525 7.66855C216.859 9.05259 221.362 12.6621 223.923 17.5347L248.979 15.9163L254.54 43.9235C254.921 44.7854 255.157 45.6862 255.216 46.6131C255.234 46.8779 255.252 47.1575 255.24 47.4389L282.86 186.615L58.9415 210.844C57.8869 211.444 56.7133 211.801 55.4921 211.88C54.521 211.943 53.5386 211.829 52.6036 211.535L48.0403 212.021C46.9995 212.606 45.8543 212.946 44.6478 213.023L44.3536 213.042C43.4385 213.057 42.6032 212.934 41.7897 212.691L32.253 213.721C31.6446 213.908 31.0029 214.038 30.3556 214.08L29.9877 214.103L29.5582 214.087C29.4101 214.082 29.2758 214.061 29.1572 214.054L13.1943 215.779L29.533 30.2532Z" fill="white"/>
<path d="M36.2384 37.3106L21.2502 207.606L273.984 180.26L242.928 23.7976L196.026 26.8567L195.184 26.6303L194.393 26.9769L160.437 29.1849L159.479 28.7593L158.776 29.307L127.365 31.3507L126.524 31.1391L125.717 31.4571L93.9391 33.5393L92.8058 33.3761L92.306 33.6447L54.0105 36.1479L53.198 35.9196L52.3774 36.2533L36.2384 37.3106Z" fill="#F7EDE5"/>
<path d="M54.6514 204.577C54.4388 204.487 54.2931 204.289 54.2779 204.054L43.3844 36.7752C43.3625 36.4368 43.624 36.1392 43.9624 36.1174C44.3008 36.0955 44.5984 36.357 44.6203 36.6954L55.5137 203.974C55.5356 204.313 55.2741 204.61 54.9357 204.632C54.8327 204.639 54.7426 204.615 54.6514 204.577Z" fill="#412945"/>
<path d="M43.7933 205.736C43.5807 205.646 43.4193 205.435 43.4178 205.184L39.9785 36.6554C39.9713 36.316 40.2485 36.0322 40.5878 36.025C40.9272 36.0179 41.211 36.295 41.2182 36.6344L44.6575 205.163C44.6647 205.502 44.3875 205.786 44.0482 205.793C43.9599 205.799 43.8697 205.775 43.7933 205.736Z" fill="#412945"/>
<path d="M29.5304 206.79C29.3021 206.687 29.1398 206.461 29.1521 206.194L37.407 36.1861C37.4292 35.8449 37.7073 35.5758 38.0633 35.5971C38.4045 35.6194 38.6737 35.8975 38.6523 36.2534L30.4122 206.26C30.3899 206.602 30.1118 206.871 29.7558 206.849C29.6823 206.854 29.6068 206.829 29.5461 206.804L29.5304 206.79Z" fill="#412945"/>
<path d="M46.0857 62.1304C45.8878 62.0398 45.7274 61.8433 45.7122 61.6079C45.6903 61.2695 45.9518 60.9719 46.2902 60.9501L247.126 46.6924C247.464 46.6705 247.762 46.932 247.783 47.2704C247.805 47.6088 247.544 47.9064 247.205 47.9283L46.37 62.1859C46.2671 62.1926 46.1622 62.1698 46.0857 62.1304Z" fill="#412945"/>
<path d="M64.8454 193.827C64.8454 193.827 64.7386 193.775 64.6917 193.734C64.5663 193.624 64.4823 193.467 64.4709 193.29L56.9914 70.6303C56.9695 70.2919 57.231 69.9943 57.5547 69.9734L241.513 55.6387C241.837 55.6178 242.117 55.8361 242.167 56.1579L262.113 170.773C262.14 170.949 262.106 171.113 261.997 171.253C261.888 171.393 261.745 171.476 261.57 171.503L65.1454 193.897C65.0424 193.903 64.9237 193.896 64.8317 193.843L64.8454 193.827ZM58.2524 71.1694L65.665 192.563L260.784 170.327L241.049 56.9245L58.2671 71.1684L58.2524 71.1694Z" fill="#412945"/>
<path d="M58.8096 90.0887C58.597 89.9991 58.4513 89.8016 58.4361 89.5662C58.4142 89.2278 58.6757 88.9302 59.0141 88.9084L244.796 76.7311C245.134 76.7093 245.432 76.9707 245.454 77.3091C245.476 77.6475 245.214 77.9451 244.876 77.967L59.0939 90.1442C58.9909 90.1509 58.9008 90.1272 58.8096 90.0887Z" fill="#412945"/>
<path d="M60.3541 113.539C60.1561 113.448 59.9957 113.252 59.9805 113.017C59.9587 112.678 60.2201 112.381 60.5585 112.359L248.673 98.7897C249.012 98.7678 249.309 99.0293 249.331 99.3677C249.353 99.7061 249.092 100.004 248.753 100.026L60.6384 113.595C60.5354 113.601 60.4305 113.578 60.3541 113.539Z" fill="#412945"/>
<path d="M62.0661 139.815C61.8682 139.725 61.7078 139.528 61.6926 139.293C61.6707 138.954 61.9175 138.658 62.2549 138.621L252.367 122.81C252.706 122.788 253.002 123.035 253.039 123.373C253.061 123.711 252.814 124.008 252.477 124.044L62.3642 139.855C62.2612 139.862 62.1563 139.839 62.0652 139.8L62.0661 139.815Z" fill="#412945"/>
<path d="M63.8089 166.798C63.611 166.708 63.4662 166.525 63.4363 166.291C63.4144 165.952 63.6456 165.642 63.9977 165.604L257.042 146.236C257.38 146.214 257.691 146.445 257.728 146.797C257.75 147.135 257.519 147.446 257.167 147.483L64.1226 166.852C64.0196 166.859 63.9157 166.851 63.8089 166.798Z" fill="#412945"/>
<path d="M88.3328 190.567C88.1202 190.477 87.9744 190.28 87.9592 190.044L80.1381 68.9578C80.1162 68.6194 80.3777 68.3218 80.7161 68.3C81.0545 68.2781 81.3521 68.5396 81.3739 68.878L89.1951 189.964C89.217 190.303 88.9555 190.6 88.6171 190.622C88.5141 190.629 88.4239 190.605 88.3328 190.567Z" fill="#412945"/>
<path d="M117.812 187.215C117.614 187.124 117.454 186.928 117.439 186.692L108.151 66.9122C108.129 66.5738 108.376 66.2771 108.728 66.2396C109.066 66.2178 109.363 66.4645 109.4 66.8167L118.688 186.597C118.71 186.935 118.464 187.232 118.111 187.269C118.008 187.276 117.904 187.253 117.812 187.215Z" fill="#412945"/>
<path d="M147.292 183.863C147.094 183.772 146.949 183.59 146.919 183.355L136.178 64.8656C136.156 64.5272 136.402 64.2158 136.74 64.1939C137.079 64.1721 137.375 64.4189 137.412 64.7563L148.153 183.246C148.175 183.584 147.929 183.896 147.591 183.917C147.488 183.924 147.384 183.916 147.292 183.863Z" fill="#412945"/>
<path d="M176.772 180.511C176.574 180.42 176.429 180.237 176.399 180.003L164.191 62.8197C164.169 62.4813 164.4 62.1709 164.737 62.1343C165.076 62.1124 165.386 62.3435 165.423 62.681L177.631 179.864C177.653 180.203 177.422 180.513 177.084 180.55C176.981 180.556 176.863 180.549 176.771 180.496L176.772 180.511Z" fill="#412945"/>
<path d="M206.251 177.159C206.053 177.068 205.909 176.885 205.88 176.666L192.218 60.7729C192.182 60.4355 192.427 60.1241 192.765 60.0875C193.102 60.051 193.414 60.2968 193.45 60.6342L207.112 176.527C207.148 176.864 206.902 177.176 206.565 177.212C206.447 177.22 206.343 177.212 206.251 177.159Z" fill="#412945"/>
<path d="M235.731 173.807C235.533 173.716 235.389 173.548 235.359 173.314L220.231 58.7273C220.179 58.3908 220.425 58.0794 220.762 58.0281C221.098 57.9769 221.41 58.2227 221.461 58.5592L236.589 173.146C236.64 173.482 236.395 173.794 236.058 173.845C235.94 173.852 235.836 173.844 235.73 173.792L235.731 173.807Z" fill="#412945"/>
<path d="M76.1454 39.6229C76.2066 39.4269 76.2687 39.2456 76.3162 39.0652C77.9949 32.5744 74.0788 25.9278 67.588 24.2491C61.0971 22.5704 54.4505 26.4864 52.7718 32.9773C52.4881 34.0742 52.3524 35.1762 52.3639 36.2688L53.997 36.1633C53.9822 35.2482 54.0999 34.3246 54.3499 33.3925C55.8042 27.773 61.5533 24.3729 67.1728 25.8272C72.7923 27.2814 76.1776 33.0316 74.7234 38.651C74.6868 38.7716 74.6503 38.8921 74.6138 39.0127C71.3565 38.2184 68.0699 40.1741 67.2306 43.4195C66.9815 44.3664 66.9835 45.3118 67.1739 46.2007L67.7169 47.7465C68.4935 49.2476 69.8552 50.4302 71.6275 50.8772C74.9033 51.7293 78.233 49.7561 79.0851 46.4803C79.794 43.7309 78.5199 40.9322 76.1454 39.6229Z" fill="#412945"/>
<path d="M116.094 37.1018C116.156 36.9058 116.218 36.7244 116.265 36.5441C117.944 30.0532 114.028 23.4066 107.537 21.7279C101.046 20.0493 94.3995 23.9653 92.7208 30.4562C92.4371 31.553 92.2663 32.5687 92.2916 33.6456L93.9247 33.5401C93.909 32.6103 94.0489 31.8035 94.298 30.8566C95.7523 25.2371 101.501 21.8371 107.121 23.2913C112.74 24.7456 116.126 30.4957 114.671 36.1152C114.635 36.2357 114.598 36.3563 114.562 36.4768C111.305 35.6826 108.018 37.6382 107.179 40.8837C106.93 41.8305 106.932 42.7759 107.122 43.6649L107.665 45.2106C108.442 46.7117 109.803 47.8944 111.576 48.3413C114.851 49.1935 118.181 47.2203 119.033 43.9445C119.742 41.195 118.468 38.3963 116.093 37.0871L116.094 37.1018Z" fill="#412945"/>
<path d="M149.49 34.6788C149.551 34.4827 149.613 34.3014 149.661 34.1211C151.339 27.6302 147.423 20.9836 140.933 19.3049C134.442 17.6263 127.795 21.5423 126.116 28.0331C125.833 29.13 125.677 30.3811 125.688 31.4589L127.335 31.3525C127.32 30.4227 127.444 29.3658 127.694 28.4336C129.148 22.8141 134.897 19.4141 140.516 20.8683C146.136 22.3226 149.521 28.0727 148.067 33.6922C148.03 33.8127 147.994 33.9333 147.957 34.0538C144.7 33.2596 141.414 35.2152 140.574 38.4606C140.325 39.4075 140.327 40.3529 140.518 41.2419L141.061 42.7876C141.837 44.2887 143.199 45.4714 144.971 45.9183C148.247 46.7705 151.577 44.7973 152.429 41.5214C153.138 38.772 151.864 35.9733 149.489 34.664L149.49 34.6788Z" fill="#412945"/>
<path d="M182.579 32.7632C182.64 32.5672 182.702 32.3859 182.75 32.2055C184.428 25.7147 180.512 19.0681 174.021 17.3894C167.53 15.7107 160.884 19.6267 159.205 26.1176C158.921 27.2144 158.75 28.2154 158.775 29.2923L160.438 29.1849C160.423 28.2699 160.547 27.4492 160.797 26.5171C162.251 20.8976 168 17.4976 173.62 18.9518C179.239 20.4061 182.625 26.1562 181.171 31.7757C181.134 31.8962 181.097 32.0168 181.061 32.1373C177.804 31.3431 174.517 33.2987 173.678 36.5441C173.429 37.491 173.431 38.4364 173.621 39.3253L174.164 40.8711C174.941 42.3722 176.302 43.5549 178.075 44.0018C181.35 44.854 184.68 42.8808 185.532 39.6049C186.241 36.8555 184.967 34.0568 182.593 32.7475L182.579 32.7632Z" fill="#412945"/>
<path d="M218.16 30.3171C218.221 30.1211 218.283 29.9398 218.33 29.7594C220.009 23.2685 216.093 16.6219 209.602 14.9432C203.111 13.2646 196.465 17.1806 194.786 23.6715C194.502 24.7683 194.354 25.9007 194.379 26.9776L196.012 26.8721C195.996 25.9424 196.129 25.0178 196.364 24.0866C197.818 18.4671 203.567 15.0671 209.187 16.5213C214.806 17.9756 218.192 23.7257 216.738 29.3452C216.701 29.4657 216.664 29.5863 216.628 29.7068C213.371 28.9126 210.084 30.8682 209.245 34.1137C208.996 35.0605 208.998 36.006 209.188 36.8949L209.731 38.4406C210.508 39.9418 211.869 41.1244 213.642 41.5713C216.917 42.4235 220.247 40.4503 221.099 37.1745C221.808 34.425 220.534 31.6263 218.16 30.3171Z" fill="#412945"/>
<path d="M106.483 142.782L120.078 144.496C121.532 144.675 121.846 146.644 120.526 147.271L108.302 153.164C107.856 153.372 107.551 153.806 107.485 154.297L105.64 168.854C105.464 170.271 103.576 170.619 102.888 169.369L96.4523 157.505C96.2396 157.115 95.8595 156.832 95.4162 156.76L81.2391 154.244C79.8464 153.995 79.5737 152.094 80.8557 151.483L93.7515 145.241C94.208 145.024 94.513 144.589 94.5707 144.089L96.1721 130.018C96.3408 128.572 98.2761 128.218 98.9327 129.513L105.347 142.001C105.576 142.431 105.983 142.724 106.473 142.791L106.483 142.782Z" fill="#FC9D29"/>
<path d="M294.417 48.0121L308.012 49.726C309.466 49.9047 309.78 51.8743 308.459 52.5009L296.236 58.3937C295.789 58.6021 295.484 59.0365 295.418 59.527L293.573 74.0838C293.397 75.5009 291.509 75.8494 290.821 74.5988L284.386 62.7352C284.173 62.3446 283.793 62.0625 283.35 61.9906L269.173 59.4738C267.78 59.225 267.507 57.3241 268.789 56.7133L281.685 50.4707C282.142 50.2538 282.447 49.8193 282.504 49.3189L284.106 35.2481C284.274 33.8024 286.21 33.4482 286.866 34.7431L293.281 47.2315C293.509 47.6608 293.917 47.9544 294.407 48.0207L294.417 48.0121Z" fill="#FC9D29"/>
</svg>
