<svg width="357" height="357" viewBox="0 0 357 357" fill="none" xmlns="http://www.w3.org/2000/svg">
<g filter="url(#filter0_d_235_3360)">
<path d="M189.169 272.438C243.044 266.763 282.117 218.488 276.441 164.614C270.766 110.739 222.491 71.6658 168.617 77.3411C114.742 83.0164 75.6691 131.291 81.3444 185.166C87.0198 239.04 135.294 278.113 189.169 272.438Z" fill="white"/>
<path d="M188.448 265.573C238.53 260.297 274.853 215.42 269.577 165.338C264.301 115.256 219.425 78.9326 169.342 84.2085C119.26 89.4843 82.9368 134.361 88.2127 184.443C93.4885 234.526 138.365 270.849 188.448 265.573Z" fill="#F13470"/>
<path d="M165.809 228.929C136.225 221.903 117.95 192.222 124.976 162.637C129.39 144.054 142.746 129.923 159.402 123.745C169.252 120.077 180.266 119.19 191.252 121.802C220.836 128.827 239.111 158.509 232.089 188.077C229.094 200.691 221.981 211.248 212.523 218.662C199.783 228.662 182.782 232.959 165.811 228.931L165.809 228.929Z" fill="black"/>
<path d="M132.204 155.195C121.065 180.787 132.779 210.562 158.371 221.702C183.961 232.843 213.738 221.127 224.878 195.535C236.019 169.943 224.303 140.168 198.711 129.028C173.119 117.887 143.344 129.603 132.204 155.195Z" fill="#FCE6E0"/>
<path d="M136.02 151.533C122.852 175.02 131.221 204.737 154.708 217.903C178.195 231.07 207.912 222.702 221.077 199.215C234.245 175.726 225.876 146.011 202.389 132.845C178.901 119.68 149.186 128.046 136.02 151.533Z" stroke="black" stroke-width="0.6" stroke-miterlimit="10"/>
<path d="M176.737 173.571L205.675 163.398L179.451 178.973L154.388 186.835L176.737 173.571Z" fill="black"/>
<path d="M181.576 171.822L191.747 200.761L176.172 174.537L168.311 149.474L181.574 171.823L181.576 171.822Z" fill="black"/>
<path d="M185.224 176.185L169.875 203.59L172.212 172.436C172.212 172.436 185.657 176.302 185.224 176.185Z" fill="black"/>
<path d="M185.292 175.971C185.292 175.971 171.848 172.106 172.283 172.224L187.629 144.819L185.292 175.971Z" fill="black"/>
<path d="M222.377 185.645L214.037 183.663" stroke="black" stroke-width="2.41" stroke-linecap="round" stroke-linejoin="round"/>
<path d="M142.474 166.668L134.134 164.686" stroke="black" stroke-width="2.41" stroke-linecap="round" stroke-linejoin="round"/>
<path d="M202.045 213.774L197.549 206.476" stroke="#F13470" stroke-width="1.21" stroke-linecap="round" stroke-linejoin="round"/>
<path d="M158.962 143.853L154.464 136.553" stroke="#F13470" stroke-width="1.21" stroke-linecap="round" stroke-linejoin="round"/>
<path d="M167.779 219.285L169.76 210.941" stroke="black" stroke-width="2.41" stroke-linecap="round" stroke-linejoin="round"/>
<path d="M186.755 139.386L188.736 131.042" stroke="black" stroke-width="2.41" stroke-linecap="round" stroke-linejoin="round"/>
<path d="M139.644 198.954L146.943 194.457" stroke="#F13470" stroke-width="1.21" stroke-linecap="round" stroke-linejoin="round"/>
<path d="M209.564 155.874L216.862 151.376" stroke="#F13470" stroke-width="1.21" stroke-linecap="round" stroke-linejoin="round"/>
<path d="M180.106 167.372L207.967 181.873L176.758 180.491C176.758 180.491 180.211 166.932 180.108 167.372L180.106 167.372Z" fill="#F13470"/>
<path d="M179.889 167.309C179.889 167.309 176.437 180.867 176.542 180.426L148.681 165.925L179.889 167.309Z" fill="#9351EF"/>
<path d="M176.968 179.614C173.816 178.864 171.867 175.702 172.617 172.552C173.366 169.399 176.528 167.451 179.679 168.2C182.831 168.95 184.78 172.112 184.03 175.262C183.281 178.415 180.119 180.363 176.968 179.614Z" fill="black"/>
<path d="M102.206 162.549L112.429 164.385L113.483 158.521L115.576 158.898L114.103 167.097L101.786 164.884L102.206 162.549Z" fill="black"/>
<path d="M107.254 144.53L109.259 145.237L106.982 151.702L109.767 152.683L111.828 146.831L113.751 147.509L111.69 153.36L114.773 154.446L117.039 148.015L119.045 148.721L115.99 157.391L104.188 153.233L107.254 144.53Z" fill="black"/>
<path d="M125.326 137.337L124.083 139.522L121.198 139.013L118.487 143.779L120.407 145.983L119.199 148.107L110.678 137.779L112.051 135.365L125.326 137.337ZM116.145 141.071L117.086 142.153L119.085 138.639L117.665 138.398C116.556 138.239 115.059 137.98 113.173 137.622C114.193 138.768 115.183 139.918 116.145 141.071Z" fill="black"/>
<path d="M129.821 126.886L131.313 128.006C131.777 128.382 132.232 128.597 132.678 128.651L131.103 130.518C130.698 130.453 130.246 130.217 129.745 129.811L128.663 128.967C128.059 128.503 127.542 128.298 127.114 128.351C126.685 128.387 126.251 128.665 125.813 129.185L123.819 131.55L127.568 134.711L126.039 136.524L116.472 128.458L120.131 124.118C121.03 123.052 121.971 122.428 122.953 122.244C123.935 122.061 124.843 122.32 125.676 123.023C126.822 123.99 127.134 125.165 126.612 126.548C127.172 126.192 127.704 126.051 128.21 126.125C128.713 126.182 129.25 126.435 129.821 126.886ZM119.493 127.902L122.395 130.349L124.434 127.93C124.865 127.42 125.072 126.92 125.055 126.431C125.037 125.925 124.786 125.468 124.302 125.06C123.846 124.675 123.372 124.528 122.881 124.62C122.397 124.703 121.929 125.013 121.476 125.55L119.493 127.902Z" fill="black"/>
<path d="M134.391 115.203L132.333 112.663L134.109 111.225L141.984 120.949L139.936 122.608L133.725 120.469C132.051 119.91 130.684 119.404 129.623 118.951C130.486 119.941 131.776 121.497 133.494 123.618L135.551 126.159L133.776 127.597L125.9 117.872L127.949 116.213L134.173 118.342C136.046 118.996 137.408 119.506 138.261 119.871C137.126 118.544 135.836 116.988 134.391 115.203Z" fill="black"/>
<path d="M152.189 108.354L151.818 102.051L154.995 100.721L159.827 112.264L157.735 113.139L156.263 109.621C155.358 107.459 154.581 105.543 153.932 103.871C154.034 104.781 154.113 105.79 154.17 106.896L154.59 114.456L152.791 115.209L147.685 109.611C146.772 108.583 146.119 107.827 145.726 107.344C146.457 108.969 147.273 110.857 148.173 113.007L149.646 116.525L147.538 117.408L142.706 105.865L145.884 104.534L150.226 109.309C150.514 109.633 151.28 110.538 152.525 112.024C152.368 110.68 152.256 109.456 152.189 108.354Z" fill="black"/>
<path d="M171.666 108.487C170.745 109.866 169.363 110.72 167.517 111.049C165.672 111.379 164.079 111.056 162.738 110.081C161.396 109.095 160.552 107.639 160.209 105.713C159.865 103.786 160.152 102.128 161.07 100.739C161.99 99.3602 163.373 98.5063 165.219 98.1768C167.064 97.8473 168.657 98.1698 169.998 99.1445C171.324 100.11 172.162 101.567 172.51 103.516C172.858 105.466 172.577 107.123 171.666 108.487ZM162.648 105.277C162.889 106.627 163.42 107.633 164.24 108.296C165.061 108.958 166.031 109.19 167.149 108.99C168.28 108.788 169.115 108.235 169.656 107.329C170.187 106.436 170.331 105.31 170.088 103.949C169.845 102.588 169.32 101.58 168.513 100.927C167.692 100.264 166.717 100.034 165.586 100.236C164.467 100.435 163.638 100.988 163.097 101.894C162.557 102.8 162.407 103.928 162.648 105.277Z" fill="black"/>
<path d="M185.117 106.529L185.19 108.394C185.191 108.992 185.312 109.48 185.551 109.859L183.109 109.817C182.904 109.462 182.801 108.962 182.801 108.317L182.772 106.946C182.75 106.184 182.583 105.653 182.272 105.355C181.973 105.045 181.483 104.884 180.804 104.872L177.711 104.819L177.626 109.721L175.254 109.68L175.471 97.1685L181.147 97.2673C182.541 97.2915 183.619 97.6267 184.382 98.2727C185.144 98.9188 185.515 99.7866 185.496 100.876C185.47 102.376 184.756 103.359 183.353 103.827C183.982 104.037 184.428 104.361 184.69 104.799C184.964 105.226 185.106 105.803 185.117 106.529ZM177.81 99.1603L177.744 102.956L180.907 103.011C181.574 103.023 182.093 102.868 182.462 102.546C182.842 102.213 183.038 101.73 183.049 101.097C183.06 100.5 182.874 100.039 182.493 99.7164C182.124 99.3936 181.588 99.2261 180.885 99.2138L177.81 99.1603Z" fill="black"/>
<path d="M198.574 99.6081L198.167 101.695L191.44 100.383L190.874 103.281L196.964 104.469L196.573 106.47L190.484 105.282L189.858 108.491L196.551 109.796L196.144 111.883L187.122 110.124L189.518 97.8418L198.574 99.6081Z" fill="black"/>
<path d="M212.376 118.696L210.106 117.616L210.403 114.702L205.451 112.347L203.393 114.423L201.187 113.374L210.862 104.119L213.37 105.312L212.376 118.696ZM207.979 109.813L206.97 110.831L210.62 112.567L210.757 111.134C210.834 110.016 210.983 108.504 211.202 106.597C210.134 107.697 209.059 108.769 207.979 109.813Z" fill="black"/>
<path d="M223.607 118.721C224.023 119.325 224.226 119.956 224.214 120.612C224.211 121.275 224.011 121.882 223.613 122.433C222.947 123.354 222.125 123.851 221.146 123.925C220.184 123.995 219.129 123.615 217.98 122.785L213.237 119.356L220.569 109.215L225.155 112.531C226.218 113.3 226.855 114.129 227.065 115.018C227.275 115.907 227.099 116.741 226.536 117.52C225.815 118.517 224.839 118.917 223.607 118.721ZM223.869 114.009L221.348 112.186L219.433 114.835L221.954 116.658C222.438 117.008 222.894 117.157 223.322 117.105C223.767 117.05 224.143 116.809 224.452 116.382C224.741 115.983 224.834 115.574 224.733 115.154C224.632 114.734 224.344 114.352 223.869 114.009ZM216.313 119.151L219.033 121.118C219.575 121.509 220.074 121.689 220.53 121.657C220.993 121.616 221.386 121.373 221.709 120.927C222.389 119.987 222.173 119.115 221.062 118.312L218.342 116.345L216.313 119.151Z" fill="black"/>
<path d="M230.722 132.735C229.065 132.712 227.596 132.015 226.317 130.645C225.037 129.275 224.442 127.763 224.532 126.108C224.63 124.445 225.394 122.946 226.825 121.61C228.255 120.275 229.802 119.614 231.468 119.63C233.125 119.653 234.594 120.35 235.873 121.72C237.153 123.09 237.748 124.603 237.658 126.258C237.569 127.896 236.801 129.391 235.354 130.743C233.906 132.094 232.363 132.758 230.722 132.735ZM228.516 123.421C227.514 124.357 226.958 125.349 226.847 126.398C226.737 127.447 227.07 128.387 227.845 129.218C228.629 130.057 229.548 130.457 230.602 130.419C231.64 130.379 232.664 129.888 233.674 128.944C234.685 128.001 235.245 127.013 235.355 125.98C235.465 124.931 235.128 123.987 234.345 123.148C233.569 122.317 232.654 121.921 231.6 121.96C230.546 121.998 229.518 122.485 228.516 123.421Z" fill="black"/>
<path d="M234.1 140.821C233.245 139.434 232.942 138.114 233.188 136.862C233.451 135.613 234.251 134.576 235.587 133.753L242.231 129.66L243.476 131.68L236.817 135.782C236.009 136.28 235.524 136.867 235.363 137.545C235.203 138.222 235.365 138.954 235.85 139.742C236.336 140.53 236.917 141.005 237.594 141.166C238.271 141.327 239.014 141.158 239.822 140.66L246.481 136.559L247.725 138.579L241.081 142.671C239.724 143.507 238.434 143.758 237.211 143.425C235.997 143.085 234.96 142.217 234.1 140.821Z" fill="black"/>
<path d="M249.193 141.527L253.008 151.207L251.03 151.986L249.56 148.258L239.897 152.068L239.021 149.844L248.684 146.035L247.214 142.307L249.193 141.527Z" fill="black"/>
<path d="M129.558 225.355L137.72 232.224L136.011 234.255L133.066 231.776L126.717 239.32L124.431 237.396L130.78 229.852L127.849 227.385L129.558 225.355Z" fill="black"/>
<path d="M141.301 249.069L138.614 247.432L139.118 245.187L134.675 242.48L132.926 243.966L130.33 242.383L140.773 234.094L143.79 235.932L141.301 249.069ZM138.401 239.337L136.67 240.793L139.687 242.631L140.187 240.425C140.326 239.769 140.575 238.686 140.933 237.175C139.409 238.483 138.565 239.204 138.401 239.337Z" fill="black"/>
<path d="M149.083 238.853L154.4 240.892C155.745 241.408 156.664 242.169 157.157 243.173C157.655 244.167 157.67 245.271 157.205 246.486C156.739 247.7 155.987 248.516 154.948 248.933C153.914 249.339 152.724 249.285 151.378 248.768L148.835 247.793L147.375 251.6L144.601 250.536L149.083 238.853ZM149.735 245.446L152.098 246.353C152.645 246.562 153.118 246.587 153.519 246.427C153.93 246.271 154.234 245.936 154.431 245.422C154.629 244.908 154.627 244.455 154.425 244.064C154.224 243.673 153.855 243.375 153.319 243.169L150.956 242.263L149.735 245.446Z" fill="black"/>
<path d="M167.273 249.704L169.757 244.718L174.144 245.446L172.094 257.791L169.303 257.328L169.905 253.704C170.287 251.404 170.651 249.421 170.999 247.757C170.639 248.564 170.206 249.455 169.7 250.428L166.442 256.853L164.05 256.455L163.043 249.322C162.925 248.459 162.807 247.484 162.691 246.396C162.427 248.347 162.126 250.334 161.791 252.357L161.189 255.98L158.398 255.517L160.447 243.172L164.834 243.901L165.582 249.477C165.677 250.264 165.791 251.334 165.923 252.686C166.382 251.634 166.832 250.64 167.273 249.704Z" fill="black"/>
<path d="M179.512 257.788L176.542 257.757L176.67 245.244L179.64 245.275L179.512 257.788Z" fill="black"/>
<path d="M196.546 249.131C197.259 249.246 197.858 249.544 198.343 250.025C198.825 250.494 199.127 251.051 199.249 251.695C199.463 252.824 199.25 253.776 198.61 254.553C197.98 255.317 196.933 255.837 195.471 256.114L189.462 257.252L187.134 244.957L192.97 243.851C194.329 243.594 195.408 243.688 196.207 244.133C197.019 244.575 197.514 245.269 197.692 246.213C197.923 247.433 197.541 248.406 196.546 249.131ZM193.222 246.219L190.493 246.735L190.99 249.36L193.719 248.843C194.168 248.758 194.49 248.572 194.686 248.284C194.894 247.995 194.958 247.643 194.88 247.228C194.806 246.837 194.62 246.55 194.323 246.368C194.038 246.183 193.671 246.134 193.222 246.219ZM191.939 254.368L194.857 253.815C195.375 253.717 195.749 253.521 195.98 253.227C196.222 252.931 196.3 252.558 196.215 252.109C196.039 251.176 195.409 250.813 194.327 251.018L191.409 251.57L191.939 254.368Z" fill="black"/>
<path d="M199.702 245.062L198.863 242.415L201.594 241.55L202.497 244.398C202.999 245.984 202.463 247.045 200.887 247.581L200.536 247.693L200.116 246.369L200.485 246.252C201.003 246.064 201.155 245.634 200.943 244.964L200.858 244.696L199.702 245.062Z" fill="black"/>
<path d="M206.474 239.66L210.465 248.676L215.704 246.357L216.778 248.784L208.823 252.305L203.758 240.862L206.474 239.66Z" fill="black"/>
<path d="M226.96 238.786L227.997 240.208C228.315 240.671 228.661 240.984 229.033 241.146L226.476 242.824C226.127 242.633 225.793 242.305 225.475 241.841L224.659 240.695C224.26 240.129 223.868 239.819 223.482 239.765C223.099 239.693 222.643 239.831 222.114 240.178L220.086 241.509L222.611 245.359L220.128 246.988L213.264 236.525L218.217 233.276C219.441 232.473 220.557 232.134 221.563 232.258C222.573 232.366 223.383 232.886 223.994 233.817C224.784 235.022 224.764 236.219 223.933 237.409C224.588 237.232 225.137 237.257 225.58 237.484C226.033 237.705 226.493 238.139 226.96 238.786ZM217.049 236.88L218.861 239.642L221.051 238.206C221.531 237.891 221.826 237.529 221.937 237.121C222.04 236.702 221.945 236.268 221.649 235.817C221.051 234.906 220.233 234.791 219.195 235.472L217.049 236.88Z" fill="black"/>
<path d="M236.175 235.185C234.995 236.308 233.742 236.894 232.414 236.945C231.103 237.012 229.886 236.455 228.764 235.276L223.42 229.661L225.572 227.614L230.939 233.253C231.489 233.83 232.061 234.126 232.658 234.141C233.254 234.139 233.837 233.868 234.406 233.327C234.974 232.785 235.274 232.217 235.306 231.621C235.329 231.016 235.066 230.426 234.517 229.849L229.149 224.209L231.301 222.161L236.644 227.775C237.751 228.938 238.255 230.173 238.156 231.48C238.066 232.779 237.405 234.014 236.175 235.185Z" fill="black"/>
</g>
<defs>
<filter id="filter0_d_235_3360" x="0.796631" y="0.793457" width="356.193" height="356.192" filterUnits="userSpaceOnUse" color-interpolation-filters="sRGB">
<feFlood flood-opacity="0" result="BackgroundImageFix"/>
<feColorMatrix in="SourceAlpha" type="matrix" values="0 0 0 0 0 0 0 0 0 0 0 0 0 0 0 0 0 0 127 0" result="hardAlpha"/>
<feOffset dy="4"/>
<feGaussianBlur stdDeviation="40"/>
<feComposite in2="hardAlpha" operator="out"/>
<feColorMatrix type="matrix" values="0 0 0 0 0 0 0 0 0 0 0 0 0 0 0 0 0 0 0.1 0"/>
<feBlend mode="normal" in2="BackgroundImageFix" result="effect1_dropShadow_235_3360"/>
<feBlend mode="normal" in="SourceGraphic" in2="effect1_dropShadow_235_3360" result="shape"/>
</filter>
</defs>
</svg>
