<svg width="456" height="334" viewBox="0 0 456 334" fill="none" xmlns="http://www.w3.org/2000/svg">
<g filter="url(#filter0_d_235_3269)">
<rect x="105.724" y="74.6582" width="279.794" height="112.263" rx="18" transform="rotate(14.0904 105.724 74.6582)" fill="#F2A0FF" stroke="white" stroke-width="4"/>
<rect x="111.751" y="83.6374" width="263.731" height="97.7801" rx="15.5" transform="rotate(14.0904 111.751 83.6374)" stroke="black" stroke-dasharray="13 13"/>
<path d="M160.695 148.86L170.317 151.275L169.623 154.037L166.364 153.219L164.284 161.506L161.181 160.727L163.261 152.44L160.002 151.622L160.695 148.86ZM177.232 157.3L178.245 153.265L181.349 154.044L178.575 165.093L175.472 164.314L176.539 160.062L172.737 159.108L171.67 163.36L168.566 162.581L171.339 151.531L174.443 152.31L173.43 156.345L177.232 157.3Z" fill="black"/>
<path d="M129.215 140.509L135.306 142.038L128.372 169.661L120.613 167.714L124.644 151.652L118.127 150.016L119.422 144.856L120.052 144.973C122.18 145.369 123.971 145.242 125.427 144.59C126.89 143.912 128.152 142.552 129.215 140.509ZM149.883 155.595C152.883 156.348 154.974 157.821 156.156 160.015C157.305 162.228 157.577 164.537 156.974 166.942C156.195 170.046 154.527 172.198 151.971 173.399C149.402 174.651 146.502 174.872 143.268 174.06C140.423 173.346 138.226 172.079 136.675 170.261C134.078 167.244 133.474 162.969 134.863 157.434C136.11 152.468 138.066 148.945 140.733 146.865C143.426 144.791 146.712 144.241 150.591 145.215C153.591 145.968 155.86 147.28 157.398 149.15C158.961 151.028 159.619 153.282 159.371 155.914L152.387 154.161C152.428 152.357 151.4 151.192 149.305 150.666C147.702 150.263 146.376 150.508 145.327 151.399C144.285 152.265 143.355 153.998 142.538 156.597C144.512 155.195 146.96 154.861 149.883 155.595ZM142.073 166.337C142.635 167.275 143.523 167.897 144.739 168.202C145.955 168.507 147.032 168.379 147.97 167.817C148.876 167.274 149.468 166.447 149.748 165.335C150.033 164.197 149.905 163.175 149.362 162.269C148.82 161.363 147.928 160.754 146.687 160.442C145.445 160.131 144.371 160.246 143.465 160.789C142.559 161.331 141.964 162.171 141.678 163.309C141.399 164.422 141.53 165.431 142.073 166.337ZM206.029 164.574L207.158 160.073L214.53 161.924L207.596 189.547L199.41 187.492L196.016 176.206C195.107 173.146 194.41 170.552 193.927 168.424C193.102 172.258 192.151 176.322 191.073 180.616L189.944 185.116L182.572 183.266L189.506 155.643L197.692 157.697L201.087 168.983C201.886 171.713 202.579 174.32 203.165 176.805C203.99 172.97 204.945 168.893 206.029 164.574ZM236.275 193.199C232.948 195.168 229.113 195.607 224.768 194.517C220.422 193.426 217.249 191.227 215.247 187.92C213.232 184.665 212.777 180.839 213.88 176.442C214.977 172.071 217.189 168.901 220.515 166.932C223.861 164.994 227.693 164.568 232.013 165.652C236.332 166.736 239.509 168.922 241.543 172.21C243.545 175.516 243.997 179.355 242.9 183.726C241.796 188.123 239.588 191.281 236.275 193.199ZM222.274 184.57C223.094 186.233 224.487 187.312 226.452 187.805C228.418 188.298 230.155 188.006 231.663 186.927C233.164 185.874 234.22 184.132 234.83 181.701C235.428 179.321 235.316 177.3 234.497 175.637C233.683 173.948 232.294 172.857 230.328 172.364C228.362 171.871 226.622 172.176 225.108 173.281C223.6 174.359 222.547 176.088 221.95 178.468C221.34 180.899 221.448 182.933 222.274 184.57ZM260.315 184.262L266.019 174.848L274.011 176.854L257.65 202.111L248.339 199.773L245.496 169.696L253.798 171.78L254.418 182.782C254.622 186.243 254.728 190.036 254.737 194.162C256.558 190.633 258.417 187.333 260.315 184.262ZM288.126 203.038L301.86 206.485L300.273 212.809L277.81 207.171L278.666 204.416C279.302 202.431 280.051 200.818 280.912 199.577C281.488 198.705 282.184 197.959 283 197.338C284.89 195.943 287.413 195.092 290.569 194.784L292.384 194.621C293.93 194.487 295.058 194.207 295.77 193.78C296.508 193.361 296.99 192.698 297.218 191.793C297.698 189.879 296.839 188.646 294.641 188.094C293.425 187.789 292.451 187.888 291.72 188.392C290.995 188.87 290.467 189.769 290.136 191.088L282.765 189.238C283.544 186.024 285.089 183.758 287.399 182.441C289.716 181.098 292.723 180.891 296.422 181.819C299.81 182.67 302.266 184.111 303.791 186.143C305.283 188.195 305.721 190.449 305.104 192.906C304.468 195.441 303.282 197.261 301.548 198.365C299.73 199.476 297.223 200.262 294.027 200.725L291.757 201.062C290.618 201.216 289.793 201.436 289.282 201.72C288.771 202.004 288.386 202.443 288.126 203.038ZM325.583 206.419L329.152 207.314L327.565 213.638L323.995 212.742L322.574 218.407L314.814 216.459L316.236 210.795L303.356 207.562L305.186 200.268L320.933 188.631L329.507 190.784L325.583 206.419ZM318.095 204.539L320.208 196.12L311.15 202.796L318.095 204.539Z" fill="black"/>
<path d="M162.85 125.22C163.545 125.683 164.024 126.264 164.289 126.963C164.566 127.665 164.611 128.391 164.423 129.141C164.108 130.395 163.449 131.268 162.446 131.759C161.459 132.239 160.183 132.284 158.618 131.891L152.159 130.269L155.626 116.458L161.872 118.026C163.32 118.389 164.343 118.997 164.941 119.848C165.538 120.699 165.704 121.654 165.438 122.715C165.097 124.073 164.234 124.908 162.85 125.22ZM161.137 120.13L157.704 119.268L156.798 122.876L160.232 123.738C160.891 123.904 161.436 123.869 161.867 123.633C162.313 123.388 162.609 122.974 162.755 122.392C162.892 121.849 162.818 121.377 162.534 120.976C162.249 120.574 161.784 120.292 161.137 120.13ZM155.323 128.754L159.028 129.684C159.765 129.869 160.368 129.849 160.837 129.623C161.31 129.384 161.622 128.961 161.775 128.353C162.096 127.072 161.5 126.242 159.987 125.863L156.282 124.933L155.323 128.754ZM176.733 134.664C175.135 135.665 173.301 135.906 171.232 135.387C169.163 134.867 167.66 133.789 166.724 132.152C165.791 130.502 165.595 128.597 166.137 126.437C166.679 124.278 167.751 122.691 169.353 121.677C170.952 120.676 172.785 120.435 174.854 120.954C176.924 121.474 178.426 122.552 179.363 124.189C180.289 125.81 180.478 127.714 179.93 129.899C179.381 132.085 178.316 133.673 176.733 134.664ZM168.873 127.124C168.493 128.637 168.574 129.929 169.116 131C169.659 132.071 170.557 132.763 171.811 133.078C173.079 133.396 174.204 133.212 175.188 132.524C176.155 131.846 176.831 130.743 177.214 129.217C177.597 127.691 177.522 126.401 176.989 125.346C176.447 124.275 175.542 123.581 174.275 123.263C173.021 122.948 171.902 123.134 170.918 123.822C169.934 124.51 169.252 125.611 168.873 127.124ZM191.72 138.426C190.121 139.427 188.288 139.668 186.219 139.148C184.149 138.629 182.647 137.551 181.71 135.914C180.777 134.263 180.582 132.359 181.124 130.199C181.666 128.039 182.738 126.452 184.34 125.439C185.938 124.438 187.772 124.197 189.841 124.716C191.91 125.236 193.413 126.314 194.349 127.951C195.276 129.572 195.465 131.475 194.916 133.661C194.368 135.846 193.302 137.435 191.72 138.426ZM183.859 130.885C183.479 132.399 183.561 133.691 184.103 134.761C184.645 135.832 185.544 136.525 186.798 136.84C188.065 137.158 189.191 136.973 190.175 136.285C191.142 135.607 191.817 134.505 192.2 132.979C192.583 131.453 192.509 130.163 191.976 129.108C191.434 128.037 190.529 127.343 189.262 127.025C188.007 126.71 186.888 126.896 185.904 127.584C184.921 128.272 184.239 129.372 183.859 130.885ZM196.607 126.744L208.091 129.627L207.502 131.974L203.079 130.864L200.202 142.328L197.563 141.666L200.441 130.202L196.018 129.092L196.607 126.744ZM211.186 145.415C209.194 144.915 207.748 143.858 206.847 142.244C205.934 140.626 205.753 138.718 206.305 136.519C206.86 134.308 207.915 132.703 209.472 131.706C211.012 130.718 212.791 130.477 214.808 130.983C216.425 131.389 217.693 132.168 218.614 133.32C219.534 134.472 219.931 135.905 219.803 137.619L217.146 136.952C217.14 135.988 216.879 135.194 216.362 134.569C215.861 133.935 215.152 133.503 214.234 133.272C213.005 132.964 211.925 133.16 210.993 133.861C210.077 134.552 209.426 135.667 209.04 137.206C208.65 138.758 208.696 140.055 209.177 141.096C209.658 142.138 210.519 142.815 211.76 143.126C212.717 143.367 213.61 143.288 214.438 142.891C215.266 142.494 215.878 141.809 216.274 140.836L218.892 141.494C218.283 143.21 217.257 144.396 215.814 145.051C214.384 145.709 212.841 145.831 211.186 145.415ZM231.273 150.127L228.499 149.431L228.177 146.113L222.124 144.594L220.293 147.371L217.597 146.695L226.32 134.203L229.385 134.972L231.273 150.127ZM224.378 141.2L223.48 142.563L227.941 143.682L227.773 142.052C227.609 140.788 227.436 139.067 227.254 136.891C226.308 138.358 225.35 139.795 224.378 141.2ZM242.789 145.327L246.748 139.33L250.55 140.284L247.084 154.096L244.581 153.468L245.638 149.258C246.287 146.672 246.886 144.396 247.434 142.43C246.906 143.329 246.291 144.302 245.588 145.349L240.818 152.523L238.665 151.983L237.829 143.401C237.698 141.842 237.618 140.709 237.59 140C237.148 141.979 236.604 144.255 235.958 146.829L234.902 151.038L232.38 150.405L235.847 136.594L239.649 137.548L240.35 144.859C240.391 145.35 240.473 146.697 240.593 148.9C241.368 147.568 242.1 146.377 242.789 145.327ZM252.917 140.878L258.989 142.402C260.528 142.789 261.622 143.496 262.271 144.525C262.936 145.545 263.095 146.746 262.747 148.13C262.403 149.501 261.696 150.485 260.625 151.082C259.57 151.669 258.273 151.77 256.734 151.384L253.281 150.517L252.069 155.347L249.45 154.69L252.917 140.878ZM253.846 148.267L257.183 149.104C257.946 149.296 258.575 149.254 259.07 148.98C259.581 148.696 259.927 148.192 260.109 147.468C260.291 146.743 260.224 146.135 259.907 145.644C259.604 145.155 259.07 144.815 258.307 144.623L254.971 143.786L253.846 148.267ZM269.933 145.149L275.209 146.474C277.421 147.029 278.973 148.072 279.868 149.602C280.759 151.146 280.937 152.984 280.401 155.118C279.865 157.252 278.842 158.782 277.331 159.709C275.817 160.648 273.954 160.841 271.742 160.285L266.466 158.961L269.933 145.149ZM269.65 157.368L272.268 158.025C273.626 158.366 274.773 158.235 275.708 157.631C276.646 157.014 277.305 155.949 277.685 154.436C278.065 152.923 277.985 151.68 277.446 150.706C276.91 149.719 275.963 149.055 274.606 148.714L271.987 148.057L269.65 157.368ZM292.131 165.403L289.357 164.707L289.035 161.389L282.983 159.869L281.151 162.647L278.455 161.97L287.179 149.478L290.244 150.248L292.131 165.403ZM285.237 156.476L284.338 157.838L288.8 158.958L288.631 157.328C288.468 156.064 288.295 154.343 288.112 152.166C287.167 153.634 286.208 155.07 285.237 156.476ZM293.787 151.137L305.271 154.02L304.682 156.367L300.259 155.257L297.381 166.721L294.743 166.059L297.621 154.594L293.198 153.484L293.787 151.137ZM316.874 156.932L316.285 159.279L308.72 157.38L307.902 160.639L314.749 162.358L314.185 164.608L307.337 162.889L306.431 166.497L313.958 168.387L313.369 170.734L303.224 168.187L306.69 154.376L316.874 156.932Z" fill="black"/>
</g>
<defs>
<filter id="filter0_d_235_3269" x="0.229004" y="0.494141" width="455.035" height="333.33" filterUnits="userSpaceOnUse" color-interpolation-filters="sRGB">
<feFlood flood-opacity="0" result="BackgroundImageFix"/>
<feColorMatrix in="SourceAlpha" type="matrix" values="0 0 0 0 0 0 0 0 0 0 0 0 0 0 0 0 0 0 127 0" result="hardAlpha"/>
<feOffset dy="4"/>
<feGaussianBlur stdDeviation="40"/>
<feComposite in2="hardAlpha" operator="out"/>
<feColorMatrix type="matrix" values="0 0 0 0 0 0 0 0 0 0 0 0 0 0 0 0 0 0 0.1 0"/>
<feBlend mode="normal" in2="BackgroundImageFix" result="effect1_dropShadow_235_3269"/>
<feBlend mode="normal" in="SourceGraphic" in2="effect1_dropShadow_235_3269" result="shape"/>
</filter>
</defs>
</svg>
