<svg width="1108" height="666" viewBox="0 0 1108 666" fill="none" xmlns="http://www.w3.org/2000/svg">
<path d="M70.1639 183.252C73.151 183.252 75.6845 181.316 76.4589 178.429L81.1719 160.927L98.984 153.193C101.584 152.065 103.155 149.41 102.878 146.588C102.602 143.767 100.566 141.455 97.8002 140.846L79.092 136.709L72.6642 118.919C71.7238 116.308 69.312 114.615 66.5351 114.615C63.5258 114.615 60.9149 116.651 60.1958 119.583L55.7151 137.848L38.5668 144.276C35.8342 145.305 34.1415 147.938 34.3517 150.848C34.5619 153.757 36.6086 156.125 39.463 156.745L57.1312 160.617L64.0569 179.026C65.0194 181.593 67.4201 183.252 70.1528 183.252H70.1639Z" fill="white"/>
<path d="M58.4253 141.554L40.1265 148.414C38.1683 149.144 38.3785 151.976 40.4142 152.419L59.3215 156.567C60.0185 156.722 60.5827 157.209 60.8372 157.873L68.2054 177.466C68.9245 179.369 71.6571 179.236 72.1882 177.278L77.1888 158.692C77.3548 158.072 77.7863 157.574 78.3726 157.32L97.2246 149.144C99.0833 148.336 98.8288 145.615 96.8485 145.183L76.8901 140.769C76.1931 140.614 75.6178 140.105 75.3744 139.43L68.5151 120.434C67.8071 118.487 65.0081 118.631 64.5102 120.645L59.7308 140.105C59.5649 140.78 59.0781 141.322 58.4364 141.565L58.4253 141.554Z" fill="#FEBD03"/>
<path d="M23.131 123.523C25.0594 123.523 26.695 122.273 27.1949 120.409L30.2376 109.11L41.7366 104.118C43.4151 103.389 44.4293 101.675 44.2507 99.8536C44.0722 98.0323 42.758 96.5396 40.9724 96.1468L28.8948 93.4755L24.7451 81.9908C24.1381 80.3052 22.581 79.2124 20.7883 79.2124C18.8456 79.2124 17.16 80.5266 16.6958 82.4193L13.8032 94.2112L2.73262 98.3609C0.968483 99.0251 -0.12429 100.725 0.0114136 102.603C0.147118 104.482 1.46844 106.01 3.31115 106.41L14.7174 108.91L19.1884 120.795C19.8098 122.452 21.3597 123.523 23.1238 123.523H23.131Z" fill="white"/>
<path d="M15.5514 96.6042L3.73803 101.032C2.47384 101.504 2.60954 103.332 3.92372 103.618L16.1299 106.296C16.5798 106.396 16.9441 106.711 17.1084 107.139L21.8651 119.788C22.3294 121.017 24.0935 120.931 24.4364 119.667L27.6647 107.668C27.7718 107.268 28.0504 106.946 28.4289 106.782L40.5994 101.504C41.7993 100.982 41.635 99.2254 40.3565 98.9469L27.4718 96.0971C27.0219 95.9971 26.6505 95.6686 26.4933 95.2329L22.0651 82.9696C21.608 81.7125 19.801 81.8054 19.4796 83.1053L16.3942 95.6686C16.287 96.1042 15.9728 96.4542 15.5585 96.6113L15.5514 96.6042Z" fill="#F2A0FF"/>
<path d="M1037.75 584.252C1034.76 584.252 1032.23 582.316 1031.45 579.429L1026.74 561.927L1008.93 554.193C1006.33 553.065 1004.76 550.41 1005.03 547.588C1005.31 544.767 1007.35 542.455 1010.11 541.846L1028.82 537.709L1035.25 519.919C1036.19 517.308 1038.6 515.615 1041.38 515.615C1044.39 515.615 1047 517.651 1047.72 520.583L1052.2 538.848L1069.34 545.276C1072.08 546.305 1073.77 548.938 1073.56 551.848C1073.35 554.757 1071.3 557.125 1068.45 557.745L1050.78 561.617L1043.85 580.026C1042.89 582.593 1040.49 584.252 1037.76 584.252H1037.75Z" fill="white"/>
<path d="M1049.49 542.554L1067.78 549.414C1069.74 550.144 1069.53 552.976 1067.5 553.419L1048.59 557.567C1047.89 557.722 1047.33 558.209 1047.07 558.873L1039.71 578.466C1038.99 580.369 1036.25 580.236 1035.72 578.278L1030.72 559.692C1030.56 559.072 1030.12 558.574 1029.54 558.32L1010.69 550.144C1008.83 549.336 1009.08 546.615 1011.06 546.183L1031.02 541.769C1031.72 541.614 1032.29 541.105 1032.54 540.43L1039.4 521.434C1040.1 519.487 1042.9 519.631 1043.4 521.645L1048.18 541.105C1048.35 541.78 1048.83 542.322 1049.47 542.565L1049.49 542.554Z" fill="#FEBD03"/>
<path d="M1084.78 524.523C1082.85 524.523 1081.22 523.273 1080.72 521.409L1077.67 510.11L1066.17 505.118C1064.5 504.389 1063.48 502.675 1063.66 500.854C1063.84 499.032 1065.15 497.54 1066.94 497.147L1079.02 494.476L1083.17 482.991C1083.77 481.305 1085.33 480.212 1087.12 480.212C1089.07 480.212 1090.75 481.527 1091.22 483.419L1094.11 495.211L1105.18 499.361C1106.94 500.025 1108.04 501.725 1107.9 503.603C1107.76 505.482 1106.44 507.01 1104.6 507.41L1093.19 509.91L1088.72 521.795C1088.1 523.452 1086.55 524.523 1084.79 524.523H1084.78Z" fill="white"/>
<path d="M1092.36 497.604L1104.17 502.032C1105.44 502.504 1105.3 504.332 1103.99 504.618L1091.78 507.296C1091.33 507.396 1090.97 507.711 1090.8 508.139L1086.05 520.788C1085.58 522.017 1083.82 521.931 1083.47 520.667L1080.25 508.668C1080.14 508.268 1079.86 507.946 1079.48 507.782L1067.31 502.504C1066.11 501.982 1066.28 500.225 1067.55 499.947L1080.44 497.097C1080.89 496.997 1081.26 496.669 1081.42 496.233L1085.85 483.97C1086.3 482.713 1088.11 482.805 1088.43 484.105L1091.52 496.669C1091.62 497.104 1091.94 497.454 1092.35 497.611L1092.36 497.604Z" fill="#F2A0FF"/>
<g filter="url(#filter0_d_250_3)">
<path d="M274.617 233.993C267.879 236.205 260.547 234.14 255.941 228.748L246.431 217.58C241.787 218.388 237.029 216.708 233.904 213.028C231.137 209.775 230.192 205.52 231.006 201.59L228.086 198.154C226.468 198.826 224.84 199.422 223.195 199.963C198.633 208.025 172.849 201.591 157.523 183.574C146.951 171.165 142.46 154.921 144.87 137.861C147.246 121.124 155.993 105.568 169.525 94.0508C176.896 87.7823 185.19 83.096 194.165 80.1498C218.727 72.0871 244.492 78.5118 259.832 96.5239C274.879 114.212 277.321 139.403 266.51 161.917L271.102 167.313C275.232 167.079 279.303 168.751 282.074 172.017C284.407 174.758 285.533 178.237 285.246 181.822C285.151 182.959 284.922 184.063 284.561 185.101L294.071 196.269C300.288 203.579 299.395 214.578 292.1 220.79L280.457 230.705C278.727 232.177 276.765 233.273 274.613 233.979L274.617 233.993Z" fill="white"/>
<path d="M254.192 101.322C268.602 118.253 269.187 142.729 257.642 162.912L266.873 173.752C269.77 177.164 269.362 182.284 265.954 185.195L249.437 199.25C246.025 202.147 240.904 201.74 237.993 198.332L230.123 189.072C206.77 201.008 179.082 197.458 163.192 178.77C144.205 156.485 149.194 121.078 174.337 99.6878C199.479 78.2977 235.238 79.0418 254.211 101.331L254.192 101.322Z" fill="#FEBD03"/>
<path d="M248.871 199.138L246.129 199.758C242.624 184.094 234.895 169.38 224.031 157.55C220.993 159.311 217.321 159.613 214.048 159.659C211.037 159.696 207.512 159.544 204.316 158.256C200.694 156.812 198.061 154.014 197.252 150.789C196.622 148.253 197.247 145.741 198.883 144.222C199.734 143.444 200.846 142.892 202.285 142.576C207.689 141.379 213.494 143.681 220.078 149.638C221.546 150.979 222.977 152.348 224.366 153.778C225.368 152.748 226.076 151.487 226.579 150.122C225.331 148.553 224.084 146.936 222.818 145.264C218.443 139.485 213.759 132.669 213.378 124.863C213.318 123.636 213.387 121.852 214.587 120.57C215.335 119.763 216.349 119.337 217.486 119.338C219.575 119.338 221.619 120.724 222.821 122.012C227.616 127.124 230.311 134.576 230.413 143.004C230.44 145.411 230.205 147.592 229.7 149.518C242.927 165.934 255.118 176.346 268.611 182.841L267.386 185.378C253.871 178.86 241.665 168.592 228.572 152.585C227.967 153.827 227.198 154.905 226.295 155.81C237.393 167.968 245.311 183.072 248.895 199.115L248.871 199.138ZM202.187 145.506C201.596 145.7 201.122 145.965 200.774 146.282C199.905 147.097 199.584 148.589 199.956 150.103C200.54 152.452 202.558 154.517 205.344 155.644C208.073 156.742 211.12 156.864 213.995 156.84C216.664 156.805 219.606 156.603 222.013 155.439C220.769 154.164 219.477 152.936 218.162 151.732C212.325 146.433 207.324 144.35 202.881 145.341C202.633 145.391 202.403 145.451 202.192 145.521L202.187 145.506ZM217.029 122.215C216.86 122.271 216.719 122.364 216.592 122.499C216.234 122.881 216.095 123.597 216.141 124.735C216.479 131.745 220.898 138.133 225.022 143.574C225.813 144.608 226.585 145.632 227.363 146.624C227.532 145.384 227.58 144.152 227.562 143.052C227.471 135.321 225.043 128.545 220.733 123.96C219.75 122.911 218.387 122.175 217.45 122.17C217.296 122.174 217.16 122.188 217.033 122.229L217.029 122.215Z" fill="#412945"/>
<path d="M276.451 176.826C278.612 179.373 278.309 183.197 275.761 185.358L275.362 185.707L288.448 201.078C292.025 205.28 291.523 211.584 287.316 215.147L275.673 225.062C271.471 228.639 265.166 228.137 261.604 223.93L253.962 214.938L255.487 206.911L248.531 208.555L248.118 208.909C245.57 211.07 241.746 210.767 239.585 208.219C237.425 205.672 237.728 201.848 240.275 199.687L267.951 176.141C270.499 173.98 274.323 174.283 276.484 176.83L276.451 176.826Z" fill="#B5E1E8"/>
<path d="M275.362 185.706L253.934 214.947L248.504 208.564L275.362 185.706Z" fill="#412945"/>
<path d="M218.394 97.6597C219.724 97.722 221.024 97.9339 222.296 98.2956C222.881 98.4621 223.46 98.6614 224.04 98.8607C224.638 99.0695 225.256 99.2877 225.792 99.6413C226.563 100.136 227.413 100.496 228.33 100.631C228.92 100.718 229.524 100.66 230.091 100.49C230.959 100.236 231.743 99.7294 232.369 99.0721C234.138 97.1979 234.056 93.5314 231.548 92.2043C227.045 89.8333 220.589 86.5918 215.74 89.4304C212.591 91.9444 214.345 97.4773 218.394 97.6597Z" fill="#F7EDE5"/>
<path d="M237.141 107.96C242.042 111.307 245.624 116.38 247.917 121.799C247.936 121.855 247.954 121.911 247.987 121.963C250.466 127.476 259.029 123.512 256.475 118.008C253.51 110.924 248.547 104.777 242.407 100.217C237.455 96.7622 232.138 104.538 237.141 107.96Z" fill="#F7EDE5"/>
</g>
<g filter="url(#filter1_d_250_3)">
<path d="M951.231 573.856C950.645 574.179 950.097 574.481 949.581 574.752C944.726 577.341 938.778 576.85 934.424 573.509C928.354 568.884 927.096 560.365 931.578 554.126C932.054 553.47 932.572 552.778 933.118 552.046C936.534 547.516 940.403 542.379 939.405 535.515C939.179 533.964 938.817 532.525 938.34 531.212C934.896 533.479 932.119 535.144 930.283 536.193L924.973 550.967L923.641 550.137C922.218 553.076 920.362 556.032 918.061 558.988C912.1 566.656 904.448 573.2 895.935 577.89C895.576 578.088 895.227 578.281 894.868 578.479C891.922 580.04 888.343 581.569 884.081 581.121C877.414 580.422 872.48 574.753 873.084 568.471C873.309 566.13 874.256 564.34 874.812 563.27C874.897 563.112 874.978 562.944 875.063 562.787C875.665 561.531 875.522 559.282 874.675 556.448C874.346 555.36 873.953 554.222 873.529 553.027C872.575 550.313 871.496 547.237 871.018 543.843C870.096 537.318 871.539 530.661 875.058 525.088C876.298 523.136 877.777 521.349 879.47 519.751L888.632 510.269C888.768 508.125 889.041 504.908 889.549 500.846C888.165 500.993 886.709 501.303 885.218 501.792C884.269 502.105 883.372 502.488 882.531 502.952C877.798 505.56 875.332 510.429 873.157 514.73C872.746 515.548 872.356 516.317 871.969 517.023C870.681 519.445 868.727 521.421 866.327 522.743C862.283 524.971 857.41 525.069 853.297 523.013C848.401 520.587 845.338 515.475 845.515 509.983C845.519 509.611 845.54 509.181 845.561 508.726C846.086 496.244 848.278 479.209 855.78 469.04C859 464.668 864.165 458.373 871.809 454.162C879.453 449.95 888.703 448.364 899.261 449.777C900.232 449.907 901.227 450.06 902.239 450.242C906.878 438.03 912.532 426.428 919.079 415.666C926.922 402.784 936.664 391.652 948.01 382.581C948.712 382.022 949.41 381.477 950.103 380.947C954.807 377.346 959.8 374.09 964.93 371.263C973.963 366.287 983.635 362.583 992.302 360.764L993.312 360.207L994.597 360.325C995.776 360.119 996.919 359.957 997.995 359.832L998.159 359.816C999.173 359.712 1000.15 359.63 1001.06 359.599L1001.35 359.587C1001.61 359.576 1001.86 359.576 1002.1 359.576L1002.45 359.581C1002.89 359.588 1003.26 359.593 1003.6 359.613C1003.8 359.624 1004.01 359.635 1004.2 359.652C1004.35 359.655 1004.55 359.681 1004.75 359.707C1004.96 359.728 1005.18 359.752 1005.39 359.782C1005.57 359.809 1005.72 359.822 1005.86 359.846C1006.23 359.904 1006.59 359.976 1006.93 360.059L1007.13 360.109L1007.37 360.187C1007.68 360.27 1007.98 360.365 1008.25 360.475C1008.43 360.535 1008.55 360.593 1008.66 360.632C1009.2 360.852 1009.68 361.094 1010.14 361.379C1018.51 366.588 1024.44 393.886 1019.64 421.352L1019.62 421.459L1019.59 421.61C1019.45 422.378 1019.31 423.156 1019.16 423.93C1019 424.772 1018.81 425.648 1018.62 426.53C1015.49 440.72 1009.8 454.374 1001.71 467.096C994.933 477.738 987.026 487.932 978.123 497.481C993.504 518.332 988.154 535.136 981.767 547.462C976.038 558.525 961.997 567.912 951.225 573.846L951.231 573.856Z" fill="white"/>
<g style="mix-blend-mode:multiply">
<path d="M1012.17 420.191C1017.17 391.906 1009.88 370.118 1006.19 367.818C1006.08 367.754 1005.95 367.692 1005.82 367.63C1005.77 367.617 1005.73 367.59 1005.69 367.577C1005.57 367.528 1005.45 367.5 1005.32 367.461C1005.27 367.449 1005.23 367.436 1005.17 367.428C1005 367.387 1004.82 367.351 1004.62 367.315C1004.54 367.299 1004.46 367.293 1004.38 367.277C1004.25 367.263 1004.11 367.239 1003.96 367.221C1003.86 367.206 1003.74 367.196 1003.62 367.186C1003.49 367.172 1003.36 367.173 1003.23 367.159C1002.98 367.149 1002.71 367.136 1002.44 367.137C1002.34 367.141 1002.25 367.13 1002.15 367.134C1001.96 367.132 1001.76 367.14 1001.56 367.143C1001.48 367.146 1001.41 367.149 1001.34 367.152C1000.62 367.181 999.822 367.237 998.976 367.333C998.957 367.344 998.943 367.34 998.919 367.34C997.712 367.476 996.378 367.669 994.955 367.948C984.936 369.859 969.804 375.413 954.709 386.957C954.057 387.451 953.402 387.96 952.751 388.479C943.132 396.168 933.626 406.344 925.551 419.587C917.301 433.136 911.367 446.665 907.088 459.086C903.954 458.226 901.018 457.614 898.28 457.25C879.131 454.684 869.28 463.474 861.888 473.508C855.101 482.716 853.506 500.209 853.135 509.036C853.112 509.442 853.099 509.843 853.09 510.206C853.003 512.754 854.411 515.107 856.696 516.237C859.854 517.81 863.671 516.557 865.343 513.444C868.375 507.77 872.054 498.107 882.912 494.588C889.266 492.528 894.36 493.01 898.151 494.259C896.2 506.074 896.046 513.462 896.046 513.462L889.652 520.077L891.241 521.061C887.238 522.626 883.755 525.469 881.457 529.1C878.919 533.122 877.856 538.055 878.517 542.765C879.076 546.731 880.784 550.433 881.937 554.269C883.08 558.11 883.627 562.39 881.904 566.013C881.414 567.046 880.729 568.039 880.62 569.183C880.402 571.446 882.636 573.356 884.896 573.589C887.155 573.822 889.351 572.846 891.366 571.786C899.413 567.524 906.546 561.537 912.13 554.347C915.726 549.718 918.739 544.301 919.369 538.559L921.053 539.602L924.164 530.942C924.164 530.942 930.72 527.551 940.465 520.581C941.507 521.645 942.532 522.903 943.457 524.425C945.018 526.99 946.297 530.251 946.902 534.388C948.546 545.688 941.495 553.256 937.74 558.49C935.687 561.358 936.242 565.338 939.046 567.476C941.068 569.022 943.8 569.242 946.05 568.051C953.425 564.111 969.581 554.581 975.095 543.956C981.084 532.405 984.682 519.017 972.063 501.927C970.889 500.333 969.559 498.701 968.078 497.041C977.328 487.72 986.851 476.413 995.355 463.033C1003.68 449.934 1008.61 436.923 1011.27 424.892C1011.45 424.078 1011.62 423.27 1011.77 422.457C1011.92 421.698 1012.06 420.944 1012.19 420.181C1012.19 420.181 1012.19 420.181 1012.19 420.171L1012.17 420.191Z" fill="white"/>
</g>
<path d="M919.443 535.316L892.523 520.614C887.983 522.031 883.973 525.103 881.435 529.125C878.897 533.146 877.834 538.08 878.495 542.79C879.054 546.756 880.762 550.458 881.914 554.294C883.057 558.135 883.605 562.415 881.881 566.038C881.392 567.071 880.707 568.064 880.598 569.208C880.38 571.471 882.614 573.381 884.864 573.619C887.123 573.853 889.32 572.876 891.334 571.816C899.381 567.554 906.515 561.567 912.099 554.377C916.365 548.886 919.837 542.268 919.443 535.316Z" fill="#FFE45E"/>
<path d="M915.902 533.117L896.104 522.311C892.761 523.352 889.819 525.613 887.948 528.566C886.077 531.518 885.295 535.151 885.786 538.612C886.197 541.527 887.45 544.248 888.301 547.068C889.143 549.892 889.549 553.043 888.279 555.701C887.924 556.464 887.412 557.189 887.334 558.032C887.179 559.695 888.814 561.097 890.477 561.277C892.14 561.457 893.757 560.726 895.237 559.947C901.162 556.818 906.399 552.418 910.513 547.121C913.654 543.075 916.212 538.218 915.911 533.112L915.902 533.117Z" fill="#FF9770"/>
<path d="M906.132 499.246C906.132 499.246 898.074 489.695 882.883 494.604C872.025 498.123 868.336 507.791 865.313 513.46C863.651 516.568 859.834 517.821 856.666 516.253C854.381 515.123 852.974 512.77 853.06 510.222C853.07 509.859 853.088 509.468 853.105 509.052C853.477 500.225 855.071 482.732 861.859 473.524C869.25 463.49 879.101 454.7 898.251 457.266C902.959 457.899 908.226 459.209 914.16 461.372L906.127 499.237L906.132 499.246Z" fill="#7371FC"/>
<g style="mix-blend-mode:multiply" opacity="0.35">
<path d="M906.135 499.246C906.135 499.246 898.076 489.694 882.885 494.603C872.027 498.122 868.338 507.791 865.315 513.459C863.653 516.567 859.836 517.82 856.669 516.252C854.383 515.122 852.976 512.769 853.062 510.221C853.072 509.859 853.09 509.467 853.107 509.051C855.542 510.296 858.84 509.575 861.133 507.881C863.783 505.916 865.485 502.97 867.471 500.337C872.922 493.084 880.993 487.861 889.834 485.823C890.75 475.884 893.639 466.126 898.253 457.266C902.962 457.898 908.228 459.209 914.162 461.371L906.129 499.236L906.135 499.246Z" fill="#7371FC"/>
</g>
<path d="M946.025 568.091C943.78 569.291 941.043 569.062 939.021 567.516C936.217 565.378 935.647 561.393 937.715 558.53C941.466 553.31 948.512 545.733 946.877 534.428C946.272 530.29 944.997 527.015 943.432 524.465C939.045 517.263 932.452 515.624 932.452 515.624L962.884 491.701C966.6 495.271 969.628 498.689 972.048 501.962C984.671 519.061 981.068 532.439 975.079 543.991C969.565 554.616 953.409 564.145 946.035 568.085L946.025 568.091Z" fill="#7371FC"/>
<g style="mix-blend-mode:multiply" opacity="0.35">
<path d="M972.04 501.953C963.547 510.66 953.9 518.254 943.424 524.457C939.037 517.254 932.444 515.615 932.444 515.615L962.876 491.693C966.592 495.262 969.62 498.68 972.04 501.953Z" fill="#7371FC"/>
</g>
<path d="M995.332 463.058C965.841 509.433 924.131 530.972 924.131 530.972L896.018 513.478C896.018 513.478 896.924 466.546 925.514 419.608C933.583 406.356 943.094 396.189 952.714 388.5C977.146 368.954 1002.27 365.396 1006.17 367.828C1010.07 370.26 1017.98 394.365 1011.23 424.922C1008.58 436.954 1003.65 449.974 995.323 463.063L995.332 463.058Z" fill="#FC296C"/>
<path d="M981.954 438.537C976.429 424.168 960.301 416.999 945.932 422.524C931.563 428.05 924.393 444.177 929.919 458.547C935.444 472.916 951.572 480.085 965.941 474.56C980.31 469.034 987.48 452.907 981.954 438.537Z" fill="#7371FC"/>
<path d="M973.058 459.207C967.169 468.659 954.736 471.556 945.284 465.666C935.831 459.777 932.935 447.344 938.824 437.892C944.714 428.44 957.146 425.543 966.599 431.433C976.051 437.322 978.947 449.755 973.058 459.207Z" fill="#FDFAF3"/>
<path d="M966.602 431.433C961.507 428.267 955.548 427.645 950.208 429.22C953.882 429.204 957.61 430.18 960.962 432.262C970.414 438.151 973.31 450.584 967.421 460.036C964.713 464.398 960.602 467.353 956.04 468.709C962.735 468.678 969.263 465.303 973.071 459.202C978.96 449.75 976.058 437.308 966.611 431.428L966.602 431.433Z" fill="#DFE4F2"/>
<path d="M1011.24 424.917C1001.13 423.052 989.811 418.632 978.814 411.796C967.827 404.954 958.862 396.752 952.723 388.494C977.155 368.949 1002.28 365.391 1006.18 367.823C1010.08 370.255 1017.99 394.36 1011.24 424.917Z" fill="#7371FC"/>
<path d="M981.532 407.428C971.184 400.985 962.637 393.341 956.547 385.574C955.276 386.509 953.996 387.472 952.724 388.494C958.862 396.751 967.828 404.953 978.815 411.795C989.802 418.637 1001.12 423.056 1011.24 424.916C1011.6 423.318 1011.9 421.747 1012.17 420.191C1002.52 418.158 991.89 413.865 981.542 407.423L981.532 407.428Z" fill="white"/>
<g style="mix-blend-mode:multiply" opacity="0.35">
<path d="M1011.24 424.917C1017.99 394.36 1010.09 370.25 1006.18 367.823C1004.79 366.961 1000.7 366.854 994.912 367.959C997.737 378.227 999.473 395.216 995.121 414.881C992.464 426.913 987.543 439.933 979.211 453.022C949.719 499.397 908.01 520.936 908.01 520.936L924.126 530.963C924.126 530.963 965.836 509.423 995.327 463.048C1003.65 449.95 1008.58 436.939 1011.24 424.907L1011.24 424.917Z" fill="#7371FC"/>
</g>
<path d="M924.131 530.972L910.074 522.225L896.032 513.482L889.638 520.096L905.329 529.864L921.02 539.632L924.131 530.972Z" fill="#181851"/>
<g style="mix-blend-mode:soft-light" opacity="0.5">
<path d="M980.12 414.279C970.509 423.392 958.085 425.902 952.374 419.873C946.668 413.853 949.832 401.579 959.443 392.465C969.054 383.352 981.478 380.842 987.189 386.871C992.895 392.891 989.731 405.165 980.12 414.279Z" fill="white"/>
</g>
<path d="M938.527 476.534L928.798 470.477L896.206 532.552C894.34 536.117 895.038 540.179 897.831 541.917C900.623 543.654 904.58 542.497 906.951 539.244L948.247 482.596L938.518 476.54L938.527 476.534Z" fill="#7371FC"/>
<g style="mix-blend-mode:multiply" opacity="0.35">
<path d="M897.83 541.917C898.811 542.535 899.941 542.774 901.087 542.709C899.968 540.678 899.977 537.877 901.319 535.327L933.739 473.569L928.788 470.483L896.196 532.558C894.33 536.123 895.028 540.185 897.821 541.923L897.83 541.917Z" fill="#7371FC"/>
</g>
</g>
<defs>
<filter id="filter0_d_250_3" x="64.2344" y="0.719238" width="313.975" height="318.149" filterUnits="userSpaceOnUse" color-interpolation-filters="sRGB">
<feFlood flood-opacity="0" result="BackgroundImageFix"/>
<feColorMatrix in="SourceAlpha" type="matrix" values="0 0 0 0 0 0 0 0 0 0 0 0 0 0 0 0 0 0 127 0" result="hardAlpha"/>
<feOffset dy="4"/>
<feGaussianBlur stdDeviation="40"/>
<feComposite in2="hardAlpha" operator="out"/>
<feColorMatrix type="matrix" values="0 0 0 0 0 0 0 0 0 0 0 0 0 0 0 0 0 0 0.1 0"/>
<feBlend mode="normal" in2="BackgroundImageFix" result="effect1_dropShadow_250_3"/>
<feBlend mode="normal" in="SourceGraphic" in2="effect1_dropShadow_250_3" result="shape"/>
</filter>
<filter id="filter1_d_250_3" x="765.507" y="283.576" width="335.85" height="381.624" filterUnits="userSpaceOnUse" color-interpolation-filters="sRGB">
<feFlood flood-opacity="0" result="BackgroundImageFix"/>
<feColorMatrix in="SourceAlpha" type="matrix" values="0 0 0 0 0 0 0 0 0 0 0 0 0 0 0 0 0 0 127 0" result="hardAlpha"/>
<feOffset dy="4"/>
<feGaussianBlur stdDeviation="40"/>
<feComposite in2="hardAlpha" operator="out"/>
<feColorMatrix type="matrix" values="0 0 0 0 0 0 0 0 0 0 0 0 0 0 0 0 0 0 0.1 0"/>
<feBlend mode="normal" in2="BackgroundImageFix" result="effect1_dropShadow_250_3"/>
<feBlend mode="normal" in="SourceGraphic" in2="effect1_dropShadow_250_3" result="shape"/>
</filter>
</defs>
</svg>
