<svg width="259" height="301" viewBox="0 0 259 301" fill="none" xmlns="http://www.w3.org/2000/svg">
<path d="M90.7013 9.528L90.7853 10.908C90.8253 11.388 90.9293 11.752 91.0973 12H90.0533C89.8773 11.744 89.7853 11.364 89.7773 10.86L89.7413 9.948C89.7173 9.372 89.5893 8.964 89.3573 8.724C89.1253 8.476 88.7453 8.352 88.2173 8.352H85.4333V12H84.4253V3.456H88.0373C88.9173 3.456 89.6173 3.66 90.1373 4.068C90.6653 4.476 90.9293 5.048 90.9293 5.784C90.9293 6.304 90.8013 6.744 90.5453 7.104C90.2973 7.456 89.9573 7.704 89.5253 7.848C90.2453 8.072 90.6373 8.632 90.7013 9.528ZM85.4333 7.44H88.1573C88.6933 7.44 89.1133 7.304 89.4173 7.032C89.7293 6.752 89.8853 6.356 89.8853 5.844C89.8853 5.356 89.7213 4.988 89.3933 4.74C89.0733 4.492 88.6213 4.368 88.0373 4.368H85.4333V7.44ZM97.5645 8.904V9.24H92.8605C92.9085 9.912 93.0965 10.42 93.4245 10.764C93.7525 11.1 94.2005 11.268 94.7685 11.268C95.6245 11.268 96.1725 10.884 96.4125 10.116H97.4085C97.2405 10.74 96.9285 11.236 96.4725 11.604C96.0165 11.964 95.4405 12.144 94.7445 12.144C93.8885 12.144 93.1965 11.852 92.6685 11.268C92.1325 10.684 91.8645 9.896 91.8645 8.904C91.8645 7.928 92.1285 7.144 92.6565 6.552C93.1765 5.96 93.8645 5.664 94.7205 5.664C95.6085 5.664 96.3045 5.972 96.8085 6.588C97.3125 7.204 97.5645 7.976 97.5645 8.904ZM94.7205 6.54C94.2165 6.54 93.8045 6.7 93.4845 7.02C93.1645 7.332 92.9645 7.784 92.8845 8.376H96.5325C96.4845 7.832 96.3005 7.392 95.9805 7.056C95.6605 6.712 95.2405 6.54 94.7205 6.54ZM103.508 6.708V5.808H104.42V11.76C104.42 12.608 104.172 13.276 103.676 13.764C103.18 14.252 102.468 14.496 101.54 14.496C100.772 14.496 100.156 14.32 99.6916 13.968C99.2276 13.616 98.9636 13.128 98.8996 12.504H99.8596C99.9796 13.288 100.54 13.68 101.54 13.68C102.82 13.68 103.46 13.04 103.46 11.76V11.16C102.972 11.816 102.28 12.144 101.384 12.144C100.512 12.144 99.8156 11.848 99.2956 11.256C98.7676 10.664 98.5036 9.88 98.5036 8.904C98.5036 7.912 98.7676 7.124 99.2956 6.54C99.8076 5.956 100.504 5.664 101.384 5.664C102.304 5.664 103.012 6.012 103.508 6.708ZM101.504 11.28C102.112 11.28 102.596 11.068 102.956 10.644C103.316 10.22 103.496 9.64 103.496 8.904C103.496 8.168 103.316 7.588 102.956 7.164C102.596 6.74 102.112 6.528 101.504 6.528C100.904 6.528 100.42 6.744 100.052 7.176C99.6916 7.608 99.5116 8.184 99.5116 8.904C99.5116 9.624 99.6916 10.2 100.052 10.632C100.42 11.064 100.904 11.28 101.504 11.28ZM106.942 4.872H105.922V3.696H106.942V4.872ZM106.918 12H105.958V5.808H106.918V12ZM110.645 12.144C108.989 12.144 108.113 11.44 108.017 10.032H108.989C109.045 10.496 109.197 10.828 109.445 11.028C109.701 11.22 110.101 11.316 110.645 11.316C111.637 11.316 112.133 10.996 112.133 10.356C112.133 10.076 112.029 9.864 111.821 9.72C111.621 9.576 111.253 9.452 110.717 9.348L110.141 9.24C108.853 9 108.209 8.392 108.209 7.416C108.209 6.88 108.409 6.456 108.809 6.144C109.217 5.824 109.769 5.664 110.465 5.664C112.105 5.664 112.945 6.348 112.985 7.716H112.025C112.001 7.268 111.865 6.952 111.617 6.768C111.369 6.584 110.985 6.492 110.465 6.492C110.049 6.492 109.729 6.572 109.505 6.732C109.281 6.892 109.169 7.116 109.169 7.404C109.169 7.676 109.265 7.88 109.457 8.016C109.649 8.152 109.969 8.268 110.417 8.364L110.969 8.472C111.729 8.624 112.273 8.84 112.601 9.12C112.937 9.4 113.105 9.792 113.105 10.296C113.105 10.88 112.885 11.336 112.445 11.664C112.013 11.984 111.413 12.144 110.645 12.144ZM116.757 5.808V6.648H115.485V10.668C115.485 11.02 115.721 11.196 116.193 11.196H116.757V12C116.493 12.024 116.265 12.036 116.073 12.036C115.041 12.036 114.525 11.608 114.525 10.752V6.648H113.505V5.808H114.525V4.056H115.485V5.808H116.757ZM123.154 8.904V9.24H118.45C118.498 9.912 118.686 10.42 119.014 10.764C119.342 11.1 119.79 11.268 120.358 11.268C121.214 11.268 121.762 10.884 122.002 10.116H122.998C122.83 10.74 122.518 11.236 122.062 11.604C121.606 11.964 121.03 12.144 120.334 12.144C119.478 12.144 118.786 11.852 118.258 11.268C117.722 10.684 117.454 9.896 117.454 8.904C117.454 7.928 117.718 7.144 118.246 6.552C118.766 5.96 119.454 5.664 120.31 5.664C121.198 5.664 121.894 5.972 122.398 6.588C122.902 7.204 123.154 7.976 123.154 8.904ZM120.31 6.54C119.806 6.54 119.394 6.7 119.074 7.02C118.754 7.332 118.554 7.784 118.474 8.376H122.122C122.074 7.832 121.89 7.392 121.57 7.056C121.25 6.712 120.83 6.54 120.31 6.54ZM127.297 5.712C127.457 5.712 127.565 5.716 127.621 5.724V6.648H127.381C126.741 6.648 126.241 6.808 125.881 7.128C125.529 7.44 125.353 7.888 125.353 8.472V12H124.393V5.808H125.305V6.9C125.721 6.108 126.385 5.712 127.297 5.712ZM136.977 6.336V3.456H137.973V12H136.749L133.917 7.596C133.101 6.3 132.509 5.336 132.141 4.704C132.165 5.824 132.177 7.296 132.177 9.12V12H131.181V3.456H132.405L135.237 7.86C136.053 9.156 136.645 10.12 137.013 10.752C136.989 9.632 136.977 8.16 136.977 6.336ZM144.436 11.256C143.868 11.848 143.148 12.144 142.276 12.144C141.404 12.144 140.684 11.848 140.116 11.256C139.556 10.672 139.276 9.888 139.276 8.904C139.276 7.92 139.556 7.136 140.116 6.552C140.684 5.96 141.404 5.664 142.276 5.664C143.148 5.664 143.868 5.96 144.436 6.552C144.996 7.136 145.276 7.92 145.276 8.904C145.276 9.888 144.996 10.672 144.436 11.256ZM140.824 10.644C141.184 11.068 141.668 11.28 142.276 11.28C142.884 11.28 143.368 11.068 143.728 10.644C144.088 10.228 144.268 9.648 144.268 8.904C144.268 8.152 144.088 7.568 143.728 7.152C143.368 6.736 142.884 6.528 142.276 6.528C141.668 6.528 141.184 6.736 140.824 7.152C140.464 7.568 140.284 8.152 140.284 8.904C140.284 9.648 140.464 10.228 140.824 10.644ZM152.805 8.604L153.681 5.808H154.713L152.649 12H151.641L150.729 9.132C150.417 8.116 150.209 7.416 150.105 7.032C149.921 7.688 149.709 8.388 149.469 9.132L148.569 12H147.561L145.497 5.808H146.529L147.405 8.604C147.621 9.284 147.845 10.036 148.077 10.86C148.333 9.948 148.553 9.196 148.737 8.604L149.601 5.808H150.609L151.473 8.604C151.913 10.068 152.137 10.812 152.145 10.836C152.209 10.588 152.429 9.844 152.805 8.604ZM163.046 11.22H163.394V12C163.234 12.024 163.058 12.036 162.866 12.036C162.218 12.036 161.87 11.74 161.822 11.148C161.39 11.812 160.718 12.144 159.806 12.144C159.126 12.144 158.59 11.988 158.198 11.676C157.814 11.356 157.622 10.908 157.622 10.332C157.622 9.212 158.386 8.572 159.914 8.412L160.802 8.316C161.45 8.244 161.774 7.96 161.774 7.464C161.774 7.12 161.666 6.872 161.45 6.72C161.242 6.568 160.886 6.492 160.382 6.492C159.846 6.492 159.458 6.584 159.218 6.768C158.986 6.944 158.854 7.26 158.822 7.716H157.862C157.942 6.348 158.782 5.664 160.382 5.664C161.934 5.664 162.71 6.264 162.71 7.464V10.92C162.71 11.12 162.822 11.22 163.046 11.22ZM159.854 11.328C160.366 11.328 160.814 11.172 161.198 10.86C161.582 10.556 161.774 10.12 161.774 9.552V8.82C161.598 8.956 161.326 9.044 160.958 9.084L160.058 9.192C159.538 9.256 159.166 9.376 158.942 9.552C158.726 9.728 158.618 9.98 158.618 10.308C158.618 10.628 158.722 10.88 158.93 11.064C159.138 11.24 159.446 11.328 159.854 11.328ZM167.196 5.664C167.884 5.664 168.42 5.852 168.804 6.228C169.188 6.604 169.38 7.132 169.38 7.812V12H168.42V7.908C168.42 6.988 167.948 6.528 167.004 6.528C166.556 6.528 166.16 6.696 165.816 7.032C165.472 7.368 165.3 7.856 165.3 8.496V12H164.34V5.808H165.252V6.732C165.724 6.02 166.372 5.664 167.196 5.664ZM175.576 6.696V3.456H176.536V12H175.624V11.04C175.128 11.776 174.42 12.144 173.5 12.144C172.628 12.144 171.932 11.848 171.412 11.256C170.884 10.664 170.62 9.88 170.62 8.904C170.62 7.912 170.884 7.124 171.412 6.54C171.924 5.956 172.62 5.664 173.5 5.664C174.388 5.664 175.08 6.008 175.576 6.696ZM171.628 8.952C171.628 9.688 171.808 10.26 172.168 10.668C172.528 11.076 173.012 11.28 173.62 11.28C174.228 11.28 174.712 11.068 175.072 10.644C175.432 10.228 175.612 9.648 175.612 8.904C175.612 8.168 175.432 7.588 175.072 7.164C174.712 6.74 174.228 6.528 173.62 6.528C173.02 6.528 172.536 6.748 172.168 7.188C171.808 7.62 171.628 8.208 171.628 8.952ZM100.706 19.456H107.558V20.368H104.654V28H103.61V20.368H100.706V19.456ZM112.244 27.22H112.592V28C112.432 28.024 112.256 28.036 112.064 28.036C111.416 28.036 111.068 27.74 111.02 27.148C110.588 27.812 109.916 28.144 109.004 28.144C108.324 28.144 107.788 27.988 107.396 27.676C107.012 27.356 106.82 26.908 106.82 26.332C106.82 25.212 107.584 24.572 109.112 24.412L110 24.316C110.648 24.244 110.972 23.96 110.972 23.464C110.972 23.12 110.864 22.872 110.648 22.72C110.44 22.568 110.084 22.492 109.58 22.492C109.044 22.492 108.656 22.584 108.416 22.768C108.184 22.944 108.052 23.26 108.02 23.716H107.06C107.14 22.348 107.98 21.664 109.58 21.664C111.132 21.664 111.908 22.264 111.908 23.464V26.92C111.908 27.12 112.02 27.22 112.244 27.22ZM109.052 27.328C109.564 27.328 110.012 27.172 110.396 26.86C110.78 26.556 110.972 26.12 110.972 25.552V24.82C110.796 24.956 110.524 25.044 110.156 25.084L109.256 25.192C108.736 25.256 108.364 25.376 108.14 25.552C107.924 25.728 107.816 25.98 107.816 26.308C107.816 26.628 107.92 26.88 108.128 27.064C108.336 27.24 108.644 27.328 109.052 27.328ZM118.747 28H117.631L115.543 24.676L114.439 25.708V28H113.479V19.456H114.439V24.58L117.307 21.808H118.579L116.227 24.04L118.747 28ZM124.604 24.904V25.24H119.9C119.948 25.912 120.136 26.42 120.464 26.764C120.792 27.1 121.24 27.268 121.808 27.268C122.664 27.268 123.212 26.884 123.452 26.116H124.448C124.28 26.74 123.968 27.236 123.512 27.604C123.056 27.964 122.48 28.144 121.784 28.144C120.928 28.144 120.236 27.852 119.708 27.268C119.172 26.684 118.904 25.896 118.904 24.904C118.904 23.928 119.168 23.144 119.696 22.552C120.216 21.96 120.904 21.664 121.76 21.664C122.648 21.664 123.344 21.972 123.848 22.588C124.352 23.204 124.604 23.976 124.604 24.904ZM121.76 22.54C121.256 22.54 120.844 22.7 120.524 23.02C120.204 23.332 120.004 23.784 119.924 24.376H123.572C123.524 23.832 123.34 23.392 123.02 23.056C122.7 22.712 122.28 22.54 121.76 22.54ZM128.289 19.456H131.841C132.745 19.456 133.441 19.692 133.929 20.164C134.425 20.636 134.673 21.276 134.673 22.084C134.673 22.892 134.425 23.532 133.929 24.004C133.441 24.476 132.745 24.712 131.841 24.712H129.297V28H128.289V19.456ZM129.297 23.8H131.841C132.433 23.8 132.877 23.656 133.173 23.368C133.477 23.072 133.629 22.644 133.629 22.084C133.629 21.524 133.477 21.1 133.173 20.812C132.877 20.516 132.433 20.368 131.841 20.368H129.297V23.8ZM140.482 27.22H140.83V28C140.67 28.024 140.494 28.036 140.302 28.036C139.654 28.036 139.306 27.74 139.258 27.148C138.826 27.812 138.154 28.144 137.242 28.144C136.562 28.144 136.026 27.988 135.634 27.676C135.25 27.356 135.058 26.908 135.058 26.332C135.058 25.212 135.822 24.572 137.35 24.412L138.238 24.316C138.886 24.244 139.21 23.96 139.21 23.464C139.21 23.12 139.102 22.872 138.886 22.72C138.678 22.568 138.322 22.492 137.818 22.492C137.282 22.492 136.894 22.584 136.654 22.768C136.422 22.944 136.29 23.26 136.258 23.716H135.298C135.378 22.348 136.218 21.664 137.818 21.664C139.37 21.664 140.146 22.264 140.146 23.464V26.92C140.146 27.12 140.258 27.22 140.482 27.22ZM137.29 27.328C137.802 27.328 138.25 27.172 138.634 26.86C139.018 26.556 139.21 26.12 139.21 25.552V24.82C139.034 24.956 138.762 25.044 138.394 25.084L137.494 25.192C136.974 25.256 136.602 25.376 136.378 25.552C136.162 25.728 136.054 25.98 136.054 26.308C136.054 26.628 136.158 26.88 136.366 27.064C136.574 27.24 136.882 27.328 137.29 27.328ZM144.68 21.712C144.84 21.712 144.948 21.716 145.004 21.724V22.648H144.764C144.124 22.648 143.624 22.808 143.264 23.128C142.912 23.44 142.736 23.888 142.736 24.472V28H141.776V21.808H142.688V22.9C143.104 22.108 143.768 21.712 144.68 21.712ZM148.772 21.808V22.648H147.5V26.668C147.5 27.02 147.736 27.196 148.208 27.196H148.772V28C148.508 28.024 148.28 28.036 148.088 28.036C147.056 28.036 146.54 27.608 146.54 26.752V22.648H145.52V21.808H146.54V20.056H147.5V21.808H148.772ZM153.256 20.872H152.236V19.696H153.256V20.872ZM153.232 28H152.272V21.808H153.232V28ZM157.63 21.664C158.318 21.664 158.854 21.852 159.238 22.228C159.622 22.604 159.814 23.132 159.814 23.812V28H158.854V23.908C158.854 22.988 158.382 22.528 157.438 22.528C156.99 22.528 156.594 22.696 156.25 23.032C155.906 23.368 155.734 23.856 155.734 24.496V28H154.774V21.808H155.686V22.732C156.158 22.02 156.806 21.664 157.63 21.664Z" fill="#1E1E1E"/>
<path d="M55.048 294H42.76C42.3547 294 42.056 293.915 41.864 293.744C41.6933 293.552 41.608 293.253 41.608 292.848V272.112C41.608 271.707 41.6933 271.419 41.864 271.248C42.056 271.056 42.3547 270.96 42.76 270.96H52.968C55.0587 270.96 56.6053 271.365 57.608 272.176C58.6107 272.965 59.112 274.192 59.112 275.856V277.392C59.112 278.288 58.952 279.024 58.632 279.6C58.3333 280.155 57.864 280.571 57.224 280.848C58.5893 280.976 59.6027 281.445 60.264 282.256C60.9253 283.067 61.256 284.251 61.256 285.808V288.752C61.256 290.544 60.744 291.867 59.72 292.72C58.7173 293.573 57.16 294 55.048 294ZM48.808 276.4V279.856H51.528C51.9333 279.856 52.232 279.749 52.424 279.536C52.6373 279.323 52.744 279.003 52.744 278.576V277.68C52.744 277.253 52.6373 276.933 52.424 276.72C52.232 276.507 51.9333 276.4 51.528 276.4H48.808ZM48.808 284.784V288.56H52.968C53.3733 288.56 53.672 288.453 53.864 288.24C54.0773 288.027 54.184 287.707 54.184 287.28V286.032C54.184 285.605 54.0773 285.296 53.864 285.104C53.672 284.891 53.3733 284.784 52.968 284.784H48.808ZM84.4155 287.952C84.4155 288.933 84.2662 289.829 83.9675 290.64C83.6902 291.429 83.1782 292.112 82.4315 292.688C81.7062 293.243 80.6928 293.68 79.3915 294C78.1115 294.32 76.4795 294.48 74.4955 294.48C72.5115 294.48 70.8688 294.32 69.5675 294C68.2662 293.68 67.2422 293.243 66.4955 292.688C65.7702 292.112 65.2582 291.429 64.9595 290.64C64.6822 289.829 64.5435 288.933 64.5435 287.952V277.04C64.5435 276.059 64.6822 275.173 64.9595 274.384C65.2582 273.573 65.7702 272.88 66.4955 272.304C67.2422 271.728 68.2662 271.28 69.5675 270.96C70.8688 270.64 72.5115 270.48 74.4955 270.48C76.4795 270.48 78.1115 270.64 79.3915 270.96C80.6928 271.28 81.7062 271.728 82.4315 272.304C83.1782 272.88 83.6902 273.573 83.9675 274.384C84.2662 275.173 84.4155 276.059 84.4155 277.04V287.952ZM71.8075 286.8C71.8075 287.227 71.9675 287.589 72.2875 287.888C72.6075 288.165 73.3435 288.304 74.4955 288.304C75.6475 288.304 76.3835 288.165 76.7035 287.888C77.0235 287.589 77.1835 287.227 77.1835 286.8V278.192C77.1835 277.787 77.0235 277.445 76.7035 277.168C76.3835 276.869 75.6475 276.72 74.4955 276.72C73.3435 276.72 72.6075 276.869 72.2875 277.168C71.9675 277.445 71.8075 277.787 71.8075 278.192V286.8ZM108.109 287.952C108.109 288.933 107.96 289.829 107.661 290.64C107.384 291.429 106.872 292.112 106.125 292.688C105.4 293.243 104.387 293.68 103.085 294C101.805 294.32 100.173 294.48 98.1893 294.48C96.2053 294.48 94.5626 294.32 93.2613 294C91.9599 293.68 90.9359 293.243 90.1893 292.688C89.4639 292.112 88.9519 291.429 88.6533 290.64C88.3759 289.829 88.2373 288.933 88.2373 287.952V277.04C88.2373 276.059 88.3759 275.173 88.6533 274.384C88.9519 273.573 89.4639 272.88 90.1893 272.304C90.9359 271.728 91.9599 271.28 93.2613 270.96C94.5626 270.64 96.2053 270.48 98.1893 270.48C100.173 270.48 101.805 270.64 103.085 270.96C104.387 271.28 105.4 271.728 106.125 272.304C106.872 272.88 107.384 273.573 107.661 274.384C107.96 275.173 108.109 276.059 108.109 277.04V287.952ZM95.5013 286.8C95.5013 287.227 95.6613 287.589 95.9813 287.888C96.3013 288.165 97.0373 288.304 98.1893 288.304C99.3413 288.304 100.077 288.165 100.397 287.888C100.717 287.589 100.877 287.227 100.877 286.8V278.192C100.877 277.787 100.717 277.445 100.397 277.168C100.077 276.869 99.3413 276.72 98.1893 276.72C97.0373 276.72 96.3013 276.869 95.9813 277.168C95.6613 277.445 95.5013 277.787 95.5013 278.192V286.8ZM123.007 294H117.823C117.417 294 117.119 293.915 116.927 293.744C116.756 293.552 116.671 293.253 116.671 292.848V277.136H111.967C111.561 277.136 111.263 277.051 111.071 276.88C110.9 276.688 110.815 276.389 110.815 275.984V272.112C110.815 271.707 110.9 271.419 111.071 271.248C111.263 271.056 111.561 270.96 111.967 270.96H128.863C129.268 270.96 129.556 271.056 129.727 271.248C129.919 271.419 130.015 271.707 130.015 272.112V275.984C130.015 276.389 129.919 276.688 129.727 276.88C129.556 277.051 129.268 277.136 128.863 277.136H124.159V292.848C124.159 293.253 124.063 293.552 123.871 293.744C123.7 293.915 123.412 294 123.007 294ZM148.399 294H140.591C137.924 294 135.94 293.467 134.639 292.4C133.359 291.333 132.719 289.691 132.719 287.472V277.52C132.719 275.301 133.359 273.659 134.639 272.592C135.94 271.504 137.924 270.96 140.591 270.96H148.399C148.804 270.96 149.092 271.056 149.263 271.248C149.455 271.419 149.551 271.707 149.551 272.112V275.984C149.551 276.389 149.455 276.688 149.263 276.88C149.092 277.051 148.804 277.136 148.399 277.136H141.967C141.305 277.136 140.815 277.275 140.495 277.552C140.175 277.808 140.015 278.203 140.015 278.736V286.352C140.015 286.885 140.175 287.28 140.495 287.536C140.815 287.771 141.305 287.888 141.967 287.888H148.399C148.804 287.888 149.092 287.984 149.263 288.176C149.455 288.347 149.551 288.635 149.551 289.04V292.848C149.551 293.253 149.455 293.552 149.263 293.744C149.092 293.915 148.804 294 148.399 294ZM161.616 277.68L160.112 282.544H165.136L163.632 277.68C163.547 277.488 163.451 277.349 163.344 277.264C163.259 277.179 163.152 277.136 163.024 277.136H162.224C162.096 277.136 161.979 277.179 161.872 277.264C161.787 277.349 161.702 277.488 161.616 277.68ZM159.792 292.848C159.792 293.253 159.696 293.552 159.504 293.744C159.334 293.915 159.046 294 158.64 294H153.936C153.531 294 153.232 293.915 153.04 293.744C152.87 293.552 152.784 293.253 152.784 292.848V284.4C152.784 283.76 152.88 283.024 153.072 282.192C153.286 281.36 153.606 280.389 154.032 279.28L156.816 272.016C156.944 271.653 157.136 271.387 157.392 271.216C157.67 271.045 158.022 270.96 158.448 270.96H167.056C167.462 270.96 167.792 271.045 168.048 271.216C168.326 271.387 168.528 271.653 168.656 272.016L171.44 279.28C171.867 280.389 172.176 281.36 172.368 282.192C172.582 283.024 172.688 283.76 172.688 284.4V292.848C172.688 293.253 172.592 293.552 172.4 293.744C172.23 293.915 171.942 294 171.536 294H166.704C166.278 294 165.958 293.915 165.744 293.744C165.552 293.552 165.456 293.253 165.456 292.848V288.368H159.792V292.848ZM182.659 294H177.891C177.486 294 177.187 293.915 176.995 293.744C176.825 293.552 176.739 293.253 176.739 292.848V272.112C176.739 271.707 176.825 271.419 176.995 271.248C177.187 271.056 177.486 270.96 177.891 270.96H183.043C183.385 270.96 183.662 271.035 183.875 271.184C184.11 271.333 184.323 271.579 184.515 271.92L187.395 277.136C187.502 277.328 187.587 277.467 187.651 277.552C187.737 277.637 187.843 277.68 187.971 277.68H188.259C188.387 277.68 188.483 277.637 188.547 277.552C188.633 277.467 188.729 277.328 188.835 277.136L191.683 271.92C191.875 271.579 192.078 271.333 192.291 271.184C192.526 271.035 192.814 270.96 193.155 270.96H198.339C198.745 270.96 199.033 271.056 199.203 271.248C199.395 271.419 199.491 271.707 199.491 272.112V292.848C199.491 293.253 199.395 293.552 199.203 293.744C199.033 293.915 198.745 294 198.339 294H193.411C193.006 294 192.707 293.915 192.515 293.744C192.345 293.552 192.259 293.253 192.259 292.848V281.584L190.371 285.072C190.179 285.435 189.945 285.701 189.667 285.872C189.411 286.021 189.081 286.096 188.675 286.096H187.395C186.99 286.096 186.649 286.021 186.371 285.872C186.115 285.701 185.891 285.435 185.699 285.072L183.811 281.584V292.848C183.811 293.253 183.715 293.552 183.523 293.744C183.353 293.915 183.065 294 182.659 294ZM210.108 294H205.148C204.742 294 204.444 293.915 204.252 293.744C204.081 293.552 203.996 293.253 203.996 292.848V272.112C203.996 271.707 204.081 271.419 204.252 271.248C204.444 271.056 204.742 270.96 205.148 270.96H214.94C217.841 270.96 219.825 271.536 220.892 272.688C221.958 273.84 222.492 275.344 222.492 277.2V281.296C222.492 283.152 221.958 284.656 220.892 285.808C219.825 286.96 217.841 287.536 214.94 287.536H211.26V292.848C211.26 293.253 211.164 293.552 210.972 293.744C210.801 293.915 210.513 294 210.108 294ZM211.196 276.944V281.776H214.076C214.694 281.776 215.1 281.616 215.292 281.296C215.484 280.976 215.58 280.613 215.58 280.208V278.512C215.58 278.107 215.484 277.744 215.292 277.424C215.1 277.104 214.694 276.944 214.076 276.944H211.196Z" fill="#1E1E1E"/>
<path d="M66.6659 164H20.5859C19.0659 164 17.9459 163.68 17.2259 163.04C16.5859 162.32 16.2659 161.2 16.2659 159.68V81.92C16.2659 80.4 16.5859 79.32 17.2259 78.68C17.9459 77.96 19.0659 77.6 20.5859 77.6H58.8659C66.7059 77.6 72.5059 79.12 76.2659 82.16C80.0259 85.12 81.9059 89.72 81.9059 95.96V101.72C81.9059 105.08 81.3059 107.84 80.1059 110C78.9859 112.08 77.2259 113.64 74.8259 114.68C79.9459 115.16 83.7459 116.92 86.2259 119.96C88.7059 123 89.9459 127.44 89.9459 133.28V144.32C89.9459 151.04 88.0259 156 84.1859 159.2C80.4259 162.4 74.5859 164 66.6659 164ZM43.2659 98V110.96H53.4659C54.9859 110.96 56.1059 110.56 56.8259 109.76C57.6259 108.96 58.0259 107.76 58.0259 106.16V102.8C58.0259 101.2 57.6259 100 56.8259 99.2C56.1059 98.4 54.9859 98 53.4659 98H43.2659ZM43.2659 129.44V143.6H58.8659C60.3859 143.6 61.5059 143.2 62.2259 142.4C63.0259 141.6 63.4259 140.4 63.4259 138.8V134.12C63.4259 132.52 63.0259 131.36 62.2259 130.64C61.5059 129.84 60.3859 129.44 58.8659 129.44H43.2659ZM105.719 164C104.199 164 103.079 163.68 102.359 163.04C101.719 162.32 101.399 161.2 101.399 159.68V145.4C101.399 143.88 101.719 142.8 102.359 142.16C103.079 141.44 104.199 141.08 105.719 141.08H117.599V100.76H105.719C104.199 100.76 103.079 100.44 102.359 99.8C101.719 99.08 101.399 97.96 101.399 96.44V81.92C101.399 80.4 101.719 79.32 102.359 78.68C103.079 77.96 104.199 77.6 105.719 77.6H156.839C158.359 77.6 159.439 77.96 160.079 78.68C160.799 79.32 161.159 80.4 161.159 81.92V96.44C161.159 97.96 160.799 99.08 160.079 99.8C159.439 100.44 158.359 100.76 156.839 100.76H145.199V141.08H156.839C158.359 141.08 159.439 141.44 160.079 142.16C160.799 142.8 161.159 143.88 161.159 145.4V159.68C161.159 161.2 160.799 162.32 160.079 163.04C159.439 163.68 158.359 164 156.839 164H105.719ZM237.155 164H177.635C176.115 164 174.995 163.68 174.275 163.04C173.635 162.32 173.315 161.2 173.315 159.68V143.6C173.315 142.08 173.555 140.76 174.035 139.64C174.515 138.44 175.275 137.28 176.315 136.16L205.475 100.76H179.795C178.275 100.76 177.155 100.44 176.435 99.8C175.795 99.08 175.475 97.96 175.475 96.44V81.92C175.475 80.4 175.795 79.32 176.435 78.68C177.155 77.96 178.275 77.6 179.795 77.6H234.995C236.515 77.6 237.595 77.96 238.235 78.68C238.955 79.32 239.315 80.4 239.315 81.92V99.8C239.315 101.4 239.075 102.8 238.595 104C238.115 105.12 237.355 106.24 236.315 107.36L208.475 141.08H237.155C238.675 141.08 239.755 141.44 240.395 142.16C241.115 142.8 241.475 143.88 241.475 145.4V159.68C241.475 161.2 241.115 162.32 240.395 163.04C239.755 163.68 238.675 164 237.155 164ZM32.7406 259H14.1406C12.6206 259 11.5006 258.68 10.7806 258.04C10.1406 257.32 9.82063 256.2 9.82063 254.68V176.92C9.82063 175.4 10.1406 174.32 10.7806 173.68C11.5006 172.96 12.6206 172.6 14.1406 172.6H32.7406C34.2606 172.6 35.3406 172.96 35.9806 173.68C36.7006 174.32 37.0606 175.4 37.0606 176.92V204.52H41.8606L54.2206 176.56C54.7806 175.12 55.5406 174.12 56.5006 173.56C57.4606 172.92 58.7006 172.6 60.2206 172.6H78.7006C80.0606 172.6 80.9806 172.96 81.4606 173.68C81.9406 174.32 81.9006 175.28 81.3406 176.56L69.1006 204.52C73.5806 204.76 77.1406 206.36 79.7806 209.32C82.5006 212.2 83.8606 216.04 83.8606 220.84V254.68C83.8606 256.2 83.5006 257.32 82.7806 258.04C82.1406 258.68 81.0606 259 79.5406 259H61.0606C59.5406 259 58.4206 258.68 57.7006 258.04C57.0606 257.32 56.7406 256.2 56.7406 254.68V231.28C56.7406 230 56.4206 229 55.7806 228.28C55.1406 227.56 54.1806 227.2 52.9006 227.2H37.0606V254.68C37.0606 256.2 36.7006 257.32 35.9806 258.04C35.3406 258.68 34.2606 259 32.7406 259ZM101.852 259C100.332 259 99.2119 258.68 98.4919 258.04C97.8519 257.32 97.5319 256.2 97.5319 254.68V240.4C97.5319 238.88 97.8519 237.8 98.4919 237.16C99.2119 236.44 100.332 236.08 101.852 236.08H113.732V195.76H101.852C100.332 195.76 99.2119 195.44 98.4919 194.8C97.8519 194.08 97.5319 192.96 97.5319 191.44V176.92C97.5319 175.4 97.8519 174.32 98.4919 173.68C99.2119 172.96 100.332 172.6 101.852 172.6H152.972C154.492 172.6 155.572 172.96 156.212 173.68C156.932 174.32 157.292 175.4 157.292 176.92V191.44C157.292 192.96 156.932 194.08 156.212 194.8C155.572 195.44 154.492 195.76 152.972 195.76H141.332V236.08H152.972C154.492 236.08 155.572 236.44 156.212 237.16C156.932 237.8 157.292 238.88 157.292 240.4V254.68C157.292 256.2 156.932 257.32 156.212 258.04C155.572 258.68 154.492 259 152.972 259H101.852ZM216.968 259H176.528C175.008 259 173.888 258.68 173.168 258.04C172.528 257.32 172.208 256.2 172.208 254.68V176.92C172.208 175.4 172.528 174.32 173.168 173.68C173.888 172.96 175.008 172.6 176.528 172.6H216.968C226.968 172.6 234.368 174.6 239.168 178.6C244.048 182.6 246.488 188.76 246.488 197.08V234.52C246.488 242.84 244.048 249 239.168 253C234.368 257 226.968 259 216.968 259ZM199.448 195.52V236.32H213.728C215.648 236.32 217.048 235.84 217.928 234.88C218.888 233.92 219.368 232.44 219.368 230.44V201.28C219.368 199.28 218.888 197.84 217.928 196.96C217.048 196 215.648 195.52 213.728 195.52H199.448Z" fill="#1E1E1E"/>
<path d="M79.3404 64H73.5084C73.0524 64 72.7164 63.904 72.5004 63.712C72.3084 63.496 72.2124 63.16 72.2124 62.704V45.028H66.9204C66.4644 45.028 66.1284 44.932 65.9124 44.74C65.7204 44.524 65.6244 44.188 65.6244 43.732V39.376C65.6244 38.92 65.7204 38.596 65.9124 38.404C66.1284 38.188 66.4644 38.08 66.9204 38.08H85.9284C86.3844 38.08 86.7084 38.188 86.9004 38.404C87.1164 38.596 87.2244 38.92 87.2244 39.376V43.732C87.2244 44.188 87.1164 44.524 86.9004 44.74C86.7084 44.932 86.3844 45.028 85.9284 45.028H80.6364V62.704C80.6364 63.16 80.5284 63.496 80.3124 63.712C80.1204 63.904 79.7964 64 79.3404 64ZM98.78 45.64L97.088 51.112H102.74L101.048 45.64C100.952 45.424 100.844 45.268 100.724 45.172C100.628 45.076 100.508 45.028 100.364 45.028H99.464C99.32 45.028 99.188 45.076 99.068 45.172C98.972 45.268 98.876 45.424 98.78 45.64ZM96.728 62.704C96.728 63.16 96.62 63.496 96.404 63.712C96.212 63.904 95.888 64 95.432 64H90.14C89.684 64 89.348 63.904 89.132 63.712C88.94 63.496 88.844 63.16 88.844 62.704V53.2C88.844 52.48 88.952 51.652 89.168 50.716C89.408 49.78 89.768 48.688 90.248 47.44L93.38 39.268C93.524 38.86 93.74 38.56 94.028 38.368C94.34 38.176 94.736 38.08 95.216 38.08H104.9C105.356 38.08 105.728 38.176 106.016 38.368C106.328 38.56 106.556 38.86 106.7 39.268L109.832 47.44C110.312 48.688 110.66 49.78 110.876 50.716C111.116 51.652 111.236 52.48 111.236 53.2V62.704C111.236 63.16 111.128 63.496 110.912 63.712C110.72 63.904 110.396 64 109.94 64H104.504C104.024 64 103.664 63.904 103.424 63.712C103.208 63.496 103.1 63.16 103.1 62.704V57.664H96.728V62.704ZM122.657 64H117.077C116.621 64 116.285 63.904 116.069 63.712C115.877 63.496 115.781 63.16 115.781 62.704V39.376C115.781 38.92 115.877 38.596 116.069 38.404C116.285 38.188 116.621 38.08 117.077 38.08H128.093C131.357 38.08 133.589 38.728 134.789 40.024C135.989 41.32 136.589 43.012 136.589 45.1V49.708C136.589 51.796 135.989 53.488 134.789 54.784C133.589 56.08 131.357 56.728 128.093 56.728H123.953V62.704C123.953 63.16 123.845 63.496 123.629 63.712C123.437 63.904 123.113 64 122.657 64ZM123.881 44.812V50.248H127.121C127.817 50.248 128.273 50.068 128.489 49.708C128.705 49.348 128.813 48.94 128.813 48.484V46.576C128.813 46.12 128.705 45.712 128.489 45.352C128.273 44.992 127.817 44.812 127.121 44.812H123.881ZM147.08 64H141.716C141.26 64 140.924 63.904 140.708 63.712C140.516 63.496 140.42 63.16 140.42 62.704V39.376C140.42 38.92 140.516 38.596 140.708 38.404C140.924 38.188 141.26 38.08 141.716 38.08H147.512C147.896 38.08 148.208 38.164 148.448 38.332C148.712 38.5 148.952 38.776 149.168 39.16L152.408 45.028C152.528 45.244 152.624 45.4 152.696 45.496C152.792 45.592 152.912 45.64 153.056 45.64H153.38C153.524 45.64 153.632 45.592 153.704 45.496C153.8 45.4 153.908 45.244 154.028 45.028L157.232 39.16C157.448 38.776 157.676 38.5 157.916 38.332C158.18 38.164 158.504 38.08 158.888 38.08H164.72C165.176 38.08 165.5 38.188 165.692 38.404C165.908 38.596 166.016 38.92 166.016 39.376V62.704C166.016 63.16 165.908 63.496 165.692 63.712C165.5 63.904 165.176 64 164.72 64H159.176C158.72 64 158.384 63.904 158.168 63.712C157.976 63.496 157.88 63.16 157.88 62.704V50.032L155.756 53.956C155.54 54.364 155.276 54.664 154.964 54.856C154.676 55.024 154.304 55.108 153.848 55.108H152.408C151.952 55.108 151.568 55.024 151.256 54.856C150.968 54.664 150.716 54.364 150.5 53.956L148.376 50.032V62.704C148.376 63.16 148.268 63.496 148.052 63.712C147.86 63.904 147.536 64 147.08 64ZM171.791 64C171.335 64 170.999 63.904 170.783 63.712C170.591 63.496 170.495 63.16 170.495 62.704V58.42C170.495 57.964 170.591 57.64 170.783 57.448C170.999 57.232 171.335 57.124 171.791 57.124H175.355V45.028H171.791C171.335 45.028 170.999 44.932 170.783 44.74C170.591 44.524 170.495 44.188 170.495 43.732V39.376C170.495 38.92 170.591 38.596 170.783 38.404C170.999 38.188 171.335 38.08 171.791 38.08H187.127C187.583 38.08 187.907 38.188 188.099 38.404C188.315 38.596 188.423 38.92 188.423 39.376V43.732C188.423 44.188 188.315 44.524 188.099 44.74C187.907 44.932 187.583 45.028 187.127 45.028H183.635V57.124H187.127C187.583 57.124 187.907 57.232 188.099 57.448C188.315 57.64 188.423 57.964 188.423 58.42V62.704C188.423 63.16 188.315 63.496 188.099 63.712C187.907 63.904 187.583 64 187.127 64H171.791Z" fill="#1E1E1E"/>
</svg>
