<svg width="320" height="432" viewBox="0 0 320 432" fill="none" xmlns="http://www.w3.org/2000/svg">
<g filter="url(#filter0_d_265_2)">
<path d="M290.75 341.898C290.553 342.038 290.369 342.169 290.195 342.288C288.559 343.418 286.402 343.488 284.701 342.469C282.33 341.06 281.525 338.053 282.876 335.628C283.02 335.372 283.177 335.102 283.343 334.817C284.382 333.049 285.558 331.044 284.915 328.621C284.77 328.073 284.581 327.572 284.355 327.12C283.212 328.076 282.284 328.79 281.668 329.242L280.374 334.767L279.861 334.524C279.472 335.638 278.928 336.777 278.224 337.933C276.401 340.933 273.925 343.6 271.063 345.637C270.942 345.723 270.824 345.806 270.704 345.892C269.711 346.575 268.489 347.272 266.94 347.288C264.517 347.313 262.511 345.482 262.467 343.201C262.451 342.351 262.717 341.669 262.872 341.262C262.896 341.202 262.918 341.138 262.942 341.078C263.107 340.603 262.962 339.801 262.54 338.818C262.378 338.441 262.189 338.049 261.987 337.638C261.533 336.703 261.018 335.643 260.705 334.444C260.104 332.139 260.346 329.689 261.379 327.542C261.744 326.79 262.2 326.087 262.742 325.443L265.639 321.659C265.599 320.884 265.564 319.717 265.578 318.238C265.087 318.348 264.577 318.519 264.062 318.757C263.735 318.908 263.428 319.083 263.146 319.285C261.554 320.417 260.87 322.267 260.268 323.902C260.154 324.213 260.046 324.505 259.936 324.774C259.574 325.698 258.954 326.488 258.147 327.062C256.787 328.03 255.042 328.267 253.48 327.699C251.621 327.03 250.31 325.322 250.146 323.343C250.132 323.209 250.122 323.053 250.11 322.889C249.781 318.386 249.863 312.178 252.135 308.216C253.11 306.513 254.704 304.039 257.275 302.21C259.845 300.381 263.1 299.429 266.95 299.499C267.304 299.505 267.668 299.519 268.038 299.542C269.198 294.965 270.748 290.565 272.653 286.43C274.935 281.48 277.972 277.079 281.67 273.352C281.899 273.122 282.127 272.898 282.354 272.679C283.894 271.191 285.552 269.815 287.277 268.587C290.314 266.426 293.633 264.696 296.67 263.684L297.01 263.442L297.476 263.431C297.891 263.308 298.294 263.203 298.676 263.113L298.734 263.1C299.094 263.021 299.441 262.951 299.765 262.902L299.869 262.886C299.963 262.872 300.052 262.861 300.14 262.851L300.265 262.839C300.422 262.823 300.555 262.809 300.68 262.802C300.753 262.798 300.826 262.793 300.897 262.791C300.951 262.786 301.023 262.787 301.096 262.788C301.171 262.787 301.252 262.787 301.33 262.789C301.394 262.791 301.451 262.789 301.5 262.792C301.634 262.798 301.766 262.809 301.892 262.825L301.966 262.834L302.055 262.852C302.172 262.869 302.283 262.891 302.385 262.919C302.452 262.933 302.497 262.949 302.538 262.959C302.741 263.015 302.922 263.082 303.101 263.165C306.32 264.689 309.583 274.245 308.994 284.306L308.993 284.345L308.99 284.4C308.97 284.682 308.953 284.967 308.93 285.251C308.906 285.561 308.877 285.883 308.844 286.207C308.308 291.432 306.829 296.571 304.451 301.474C302.46 305.575 300.043 309.563 297.242 313.36C303.628 320.21 302.404 326.465 300.621 331.156C299.022 335.365 294.369 339.317 290.747 341.894L290.75 341.898Z" fill="white"/>
<g style="mix-blend-mode:multiply">
<path d="M306.266 284.199C306.889 273.836 303.37 266.314 301.948 265.641C301.907 265.623 301.856 265.606 301.806 265.589C301.79 265.587 301.774 265.578 301.758 265.576C301.715 265.563 301.669 265.558 301.62 265.549C301.603 265.547 301.587 265.544 301.568 265.543C301.505 265.536 301.439 265.53 301.364 265.526C301.333 265.524 301.305 265.524 301.275 265.522C301.227 265.522 301.177 265.52 301.124 265.519C301.085 265.518 301.043 265.519 301.001 265.521C300.954 265.521 300.905 265.527 300.857 265.527C300.767 265.534 300.671 265.541 300.574 265.552C300.539 265.558 300.506 265.557 300.471 265.563C300.4 265.57 300.331 265.581 300.257 265.591C300.231 265.595 300.205 265.599 300.179 265.603C299.921 265.643 299.638 265.696 299.338 265.766C299.332 265.771 299.326 265.77 299.318 265.771C298.89 265.87 298.419 265.994 297.92 266.153C294.401 267.255 289.198 269.876 284.256 274.646C284.043 274.85 283.829 275.06 283.616 275.273C280.481 278.433 277.489 282.48 275.139 287.57C272.737 292.777 271.167 297.88 270.145 302.517C268.984 302.338 267.905 302.24 266.907 302.223C259.925 302.095 256.752 305.659 254.513 309.568C252.458 313.155 252.61 319.502 252.842 322.687C252.851 322.834 252.863 322.978 252.874 323.109C252.949 324.027 253.552 324.814 254.419 325.125C255.618 325.559 256.937 324.951 257.408 323.764C258.262 321.601 259.183 317.979 262.935 316.266C265.131 315.263 266.98 315.225 268.394 315.516C268.182 319.84 268.433 322.499 268.433 322.499L266.411 325.139L267.023 325.426C265.65 326.154 264.517 327.319 263.843 328.718C263.098 330.267 262.92 332.083 263.353 333.746C263.718 335.147 264.484 336.406 265.057 337.735C265.627 339.067 266.001 340.581 265.532 341.953C265.399 342.345 265.194 342.73 265.203 343.145C265.218 343.967 266.099 344.56 266.92 344.55C267.741 344.54 268.489 344.099 269.169 343.634C271.881 341.771 274.195 339.326 275.902 336.513C277.001 334.702 277.859 332.632 277.847 330.544L278.495 330.849L279.253 327.61C279.253 327.61 281.467 326.121 284.677 323.215C285.095 323.554 285.516 323.963 285.911 324.471C286.577 325.327 287.172 326.445 287.56 327.906C288.619 331.895 286.4 334.904 285.269 336.939C284.651 338.054 285.015 339.46 286.11 340.112C286.9 340.583 287.89 340.549 288.649 340.028C291.134 338.308 296.54 334.217 298.079 330.174C299.751 325.778 300.489 320.822 295.25 315.208C294.762 314.684 294.217 314.153 293.617 313.619C296.552 309.889 299.503 305.435 302.002 300.278C304.449 295.23 305.679 290.354 306.135 285.924C306.166 285.624 306.194 285.327 306.216 285.029C306.238 284.75 306.256 284.474 306.273 284.194C306.273 284.194 306.273 284.194 306.271 284.191L306.266 284.199Z" fill="white"/>
</g>
<path d="M277.739 329.377L267.464 325.213C265.893 325.91 264.58 327.179 263.835 328.728C263.09 330.277 262.913 332.093 263.346 333.756C263.711 335.157 264.477 336.416 265.05 337.745C265.62 339.077 265.993 340.591 265.525 341.963C265.391 342.355 265.187 342.74 265.195 343.155C265.21 343.977 266.092 344.57 266.91 344.562C267.73 344.552 268.479 344.111 269.158 343.647C271.871 341.783 274.184 339.338 275.891 336.525C277.196 334.377 278.168 331.856 277.739 329.377Z" fill="#FFE45E"/>
<path d="M276.376 328.734L268.82 325.674C267.663 326.186 266.7 327.12 266.151 328.257C265.601 329.395 265.471 330.732 265.79 331.955C266.059 332.984 266.621 333.909 267.044 334.886C267.463 335.866 267.739 336.98 267.394 337.987C267.297 338.276 267.144 338.557 267.151 338.863C267.164 339.467 267.809 339.902 268.414 339.898C269.018 339.894 269.569 339.564 270.068 339.223C272.066 337.855 273.764 336.058 275.021 333.985C275.982 332.403 276.699 330.552 276.379 328.732L276.376 328.734Z" fill="#FF9770"/>
<path d="M271.465 316.977C271.465 316.977 268.176 313.881 262.925 316.273C259.172 317.986 258.248 321.61 257.397 323.771C256.929 324.956 255.611 325.564 254.408 325.132C253.541 324.821 252.938 324.034 252.864 323.116C252.852 322.985 252.842 322.844 252.831 322.694C252.599 319.509 252.447 313.162 254.503 309.575C256.741 305.666 259.914 302.101 266.896 302.23C268.613 302.262 270.559 302.514 272.779 303.045L271.463 316.973L271.465 316.977Z" fill="#7371FC"/>
<g style="mix-blend-mode:multiply" opacity="0.35">
<path d="M271.466 316.977C271.466 316.977 268.177 313.881 262.926 316.273C259.173 317.986 258.249 321.61 257.398 323.771C256.93 324.956 255.611 325.564 254.409 325.132C253.542 324.821 252.939 324.034 252.864 323.116C252.853 322.985 252.843 322.844 252.832 322.694C253.758 323.04 254.912 322.645 255.665 321.941C256.535 321.126 257.025 319.998 257.628 318.97C259.285 316.14 261.967 313.93 265.057 312.832C264.974 309.225 265.607 305.602 266.897 302.23C268.614 302.262 270.559 302.514 272.779 303.045L271.464 316.973L271.466 316.977Z" fill="#7371FC"/>
</g>
<path d="M288.641 340.044C287.884 340.568 286.892 340.599 286.102 340.127C285.007 339.476 284.637 338.069 285.261 336.955C286.391 334.925 288.607 331.913 287.552 327.922C287.164 326.461 286.57 325.338 285.903 324.487C284.029 322.083 281.594 321.767 281.594 321.767L291.53 311.917C293.012 313.045 294.241 314.146 295.245 315.222C300.486 320.838 299.746 325.791 298.074 330.187C296.535 334.23 291.128 338.321 288.644 340.041L288.641 340.044Z" fill="#7371FC"/>
<g style="mix-blend-mode:multiply" opacity="0.35">
<path d="M295.242 315.219C292.553 318.697 289.404 321.823 285.899 324.484C284.026 322.08 281.591 321.765 281.591 321.765L291.527 311.914C293.009 313.042 294.238 314.144 295.242 315.219Z" fill="#7371FC"/>
</g>
<path d="M301.993 300.289C293.325 318.162 279.241 327.623 279.241 327.623L268.422 322.507C268.422 322.507 266.803 305.617 275.125 287.58C277.473 282.487 280.467 278.443 283.602 275.283C291.565 267.253 300.439 264.935 301.94 265.647C303.442 266.358 307.281 274.686 306.123 285.937C305.667 290.367 304.44 295.246 301.99 300.291L301.993 300.289Z" fill="#FC296C"/>
<path d="M296.173 292.039C293.594 287.108 287.506 285.202 282.576 287.781C277.645 290.36 275.739 296.448 278.318 301.379C280.897 306.309 286.985 308.215 291.916 305.636C296.846 303.057 298.753 296.969 296.173 292.039Z" fill="#7371FC"/>
<path d="M293.834 299.828C292.111 303.466 287.767 305.021 284.129 303.298C280.491 301.575 278.936 297.231 280.659 293.593C282.383 289.955 286.727 288.4 290.365 290.123C294.002 291.846 295.557 296.19 293.834 299.828Z" fill="#FDFAF3"/>
<path d="M290.369 290.123C288.408 289.197 286.243 289.221 284.391 290.008C285.709 289.85 287.088 290.046 288.378 290.655C292.016 292.378 293.571 296.722 291.848 300.36C291.056 302.038 289.702 303.269 288.121 303.945C290.523 303.657 292.727 302.174 293.842 299.826C295.565 296.188 294.008 291.841 290.372 290.121L290.369 290.123Z" fill="#DFE4F2"/>
<path d="M306.128 285.934C302.419 285.683 298.173 284.565 293.941 282.566C289.713 280.565 286.154 277.991 283.608 275.28C291.571 267.25 300.444 264.932 301.946 265.644C303.447 266.355 307.286 274.683 306.128 285.934Z" fill="#7371FC"/>
<path d="M294.734 280.885C290.752 279.001 287.366 276.61 284.858 274.073C284.44 274.462 284.021 274.861 283.606 275.28C286.152 277.991 289.711 280.564 293.94 282.566C298.168 284.567 302.414 285.685 306.127 285.934C306.187 285.346 306.231 284.769 306.266 284.198C302.715 283.868 298.72 282.767 294.738 280.883L294.734 280.885Z" fill="white"/>
<g style="mix-blend-mode:multiply" opacity="0.35">
<path d="M306.129 285.934C307.287 274.683 303.451 266.353 301.946 265.644C301.413 265.391 299.937 265.523 297.906 266.159C299.345 269.729 300.672 275.757 299.924 282.998C299.469 287.429 298.241 292.307 295.791 297.352C287.123 315.225 273.039 324.687 273.039 324.687L279.241 327.62C279.241 327.62 293.325 318.158 301.994 300.285C304.441 295.237 305.671 290.361 306.126 285.931L306.129 285.934Z" fill="#7371FC"/>
</g>
<path d="M279.241 327.623L273.831 325.064L268.427 322.507L266.405 325.147L272.444 328.004L278.482 330.861L279.241 327.623Z" fill="#181851"/>
<g style="mix-blend-mode:soft-light" opacity="0.5">
<path d="M294.511 283.403C291.438 287.074 287.081 288.49 284.781 286.561C282.482 284.636 283.11 280.098 286.184 276.428C289.257 272.757 293.614 271.342 295.914 273.27C298.213 275.195 297.585 279.733 294.511 283.403Z" fill="white"/>
</g>
<path d="M282.156 307.48L278.411 305.708L269.28 329.347C268.758 330.704 269.177 332.134 270.252 332.642C271.326 333.15 272.699 332.571 273.416 331.305L285.897 309.254L282.153 307.482L282.156 307.48Z" fill="#7371FC"/>
<g style="mix-blend-mode:multiply" opacity="0.35">
<path d="M270.251 332.642C270.629 332.823 271.044 332.863 271.453 332.792C270.967 332.109 270.854 331.103 271.23 330.132L280.313 306.614L278.408 305.711L269.276 329.349C268.754 330.707 269.173 332.136 270.248 332.645L270.251 332.642Z" fill="#7371FC"/>
</g>
</g>
<g filter="url(#filter1_d_265_2)">
<path d="M88.1525 139.358C85.5009 139.644 82.966 138.31 81.6943 135.966L79.0715 131.113C77.3004 131.047 75.6817 130.056 74.8207 128.458C74.0581 127.045 74.0439 125.405 74.6511 124.024L73.8463 122.532C73.1984 122.652 72.5531 122.744 71.9055 122.813C62.2402 123.855 53.2613 119.468 49.0358 111.641C46.1197 106.249 45.7406 99.923 47.9633 93.8372C50.1482 87.8675 54.5839 82.8313 60.4633 79.6555C63.6651 77.9274 67.083 76.8536 70.6148 76.4731C80.2801 75.4319 89.2528 79.8132 93.4839 87.6397C97.6325 95.3238 96.5568 104.78 90.8169 112.214L92.0831 114.558C93.6207 114.796 94.9868 115.729 95.75 117.148C96.3935 118.339 96.5353 119.707 96.1485 121.003C96.0248 121.414 95.8538 121.802 95.6398 122.155L98.2626 127.008C99.9766 130.183 98.7865 134.158 95.6168 135.872L90.5578 138.606C89.8063 139.012 88.9988 139.261 88.1519 139.353L88.1525 139.358Z" fill="white"/>
<path d="M91.0348 88.9622C95.008 96.318 93.306 105.366 87.4788 111.885L90.0245 116.595C90.8226 118.077 90.2716 119.928 88.7902 120.732L81.6142 124.607C80.1322 125.405 78.2809 124.854 77.4773 123.373L75.308 119.35C65.7839 121.911 55.8786 118.436 51.4984 110.318C46.2608 100.634 50.8696 88.0028 61.7925 82.1054C72.7154 76.2079 85.8089 79.2829 91.0409 88.9671L91.0348 88.9622Z" fill="#FEBD03"/>
<path d="M81.416 124.522L80.3591 124.535C80.2968 118.499 78.607 112.482 75.5378 107.28C74.2828 107.69 72.9086 107.513 71.7012 107.273C70.5909 107.051 69.3063 106.719 68.2315 105.995C67.0125 105.18 66.2634 103.945 66.2184 102.695C66.1854 101.713 66.612 100.839 67.3328 100.408C67.7068 100.189 68.1591 100.073 68.7131 100.069C70.7944 100.052 72.749 101.353 74.7038 104.06C75.1389 104.669 75.558 105.284 75.9568 105.919C76.406 105.619 76.7652 105.21 77.057 104.748C76.7211 104.073 76.3889 103.38 76.0544 102.666C74.8981 100.198 73.7093 97.3244 74.1808 94.4232C74.2548 93.9673 74.42 93.3167 74.9617 92.9391C75.3 92.7011 75.7061 92.6237 76.1245 92.713C76.8925 92.8767 77.5359 93.5466 77.8771 94.1146C79.2401 96.3702 79.6477 99.3222 79.0249 102.43C78.8461 103.317 78.5889 104.101 78.2522 104.77C81.831 111.844 85.4992 116.628 89.9528 120.074L89.3038 120.911C84.8435 117.455 81.1585 112.722 77.597 105.809C77.2771 106.219 76.9102 106.555 76.5072 106.817C79.6361 112.158 81.3654 118.334 81.4265 124.515L81.416 124.522ZM68.4476 101.139C68.2151 101.164 68.02 101.224 67.8672 101.314C67.4833 101.545 67.2486 102.069 67.2669 102.655C67.2977 103.565 67.8781 104.482 68.8143 105.115C69.732 105.733 70.8433 106.016 71.9026 106.233C72.887 106.429 73.9846 106.585 74.9612 106.345C74.6034 105.779 74.2246 105.226 73.8354 104.68C72.1034 102.274 70.4275 101.116 68.7157 101.133C68.6204 101.132 68.5312 101.136 68.4482 101.145L68.4476 101.139ZM75.7307 93.7355C75.6642 93.7426 75.6051 93.7658 75.5478 93.8056C75.3863 93.9182 75.2791 94.1705 75.207 94.5927C74.782 97.1976 75.9068 99.8932 76.9972 102.217C77.2072 102.659 77.4111 103.097 77.6194 103.522C77.7789 103.079 77.8929 102.63 77.9723 102.224C78.5445 99.3739 78.1827 96.6913 76.9566 94.6674C76.6772 94.2047 76.2333 93.8269 75.8892 93.752C75.8321 93.7413 75.7811 93.7356 75.7313 93.741L75.7307 93.7355Z" fill="#412945"/>
<path d="M93.3076 118.476C93.9028 119.582 93.4918 120.965 92.3855 121.56L92.2112 121.657L95.8202 128.335C96.8065 130.161 96.128 132.441 94.3017 133.421L89.2428 136.156C87.4171 137.142 85.1376 136.464 84.1569 134.637L82.0505 130.732L83.2405 127.899L80.5534 127.959L80.3735 128.056C79.2672 128.651 77.8846 128.24 77.2894 127.134C76.6942 126.028 77.1053 124.645 78.2115 124.05L90.2352 117.558C91.3415 116.963 92.7241 117.374 93.3193 118.48L93.3076 118.476Z" fill="#B5E1E8"/>
<path d="M92.2101 121.657L82.0384 130.733L80.5412 127.96L92.2101 121.657Z" fill="#412945"/>
<path d="M78.1559 84.8112C78.64 84.9383 79.1017 85.1181 79.5412 85.3508C79.7431 85.4578 79.9407 85.5766 80.1383 85.6953C80.342 85.8189 80.5519 85.9475 80.7216 86.1196C80.9661 86.3621 81.2507 86.561 81.5774 86.6826C81.7875 86.7608 82.0143 86.7868 82.2363 86.7684C82.5751 86.7431 82.9033 86.6182 83.1849 86.4254C83.9824 85.8747 84.2396 84.5198 83.4211 83.8352C81.9507 82.6104 79.8302 80.9125 77.8242 81.5766C76.4693 82.2546 76.6809 84.427 78.1559 84.8112Z" fill="#F7EDE5"/>
<path d="M84.2423 90.0686C85.7827 91.6834 86.7027 93.8298 87.1216 96.0023C87.1239 96.0244 87.1263 96.0466 87.1342 96.0681C87.6144 98.29 91.0744 97.5028 90.5659 95.2784C90.0306 92.4409 88.6868 89.7913 86.7855 87.633C85.2349 85.9745 82.6701 88.4179 84.2423 90.0686Z" fill="#F7EDE5"/>
</g>
<path d="M47.2571 55.3849C48.5027 55.3849 49.5592 54.5775 49.8822 53.3734L51.8475 46.075L59.2751 42.8502C60.3592 42.3796 61.0143 41.2724 60.899 40.096C60.7837 38.9196 59.9348 37.9554 58.7815 37.7016L50.9801 35.9762L48.2997 28.5578C47.9076 27.469 46.9019 26.7632 45.7439 26.7632C44.4891 26.7632 43.4003 27.6121 43.1004 28.8346L41.232 36.4514L34.0812 39.1318C32.9417 39.5608 32.2358 40.6588 32.3235 41.8722C32.4111 43.0855 33.2646 44.0728 34.4549 44.3311L41.8225 45.9458L44.7105 53.6226C45.1119 54.6929 46.113 55.3849 47.2525 55.3849H47.2571Z" fill="white"/>
<path d="M42.3612 37.9971L34.7306 40.8574C33.914 41.1619 34.0017 42.3429 34.8505 42.5275L42.7349 44.2575C43.0255 44.3221 43.2608 44.5251 43.3669 44.8019L46.4395 52.9723C46.7393 53.7658 47.8788 53.7104 48.1003 52.8938L50.1856 45.1433C50.2548 44.8849 50.4347 44.6773 50.6792 44.5712L58.5405 41.1619C59.3155 40.8251 59.2094 39.6902 58.3836 39.5103L50.061 37.6695C49.7704 37.6049 49.5305 37.3927 49.429 37.1113L46.5686 29.19C46.2734 28.3781 45.1062 28.4381 44.8986 29.2777L42.9056 37.3927C42.8364 37.6741 42.6334 37.9002 42.3658 38.0017L42.3612 37.9971Z" fill="#FEBD03"/>
<path d="M27.6456 30.4776C28.4497 30.4776 29.1317 29.9564 29.3402 29.179L30.609 24.4673L35.4041 22.3854C36.104 22.0816 36.5269 21.3669 36.4525 20.6074C36.378 19.8479 35.83 19.2254 35.0854 19.0616L30.0491 17.9477L28.3187 13.1586C28.0655 12.4557 27.4162 12 26.6687 12C25.8586 12 25.1557 12.548 24.9621 13.3373L23.7559 18.2545L19.1394 19.9849C18.4038 20.2619 17.9481 20.9707 18.0047 21.754C18.0613 22.5373 18.6123 23.1747 19.3807 23.3415L24.1371 24.3839L26.0015 29.3398C26.2606 30.0308 26.9069 30.4776 27.6426 30.4776H27.6456Z" fill="white"/>
<path d="M24.485 19.2523L19.5588 21.0989C19.0317 21.2954 19.0883 22.0579 19.6363 22.177L24.7262 23.2939C24.9139 23.3356 25.0658 23.4667 25.1343 23.6454L27.1178 28.92C27.3114 29.4323 28.0471 29.3965 28.19 28.8693L29.5362 23.8657C29.5809 23.699 29.6971 23.5649 29.8549 23.4964L34.93 21.2954C35.4304 21.078 35.3619 20.3454 34.8287 20.2292L29.4558 19.0409C29.2682 18.9992 29.1133 18.8622 29.0478 18.6805L27.2012 13.5667C27.0106 13.0425 26.2571 13.0812 26.1231 13.6233L24.8364 18.8622C24.7918 19.0438 24.6607 19.1898 24.488 19.2553L24.485 19.2523Z" fill="#F2A0FF"/>
<path d="M243.655 425.385C242.409 425.385 241.353 424.578 241.03 423.373L239.065 416.075L231.637 412.85C230.553 412.38 229.898 411.272 230.013 410.096C230.128 408.92 230.977 407.955 232.131 407.702L239.932 405.976L242.612 398.558C243.005 397.469 244.01 396.763 245.168 396.763C246.423 396.763 247.512 397.612 247.812 398.835L249.68 406.451L256.831 409.132C257.97 409.561 258.676 410.659 258.589 411.872C258.501 413.085 257.648 414.073 256.457 414.331L249.09 415.946L246.202 423.623C245.8 424.693 244.799 425.385 243.66 425.385H243.655Z" fill="white"/>
<path d="M248.551 407.997L256.182 410.857C256.998 411.162 256.91 412.343 256.062 412.527L248.177 414.257C247.887 414.322 247.651 414.525 247.545 414.802L244.473 422.972C244.173 423.766 243.033 423.71 242.812 422.894L240.727 415.143C240.657 414.885 240.477 414.677 240.233 414.571L232.372 411.162C231.597 410.825 231.703 409.69 232.528 409.51L240.851 407.67C241.142 407.605 241.382 407.393 241.483 407.111L244.343 399.19C244.639 398.378 245.806 398.438 246.014 399.278L248.007 407.393C248.076 407.674 248.279 407.9 248.546 408.002L248.551 407.997Z" fill="#FEBD03"/>
<path d="M263.267 400.478C262.462 400.478 261.78 399.956 261.572 399.179L260.303 394.467L255.508 392.385C254.808 392.082 254.385 391.367 254.46 390.607C254.534 389.848 255.082 389.225 255.827 389.062L260.863 387.948L262.593 383.159C262.847 382.456 263.496 382 264.243 382C265.054 382 265.756 382.548 265.95 383.337L267.156 388.254L271.773 389.985C272.508 390.262 272.964 390.971 272.907 391.754C272.851 392.537 272.3 393.175 271.531 393.341L266.775 394.384L264.911 399.34C264.651 400.031 264.005 400.478 263.27 400.478H263.267Z" fill="white"/>
<path d="M266.427 389.252L271.353 391.099C271.88 391.295 271.824 392.058 271.276 392.177L266.186 393.294C265.998 393.336 265.846 393.467 265.778 393.645L263.794 398.92C263.601 399.432 262.865 399.397 262.722 398.869L261.376 393.866C261.331 393.699 261.215 393.565 261.057 393.496L255.982 391.295C255.482 391.078 255.55 390.345 256.083 390.229L261.456 389.041C261.644 388.999 261.799 388.862 261.864 388.68L263.711 383.567C263.901 383.042 264.655 383.081 264.789 383.623L266.076 388.862C266.12 389.044 266.251 389.19 266.424 389.255L266.427 389.252Z" fill="#F2A0FF"/>
<defs>
<filter id="filter0_d_265_2" x="169.968" y="186.787" width="219.096" height="244.501" filterUnits="userSpaceOnUse" color-interpolation-filters="sRGB">
<feFlood flood-opacity="0" result="BackgroundImageFix"/>
<feColorMatrix in="SourceAlpha" type="matrix" values="0 0 0 0 0 0 0 0 0 0 0 0 0 0 0 0 0 0 127 0" result="hardAlpha"/>
<feOffset dy="4"/>
<feGaussianBlur stdDeviation="40"/>
<feComposite in2="hardAlpha" operator="out"/>
<feColorMatrix type="matrix" values="0 0 0 0 0 0 0 0 0 0 0 0 0 0 0 0 0 0 0.1 0"/>
<feBlend mode="normal" in2="BackgroundImageFix" result="effect1_dropShadow_265_2"/>
<feBlend mode="normal" in="SourceGraphic" in2="effect1_dropShadow_265_2" result="shape"/>
</filter>
<filter id="filter1_d_265_2" x="-33.4658" y="0.321289" width="212.513" height="223.075" filterUnits="userSpaceOnUse" color-interpolation-filters="sRGB">
<feFlood flood-opacity="0" result="BackgroundImageFix"/>
<feColorMatrix in="SourceAlpha" type="matrix" values="0 0 0 0 0 0 0 0 0 0 0 0 0 0 0 0 0 0 127 0" result="hardAlpha"/>
<feOffset dy="4"/>
<feGaussianBlur stdDeviation="40"/>
<feComposite in2="hardAlpha" operator="out"/>
<feColorMatrix type="matrix" values="0 0 0 0 0 0 0 0 0 0 0 0 0 0 0 0 0 0 0.1 0"/>
<feBlend mode="normal" in2="BackgroundImageFix" result="effect1_dropShadow_265_2"/>
<feBlend mode="normal" in="SourceGraphic" in2="effect1_dropShadow_265_2" result="shape"/>
</filter>
</defs>
</svg>
