<svg width="292" height="66" viewBox="0 0 292 66" fill="none" xmlns="http://www.w3.org/2000/svg">
<path d="M55.5684 29.0114H63.6499L64.9146 32.1383H77.2106L65.6998 0H53.2475L42.3691 32.1383H54.3038L55.5684 29.0114Z" fill="#5B8CC1"/>
<path d="M13.574 22.1147L19.8001 32.1244L26.0228 21.8437V32.1244H38.7218V0H26.4953L19.8662 12.5461L13.1049 0H0.875V32.1244H13.574V22.1147Z" fill="#FDB93E"/>
<path d="M24.918 48.7634C27.7149 47.4709 29.1116 45.2299 29.1116 42.0404C29.1116 39.7229 28.2395 37.7842 26.4953 36.2207C24.7512 34.6572 21.923 33.8755 18.0143 33.8755H0.875V65.9999H18.3339C22.333 65.9999 25.3488 65.173 27.3778 63.5192C29.4069 61.8654 30.4214 59.534 30.4214 56.5252C30.4214 54.8401 29.9176 53.2766 28.9101 51.8313C27.9025 50.3859 26.5718 49.3644 24.918 48.7634Z" fill="#F47930"/>
<path d="M57.9075 33.8719H45.2849V65.9964H71.7113V53.5788H57.9075V33.8719Z" fill="#00A9CD"/>
<path d="M103.961 46.0776C103.961 39.1948 99.2392 34.1707 89.7471 33.8858L89.7402 33.8719H74.748V65.9929H87.864V56.4695L92.1444 65.9964H103.971L98.9161 55.7677C102.279 53.5927 103.961 50.1809 103.961 46.0776Z" fill="#76BC43"/>
<path d="M32.002 48.8921H37.4742L42.9533 33.9556H32.002V48.8921Z" fill="#D3585D"/>
<path d="M123.403 53.1203C123.403 54.326 122.427 55.2988 121.225 55.2988C120.022 55.2988 119.046 54.3225 119.046 53.1203V33.8721H106.861V53.7006C106.861 57.6093 108.109 60.6355 110.607 62.7792C113.046 64.9229 116.583 65.9965 121.225 65.9965C125.866 65.9965 129.389 64.9229 131.888 62.7792C134.354 60.6042 135.588 57.578 135.588 53.7006V33.8721H123.403V53.1203Z" fill="#7B60A9"/>
<path d="M135.589 9.16917V0.0488281H113.564V32.1246H135.589V23.0078H126.017V20.3672H135.589V11.563H126.017V9.16917H135.589Z" fill="#05B4A5"/>
<path d="M92.6665 20.3045H97.3535V32.1244H109.83V0H97.3535V11.2814H92.6665V0H80.1934V32.1244H92.6665V20.3045Z" fill="#EF5396"/>
<path d="M147.978 4.18652H146.436V11.2243H147.978V4.18652Z" fill="black"/>
<path d="M149.338 4.18652H150.881L153.819 8.91013H153.836V4.18652H155.284V11.2243H153.741L150.811 6.51799H150.785V11.2243H149.338V4.18652Z" fill="black"/>
<path d="M157.702 8.89255C157.702 9.8286 158.431 10.1926 159.263 10.1926C159.8 10.1926 160.632 10.0366 160.632 9.31724C160.632 8.5632 159.575 8.43319 158.543 8.15584C157.503 7.87849 156.446 7.4798 156.446 6.15373C156.446 4.71498 157.806 4.02161 159.081 4.02161C160.554 4.02161 161.897 4.66298 161.897 6.2924H160.398C160.346 5.44302 159.748 5.22634 159.011 5.22634C158.517 5.22634 157.945 5.43435 157.945 6.02372C157.945 6.56108 158.283 6.63042 160.043 7.08978C160.554 7.21979 162.131 7.54914 162.131 9.1439C162.131 10.4353 161.117 11.3974 159.202 11.3974C157.642 11.3974 156.186 10.626 156.203 8.89255H157.702Z" fill="black"/>
<path d="M164.592 5.4866H162.486V4.18652H168.25V5.4866H166.144V11.2243H164.592V5.4866Z" fill="black"/>
<path d="M170.599 4.1864H169.056V11.2241H170.599V4.1864Z" fill="black"/>
<path d="M173.719 5.48648H171.613V4.1864H177.377V5.48648H175.271V11.2241H173.719V5.48648Z" fill="black"/>
<path d="M184.155 8.56332C184.155 10.4614 183.028 11.3888 181.147 11.3888C179.266 11.3888 178.148 10.4701 178.148 8.56332V4.1864H179.691V8.56332C179.691 9.33469 179.89 10.0887 181.138 10.0887C182.239 10.0887 182.594 9.60338 182.594 8.56332V4.1864H184.137V8.56332H184.155Z" fill="black"/>
<path d="M187.042 5.4866H184.936V4.18652H190.699V5.4866H188.593V11.2243H187.042V5.4866Z" fill="black"/>
<path d="M193.445 4.18652H191.902V11.2243H193.445V4.18652Z" fill="black"/>
<path d="M197.771 10.0886C199.157 10.0886 199.686 8.90988 199.686 7.73115C199.686 6.50041 199.166 5.31301 197.771 5.31301C196.375 5.31301 195.855 6.49175 195.855 7.73115C195.855 8.97055 196.375 10.0886 197.771 10.0886ZM197.771 4.02161C199.946 4.02161 201.229 5.65103 201.229 7.73982C201.229 9.8286 199.946 11.3974 197.771 11.3974C195.595 11.3974 194.312 9.76793 194.312 7.73982C194.312 5.7117 195.595 4.02161 197.771 4.02161Z" fill="black"/>
<path d="M201.887 4.18652H203.421L206.359 8.91013H206.376V4.18652H207.824V11.2243H206.281L203.351 6.51799H203.334V11.2243H201.887V4.18652Z" fill="black"/>
<path d="M213.917 10.0885C215.304 10.0885 215.833 8.90976 215.833 7.73103C215.833 6.50029 215.313 5.31289 213.917 5.31289C212.522 5.31289 212.002 6.49162 212.002 7.73103C212.002 8.97043 212.522 10.0885 213.917 10.0885ZM213.917 4.02148C216.093 4.02148 217.375 5.65091 217.375 7.7397C217.375 9.82848 216.093 11.3972 213.917 11.3972C211.742 11.3972 210.459 9.76781 210.459 7.7397C210.459 5.71158 211.742 4.02148 213.917 4.02148Z" fill="black"/>
<path d="M218.434 4.18652H223.383V5.49526H219.976V7.11602H222.923V8.32076H219.976V11.2243H218.434V4.18652Z" fill="black"/>
<path d="M218.598 26.7037H211.985V17.9932H218.503V19.6053H213.9V21.4688H218.121V22.9595H213.9V25.0916H218.598V26.7037ZM206.109 26.9117C203.413 26.9117 201.827 24.901 201.827 22.3875C201.827 19.874 203.413 17.7852 206.109 17.7852C208.024 17.7852 209.636 18.9033 209.87 20.9227H208.015C207.894 20.056 207.062 19.3973 206.109 19.3973C204.392 19.3973 203.742 20.8621 203.742 22.3875C203.742 23.9129 204.392 25.2997 206.109 25.2997C207.279 25.2997 207.937 24.4936 208.085 23.3495H209.939C209.749 25.525 208.241 26.9117 206.109 26.9117ZM200.276 26.7037H198.36L194.737 20.8707H194.711V26.7037H192.917V17.9932H194.815L198.455 23.8349H198.481V17.9932H200.276V26.7037ZM191.14 26.7037H184.527V17.9932H191.045V19.6053H186.443V21.4688H190.664V22.9595H186.443V25.0916H191.14V26.7037ZM182.352 26.7037H180.436L176.814 20.8707H176.788V26.7037H174.993V17.9932H176.9L180.532 23.8349H180.558V17.9932H182.352V26.7037ZM172.827 26.7037H170.911V17.9932H172.827V26.7037ZM168.736 26.7037H166.942V20.5327H166.916L164.784 26.7037H163.31L161.178 20.5934H161.152V26.7037H159.358V17.9932H162.053L164.09 23.9822H164.116L166.049 17.9932H168.744V26.7037H168.736ZM157.572 26.7037H150.959V17.9932H157.477V19.6053H152.875V21.4688H157.096V22.9595H152.875V25.0916H157.572V26.7037ZM146.062 31.0026H223.287V13.963H146.062V31.0026Z" fill="black"/>
<path d="M231.139 0.0869141H230.853V34.9722H231.139V0.0869141Z" fill="black"/>
<path d="M281.279 32.2245C281.279 32.9699 280.802 33.49 279.814 33.49H278.687C278.479 33.49 278.367 33.3773 278.367 33.1693V28.7577C278.367 28.5583 278.479 28.437 278.687 28.437H279.814C280.802 28.437 281.279 28.957 281.279 29.7111V32.2245ZM277.76 28.9397C277.76 29.139 277.639 29.2604 277.439 29.2604H276.235V30.5258H277.231C277.431 30.5258 277.552 30.6471 277.552 30.8465V31.0285C277.552 31.2278 277.439 31.3492 277.231 31.3492H276.235V32.6839H277.439C277.639 32.6839 277.76 32.7966 277.76 33.0046V33.1779C277.76 33.3859 277.639 33.4986 277.439 33.4986H275.619C275.411 33.4986 275.307 33.3859 275.307 33.1779V28.7663C275.307 28.567 275.42 28.4457 275.619 28.4457H277.439C277.639 28.4457 277.76 28.567 277.76 28.7663V28.9484V28.9397ZM274.848 28.9397C274.848 29.139 274.735 29.2604 274.527 29.2604H273.929V33.1693C273.929 33.3773 273.816 33.49 273.608 33.49H273.305C273.097 33.49 272.984 33.3773 272.984 33.1693V29.2604H272.386C272.178 29.2604 272.074 29.139 272.074 28.9397V28.7577C272.074 28.5583 272.187 28.437 272.386 28.437H274.536C274.744 28.437 274.857 28.5583 274.857 28.7577V28.9397H274.848ZM271.615 33.1693C271.615 33.3773 271.502 33.49 271.294 33.49H270.991C270.783 33.49 270.679 33.3773 270.679 33.1693V28.7577C270.679 28.5583 270.792 28.437 270.991 28.437H271.294C271.502 28.437 271.615 28.5583 271.615 28.7577V33.1693ZM269.908 32.2245C269.908 32.9699 269.431 33.49 268.451 33.49H267.325C267.117 33.49 267.004 33.3773 267.004 33.1693V28.7577C267.004 28.5583 267.117 28.437 267.325 28.437H268.451C269.44 28.437 269.908 28.957 269.908 29.7111V32.2245ZM266.389 28.9397C266.389 29.139 266.267 29.2604 266.068 29.2604H264.863V30.5258H265.86C266.068 30.5258 266.172 30.6471 266.172 30.8465V31.0285C266.172 31.2278 266.059 31.3492 265.86 31.3492H264.863V32.6839H266.068C266.267 32.6839 266.389 32.7966 266.389 33.0046V33.1779C266.389 33.3859 266.267 33.4986 266.068 33.4986H264.248C264.04 33.4986 263.936 33.3859 263.936 33.1779V28.7663C263.936 28.567 264.049 28.4457 264.248 28.4457H266.068C266.267 28.4457 266.389 28.567 266.389 28.7663V28.9484V28.9397ZM263.199 30.3871C263.199 30.8725 263 31.2625 262.592 31.4705L263.199 33.1259C263.277 33.3426 263.182 33.49 262.948 33.49H262.592C262.402 33.49 262.28 33.4119 262.22 33.2213L261.708 31.6525H261.327V33.1779C261.327 33.3859 261.206 33.4986 261.015 33.4986H260.712C260.504 33.4986 260.4 33.3859 260.4 33.1779V28.7663C260.4 28.567 260.512 28.4457 260.712 28.4457H261.76C262.74 28.4457 263.217 28.9657 263.217 29.7197V30.3871H263.199ZM259.663 29.8757C259.663 30.0751 259.542 30.1964 259.351 30.1964H259.048C258.84 30.1964 258.736 30.0751 258.736 29.8757V29.6851C258.736 29.4164 258.58 29.2257 258.207 29.2257C257.834 29.2257 257.696 29.4077 257.696 29.6851V32.2505C257.696 32.5279 257.843 32.7099 258.207 32.7099C258.571 32.7099 258.736 32.5279 258.736 32.2505V32.0772C258.736 31.8692 258.848 31.7565 259.048 31.7565H259.351C259.55 31.7565 259.663 31.8779 259.663 32.0772V32.2939C259.663 33.0393 259.186 33.568 258.198 33.568C257.21 33.568 256.751 33.0393 256.751 32.2939V29.6417C256.751 28.8964 257.219 28.3677 258.198 28.3677C259.178 28.3677 259.663 28.8964 259.663 29.6417V29.8757ZM256.187 29.8757C256.187 30.0751 256.066 30.1964 255.867 30.1964H255.563C255.355 30.1964 255.243 30.0751 255.243 29.8757V29.6851C255.243 29.4164 255.087 29.2257 254.714 29.2257C254.341 29.2257 254.203 29.4077 254.203 29.6851V32.2505C254.203 32.5279 254.35 32.7099 254.714 32.7099C255.078 32.7099 255.243 32.5279 255.243 32.2505V32.0772C255.243 31.8692 255.355 31.7565 255.563 31.7565H255.867C256.066 31.7565 256.187 31.8779 256.187 32.0772V32.2939C256.187 33.0393 255.711 33.568 254.723 33.568C253.735 33.568 253.275 33.0393 253.275 32.2939V29.6417C253.275 28.8964 253.743 28.3677 254.723 28.3677C255.702 28.3677 256.187 28.8964 256.187 29.6417V29.8757ZM252.565 33.49H252.287C252.105 33.49 251.984 33.3946 251.949 33.2039L251.75 32.2592H250.718L250.519 33.2039C250.484 33.3946 250.372 33.49 250.181 33.49H249.904C249.687 33.49 249.574 33.3686 249.618 33.1433L250.562 28.723C250.606 28.541 250.718 28.4457 250.909 28.4457H251.559C251.75 28.4457 251.871 28.541 251.906 28.723L252.851 33.1433C252.894 33.3686 252.79 33.49 252.565 33.49ZM287.528 24.8748C287.909 23.9474 288.239 22.9854 288.447 21.98C289.192 22.0493 289.937 21.8153 290.527 21.2606C291.107 20.6886 291.549 19.7872 291.558 18.7904C290.943 18.9551 290.293 19.4145 289.617 20.0385C289.114 20.5065 288.759 21.1132 288.499 21.6419C288.663 20.7232 288.724 19.7612 288.698 18.8164C289.452 18.7384 290.154 18.3484 290.596 17.7157C290.83 17.3864 291.029 16.9877 291.133 16.5543C291.229 16.121 291.255 15.6443 291.203 15.1676C290.631 15.4276 290.033 15.991 289.495 16.7103C289.053 17.2737 288.837 17.9584 288.689 18.5391C288.689 18.3138 288.672 18.0884 288.663 17.8631C288.62 17.1177 288.507 16.3983 288.369 15.6789C289.877 15.3062 290.821 13.5641 290.301 11.7094C289.781 12.0387 289.261 12.6801 288.828 13.4688C288.499 14.1015 288.343 14.8642 288.317 15.4709C288.213 14.9509 288.091 14.4309 287.961 13.9282C287.84 13.4861 287.693 13.0615 287.537 12.6368C288.984 12.0561 289.712 10.2013 288.941 8.44186C288.464 8.84055 288.057 9.52525 287.71 10.366C287.45 11.068 287.415 11.8741 287.485 12.4808C287.233 11.77 286.956 11.068 286.653 10.4266C286.54 10.184 286.419 9.96728 286.297 9.73326C286.991 9.34324 287.459 8.69321 287.641 7.89583C287.797 7.11578 287.693 6.17973 287.173 5.37368C286.748 5.83304 286.444 6.56109 286.21 7.44514C286.028 8.23385 286.132 9.1179 286.289 9.73326C285.881 8.93589 285.456 8.18184 285.032 7.50581C284.737 7.08111 284.46 6.66509 284.182 6.2924C283.888 5.92838 283.602 5.5817 283.342 5.25234C282.77 4.63698 282.276 4.09961 281.825 3.70092C281.617 3.49291 281.426 3.32823 281.253 3.18089C280.724 1.65547 279.138 0.754088 277.552 1.08344C277.829 1.65547 278.384 2.23617 279.129 2.72153C279.788 3.15489 280.629 3.26756 281.236 3.25023C281.4 3.39757 281.574 3.57092 281.764 3.77026C282.189 4.18628 282.657 4.74098 283.186 5.38235C283.428 5.72037 283.688 6.07572 283.966 6.44841C284.217 6.83843 284.486 7.24579 284.763 7.67048C285.144 8.32052 285.534 9.03989 285.89 9.79393C285.699 9.56859 285.474 9.34324 285.205 9.1439C284.884 8.92722 284.52 8.76254 284.139 8.67587C283.316 8.49386 282.527 8.5892 281.964 8.83188C282.423 9.39525 283.012 9.81127 283.74 9.99328C284.425 10.1926 285.205 10.184 285.933 9.88927C286.037 10.1233 286.158 10.34 286.262 10.5826C286.531 11.198 286.774 11.8567 286.999 12.5328C286.653 12.0387 286.15 11.5274 285.491 11.3107C284.685 11.0333 283.922 11.0073 283.316 11.1807C284.018 12.4028 285.543 13.1048 287.069 12.7668C287.207 13.1828 287.346 13.6075 287.467 14.0408C287.58 14.4915 287.675 14.9682 287.771 15.4363C287.493 14.9249 287.086 14.3875 286.479 14.1015C285.699 13.7202 284.971 13.5988 284.347 13.6855C284.867 14.9769 286.28 15.8609 287.831 15.7483C287.961 16.4503 288.065 17.1524 288.1 17.8804C288.109 18.0711 288.117 18.2531 288.117 18.4438C287.935 17.9064 287.571 17.343 287.069 16.9877C286.349 16.5023 285.63 16.277 285.014 16.2856C285.17 16.979 285.595 17.5597 286.15 18.0191C286.705 18.4524 287.372 18.7644 288.126 18.8251C288.135 19.7092 288.074 20.5845 287.918 21.4773C287.84 20.9312 287.597 20.3332 287.173 19.9085C286.566 19.3105 285.864 18.9811 285.266 18.8858C285.335 19.5705 285.604 20.1772 286.089 20.7232C286.523 21.2259 287.121 21.6679 287.849 21.8846C287.684 22.734 287.424 23.5661 287.121 24.3721C287.138 23.8347 287.034 23.228 286.705 22.734C286.254 22.0146 285.638 21.5553 285.058 21.3473C284.91 22.5867 285.612 24.0514 286.939 24.7968C286.817 25.0915 286.713 25.3948 286.575 25.6722C286.332 26.1575 286.063 26.6256 285.786 27.0763C285.89 26.5562 285.89 25.9582 285.682 25.4468C285.344 24.6494 284.85 24.0861 284.33 23.7567C284.208 24.0774 284.174 24.4154 284.182 24.7535C284.182 25.0915 284.243 25.4382 284.356 25.7848C284.564 26.4262 284.936 27.0503 285.517 27.5183C285.257 27.9256 284.971 28.3157 284.685 28.6883V26.9462H246.056V29.2257L245.822 28.957C245.458 28.4977 245.119 28.0123 244.799 27.5096C245.38 27.0416 245.752 26.4175 245.96 25.7762C246.073 25.4295 246.134 25.0828 246.134 24.7448C246.134 24.4068 246.108 24.0601 245.986 23.7481C245.466 24.0687 244.981 24.6408 244.634 25.4382C244.435 25.9495 244.426 26.5562 244.53 27.0676C244.253 26.6082 243.984 26.1489 243.741 25.6635C243.603 25.3862 243.499 25.0828 243.377 24.7881C244.712 24.0427 245.414 22.578 245.258 21.3386C244.677 21.5466 244.062 22.006 243.611 22.7253C243.282 23.2107 243.178 23.8174 243.195 24.3634C242.892 23.5574 242.632 22.7253 242.467 21.8846C243.195 21.6593 243.793 21.2173 244.227 20.7146C244.712 20.1685 244.981 19.5618 245.05 18.8771C244.452 18.9725 243.75 19.3018 243.143 19.8998C242.719 20.3245 242.476 20.9226 242.398 21.4686C242.242 20.5845 242.181 19.7005 242.199 18.8164C242.953 18.7558 243.62 18.4438 244.175 18.0104C244.721 17.551 245.146 16.9703 245.302 16.277C244.686 16.277 243.967 16.4936 243.247 16.979C242.745 17.3344 242.389 17.9064 242.199 18.4351C242.199 18.2444 242.199 18.0624 242.216 17.8717C242.251 17.1437 242.355 16.4416 242.485 15.7396C244.036 15.8523 245.457 14.9769 245.969 13.6768C245.345 13.5815 244.617 13.7115 243.837 14.0928C243.239 14.3789 242.823 14.9162 242.545 15.4276C242.641 14.9596 242.736 14.4829 242.849 14.0322C242.97 13.5988 243.109 13.1741 243.247 12.7581C244.773 13.1048 246.298 12.4028 247 11.172C246.394 10.9987 245.631 11.0247 244.825 11.302C244.166 11.5187 243.663 12.0301 243.317 12.5241C243.542 11.8481 243.785 11.1893 244.053 10.574C244.157 10.3313 244.279 10.1146 244.383 9.88061C245.111 10.1753 245.891 10.184 246.576 9.98461C247.304 9.8026 247.893 9.38658 248.352 8.82321C247.789 8.58053 247.009 8.48519 246.177 8.6672C245.796 8.74521 245.432 8.91855 245.111 9.13523C244.842 9.33458 244.617 9.55992 244.426 9.78527C244.79 9.03123 245.171 8.31185 245.553 7.66181C245.83 7.23712 246.099 6.82977 246.35 6.43974C246.628 6.06706 246.888 5.70304 247.13 5.37368C247.659 4.73231 248.127 4.17762 248.552 3.76159C248.742 3.55358 248.916 3.3889 249.08 3.24156C249.687 3.26756 250.528 3.14622 251.187 2.71287C251.932 2.22751 252.478 1.65547 252.764 1.07477C251.178 0.745422 249.592 1.65547 249.063 3.17223C248.89 3.31957 248.699 3.48424 248.491 3.69226C248.04 4.09095 247.546 4.62831 246.983 5.24368C246.714 5.57303 246.437 5.91971 246.142 6.28374C245.865 6.65642 245.588 7.07245 245.293 7.49714C244.868 8.17318 244.435 8.92722 244.036 9.7246C244.192 9.1179 244.305 8.23385 244.114 7.43647C243.88 6.55242 243.585 5.82438 243.152 5.36502C242.632 6.17106 242.537 7.11578 242.684 7.88716C242.866 8.68454 243.343 9.33458 244.027 9.7246C243.906 9.95861 243.785 10.1753 243.672 10.418C243.369 11.068 243.091 11.7614 242.831 12.4721C242.901 11.8654 242.857 11.0593 242.606 10.3573C242.268 9.51659 241.852 8.82321 241.375 8.43319C240.613 10.1926 241.332 12.0474 242.779 12.6281C242.632 13.0528 242.485 13.4688 242.355 13.9195C242.225 14.4222 242.112 14.9422 241.999 15.4623C241.973 14.8642 241.817 14.1015 241.488 13.4601C241.063 12.6801 240.535 12.0301 240.015 11.7007C239.494 13.5555 240.439 15.2976 241.947 15.6703C241.809 16.381 241.696 17.109 241.653 17.8544C241.635 18.0797 241.627 18.3051 241.618 18.5304C241.471 17.9497 241.254 17.265 240.812 16.7017C240.275 15.9823 239.677 15.4189 239.104 15.1589C239.052 15.6443 239.078 16.121 239.165 16.5457C239.269 16.979 239.469 17.3777 239.703 17.7071C240.153 18.3484 240.847 18.7298 241.601 18.8078C241.575 19.7525 241.635 20.7146 241.8 21.6333C241.549 21.1046 241.185 20.4979 240.682 20.0299C240.006 19.4145 239.356 18.9465 238.74 18.7818C238.758 19.7785 239.191 20.6799 239.781 21.2519C240.37 21.8066 241.115 22.0406 241.861 21.9713C242.069 22.9767 242.389 23.9387 242.779 24.8661C242.433 24.3548 241.878 23.7567 241.237 23.358C240.439 22.9073 239.694 22.578 239.07 22.5347C239.564 24.5454 241.349 25.5248 242.831 25.0048C242.961 25.2995 243.065 25.6115 243.204 25.8975C243.533 26.5476 243.897 27.1629 244.287 27.761C243.837 27.3189 243.187 26.7642 242.407 26.5042C241.566 26.1922 240.76 26.0275 240.136 26.1142C240.361 26.5649 240.63 26.9636 240.959 27.2756C241.297 27.5876 241.67 27.8216 242.051 27.969C242.823 28.2637 243.637 28.1856 244.322 27.8043C244.66 28.3157 245.007 28.801 245.379 29.2604C245.579 29.4944 245.787 29.7111 245.995 29.9451V30.1011C245.501 29.7804 244.833 29.4684 244.157 29.347C243.247 29.2084 242.441 29.191 241.852 29.3904C242.129 29.8064 242.493 30.1271 242.875 30.3698C243.247 30.6211 243.655 30.7858 244.062 30.8465C244.764 30.9678 245.432 30.8291 245.995 30.4564V31.8519C245.25 31.8865 244.582 32.0165 244.105 32.2852C244.461 32.6146 244.859 32.8832 245.258 33.0653C245.501 33.1606 245.744 33.2213 245.986 33.2646V34.946H284.616V33.1519L284.919 33.0653C285.326 32.8832 285.716 32.6146 286.072 32.2852C285.69 32.0685 285.188 31.9472 284.616 31.8865V30.6818C285.084 30.8725 285.595 30.9418 286.124 30.8465C286.54 30.7858 286.939 30.6211 287.311 30.3698C287.684 30.1184 288.057 29.8064 288.325 29.3904C287.736 29.191 286.93 29.2084 286.02 29.347C285.526 29.4337 285.032 29.6331 284.607 29.8584V29.4684L284.798 29.2604C285.17 28.801 285.517 28.307 285.855 27.8043C286.54 28.1856 287.355 28.2637 288.126 27.969C288.507 27.8216 288.88 27.5876 289.218 27.2756C289.547 26.9636 289.816 26.5649 290.041 26.1142C289.417 26.0275 288.611 26.1835 287.771 26.5042C286.999 26.7729 286.34 27.3276 285.89 27.761C286.28 27.1629 286.644 26.5476 286.973 25.8975C287.121 25.6115 287.225 25.2995 287.346 25.0048C288.819 25.5248 290.613 24.5454 291.107 22.5347C290.483 22.578 289.747 22.9073 288.941 23.358C288.299 23.7567 287.745 24.3548 287.398 24.8661" fill="black"/>
<path d="M284.988 2.53088C284.633 3.05091 284.442 3.83096 284.338 4.73234C284.252 5.56439 284.494 6.41377 284.72 7.00314C286.002 6.07575 286.254 4.06497 284.98 2.53955" fill="black"/>
<path d="M284.435 7.19376C283.993 6.7344 283.239 6.29238 282.467 6.24038C281.609 6.18837 280.864 6.39639 280.344 6.71707C281.349 7.67912 283.039 7.97381 284.435 7.19376Z" fill="black"/>
<path d="M282.805 4.49838C283.36 3.93501 283.654 3.16364 283.576 2.35759C283.524 1.53421 283.074 0.684827 282.328 0.00878906C282.068 0.589489 281.999 1.41287 282.077 2.30559C282.12 3.1463 282.502 3.94368 282.814 4.49838" fill="black"/>
<path d="M278.471 4.93172C279.554 5.68576 281.279 5.70309 282.536 4.74104C282.033 4.34235 281.21 4.03033 280.456 4.10834C279.597 4.21234 278.921 4.52436 278.471 4.94038" fill="black"/>
<path d="M245.675 6.99423C245.9 6.40486 246.152 5.55548 246.056 4.72343C245.961 3.82205 245.77 3.05067 245.415 2.52197C244.149 4.04739 244.392 6.05817 245.675 6.98556" fill="black"/>
<path d="M250.06 6.70842C249.54 6.38773 248.794 6.18839 247.936 6.23172C247.165 6.28373 246.411 6.71708 245.969 7.18511C247.355 7.96515 249.054 7.67047 250.06 6.70842Z" fill="black"/>
<path d="M248.335 2.30559C248.404 1.4042 248.335 0.580822 248.075 0.00012207C247.33 0.67616 246.879 1.52554 246.827 2.34892C246.749 3.15497 247.044 3.93501 247.598 4.48971C247.902 3.93501 248.283 3.13763 248.335 2.29692" fill="black"/>
<path d="M251.932 4.93147C251.481 4.52412 250.805 4.2121 249.947 4.09943C249.193 4.02142 248.37 4.33344 247.867 4.73213C249.133 5.69418 250.849 5.67685 251.932 4.92281" fill="black"/>
<path d="M255.451 17.1524C255.563 16.7798 255.771 16.0777 256.083 15.0463C256.161 15.3843 256.369 16.0864 256.716 17.1524L257.704 20.2033H254.489L255.459 17.1524H255.451ZM252.954 24.9962L253.509 23.2628H258.701L259.255 24.9962H263.199L258.328 11.7528H253.865L249.158 24.9962H252.954Z" fill="black"/>
<path d="M269.595 14.1966H267.229V11.8218H265.617V14.1966H263.242V15.6873H265.617V18.0448H267.229V15.6873H269.595V14.1966Z" fill="black"/>
<path d="M275.161 11.8218H273.549V14.1966H271.174V15.6787H273.549V18.0448H275.161V15.6787H277.527V14.1966H275.161V11.8218Z" fill="black"/>
<path d="M256.109 4.89701H256.135L257.825 9.70729H259.403V2.83423H258.129V7.5405H258.112L256.439 2.83423H254.844V9.70729H256.109V4.89701Z" fill="black"/>
<path d="M262.548 4.03054H262.566L263.233 7.11605H261.89L262.548 4.03054ZM261.647 8.25145H263.476L263.796 9.70753H265.235L263.415 2.83447H261.699L259.879 9.70753H261.326L261.647 8.25145Z" fill="black"/>
<path d="M268.173 4.03054H268.191L268.858 7.11605H267.515L268.182 4.03054H268.173ZM267.272 8.25145H269.101L269.421 9.70753H270.86L269.04 2.83447H267.324L265.504 9.70753H266.951L267.272 8.25145Z" fill="black"/>
<path d="M271.312 8.84082C271.477 9.15284 271.711 9.40418 272.023 9.57752C272.326 9.75087 272.742 9.84621 273.262 9.84621C273.721 9.84621 274.085 9.7682 274.371 9.62086C274.657 9.47352 274.883 9.27417 275.039 9.02283C275.195 8.77148 275.307 8.4768 275.359 8.13878C275.42 7.80076 275.446 7.45407 275.446 7.08138H274.059C274.059 7.45407 274.042 7.74875 273.99 7.98277C273.947 8.20811 273.886 8.39012 273.808 8.51146C273.73 8.6328 273.635 8.71948 273.531 8.76281C273.427 8.80615 273.314 8.82348 273.184 8.82348C273.037 8.82348 272.907 8.79748 272.794 8.72814C272.681 8.66747 272.586 8.54613 272.517 8.37279C272.439 8.19945 272.387 7.9481 272.352 7.62741C272.317 7.30673 272.3 6.89071 272.3 6.37068C272.3 5.88532 272.317 5.46929 272.343 5.13127C272.369 4.79325 272.413 4.52457 272.473 4.31656C272.534 4.10855 272.621 3.96121 272.742 3.86587C272.855 3.77053 272.993 3.72719 273.167 3.72719C273.479 3.72719 273.695 3.83987 273.817 4.06521C273.938 4.29056 273.999 4.65458 273.999 5.15727H275.385C275.385 4.90593 275.368 4.63725 275.333 4.35123C275.299 4.06521 275.212 3.79653 275.073 3.55385C274.935 3.31117 274.718 3.10316 274.432 2.93848C274.146 2.78247 273.756 2.6958 273.262 2.6958C272.768 2.6958 272.326 2.78247 272.023 2.96448C271.711 3.13783 271.477 3.38917 271.312 3.70119C271.147 4.01321 271.043 4.39456 270.991 4.82792C270.939 5.26995 270.922 5.74664 270.922 6.26667C270.922 6.7867 270.948 7.26339 270.991 7.70542C271.043 8.14744 271.147 8.52013 271.312 8.83215" fill="black"/>
<path d="M266.728 21.3905H267.031C267.23 21.3905 267.352 21.2779 267.352 21.0785V21.0265C267.352 20.2811 266.875 19.7524 265.887 19.7524C264.899 19.7524 264.439 20.2811 264.439 21.0265V23.696C264.439 24.398 264.803 24.9267 265.627 24.9267C266.199 24.9267 266.433 24.5627 266.468 24.4327V24.5627C266.468 24.7707 266.58 24.8834 266.788 24.8834H267.04C267.239 24.8834 267.36 24.7707 267.36 24.5627V22.3613C267.36 22.1619 267.239 22.0492 267.04 22.0492H266.294C266.086 22.0492 265.974 22.1706 265.974 22.3613V22.5433C265.974 22.7426 266.086 22.864 266.294 22.864H266.424V23.644C266.424 23.9213 266.26 24.112 265.896 24.112C265.532 24.112 265.384 23.93 265.384 23.644V21.0785C265.384 20.8012 265.532 20.6105 265.896 20.6105C266.26 20.6105 266.424 20.7925 266.424 21.0698V21.1219C266.424 21.2865 266.537 21.3905 266.736 21.3905" fill="black"/>
<path d="M270.038 21.7633C270.038 22.0407 269.891 22.214 269.518 22.214H269.085V20.6453H269.518C269.891 20.6453 270.038 20.8186 270.038 21.096V21.7547V21.7633ZM270.974 21.772V21.1046C270.974 20.3593 270.506 19.8306 269.518 19.8306H268.469C268.261 19.8306 268.148 19.9432 268.148 20.1426V24.5628C268.148 24.7622 268.261 24.8749 268.469 24.8749H268.772C268.972 24.8749 269.093 24.7622 269.093 24.5628V23.0288H269.474L269.986 24.6062C270.055 24.7969 270.168 24.8749 270.359 24.8749H270.723C270.948 24.8749 271.052 24.7275 270.974 24.5108L270.367 22.8554C270.783 22.6387 270.983 22.2487 270.983 21.7633" fill="black"/>
<path d="M272.646 22.8553L272.672 22.7253C272.889 21.6592 272.95 21.2172 272.993 20.7492C273.028 21.2259 273.097 21.6505 273.314 22.7253L273.34 22.8553H272.629H272.646ZM273.322 19.8304H272.672C272.482 19.8304 272.369 19.9258 272.326 20.1078L271.381 24.5367C271.338 24.7621 271.442 24.8834 271.667 24.8834H271.944C272.135 24.8834 272.248 24.7881 272.282 24.5974L272.482 23.6527H273.513L273.712 24.5974C273.747 24.7881 273.868 24.8834 274.05 24.8834H274.328C274.553 24.8834 274.657 24.7621 274.614 24.5367L273.66 20.1078C273.626 19.9258 273.504 19.8304 273.314 19.8304" fill="black"/>
<path d="M277.179 21.1045V23.6093C277.179 23.8867 277.023 24.0687 276.651 24.0687H276.139V20.6452H276.651C277.023 20.6452 277.179 20.8185 277.179 21.1045ZM275.515 19.8304C275.307 19.8304 275.203 19.9431 275.203 20.1425V24.5627C275.203 24.7707 275.316 24.8834 275.515 24.8834H276.651C277.639 24.8834 278.115 24.3634 278.115 23.618V21.1045C278.115 20.3505 277.639 19.8304 276.651 19.8304H275.515Z" fill="black"/>
<path d="M281.01 20.6452C281.209 20.6452 281.322 20.5238 281.322 20.3331V20.1511C281.322 19.9518 281.209 19.8304 281.01 19.8304H279.19C278.982 19.8304 278.869 19.9518 278.869 20.1511V24.5714C278.869 24.7794 278.982 24.8834 279.19 24.8834H281.01C281.209 24.8834 281.322 24.7707 281.322 24.5714V24.398C281.322 24.19 281.209 24.0774 281.01 24.0774H279.805V22.7426H280.802C281.01 22.7426 281.123 22.6213 281.123 22.4306V22.2486C281.123 22.0492 281.01 21.9279 280.802 21.9279H279.805V20.6538H281.01V20.6452Z" fill="black"/>
<path d="M268.451 29.2603H267.939V32.6838H268.451C268.823 32.6838 268.98 32.5018 268.98 32.2158V29.7109C268.98 29.4336 268.823 29.2603 268.451 29.2603Z" fill="black"/>
<path d="M261.744 29.2603H261.311V30.829H261.744C262.117 30.829 262.264 30.6557 262.264 30.3783V29.7196C262.264 29.4423 262.117 29.2689 261.744 29.2689" fill="black"/>
<path d="M251.229 29.356C251.186 29.824 251.117 30.266 250.909 31.3321L250.883 31.4621H251.585L251.559 31.3321C251.351 30.2487 251.273 29.8327 251.238 29.356" fill="black"/>
<path d="M279.814 29.2604H279.303V32.6839H279.814C280.187 32.6839 280.343 32.5019 280.343 32.2159V29.7111C280.343 29.4337 280.187 29.2604 279.814 29.2604Z" fill="black"/>
<path d="M194.816 65.3501C194.174 65.2547 193.568 65.0987 193.004 64.8994C193.013 64.7954 193.004 64.3707 192.718 63.9287C192.397 63.426 191.895 63.0446 191.895 63.0446C191.895 63.0446 191.704 63.504 191.999 64.0413C192.207 64.4314 192.631 64.726 192.866 64.8474C192.354 64.6567 191.877 64.4314 191.427 64.18C191.453 64.0847 191.531 63.66 191.349 63.1833C191.141 62.6459 190.725 62.1866 190.725 62.1779C190.725 62.1779 190.456 62.6026 190.629 63.1746C190.751 63.5906 191.106 63.946 191.297 64.102C190.82 63.816 190.378 63.4953 189.979 63.14C190.023 63.0533 190.179 62.6546 190.101 62.1519C190.005 61.5885 189.693 61.0685 189.693 61.0685C189.693 61.0685 189.355 61.4325 189.407 62.0219C189.451 62.4466 189.711 62.8626 189.867 63.0446C189.494 62.7066 189.156 62.3426 188.844 61.9612C188.905 61.8745 189.13 61.5192 189.139 61.0165C189.147 60.4531 188.931 59.8898 188.931 59.8898C188.931 59.8898 188.532 60.1931 188.489 60.7825C188.454 61.2072 188.645 61.6579 188.757 61.8572C188.445 61.4499 188.159 61.0165 187.917 60.5745C187.995 60.5051 188.272 60.1845 188.376 59.6991C188.489 59.1444 188.367 58.5637 188.367 58.555C188.367 58.555 187.925 58.7804 187.778 59.3524C187.674 59.7684 187.778 60.2278 187.856 60.4531C187.631 60.0198 187.431 59.5691 187.275 59.1097C187.362 59.0577 187.691 58.789 187.873 58.3297C188.073 57.801 188.047 57.203 188.047 57.203C188.047 57.203 187.579 57.3503 187.336 57.8877C187.163 58.2777 187.197 58.7544 187.232 58.9797C187.067 58.4857 186.946 57.9743 186.859 57.463C186.955 57.4196 187.327 57.2203 187.579 56.8043C187.865 56.3189 187.943 55.7295 187.943 55.7295C187.943 55.7295 187.449 55.7989 187.128 56.2756C186.894 56.6223 186.842 57.0989 186.833 57.333C186.764 56.8476 186.729 56.3622 186.729 55.8769C186.824 55.8509 187.232 55.7209 187.544 55.3395C187.899 54.9062 188.073 54.3341 188.081 54.3341C188.081 54.3341 187.587 54.3168 187.188 54.7415C186.902 55.0535 186.772 55.5042 186.729 55.7382C186.738 55.2442 186.781 54.7501 186.859 54.2648C186.963 54.2561 187.379 54.1868 187.752 53.8748C188.177 53.5107 188.454 52.9734 188.454 52.9734C188.454 52.9734 187.969 52.8694 187.501 53.2247C187.163 53.4761 186.954 53.9181 186.876 54.1348C186.963 53.6494 187.093 53.1814 187.249 52.7134C187.353 52.722 187.769 52.7307 188.203 52.4707C188.688 52.1847 189.061 51.6906 189.061 51.6906C189.061 51.6906 188.593 51.5086 188.073 51.7773C187.691 51.9767 187.414 52.3753 187.293 52.5747C187.475 52.072 187.7 51.5953 187.977 51.1273C188.073 51.1533 188.497 51.2313 188.965 51.0579C189.503 50.8586 189.979 50.4252 189.988 50.4252C189.988 50.4252 189.563 50.1652 188.983 50.3472C188.567 50.4772 188.203 50.8239 188.055 51.0059C188.315 50.5726 188.619 50.1565 188.957 49.7665C189.043 49.8099 189.451 49.9572 189.962 49.8619C190.543 49.7492 191.115 49.3938 191.123 49.3938C191.123 49.3938 190.751 49.0645 190.118 49.1512C189.667 49.2118 189.243 49.5065 189.043 49.6625C189.217 49.4718 189.39 49.2898 189.572 49.1165C189.806 49.0125 190.222 48.8131 190.638 48.5098C191.253 48.0591 191.721 47.4871 191.73 47.4871C191.739 47.4871 190.967 47.5477 190.291 48.0418C189.841 48.3711 189.581 48.7871 189.468 49.0125C189.277 49.1945 189.095 49.3765 188.931 49.5672C189.069 49.3505 189.338 48.9171 189.494 48.4578C189.702 47.8251 189.537 47.3657 189.529 47.3657C189.529 47.3657 188.853 47.9811 188.688 48.6398C188.541 49.2205 188.775 49.5932 188.827 49.6712C188.48 50.0699 188.177 50.4946 187.908 50.9279C187.995 50.7026 188.177 50.2346 188.229 49.7752C188.307 49.1338 188.047 48.7178 188.047 48.7178C188.047 48.7178 187.527 49.4112 187.501 50.0785C187.475 50.6592 187.769 50.9799 187.839 51.0493C187.561 51.5173 187.336 52.0113 187.145 52.5227C187.188 52.2887 187.267 51.8033 187.232 51.3526C187.171 50.7199 186.842 50.3646 186.833 50.3646C186.833 50.3646 186.478 51.1186 186.582 51.7686C186.677 52.332 187.024 52.6007 187.102 52.6527C186.937 53.1207 186.807 53.6061 186.72 54.1001C186.72 53.8661 186.72 53.3807 186.599 52.9474C186.426 52.3407 186.036 52.046 186.036 52.046C186.036 52.046 185.819 52.8434 186.036 53.4587C186.226 53.9961 186.608 54.1954 186.694 54.2388C186.608 54.7415 186.564 55.2355 186.556 55.7382C186.521 55.5042 186.434 55.0362 186.235 54.6288C185.966 54.0654 185.524 53.8401 185.524 53.8488C185.524 53.8488 185.455 54.6635 185.767 55.2268C186.044 55.7209 186.452 55.8509 186.547 55.8769C186.547 56.3709 186.582 56.8649 186.66 57.3503C186.582 57.1249 186.426 56.6743 186.166 56.3102C185.81 55.7989 185.342 55.6602 185.334 55.6602C185.334 55.6602 185.394 56.4749 185.802 56.9776C186.148 57.4196 186.582 57.4803 186.677 57.489C186.764 58.009 186.885 58.529 187.05 59.0317C186.937 58.8237 186.703 58.4077 186.391 58.087C185.949 57.645 185.472 57.593 185.464 57.593C185.464 57.593 185.663 58.3817 186.148 58.8064C186.564 59.1791 186.998 59.1617 187.093 59.1617C187.258 59.6298 187.448 60.0804 187.683 60.5225C187.535 60.3318 187.24 59.9591 186.876 59.6991C186.374 59.3351 185.888 59.3611 185.888 59.3697C185.888 59.3697 186.209 60.1151 186.755 60.4618C187.232 60.7651 187.657 60.6698 187.743 60.6525C187.995 61.1032 188.272 61.5452 188.593 61.9525C188.411 61.7879 188.055 61.4672 187.657 61.2765C187.102 61.0078 186.625 61.1205 186.616 61.1205C186.616 61.1205 187.059 61.8052 187.665 62.0479C188.185 62.2646 188.593 62.0999 188.679 62.0652C188.991 62.4552 189.338 62.8279 189.711 63.166C189.503 63.0359 189.087 62.7759 188.653 62.6546C188.055 62.4813 187.605 62.6633 187.596 62.6719C187.596 62.6719 188.151 63.2786 188.792 63.4173C189.347 63.5473 189.719 63.3133 189.806 63.27C190.213 63.6253 190.664 63.9547 191.141 64.2407C190.907 64.1453 190.439 63.972 189.979 63.92C189.347 63.8507 188.931 64.1193 188.931 64.1193C188.922 64.1193 189.607 64.6134 190.274 64.6394C190.855 64.6654 191.193 64.3794 191.262 64.31C191.721 64.57 192.207 64.804 192.718 64.9947C192.458 64.9427 191.947 64.8474 191.47 64.8734C190.811 64.9167 190.456 65.2461 190.456 65.2461C190.456 65.2461 191.227 65.6188 191.929 65.5408C192.527 65.4714 192.813 65.1247 192.874 65.0467C193.455 65.2461 194.07 65.4021 194.72 65.4974L194.859 65.4454L194.738 65.3674L194.816 65.3501Z" fill="black"/>
<path d="M204.974 58.7976C205.459 58.3729 205.658 57.5841 205.658 57.5841C205.658 57.5841 205.173 57.6448 204.731 58.0782C204.41 58.3989 204.185 58.8149 204.072 59.0229C204.237 58.5202 204.367 58.0002 204.454 57.4801C204.549 57.4628 204.982 57.4108 205.329 56.9601C205.736 56.4574 205.797 55.6427 205.797 55.6427C205.797 55.6427 205.329 55.7814 204.965 56.2927C204.705 56.6568 204.549 57.1075 204.471 57.3328C204.54 56.8388 204.584 56.3534 204.584 55.8594C204.679 55.8334 205.095 55.7034 205.364 55.2007C205.684 54.6373 205.615 53.8139 205.606 53.8226C205.606 53.8226 205.164 54.0393 204.896 54.6026C204.696 55.01 204.618 55.478 204.575 55.712C204.575 55.2093 204.523 54.7067 204.436 54.2126C204.523 54.1693 204.913 53.9699 205.095 53.4326C205.312 52.8172 205.104 52.0198 205.095 52.0198C205.095 52.0198 204.696 52.3145 204.532 52.9212C204.41 53.3546 204.41 53.8399 204.41 54.074C204.324 53.5886 204.194 53.1032 204.029 52.6352C204.107 52.5745 204.454 52.3145 204.549 51.7512C204.653 51.1011 204.298 50.3384 204.298 50.3471C204.298 50.3471 203.96 50.7024 203.899 51.3351C203.856 51.7858 203.942 52.2712 203.986 52.5052C203.804 52.0025 203.57 51.5085 203.292 51.0318C203.362 50.9624 203.656 50.6331 203.63 50.0611C203.604 49.3937 203.093 48.6916 203.084 48.7003C203.084 48.7003 202.824 49.1163 202.902 49.7577C202.954 50.2171 203.136 50.6851 203.223 50.9104C202.954 50.4684 202.651 50.0524 202.304 49.6537C202.356 49.5757 202.59 49.203 202.443 48.6223C202.287 47.9549 201.611 47.3396 201.611 47.3482C201.611 47.3482 201.437 47.8076 201.646 48.4403C201.793 48.8997 202.07 49.333 202.209 49.541C202.035 49.3504 201.862 49.1597 201.671 48.9863C201.559 48.761 201.299 48.345 200.848 48.0156C200.172 47.5216 199.401 47.4522 199.409 47.4609C199.409 47.4609 199.877 48.0329 200.501 48.4836C200.926 48.787 201.342 48.9863 201.576 49.0903C201.758 49.2637 201.94 49.4457 202.105 49.6364C201.914 49.4804 201.481 49.1943 201.03 49.125C200.406 49.0383 200.025 49.3764 200.025 49.3677C200.025 49.3677 200.605 49.723 201.186 49.8357C201.706 49.9311 202.105 49.7837 202.191 49.7404C202.53 50.1304 202.833 50.5464 203.093 50.9798C202.937 50.7978 202.582 50.4511 202.157 50.3211C201.576 50.1391 201.151 50.4077 201.151 50.3991C201.151 50.3991 201.628 50.8324 202.174 51.0318C202.651 51.2051 203.067 51.1271 203.162 51.1011C203.431 51.5691 203.656 52.0458 203.847 52.5485C203.734 52.3492 203.448 51.9505 203.067 51.7512C202.538 51.4738 202.07 51.6645 202.079 51.6558C202.079 51.6558 202.452 52.1498 202.937 52.4445C203.37 52.6959 203.795 52.6872 203.89 52.6872C204.055 53.1466 204.176 53.6319 204.272 54.1086C204.194 53.8919 203.986 53.4586 203.648 53.1986C203.18 52.8432 202.694 52.9472 202.694 52.9472C202.694 52.9472 202.972 53.4933 203.396 53.8486C203.778 54.1693 204.194 54.23 204.289 54.2386C204.367 54.7327 204.41 55.218 204.419 55.7207C204.376 55.4954 204.246 55.036 203.96 54.724C203.561 54.2993 203.058 54.3166 203.067 54.3166C203.067 54.3166 203.24 54.8973 203.604 55.322C203.925 55.6947 204.324 55.8334 204.419 55.8594C204.419 56.3447 204.384 56.8301 204.306 57.3155C204.306 57.0815 204.254 56.6134 204.02 56.2581C203.7 55.7727 203.197 55.712 203.206 55.712C203.206 55.712 203.284 56.3101 203.57 56.7868C203.83 57.2115 204.202 57.4108 204.289 57.4455C204.202 57.9655 204.081 58.4682 203.916 58.9622C203.951 58.7369 203.977 58.2515 203.812 57.8702C203.578 57.3328 203.102 57.1855 203.102 57.1855C203.102 57.1855 203.076 57.7835 203.275 58.3122C203.457 58.7716 203.786 59.0402 203.864 59.0922C203.708 59.5516 203.518 60.0023 203.284 60.4356C203.362 60.2103 203.466 59.7509 203.362 59.3349C203.214 58.7629 202.772 58.5375 202.772 58.5375C202.772 58.5375 202.651 59.1269 202.764 59.6816C202.868 60.167 203.154 60.4876 203.223 60.557C202.98 61.0077 202.703 61.4324 202.391 61.8397C202.504 61.6317 202.686 61.1897 202.651 60.765C202.608 60.1756 202.209 59.8809 202.209 59.8723C202.209 59.8723 201.992 60.4356 202.001 61.0077C202.018 61.5104 202.235 61.8657 202.296 61.9524C201.984 62.3338 201.645 62.6978 201.273 63.0358C201.42 62.8451 201.689 62.4378 201.732 62.0131C201.793 61.4237 201.446 61.0597 201.446 61.0597C201.446 61.0597 201.134 61.5797 201.039 62.1431C200.961 62.6371 201.117 63.0358 201.16 63.1311C200.753 63.4865 200.319 63.8072 199.843 64.0932C200.033 63.9372 200.38 63.5818 200.51 63.1658C200.683 62.5938 200.406 62.1691 200.415 62.1691C200.415 62.1691 199.999 62.6284 199.791 63.1745C199.609 63.6512 199.687 64.0759 199.713 64.1712C199.262 64.4312 198.785 64.6566 198.274 64.8386C198.499 64.7172 198.933 64.4225 199.141 64.0325C199.427 63.4952 199.236 63.0358 199.245 63.0358C199.245 63.0358 198.742 63.4172 198.421 63.9198C198.144 64.3619 198.127 64.7866 198.135 64.8906C197.563 65.0899 196.965 65.2373 196.324 65.3413L196.211 65.4279L196.35 65.4799C197 65.3846 197.615 65.2286 198.196 65.0292C198.257 65.1072 198.534 65.4539 199.141 65.5233C199.834 65.6099 200.614 65.2372 200.614 65.2286C200.614 65.2286 200.25 64.8906 199.6 64.8559C199.132 64.8212 198.612 64.9252 198.352 64.9772C198.872 64.7866 199.357 64.5612 199.808 64.2925C199.877 64.3619 200.207 64.6479 200.796 64.6219C201.472 64.5959 202.148 64.1019 202.139 64.1019C202.139 64.1019 201.723 63.8332 201.091 63.9025C200.631 63.9458 200.163 64.1279 199.929 64.2232C200.406 63.9372 200.857 63.6078 201.264 63.2525C201.351 63.3045 201.723 63.5298 202.278 63.3998C202.92 63.2611 203.483 62.6544 203.474 62.6544C203.474 62.6544 203.024 62.4638 202.426 62.6371C201.992 62.7584 201.576 63.0185 201.368 63.1485C201.741 62.8104 202.088 62.4378 202.4 62.0477C202.486 62.0824 202.894 62.2471 203.414 62.0304C204.012 61.7877 204.462 61.103 204.462 61.103C204.462 61.103 203.986 60.9903 203.422 61.259C203.015 61.4497 202.66 61.7704 202.486 61.9351C202.807 61.519 203.084 61.0857 203.336 60.635C203.431 60.6523 203.856 60.7477 204.324 60.4443C204.87 60.1063 205.199 59.3522 205.19 59.3522C205.19 59.3522 204.705 59.3263 204.202 59.6816C203.838 59.9416 203.544 60.3143 203.396 60.505C203.63 60.063 203.821 59.6123 203.986 59.1442C204.081 59.1442 204.514 59.1529 204.93 58.7802" fill="black"/>
<path d="M163.363 43.5263C163.441 43.2489 163.511 43.0322 163.58 42.7896C163.719 43.1189 163.857 43.4223 164.013 43.7863C164.161 43.5349 164.274 43.3529 164.412 43.1189C164.464 43.4829 164.508 43.8123 164.568 44.211C164.768 44.0203 164.915 43.8816 165.114 43.6909C165.08 44.055 165.054 44.3583 165.028 44.7397C165.262 44.6097 165.452 44.5056 165.695 44.3756C165.565 44.7137 165.444 45.017 165.296 45.3897C165.582 45.3204 165.808 45.2597 166.068 45.1904C165.842 45.485 165.652 45.7451 165.409 46.0657C165.669 46.0917 165.868 46.1091 166.128 46.1351C165.86 46.3431 165.634 46.5251 165.348 46.7504C165.608 46.8458 165.808 46.9238 166.05 47.0105C165.721 47.1491 165.426 47.2705 165.071 47.4265C165.296 47.5652 165.478 47.6778 165.73 47.8425C165.348 47.8945 165.036 47.9378 164.733 47.9812L164.681 48.0679C164.872 48.1979 165.071 48.3192 165.262 48.4492L165.166 48.5532C164.846 48.5099 164.516 48.4752 164.117 48.4232C164.256 48.6746 164.36 48.8739 164.482 49.1166C164.135 48.9779 163.84 48.8566 163.476 48.7092C163.545 48.9866 163.589 49.1946 163.658 49.4633C163.355 49.2379 163.103 49.0559 162.791 48.8306V49.6366C162.531 49.3073 162.323 49.0472 162.089 48.7526C162.003 49.0039 161.942 49.2032 161.864 49.4719C161.717 49.1252 161.595 48.8479 161.448 48.5012C161.301 48.7352 161.179 48.9172 161.023 49.1512C160.98 48.7872 160.937 48.4839 160.885 48.0939C160.685 48.2585 160.529 48.3885 160.313 48.5619C160.356 48.1979 160.391 47.8945 160.434 47.5218C160.183 47.6605 159.983 47.7645 159.749 47.8945C159.879 47.5652 160.001 47.2618 160.148 46.8891C159.888 46.9411 159.697 46.9845 159.411 47.0451C159.645 46.7331 159.827 46.4818 160.061 46.1697H159.281C159.593 45.9184 159.819 45.7364 160.105 45.5024C159.836 45.407 159.619 45.3377 159.385 45.2597C159.706 45.1297 160.009 45.0083 160.382 44.8523C160.148 44.6963 159.966 44.5837 159.723 44.4276C160.105 44.3756 160.417 44.341 160.815 44.289C160.607 44.0723 160.46 43.9163 160.287 43.7343C160.651 43.7689 160.963 43.7949 161.344 43.8296C161.214 43.5869 161.11 43.3963 160.98 43.1536C161.318 43.2922 161.613 43.4136 161.977 43.5696C161.916 43.3009 161.873 43.0756 161.821 42.8156C162.107 43.0236 162.367 43.2229 162.679 43.4656V42.7982L162.748 42.7549C162.947 42.9976 163.138 43.2402 163.381 43.5349" fill="black"/>
<path d="M147.225 64.8995C147.225 64.3621 147.225 63.8768 147.225 63.3827C147.225 63.1141 147.45 63.1141 147.597 63.0794C148.36 62.8801 149.123 62.6547 149.894 62.5247C151.983 62.178 154.089 62.1607 156.195 62.4207C157.885 62.62 159.549 62.9234 161.144 63.4868C162.028 63.7988 162.782 63.8161 163.666 63.4868C164.663 63.1227 165.72 62.9147 166.769 62.7154C167.722 62.5334 168.684 62.412 169.647 62.3254C170.522 62.2474 171.406 62.23 172.29 62.2474C174.075 62.282 175.835 62.5507 177.551 63.0707C177.785 63.1401 177.898 63.2527 177.88 63.5128C177.854 63.9548 177.88 64.4055 177.88 64.8822C177.187 64.7088 176.537 64.5355 175.878 64.3968C173.859 63.9634 171.822 63.7641 169.759 63.8248C167.419 63.9028 165.114 64.2321 162.869 64.8995C162.314 65.0642 161.829 64.8562 161.335 64.7262C159.861 64.3361 158.379 64.0501 156.862 63.9461C156.325 63.9114 155.796 63.8421 155.259 63.8248C152.59 63.7641 149.963 64.1021 147.398 64.8648L147.225 64.8995Z" fill="black"/>
<path d="M147.207 65.5061L147.415 65.402C148.741 65.1507 150.058 64.8473 151.393 64.6827C152.572 64.5353 153.777 64.4747 154.964 64.4833C157.417 64.492 159.826 64.8907 162.167 65.6361C162.349 65.6967 162.591 65.6881 162.773 65.6274C164.186 65.1767 165.633 64.856 167.107 64.6567C168.988 64.3967 170.877 64.4053 172.758 64.544C174.405 64.674 176.025 64.986 177.62 65.428C177.715 65.454 177.802 65.5234 177.897 65.5754L177.854 65.6707C177.447 65.5667 177.048 65.4454 176.641 65.3674C175.401 65.1507 174.162 64.9254 172.914 64.778C172.038 64.674 171.154 64.6393 170.27 64.6393C167.705 64.6567 165.183 65.0034 162.739 65.8181C162.574 65.8701 162.357 65.8787 162.201 65.8181C160.788 65.35 159.341 65.0294 157.868 64.856C156.238 64.6567 154.591 64.5873 152.953 64.752C151.645 64.882 150.345 65.0554 149.036 65.2374C148.559 65.3067 148.1 65.428 147.632 65.5321C147.502 65.5581 147.372 65.5841 147.25 65.6101L147.216 65.5061H147.207Z" fill="black"/>
<path d="M165.364 62.1866V50.7026H160.129V62.2646C160.831 60.9991 161.542 59.8118 162.747 58.9104C163.215 59.4391 163.709 59.9331 164.142 60.4878C164.575 61.0338 164.957 61.6145 165.364 62.1866ZM150.873 50.6332H147.232V60.9731H151.15V60.5831C151.15 58.997 151.133 57.4023 151.159 55.8162C151.167 55.3482 151.254 54.8541 151.41 54.4121C151.661 53.6841 152.355 53.346 153.135 53.4847C153.776 53.5974 154.184 54.1261 154.192 54.9148C154.21 56.8042 154.209 58.7024 154.209 60.5831C154.209 60.7131 154.218 60.8431 154.227 60.9731H158.153C158.162 60.8605 158.179 60.7738 158.179 60.6871C158.179 58.5463 158.179 56.4142 158.179 54.2734C158.179 53.8574 158.144 53.4414 158.058 53.0427C157.737 51.5259 156.827 50.6246 155.423 50.4339C153.707 50.1999 152.242 50.6679 151.124 52.0546C151.063 52.124 151.003 52.1847 150.873 52.3147V50.6246V50.6332ZM179.7 50.8846C179.31 50.8846 178.963 50.8846 178.625 50.8846C178.145 50.8788 177.92 50.639 177.949 50.1652C177.984 49.6365 178.235 49.2985 178.746 49.2551C179.258 49.2118 179.769 49.2378 180.28 49.2985C180.558 49.3245 180.662 49.2725 180.757 49.0125C181 48.3624 181.286 47.7211 181.546 47.071C181.624 46.8803 181.476 46.837 181.346 46.8023C179.847 46.4557 178.322 46.3517 176.831 46.6897C175.011 47.097 174.248 47.8597 174.118 49.6365C174.083 50.0699 174.066 50.5032 174.04 50.9539C172.757 51.1186 171.63 51.5259 171.058 52.8347L170.98 52.7827V50.6679H167.358V60.9991H171.284C171.284 60.8605 171.284 60.7391 171.284 60.6178C171.284 59.3004 171.275 57.9743 171.292 56.6569C171.301 55.9982 171.353 55.3308 171.656 54.7241C172.142 53.7447 173.087 53.6234 174.066 53.4414V60.9991H177.897V60.5745C177.897 58.321 177.897 56.0762 177.888 53.8227C177.888 53.5107 177.975 53.3807 178.287 53.4327C178.538 53.4761 178.651 53.3807 178.746 53.1294C179.032 52.3927 179.362 51.6733 179.691 50.8846" fill="black"/>
<path d="M179.701 50.8845C179.371 51.6645 179.042 52.3925 178.756 53.1293C178.661 53.3719 178.539 53.4759 178.297 53.4326C177.984 53.3806 177.898 53.5106 177.898 53.8226C177.906 56.0761 177.898 58.3209 177.906 60.5743V60.999H174.076V53.4413C173.096 53.6233 172.151 53.7533 171.666 54.7327C171.363 55.3394 171.319 56.0068 171.302 56.6655C171.285 57.9829 171.293 59.3089 171.293 60.6263V61.0077H167.367V50.6851H170.99V52.7999L171.068 52.8519C171.64 51.5432 172.767 51.1271 174.05 50.9711C174.076 50.5204 174.093 50.0871 174.128 49.6537C174.258 47.877 175.02 47.1142 176.84 46.7156C178.331 46.3862 179.865 46.4902 181.356 46.8282C181.486 46.8629 181.633 46.9062 181.555 47.0969C181.287 47.7383 181.009 48.3797 180.767 49.0384C180.671 49.307 180.559 49.359 180.29 49.3244C179.779 49.2637 179.267 49.2377 178.756 49.281C178.236 49.3244 177.984 49.6624 177.95 50.1911C177.921 50.6649 178.146 50.9047 178.626 50.9105C178.973 50.9105 179.319 50.9105 179.701 50.9105" fill="black"/>
<path d="M150.873 50.6335V52.3236C150.994 52.1936 151.063 52.1329 151.124 52.0636C152.242 50.6768 153.707 50.2088 155.423 50.4428C156.827 50.6335 157.728 51.5349 158.058 53.0516C158.144 53.4503 158.179 53.875 158.179 54.2823C158.188 56.4231 158.179 58.5553 158.179 60.696C158.179 60.7827 158.162 60.8694 158.153 60.9821H154.227C154.227 60.8521 154.209 60.722 154.209 60.592C154.209 58.7026 154.21 56.8045 154.192 54.915C154.192 54.1263 153.776 53.5976 153.135 53.485C152.355 53.3463 151.661 53.6843 151.41 54.4124C151.254 54.8544 151.167 55.3484 151.159 55.8164C151.133 57.4025 151.15 58.9973 151.15 60.5834V60.9734H147.232V50.6335H150.873Z" fill="black"/>
<path d="M165.364 62.178C164.956 61.6059 164.575 61.0166 164.142 60.4792C163.708 59.9332 163.214 59.4305 162.746 58.9104C161.542 59.8032 160.831 60.9906 160.129 62.2646V50.7026H165.364V62.1866V62.178Z" fill="black"/>
<path d="M210.903 48.0591H209.889V53.8314H210.903V48.0591Z" fill="black"/>
<path d="M212.09 49.6537H212.965V50.2691L212.983 50.2864C213.121 50.0524 213.303 49.8704 213.529 49.7404C213.754 49.6104 214.005 49.541 214.283 49.541C214.742 49.541 215.097 49.6624 215.366 49.8964C215.635 50.1304 215.765 50.4857 215.765 50.9624V53.8313H214.846V51.2051C214.837 50.8758 214.759 50.6417 214.629 50.4857C214.499 50.3384 214.3 50.2604 214.023 50.2604C213.867 50.2604 213.728 50.2864 213.598 50.3471C213.477 50.4077 213.373 50.4857 213.286 50.5811C213.199 50.6851 213.139 50.7978 213.087 50.9364C213.035 51.0664 213.017 51.2138 213.017 51.3611V53.8313H212.099V49.6537H212.09Z" fill="black"/>
<path d="M217.524 51.7858C217.524 51.9678 217.55 52.1412 217.594 52.3145C217.637 52.4879 217.706 52.6439 217.802 52.7739C217.897 52.9039 218.018 53.0166 218.166 53.0946C218.313 53.1726 218.486 53.2159 218.686 53.2159C218.885 53.2159 219.067 53.1726 219.214 53.0859C219.362 52.9992 219.483 52.8866 219.578 52.7479C219.674 52.6092 219.743 52.4532 219.786 52.2712C219.83 52.0979 219.856 51.9158 219.856 51.7338C219.856 51.2745 219.752 50.9105 219.544 50.6504C219.336 50.3904 219.058 50.2604 218.703 50.2604C218.486 50.2604 218.304 50.3038 218.157 50.3904C218.01 50.4771 217.888 50.5984 217.793 50.7371C217.698 50.8845 217.628 51.0405 217.585 51.2225C217.55 51.4045 217.524 51.5865 217.524 51.7772M220.748 53.8313H219.873V53.2679H219.856C219.734 53.5106 219.552 53.6839 219.31 53.788C219.076 53.892 218.824 53.944 218.556 53.944C218.226 53.944 217.94 53.8833 217.698 53.7706C217.455 53.6579 217.247 53.4933 217.091 53.2939C216.935 53.0946 216.813 52.8606 216.727 52.5832C216.649 52.3059 216.605 52.0198 216.605 51.7078C216.605 51.3351 216.658 51.0058 216.753 50.7284C216.857 50.4511 216.996 50.2258 217.16 50.0524C217.334 49.8704 217.524 49.7404 217.741 49.6624C217.958 49.5757 218.183 49.5324 218.408 49.5324C218.538 49.5324 218.668 49.541 218.807 49.567C218.946 49.593 219.076 49.6277 219.197 49.6884C219.318 49.7404 219.431 49.8097 219.544 49.8964C219.648 49.9831 219.734 50.0784 219.804 50.1911H219.821V48.0503H220.74V53.8226L220.748 53.8313Z" fill="black"/>
<path d="M221.857 53.8315H222.776V49.6453H221.857V53.8315ZM221.857 48.9346H222.776V48.0592H221.857V48.9346Z" fill="black"/>
<path d="M226.442 51.7427C226.303 51.8381 226.13 51.8901 225.922 51.9074C225.714 51.9247 225.515 51.9507 225.307 51.9941C225.211 52.0114 225.116 52.0374 225.021 52.0634C224.925 52.0894 224.847 52.1327 224.778 52.1847L224.613 52.3841C224.57 52.4708 224.553 52.5661 224.553 52.6874C224.553 52.7914 224.579 52.8781 224.639 52.9475L224.856 53.1121C224.943 53.1555 225.029 53.1815 225.133 53.1988C225.229 53.2161 225.324 53.2248 225.402 53.2248C225.506 53.2248 225.61 53.2075 225.731 53.1815C225.853 53.1555 225.965 53.1121 226.069 53.0428C226.173 52.9735 226.26 52.8954 226.329 52.7914C226.399 52.6961 226.433 52.5661 226.433 52.4274V51.7427H226.442ZM227.361 52.9041C227.361 53.0168 227.378 53.1035 227.404 53.1468L227.578 53.2248H227.673L227.803 53.2075V53.8488L227.682 53.8835L227.526 53.9182L227.361 53.9442H227.222C227.031 53.9442 226.875 53.9182 226.754 53.8402C226.633 53.7622 226.546 53.6322 226.511 53.4415C226.329 53.6148 226.104 53.7448 225.835 53.8315C225.567 53.9095 225.307 53.9528 225.064 53.9528C224.873 53.9528 224.691 53.9268 224.527 53.8748C224.353 53.8228 224.197 53.7535 224.067 53.6495C223.937 53.5542 223.833 53.4241 223.755 53.2681C223.677 53.1121 223.643 52.9388 223.643 52.7308C223.643 52.4708 223.686 52.2627 223.781 52.0981C223.877 51.9334 223.998 51.8121 224.154 51.7167C224.31 51.63 224.483 51.5607 224.674 51.5174C224.865 51.474 225.055 51.448 225.255 51.422C225.419 51.3874 225.584 51.37 225.731 51.3527C225.879 51.344 226.017 51.318 226.13 51.2834C226.243 51.2487 226.338 51.1967 226.407 51.136C226.477 51.0667 226.511 50.9713 226.511 50.8327C226.511 50.7113 226.477 50.616 226.425 50.538L226.217 50.3646C226.13 50.3213 226.043 50.2953 225.939 50.2866C225.835 50.2693 225.74 50.2693 225.645 50.2693C225.385 50.2693 225.177 50.3213 225.003 50.434C224.839 50.538 224.743 50.7113 224.717 50.9367H223.799C223.816 50.668 223.885 50.4426 223.998 50.2693C224.111 50.096 224.258 49.9486 224.431 49.8446C224.605 49.7406 224.804 49.6626 225.029 49.6193C225.255 49.5759 225.48 49.5499 225.705 49.5499C225.913 49.5499 226.113 49.5759 226.312 49.6193C226.511 49.6626 226.693 49.7319 226.849 49.8273C227.005 49.9226 227.135 50.0526 227.231 50.2C227.326 50.356 227.378 50.538 227.378 50.7633V52.9128L227.361 52.9041Z" fill="black"/>
<path d="M231.91 50.6852H233.566C233.886 50.6852 234.138 50.6072 234.302 50.4512C234.467 50.2952 234.554 50.0699 234.554 49.7578C234.554 49.5758 234.528 49.4285 234.467 49.3072C234.415 49.1945 234.337 49.0991 234.242 49.0385C234.146 48.9778 234.042 48.9345 233.921 48.9085C233.8 48.8911 233.67 48.8738 233.54 48.8738H231.902V50.6766L231.91 50.6852ZM230.896 48.0591H233.652C234.294 48.0591 234.77 48.1978 235.082 48.4751C235.403 48.7525 235.559 49.1338 235.559 49.6278C235.559 49.9052 235.516 50.1305 235.438 50.3125C235.351 50.4946 235.264 50.6419 235.152 50.7459C235.048 50.8586 234.944 50.9366 234.831 50.9799C234.727 51.0319 234.649 51.0666 234.597 51.0753V51.0926C234.684 51.1013 234.779 51.1273 234.874 51.1706C234.97 51.2139 235.065 51.2833 235.152 51.3786C235.238 51.4739 235.308 51.5953 235.368 51.7426C235.42 51.89 235.455 52.0806 235.455 52.306C235.455 52.644 235.481 52.956 235.533 53.2334C235.585 53.5107 235.663 53.7101 235.776 53.8314H234.692C234.614 53.7101 234.571 53.5714 234.562 53.4154C234.545 53.268 234.545 53.1207 234.545 52.982C234.545 52.722 234.528 52.488 234.493 52.2973C234.458 52.1066 234.398 51.9506 234.311 51.8206C234.224 51.6993 234.112 51.604 233.956 51.5433C233.8 51.4826 233.618 51.4566 233.384 51.4566H231.893V53.8314H230.879V48.0591H230.896Z" fill="black"/>
<path d="M239.123 51.7426C238.984 51.8379 238.811 51.8899 238.603 51.9073C238.395 51.9246 238.196 51.9506 237.987 51.9939C237.892 52.0113 237.797 52.0373 237.701 52.0633C237.606 52.0893 237.528 52.1326 237.459 52.1846L237.294 52.384C237.251 52.4706 237.233 52.566 237.233 52.6873C237.233 52.7913 237.259 52.878 237.32 52.9473L237.537 53.112C237.623 53.1553 237.71 53.1813 237.814 53.1987C237.909 53.216 238.005 53.2247 238.083 53.2247C238.187 53.2247 238.291 53.2073 238.412 53.1813C238.534 53.1553 238.646 53.112 238.75 53.0427C238.854 52.9733 238.941 52.8953 239.01 52.7913C239.08 52.696 239.114 52.566 239.114 52.4273V51.7426H239.123ZM240.05 52.904C240.05 53.0167 240.068 53.1033 240.094 53.1467L240.267 53.2247H240.362L240.492 53.2073V53.8487L240.371 53.8834L240.215 53.9181L240.05 53.9441H239.912C239.721 53.9441 239.565 53.9181 239.444 53.84C239.322 53.762 239.236 53.632 239.201 53.4414C239.019 53.6147 238.794 53.7447 238.525 53.8314C238.256 53.9094 237.996 53.9527 237.753 53.9527C237.563 53.9527 237.381 53.9267 237.216 53.8747C237.043 53.8227 236.887 53.7534 236.757 53.6494C236.627 53.554 236.523 53.424 236.445 53.268C236.367 53.112 236.332 52.9387 236.332 52.7307C236.332 52.4706 236.375 52.2626 236.471 52.098C236.566 51.9333 236.687 51.8119 236.843 51.7166C236.991 51.6299 237.173 51.5606 237.363 51.5172C237.554 51.4739 237.745 51.4479 237.944 51.4219C238.109 51.3872 238.274 51.3699 238.421 51.3526C238.568 51.3439 238.707 51.3179 238.82 51.2832C238.932 51.2486 239.028 51.1966 239.097 51.1359C239.166 51.0666 239.201 50.9712 239.201 50.8325C239.201 50.7112 239.166 50.6159 239.114 50.5379L238.906 50.3645C238.82 50.3212 238.733 50.2952 238.629 50.2865C238.525 50.2692 238.429 50.2692 238.334 50.2692C238.074 50.2692 237.866 50.3212 237.693 50.4339C237.528 50.5379 237.433 50.7112 237.407 50.9365H236.488C236.505 50.6679 236.575 50.4425 236.687 50.2692C236.8 50.0958 236.947 49.9485 237.121 49.8445C237.294 49.7405 237.493 49.6625 237.719 49.6191C237.935 49.5758 238.161 49.5498 238.395 49.5498C238.603 49.5498 238.802 49.5758 239.002 49.6191C239.201 49.6625 239.383 49.7318 239.539 49.8272C239.695 49.9225 239.825 50.0525 239.92 50.1998C240.016 50.3559 240.068 50.5379 240.068 50.7632V52.9127L240.05 52.904Z" fill="black"/>
<path d="M241.115 49.6537H241.991V50.2691L242.008 50.2864C242.147 50.0524 242.329 49.8704 242.554 49.7404C242.779 49.6104 243.031 49.541 243.308 49.541C243.767 49.541 244.123 49.6624 244.391 49.8964C244.66 50.1304 244.79 50.4857 244.79 50.9624V53.8313H243.871V51.2051C243.863 50.8758 243.785 50.6417 243.655 50.4857C243.525 50.3384 243.325 50.2604 243.048 50.2604C242.892 50.2604 242.745 50.2864 242.623 50.3471C242.502 50.4077 242.398 50.4857 242.311 50.5811C242.225 50.6851 242.164 50.7978 242.112 50.9364C242.06 51.0664 242.043 51.2138 242.043 51.3611V53.8313H241.124V49.6537H241.115Z" fill="black"/>
<path d="M245.857 48.0591H246.776V51.3439L248.44 49.6538H249.576L247.972 51.1879L249.732 53.8314H248.605L247.331 51.8033L246.776 52.3407V53.8314H245.857V48.0591Z" fill="black"/>
<path d="M250.268 53.8314H251.186V49.6452H250.268V53.8314ZM250.268 48.9345H251.186V48.0591H250.268V48.9345Z" fill="black"/>
<path d="M252.27 49.6537H253.145V50.2691L253.162 50.2864C253.301 50.0524 253.483 49.8704 253.708 49.7404C253.934 49.6104 254.185 49.541 254.462 49.541C254.922 49.541 255.277 49.6624 255.546 49.8964C255.814 50.1304 255.944 50.4857 255.944 50.9624V53.8313H255.026V51.2051C255.017 50.8758 254.939 50.6417 254.809 50.4857C254.679 50.3384 254.48 50.2604 254.202 50.2604C254.046 50.2604 253.899 50.2864 253.778 50.3471C253.656 50.4077 253.552 50.4857 253.466 50.5811C253.379 50.6851 253.318 50.7978 253.266 50.9364C253.214 51.0664 253.197 51.2138 253.197 51.3611V53.8313H252.278V49.6537H252.27Z" fill="black"/>
<path d="M258.84 53.1035C259.039 53.1035 259.221 53.0601 259.36 52.9735C259.499 52.8868 259.62 52.7828 259.707 52.6441C259.793 52.5054 259.854 52.3494 259.897 52.1761C259.941 52.0027 259.958 51.8207 259.958 51.6474C259.958 51.474 259.932 51.3007 259.897 51.1274C259.854 50.9627 259.785 50.8153 259.698 50.6853C259.611 50.5553 259.49 50.4513 259.351 50.382C259.204 50.304 259.039 50.2693 258.84 50.2693C258.641 50.2693 258.459 50.3126 258.32 50.3993C258.181 50.486 258.069 50.5987 257.982 50.7373C257.895 50.876 257.835 51.032 257.8 51.2054C257.765 51.3787 257.739 51.552 257.739 51.7254C257.739 51.8987 257.757 52.0634 257.809 52.2281C257.852 52.3928 257.913 52.5401 258.008 52.6701C258.095 52.8001 258.207 52.9041 258.346 52.9908C258.485 53.0688 258.649 53.1121 258.84 53.1121M260.885 53.6148C260.885 54.2475 260.712 54.7156 260.357 55.0276C260.001 55.3396 259.499 55.4956 258.831 55.4956C258.623 55.4956 258.407 55.4696 258.199 55.4263C257.982 55.3829 257.791 55.3136 257.618 55.2096C257.445 55.1056 257.297 54.9756 257.176 54.8022C257.055 54.6375 256.985 54.4295 256.968 54.1869H257.887C257.913 54.3169 257.965 54.4209 258.025 54.4989C258.086 54.5769 258.164 54.6462 258.251 54.6896C258.346 54.7329 258.441 54.7676 258.545 54.7762C258.649 54.7936 258.762 54.7936 258.883 54.7936C259.256 54.7936 259.525 54.7069 259.698 54.5162C259.871 54.3342 259.958 54.0655 259.958 53.7275V53.0861H259.941C259.811 53.3201 259.637 53.5021 259.412 53.6235C259.187 53.7535 258.953 53.8228 258.693 53.8228C258.355 53.8228 258.077 53.7622 257.843 53.6495C257.609 53.5368 257.419 53.3721 257.263 53.1728C257.115 52.9735 256.994 52.7394 256.925 52.4794C256.855 52.2107 256.821 51.9334 256.821 51.63C256.821 51.3527 256.864 51.084 256.951 50.8327C257.037 50.5813 257.167 50.356 257.323 50.1653C257.488 49.9746 257.679 49.8186 257.921 49.7059C258.155 49.5933 258.424 49.5326 258.719 49.5326C258.987 49.5326 259.221 49.5846 259.447 49.6973C259.672 49.8099 259.837 49.9833 259.958 50.2173H259.975V49.6453H260.903V53.6062L260.885 53.6148Z" fill="black"/>
<path d="M209.819 58.165H210.833V61.5279C210.833 61.7186 210.841 61.9179 210.867 62.1173C210.885 62.3166 210.937 62.4986 211.023 62.6546C211.11 62.8106 211.249 62.9406 211.431 63.0446C211.613 63.1487 211.864 63.2007 212.193 63.2007C212.523 63.2007 212.774 63.1487 212.956 63.0446C213.138 62.9406 213.268 62.8106 213.363 62.6546C213.45 62.4986 213.502 62.3166 213.519 62.1173C213.537 61.9179 213.554 61.7186 213.554 61.5279V58.165H214.568V61.8572C214.568 62.2299 214.508 62.5506 214.395 62.828C214.282 63.1053 214.126 63.3307 213.918 63.5213C213.71 63.712 213.459 63.8507 213.173 63.9374C212.878 64.024 212.557 64.076 212.202 64.076C211.847 64.076 211.526 64.0327 211.231 63.9374C210.937 63.842 210.694 63.7034 210.486 63.5213C210.278 63.3393 210.122 63.1053 210.009 62.828C209.897 62.5506 209.836 62.2299 209.836 61.8572V58.165H209.819Z" fill="black"/>
<path d="M215.677 59.7598H216.553V60.3751L216.57 60.3925C216.709 60.1585 216.891 59.9764 217.116 59.8464C217.342 59.7164 217.593 59.6471 217.87 59.6471C218.33 59.6471 218.685 59.7684 218.954 60.0024C219.222 60.2365 219.352 60.5918 219.352 61.0685V63.9373H218.434V61.3112C218.425 60.9818 218.347 60.7478 218.217 60.5918C218.087 60.4445 217.888 60.3665 217.61 60.3665C217.454 60.3665 217.307 60.3925 217.186 60.4531C217.064 60.5138 216.96 60.5918 216.874 60.6872C216.787 60.7825 216.726 60.9038 216.674 61.0425C216.622 61.1725 216.605 61.3199 216.605 61.4672V63.9373H215.686V59.7598H215.677Z" fill="black"/>
<path d="M220.428 63.946H221.346V59.7598H220.428V63.946ZM220.428 59.0404H221.346V58.165H220.428V59.0404Z" fill="black"/>
<path d="M222.014 59.7598H223.019L224.076 62.9753H224.094L225.116 59.7598H226.07L224.57 63.946H223.539L222.014 59.7598Z" fill="black"/>
<path d="M229.579 61.4845C229.57 61.3372 229.536 61.1985 229.484 61.0598C229.432 60.9298 229.362 60.8085 229.276 60.7131C229.189 60.6091 229.076 60.5311 228.955 60.4705C228.825 60.4098 228.686 60.3751 228.53 60.3751C228.366 60.3751 228.218 60.4011 228.088 60.4618C227.958 60.5225 227.846 60.5918 227.75 60.6958C227.655 60.7912 227.586 60.9125 227.525 61.0512C227.473 61.1812 227.438 61.3285 227.43 61.4845H229.588H229.579ZM227.43 62.0912C227.43 62.2559 227.456 62.4119 227.499 62.5593C227.542 62.7153 227.612 62.8453 227.707 62.9579C227.802 63.0706 227.915 63.166 228.054 63.2266C228.192 63.296 228.357 63.3306 228.556 63.3306C228.825 63.3306 229.042 63.27 229.206 63.1573C229.371 63.0446 229.492 62.8626 229.579 62.6373H230.454C230.402 62.8626 230.324 63.062 230.203 63.244C230.082 63.426 229.943 63.5733 229.778 63.6947C229.605 63.816 229.423 63.9113 229.215 63.972C229.007 64.0327 228.79 64.0673 228.565 64.0673C228.236 64.0673 227.941 64.0153 227.69 63.9027C227.438 63.7987 227.222 63.6427 227.048 63.452C226.875 63.2526 226.745 63.0273 226.65 62.7586C226.563 62.4899 226.52 62.1952 226.52 61.8746C226.52 61.5799 226.563 61.2938 226.658 61.0252C226.754 60.7565 226.884 60.5225 227.066 60.3231C227.239 60.1238 227.456 59.9591 227.698 59.8378C227.95 59.7164 228.227 59.6558 228.539 59.6558C228.868 59.6558 229.163 59.7251 229.423 59.8638C229.683 60.0024 229.9 60.1845 230.073 60.4098C230.246 60.6351 230.368 60.8952 230.446 61.1898C230.524 61.4845 230.541 61.7879 230.506 62.0999H227.43V62.0912Z" fill="black"/>
<path d="M231.279 59.7596H232.146V60.5657H232.163C232.189 60.453 232.241 60.3403 232.319 60.2363C232.397 60.1323 232.493 60.0283 232.605 59.9417C232.718 59.855 232.839 59.7856 232.969 59.725C233.108 59.673 233.247 59.647 233.385 59.647C233.489 59.647 233.567 59.647 233.611 59.6556L233.732 59.673V60.5657L233.533 60.5397H233.333C233.177 60.531 233.03 60.557 232.891 60.6177C232.753 60.6784 232.64 60.7737 232.536 60.895C232.432 61.0164 232.354 61.1637 232.293 61.3457C232.233 61.5277 232.207 61.7271 232.207 61.9611V63.9459H231.288V59.7683L231.279 59.7596Z" fill="black"/>
<path d="M234.911 62.6027C234.937 62.8714 235.041 63.0621 235.214 63.1661C235.396 63.2701 235.604 63.3221 235.856 63.3221C235.942 63.3221 236.038 63.3221 236.15 63.3048C236.263 63.2874 236.367 63.2701 236.462 63.2268C236.558 63.1921 236.636 63.1314 236.696 63.0621C236.757 62.9927 236.792 62.8887 236.783 62.7761C236.783 62.6547 236.74 62.5594 236.653 62.4814C236.575 62.4034 236.471 62.3427 236.341 62.2994C236.211 62.256 236.064 62.2127 235.908 62.178C235.743 62.1434 235.578 62.1087 235.414 62.074C235.24 62.0394 235.076 61.9874 234.92 61.9354C234.755 61.8833 234.616 61.8053 234.495 61.7187C234.365 61.6233 234.27 61.5107 234.192 61.3633C234.114 61.2246 234.079 61.0426 234.079 60.8346C234.079 60.6093 234.131 60.4186 234.244 60.2626C234.356 60.1066 234.495 59.9852 234.66 59.8899C234.833 59.7946 235.015 59.7339 235.223 59.6906C235.431 59.6559 235.63 59.6299 235.821 59.6299C236.038 59.6299 236.237 59.6559 236.436 59.6992C236.636 59.7426 236.809 59.8206 236.974 59.9246C237.13 60.0286 237.26 60.1586 237.372 60.3233C237.476 60.4879 237.546 60.6873 237.572 60.9213H236.61C236.566 60.6959 236.462 60.5486 236.306 60.4793C236.142 60.4013 235.968 60.3666 235.76 60.3666C235.7 60.3666 235.622 60.3666 235.535 60.3839C235.448 60.3926 235.362 60.4186 235.284 60.4446L235.084 60.5746C235.032 60.6353 235.006 60.7046 235.006 60.8C235.006 60.9126 235.041 61.008 235.119 61.0773C235.197 61.1466 235.301 61.2073 235.431 61.2506C235.561 61.294 235.7 61.3373 235.864 61.372C236.029 61.4067 236.194 61.4413 236.367 61.476C236.532 61.5107 236.696 61.5627 236.861 61.6147C237.017 61.6667 237.164 61.7447 237.294 61.8313C237.416 61.9267 237.52 62.0394 237.606 62.178C237.684 62.3167 237.719 62.49 237.719 62.6981C237.719 62.9494 237.667 63.1574 237.546 63.3308C237.433 63.5041 237.286 63.6428 237.104 63.7468C236.922 63.8595 236.722 63.9375 236.497 63.9808C236.28 64.0241 236.055 64.0501 235.847 64.0501C235.578 64.0501 235.336 64.0241 235.11 63.9635C234.885 63.9028 234.694 63.8161 234.53 63.6948C234.365 63.5734 234.235 63.4261 234.14 63.2441C234.044 63.0621 233.992 62.8454 233.992 62.6027H234.911Z" fill="black"/>
<path d="M238.516 63.946H239.434V59.7598H238.516V63.946ZM238.516 59.0404H239.434V58.165H238.516V59.0404Z" fill="black"/>
<path d="M240.102 59.7597H240.795V58.5029H241.722V59.7597H242.554V60.4444H241.722V62.6805C241.722 62.7758 241.722 62.8625 241.74 62.9318L241.792 63.1139L241.922 63.2265C241.982 63.2525 242.06 63.2612 242.164 63.2612H242.364L242.554 63.2265V63.9372C242.45 63.9459 242.355 63.9632 242.26 63.9719C242.156 63.9806 242.06 63.9892 241.956 63.9892C241.714 63.9892 241.523 63.9632 241.367 63.9199C241.22 63.8766 241.107 63.8072 241.02 63.7206C240.934 63.6339 240.882 63.5212 240.847 63.3825C240.821 63.2439 240.804 63.0965 240.795 62.9232V60.453H240.102V59.7683V59.7597Z" fill="black"/>
<path d="M243.326 63.946H244.245V59.7598H243.326V63.946ZM243.326 59.0404H244.245V58.165H243.326V59.0404Z" fill="black"/>
<path d="M248.196 61.4845C248.188 61.3372 248.153 61.1985 248.101 61.0598C248.049 60.9298 247.98 60.8085 247.893 60.7131C247.806 60.6091 247.694 60.5311 247.572 60.4705C247.451 60.4098 247.304 60.3751 247.148 60.3751C246.983 60.3751 246.835 60.4011 246.705 60.4618C246.575 60.5225 246.463 60.5918 246.367 60.6958C246.272 60.7912 246.203 60.9125 246.142 61.0512C246.09 61.1812 246.055 61.3285 246.047 61.4845H248.205H248.196ZM246.047 62.0912C246.047 62.2559 246.073 62.4119 246.116 62.5593C246.159 62.7153 246.229 62.8453 246.324 62.9579C246.419 63.0706 246.532 63.166 246.671 63.2266C246.809 63.296 246.974 63.3306 247.173 63.3306C247.442 63.3306 247.659 63.27 247.824 63.1573C247.988 63.0446 248.11 62.8626 248.196 62.6373H249.072C249.02 62.8626 248.942 63.062 248.82 63.244C248.699 63.426 248.56 63.5733 248.396 63.6947C248.222 63.816 248.04 63.9113 247.832 63.972C247.624 64.0327 247.408 64.0673 247.182 64.0673C246.853 64.0673 246.558 64.0153 246.307 63.9027C246.055 63.7987 245.839 63.6427 245.665 63.452C245.492 63.2526 245.362 63.0273 245.267 62.7586C245.18 62.4899 245.137 62.1952 245.137 61.8746C245.137 61.5799 245.18 61.2938 245.275 61.0252C245.371 60.7565 245.501 60.5225 245.683 60.3231C245.856 60.1238 246.073 59.9591 246.315 59.8378C246.567 59.7164 246.844 59.6558 247.156 59.6558C247.485 59.6558 247.78 59.7251 248.04 59.8638C248.3 60.0024 248.517 60.1845 248.69 60.4098C248.864 60.6351 248.985 60.8952 249.072 61.1898C249.15 61.4845 249.167 61.7879 249.132 62.0999H246.055L246.047 62.0912Z" fill="black"/>
<path d="M250.598 62.6026C250.624 62.8713 250.728 63.062 250.901 63.166C251.083 63.27 251.291 63.322 251.542 63.322C251.629 63.322 251.724 63.322 251.837 63.3046C251.95 63.2873 252.054 63.27 252.149 63.2266C252.244 63.192 252.322 63.1313 252.383 63.062C252.444 62.9926 252.478 62.8886 252.47 62.7759C252.47 62.6546 252.426 62.5593 252.34 62.4813C252.262 62.4033 252.158 62.3426 252.028 62.2992C251.898 62.2559 251.75 62.2126 251.594 62.1779C251.43 62.1432 251.265 62.1086 251.1 62.0739C250.927 62.0392 250.762 61.9872 250.606 61.9352C250.442 61.8832 250.303 61.8052 250.182 61.7185C250.052 61.6232 249.947 61.5105 249.878 61.3632C249.8 61.2245 249.765 61.0425 249.765 60.8345C249.765 60.6091 249.817 60.4185 249.93 60.2625C250.043 60.1065 250.181 59.9851 250.355 59.8898C250.528 59.7944 250.71 59.7338 250.918 59.6904C251.126 59.6558 251.326 59.6298 251.516 59.6298C251.733 59.6298 251.932 59.6558 252.132 59.6991C252.331 59.7424 252.504 59.8204 252.66 59.9244C252.816 60.0285 252.946 60.1585 253.059 60.3231C253.163 60.4878 253.232 60.6872 253.258 60.9212H252.296C252.253 60.6958 252.149 60.5485 251.993 60.4791C251.828 60.4011 251.646 60.3665 251.447 60.3665C251.386 60.3665 251.308 60.3665 251.222 60.3838C251.135 60.3925 251.048 60.4185 250.97 60.4445L250.771 60.5745C250.719 60.6352 250.693 60.7045 250.693 60.7998C250.693 60.9125 250.728 61.0078 250.806 61.0772C250.884 61.1465 250.988 61.2072 251.118 61.2505C251.248 61.2939 251.386 61.3372 251.551 61.3719C251.716 61.4065 251.88 61.4412 252.054 61.4759C252.218 61.5105 252.383 61.5625 252.548 61.6145C252.712 61.6665 252.851 61.7445 252.981 61.8312C253.111 61.9179 253.206 62.0392 253.293 62.1779C253.371 62.3166 253.406 62.4899 253.406 62.6979C253.406 62.9493 253.354 63.1573 253.241 63.3306C253.128 63.504 252.981 63.6427 252.799 63.7467C252.617 63.8593 252.418 63.9373 252.192 63.9807C251.976 64.024 251.75 64.05 251.542 64.05C251.274 64.05 251.031 64.024 250.806 63.9633C250.58 63.9027 250.39 63.816 250.225 63.6947C250.06 63.5733 249.93 63.426 249.835 63.244C249.739 63.062 249.688 62.8453 249.688 62.6026H250.606H250.598Z" fill="black"/>
<path d="M260.539 60.0025C260.496 59.8378 260.436 59.6818 260.366 59.5431C260.288 59.4044 260.193 59.2831 260.08 59.1791C259.959 59.0751 259.82 58.9971 259.664 58.9451C259.499 58.8931 259.317 58.8584 259.109 58.8584C258.806 58.8584 258.537 58.9191 258.312 59.0404C258.087 59.1618 257.905 59.3351 257.766 59.5345C257.627 59.7425 257.523 59.9765 257.454 60.2452C257.385 60.5052 257.35 60.7739 257.35 61.0512C257.35 61.3286 257.385 61.5972 257.454 61.8572C257.523 62.1173 257.627 62.3599 257.766 62.568C257.905 62.776 258.087 62.9406 258.312 63.062C258.537 63.1833 258.797 63.244 259.109 63.244C259.335 63.244 259.534 63.2093 259.707 63.1313C259.881 63.0533 260.028 62.9406 260.15 62.8106C260.271 62.672 260.366 62.516 260.435 62.3339C260.505 62.1519 260.548 61.9526 260.574 61.7446H261.562C261.536 62.0913 261.467 62.4033 261.337 62.6893C261.207 62.9753 261.042 63.2267 260.826 63.426C260.609 63.634 260.357 63.7987 260.063 63.9114C259.768 64.024 259.447 64.0847 259.101 64.0847C258.667 64.0847 258.286 64.0067 257.939 63.842C257.593 63.6774 257.307 63.4693 257.073 63.192C256.839 62.9146 256.657 62.594 256.527 62.2299C256.397 61.8659 256.336 61.4759 256.336 61.0599C256.336 60.6438 256.397 60.2625 256.527 59.8898C256.657 59.5258 256.839 59.2051 257.073 58.9278C257.307 58.6504 257.601 58.4337 257.939 58.269C258.277 58.1044 258.667 58.0264 259.101 58.0264C259.421 58.0264 259.733 58.0697 260.011 58.1564C260.297 58.243 260.548 58.3731 260.765 58.5464C260.982 58.7197 261.164 58.9191 261.294 59.1704C261.432 59.4131 261.51 59.6905 261.545 60.0025H260.531H260.539Z" fill="black"/>
<path d="M265.012 61.8486C264.873 61.9439 264.7 61.9959 264.491 62.0132C264.283 62.0306 264.084 62.0566 263.876 62.0999C263.781 62.1172 263.685 62.1432 263.59 62.1692C263.495 62.1952 263.417 62.2386 263.347 62.2906L263.183 62.4899C263.139 62.5766 263.122 62.6719 263.122 62.7933C263.122 62.8973 263.148 62.9839 263.209 63.0533L263.425 63.218C263.512 63.2613 263.599 63.2873 263.703 63.3046C263.798 63.322 263.893 63.3306 263.971 63.3306C264.075 63.3306 264.188 63.3133 264.301 63.2873C264.422 63.2613 264.535 63.218 264.639 63.1486C264.743 63.0793 264.83 63.0013 264.899 62.8973C264.968 62.8019 265.003 62.6719 265.003 62.5333V61.8486H265.012ZM265.939 63.0099C265.939 63.1226 265.956 63.2006 265.982 63.2526L266.156 63.3306H266.251L266.381 63.3133V63.9547L266.26 63.9893L266.104 64.024L265.939 64.05H265.8C265.61 64.05 265.454 64.024 265.332 63.946C265.211 63.868 265.124 63.738 265.09 63.5473C264.908 63.7207 264.682 63.8507 264.414 63.9373C264.145 64.0153 263.885 64.0587 263.642 64.0587C263.451 64.0587 263.269 64.0327 263.105 63.9807C262.931 63.9287 262.775 63.8593 262.645 63.7553C262.515 63.66 262.411 63.53 262.333 63.374C262.255 63.218 262.221 63.0446 262.221 62.8366C262.221 62.5766 262.264 62.3686 262.359 62.2039C262.455 62.0392 262.576 61.9179 262.732 61.8226C262.888 61.7272 263.061 61.6665 263.252 61.6232C263.443 61.5799 263.633 61.5539 263.833 61.5279C263.998 61.4932 264.162 61.4759 264.31 61.4585C264.457 61.4499 264.596 61.4239 264.708 61.3892C264.821 61.3545 264.916 61.3025 264.986 61.2418C265.055 61.1725 265.09 61.0772 265.09 60.9385C265.09 60.8172 265.055 60.7218 265.003 60.6438L264.795 60.4705C264.708 60.4271 264.622 60.4011 264.518 60.3925C264.414 60.3751 264.318 60.3751 264.223 60.3751C263.963 60.3751 263.755 60.4271 263.581 60.5398C263.417 60.6438 263.321 60.8172 263.295 61.0425H262.377C262.394 60.7738 262.463 60.5485 262.576 60.3751C262.689 60.2018 262.836 60.0544 263.009 59.9504C263.183 59.8464 263.382 59.7684 263.607 59.7251C263.833 59.6818 264.058 59.6558 264.283 59.6558C264.492 59.6558 264.691 59.6818 264.89 59.7251C265.09 59.7684 265.272 59.8378 265.428 59.9331C265.584 60.0284 265.714 60.1585 265.809 60.3058C265.904 60.4618 265.956 60.6438 265.956 60.8692V63.0186L265.939 63.0099Z" fill="black"/>
<path d="M266.588 59.7597H267.281V58.5029H268.209V59.7597H269.041V60.4444H268.209V62.6805C268.209 62.7758 268.209 62.8625 268.226 62.9318L268.278 63.1139L268.408 63.2265C268.469 63.2525 268.547 63.2612 268.651 63.2612H268.85L269.041 63.2265V63.9372C268.937 63.9459 268.841 63.9632 268.746 63.9719C268.642 63.9806 268.547 63.9892 268.443 63.9892C268.2 63.9892 268.009 63.9632 267.853 63.9199C267.706 63.8766 267.593 63.8072 267.507 63.7206C267.42 63.6339 267.368 63.5212 267.333 63.3825C267.307 63.2439 267.29 63.0965 267.281 62.9232V60.453H266.588V59.7683V59.7597Z" fill="black"/>
<path d="M272.655 61.4845C272.647 61.3372 272.612 61.1985 272.56 61.0598C272.508 60.9298 272.439 60.8085 272.352 60.7131C272.265 60.6091 272.153 60.5311 272.031 60.4705C271.901 60.4098 271.763 60.3751 271.607 60.3751C271.442 60.3751 271.295 60.4011 271.165 60.4618C271.035 60.5225 270.922 60.5918 270.827 60.6958C270.731 60.7912 270.662 60.9125 270.601 61.0512C270.549 61.1812 270.515 61.3285 270.506 61.4845H272.664H272.655ZM270.506 62.0912C270.506 62.2559 270.532 62.4119 270.575 62.5593C270.619 62.7153 270.688 62.8453 270.783 62.9579C270.87 63.0706 270.991 63.166 271.13 63.2266C271.269 63.296 271.433 63.3306 271.633 63.3306C271.901 63.3306 272.118 63.27 272.283 63.1573C272.447 63.0446 272.569 62.8626 272.655 62.6373H273.531C273.479 62.8626 273.401 63.062 273.279 63.244C273.158 63.426 273.019 63.5733 272.855 63.6947C272.681 63.816 272.499 63.9113 272.291 63.972C272.083 64.0327 271.867 64.0673 271.641 64.0673C271.312 64.0673 271.017 64.0153 270.766 63.9027C270.515 63.7987 270.298 63.6427 270.125 63.452C269.951 63.2526 269.821 63.0273 269.726 62.7586C269.639 62.4899 269.596 62.1952 269.596 61.8746C269.596 61.5799 269.639 61.2938 269.735 61.0252C269.83 60.7565 269.96 60.5225 270.142 60.3231C270.315 60.1238 270.532 59.9591 270.775 59.8378C271.026 59.7164 271.303 59.6558 271.615 59.6558C271.945 59.6558 272.239 59.7251 272.499 59.8638C272.759 60.0024 272.976 60.1845 273.15 60.4098C273.323 60.6351 273.444 60.8952 273.531 61.1898C273.609 61.4845 273.626 61.7879 273.591 62.0999H270.515L270.506 62.0912Z" fill="black"/>
<path d="M276.184 63.2181C276.392 63.2181 276.565 63.1748 276.704 63.0881C276.842 63.0014 276.964 62.8974 277.05 62.7587C277.137 62.6201 277.198 62.464 277.241 62.2907C277.284 62.1174 277.302 61.9353 277.302 61.762C277.302 61.5887 277.276 61.4153 277.241 61.242C277.198 61.0773 277.128 60.93 277.042 60.8C276.955 60.6699 276.834 60.5659 276.695 60.4966C276.548 60.4186 276.383 60.3839 276.184 60.3839C275.984 60.3839 275.802 60.4273 275.663 60.5139C275.525 60.6006 275.412 60.7133 275.325 60.852C275.239 60.9906 275.178 61.1466 275.143 61.32C275.109 61.4933 275.083 61.6667 275.083 61.84C275.083 62.0134 275.109 62.178 275.152 62.3427C275.195 62.5074 275.256 62.6547 275.351 62.7847C275.438 62.9147 275.551 63.0187 275.689 63.0967C275.828 63.1748 275.993 63.2181 276.184 63.2181ZM278.229 63.7208C278.229 64.3535 278.047 64.8215 277.7 65.1335C277.345 65.4456 276.842 65.6016 276.175 65.6016C275.967 65.6016 275.75 65.5756 275.542 65.5322C275.325 65.4889 275.135 65.4195 274.961 65.3155C274.788 65.2115 274.641 65.0815 274.519 64.9082C274.398 64.7435 274.329 64.5355 274.311 64.2928H275.23C275.256 64.4228 275.308 64.5268 275.369 64.6048C275.429 64.6828 275.507 64.7522 275.594 64.7955C275.681 64.8388 275.785 64.8735 275.889 64.8822C275.993 64.8995 276.106 64.8995 276.227 64.8995C276.6 64.8995 276.868 64.8042 277.042 64.6222C277.215 64.4402 277.302 64.1715 277.302 63.8335V63.1921H277.284C277.154 63.4261 276.981 63.6081 276.756 63.7295C276.53 63.8595 276.296 63.9201 276.036 63.9201C275.698 63.9201 275.421 63.8595 275.187 63.7468C274.953 63.6341 274.762 63.4694 274.606 63.2701C274.459 63.0707 274.346 62.8367 274.268 62.5767C274.199 62.308 274.164 62.0307 274.164 61.7273C274.164 61.45 274.207 61.1813 274.294 60.93C274.381 60.6786 274.511 60.4533 274.667 60.2626C274.831 60.0719 275.022 59.9159 275.265 59.8032C275.499 59.6906 275.767 59.6299 276.062 59.6299C276.331 59.6299 276.565 59.6819 276.79 59.7946C277.016 59.9072 277.18 60.0806 277.302 60.3146H277.319V59.7426H278.246V63.7035L278.229 63.7208Z" fill="black"/>
<path d="M281.159 63.3305C281.358 63.3305 281.54 63.2872 281.688 63.2005C281.835 63.1138 281.965 63.0012 282.06 62.8625C282.156 62.7238 282.234 62.5591 282.277 62.3858C282.32 62.2124 282.346 62.0304 282.346 61.8484C282.346 61.6664 282.32 61.4931 282.277 61.3111C282.234 61.1377 282.156 60.973 282.06 60.8344C281.965 60.6957 281.835 60.583 281.688 60.4964C281.54 60.4097 281.358 60.3663 281.159 60.3663C280.96 60.3663 280.777 60.4097 280.63 60.4964C280.474 60.583 280.353 60.6957 280.257 60.8344C280.162 60.973 280.093 61.1291 280.041 61.3111C279.997 61.4931 279.971 61.6664 279.971 61.8484C279.971 62.0304 279.997 62.2124 280.041 62.3858C280.084 62.5591 280.162 62.7151 280.257 62.8625C280.353 63.0012 280.474 63.1138 280.63 63.2005C280.777 63.2872 280.96 63.3305 281.159 63.3305ZM281.159 64.0586C280.821 64.0586 280.526 64.0066 280.266 63.8939C280.006 63.7812 279.781 63.6339 279.607 63.4345C279.425 63.2438 279.287 63.0098 279.2 62.7411C279.105 62.4725 279.053 62.1778 279.053 61.8484C279.053 61.5191 279.105 61.2331 279.2 60.9644C279.295 60.6957 279.434 60.4617 279.607 60.271C279.789 60.0803 280.015 59.9243 280.266 59.8116C280.526 59.699 280.829 59.647 281.159 59.647C281.488 59.647 281.792 59.699 282.052 59.8116C282.312 59.9243 282.528 60.0717 282.71 60.271C282.892 60.4617 283.031 60.6957 283.126 60.9644C283.222 61.2331 283.265 61.5277 283.265 61.8484C283.265 62.1691 283.222 62.4725 283.126 62.7411C283.031 63.0098 282.892 63.2438 282.71 63.4345C282.528 63.6339 282.303 63.7812 282.052 63.8939C281.792 64.0066 281.488 64.0586 281.159 64.0586Z" fill="black"/>
<path d="M284.114 59.7598H284.98V60.5658H284.998C285.024 60.4531 285.076 60.3405 285.154 60.2365C285.232 60.1325 285.327 60.0284 285.44 59.9418C285.552 59.8551 285.674 59.7858 285.804 59.7251C285.942 59.6731 286.081 59.6471 286.22 59.6471C286.324 59.6471 286.402 59.6471 286.445 59.6558L286.566 59.6731V60.5658L286.367 60.5398H286.168C286.012 60.5311 285.864 60.5571 285.726 60.6178C285.587 60.6785 285.474 60.7738 285.37 60.8952C285.266 61.0165 285.188 61.1638 285.128 61.3459C285.067 61.5279 285.041 61.7272 285.041 61.9612V63.946H284.122V59.7684L284.114 59.7598Z" fill="black"/>
<path d="M286.584 59.7599H287.598L288.69 62.8801H288.707L289.764 59.7599H290.726L289.097 64.1715C289.019 64.3622 288.95 64.5442 288.872 64.7175C288.802 64.8908 288.716 65.0382 288.603 65.1769C288.49 65.3069 288.369 65.4109 288.204 65.4889C288.048 65.5669 287.849 65.6016 287.606 65.6016C287.39 65.6016 287.173 65.5842 286.965 65.5582V64.7782L287.182 64.8128L287.398 64.8302C287.511 64.8302 287.598 64.8215 287.667 64.7868L287.84 64.6742L287.962 64.4922C287.988 64.4228 288.022 64.3448 288.048 64.2495L288.152 63.9288L286.566 59.7599H286.584Z" fill="black"/>
<path d="M197.312 52.1758H197.772V51.3438H198.387V52.1758H198.942V52.6352H198.387V54.2906L198.431 54.4119L198.517 54.4813L198.682 54.5073H198.812L198.942 54.4899V54.9666L198.743 54.9926H198.543C198.387 55.0013 198.257 54.9926 198.153 54.958C198.049 54.9233 197.98 54.88 197.919 54.8193C197.867 54.7586 197.824 54.6893 197.806 54.5939C197.789 54.5073 197.772 54.4033 197.772 54.2906V52.6438H197.312V52.1845V52.1758Z" fill="black"/>
<path d="M199.444 51.1099H200.06V52.5399H200.068C200.146 52.4186 200.259 52.3059 200.406 52.2193C200.554 52.1326 200.718 52.0979 200.909 52.0979C201.212 52.0979 201.455 52.1759 201.628 52.3319C201.802 52.4879 201.888 52.7306 201.888 53.0426V54.9581H201.273V53.2073C201.273 52.9906 201.221 52.8346 201.134 52.7306C201.048 52.6353 200.909 52.5833 200.727 52.5833C200.623 52.5833 200.528 52.6006 200.45 52.6353L200.242 52.7913C200.181 52.8606 200.138 52.9386 200.103 53.0253C200.068 53.112 200.051 53.2073 200.051 53.3113V54.9581H199.436V51.1099H199.444Z" fill="black"/>
<path d="M264.846 52.9386H267.714V53.8313H263.658L263.684 53.4153C263.702 52.9906 263.797 52.6005 263.953 52.2625C264.144 51.8378 264.542 51.4912 265.149 51.2138L265.695 50.9278C266.016 50.7718 266.25 50.6158 266.38 50.4511C266.51 50.2864 266.588 50.0871 266.588 49.8444C266.588 49.593 266.51 49.385 266.345 49.2377C266.18 49.0904 265.955 49.0123 265.669 49.0123C265.028 49.0123 264.707 49.3504 264.707 50.0264H263.693C263.693 49.4284 263.858 48.9603 264.204 48.6223C264.551 48.2843 265.054 48.1196 265.704 48.1196C266.302 48.1196 266.778 48.267 267.125 48.5703C267.472 48.8737 267.645 49.2724 267.645 49.7577C267.645 50.1824 267.524 50.5378 267.29 50.8325C267.056 51.1271 266.683 51.4045 266.172 51.6558L265.652 51.9332C265.357 52.0892 265.158 52.2365 265.036 52.3752C264.915 52.5139 264.846 52.6959 264.828 52.9212L264.846 52.9386Z" fill="black"/>
<path d="M272.058 53.2075C271.676 53.7102 271.121 53.9615 270.393 53.9615C269.665 53.9615 269.111 53.7102 268.729 53.2075C268.348 52.7048 268.166 51.9854 268.166 51.0494C268.166 50.1133 268.357 49.3939 268.729 48.8913C269.111 48.3886 269.665 48.1372 270.393 48.1372C271.121 48.1372 271.676 48.3886 272.058 48.8913C272.439 49.3939 272.63 50.1133 272.63 51.0494C272.63 51.9854 272.439 52.7048 272.058 53.2075ZM270.393 53.0688C271.147 53.0688 271.529 52.3928 271.529 51.0494C271.529 49.706 271.147 49.0299 270.393 49.0299C269.639 49.0299 269.267 49.706 269.267 51.0494C269.267 52.3928 269.639 53.0688 270.393 53.0688Z" fill="black"/>
<path d="M274.258 52.9386H277.127V53.8313H273.07L273.096 53.4153C273.114 52.9906 273.209 52.6005 273.365 52.2625C273.556 51.8378 273.954 51.4912 274.561 51.2138L275.107 50.9278C275.428 50.7718 275.662 50.6158 275.792 50.4511C275.922 50.2864 276 50.0871 276 49.8444C276 49.593 275.922 49.385 275.757 49.2377C275.592 49.0904 275.367 49.0123 275.081 49.0123C274.44 49.0123 274.119 49.3504 274.119 50.0264H273.105C273.105 49.4284 273.27 48.9603 273.616 48.6223C273.963 48.2843 274.466 48.1196 275.116 48.1196C275.714 48.1196 276.19 48.267 276.537 48.5703C276.884 48.8737 277.057 49.2724 277.057 49.7577C277.057 50.1824 276.936 50.5378 276.702 50.8325C276.468 51.1271 276.095 51.4045 275.584 51.6558L275.064 51.9332C274.769 52.0892 274.57 52.2365 274.448 52.3752C274.327 52.5139 274.258 52.6959 274.24 52.9212L274.258 52.9386Z" fill="black"/>
<path d="M281.01 51.6558H281.755V52.5485H281.01V53.8313H279.952V52.5485H277.248V51.5432L279.857 48.2583H281.018V51.6558H281.01ZM279.978 51.6558V49.3937L278.184 51.6558H279.978Z" fill="black"/>
<path d="M195.683 57.0989H196.931V58.6069H195.683V60.7737H193.906V58.6069H189.355V56.9169L193.732 51.3699H195.674V57.0989H195.683ZM193.949 57.0989V53.2853L190.942 57.0989H193.949Z" fill="black"/>
</svg>
