<svg width="405" height="432" viewBox="0 0 405 432" fill="none" xmlns="http://www.w3.org/2000/svg">
<path d="M362.117 363.473C356.069 368.735 348.516 365.532 342.271 361.672C330.612 365.109 313.71 360.66 291.793 348.387C289.731 349.435 287.385 349.854 285.062 349.597C282.136 349.249 279.559 347.896 277.704 345.916C264.394 346.801 251.141 342.375 240.938 333.412L147.272 251.092C141.689 251.259 136.541 247.454 135.267 241.768C135.193 241.481 135.11 240.984 134.971 240.272L62.7062 176.768C46.7163 162.713 41.3957 140.163 48.7145 120.732L33.1768 105.538C25.5398 98.0679 25.0121 85.9021 31.9776 77.825C32.6125 77.0972 33.2908 76.4194 34.0126 75.7914C41.3544 69.4033 52.2562 69.1672 59.8922 75.2796L76.5668 88.5636C86.0593 83.5919 96.9543 81.7398 107.524 83.2832C109.208 79.1877 111.777 75.506 115.019 72.5977C123.306 65.3867 135.016 63.2644 145.038 66.9934C153.052 69.9716 158.526 75.861 162.988 81.1402C176.685 97.2341 188.671 114.729 200.23 131.632C209.488 145.187 219.048 159.139 229.286 172.061C231.915 175.385 234.51 178.518 237.257 180.117C238.809 181.047 240.39 181.205 240.776 181.045C241.277 180.566 241.784 177.932 240.973 175.744C239.297 171.154 234.578 166.886 230.015 162.747C225.144 158.306 224.771 150.74 229.178 145.853L229.582 145.414L230.204 144.872C234.759 140.91 241.565 140.993 246.064 145.057C252.126 150.566 259.686 157.446 263.398 167.543C267.584 178.937 264.708 191.916 256.445 199.105C256.097 199.408 255.724 199.733 255.354 200.011L312.912 249.527C321.381 256.799 327.169 266.667 329.451 277.482C331.726 278.79 333.51 280.789 334.537 283.227C335.627 285.786 335.765 288.559 335.053 291.107C350.18 310.955 357.846 327.254 357.939 339.623C364.104 346.709 367.285 352.577 365.331 358.573C364.71 360.472 363.589 362.149 362.095 363.448L362.117 363.473ZM129.717 92.2042C130.967 93.0887 132.122 94.0132 133.273 94.9843L164.208 121.592C158.03 112.984 151.606 104.546 144.846 96.5752C142.309 93.6096 139.419 90.338 136.77 89.3547C134.945 88.6637 132.477 89.1448 131.009 90.4224C130.486 90.8772 130.044 91.5249 129.717 92.2042Z" fill="white"/>
<path d="M239.382 152.405C238.545 151.643 237.277 151.694 236.493 152.552C235.734 153.388 235.809 154.681 236.647 155.443C241.849 160.166 247.713 165.497 250.24 172.372C252.47 178.454 251.218 186.864 245.251 189.908C240.886 192.128 235.644 190.727 232.18 188.656C227.996 186.159 224.725 182.299 221.491 178.23C211.057 165.083 201.371 150.935 192.004 137.255C180.573 120.548 168.735 103.275 155.386 87.5802C151.55 83.071 147.298 78.4856 141.523 76.3213C134.856 73.8364 126.86 75.4017 121.556 80.0608C117.244 83.9002 114.902 89.752 115.07 95.5238C102.03 90.3873 87.1271 92.3073 75.8303 100.734L53.6731 83.0583C49.3447 79.5914 43.0309 80.1753 39.4206 84.3687C35.8383 88.4939 36.1175 94.6949 40.0477 98.5083L60.6105 118.623C51.2179 135.168 54.4714 156.448 69.18 169.382L144.405 235.483C144.494 237.948 144.815 239.422 144.87 239.637C145.123 240.732 146.2 241.417 147.316 241.191C147.648 241.121 147.941 240.954 148.19 240.738C148.588 240.391 148.763 239.889 148.822 239.354L247.436 326.004C258.081 335.373 272.15 338.124 284.809 334.781C284.489 336.374 284.373 337.396 284.363 337.536C284.24 338.651 285.037 339.667 286.152 339.793C286.733 339.857 287.308 339.664 287.706 339.318C288.079 338.993 288.344 338.543 288.404 338.009C288.404 338.009 288.546 336.965 288.896 335.257C302.245 343.413 331.113 359.151 343.181 350.404C347.829 353.636 355.061 358.128 355.891 355.564C356.631 353.299 351.785 347.477 347.703 343.138C350.702 328.341 331.913 302.826 322.242 290.857C323.579 290.132 324.328 289.787 324.353 289.765C325.388 289.347 325.868 288.14 325.447 287.103C325.027 286.067 323.819 285.583 322.759 286.023C322.637 286.085 321.867 286.405 320.676 287.047C320.407 275.883 315.563 264.887 306.475 257.056L232.356 193.281C237.42 195.582 242.937 195.691 247.206 193.511C248.226 192.975 249.159 192.338 249.98 191.624C255.605 186.73 256.659 177.79 254.154 170.94C251.292 163.128 245.01 157.416 239.454 152.387L239.382 152.405ZM204.98 169.758C205.617 169.334 206.019 168.59 205.887 167.785C205.73 166.65 204.681 165.897 203.594 166.054C203.429 166.066 202.599 166.218 201.219 166.542L126.79 102.51C124.469 100.496 121.983 98.8456 119.385 97.4678C118.477 92.2525 120.384 86.6041 124.323 83.0894C124.372 83.0461 124.397 83.0245 124.447 82.9812C128.653 79.3216 134.933 78.1968 140.162 80.1352C145.024 81.9541 148.814 86.1088 152.349 90.222C165.569 105.767 177.341 122.966 188.686 139.572C198.096 153.303 207.801 167.522 218.321 180.769C218.795 181.364 219.295 181.938 219.769 182.534L204.955 169.779L204.98 169.758Z" fill="white"/>
<path d="M66.0357 123.853L40.0973 98.4646C36.1919 94.6296 35.9344 88.4534 39.4701 84.325C43.0805 80.1316 49.3693 79.5694 53.7226 83.0146L82.0297 105.597L66.0389 123.806L66.0357 123.853Z" fill="#412945"/>
<path d="M249.954 191.645C249.132 192.36 248.199 192.996 247.18 193.533C242.304 196.021 235.809 195.492 230.16 192.166C225.368 189.322 221.861 185.14 218.345 180.747C207.803 167.475 198.098 153.256 188.709 139.551C177.343 122.919 165.592 105.745 152.373 90.2003C148.884 86.0903 145.048 81.9323 140.185 80.1135C134.957 78.1751 128.652 79.3215 124.47 82.9594C124.421 83.0027 124.396 83.0244 124.346 83.0677C120.159 86.7989 118.238 92.9849 119.597 98.4662C119.85 99.5611 119.189 100.662 118.117 100.937C117.023 101.188 115.921 100.524 115.643 99.451C113.936 92.5637 116.365 84.7512 121.651 80.0207C126.955 75.3616 134.973 73.8212 141.617 76.2812C147.393 78.4455 151.645 83.0309 155.481 87.5401C168.852 103.26 180.668 120.508 192.099 137.215C201.466 150.895 211.131 165.018 221.586 178.19C224.841 182.284 228.088 186.166 232.275 188.616C235.739 190.687 240.981 192.088 245.346 189.868C251.288 186.846 252.544 178.389 250.335 172.332C247.829 165.482 241.944 160.126 236.742 155.403C235.904 154.641 235.829 153.348 236.588 152.512C237.372 151.654 238.64 151.603 239.477 152.365C245.034 157.394 251.316 163.106 254.177 170.918C256.705 177.793 255.628 186.708 250.003 191.602L249.954 191.645Z" fill="#412945"/>
<path d="M63.9541 113.521L68.1098 108.196C82.42 89.914 109.145 87.308 126.767 102.485L306.428 257.053C322.769 271.109 325.415 295.46 312.399 312.615L306.789 320.039C292.509 338.908 265.19 341.636 247.413 325.979L69.2287 169.338C52.9502 155.052 50.6648 130.564 63.9758 113.546L63.9541 113.521Z" fill="#6E72FF"/>
<path d="M148.217 240.669C147.968 240.886 147.675 241.053 147.343 241.123C146.249 241.373 145.15 240.663 144.897 239.568C144.721 238.713 140.379 218.293 161.466 193.677C182.375 169.26 202.719 166.156 203.571 166.029C204.705 165.875 205.729 166.65 205.864 167.76C206.021 168.894 205.248 169.917 204.139 170.049C203.95 170.083 184.404 173.149 164.54 196.306C144.777 219.377 148.789 238.462 148.869 238.655C149.051 239.417 148.767 240.146 148.22 240.623L148.217 240.669Z" fill="#412945"/>
<path d="M322.761 285.977C322.279 286.177 310.509 291.245 298.345 306.213C286.283 321.047 284.435 336.815 284.365 337.489C284.242 338.604 285.039 339.62 286.154 339.746C286.735 339.811 287.31 339.617 287.709 339.271C288.082 338.946 288.347 338.496 288.406 337.962C288.406 337.962 288.548 336.918 288.899 335.211C302.248 343.366 331.115 359.104 343.183 350.357C347.832 353.589 355.063 358.081 355.894 355.517C356.634 353.252 351.787 347.43 347.705 343.091C350.705 328.295 331.915 302.779 322.244 290.81C323.556 290.107 324.33 289.74 324.355 289.718C325.39 289.3 325.871 288.093 325.45 287.056C325.029 286.02 323.821 285.536 322.786 285.955L322.761 285.977Z" fill="#412945"/>
<path d="M109.835 113.229C108.188 115.758 108.568 119.11 110.742 121.207L157.257 165.822C159.959 168.424 164.362 168.056 166.625 165.079L170.591 159.787C172.627 157.051 172.121 153.152 169.431 151.065L118.924 111.764C116.036 109.5 111.844 110.21 109.832 113.276L109.835 113.229Z" fill="#F7EDE5"/>
<path d="M213.912 189.12C217.276 192.987 216.879 198.813 213.021 202.169C209.164 205.526 203.339 205.114 199.975 201.247C196.61 197.38 197.007 191.554 200.865 188.198C204.723 184.841 210.547 185.253 213.912 189.12Z" fill="#F7EDE5"/>
</svg>
