<svg width="456" height="312" viewBox="0 0 456 312" fill="none" xmlns="http://www.w3.org/2000/svg">
<path d="M98.2041 14.8409L103.76 15.9785L104.726 16.7928L371.959 135.634L373.414 132.26L428.657 157.826L425.621 165.102C437.268 174.61 451.023 190.725 452.03 214.088C452.471 224.339 450.364 235.035 445.698 245.915C427.849 287.691 393.549 289.614 374.571 287.008L370.926 295.687L314.52 269.91L315.973 266.498L48.1747 139.718L44.6389 137.972L1.08614 44.2898L98.2041 14.8409Z" fill="white"/>
<path d="M329.05 264.261L365.072 280.72L367.77 274.24C382.187 278.085 417.848 282.689 435.423 241.483C452.426 201.68 425.728 177.935 411.939 168.817L414.199 163.398L379.116 147.16L377.73 150.382L98.7376 26.3536L98.7005 26.3552L51.0225 40.7998L16.6042 51.2127L29.3986 78.7189L53.1014 129.682C53.1014 129.682 53.2161 129.752 53.405 129.818L330.435 261.001L329.014 264.3L329.05 264.261Z" fill="white"/>
<path d="M404.497 164.523C404.497 164.523 457.838 189.13 435.461 241.519C413.083 293.909 361.543 272.239 361.543 272.239L404.497 164.523Z" fill="#F8BDFF"/>
<path d="M363.899 276.826L53.0996 129.645L64.2923 66.3878L98.7357 26.3166C98.7357 26.3166 98.7357 26.3166 98.7728 26.315L409.483 164.495L363.898 276.789L363.899 276.826Z" fill="#FFC569"/>
<path d="M365.071 280.72L414.198 163.398L379.116 147.16L365.121 179.913L83.1713 58.0581C82.0347 57.5861 80.7539 58.0878 80.2819 59.2244C80.2496 59.3374 80.1801 59.4521 80.1477 59.5651C79.8938 60.5807 80.4246 61.6742 81.4111 62.1155L363.398 183.968L344.903 227.148L69.5346 95.6704C68.4335 95.1597 67.114 95.6258 66.6032 96.7269C66.5353 96.8787 66.503 96.9917 66.4351 97.1435C66.1796 98.122 66.6732 99.2171 67.6226 99.6599L343.182 231.241L329.049 264.261L365.071 280.72Z" fill="#412945"/>
<path d="M53.1 129.645L29.3971 78.6817L31.7219 56.627L50.9823 40.727L98.6602 26.2824C98.6602 26.2824 98.6602 26.2824 98.6974 26.2808C99.6112 26.7624 115.199 35.3195 110.122 46.1805C104.874 57.3838 85.6963 61.3726 85.6963 61.3726C85.6963 61.3726 102.459 76.4655 95.9216 88.8406C89.3844 101.216 70.9191 100.15 70.9191 100.15C70.9191 100.15 82.1963 114.028 78.7194 122.29C71.6249 139.006 53.0984 129.608 53.0984 129.608L53.1 129.645Z" fill="white"/>
<path d="M29.3963 78.6822L16.6019 51.176L51.0202 40.7631C52.2159 46.9258 50.9387 54.4231 48.9828 59.1215C45.48 67.6448 38.3702 74.5002 30.0166 78.395C29.8341 78.4773 29.616 78.5983 29.3963 78.6822Z" fill="#412945"/>
</svg>
