<svg width="358" height="334" viewBox="0 0 358 334" fill="none" xmlns="http://www.w3.org/2000/svg">
<path d="M323.61 236.554L332.983 246.549C333.989 247.614 332.974 249.331 331.557 248.971L318.386 245.708C317.909 245.584 317.397 245.723 317.033 246.059L306.323 256.089C305.284 257.068 303.607 256.131 303.876 254.729L306.491 241.489C306.577 241.052 306.464 240.593 306.169 240.254L296.86 229.27C295.946 228.189 296.949 226.552 298.326 226.9L312.238 230.323C312.728 230.447 313.24 230.307 313.604 229.958L323.816 220.147C324.869 219.141 326.585 220.104 326.264 221.52L323.233 235.228C323.135 235.704 323.261 236.19 323.597 236.554L323.61 236.554Z" fill="#FC9D29"/>
<path d="M45.0141 97.8666L54.3872 107.861C55.3928 108.927 54.3778 110.644 52.9612 110.283L39.7896 107.02C39.313 106.896 38.8009 107.036 38.4369 107.371L27.7273 117.402C26.6876 118.38 25.0115 117.444 25.2798 116.042L27.8955 102.801C27.981 102.365 27.8684 101.905 27.573 101.567L18.2636 90.5822C17.3501 89.5019 18.3531 87.8643 19.73 88.2121L33.6424 91.635C34.1323 91.7592 34.6444 91.6194 35.0082 91.2709L45.2201 81.4592C46.2726 80.4538 47.9886 81.4161 47.6678 82.8321L44.6374 96.5406C44.5393 97.0169 44.6655 97.5028 45.0009 97.8668L45.0141 97.8666Z" fill="#FC9D29"/>
<path d="M256.725 222.131C244.625 224.577 232.814 217.135 229.681 205.365L207.314 211.308C205.897 204.576 203.216 195.992 199.718 189.44C197.883 186.015 195.571 182.95 193.308 180.622C200.504 175.463 203.566 167.196 201.677 157.961C199.126 145.405 186.875 137.307 174.335 139.844C173.896 139.935 173.44 140.039 172.997 140.159L166.305 107.27L207.926 98.802C207.926 98.802 207.883 98.6741 207.891 98.6144C205.341 86.0582 213.452 73.8233 225.995 71.2558C238.551 68.7053 250.786 76.8162 253.354 89.3596C253.375 89.4235 253.367 89.4832 253.389 89.5472L298.066 80.4565L304.304 111.043C312.65 110.065 321.259 113.404 326.678 120.59C334.795 131.353 332.648 146.677 321.885 154.794C319.45 156.631 316.783 157.948 313.991 158.744L319.732 187.007L275.007 196.107C276.742 208.183 268.769 219.646 256.682 222.109L256.725 222.131Z" fill="#FC29DC"/>
<path d="M178.748 215.727C179.086 216.033 179.39 216.365 179.724 216.701L199.585 195.711L168.699 166.483C176.553 157.166 175.858 143.21 166.89 134.719C157.922 126.229 143.96 126.313 135.084 134.664L101.939 103.291L27.2113 182.278L60.3302 213.616C60.3302 213.616 60.228 213.693 60.1898 213.749C51.3928 223.055 51.8032 237.733 61.0923 246.543C70.3984 255.34 85.0762 254.929 93.886 245.64C93.9371 245.602 93.9753 245.546 94.0136 245.49L124.874 274.685L147.952 250.307C147.597 250.014 147.259 249.708 146.921 249.402C137.615 240.605 137.222 225.914 146.019 216.608C154.816 207.302 169.493 206.891 178.799 215.688L178.748 215.727Z" fill="#AB29FC"/>
</svg>
