<svg width="334" height="218" viewBox="0 0 334 218" fill="none" xmlns="http://www.w3.org/2000/svg">
<path d="M321.078 170.139L331.478 179.06C332.593 180.011 331.77 181.828 330.323 181.623L316.876 179.805C316.388 179.733 315.894 179.927 315.569 180.3L306.008 191.431C305.08 192.516 303.313 191.767 303.428 190.344L304.595 176.898C304.632 176.455 304.471 176.01 304.14 175.706L293.697 165.793C292.671 164.818 293.491 163.082 294.898 163.278L309.099 165.175C309.599 165.246 310.093 165.051 310.417 164.665L319.507 153.806C320.445 152.692 322.255 153.463 322.089 154.906L320.56 168.862C320.514 169.346 320.693 169.815 321.065 170.141L321.078 170.139Z" fill="#FC9D29"/>
<path d="M29.1062 62.4254L39.5062 71.3465C40.6212 72.2971 39.798 74.1137 38.3508 73.9088L24.9034 72.0909C24.4161 72.0188 23.9221 72.2132 23.5966 72.586L14.0357 83.7168C13.1081 84.8024 11.3405 84.0528 11.4554 82.6301L12.6225 69.1841C12.6602 68.741 12.4985 68.2961 12.1682 67.9918L1.72439 58.0795C0.699299 57.1045 1.51919 55.368 2.92558 55.5647L17.1268 57.4614C17.6272 57.5318 18.1212 57.3374 18.4451 56.9515L27.5349 46.0921C28.4723 44.9787 30.2825 45.7495 30.1169 47.1919L28.5882 61.1479C28.5423 61.632 28.7204 62.1014 29.0931 62.427L29.1062 62.4254Z" fill="#FC9D29"/>
<path d="M137.981 214.06C137.176 214.094 136.423 214.125 135.721 214.141C129.095 214.326 122.944 210.602 120.043 204.662C115.98 196.415 119.198 186.552 127.382 182.231C128.247 181.779 129.177 181.311 130.158 180.815C136.274 177.764 143.206 174.301 145.815 166.363C146.404 164.569 146.786 162.823 146.977 161.15C142.046 161.746 138.157 162.051 135.613 162.196L121.954 175.277L120.964 173.667C117.851 176.073 114.262 178.264 110.194 180.216C99.6479 185.285 87.8823 188.234 76.1833 188.721C75.6899 188.741 75.2095 188.761 74.7161 188.782C70.7012 188.884 66.0203 188.611 61.6646 185.839C54.8506 181.506 52.5736 172.743 56.5974 166.293C58.0971 163.889 60.08 162.467 61.254 161.612C61.4309 161.487 61.6073 161.35 61.7842 161.225C63.107 160.195 64.1604 157.692 64.7686 154.181C64.9986 152.832 65.1858 151.393 65.3698 149.877C65.7989 146.438 66.287 142.542 67.5937 138.624C70.1025 131.093 75.2337 124.688 82.0209 120.568C84.4063 119.129 86.9604 117.995 89.645 117.181L104.616 111.875C105.915 109.636 107.935 106.313 110.665 102.206C109.093 101.621 107.357 101.173 105.486 100.9C104.295 100.729 103.122 100.66 101.966 100.708C95.4608 100.979 90.1874 104.906 85.5324 108.378C84.6494 109.039 83.8168 109.659 83.0204 110.212C80.3299 112.132 77.1622 113.214 73.8641 113.351C68.3068 113.582 62.9994 111.072 59.6674 106.645C55.69 101.4 55.1318 94.2433 58.2709 88.4155C58.4754 88.0168 58.7297 87.5639 58.9959 87.0846C66.2643 73.905 77.7749 56.7117 91.3254 49.774C97.1452 46.7872 106.096 42.7725 116.6 42.3351C127.105 41.8976 137.932 45.1537 148.559 52.3463C149.536 53.008 150.528 53.7081 151.521 54.4471C163.082 43.7682 175.408 34.2931 188.247 26.2014C203.622 16.5214 220.105 9.74765 237.212 6.05669C238.269 5.83057 239.314 5.61797 240.346 5.4189C247.352 4.06057 254.485 3.23027 261.535 2.93667C273.948 2.41975 286.368 3.61948 296.691 6.31129L298.08 6.25343L299.402 7.06986C300.784 7.48052 302.103 7.91986 303.331 8.36298L303.516 8.43332C304.666 8.8667 305.764 9.30225 306.758 9.75511L307.076 9.89794C307.368 10.0289 307.634 10.1609 307.899 10.2929L308.271 10.4855C308.737 10.7263 309.135 10.9308 309.495 11.1369C309.708 11.2581 309.922 11.3793 310.122 11.5011C310.281 11.5855 310.482 11.7202 310.683 11.8549C310.896 11.9891 311.124 12.1357 311.338 12.2829C311.512 12.4057 311.672 12.5031 311.806 12.6015C312.168 12.8596 312.518 13.1312 312.841 13.4039L313.03 13.5651L313.247 13.7772C313.544 14.038 313.815 14.2998 314.047 14.5633C314.21 14.7256 314.306 14.8517 314.402 14.9518C314.866 15.4787 315.252 15.996 315.6 16.5538C321.822 26.6612 313.569 59.2882 293.636 86.3273L293.563 86.4344L293.452 86.5821C292.885 87.3341 292.318 88.0991 291.738 88.8517C291.109 89.6713 290.442 90.5185 289.762 91.3663C278.766 104.987 265.295 116.656 249.739 126.032C236.72 133.871 222.72 140.619 207.992 146.136C213.382 176.881 198.591 192.13 185.084 201.992C172.966 210.847 152.783 213.431 137.981 214.047L137.981 214.06Z" fill="white"/>
<g style="mix-blend-mode:multiply">
<path d="M286.211 81.0696C306.788 53.2493 310.628 25.8398 307.88 21.3758C307.796 21.2492 307.686 21.1107 307.577 20.9722C307.536 20.9349 307.508 20.884 307.467 20.8467C307.372 20.7336 307.25 20.6346 307.129 20.5226C307.088 20.4853 307.047 20.4479 306.994 20.4111C306.832 20.2748 306.657 20.139 306.456 19.9913C306.376 19.9296 306.295 19.8809 306.215 19.8193C306.081 19.7338 305.947 19.6353 305.8 19.5374C305.693 19.4638 305.573 19.3908 305.453 19.3177C305.319 19.2322 305.173 19.1603 305.039 19.0748C304.773 18.9298 304.493 18.7723 304.201 18.6284C304.095 18.5808 304.002 18.5197 303.896 18.4721C303.683 18.3639 303.471 18.2686 303.245 18.161C303.166 18.1253 303.086 18.0895 303.007 18.0538C302.211 17.6967 301.325 17.3305 300.361 16.9804C300.335 16.9815 300.321 16.969 300.295 16.9571C298.921 16.455 297.378 15.947 295.694 15.4838C283.862 12.1655 264.562 10.0296 242.085 14.3735C241.117 14.5569 240.137 14.7538 239.157 14.9637C224.654 18.0909 208.939 23.9612 193.121 33.9069C176.948 44.0885 163.284 55.4923 152.001 66.5888C149.083 63.9789 146.245 61.7428 143.488 59.8805C124.215 46.8307 108.872 51.0205 95.5127 57.8722C83.2487 64.158 72.1363 82.1672 66.9964 91.4861C66.7541 91.9124 66.5247 92.3382 66.3196 92.7239C64.8583 95.4252 65.1125 98.7184 66.9703 101.164C69.5308 104.557 74.3204 105.255 77.7949 102.795C84.1114 98.3044 93.2678 89.8588 106.867 91.8939C114.825 93.0843 120.059 96.3392 123.477 99.7217C115.029 111.416 110.896 119.301 110.896 119.301L100.449 123.001L101.634 124.915C96.4774 124.454 91.1943 125.649 86.7666 128.331C81.8697 131.305 78.0744 136.055 76.2586 141.489C74.7323 146.066 74.5855 150.976 73.769 155.732C72.9395 160.488 71.232 165.397 67.428 168.378C66.3449 169.23 65.0734 169.933 64.342 171.108C62.8909 173.432 64.2753 176.691 66.5865 178.156C68.8977 179.62 71.7905 179.747 74.5324 179.685C85.4988 179.41 96.4064 176.784 106.289 172.028C112.652 168.966 118.81 164.743 122.573 158.889L123.828 160.918L131.833 153.249C131.833 153.249 140.724 153.113 154.975 150.828C155.528 152.535 155.958 154.442 156.139 156.581C156.445 160.184 156.073 164.388 154.504 169.175C150.209 182.243 138.542 186.618 131.683 190.247C127.928 192.237 126.39 196.828 128.265 200.639C129.616 203.392 132.444 205.095 135.511 205.019C145.579 204.73 168.118 203.128 179.77 194.631C192.431 185.389 203.499 172.883 199.068 147.678C198.658 145.328 198.1 142.854 197.394 140.269C212.374 135.184 228.715 128.104 245.07 118.24C261.083 108.585 273.382 97.1993 282.708 85.6509C283.339 84.8702 283.957 84.0901 284.561 83.2975C285.129 82.5585 285.683 81.82 286.237 81.0686C286.237 81.0686 286.237 81.0686 286.237 81.0556L286.211 81.0696Z" fill="white"/>
</g>
<path d="M124.393 155.432L103.256 125.121C97.599 124.212 91.6251 125.371 86.7282 128.346C81.8314 131.32 78.036 136.07 76.2203 141.504C74.6939 146.081 74.5472 150.991 73.7307 155.746C72.9012 160.502 71.1936 165.412 67.3897 168.393C66.3065 169.245 65.0351 169.948 64.3036 171.123C62.8526 173.447 64.2369 176.706 66.5352 178.171C68.8464 179.635 71.7392 179.762 74.4811 179.7C85.4475 179.425 96.355 176.799 106.237 172.043C113.786 168.412 121.085 163.139 124.393 155.432Z" fill="#FFE45E"/>
<path d="M121.757 151.158L106.209 128.874C102.045 128.202 97.6582 129.061 94.0549 131.24C90.4517 133.419 87.6578 136.918 86.3284 140.914C85.2068 144.278 85.0969 147.885 84.5011 151.383C83.8924 154.881 82.6382 158.497 79.8417 160.682C79.0485 161.313 78.1071 161.82 77.571 162.688C76.5105 164.397 77.5206 166.787 79.2177 167.874C80.9149 168.961 83.0513 169.042 85.0655 168.997C93.1348 168.804 101.145 166.87 108.426 163.367C113.985 160.691 119.352 156.825 121.77 151.157L121.757 151.158Z" fill="#FF9770"/>
<path d="M129.408 109.386C129.408 109.386 125.846 94.7585 106.828 91.8955C93.2288 89.8604 84.0594 98.3066 77.7559 102.796C74.2944 105.256 69.5048 104.558 66.9313 101.166C65.0735 98.72 64.8193 95.4268 66.2806 92.7256C66.4857 92.3398 66.7156 91.927 66.9575 91.4877C72.0974 82.1688 83.2098 64.1597 95.4737 57.8739C108.833 51.0222 124.176 46.8324 143.449 59.8822C148.187 63.0927 153.163 67.3338 158.401 72.8518L129.407 109.373L129.408 109.386Z" fill="#7371FC"/>
<g style="mix-blend-mode:multiply" opacity="0.35">
<path d="M129.408 109.386C129.408 109.386 125.846 94.7584 106.828 91.8955C93.2288 89.8604 84.0594 98.3065 77.7559 102.796C74.2944 105.256 69.5048 104.558 66.9313 101.166C65.0735 98.72 64.8193 95.4268 66.2806 92.7255C66.4857 92.3398 66.7156 91.927 66.9575 91.4877C68.9148 94.1376 72.8583 95.131 76.2413 94.5349C80.1534 93.8387 83.5711 91.5762 87.1261 89.8023C96.8987 84.908 108.408 83.6093 119.037 86.1582C125.361 75.9315 133.715 66.96 143.449 59.8821C148.187 63.0926 153.163 67.3338 158.401 72.8517L129.407 109.373L129.408 109.386Z" fill="#7371FC"/>
</g>
<path d="M135.46 205.048C132.394 205.136 129.565 203.42 128.215 200.667C126.339 196.856 127.864 192.253 131.632 190.275C138.479 186.66 150.146 182.272 154.453 169.203C156.023 164.416 156.407 160.199 156.088 156.609C155.224 146.487 148.994 141.179 148.994 141.179L194.658 131.72C196.748 137.565 198.179 142.877 199.03 147.706C203.462 172.924 192.393 185.416 179.732 194.658C168.081 203.156 145.541 204.758 135.473 205.047L135.46 205.048Z" fill="#7371FC"/>
<g style="mix-blend-mode:multiply" opacity="0.35">
<path d="M199.03 147.693C185.196 152.522 170.715 155.532 156.087 156.596C155.223 146.474 148.993 141.166 148.993 141.166L194.657 131.707C196.747 137.552 198.178 142.864 199.03 147.693Z" fill="#7371FC"/>
</g>
<path d="M245.032 118.255C188.327 152.431 131.781 153.264 131.781 153.264L110.857 119.303C110.857 119.303 137.033 69.1762 193.069 33.9091C208.887 23.9504 224.602 18.0932 239.105 14.9659C275.947 7.0062 304.952 16.6592 307.854 21.3769C310.755 26.0947 306.344 56.3375 282.657 85.6661C273.33 97.2145 261.032 108.613 245.019 118.255L245.032 118.255Z" fill="#FC296C"/>
<path d="M243.771 84.6271C245.528 66.1642 231.985 49.773 213.522 48.0162C195.059 46.2595 178.668 59.8024 176.911 78.2653C175.154 96.7281 188.697 113.119 207.16 114.876C225.623 116.633 242.014 103.09 243.771 84.6271Z" fill="#7371FC"/>
<path d="M223.081 102.142C211.655 109.174 196.692 105.622 189.661 94.1952C182.629 82.7687 186.182 67.8059 197.608 60.7745C209.035 53.7432 223.997 57.2953 231.029 68.7218C238.06 80.1483 234.508 95.1111 223.081 102.142Z" fill="#FDFAF3"/>
<path d="M231.029 68.7216C227.235 62.5712 221.143 58.7017 214.539 57.5329C218.509 59.4877 222.005 62.5418 224.502 66.5871C231.533 78.0136 227.981 92.9764 216.554 100.008C211.292 103.258 205.271 104.237 199.624 103.249C206.861 106.811 215.714 106.676 223.095 102.142C234.521 95.1104 238.073 80.1345 231.042 68.721L231.029 68.7216Z" fill="#DFE4F2"/>
<path d="M282.67 85.6656C272.761 78.222 262.931 67.3803 254.743 54.103C246.568 40.8251 241.304 27.1659 239.118 14.9653C275.96 7.00565 304.965 16.6586 307.867 21.3764C310.769 26.0941 306.357 56.337 282.67 85.6656Z" fill="#7371FC"/>
<path d="M260.019 50.8528C252.318 38.3486 247.205 25.5155 244.808 13.87C242.936 14.1951 241.039 14.5473 239.118 14.9654C241.304 27.166 246.568 40.8252 254.743 54.1031C262.918 67.3809 272.748 78.2226 282.67 85.6657C283.907 84.1314 285.079 82.5998 286.211 81.0698C276.89 73.6928 267.732 63.3564 260.032 50.8522L260.019 50.8528Z" fill="white"/>
<g style="mix-blend-mode:multiply" opacity="0.35">
<path d="M282.67 85.6656C306.357 56.337 310.782 26.0937 307.867 21.3764C306.835 19.7025 302.472 17.3868 295.642 15.4731C293.174 28.0625 285.925 47.3156 270.673 66.1865C261.347 77.7349 249.049 89.1338 233.035 98.7755C176.33 132.952 119.785 133.785 119.785 133.785L131.781 153.251C131.781 153.251 188.327 152.418 245.032 118.242C261.045 108.587 273.343 97.201 282.67 85.6526L282.67 85.6656Z" fill="#7371FC"/>
</g>
<path d="M131.782 153.264L121.319 136.283L110.87 119.315L100.424 123.015L112.1 141.974L123.777 160.933L131.782 153.264Z" fill="#181851"/>
<g style="mix-blend-mode:soft-light" opacity="0.5">
<path d="M254.819 57.4815C239.561 62.1491 224.815 58.1847 221.893 48.6162C218.972 39.0606 228.975 27.5231 244.233 22.8556C259.491 18.188 274.237 22.1524 277.159 31.7209C280.08 41.2765 270.077 52.814 254.819 57.4815Z" fill="white"/>
</g>
<path d="M176.536 102.286L169.296 90.5298L100.818 139.972C96.8909 142.815 95.463 147.57 97.5416 150.944C99.6201 154.317 104.508 155.193 108.811 152.959L183.763 114.042L176.523 102.286L176.536 102.286Z" fill="#7371FC"/>
<g style="mix-blend-mode:multiply" opacity="0.35">
<path d="M97.5414 150.944C98.2674 152.136 99.357 153.001 100.628 153.547C100.512 150.755 102.025 147.739 104.842 145.71L172.966 96.5163L169.282 90.5304L100.805 139.973C96.8778 142.816 95.4499 147.571 97.5284 150.944L97.5414 150.944Z" fill="#7371FC"/>
</g>
</svg>
