<svg width="512" height="500" viewBox="0 0 512 500" fill="none" xmlns="http://www.w3.org/2000/svg">
<path d="M86.7556 459.465L89.4933 463.036L93.0648 460.299L502.121 146.741L505.692 144.003L502.954 140.432L439.177 57.2307L438.061 55.7764L437.869 55.5243L437.868 55.5243L436.84 54.183L426.153 40.2348L423.415 36.6621L419.843 39.4004L10.7873 352.965L7.21588 355.703L9.95357 359.274L20.6874 373.277L22.2883 375.365L22.2918 375.365L22.9914 376.278L86.7556 459.465Z" fill="#FFC063" stroke="white" stroke-width="9"/>
<path d="M464.023 129.11C464.651 128.626 465.549 128.746 466.033 129.375L480.285 147.97C480.769 148.598 480.648 149.495 480.02 149.979C479.392 150.463 478.491 150.339 478.011 149.714L463.758 131.119C463.274 130.491 463.392 129.59 464.023 129.11Z" fill="#412945"/>
<path d="M26.5695 373.448L435.618 59.8999L433.291 56.8646L24.2428 370.413L26.5695 373.448Z" fill="#412945"/>
<path d="M444.388 144.147C445.016 143.663 445.917 143.787 446.398 144.412L460.65 163.007C461.134 163.635 461.013 164.533 460.385 165.017C459.754 165.497 458.857 165.376 458.376 164.752L444.124 146.156C443.64 145.528 443.76 144.631 444.388 144.147Z" fill="#412945"/>
<path d="M419.615 152.473C420.24 151.993 421.144 152.113 421.625 152.738L441.025 178.048C441.509 178.676 441.388 179.574 440.76 180.058C440.132 180.541 439.235 180.421 438.751 179.793L419.35 154.483C418.867 153.855 418.984 152.954 419.615 152.473Z" fill="#412945"/>
<path d="M405.136 174.233C405.765 173.749 406.665 173.874 407.146 174.498L421.398 193.094C421.882 193.722 421.762 194.619 421.133 195.103C420.505 195.587 419.608 195.466 419.124 194.838L404.872 176.243C404.388 175.615 404.508 174.717 405.136 174.233Z" fill="#412945"/>
<path d="M385.508 189.281C386.136 188.797 387.034 188.918 387.518 189.546L401.77 208.142C402.254 208.77 402.13 209.671 401.505 210.151C400.877 210.635 399.976 210.518 399.496 209.886L385.243 191.291C384.766 190.663 384.884 189.762 385.508 189.281Z" fill="#412945"/>
<path d="M365.888 204.323C366.517 203.84 367.414 203.96 367.898 204.588L382.15 223.184C382.634 223.812 382.513 224.709 381.885 225.193C381.257 225.677 380.36 225.556 379.876 224.928L365.624 206.333C365.14 205.705 365.257 204.804 365.888 204.323Z" fill="#412945"/>
<path d="M346.26 219.373C346.888 218.889 347.785 219.01 348.269 219.638L362.521 238.233C363.002 238.864 362.885 239.759 362.257 240.243C361.629 240.726 360.728 240.602 360.247 239.978L345.995 221.382C345.517 220.754 345.635 219.853 346.26 219.373Z" fill="#412945"/>
<path d="M318.718 224.084C319.35 223.604 320.244 223.721 320.728 224.349L342.897 253.274C343.38 253.902 343.26 254.8 342.632 255.284C342.004 255.768 341.103 255.643 340.622 255.019L318.45 226.097C317.97 225.466 318.087 224.565 318.718 224.084Z" fill="#412945"/>
<path d="M307.008 249.459C307.636 248.975 308.536 249.099 309.017 249.724L323.269 268.32C323.753 268.948 323.629 269.848 323.005 270.329C322.377 270.813 321.479 270.692 320.995 270.064L306.743 251.469C306.262 250.844 306.383 249.94 307.008 249.459Z" fill="#412945"/>
<path d="M287.381 264.505C288.009 264.021 288.906 264.141 289.39 264.769L303.643 283.365C304.127 283.993 304.006 284.891 303.378 285.374C302.75 285.858 301.849 285.734 301.368 285.11L287.116 266.514C286.632 265.886 286.749 264.985 287.381 264.505Z" fill="#412945"/>
<path d="M267.756 279.546C268.384 279.062 269.284 279.186 269.765 279.811L284.018 298.406C284.501 299.034 284.377 299.935 283.753 300.415C283.125 300.899 282.227 300.778 281.743 300.15L267.491 281.555C267.01 280.93 267.128 280.03 267.756 279.546Z" fill="#412945"/>
<path d="M248.127 294.591C248.755 294.107 249.656 294.231 250.136 294.856L264.389 313.451C264.873 314.079 264.752 314.977 264.124 315.461C263.496 315.945 262.595 315.821 262.114 315.196L247.862 296.601C247.378 295.973 247.495 295.072 248.127 294.591Z" fill="#412945"/>
<path d="M220.187 298.79C220.818 298.31 221.716 298.43 222.197 299.055L244.764 328.493C245.248 329.121 245.123 330.022 244.499 330.502C243.871 330.986 242.97 330.862 242.489 330.237L219.922 300.8C219.438 300.172 219.562 299.271 220.187 298.79Z" fill="#412945"/>
<path d="M208.873 324.681C209.501 324.197 210.402 324.322 210.882 324.946L225.135 343.542C225.619 344.17 225.494 345.071 224.87 345.551C224.242 346.035 223.344 345.914 222.86 345.286L208.608 326.691C208.124 326.063 208.242 325.162 208.873 324.681Z" fill="#412945"/>
<path d="M189.254 339.723C189.882 339.239 190.779 339.36 191.263 339.988L205.516 358.583C205.999 359.211 205.875 360.112 205.251 360.593C204.623 361.077 203.725 360.956 203.241 360.328L188.989 341.732C188.508 341.108 188.626 340.207 189.254 339.723Z" fill="#412945"/>
<path d="M169.621 354.768C170.249 354.284 171.146 354.405 171.63 355.033L185.883 373.628C186.363 374.26 186.243 375.157 185.618 375.638C184.99 376.122 184.089 375.997 183.608 375.373L169.356 356.777C168.875 356.146 168.993 355.245 169.621 354.768Z" fill="#412945"/>
<path d="M150.002 369.81C150.63 369.326 151.527 369.447 152.011 370.075L166.264 388.67C166.748 389.298 166.623 390.199 165.999 390.68C165.371 391.164 164.473 391.043 163.989 390.415L149.737 371.819C149.256 371.195 149.374 370.294 150.002 369.81Z" fill="#412945"/>
<path d="M122.845 375.044C123.473 374.561 124.371 374.681 124.855 375.309L146.625 403.715C147.109 404.343 146.988 405.241 146.36 405.725C145.732 406.208 144.831 406.084 144.351 405.46L122.577 377.057C122.1 376.429 122.217 375.528 122.845 375.044Z" fill="#412945"/>
<path d="M110.738 399.9C111.366 399.416 112.267 399.54 112.747 400.165L127 418.76C127.484 419.388 127.363 420.286 126.735 420.769C126.107 421.253 125.206 421.129 124.726 420.504L110.473 401.909C109.992 401.284 110.11 400.383 110.738 399.9Z" fill="#412945"/>
<path d="M91.1248 414.952C91.7528 414.468 92.6536 414.593 93.1342 415.217L107.387 433.813C107.867 434.444 107.746 435.342 107.122 435.822C106.494 436.306 105.596 436.185 105.112 435.557L90.8598 416.962C90.3759 416.334 90.4934 415.433 91.1248 414.952Z" fill="#412945"/>
</svg>
