<svg width="700" height="624" viewBox="0 0 700 624" fill="none" xmlns="http://www.w3.org/2000/svg">
<g filter="url(#filter0_d_235_545)">
<path d="M668.441 192.776C668.441 192.776 668.754 192.793 668.909 192.84C670.033 193.096 670.809 193.999 670.757 194.977C669.087 227.366 686.554 238.29 686.743 238.417C687.542 238.891 687.968 239.737 687.768 240.55C687.57 241.324 686.833 241.913 685.888 241.981C685.693 241.97 665.188 244.027 652.283 273.783C651.968 274.551 651.08 275.014 650.181 274.966C650.024 274.958 649.868 274.95 649.713 274.902C648.589 274.647 647.813 273.743 647.865 272.765C649.547 240.142 632.068 229.453 631.877 229.364C631.078 228.891 630.652 228.045 630.813 227.23C631.012 226.416 631.747 225.867 632.692 225.799C632.888 225.809 653.393 223.753 666.298 193.997C666.613 193.229 667.5 192.766 668.439 192.815M669.298 176.544C661.592 176.137 654.417 180.544 651.423 187.485C643.293 206.276 632.307 209.305 630.8 209.618C623.187 210.432 616.817 215.94 615.046 223.495C613.276 231.011 616.516 238.752 623.078 242.981C624.095 243.78 632.73 251.1 631.67 271.95C631.203 280.79 637.259 288.68 646.016 290.711C647.101 290.964 648.229 291.141 649.324 291.199C656.991 291.603 664.205 287.199 667.199 280.257C675.329 261.467 686.315 258.438 687.822 258.125C695.393 257.348 701.762 251.879 703.57 244.365C705.379 236.851 702.217 229.114 695.696 224.848C694.679 224.049 685.935 216.566 686.99 195.834C687.456 186.994 681.4 179.104 672.643 177.073C671.558 176.82 670.43 176.643 669.335 176.585L669.298 176.544Z" fill="white"/>
<path d="M590.398 78.0489C590.593 78.0592 590.789 78.0694 590.983 78.1189C592.415 78.469 593.414 79.62 593.348 80.8716C591.127 122.959 613.561 137.125 613.789 137.255C614.814 137.897 615.345 138.985 615.094 140.03C614.843 141.076 613.902 141.811 612.681 141.903C612.446 141.891 586.06 144.657 569.349 183.351C568.904 184.348 567.815 184.918 566.603 184.854C566.407 184.843 566.211 184.833 566.018 184.784C564.585 184.433 563.587 183.283 563.653 182.031C565.89 139.631 543.479 125.779 543.25 125.65C542.184 125.044 541.655 123.918 541.906 122.872C542.158 121.827 543.138 121.094 544.319 120.999C544.554 121.012 570.94 118.246 587.651 79.5513C588.096 78.5549 589.185 77.9849 590.398 78.0489ZM591.252 61.8554C583.273 61.4344 575.855 65.9852 572.731 73.1552C560.752 100.96 544.046 104.629 542.423 104.896C534.415 105.768 527.878 111.463 526.096 119.214C524.273 127.002 527.655 135.025 534.485 139.386C535.73 140.315 549.063 150.785 547.418 181.214C546.935 190.366 553.172 198.54 562.277 200.668C563.401 200.923 564.569 201.103 565.742 201.165C573.721 201.586 581.139 197.035 584.263 189.865C596.242 162.06 612.949 158.391 614.571 158.124C622.501 157.248 629.034 151.631 630.892 143.923C632.754 136.138 629.451 128.119 622.66 123.76C621.414 122.831 607.972 112.198 609.574 81.8454C610.057 72.6926 603.82 64.5188 594.715 62.3911C593.591 62.1357 592.423 61.9565 591.25 61.8946L591.252 61.8554Z" fill="white"/>
<path d="M105.925 395.262C106.121 395.272 106.316 395.282 106.51 395.332C107.943 395.682 108.941 396.833 108.875 398.085C106.654 440.172 129.088 454.338 129.316 454.468C130.342 455.11 130.873 456.197 130.621 457.243C130.37 458.289 129.429 459.024 128.208 459.116C127.974 459.104 101.587 461.869 84.8763 500.564C84.4315 501.561 83.3424 502.131 82.1298 502.067C81.9343 502.056 81.7386 502.046 81.5451 501.997C80.1123 501.646 79.1141 500.495 79.1801 499.244C81.4171 456.844 59.0061 442.992 58.7776 442.863C57.7113 442.257 57.1823 441.131 57.4336 440.085C57.6849 439.039 58.6649 438.307 59.8466 438.212C60.0813 438.225 86.4676 435.459 103.179 396.764C103.623 395.768 104.712 395.198 105.925 395.262ZM106.779 379.068C98.8 378.647 91.3821 383.198 88.2582 390.368C76.2794 418.173 59.5728 421.842 57.9505 422.109C49.9422 422.981 43.4052 428.676 41.6234 436.427C39.8005 444.215 43.1819 452.238 50.0141 456.56C51.2595 457.488 64.5922 467.958 62.9476 498.387C62.4647 507.54 68.7014 515.714 77.8066 517.842C78.9306 518.097 80.0979 518.276 81.2714 518.338C89.2507 518.759 96.6686 514.209 99.7925 507.039C111.771 479.234 128.478 475.565 130.1 475.298C138.03 474.422 144.563 468.804 146.421 461.097C148.283 453.311 144.98 445.292 138.191 440.894C136.946 439.966 123.504 429.333 125.105 398.98C125.588 389.827 119.351 381.654 110.246 379.526C109.122 379.27 107.955 379.091 106.781 379.029L106.779 379.068Z" fill="white"/>
<path d="M269.187 29.2137L396.785 114.628L632.24 169.686L611.519 258.375L631.484 271.744L595.974 324.783L551.95 513.165L451.948 575.274L420.215 567.874L319.774 587.756L220.211 521.119L108.43 494.982L118.262 452.865L26.6173 391.509L189.483 148.209L207.669 70.4081L236.961 77.2487L269.15 29.1725M270.043 12.9812C264.528 12.6902 258.982 15.2217 255.66 20.1847L229.731 58.903L211.366 54.6001C210.396 54.392 209.464 54.2251 208.525 54.1756C200.819 53.7691 193.683 58.9231 191.861 66.7109L174.338 141.605L13.093 382.441C10.7086 386.002 9.81047 390.387 10.6458 394.628C11.481 398.869 13.953 402.569 17.5533 404.955L99.8788 460.053L92.5871 491.204C91.6211 495.389 92.3287 499.82 94.6072 503.47C96.8857 507.12 100.513 509.744 104.698 510.71L213.574 536.144L310.673 601.161C313.135 602.82 315.951 603.714 318.845 603.867C320.175 603.937 321.513 603.851 322.862 603.569L419.894 584.37L448.216 591.002C449.146 591.208 450.12 591.338 451.059 591.388C454.345 591.561 457.645 590.715 460.482 588.982L560.483 526.872C564.134 524.594 566.757 520.967 567.723 516.782L611.086 331.268L644.936 280.691C649.919 273.227 647.94 263.16 640.476 258.177L629.829 251.065L648.013 173.303C650.042 164.584 644.621 155.826 635.903 153.797L403.313 99.4396L278.177 15.6852C275.678 13.9844 272.82 13.1277 270.004 12.9792L270.043 12.9812Z" fill="white"/>
<path d="M319.774 587.756L26.6542 391.55L269.187 29.2134L631.484 271.744L435.276 564.902L319.774 587.756Z" fill="#9B39A0"/>
<path d="M319.773 587.755L366.098 518.577L435.275 564.902L319.773 587.755Z" fill="#5C285E"/>
<path d="M451.948 575.274L108.469 494.984L207.705 70.4489L632.24 169.685L551.95 513.164L451.948 575.274Z" fill="#F13470"/>
<path d="M451.949 575.274L470.894 494.218L551.95 513.164L451.949 575.274Z" fill="#F13470"/>
<path d="M686.705 238.376C686.705 238.376 669.049 227.325 670.719 194.936C670.771 193.958 669.995 193.054 668.871 192.799C667.747 192.543 666.664 192.996 666.264 193.877C653.359 223.634 632.854 225.69 632.659 225.679C631.714 225.747 630.977 226.336 630.779 227.11C630.579 227.923 631.005 228.769 631.843 229.245C632.034 229.333 649.472 240.059 647.831 272.646C647.78 273.624 648.556 274.527 649.68 274.783C650.804 275.038 651.886 274.585 652.286 273.704C665.191 243.948 685.696 241.892 685.892 241.902C686.837 241.834 687.574 241.246 687.771 240.472C687.971 239.659 687.545 238.812 686.746 238.339L686.705 238.376Z" fill="#EEC630"/>
<path d="M613.748 137.292C613.52 137.163 591.086 122.996 593.307 80.9092C593.373 79.6575 592.377 78.4674 590.942 78.1564C589.509 77.8063 588.103 78.4381 587.611 79.5888C570.939 118.286 544.554 121.012 544.279 121.037C543.058 121.129 542.076 121.901 541.866 122.91C541.614 123.956 542.145 125.043 543.21 125.687C543.438 125.817 565.888 139.67 563.612 182.069C563.546 183.32 564.542 184.51 565.977 184.821C567.41 185.171 568.816 184.539 569.308 183.389C585.98 144.692 612.364 141.966 612.64 141.941C613.861 141.848 614.802 141.114 615.053 140.068C615.305 139.022 614.774 137.935 613.748 137.292Z" fill="#EEC630"/>
<path d="M129.315 454.506C129.086 454.377 106.653 440.21 108.873 398.123C108.939 396.871 107.943 395.681 106.508 395.37C105.075 395.02 103.669 395.652 103.177 396.803C86.5051 435.499 60.1208 438.226 59.845 438.251C58.6242 438.343 57.6421 439.115 57.432 440.124C57.1807 441.169 57.7117 442.256 58.776 442.901C59.0045 443.031 81.4545 456.884 79.1785 499.282C79.1124 500.534 80.1086 501.724 81.5435 502.035C82.9763 502.385 84.3825 501.753 84.8746 500.603C101.547 461.906 127.931 459.179 128.207 459.155C129.427 459.062 130.368 458.327 130.62 457.282C130.871 456.236 130.34 455.149 129.315 454.506Z" fill="#EEC630"/>
</g>
<path d="M217.995 235.936L216.015 244.674L221.136 245.834C222.319 246.102 223.183 245.987 223.726 245.488C224.28 244.944 224.66 244.216 224.867 243.306L225.392 240.985C225.599 240.075 225.564 239.277 225.288 238.593C225.023 237.863 224.299 237.364 223.115 237.096L217.995 235.936ZM207.186 272.245L196.672 269.863C195.808 269.668 195.212 269.341 194.885 268.884C194.613 268.392 194.576 267.714 194.771 266.849L204.793 222.61C204.989 221.745 205.31 221.172 205.757 220.89C206.259 220.573 206.943 220.513 207.807 220.709L230.541 225.859C235.639 227.013 238.901 228.877 240.328 231.449C241.811 233.986 242.171 236.939 241.408 240.307L240.697 243.447C240.264 245.359 239.597 246.93 238.696 248.161C237.85 249.358 236.655 250.092 235.11 250.364C237.506 251.194 239.259 252.643 240.369 254.713C241.525 256.793 241.778 259.267 241.129 262.134L237.85 276.607C237.654 277.472 237.305 278.063 236.803 278.38C236.356 278.662 235.7 278.704 234.836 278.508L224.254 276.111C223.389 275.915 222.793 275.589 222.466 275.132C222.194 274.64 222.157 273.962 222.353 273.097L224.719 262.652C224.946 261.65 224.906 260.876 224.599 260.328C224.349 259.745 223.745 259.345 222.79 259.128L213.232 256.963L210.201 270.344C210.005 271.209 209.656 271.8 209.153 272.116C208.707 272.398 208.051 272.441 207.186 272.245ZM279.183 288.555L247.506 281.379C246.641 281.183 246.045 280.856 245.718 280.4C245.447 279.907 245.409 279.229 245.605 278.364L255.626 234.125C255.822 233.26 256.144 232.687 256.59 232.406C257.093 232.089 257.776 232.028 258.641 232.224L290.318 239.4C291.183 239.596 291.751 239.94 292.022 240.432C292.35 240.889 292.415 241.55 292.219 242.414L290.41 250.402C290.214 251.267 289.865 251.858 289.362 252.174C288.916 252.456 288.26 252.499 287.395 252.303L268.553 248.035L267.362 253.291L280.675 256.307C281.539 256.503 282.107 256.847 282.379 257.339C282.706 257.796 282.772 258.457 282.576 259.322L280.921 266.627C280.725 267.491 280.376 268.082 279.873 268.399C279.427 268.681 278.771 268.723 277.906 268.528L264.594 265.512L263.264 271.383L282.106 275.652C282.971 275.847 283.539 276.191 283.81 276.683C284.138 277.14 284.203 277.801 284.007 278.666L282.198 286.654C282.002 287.518 281.653 288.109 281.15 288.426C280.704 288.708 280.048 288.75 279.183 288.555ZM327.03 299.393L305.525 294.522C299.836 293.233 295.861 291.136 293.6 288.232C291.385 285.337 290.813 281.524 291.885 276.79L296.711 255.49C297.783 250.756 299.942 247.561 303.188 245.904C306.48 244.257 310.971 244.078 316.66 245.367L333.727 249.233C334.592 249.429 335.16 249.773 335.432 250.265C335.759 250.722 335.824 251.383 335.628 252.248L333.757 260.509C333.561 261.373 333.212 261.964 332.71 262.281C332.263 262.563 331.607 262.606 330.743 262.41L316.542 259.193C315.132 258.873 314.018 258.932 313.201 259.369C312.395 259.76 311.862 260.525 311.605 261.663L307.909 277.98C307.651 279.117 307.71 280.016 308.087 280.676C308.51 281.346 309.244 281.799 310.291 282.036L316.913 283.536L319.326 272.886C319.522 272.021 319.843 271.448 320.29 271.167C320.792 270.85 321.476 270.789 322.34 270.985L332.922 273.382C333.787 273.578 334.355 273.922 334.626 274.414C334.954 274.871 335.019 275.532 334.823 276.397L330.045 297.492C329.849 298.357 329.499 298.948 328.997 299.265C328.55 299.546 327.895 299.589 327.03 299.393ZM339.28 302.168C338.415 301.972 337.82 301.646 337.492 301.189C337.221 300.697 337.183 300.019 337.379 299.154L339.22 291.03C339.416 290.165 339.737 289.592 340.183 289.31C340.686 288.993 341.369 288.933 342.234 289.129L348.993 290.66L354.189 267.721L347.43 266.19C346.566 265.994 345.97 265.668 345.643 265.211C345.371 264.719 345.334 264.04 345.529 263.175L347.401 254.915C347.597 254.05 347.918 253.477 348.364 253.195C348.867 252.878 349.55 252.818 350.415 253.014L379.498 259.602C380.363 259.798 380.931 260.142 381.202 260.634C381.53 261.091 381.595 261.752 381.399 262.616L379.528 270.877C379.332 271.742 378.983 272.333 378.481 272.649C378.034 272.931 377.378 272.974 376.514 272.778L369.891 271.278L364.695 294.217L371.317 295.717C372.182 295.913 372.75 296.257 373.021 296.749C373.348 297.206 373.414 297.867 373.218 298.731L371.378 306.856C371.182 307.72 370.833 308.311 370.33 308.628C369.884 308.91 369.228 308.952 368.363 308.756L339.28 302.168ZM402.15 316.41L380.577 311.523C379.712 311.327 379.116 311.001 378.789 310.544C378.518 310.052 378.48 309.373 378.676 308.509L380.485 300.521C380.681 299.656 381.002 299.083 381.449 298.802C381.951 298.485 382.635 298.424 383.5 298.62L401.864 302.78C402.456 302.914 402.93 302.83 403.285 302.528C403.697 302.19 403.964 301.749 404.088 301.203C404.263 300.429 404.233 299.824 403.997 299.387C403.806 298.962 403.42 298.659 402.839 298.479L392.923 294.726C389.84 293.549 387.506 291.92 385.92 289.838C384.379 287.766 384.042 284.819 384.908 280.996L386.532 273.827C387.408 269.959 389.33 267.284 392.297 265.803C395.275 264.276 398.971 264.013 403.386 265.013L422.502 269.343C423.366 269.539 423.934 269.883 424.206 270.375C424.533 270.832 424.598 271.493 424.403 272.358L422.562 280.482C422.366 281.347 422.017 281.938 421.515 282.254C421.068 282.536 420.412 282.579 419.548 282.383L403.641 278.78C403.049 278.646 402.548 278.747 402.136 279.085C401.735 279.377 401.468 279.819 401.333 280.41C401.199 281.002 401.245 281.539 401.471 282.02C401.697 282.502 402.101 282.833 402.682 283.012L412.545 286.682C415.628 287.859 417.962 289.488 419.548 291.57C421.134 293.652 421.494 296.604 420.628 300.428L419.004 307.596C418.128 311.465 416.178 314.157 413.155 315.673C410.188 317.154 406.519 317.4 402.15 316.41ZM446.393 326.432L435.333 323.927C434.468 323.731 433.872 323.405 433.545 322.948C433.274 322.456 433.236 321.777 433.432 320.913L441.026 287.392L430.99 285.119C430.125 284.923 429.529 284.596 429.202 284.139C428.931 283.647 428.893 282.969 429.089 282.104L430.96 273.843C431.156 272.979 431.477 272.405 431.924 272.124C432.426 271.807 433.11 271.747 433.975 271.942L470.021 280.108C470.886 280.304 471.454 280.648 471.725 281.14C472.053 281.597 472.118 282.258 471.922 283.123L470.051 291.383C469.855 292.248 469.506 292.839 469.004 293.156C468.557 293.437 467.901 293.48 467.037 293.284L457.001 291.011L449.407 324.532C449.211 325.396 448.862 325.987 448.36 326.304C447.913 326.586 447.258 326.628 446.393 326.432ZM502.216 339.078L470.539 331.902C469.674 331.706 469.078 331.38 468.751 330.923C468.479 330.431 468.442 329.752 468.638 328.888L478.659 284.649C478.855 283.784 479.176 283.211 479.623 282.929C480.125 282.612 480.809 282.552 481.674 282.748L513.351 289.924C514.216 290.119 514.784 290.463 515.055 290.955C515.382 291.412 515.448 292.073 515.252 292.938L513.443 300.926C513.247 301.79 512.897 302.381 512.395 302.698C511.948 302.98 511.293 303.022 510.428 302.827L491.585 298.558L490.395 303.815L503.707 306.831C504.572 307.027 505.14 307.371 505.411 307.863C505.739 308.32 505.804 308.98 505.608 309.845L503.954 317.15C503.758 318.015 503.409 318.606 502.906 318.922C502.46 319.204 501.804 319.247 500.939 319.051L487.626 316.035L486.296 321.907L505.139 326.175C506.004 326.371 506.572 326.715 506.843 327.207C507.17 327.664 507.236 328.325 507.04 329.189L505.23 337.177C505.035 338.042 504.685 338.633 504.183 338.949C503.736 339.231 503.081 339.274 502.216 339.078ZM536.628 308.116L534.648 316.854L539.768 318.014C540.952 318.282 541.815 318.167 542.359 317.668C542.913 317.123 543.293 316.396 543.499 315.486L544.025 313.165C544.231 312.254 544.197 311.457 543.921 310.773C543.656 310.043 542.931 309.544 541.748 309.276L536.628 308.116ZM525.819 344.425L515.305 342.043C514.44 341.847 513.844 341.521 513.517 341.064C513.246 340.572 513.208 339.893 513.404 339.029L523.426 294.79C523.622 293.925 523.943 293.352 524.389 293.07C524.892 292.753 525.575 292.693 526.44 292.889L549.174 298.039C554.272 299.193 557.534 301.057 558.961 303.629C560.444 306.166 560.804 309.118 560.041 312.486L559.329 315.627C558.896 317.538 558.229 319.11 557.328 320.341C556.483 321.537 555.288 322.271 553.743 322.543C556.139 323.373 557.892 324.823 559.002 326.893C560.158 328.973 560.411 331.447 559.761 334.314L556.483 348.787C556.287 349.652 555.938 350.243 555.435 350.56C554.989 350.841 554.333 350.884 553.468 350.688L542.886 348.291C542.022 348.095 541.426 347.769 541.099 347.312C540.827 346.82 540.789 346.141 540.985 345.277L543.352 334.831C543.578 333.83 543.539 333.055 543.232 332.507C542.981 331.924 542.378 331.525 541.422 331.308L531.864 329.143L528.833 342.524C528.637 343.389 528.288 343.979 527.786 344.296C527.339 344.578 526.684 344.621 525.819 344.425Z" fill="white"/>
<path d="M206.52 353.225L195.938 350.828C195.073 350.632 194.477 350.306 194.15 349.849C193.879 349.357 193.841 348.679 194.037 347.814L204.059 303.575C204.254 302.71 204.576 302.137 205.022 301.855C205.525 301.538 206.208 301.478 207.073 301.674L237.522 308.571C238.386 308.767 238.954 309.111 239.226 309.603C239.553 310.06 239.618 310.721 239.423 311.586L237.582 319.71C237.386 320.575 237.037 321.165 236.535 321.482C236.088 321.764 235.432 321.807 234.568 321.611L217.159 317.667L215.55 324.767L227.429 327.458C228.294 327.654 228.862 327.998 229.133 328.49C229.461 328.947 229.526 329.608 229.33 330.473L227.475 338.665C227.279 339.53 226.929 340.121 226.427 340.437C225.98 340.719 225.325 340.762 224.46 340.566L212.581 337.875L209.534 351.324C209.338 352.189 208.989 352.78 208.487 353.097C208.04 353.378 207.385 353.421 206.52 353.225ZM280.014 356.309C279.54 358.402 278.789 360.242 277.76 361.827C276.786 363.377 275.364 364.586 273.493 365.454C271.677 366.287 269.304 366.73 266.373 366.784C263.488 366.848 259.929 366.401 255.696 365.442C251.463 364.483 248.036 363.348 245.414 362.036C242.792 360.724 240.819 359.296 239.494 357.752C238.225 356.173 237.463 354.469 237.207 352.641C237.007 350.777 237.144 348.799 237.619 346.705L242.892 323.425C243.367 321.331 244.09 319.509 245.063 317.959C246.092 316.374 247.52 315.142 249.346 314.264C251.217 313.396 253.618 312.935 256.549 312.881C259.48 312.828 263.062 313.28 267.295 314.239C271.527 315.198 274.932 316.328 277.508 317.629C280.13 318.941 282.075 320.386 283.344 321.966C284.659 323.556 285.416 325.282 285.616 327.146C285.872 328.974 285.762 330.935 285.288 333.029L280.014 356.309ZM253.673 347.758C253.467 348.668 253.633 349.519 254.171 350.311C254.72 351.057 256.223 351.709 258.681 352.266C261.138 352.822 262.776 352.882 263.592 352.445C264.419 351.963 264.936 351.266 265.142 350.356L269.302 331.991C269.498 331.127 269.322 330.321 268.773 329.575C268.235 328.783 266.737 328.108 264.279 327.552C261.821 326.995 260.179 326.958 259.352 327.44C258.535 327.877 258.029 328.528 257.833 329.393L253.673 347.758ZM309.66 337.832L307.681 346.571L312.801 347.73C313.985 347.999 314.848 347.883 315.392 347.384C315.946 346.84 316.326 346.113 316.532 345.202L317.058 342.881C317.264 341.971 317.229 341.173 316.954 340.489C316.688 339.759 315.964 339.26 314.781 338.992L309.66 337.832ZM298.852 374.141L288.338 371.76C287.473 371.564 286.877 371.237 286.55 370.78C286.279 370.288 286.241 369.61 286.437 368.745L296.458 324.506C296.654 323.641 296.976 323.068 297.422 322.786C297.925 322.47 298.608 322.409 299.473 322.605L322.207 327.755C327.304 328.91 330.567 330.773 331.994 333.345C333.476 335.882 333.836 338.835 333.073 342.203L332.362 345.343C331.929 347.255 331.262 348.826 330.361 350.058C329.516 351.254 328.321 351.988 326.776 352.26C329.172 353.09 330.925 354.539 332.035 356.609C333.191 358.689 333.444 361.163 332.794 364.03L329.515 378.504C329.32 379.368 328.97 379.959 328.468 380.276C328.021 380.558 327.366 380.6 326.501 380.405L315.919 378.007C315.054 377.812 314.458 377.485 314.131 377.028C313.86 376.536 313.822 375.858 314.018 374.993L316.384 364.548C316.611 363.546 316.571 362.772 316.265 362.224C316.014 361.641 315.411 361.241 314.455 361.024L304.897 358.859L301.866 372.24C301.67 373.105 301.321 373.696 300.819 374.013C300.372 374.294 299.716 374.337 298.852 374.141ZM365.185 389.168L354.603 386.771C353.738 386.575 353.142 386.248 352.815 385.791C352.544 385.299 352.506 384.621 352.702 383.756L362.724 339.517C362.919 338.652 363.241 338.079 363.687 337.797C364.19 337.481 364.873 337.42 365.738 337.616L396.187 344.513C397.051 344.709 397.619 345.053 397.891 345.545C398.218 346.002 398.283 346.663 398.088 347.528L396.247 355.652C396.051 356.517 395.702 357.108 395.2 357.425C394.753 357.706 394.097 357.749 393.233 357.553L375.824 353.609L374.215 360.71L386.094 363.401C386.959 363.596 387.527 363.94 387.799 364.433C388.126 364.889 388.191 365.55 387.995 366.415L386.14 374.607C385.944 375.472 385.595 376.063 385.092 376.38C384.646 376.661 383.99 376.704 383.125 376.508L371.246 373.817L368.199 387.267C368.004 388.131 367.654 388.722 367.152 389.039C366.705 389.321 366.05 389.364 365.185 389.168ZM418.225 362.425L416.246 371.164L421.366 372.324C422.549 372.592 423.413 372.476 423.957 371.977C424.511 371.433 424.891 370.706 425.097 369.795L425.623 367.474C425.829 366.564 425.794 365.767 425.519 365.082C425.253 364.352 424.529 363.853 423.346 363.585L418.225 362.425ZM407.416 398.734L396.903 396.353C396.038 396.157 395.442 395.83 395.115 395.374C394.844 394.881 394.806 394.203 395.002 393.338L405.023 349.099C405.219 348.234 405.54 347.661 405.987 347.38C406.489 347.063 407.173 347.002 408.038 347.198L430.772 352.348C435.869 353.503 439.132 355.366 440.559 357.938C442.041 360.475 442.401 363.428 441.638 366.796L440.927 369.936C440.494 371.848 439.827 373.419 438.926 374.651C438.081 375.847 436.886 376.581 435.341 376.853C437.737 377.683 439.49 379.133 440.6 381.202C441.755 383.282 442.009 385.756 441.359 388.624L438.08 403.097C437.885 403.962 437.535 404.552 437.033 404.869C436.586 405.151 435.931 405.194 435.066 404.998L424.484 402.601C423.619 402.405 423.023 402.078 422.696 401.621C422.425 401.129 422.387 400.451 422.583 399.586L424.949 389.141C425.176 388.14 425.136 387.365 424.83 386.817C424.579 386.234 423.976 385.834 423.02 385.618L413.462 383.452L410.431 396.833C410.235 397.698 409.886 398.289 409.383 398.606C408.937 398.887 408.281 398.93 407.416 398.734ZM479.414 415.044L447.736 407.868C446.872 407.672 446.276 407.346 445.949 406.889C445.677 406.397 445.64 405.718 445.835 404.854L455.857 360.614C456.053 359.75 456.374 359.176 456.821 358.895C457.323 358.578 458.007 358.518 458.871 358.713L490.549 365.889C491.413 366.085 491.982 366.429 492.253 366.921C492.58 367.378 492.646 368.039 492.45 368.904L490.64 376.891C490.444 377.756 490.095 378.347 489.593 378.664C489.146 378.945 488.491 378.988 487.626 378.792L468.783 374.524L467.592 379.781L480.905 382.797C481.77 382.992 482.338 383.336 482.609 383.829C482.936 384.285 483.002 384.946 482.806 385.811L481.151 393.116C480.955 393.981 480.606 394.571 480.104 394.888C479.657 395.17 479.002 395.213 478.137 395.017L464.824 392.001L463.494 397.872L482.337 402.141C483.201 402.337 483.769 402.681 484.041 403.173C484.368 403.63 484.434 404.291 484.238 405.155L482.428 413.143C482.232 414.008 481.883 414.598 481.381 414.915C480.934 415.197 480.279 415.24 479.414 415.044ZM524.18 425.185L492.503 418.009C491.638 417.813 491.042 417.487 490.715 417.03C490.444 416.538 490.406 415.859 490.602 414.994L500.623 370.755C500.819 369.891 501.141 369.317 501.587 369.036C502.09 368.719 502.773 368.658 503.638 368.854L535.315 376.03C536.18 376.226 536.748 376.57 537.019 377.062C537.347 377.519 537.412 378.18 537.216 379.045L535.407 387.032C535.211 387.897 534.862 388.488 534.359 388.805C533.913 389.086 533.257 389.129 532.392 388.933L513.55 384.665L512.359 389.922L525.672 392.937C526.536 393.133 527.104 393.477 527.376 393.969C527.703 394.426 527.769 395.087 527.573 395.952L525.918 403.257C525.722 404.122 525.373 404.712 524.87 405.029C524.424 405.311 523.768 405.354 522.903 405.158L509.591 402.142L508.261 408.013L527.103 412.282C527.968 412.478 528.536 412.822 528.807 413.314C529.134 413.771 529.2 414.431 529.004 415.296L527.195 423.284C526.999 424.149 526.65 424.739 526.147 425.056C525.701 425.338 525.045 425.381 524.18 425.185Z" fill="white"/>
<defs>
<filter id="filter0_d_235_545" x="10.3403" y="12.9585" width="698.923" height="596.122" filterUnits="userSpaceOnUse" color-interpolation-filters="sRGB">
<feFlood flood-opacity="0" result="BackgroundImageFix"/>
<feColorMatrix in="SourceAlpha" type="matrix" values="0 0 0 0 0 0 0 0 0 0 0 0 0 0 0 0 0 0 127 0" result="hardAlpha"/>
<feOffset dx="3.11" dy="3.11"/>
<feGaussianBlur stdDeviation="1.04"/>
<feColorMatrix type="matrix" values="0 0 0 0 0.196078 0 0 0 0 0.0666667 0 0 0 0 0.266667 0 0 0 0.2 0"/>
<feBlend mode="normal" in2="BackgroundImageFix" result="effect1_dropShadow_235_545"/>
<feBlend mode="normal" in="SourceGraphic" in2="effect1_dropShadow_235_545" result="shape"/>
</filter>
</defs>
</svg>
