<svg width="503" height="503" viewBox="0 0 503 503" fill="none" xmlns="http://www.w3.org/2000/svg">
<path d="M312.184 442.106C302.293 445.247 292.138 447.622 281.963 449.198C261.004 452.436 239.779 452.299 218.839 448.782C183.131 442.802 149.678 427.214 122.07 403.699C93.7033 379.534 72.7047 347.893 61.3668 312.187C53.6285 287.817 50.6485 262.658 52.4682 237.376C55.9849 188.697 77.1663 143.047 112.092 108.866C134.515 86.9101 161.152 70.9388 191.286 61.3701C224.081 50.9565 259.126 49.1668 292.618 56.1898C325.071 63.0125 355.623 77.9518 380.964 99.4061C398.555 114.301 413.285 131.951 424.766 151.864C424.941 152.148 425.103 152.457 425.278 152.741C428.043 157.572 430.663 162.683 433.058 167.886C434.305 170.61 435.494 173.352 436.601 176.036C438.604 180.939 440.469 186.078 442.122 191.283C453.301 226.488 454.538 263.937 445.699 299.598L445.536 300.286C444.002 306.419 442.13 312.553 440.016 318.53C429.899 346.956 413.237 373.152 391.773 394.251C369.277 416.379 342.511 432.476 312.222 442.094L312.184 442.106Z" fill="white"/>
<path d="M334.027 201.9C344.973 236.373 446.415 263.354 438.583 296.169C429.567 333.945 409.21 368.425 380.144 394.591C360.449 412.305 301.848 358.625 274.953 367.166C259.953 371.929 279.687 442.365 264.665 443.378C242.937 444.866 221.461 442.601 201.044 436.987C140.385 420.338 171.224 363.195 150.764 298.762C135.649 251.161 57.9649 213.112 77.3988 171.116C99.2742 123.908 140.111 85.6849 193.612 68.6963C200.765 66.425 207.95 64.5892 215.167 63.1889C309.633 44.7383 304.22 107.964 334.052 201.914L334.027 201.9Z" fill="#707EFF"/>
<path d="M434.776 193.616C445.722 228.088 446.44 263.367 438.602 296.163C422.827 293.405 406.602 288.963 395.318 277.69C387.049 269.428 382.308 258.305 378.513 247.222C377.671 244.773 376.818 242.221 375.048 240.321C369.711 234.609 360.393 237.949 352.993 240.511C333.615 247.259 308.696 243.774 297.806 226.391C291.307 216.017 291.035 202.86 293.081 190.792C295.128 178.724 299.274 167.05 300.944 154.932C301.244 152.735 301.456 150.461 300.827 148.347C298.995 142.243 291.494 140.274 285.233 139.206C265.462 135.827 244.407 130.543 231.356 115.31C221.88 104.248 214.074 81.0031 215.161 63.1698C309.626 44.7192 404.963 99.6595 434.789 193.59L434.776 193.616Z" fill="#4DEADA"/>
<path d="M203.061 349.096C198.813 361.184 190.86 371.562 183.044 381.706C190.863 388.816 198.448 396.595 202.743 406.246C207.026 415.923 207.45 427.885 201.389 436.538C201.285 436.677 201.187 436.836 201.082 436.975C140.41 420.351 89.1466 374.274 68.693 309.861C53.5777 262.259 57.9708 213.132 77.424 171.129C89.361 172.963 101.717 177.253 109.261 180.758C129.591 190.241 146.232 210.298 146.052 232.725C145.989 241.15 143.628 249.688 145.417 257.928C145.789 259.635 146.379 261.358 147.55 262.642C149.359 264.593 152.191 265.158 154.799 265.752C172.455 269.823 188.408 281.164 197.622 296.745C206.842 312.346 209.056 332.017 203.061 349.096Z" fill="#4DEADA"/>
<path d="M263.915 137.168C275.684 156.119 272.629 180.52 258.152 198.827L265.701 210.968C268.083 214.796 266.899 219.82 263.084 222.178L244.578 233.678C240.751 236.061 235.726 234.876 233.369 231.061L226.934 220.689C201.974 229.039 175.015 221.406 162.027 200.486C146.524 175.526 156.759 141.12 184.908 123.628C213.057 106.137 248.45 112.195 263.959 137.175L263.915 137.168Z" fill="#FFCD40"/>
<path d="M180.832 205.636C181.448 207.775 183.216 209.4 185.105 210.604C186.493 211.5 187.999 212.232 189.578 212.728C191.317 213.258 193.137 213.508 194.959 213.566C196.954 213.633 199.248 213.371 200.366 211.743C201.091 210.685 201.15 209.266 200.719 208.044C200.289 206.822 199.491 205.781 198.589 204.879C196.3 202.55 193.376 200.825 190.228 199.936C186.182 198.822 179.059 199.45 180.832 205.636Z" fill="#F7EDE5"/>
<path d="M265.49 219.864C264.027 218.864 262.609 217.808 261.217 216.7C261.16 216.655 261.084 216.615 261.021 216.55C250.711 208.342 241.588 197.125 232.383 181.371C233.158 179.533 233.733 177.399 234.055 175.004C235.211 166.614 233.646 158.813 229.647 153.036C228.632 151.576 226.807 149.906 224.732 149.588C223.596 149.419 222.536 149.691 221.669 150.37C220.278 151.47 219.965 153.224 219.826 154.457C219.036 162.263 222.679 169.724 226.151 176.113C227.161 177.957 228.159 179.763 229.17 181.479C228.474 182.761 227.587 183.913 226.437 184.767C225.283 183.138 224.064 181.572 222.807 180.019C217.16 173.131 211.742 169.97 206.202 170.371C204.729 170.478 203.534 170.858 202.572 171.503C200.724 172.769 199.724 175.166 199.981 177.78C200.292 181.098 202.505 184.258 205.873 186.245C208.849 187.995 212.326 188.653 215.327 189.08C218.589 189.529 222.277 189.78 225.558 188.484C233.771 200.647 239.058 214.823 240.795 229.383C240.973 230.812 241.112 232.253 241.207 233.687L244.031 233.491C243.886 231.563 243.702 229.648 243.435 227.738C241.492 213.265 236.171 199.249 228.053 187.118C229.082 186.346 230.01 185.393 230.794 184.253C239.728 199.287 248.637 210.168 258.662 218.276C259.117 218.641 259.572 219.005 260.022 219.351C261.148 220.224 262.287 221.072 263.459 221.889C263.788 222.124 264.112 222.339 264.441 222.574L266.035 220.243C265.845 220.112 265.655 219.982 265.484 219.845L265.49 219.864ZM215.737 186.296C212.871 185.891 209.866 185.317 207.334 183.828C204.746 182.294 203.046 179.948 202.825 177.514C202.668 175.95 203.213 174.525 204.208 173.848C204.609 173.573 205.104 173.394 205.732 173.301C205.956 173.272 206.2 173.237 206.443 173.202C210.99 172.883 215.645 175.714 220.663 181.824C221.802 183.203 222.894 184.639 223.929 186.093C221.384 186.901 218.425 186.674 215.757 186.29L215.737 186.296ZM228.671 174.761C225.38 168.739 221.948 161.742 222.675 154.741C222.787 153.623 223.047 152.904 223.454 152.583C223.61 152.47 223.758 152.402 223.918 152.372C224.034 152.336 224.187 152.351 224.34 152.366C225.273 152.494 226.526 153.433 227.334 154.641C230.938 159.842 232.321 166.938 231.258 174.619C231.101 175.73 230.886 176.923 230.53 178.14C229.899 177.024 229.288 175.902 228.652 174.767L228.671 174.761Z" fill="#412945"/>
<path d="M274.746 215.461C276.523 218.314 275.65 222.05 272.797 223.826L272.333 224.101L283.02 241.316C285.934 246.015 284.502 252.2 279.784 255.12L266.739 263.231C262.04 266.145 255.855 264.713 252.935 259.995L246.687 249.945L249.389 242.211L242.234 242.806L241.776 243.1C238.923 244.876 235.18 243.984 233.41 241.151C231.634 238.298 232.526 234.555 235.36 232.785L266.342 213.524C269.195 211.748 272.932 212.62 274.708 215.473L274.746 215.461Z" fill="#4DEADA"/>
<path d="M272.352 224.095L253.281 256.341L242.273 242.793L272.352 224.095Z" fill="#412945"/>
<path d="M228.914 128.204C230.228 128.466 231.482 128.874 232.697 129.422C233.262 129.667 233.796 129.943 234.335 130.239C234.9 130.548 235.485 130.85 235.958 131.273C236.66 131.878 237.453 132.369 238.325 132.644C238.892 132.825 239.512 132.84 240.102 132.759C240.999 132.644 241.849 132.246 242.567 131.7C244.592 130.123 245.06 126.451 242.762 124.762C238.66 121.735 232.725 117.549 227.494 119.656C223.998 121.679 224.914 127.437 228.901 128.229L228.914 128.204Z" fill="#F7EDE5"/>
<path d="M245.995 141.224C250.357 145.272 253.144 150.839 254.623 156.566C254.641 156.624 254.66 156.682 254.678 156.74C256.322 162.585 265.406 159.913 263.704 154.086C261.822 146.619 257.825 139.781 252.382 134.335C247.982 130.172 241.543 137.098 246.001 141.243L245.995 141.224Z" fill="#F7EDE5"/>
<path d="M380.163 394.585C360.468 412.299 336.752 426.239 309.857 434.78C294.857 439.543 279.732 442.372 264.69 443.392C254.817 434.556 246.413 426.337 241.266 419.885C219.155 392.163 197.588 367.219 216.424 345.129C216.951 344.516 217.497 343.896 218.088 343.284C218.088 343.284 218.042 342.938 218.025 342.285C217.988 341.3 218.051 339.624 218.441 337.378C219.087 333.798 219.402 331.046 222.916 325.069C222.916 325.069 222.647 321.95 222.503 320.828L222.384 319.784C221.775 315.393 220.791 306.749 221.187 295.162C221.201 295.073 221.141 291.675 221.161 291.605C221.562 280.569 224.735 271.178 230.867 267.83C230.925 267.812 230.976 267.774 231.028 267.736C231.318 267.581 231.634 267.438 231.975 267.309C231.975 267.309 229.483 252.712 236.039 243.415C237.155 241.85 238.513 240.443 240.18 239.277C244.613 236.193 248.898 235.787 252.49 236.472C254.634 236.873 256.561 237.662 258.104 238.51C260.789 239.949 262.417 241.533 262.417 241.533C262.417 241.533 262.064 240.69 261.598 239.289C261.31 238.383 260.955 237.264 260.635 235.987C260.313 234.773 260.032 233.419 259.784 231.97C259.413 229.668 259.187 227.15 259.307 224.587C259.389 222.841 259.619 221.092 260.084 219.416C260.307 218.581 260.581 217.773 260.919 216.965C260.966 216.844 261.012 216.723 261.078 216.596C262.062 214.416 263.499 212.389 265.532 210.704C268.27 208.433 272.088 206.754 277.357 206.036C278.03 205.95 276.682 209.392 277.386 209.338C277.386 209.338 279.544 206.106 279.76 206.653C281.192 210.294 287.087 224.849 295.69 239.309C295.69 239.309 295.696 239.328 295.702 239.347C295.837 239.771 293.552 239.86 293.82 240.306C294.139 240.841 297.145 241.754 297.483 242.284C301.048 248.028 305.043 253.657 309.337 258.427C326.749 277.836 333.02 282.212 341.162 301.636C349.303 321.06 350.693 367.077 350.693 367.077L380.195 394.617L380.163 394.585Z" fill="#EB927A"/>
<path d="M282.622 259.312C282.434 259.054 281.343 257.49 279.558 255.276C275.899 250.772 269.298 243.551 261.561 239.237C260.628 238.705 259.694 238.238 258.734 237.821C256.909 237.021 255.037 236.406 253.136 236.033C250.081 235.433 246.938 235.497 243.834 236.482C239.747 237.78 236.811 239.965 234.714 242.583C227.144 252.097 230.707 267.393 230.749 267.592C230.767 267.649 230.785 267.707 230.81 267.784L230.694 267.821C230.501 267.882 230.289 267.95 230.077 268.017C215.119 273.446 220.302 318.174 220.524 320.077C220.611 320.75 221.205 321.219 221.878 321.133C222.551 321.047 223.02 320.452 222.94 319.798C222.232 313.826 221.516 303.081 222.189 293.104C222.203 293.014 222.198 292.931 222.218 292.861C222.954 282.143 225.3 272.357 230.934 270.313C231.107 270.258 231.281 270.203 231.454 270.148C237.45 268.244 244.55 270.616 251.075 274.19C251.17 274.287 251.309 274.392 251.436 274.457C251.506 274.477 251.684 274.57 251.957 274.695C258.278 278.291 263.944 282.901 267.403 285.708C268.263 286.411 269.028 287.017 269.604 287.492C269.718 287.584 269.838 287.694 269.971 287.779C267.252 288.642 264.884 290.944 263.895 293.911C262.846 297.024 263.203 300.688 264.913 304.2C267.037 308.618 271.057 312.054 275.652 313.757C276.568 314.103 277.479 314.365 278.41 314.558C278.614 314.599 278.819 314.64 279.023 314.682C279.654 314.799 280.293 314.873 280.939 314.901C281.476 314.921 282.032 314.936 282.557 314.918C283.837 314.872 284.972 314.703 285.994 314.378C287.17 314.005 288.157 313.437 288.961 312.693C288.748 313.228 288.485 313.736 288.152 314.224C287.276 315.542 286.052 316.567 284.532 317.262C283.567 317.696 282.589 318.091 281.644 318.391C281.123 318.557 280.622 318.716 280.115 318.856C279.845 318.941 279.582 318.982 279.312 319.068C278.561 319.243 277.81 319.418 277.105 319.536C273.769 320.128 271.122 320.077 270.259 320.033L243.007 301.987C242.443 301.614 241.686 301.769 241.314 302.333C240.941 302.897 241.096 303.655 241.66 304.027L251.794 310.742C246.834 308.624 242.457 307.807 239.349 308.645C231.141 310.869 226.208 317.657 222.707 323.608C218.563 330.611 217.778 335.424 217.772 336.275C217.753 336.748 218.035 337.168 218.416 337.365C218.574 337.463 218.759 337.511 218.97 337.507C219.61 337.516 220.135 337.031 220.189 336.399C220.326 335.761 226.881 313.092 240.639 310.57C246.56 309.497 258.631 315.766 275.751 327.839C272.692 328.832 270.059 331.302 268.875 334.458C267.459 338.219 268.098 342.77 270.542 346.324C272.723 349.515 276.348 351.908 280.479 352.889C283.374 353.583 286.241 353.521 288.728 352.731C289.21 352.578 289.705 352.4 290.143 352.176C290.368 352.083 290.568 351.977 290.768 351.871C291.297 351.597 291.788 351.272 292.247 350.914C293.702 349.815 294.83 348.353 295.531 346.751C295.634 348.947 294.938 351.035 293.514 352.697C293.422 352.811 293.312 352.931 293.221 353.045C292.649 353.651 292.027 354.231 291.335 354.726C291.148 354.871 290.935 355.002 290.728 355.153C286.053 358.144 280.104 358.123 273.474 355.156L272.484 354.579C272.306 354.487 272.121 354.439 271.949 354.43C269.72 353.292 267.418 351.858 265.076 350.097C264.126 349.38 263.177 348.662 262.228 347.945C253.146 341.066 245.298 335.132 237.14 335.643C229.027 336.16 223.555 336.773 218.012 342.311C217.545 342.777 217.071 343.289 216.59 343.845C216.264 344.224 216.193 344.735 216.417 345.173C216.485 345.321 216.592 345.457 216.712 345.568C217.211 346.003 217.999 345.944 218.435 345.445C223.84 339.208 228.871 338.608 237.297 338.076C244.558 337.617 252.052 343.302 260.767 349.895C261.71 350.593 262.666 351.329 263.634 352.04C264.666 352.816 265.679 353.535 266.694 354.189C265.081 355.125 263.785 356.725 263.246 358.637C262.565 361.039 262.992 363.854 264.415 366.331C265.514 368.253 267.14 369.965 269.519 371.777C273.279 374.595 276.907 375.926 280.307 375.738C281.081 375.704 281.877 375.536 282.648 375.292C284.422 374.728 286.139 373.652 287.324 372.172C287.324 372.172 287.336 372.211 287.317 372.217C287.059 374.145 286.514 375.571 285.683 376.429C282.598 379.679 278.954 382.641 271.498 380.148C263.616 377.515 247.327 370.398 247.162 370.345C246.545 370.074 245.831 370.364 245.56 370.981C245.289 371.598 245.56 372.318 246.176 372.589C246.348 372.662 262.738 379.831 270.71 382.478C274.696 383.802 277.825 383.763 280.428 382.937C283.281 382.031 285.47 380.168 287.425 378.104C288.601 376.861 289.369 375.004 289.712 372.539C290.32 368.038 288.143 363.656 284.184 361.348L281.43 359.76C283.801 359.941 286.037 359.698 288.139 359.031C289.488 358.602 290.802 357.994 292.016 357.205C292.139 357.124 292.262 357.043 292.384 356.961C293.082 356.485 293.742 355.957 294.332 355.409C294.689 355.062 295.059 354.69 295.384 354.311C297.317 352.042 298.235 349.118 297.945 346.133C297.656 343.084 296.103 340.266 293.712 338.351C291.106 336.292 288.17 333.998 285.018 331.625C284.43 331.175 283.847 330.744 283.239 330.3C282.354 327.313 281.508 324.313 280.72 321.295C281.124 321.167 281.535 321.057 281.96 320.923L282.152 320.862C283.271 320.506 284.403 320.062 285.549 319.528C287.475 318.641 289.035 317.339 290.173 315.641C293.114 311.268 292.418 305.335 288.499 301.549C285.982 299.101 282.359 295.646 278.931 292.469C277.851 291.474 276.803 290.513 275.798 289.622C275.002 288.919 274.257 288.243 273.555 287.638C272.943 283.906 272.408 280.15 271.944 276.414C272.001 276.395 272.059 276.377 272.098 276.365C272.851 276.062 273.604 275.695 274.308 275.238C274.521 275.107 274.734 274.976 274.922 274.831C283.969 268.499 282.852 260.237 282.806 259.891C282.789 259.705 282.696 259.544 282.602 259.382L282.622 259.312ZM282.977 363.429C284.659 364.381 285.905 365.831 286.649 367.505C286.602 367.626 286.556 367.747 286.56 367.894C286.317 371.006 283.057 373.103 280.156 373.26C277.359 373.405 274.253 372.248 270.962 369.77C268.848 368.192 267.442 366.706 266.5 365.074C265.401 363.152 265.048 361.036 265.566 359.259C266.084 357.417 267.66 355.962 269.333 355.749C270.316 356.307 271.301 356.801 272.267 357.237L282.958 363.435L282.977 363.429ZM272.335 322.493C273.723 322.456 275.587 322.31 277.716 321.931C278.183 323.735 278.683 325.508 279.182 327.281C276.953 325.675 274.66 324.068 272.335 322.493ZM286.299 335.59C288.229 337.057 290.209 338.614 292.195 340.191C292.935 340.784 293.584 341.49 294.091 342.284C293.941 342.481 293.854 342.742 293.857 343.017C293.924 345.033 292.909 347.117 291.231 348.583C290.751 349.012 290.215 349.394 289.615 349.712C289.473 349.799 289.325 349.868 289.158 349.942C286.846 351.016 284.003 351.218 281.019 350.51C277.461 349.666 274.375 347.632 272.519 344.932C270.533 342.018 270.003 338.345 271.141 335.31C272.325 332.153 275.325 329.906 278.474 329.797C279.05 330.209 279.658 330.652 280.241 331.083C281.121 331.716 282.007 332.368 282.9 333.04C283.4 333.412 283.906 333.803 284.406 334.175C285.02 334.638 285.64 335.12 286.279 335.596L286.299 335.59ZM260.233 277.097C262.952 277.571 266.001 277.749 268.964 277.19C269.287 279.677 269.635 282.177 269.996 284.651C269.68 284.391 269.313 284.104 268.946 283.817C266.771 282.046 263.742 279.591 260.214 277.103L260.233 277.097ZM276.485 293.457C277.294 294.198 278.134 294.971 278.954 295.751C281.826 298.447 284.698 301.207 286.786 303.239C288.048 304.472 288.878 305.949 289.277 307.542C289.232 307.598 289.192 307.675 289.172 307.745C288.747 308.813 288.205 310.047 287.343 310.873C286.285 311.887 284.653 312.427 282.464 312.485C281.811 312.502 281.146 312.479 280.488 312.412C279.766 312.344 279.071 312.226 278.382 312.062C278.242 312.022 278.102 311.982 277.968 311.961C276.929 311.696 275.917 311.317 274.938 310.842C271.564 309.24 268.686 306.524 267.064 303.155C265.654 300.25 265.333 297.168 266.162 294.698C266.929 292.438 268.759 290.647 270.808 290.081C271.232 289.947 271.681 289.889 272.122 289.876C272.225 289.865 272.308 289.86 272.385 289.835C272.947 290.336 273.535 290.85 274.16 291.415C274.9 292.072 275.676 292.78 276.459 293.508L276.485 293.457ZM273.563 272.758C266.565 277.655 255.385 273.458 252.962 272.445C246.603 268.861 239.564 266.278 233.191 267.262C233.186 267.179 233.18 267.095 233.162 267.038C232.987 266.287 229.703 252.133 236.93 243.747C238.745 241.643 241.246 239.894 244.62 238.822C246.355 238.271 248.111 238.053 249.85 238.116C252.235 238.208 254.587 238.798 256.903 239.74C258.556 240.403 260.188 241.265 261.767 242.228C261.511 242.288 261.273 242.342 261.042 242.415C258.613 243.187 256.469 244.992 255.364 247.126C253.581 250.6 253.676 255.112 255.654 259.535C256.441 261.28 257.461 262.887 258.637 264.318C262.317 268.689 267.673 271.318 272.999 271.048C274.171 270.995 275.274 270.793 276.321 270.482C275.568 271.251 274.668 272.025 273.589 272.771L273.563 272.758ZM279.551 265.615C279.467 265.684 279.376 265.734 279.298 265.822C277.906 267.453 275.556 268.475 272.842 268.615C269.122 268.799 265.357 267.299 262.368 264.704C260.485 263.052 258.909 260.963 257.824 258.549C256.169 254.808 256.037 251.051 257.485 248.257C258.919 245.488 262.683 243.507 265.612 244.912C270.58 248.725 274.762 253.34 277.453 256.603C279.007 258.487 280.055 259.915 280.443 260.471C280.497 261.176 280.514 263.165 279.532 265.621L279.551 265.615Z" fill="#412945"/>
<path d="M295.658 239.276C292.569 238.368 289.654 236.875 287.149 234.868C282.303 231.038 278.943 225.334 277.898 219.235C277.106 214.605 277.785 210.124 279.728 206.62C279.512 206.073 279.395 205.771 279.395 205.771C278.671 205.831 277.973 205.904 277.325 206.004C275.331 209.884 274.668 214.679 275.505 219.655C276.632 226.344 280.33 232.577 285.637 236.792C289.066 239.502 293.165 241.384 297.471 242.245C296.865 241.27 296.252 240.276 295.665 239.296L295.658 239.276Z" fill="#412945"/>
<path d="M148.35 342.359C139.366 345.211 129.738 340.225 126.886 331.24C124.033 322.256 129.019 312.629 138.004 309.776C146.988 306.923 156.615 311.91 159.468 320.894C162.321 329.878 157.334 339.506 148.35 342.359ZM138.849 312.436C131.33 314.824 127.159 322.876 129.546 330.395C131.934 337.915 139.986 342.086 147.505 339.698C155.024 337.31 159.195 329.258 156.808 321.739C154.42 314.22 146.368 310.049 138.849 312.436Z" fill="#412945"/>
<path d="M216.166 107.909C206.776 110.89 196.717 105.68 193.736 96.2903C190.754 86.9011 195.965 76.842 205.354 73.8606C214.743 70.8791 224.802 76.0896 227.784 85.4788C230.765 94.868 225.555 104.927 216.166 107.909ZM206.193 76.5019C198.269 79.018 193.861 87.5276 196.377 95.4516C198.893 103.376 207.403 107.783 215.327 105.267C223.251 102.751 227.659 94.2415 225.142 86.3175C222.626 78.3936 214.136 73.9796 206.193 76.5019Z" fill="#412945"/>
<path d="M379.841 265.774C369.41 269.086 358.253 263.291 354.947 252.88C351.641 242.469 357.43 231.292 367.841 227.986C378.252 224.68 389.429 230.47 392.735 240.881C396.041 251.292 390.252 262.468 379.841 265.774ZM368.68 230.627C359.715 233.474 354.741 243.076 357.588 252.041C360.435 261.006 370.037 265.98 379.002 263.133C387.967 260.286 392.941 250.684 390.094 241.719C387.247 232.754 377.645 227.781 368.68 230.627Z" fill="#412945"/>
<path d="M193.436 264.647C200.453 262.419 204.335 254.924 202.107 247.907C199.879 240.89 192.384 237.008 185.367 239.236C178.35 241.464 174.468 248.959 176.696 255.976C178.924 262.993 186.419 266.875 193.436 264.647Z" fill="#F7EDE5"/>
<path d="M203.382 413.472C210.399 411.243 214.281 403.749 212.053 396.732C209.825 389.715 202.33 385.833 195.313 388.061C188.296 390.289 184.414 397.784 186.642 404.801C188.87 411.818 196.365 415.7 203.382 413.472Z" fill="#F7EDE5"/>
<path d="M385.016 349.514C392.033 347.286 395.915 339.791 393.687 332.774C391.459 325.757 383.964 321.875 376.948 324.103C369.931 326.331 366.048 333.826 368.277 340.843C370.505 347.86 377.999 351.742 385.016 349.514Z" fill="#F7EDE5"/>
<path d="M314.044 168.112C316.272 175.13 312.391 182.623 305.373 184.852C298.355 187.08 290.861 183.199 288.633 176.181C286.405 169.163 290.286 161.669 297.304 159.441C304.322 157.213 311.815 161.094 314.044 168.112Z" fill="#F7EDE5"/>
<path d="M160.89 357.987C161.779 358.915 161.755 359.708 160.827 360.597L136.779 383.45C135.851 384.339 135.058 384.315 134.17 383.387L118.432 366.843C117.543 365.915 117.567 365.122 118.495 364.233L122.911 360.029C123.839 359.141 124.632 359.165 125.52 360.092L134.508 369.548L138.373 365.88L132.228 359.427C131.339 358.499 131.363 357.706 132.291 356.818L136.74 352.582C137.668 351.693 138.461 351.717 139.349 352.645L145.495 359.098L152.797 352.152C153.725 351.264 154.518 351.288 155.407 352.215L160.884 357.968L160.89 357.987Z" fill="black"/>
<path d="M140.933 338.983L135.712 342.127C134.609 342.796 133.844 342.593 133.181 341.508L130.569 337.159L115.837 346.04L118.449 350.389C119.118 351.492 118.915 352.257 117.831 352.92L112.52 356.113C111.417 356.782 110.652 356.579 109.989 355.495L98.7086 336.813C98.0398 335.709 98.2427 334.945 99.3269 334.282L104.631 331.069C105.716 330.407 106.5 330.604 107.162 331.688L109.725 335.947L124.457 327.066L121.895 322.808C121.226 321.704 121.429 320.939 122.513 320.277L127.733 317.133C128.837 316.464 129.602 316.667 130.264 317.752L141.545 336.433C142.214 337.537 142.011 338.302 140.926 338.964L140.933 338.983Z" fill="black"/>
<path d="M126.731 310.702C127.117 311.917 126.749 312.628 125.534 313.014L93.8907 322.977C92.6761 323.362 91.9648 322.994 91.5791 321.779L89.969 316.709C89.565 315.436 89.6864 314.549 90.3872 313.414L98.2418 300.52L87.8501 303.82C86.6232 304.167 85.912 303.799 85.5263 302.584L83.1999 295.258C82.8335 294.037 83.2019 293.326 84.4165 292.94L116.06 282.977C117.274 282.591 117.986 282.96 118.371 284.174L120.692 291.481C121.058 292.702 120.69 293.413 119.475 293.799L113.479 295.703L105.996 307.227L122.106 302.153C123.321 301.768 124.032 302.136 124.418 303.351L126.744 310.677L126.731 310.702Z" fill="black"/>
<path d="M116.663 268.969L116.991 276.484C117.036 277.764 116.503 278.358 115.223 278.404L101.717 278.978C99.6679 279.077 97.0844 278.56 93.4489 277.338L81.6446 273.382C80.447 273.019 79.9016 272.237 79.8446 270.855L79.2481 257.079C79.1902 255.76 79.663 254.91 80.8338 254.453L92.2534 249.511C95.7749 247.968 98.3057 247.25 100.36 247.17L113.867 246.595C115.147 246.55 115.741 247.083 115.787 248.363L116.118 256.089C116.175 257.472 115.635 258.11 114.355 258.156L107.192 258.457L107.587 267.521L114.75 267.221C116.03 267.175 116.624 267.708 116.669 268.988L116.663 268.969ZM98.2484 267.388L97.9026 259.348L90.2186 262.085C89.6068 262.364 89.3718 262.693 89.3917 263.09L89.4374 264.37C89.4635 264.787 89.7279 265.085 90.3516 265.311L98.2291 267.394L98.2484 267.388Z" fill="black"/>
<path d="M116.653 240.532C116.392 241.782 115.727 242.227 114.471 241.947L82.0323 235.035C80.7822 234.774 80.3567 234.102 80.6177 232.852L82.2703 225.09C82.5313 223.84 83.2027 223.415 84.4529 223.675L109.238 228.943L110.692 222.093L102.586 220.358C101.336 220.097 100.91 219.426 101.171 218.176L102.708 210.918C102.969 209.667 103.634 209.223 104.89 209.503L120.663 212.857C121.913 213.117 122.339 213.789 122.078 215.039L116.653 240.532Z" fill="black"/>
<path d="M124.75 208.015C124.203 209.165 123.437 209.429 122.287 208.881L92.373 194.546C91.2229 193.999 90.9588 193.234 91.5062 192.083L101.767 170.658C102.314 169.508 103.079 169.244 104.229 169.791L109.636 172.382C110.787 172.93 111.051 173.695 110.503 174.845L104.404 187.585L107.956 189.28L112.268 180.27C112.816 179.12 113.581 178.855 114.731 179.403L119.668 181.783C120.818 182.33 121.082 183.095 120.535 184.245L116.222 193.255L120.2 195.155L126.318 182.409C126.866 181.259 127.631 180.995 128.781 181.542L134.188 184.133C135.338 184.681 135.602 185.446 135.055 186.596L124.795 208.022L124.75 208.015Z" fill="black"/>
<path d="M270.742 120.971C269.499 120.665 269.073 119.994 269.359 118.757L276.954 86.4625C277.24 85.2255 277.931 84.794 279.168 85.0803L295.063 88.8196C301.599 90.3524 304.075 93.4713 302.849 98.6997L302.29 101.084C301.629 103.883 300.284 105.393 298.09 105.771C302.273 107.181 303.709 110.099 302.559 114.964L301.489 119.549C300.181 125.121 296.514 127.007 289.883 125.441L270.749 120.926L270.742 120.971ZM282.167 114.711L288.658 116.237C289.946 116.55 290.695 116.036 291.009 114.684L291.472 112.733C291.785 111.381 291.342 110.652 290.035 110.345L283.544 108.82L282.161 114.692L282.167 114.711ZM285.355 101.156L289.595 102.144C290.883 102.457 291.632 101.943 291.946 100.591L292.267 99.1946C292.58 97.8429 292.137 97.0496 290.836 96.7624L286.596 95.7742L285.336 101.162L285.355 101.156Z" fill="black"/>
<path d="M316.055 137.017C304.747 131.015 303.951 125.834 306.89 120.317L315.088 104.895C318.026 99.3772 322.774 97.0844 334.082 103.087C345.39 109.089 346.109 114.294 343.17 119.811L334.972 135.234C332.034 140.751 327.363 143.019 316.055 137.017ZM320.696 128.306C323.992 130.061 324.973 129.41 325.63 128.204L332.105 116.045C332.73 114.871 332.721 113.706 329.4 111.938C326.137 110.215 325.123 110.834 324.499 112.009L318.024 124.167C317.373 125.393 317.433 126.583 320.696 128.306Z" fill="black"/>
<path d="M344.694 157.36C335.311 148.667 335.866 143.461 340.121 138.883L351.992 126.073C356.248 121.495 361.425 120.488 370.814 129.201C380.196 137.895 379.559 143.106 375.328 147.697L363.457 160.507C359.202 165.085 354.108 166.087 344.719 157.374L344.694 157.36ZM351.412 150.112C354.152 152.659 355.265 152.285 356.194 151.268L365.55 141.166C366.447 140.181 366.745 139.046 363.992 136.525C361.289 134.029 360.14 134.352 359.237 135.318L349.88 145.42C348.951 146.437 348.704 147.598 351.393 150.118L351.412 150.112Z" fill="black"/>
<path d="M364.318 178.656C363.617 177.584 363.775 176.812 364.847 176.111L385.911 162.376L381.805 156.061C381.104 154.989 381.281 154.211 382.353 153.51L387.539 150.123C388.611 149.422 389.389 149.599 390.084 150.652L404.852 173.298C405.553 174.37 405.375 175.148 404.323 175.843L399.137 179.23C398.065 179.932 397.287 179.754 396.586 178.682L392.48 172.367L371.415 186.102C370.343 186.803 369.571 186.645 368.87 185.573L364.35 178.625L364.318 178.656Z" fill="black"/>
<path d="M380.065 208.866C376.982 200.825 378.67 195.917 385.309 193.363L400.181 187.664C406.878 185.092 411.422 187.639 414.486 195.686L418.958 207.362C419.42 208.552 419.084 209.295 417.887 209.739L412.098 211.959C410.908 212.422 410.164 212.085 409.721 210.889L406.032 201.278C405.268 199.272 404.138 198.654 402.529 199.271L391.157 203.625C389.587 204.229 389.199 205.414 389.983 207.415L393.671 217.025C394.134 218.215 393.81 218.934 392.601 219.402L386.908 221.592C385.718 222.055 384.974 221.718 384.531 220.522L380.059 208.847L380.065 208.866Z" fill="black"/>
<path d="M387.093 234.607L386.228 227.135C386.079 225.867 386.581 225.24 387.85 225.092L401.281 223.544C403.306 223.304 405.937 223.636 409.634 224.585L421.694 227.674C422.905 227.947 423.509 228.711 423.668 230.082L425.251 243.757C425.399 245.09 424.99 245.941 423.869 246.488L412.834 252.242C409.431 254.023 406.961 254.934 404.93 255.155L391.499 256.703C390.23 256.851 389.604 256.349 389.456 255.081L388.567 247.404C388.408 246.033 388.891 245.349 390.166 245.22L397.292 244.4L396.256 235.391L389.13 236.21C387.862 236.358 387.235 235.857 387.087 234.588L387.093 234.607ZM405.566 234.833L406.488 242.817L413.937 239.539C414.511 239.208 414.746 238.879 414.681 238.475L414.533 237.206C414.488 236.796 414.191 236.53 413.56 236.348L405.547 234.839L405.566 234.833Z" fill="black"/>
<path d="M389.576 262.747C389.792 261.489 390.432 261.032 391.703 261.222L424.424 266.686C425.681 266.903 426.139 267.542 425.948 268.813L424.585 276.95C424.41 278.003 423.896 278.591 422.674 279.021L413.685 282.194C413.023 282.447 412.74 282.558 412.676 282.96L412.606 283.407C412.543 283.809 412.777 284.01 413.301 284.459L420.792 290.337C421.804 291.119 422.101 291.853 421.926 292.906L420.555 301.088C420.339 302.345 419.705 302.822 418.428 302.612L385.707 297.148C384.45 296.932 383.992 296.292 384.183 295.021L385.49 287.242C385.707 285.92 386.34 285.507 387.617 285.717L405.391 288.69L400.374 284.787C399.31 283.978 398.983 283.148 399.207 281.846L399.542 279.829C399.766 278.528 400.351 277.832 401.605 277.434L407.616 275.377L389.841 272.404C388.584 272.188 388.126 271.548 388.317 270.278L389.576 262.747Z" fill="black"/>
<path d="M381.146 302.968C381.687 301.799 382.433 301.541 383.596 302.063L413.689 316.023C414.858 316.564 415.116 317.31 414.594 318.474L408.007 332.684C404.092 341.143 399.251 341.938 393.874 339.443L387.925 336.683C382.53 334.195 380.024 329.981 383.958 321.516L386.44 316.165L378.725 312.587C377.555 312.046 377.297 311.3 377.819 310.137L381.159 302.943L381.146 302.968ZM394.824 319.976L392.883 324.158C392.038 325.975 392.928 326.839 394.142 327.387L396.608 328.536C397.822 329.084 399.055 329.223 399.9 327.406L401.84 323.224L394.824 319.976Z" fill="black"/>
</svg>
