<svg width="503" height="426" viewBox="0 0 503 426" fill="none" xmlns="http://www.w3.org/2000/svg">
<path d="M233.476 425.439C233.789 425.439 234.102 425.439 234.415 425.397L306.316 419.957L490.439 419.957C497.339 419.957 502.947 414.35 502.947 407.451L502.947 202.017C502.947 134.359 469.466 71.8907 413.242 34.3306C412.241 32.809 411.157 31.4334 409.969 30.1411C405.966 25.8265 400.567 22.4915 393.937 20.2612C390.602 19.1357 387.016 18.2811 383.034 17.6975C357.225 6.23352 329.749 0.439011 301.313 0.439011C298.415 0.439011 295.476 0.501541 292.578 0.647446C281.3 1.106 269.855 2.56505 258.639 4.9829C246.86 7.52582 235.248 11.1734 224.012 15.8424C212.942 11.2777 201.205 8.98487 189.072 8.98487C138.309 8.98487 97.0108 50.2759 97.0108 101.03C97.0108 116.308 100.784 131.253 107.997 144.614C102.473 163.227 99.6793 182.528 99.6793 202.08V211.959L14.873 202.246C14.3935 202.184 13.914 202.163 13.4554 202.163C10.0781 202.163 6.8468 203.518 4.47021 205.977C1.76007 208.77 0.509277 212.668 1.09299 216.503L25.505 381.376C26.2972 386.733 30.4458 390.964 35.7827 391.881L99.7001 402.761V407.514C99.7001 414.413 105.308 420.02 112.208 420.02H200.705L231.35 425.314C232.059 425.439 232.768 425.502 233.476 425.502V425.439Z" fill="white"/>
<path d="M110.77 202.038L110.77 407.472L489.021 407.472L489.021 202.038C489.021 97.6114 404.361 12.9449 299.896 12.9449C297.165 12.9449 294.455 13.0074 291.744 13.1325C280.862 13.5702 270.209 14.9667 259.869 17.197C223.699 24.9925 191.386 43.1263 166.161 68.3262C131.951 102.551 110.77 149.824 110.77 202.038Z" fill="#4DEADA"/>
<path d="M245.109 45.4193L318.574 58.7175L291.744 13.1326C280.861 13.5703 270.209 14.9668 259.868 17.1971L245.109 45.4193Z" fill="#FF80AD"/>
<path d="M295.997 30.0159C291.724 30.266 287.033 30.7663 284.094 33.8719C281.759 36.3315 281.071 39.9791 281.217 43.3558C281.425 47.7537 282.926 52.0892 285.47 55.6743C279.799 57.1542 274.129 59.6137 270.355 64.1159C264.08 71.5988 264.81 83.3128 270.314 91.4001C275.817 99.4874 285.094 104.281 294.559 106.616C304.566 109.075 315.99 108.825 324.183 102.572C329.874 98.216 333.293 91.5044 335.69 84.7511C339.86 72.9744 341.444 60.3224 340.339 47.8788C339.735 41.188 337.4 30.4744 329.457 29.2864C318.867 27.7231 306.65 29.3906 295.997 30.0159Z" fill="#1E1E1E"/>
<path d="M190.261 407.472L489.022 407.472V267.174C484.957 258.795 479.662 250.687 472.699 243.204C445.034 213.397 393.938 196.368 392.333 191.574C392.103 190.907 391.978 189.511 391.916 187.572C391.457 175.608 393.521 143.738 393.521 143.738L330.583 143.155C330.583 143.155 330.271 148.136 329.812 154.973C329.228 163.373 328.415 174.608 327.623 182.716C327.373 185.363 327.123 187.656 326.873 189.448C326.706 190.699 325.997 191.949 324.85 193.221C315.24 203.934 274.317 215.482 257.681 224.048C239.043 233.616 226.806 246.914 209.232 287.892C194.618 322.013 191.053 386.753 190.261 407.472Z" fill="#FEA394"/>
<path d="M327.622 182.716C331.145 184.3 335.335 183.841 339.15 182.945C357.767 178.568 370.108 166.229 376.842 148.345C361.853 153.785 345.717 156.036 329.811 154.973C329.227 163.373 328.414 174.608 327.622 182.716Z" fill="#1E1E1E"/>
<path d="M291.808 81.5827C291.828 81.2492 291.87 80.8949 291.891 80.5614C292.579 72.8493 295.31 65.3247 299.375 58.7382C299.813 58.0295 300.272 57.3208 300.751 56.6121C306.401 48.3581 314.364 41.7298 323.516 37.707C330.312 34.7264 337.713 33.184 345.135 33.184C370.798 33.184 392.249 51.172 397.586 75.2046C397.816 75.4964 398.024 75.7882 398.17 76.1008C404.904 90.6496 390.727 156.64 390.727 156.64L316.199 160.726C305.796 160.913 296.144 150.262 295.456 139.882C295.081 134.275 294.726 128.668 294.351 123.061C293.892 115.954 293.809 108.784 293.017 101.718C292.621 98.195 291.891 94.7767 291.683 91.2124C291.516 88.0025 291.537 84.7926 291.787 81.5827H291.808Z" fill="#FEA394"/>
<path d="M407.822 106.47C414.347 108.471 419.309 114.62 420.247 121.373C421.164 128.147 418.162 135.234 412.846 139.528C407.53 143.822 400.151 145.301 393.5 143.717C391.04 143.134 388.622 142.112 386.787 140.362C379.574 133.504 384.765 122.895 387.892 115.433C391.061 107.887 399.859 104.01 407.801 106.47H407.822Z" fill="#FEA394"/>
<path d="M354.885 109.451C354.885 113.036 357.783 115.933 361.368 115.933C364.954 115.933 367.852 113.036 367.852 109.451C367.852 105.866 364.954 102.969 361.368 102.969C357.783 102.969 354.885 105.866 354.885 109.451Z" fill="#1E1E1E"/>
<path d="M305.038 109.451C305.038 113.036 307.936 115.933 311.522 115.933C315.108 115.933 318.005 113.036 318.005 109.451C318.005 105.866 315.108 102.969 311.522 102.969C307.936 102.969 305.038 105.866 305.038 109.451Z" fill="#1E1E1E"/>
<path d="M330.578 95.7778L325.283 118.768C324.657 121.499 326.909 124.042 329.682 123.75L344.4 122.207L330.557 95.7778H330.578Z" fill="#F13470"/>
<path d="M346.13 128.669C344.462 130.962 341.856 132.567 339.041 133.004C336.227 133.442 333.267 132.713 330.974 131.045" stroke="#1E1E1E" stroke-width="0.75" stroke-linecap="round" stroke-linejoin="round"/>
<path d="M367.707 93.0887C364.288 89.2327 358.326 87.9404 353.615 90.0247" stroke="#1E1E1E" stroke-linecap="round" stroke-linejoin="round"/>
<path d="M302.872 93.0886C306.291 89.2325 312.253 87.9402 316.965 90.0246" stroke="#1E1E1E" stroke-linecap="round" stroke-linejoin="round"/>
<path d="M414.18 112.223C411.887 111.764 409.552 112.681 407.572 113.932C399.879 118.726 395.96 127.939 394.793 136.943" stroke="#1E1E1E" stroke-linecap="round" stroke-linejoin="round"/>
<path d="M410.157 107.616C401.714 111.639 390.019 109.159 381.617 105.032C377.823 103.177 374.383 100.488 372.028 96.9861C366.92 89.4407 367.525 79.4566 369.13 70.473C357.893 74.3499 345.26 73.808 334.732 68.2845C330.396 66.0125 326.331 62.8652 324.058 58.5297C321.807 54.2776 321.473 49.3168 321.473 44.502C321.473 39.7705 321.786 35.0599 322.37 30.3701C322.432 29.8907 322.974 30.3701 323.412 30.2242C324.204 29.9532 324.85 30.4117 324.475 30.1199C338.505 29.2028 351.285 28.64 365.336 28.9735C373.153 29.1611 381.096 29.5572 388.497 32.0792C392.541 33.4549 396.461 35.4976 399.379 38.6241C404.132 43.7308 405.612 51.0052 406.676 57.8835C409.073 73.412 410.074 91.8794 410.178 107.595L410.157 107.616Z" fill="#1E1E1E"/>
<path d="M395.586 103.343C395.002 104.365 394.523 105.449 394.043 106.532C391.833 111.452 389.644 116.371 387.435 121.29C385.308 113.369 383.411 105.782 381.848 97.7365C385.767 99.5499 391.354 102.364 395.586 103.343Z" fill="#1E1E1E"/>
<path d="M190.26 407.472L489.021 407.472L489.021 267.174C484.956 258.795 479.661 250.687 472.698 243.204C459.105 228.551 439.822 216.962 423.561 208.437L422.227 207.728C406.028 199.307 393.124 193.951 392.332 191.574C392.102 190.907 391.977 189.511 391.915 187.572C374.841 201.433 358.559 216.295 343.195 232.053C337.087 219.109 330.979 206.165 324.849 193.221C322.077 196.306 316.677 199.474 310.006 202.621C309.652 202.788 309.277 202.955 308.922 203.143C292.557 210.688 269.25 218.087 257.68 224.049C239.043 233.616 226.805 246.914 209.231 287.892C208.335 289.998 207.48 292.207 206.667 294.521C206.563 294.812 206.458 295.083 206.375 295.375C200.329 312.842 196.493 335.687 194.096 356.655C193.262 363.909 192.595 370.933 192.053 377.436C191.803 380.709 191.573 383.856 191.365 386.816V386.878C190.823 394.861 190.489 401.615 190.302 406.388V406.451C190.281 406.805 190.281 407.138 190.26 407.472Z" fill="#FFDDDD"/>
<path d="M328.477 407.472H329.519C329.519 407.326 329.519 407.097 329.54 406.805C329.54 406.096 329.54 404.95 329.582 403.408C329.769 387.921 330.708 333.623 334.293 301.274C337.754 270.321 338.755 264.089 338.984 262.839C339.026 262.672 339.046 262.609 339.046 262.568C339.13 262.38 339.109 262.151 338.942 261.984C338.796 261.838 338.609 261.796 338.442 261.838H338.421H338.4C338.338 261.838 338.275 261.901 338.213 261.963C338.192 261.963 338.15 262.067 338.129 262.192C338.129 262.192 338.122 262.206 338.108 262.234C338.067 262.359 338.025 262.547 337.983 262.776C337.962 262.839 337.962 262.901 337.942 262.964C337.254 266.507 335.69 279.305 333.272 301.128C329.686 333.394 328.727 387.4 328.539 403.178C328.498 404.887 328.498 406.138 328.498 406.868C328.477 407.118 328.477 407.326 328.477 407.451V407.472Z" fill="#4DEADA"/>
<path d="M423.561 208.437C423.561 208.437 423.415 208.562 423.31 208.583L388.245 215.399L399.211 246.226C399.274 246.372 399.253 246.539 399.149 246.685C399.065 246.831 398.898 246.914 398.732 246.914C398.252 246.914 349.532 248.936 338.984 262.839C338.963 262.88 338.921 262.901 338.9 262.943C338.796 263.068 338.65 263.151 338.483 263.151C338.379 263.151 338.275 263.109 338.171 263.047C338.087 262.984 338.025 262.901 337.983 262.797C337.941 262.651 337.962 262.463 338.066 262.317C338.087 262.317 338.108 262.276 338.108 262.255C338.212 262.13 338.296 262.005 338.4 261.901L338.442 261.838C349.22 248.623 391.727 246.185 398.002 245.893L387.057 215.169C386.995 215.023 387.015 214.857 387.099 214.732C387.161 214.607 387.286 214.502 387.453 214.481L422.226 207.728L423.561 208.437Z" fill="#4DEADA"/>
<path d="M298.166 220.818C298.166 221.047 298.27 221.235 298.458 221.339C316.011 229.968 330.312 245.059 337.65 262.734C337.713 262.88 337.817 262.963 337.942 262.984C338.005 263.026 338.067 263.047 338.13 263.047H338.171C338.171 263.047 338.297 263.047 338.338 263.005C338.609 262.901 338.734 262.609 338.609 262.338C338.547 262.192 338.484 262.026 338.401 261.88C331.063 244.538 317.116 229.697 299.979 220.943C302.565 219.901 305.587 218.046 308.527 216.274C311.862 214.231 315.302 212.147 317.991 211.251C318.137 211.188 318.262 211.084 318.304 210.917C318.367 210.75 318.346 210.584 318.242 210.459C315.907 207.228 313.092 204.789 310.007 202.642C309.653 202.809 309.277 202.976 308.923 203.163C311.925 205.206 314.698 207.499 316.991 210.5C314.301 211.522 311.091 213.481 307.985 215.378C304.649 217.399 301.189 219.505 298.52 220.38C298.312 220.463 298.187 220.63 298.166 220.839V220.818Z" fill="#4DEADA"/>
<path d="M232.059 412.932L339.797 404.804L196.222 376.206L42.3495 380.208L232.059 412.932Z" fill="#FF80AD"/>
<path d="M223.427 411.328L194.596 235.534L12.037 214.648L36.4491 379.5L223.427 411.328Z" fill="#1E1E1E"/>
<path d="M86.9826 307.381C87.7748 320.429 95.9052 330.559 105.161 329.997C114.397 329.434 121.255 318.387 120.463 305.339C119.671 292.291 111.541 282.161 102.284 282.723C93.0282 283.286 86.1904 294.333 86.9826 307.381Z" fill="#FFDDDD"/>
<path d="M223.782 377.478C223.782 377.478 222.364 381.751 225.908 383.523C229.452 385.294 253.239 384.94 253.239 384.94C253.239 384.94 242.941 386.357 242.586 388.838C242.461 389.651 248.861 391.818 257.7 394.382C275.9 399.656 293.328 400.906 302.209 402.49C304.815 402.97 311.173 405.45 316.052 407.472H329.477L329.519 407.368L329.727 407.472L488.312 407.472C472.739 403.803 382.22 382.543 330.248 370.787C329.894 370.704 329.561 370.62 329.227 370.537C309.172 365.993 295.079 362.929 293.683 362.929C290.159 362.929 257.513 365.118 235.873 367.64C224.949 368.911 220.009 370.079 219.884 371.267C219.529 374.81 223.782 377.478 223.782 377.478Z" fill="#FEA394"/>
<path d="M187.655 21.4492C231.58 21.4492 267.208 57.05 267.208 100.988C267.208 119.998 260.537 137.444 249.405 151.117C259.432 167.896 272.316 182.945 287.388 195.368C267.792 188.635 249.008 178.881 231.705 167.208C219.093 175.608 203.937 180.527 187.655 180.527C143.73 180.527 108.102 144.926 108.102 100.988C108.102 57.0708 143.709 21.4492 187.655 21.4492Z" fill="#FFCD40"/>
<path d="M140.668 91.1723C140.668 90.3594 140.897 89.4215 141.377 88.3585C141.856 87.2954 142.357 86.5659 142.919 86.1699C143.983 86.9411 145.046 87.3371 146.13 87.3371L147.422 87.1287C148.923 86.691 149.695 85.4821 149.757 83.5436V72.9134H146.422C145.942 72.9134 145.609 72.3089 145.421 71.1208C145.338 70.5372 145.296 69.9328 145.296 69.3283C145.296 68.7238 145.338 68.1194 145.421 67.5358C145.609 66.3477 145.942 65.7432 146.422 65.7432H156.345C156.908 65.7432 157.325 65.91 157.596 66.2226C157.867 66.5353 158.013 66.9313 158.013 67.369V87.0662C158.013 89.7967 157.096 91.8602 155.282 93.2775C153.468 94.6949 151.279 95.4036 148.736 95.4036C146.192 95.4036 144.212 95.0284 142.794 94.278C141.377 93.5277 140.668 92.5063 140.668 91.1932V91.1723Z" fill="#1E1E1E"/>
<path d="M174.086 95.341C170.187 95.341 166.998 94.0696 164.538 91.5058C162.078 88.9421 160.848 85.2111 160.848 80.3128C160.848 75.4146 162.099 71.6836 164.579 69.1615C167.06 66.6395 170.292 65.368 174.211 65.368C178.13 65.368 181.32 66.6186 183.738 69.099C186.156 71.5794 187.365 75.3521 187.365 80.3962C187.365 85.4403 186.135 89.1922 183.655 91.6517C181.174 94.1113 177.984 95.341 174.086 95.341ZM174.107 73.3719C172.772 73.3719 171.647 73.9764 170.75 75.2062C169.854 76.4359 169.395 78.1451 169.395 80.3545C169.395 82.5639 169.833 84.2523 170.688 85.4403C171.542 86.6284 172.689 87.212 174.086 87.212C175.483 87.212 176.629 86.6076 177.505 85.4195C178.38 84.2314 178.818 82.5222 178.818 80.292C178.818 78.0617 178.359 76.3525 177.463 75.1645C176.546 73.9555 175.441 73.3719 174.107 73.3719Z" fill="#1E1E1E"/>
<path d="M193.453 87.754V72.9134H190.492C190.013 72.9134 189.679 72.3089 189.492 71.1208C189.408 70.5372 189.367 69.9327 189.367 69.3283C189.367 68.7238 189.408 68.1193 189.492 67.5357C189.679 66.3476 190.013 65.7432 190.492 65.7432H204.523C205.002 65.7432 205.315 66.3476 205.482 67.5357C205.586 68.1193 205.648 68.7238 205.648 69.3283C205.648 69.9327 205.586 70.5372 205.482 71.1208C205.315 72.3089 205.002 72.9134 204.523 72.9134H201.729V87.754H204.648C205.127 87.754 205.461 88.3584 205.648 89.5465C205.753 90.1301 205.815 90.7346 205.815 91.3391C205.815 91.9435 205.753 92.548 205.648 93.1316C205.461 94.3197 205.127 94.9242 204.648 94.9242H190.597C190.117 94.9242 189.804 94.3197 189.638 93.1316C189.533 92.548 189.471 91.9435 189.471 91.3391C189.471 90.7346 189.533 90.1301 189.638 89.5465C189.804 88.3584 190.117 87.754 190.597 87.754H193.474H193.453Z" fill="#1E1E1E"/>
<path d="M231.457 94.007C231.457 94.5906 230.144 94.8824 227.538 94.8824C224.932 94.8824 223.514 94.674 223.285 94.2571L216.322 81.2507V94.2154C216.322 94.7157 215.029 94.9658 212.465 94.9658C209.901 94.9658 208.609 94.7157 208.609 94.2154V66.3059C208.609 65.889 209.713 65.6806 211.902 65.6806C212.757 65.6806 213.779 65.764 214.925 65.9099C216.072 66.0558 216.781 66.3476 217.031 66.7644L223.702 79.6249V66.5352C223.702 66.0141 224.994 65.7431 227.579 65.7431C230.165 65.7431 231.457 66.0141 231.457 66.5352V94.0278V94.007Z" fill="#1E1E1E"/>
<path d="M172.501 109.39C172.501 108.827 174.003 108.556 177.025 108.556C180.048 108.556 181.549 108.827 181.549 109.39V128.545C181.549 131.38 180.528 133.693 178.505 135.486C176.483 137.278 173.669 138.175 170.104 138.175C166.539 138.175 163.621 137.258 161.39 135.402C159.159 133.547 158.034 131.067 158.034 127.92V109.431C158.034 108.869 159.535 108.598 162.557 108.598C165.58 108.598 167.081 108.869 167.081 109.431V128.253C167.081 128.816 167.373 129.254 167.957 129.587C168.561 129.921 169.208 130.087 169.875 130.087C170.542 130.087 171.146 129.941 171.688 129.629C172.23 129.316 172.501 128.858 172.501 128.253V109.39Z" fill="#1E1E1E"/>
<path d="M186.135 127.565C186.656 127.982 187.574 128.545 188.866 129.274C190.159 130.004 191.389 130.358 192.577 130.358C193.765 130.358 194.349 129.899 194.349 128.982C194.349 128.565 194.182 128.19 193.849 127.878C193.515 127.565 192.911 127.19 192.014 126.773C191.118 126.356 190.451 126.023 190.013 125.793C189.575 125.564 188.971 125.168 188.241 124.626C187.511 124.084 186.948 123.521 186.552 122.938C185.447 121.354 184.884 119.332 184.884 116.893C184.884 114.454 185.802 112.391 187.615 110.703C189.429 109.014 191.827 108.18 194.766 108.18C196.767 108.18 198.623 108.389 200.311 108.827C202 109.264 202.876 109.827 202.938 110.515V110.765C202.938 111.745 202.625 112.974 202.021 114.454C201.416 115.934 200.978 116.768 200.728 116.935C198.956 116.018 197.351 115.559 195.954 115.559C194.558 115.559 193.849 116.059 193.849 117.06C193.849 117.664 194.37 118.206 195.391 118.686C195.621 118.79 195.933 118.957 196.35 119.144C196.767 119.332 197.247 119.561 197.789 119.832C198.331 120.103 198.915 120.436 199.54 120.832C200.165 121.228 200.833 121.77 201.562 122.437C203.042 123.834 203.772 125.668 203.772 127.94C203.772 130.921 202.959 133.359 201.312 135.235C199.665 137.132 197.143 138.091 193.724 138.153C192.056 138.153 190.555 138.008 189.2 137.737C187.845 137.466 186.677 136.924 185.677 136.111C184.676 135.298 184.176 134.339 184.176 133.193C184.176 132.046 184.384 130.921 184.801 129.795C185.218 128.67 185.656 127.919 186.135 127.565Z" fill="#1E1E1E"/>
<path d="M207.004 131.504C207.004 131.317 208.296 131.213 210.861 131.213C213.425 131.213 214.717 131.296 214.717 131.463V137.466C214.717 137.737 213.425 137.883 210.861 137.883C208.296 137.883 207.004 137.799 207.004 137.632V131.504ZM213.883 128.982C213.883 129.149 212.883 129.232 210.902 129.232C208.922 129.232 207.921 129.17 207.921 129.024L207.087 108.451C207.087 108.222 208.359 108.118 210.902 108.118C213.446 108.118 214.717 108.222 214.717 108.41L213.883 128.982Z" fill="#1E1E1E"/>
<path d="M437.966 201.871C417.978 201.871 401.775 185.67 401.775 165.686C401.775 145.702 417.978 129.502 437.966 129.502C457.953 129.502 474.156 145.702 474.156 165.686C474.156 185.67 457.953 201.871 437.966 201.871Z" fill="#FFCD40"/>
<path d="M231.266 217.129L162.595 186.259C162.595 186.259 160.99 225.112 185.485 234.158C209.96 243.204 231.266 217.129 231.266 217.129Z" fill="#F13470"/>
<path d="M446.639 358.135L489.021 337.02V310.236C480.537 307.527 471.01 306.902 462.441 311.925C439.926 325.16 446.639 358.135 446.639 358.135Z" fill="#F13470"/>
<path d="M277.296 170.001L264.663 176.192L279.214 176.671L286.448 189.365L287.47 174.92L299.645 167.583L285.531 168.084L277.859 154.389L277.296 170.001Z" fill="white"/>
<path d="M267.707 43.3556L255.094 49.5253L269.646 50.0047L276.88 62.7192L277.88 48.2538L290.055 40.9169L275.962 41.4171L268.27 27.7438L267.707 43.3556Z" fill="white"/>
<path d="M428.46 88.2732L417.932 84.6465L425.792 93.0881L422.727 104.26L431.4 96.7357L442.323 99.4662L434.151 91.8166L437.529 79.8524L428.46 88.2732Z" fill="white"/>
<path d="M135.829 189.01L121.861 187.593L133.952 195.68L133.39 210.292L141.895 198.557L156.092 198.744L143.855 191.72L144.564 176.046L135.829 189.01Z" fill="white"/>
<path d="M246.735 299.877L232.746 298.46L244.858 306.568L244.295 321.179L252.78 309.423L266.998 309.632L254.761 302.608L255.449 286.933L246.735 299.877Z" fill="white"/>
<path d="M455.625 215.19L442.157 219.254L456.438 222.089L461.524 235.783L464.881 221.693L478.077 216.42L464.068 214.627L458.71 199.891L455.625 215.19Z" fill="white"/>
</svg>
