<svg width="548" height="548" viewBox="0 0 548 548" fill="none" xmlns="http://www.w3.org/2000/svg">
<path d="M279.612 271.76L287.158 278.014C287.967 278.677 287.402 279.993 286.369 279.873L276.724 278.74C276.376 278.692 276.015 278.84 275.794 279.11L269.104 287.179C268.453 287.956 267.185 287.462 267.251 286.428L267.921 276.805C267.941 276.484 267.814 276.167 267.576 275.957L259.984 268.995C259.241 268.301 259.8 267.055 260.811 267.186L270.989 268.358C271.343 268.389 271.698 268.257 271.925 267.971L278.291 260.1C278.937 259.285 280.243 259.828 280.161 260.856L279.236 270.847C279.205 271.2 279.348 271.523 279.612 271.76Z" fill="white"/>
<path d="M203.249 476.835C91.1882 438.063 31.5501 315.326 70.3272 203.249C109.104 91.1715 231.836 31.5497 343.897 70.3212C455.958 109.093 515.596 231.83 476.825 343.891C438.053 455.952 315.316 515.59 203.255 476.819L203.249 476.835Z" fill="white"/>
<path d="M207.758 463.803C312.821 500.154 427.459 444.451 463.809 339.388C500.16 234.325 444.457 119.687 339.394 83.3364C234.331 46.9861 119.693 102.689 83.3425 207.752C46.9922 312.815 102.695 427.453 207.758 463.803Z" fill="#4DEADA"/>
<path d="M214.462 200.392C240.123 200.413 260.942 179.626 260.962 153.965C260.982 128.304 240.196 107.485 214.534 107.465C188.873 107.444 168.054 128.231 168.034 153.892C168.014 179.553 188.8 200.372 214.462 200.392Z" fill="#6E72FF"/>
<path d="M370.663 361.992C394.914 370.383 421.375 357.525 429.765 333.274C438.155 309.024 425.298 282.563 401.047 274.172C376.796 265.782 350.335 278.639 341.945 302.89C333.554 327.141 346.412 353.602 370.663 361.992Z" fill="#6E72FF"/>
<path d="M159.394 409.253C183.645 417.643 210.106 404.786 218.497 380.535C226.887 356.284 214.03 329.823 189.779 321.433C165.528 313.042 139.067 325.9 130.677 350.151C122.286 374.401 135.144 400.862 159.394 409.253Z" fill="#6E72FF"/>
<path d="M372.209 137.389L181.246 128.701L167.935 421.425L358.898 430.114L372.209 137.389ZM189.929 151.725C190.143 146.844 194.312 143.059 199.204 143.294C204.102 143.513 207.893 147.666 207.663 152.542C207.444 157.439 203.291 161.23 198.393 161.011C193.512 160.798 189.705 156.639 189.924 151.742L189.929 151.725ZM188.403 185.463C188.622 180.565 192.792 176.78 197.673 176.993C202.571 177.212 206.362 181.365 206.143 186.263C205.929 191.144 201.77 194.951 196.873 194.732C191.992 194.519 188.19 190.344 188.403 185.463ZM186.861 219.194C187.074 214.313 191.25 210.511 196.131 210.725C201.028 210.943 204.814 215.113 204.6 219.994C204.382 224.892 200.228 228.683 195.331 228.464C190.45 228.251 186.642 224.092 186.861 219.194ZM185.335 252.931C185.554 248.034 189.724 244.249 194.605 244.462C199.502 244.681 203.293 248.834 203.074 253.732C202.861 258.613 198.708 262.404 193.8 262.163C188.919 261.95 185.111 257.791 185.341 252.915L185.335 252.931ZM183.793 286.663C184.012 281.766 188.181 277.98 193.063 278.193C197.96 278.412 201.751 282.566 201.532 287.463C201.313 292.361 197.16 296.152 192.262 295.933C187.381 295.72 183.574 291.56 183.793 286.663ZM182.272 320.384C182.491 315.487 186.645 311.696 191.536 311.931C196.434 312.15 200.225 316.303 199.99 321.195C199.771 326.092 195.617 329.883 190.726 329.648C185.828 329.429 182.037 325.276 182.272 320.384ZM180.724 354.132C180.943 349.235 185.113 345.449 189.994 345.662C194.892 345.881 198.683 350.035 198.464 354.932C198.251 359.813 194.097 363.604 189.189 363.364C184.308 363.15 180.501 358.991 180.73 354.116L180.724 354.132ZM187.657 397.117C182.776 396.904 178.969 392.745 179.188 387.847C179.401 382.966 183.576 379.164 188.458 379.378C193.355 379.597 197.14 383.766 196.927 388.647C196.708 393.545 192.555 397.336 187.657 397.117Z" fill="#F7EDE5"/>
<path d="M360.169 175.504L216.101 168.959C215.633 168.943 215.278 168.547 215.294 168.079C215.31 167.611 215.706 167.256 216.174 167.272L360.243 173.818C360.711 173.834 361.066 174.23 361.05 174.698C361.033 175.166 360.637 175.521 360.169 175.504Z" fill="#B5E1E8"/>
<path d="M359.274 194.941L215.205 188.396C214.737 188.38 214.382 187.984 214.398 187.516C214.415 187.048 214.811 186.693 215.279 186.709L359.347 193.254C359.815 193.271 360.17 193.667 360.154 194.135C360.138 194.603 359.742 194.957 359.274 194.941Z" fill="#B5E1E8"/>
<path d="M358.4 214.367L214.331 207.822C213.863 207.806 213.508 207.41 213.525 206.942C213.541 206.474 213.937 206.119 214.405 206.135L358.474 212.681C358.942 212.697 359.296 213.093 359.28 213.561C359.264 214.029 358.868 214.384 358.4 214.367Z" fill="#B5E1E8"/>
<path d="M357.521 233.81L213.452 227.265C212.984 227.249 212.629 226.853 212.645 226.385C212.661 225.917 213.057 225.562 213.525 225.578L357.594 232.123C358.062 232.139 358.417 232.535 358.401 233.003C358.385 233.471 357.989 233.826 357.521 233.81Z" fill="#B5E1E8"/>
<path d="M356.625 253.247L212.556 246.702C212.088 246.685 211.734 246.289 211.75 245.821C211.766 245.353 212.162 244.999 212.63 245.015L356.699 251.56C357.167 251.576 357.522 251.972 357.505 252.44C357.489 252.908 357.093 253.263 356.625 253.247Z" fill="#B5E1E8"/>
<path d="M355.746 272.689L211.677 266.144C211.209 266.128 210.854 265.732 210.871 265.264C210.887 264.796 211.283 264.441 211.751 264.457L355.82 271.002C356.288 271.019 356.642 271.415 356.626 271.883C356.61 272.351 356.214 272.705 355.746 272.689Z" fill="#B5E1E8"/>
<path d="M354.85 292.126L210.782 285.581C210.313 285.565 209.959 285.169 209.975 284.701C209.991 284.233 210.387 283.878 210.855 283.894L354.924 290.439C355.392 290.455 355.747 290.851 355.73 291.319C355.714 291.787 355.318 292.142 354.85 292.126Z" fill="#B5E1E8"/>
<path d="M353.971 311.569L209.902 305.023C209.434 305.007 209.079 304.611 209.096 304.143C209.112 303.675 209.508 303.32 209.976 303.337L354.045 309.882C354.513 309.898 354.868 310.294 354.851 310.762C354.835 311.23 354.439 311.585 353.971 311.569Z" fill="#B5E1E8"/>
<path d="M353.092 331.011L209.023 324.466C208.555 324.45 208.2 324.054 208.216 323.586C208.232 323.118 208.628 322.763 209.097 322.779L353.165 329.324C353.633 329.34 353.988 329.736 353.972 330.204C353.956 330.672 353.56 331.027 353.092 331.011Z" fill="#B5E1E8"/>
<path d="M352.196 350.448L208.127 343.903C207.659 343.886 207.304 343.49 207.321 343.022C207.337 342.554 207.733 342.2 208.201 342.216L352.269 348.761C352.738 348.777 353.092 349.173 353.076 349.641C353.06 350.109 352.664 350.464 352.196 350.448Z" fill="#B5E1E8"/>
<path d="M351.322 369.874L207.254 363.329C206.786 363.313 206.431 362.917 206.447 362.449C206.463 361.981 206.859 361.626 207.327 361.642L351.396 368.187C351.864 368.203 352.219 368.599 352.203 369.067C352.186 369.535 351.79 369.89 351.322 369.874Z" fill="#B5E1E8"/>
<path d="M350.443 389.316L206.374 382.771C205.906 382.755 205.551 382.359 205.568 381.891C205.584 381.423 205.98 381.068 206.448 381.084L350.517 387.63C350.985 387.646 351.339 388.042 351.323 388.51C351.307 388.978 350.911 389.333 350.443 389.316Z" fill="#B5E1E8"/>
<path d="M349.547 408.753L205.479 402.208C205.011 402.192 204.656 401.796 204.672 401.328C204.688 400.86 205.084 400.505 205.552 400.521L349.621 407.066C350.089 407.083 350.444 407.479 350.427 407.947C350.411 408.415 350.015 408.769 349.547 408.753Z" fill="#B5E1E8"/>
<path d="M106.712 269.467L144.842 249.45L146.182 250.369L146.222 248.726L152.652 245.358L251.075 432.903L244.672 436.244L243.507 435.822L243.287 436.985L205.14 456.996L106.712 269.467Z" fill="#FC9D29"/>
<path d="M213.305 443.663C213.46 443.953 213.336 444.311 213.052 444.449L204.524 448.931C204.234 449.086 203.876 448.962 203.732 448.693C203.588 448.425 203.701 448.045 203.969 447.901L212.491 443.436C212.782 443.281 213.14 443.405 213.278 443.69L213.305 443.663Z" fill="#1E1E1E"/>
<path d="M146.254 248.721L144.867 249.449L243.304 436.983L244.691 436.255L146.254 248.721Z" fill="#1E1E1E"/>
<path d="M208.568 434.664C208.722 434.954 208.599 435.312 208.314 435.451L199.786 439.932C199.496 440.087 199.138 439.963 198.994 439.695C198.84 439.404 198.963 439.047 199.232 438.903L207.759 434.421C208.05 434.266 208.408 434.39 208.546 434.675L208.568 434.664Z" fill="#1E1E1E"/>
<path d="M206.935 424.062C207.09 424.352 206.966 424.71 206.681 424.848L195.081 430.945C194.791 431.1 194.433 430.976 194.289 430.707C194.134 430.417 194.258 430.059 194.526 429.915L206.127 423.818C206.417 423.664 206.775 423.788 206.913 424.072L206.935 424.062Z" fill="#1E1E1E"/>
<path d="M199.13 416.662C199.284 416.952 199.161 417.31 198.892 417.454L190.365 421.936C190.074 422.09 189.716 421.966 189.572 421.698C189.418 421.408 189.542 421.05 189.81 420.906L198.338 416.424C198.628 416.269 198.986 416.393 199.124 416.678L199.13 416.662Z" fill="#1E1E1E"/>
<path d="M194.408 407.668C194.563 407.959 194.439 408.317 194.171 408.461L185.643 412.943C185.353 413.097 184.995 412.973 184.857 412.689C184.702 412.398 184.826 412.04 185.094 411.896L193.622 407.415C193.912 407.26 194.27 407.384 194.414 407.652L194.408 407.668Z" fill="#1E1E1E"/>
<path d="M189.687 398.675C189.841 398.966 189.718 399.324 189.449 399.468L180.922 403.949C180.631 404.104 180.273 403.98 180.129 403.712C179.985 403.443 180.099 403.064 180.367 402.92L188.895 398.438C189.185 398.283 189.543 398.407 189.681 398.692L189.687 398.675Z" fill="#1E1E1E"/>
<path d="M184.965 389.682C185.12 389.973 184.996 390.33 184.728 390.474L176.2 394.956C175.91 395.111 175.552 394.987 175.413 394.702C175.259 394.412 175.383 394.054 175.667 393.916L184.195 389.434C184.485 389.279 184.843 389.403 184.987 389.672L184.965 389.682Z" fill="#1E1E1E"/>
<path d="M184.97 378.189C185.125 378.48 185.001 378.838 184.733 378.982L171.468 385.941C171.177 386.096 170.82 385.972 170.676 385.704C170.521 385.413 170.645 385.055 170.913 384.912L184.178 377.952C184.469 377.797 184.826 377.921 184.97 378.189Z" fill="#1E1E1E"/>
<path d="M175.528 371.68C175.682 371.97 175.558 372.328 175.29 372.472L166.762 376.954C166.472 377.108 166.114 376.985 165.97 376.716C165.816 376.426 165.939 376.068 166.224 375.93L174.752 371.448C175.042 371.293 175.4 371.417 175.544 371.685L175.528 371.68Z" fill="#1E1E1E"/>
<path d="M170.79 362.681C170.944 362.971 170.821 363.329 170.552 363.473L162.025 367.955C161.734 368.11 161.376 367.986 161.232 367.718C161.078 367.427 161.202 367.069 161.47 366.925L169.998 362.443C170.288 362.289 170.646 362.413 170.79 362.681Z" fill="#1E1E1E"/>
<path d="M166.068 353.688C166.223 353.978 166.099 354.336 165.814 354.475L157.286 358.956C156.996 359.111 156.638 358.987 156.494 358.719C156.34 358.429 156.464 358.071 156.732 357.927L165.254 353.461C165.544 353.306 165.902 353.43 166.046 353.699L166.068 353.688Z" fill="#1E1E1E"/>
<path d="M161.347 344.695C161.501 344.985 161.377 345.343 161.109 345.487L152.581 349.969C152.291 350.124 151.933 350 151.789 349.731C151.635 349.441 151.758 349.083 152.027 348.939L160.554 344.457C160.845 344.303 161.203 344.427 161.347 344.695Z" fill="#1E1E1E"/>
<path d="M161.593 333.085C161.747 333.375 161.623 333.733 161.355 333.877L147.865 340.96C147.575 341.114 147.217 340.99 147.079 340.706C146.924 340.415 147.048 340.058 147.316 339.914L160.806 332.831C161.096 332.677 161.454 332.8 161.598 333.069L161.593 333.085Z" fill="#1E1E1E"/>
<path d="M151.909 326.693C152.063 326.983 151.94 327.341 151.655 327.479L143.133 331.945C142.843 332.099 142.485 331.975 142.341 331.707C142.197 331.439 142.31 331.059 142.578 330.915L151.106 326.433C151.396 326.278 151.754 326.402 151.898 326.671L151.909 326.693Z" fill="#1E1E1E"/>
<path d="M147.187 317.699C147.342 317.99 147.218 318.348 146.933 318.486L138.406 322.968C138.115 323.122 137.757 322.999 137.613 322.73C137.459 322.44 137.583 322.082 137.851 321.938L146.379 317.456C146.669 317.302 147.027 317.425 147.171 317.694L147.187 317.699Z" fill="#1E1E1E"/>
<path d="M142.465 308.706C142.62 308.997 142.496 309.355 142.212 309.493L133.684 313.975C133.394 314.129 133.036 314.006 132.892 313.737C132.737 313.447 132.861 313.089 133.129 312.945L141.657 308.463C141.947 308.308 142.305 308.432 142.444 308.717L142.465 308.706Z" fill="#1E1E1E"/>
<path d="M137.75 299.697C137.904 299.987 137.78 300.345 137.496 300.484L128.968 304.965C128.678 305.12 128.32 304.996 128.176 304.728C128.021 304.438 128.145 304.08 128.43 303.941L136.957 299.459C137.248 299.305 137.606 299.429 137.744 299.713L137.75 299.697Z" fill="#1E1E1E"/>
<path d="M137.508 288.337C137.663 288.628 137.539 288.986 137.271 289.13L124.246 295.972C123.956 296.127 123.598 296.003 123.454 295.735C123.3 295.444 123.424 295.086 123.708 294.948L136.732 288.105C137.023 287.951 137.381 288.075 137.524 288.343L137.508 288.337Z" fill="#1E1E1E"/>
<path d="M128.29 281.705C128.445 281.996 128.321 282.353 128.053 282.497L119.525 286.979C119.235 287.134 118.877 287.01 118.733 286.742C118.578 286.451 118.702 286.093 118.97 285.949L127.498 281.468C127.788 281.313 128.146 281.437 128.29 281.705Z" fill="#1E1E1E"/>
<path d="M123.568 272.712C123.723 273.002 123.599 273.36 123.315 273.499L114.787 277.981C114.497 278.135 114.139 278.011 114 277.727C113.846 277.436 113.97 277.078 114.238 276.934L122.76 272.469C123.05 272.314 123.408 272.438 123.552 272.706L123.568 272.712Z" fill="#1E1E1E"/>
<path d="M258.872 271.579C249.619 263.678 242.495 252.888 240.138 240.852C237.802 228.913 240.817 216.039 248.833 206.771C256.848 197.503 268.572 193.999 279.999 196.878C285.363 198.224 290.367 201.03 293.994 205.236C297.933 209.805 300 215.676 300.608 221.606C302.105 236.078 295.001 249.395 287.523 261.217C286.475 262.877 285.417 264.514 284.352 266.168L284.895 265.81C277.938 266.7 270.945 267.432 264.008 268.474C261.641 268.84 259.048 269.491 257.479 271.444C256.198 273.041 256.268 275.05 257.475 276.67C258.622 278.197 260.888 279.126 262.376 277.51C262.933 276.901 262.563 275.862 261.652 276.021C257.496 276.714 254.732 281.806 256.709 285.623C258.685 289.44 264.415 290.202 267.389 287.187C268.061 286.508 267.378 285.325 266.447 285.75C264.077 286.861 263.346 289.923 264.43 292.211C265.675 294.827 268.72 296.081 271.433 296.401C276.631 297.015 281.862 294.216 284.865 290.064C286.596 287.693 287.598 284.797 287.523 281.857L286.604 282.668C289.713 283.106 292.886 281.362 294.154 278.486C295.422 275.609 294.311 271.872 291.774 269.938L292.146 270.705C293.081 266.055 287.59 261.969 283.377 263.881C282.364 264.333 283.12 265.887 284.132 265.436C287.306 264.002 291.101 267.301 290.432 270.604C290.369 270.891 290.589 271.204 290.805 271.37C292.77 272.851 293.592 275.686 292.532 277.961C291.472 280.235 289.054 281.275 286.722 280.96C286.287 280.901 285.792 281.331 285.803 281.772C285.937 287.228 282.115 292.063 277.134 293.983C274.591 294.961 271.715 295.114 269.162 294.121C267.747 293.577 266.294 292.564 265.815 291.051C265.385 289.663 265.839 287.98 267.208 287.343L266.266 285.905C264.079 288.118 259.777 287.759 258.252 284.9C256.728 282.041 258.91 278.26 261.97 277.734L261.247 276.245C260.365 277.215 259.215 276.325 258.654 275.421C257.793 274.012 258.402 272.674 259.664 271.763C261.075 270.739 262.935 270.417 264.626 270.164C267.02 269.826 269.413 269.543 271.812 269.244C274.211 268.944 276.768 268.608 279.26 268.304C280.399 268.17 281.528 268.014 282.667 267.88C283.545 267.765 285.122 267.892 285.762 267.202C286.484 266.432 287.008 265.284 287.574 264.386C288.25 263.327 288.926 262.268 289.608 261.192C290.911 259.111 292.182 257.018 293.393 254.887C297.748 247.194 301.359 238.916 302.276 230.053C303.029 222.771 302.027 215.084 298.393 208.634C291.455 196.306 275.768 191.68 262.618 195.728C248.26 200.161 239.202 214.387 237.797 228.875C236.341 243.983 243.381 258.806 253.866 269.356C255.147 270.655 256.489 271.884 257.88 273.076C258.721 273.804 259.69 272.373 258.86 271.666L258.872 271.579Z" fill="#1E1E1E"/>
<path d="M264.177 268.988C264.941 260.199 264.622 251.326 263.223 242.627C262.664 239.191 261.88 235.295 259.329 232.718C256.912 230.278 253.382 230.004 250.519 231.856C244.547 235.691 245.325 244.34 249.868 248.954C254.835 254.025 262.853 253.228 268.159 249.107C275.008 243.79 275.881 234.054 272.989 226.405C272.815 225.962 272.223 225.83 271.834 226.005C266.324 228.507 264.519 234.987 265.419 240.545C265.928 243.708 267.179 246.728 268.572 249.596C269.966 252.465 271.697 255.414 273.56 258.135C275.74 261.312 278.189 264.291 280.88 267.043C281.644 267.836 282.958 266.724 282.178 265.926C276.721 260.322 272.162 253.753 269.059 246.559C267.616 243.199 266.525 239.507 266.981 235.821C267.412 232.363 269.334 229.02 272.574 227.554L271.418 227.155C273.718 233.251 273.457 240.903 268.967 245.98C265.134 250.32 257.966 252.558 252.81 249.189C248.038 246.081 245.775 238.248 250.44 234.032C252.827 231.871 256.226 231.735 258.391 234.27C260.557 236.804 261.068 240.223 261.555 243.343C262.88 251.78 263.153 260.364 262.414 268.87C262.325 269.969 264.034 270.086 264.128 268.971L264.177 268.988Z" fill="#1E1E1E"/>
<path d="M388.664 150.114C388.664 150.114 405.072 133.439 421.682 148.877C438.291 164.315 423.237 180.711 423.237 180.711L388.664 150.114Z" fill="#F8BDFF"/>
<path d="M425.265 180.43L328.279 277.049L306.08 264.34L295.703 246.05L389.311 148.243L425.243 180.44L425.265 180.43Z" fill="#FFCD40"/>
<path d="M426.892 180.519L389.562 146.308L378.756 157.27L389.132 166.926L305.509 256.146C305.167 256.501 305.193 257.057 305.554 257.382C305.598 257.415 305.624 257.443 305.668 257.476C306.024 257.709 306.499 257.654 306.791 257.336L390.42 168.1L404.104 180.832L317.752 266.302C317.416 266.641 317.404 267.202 317.743 267.538C317.781 267.587 317.84 267.626 317.883 267.659C318.224 267.886 318.693 267.848 318.995 267.552L405.397 182.044L415.87 191.789L426.898 180.502L426.892 180.519Z" fill="#1E1E1E"/>
<path d="M328.279 277.049L305.994 279.066L298.051 275.225L294.695 265.866L295.72 246.055C296.033 245.781 301.318 241.088 304.705 244.464C308.188 247.928 307.115 255.663 307.115 255.663C307.115 255.663 315.03 251.425 318.783 255.529C322.537 259.633 319.661 266.416 319.661 266.416C319.661 266.416 326.379 264.059 329.003 266.479C334.315 271.395 328.295 277.054 328.295 277.054L328.279 277.049Z" fill="white"/>
<path d="M305.994 279.066L293.961 280.149L294.695 265.866C297.167 266.248 299.802 267.743 301.3 269.099C304.016 271.569 305.641 275.137 305.975 278.805C305.98 278.897 305.984 278.99 305.989 279.082L305.994 279.066Z" fill="#1E1E1E"/>
<path d="M233.775 153.415C233.735 157.427 233.689 161.455 233.649 165.467C233.631 166.572 235.355 166.695 235.363 165.568C235.403 161.556 235.448 157.528 235.489 153.516C235.507 152.411 233.782 152.288 233.775 153.415Z" fill="#1E1E1E"/>
<path d="M234.918 153.482C236.183 152.299 238.63 152.599 239.373 154.241C240.117 155.882 238.809 157.925 237.091 158.151C235.984 158.296 236.336 159.966 237.421 159.832C238.996 159.648 240.523 161.397 240.173 162.933C239.761 164.703 237.299 165.236 236 164.149C235.153 163.437 234.184 164.869 235.02 165.559C237.242 167.403 241.149 166.167 241.818 163.339C242.487 160.51 239.872 157.801 237.081 158.129L237.41 159.81C240.234 159.439 242.135 156.052 240.901 153.458C239.667 150.863 235.837 150.194 233.762 152.135C232.953 152.894 234.071 154.191 234.88 153.433L234.918 153.482Z" fill="#1E1E1E"/>
<path d="M247.076 153.353L247.433 165.591C247.469 166.696 249.177 166.814 249.146 165.692L248.79 153.455C248.753 152.349 247.045 152.232 247.076 153.353Z" fill="#1E1E1E"/>
<path d="M259.568 151.628C255.86 153.606 252.336 157.104 253.019 161.658C253.571 165.383 257.3 168.24 260.858 166.119C262.513 165.125 263.661 163.281 263.155 161.321L262.256 162.34C265.033 162.317 267.488 164.751 267.374 167.554C267.34 168.653 269.048 168.77 269.088 167.655C269.234 163.971 266.087 160.587 262.363 160.61C261.835 160.609 261.312 161.066 261.464 161.629C261.86 163.168 260.636 164.494 259.221 164.951C257.5 165.504 255.927 164.468 255.188 162.918C253.156 158.736 256.895 154.984 260.319 153.144C261.299 152.627 260.544 151.073 259.563 151.59L259.568 151.628Z" fill="#1E1E1E"/>
<path d="M281.642 155.275C282.466 160.37 283.306 165.47 284.125 170.58C284.308 171.682 285.995 171.336 285.805 170.251C284.981 165.157 284.141 160.057 283.322 154.946C283.139 153.844 281.453 154.19 281.642 155.275Z" fill="#1E1E1E"/>
<path d="M290.727 154.867C290.954 159.372 291.164 163.871 291.391 168.376C291.413 168.839 291.691 169.245 292.202 169.294C292.627 169.332 293.137 168.962 293.121 168.483C292.894 163.978 292.684 159.478 292.457 154.973C292.435 154.51 292.157 154.104 291.646 154.055C291.221 154.018 290.711 154.387 290.727 154.867Z" fill="#1E1E1E"/>
<path d="M292.186 154.916C295.213 154.907 298.068 157.607 297.946 160.698C297.824 163.789 294.724 166.378 291.629 166.054C290.52 165.943 290.419 167.657 291.528 167.768C294.677 168.092 297.737 166.145 299.043 163.318C300.349 160.491 299.337 157.044 296.971 154.987C295.682 153.867 293.991 153.172 292.276 153.18C291.182 153.184 291.059 154.909 292.175 154.894L292.186 154.916Z" fill="#1E1E1E"/>
<path d="M301.8 158.297L301.493 169.084C301.459 170.184 303.183 170.307 303.207 169.185L303.514 158.398C303.548 157.299 301.824 157.176 301.8 158.297Z" fill="#1E1E1E"/>
<path d="M303.74 157.693C303.74 157.693 303.806 157.607 303.839 157.563C303.939 157.434 303.751 157.66 303.834 157.58C303.916 157.499 303.977 157.429 304.054 157.364C304.213 157.219 304.41 157.123 304.554 156.973C304.433 157.058 304.499 157.026 304.554 156.973C304.597 156.951 304.641 156.93 304.669 156.903C304.762 156.844 304.85 156.802 304.953 156.765C305.057 156.728 305.145 156.685 305.249 156.648C305.293 156.627 305.336 156.606 305.375 156.601C305.435 156.585 305.413 156.596 305.293 156.627C305.314 156.616 305.353 156.611 305.375 156.601C305.56 156.538 305.757 156.496 305.97 156.461C306.068 156.44 306.182 156.425 306.275 156.42C306.406 156.411 306.324 156.437 306.259 156.415C306.307 156.432 306.389 156.405 306.428 156.4C306.645 156.403 306.841 156.416 307.053 156.435C307.102 156.452 307.135 156.463 307.189 156.464C307.292 156.481 307.004 156.418 307.157 156.452C307.27 156.492 307.374 156.509 307.488 156.549C307.911 156.695 308.441 156.478 308.582 156.017C308.724 155.555 308.512 155.063 308.05 154.922C305.962 154.272 303.645 155.019 302.286 156.735C301.999 157.091 302.134 157.702 302.507 157.94C302.928 158.195 303.398 158.103 303.712 157.72L303.74 157.693Z" fill="#1E1E1E"/>
<path d="M302.045 163.592L306.571 162.516C307.007 162.412 307.361 161.97 307.246 161.511C307.142 161.074 306.7 160.721 306.241 160.835L301.716 161.911C301.279 162.015 300.925 162.457 301.04 162.916C301.144 163.353 301.586 163.706 302.045 163.592Z" fill="#1E1E1E"/>
<path d="M300.493 169.394C302.333 169.921 304.39 169.504 305.847 168.241C306.188 167.94 306.26 167.363 305.937 167.033C305.614 166.703 305.092 166.631 304.729 166.943C304.575 167.072 304.433 167.168 304.284 167.281C304.191 167.34 304.427 167.185 304.284 167.281C304.241 167.302 304.197 167.324 304.147 167.361C304.076 167.409 303.989 167.452 303.907 167.478C303.819 167.521 303.731 167.563 303.644 167.606C303.578 167.638 303.425 167.658 303.37 167.712C303.398 167.685 303.512 167.67 303.414 167.69C303.37 167.712 303.316 167.711 303.272 167.732C303.174 167.753 303.076 167.774 302.994 167.8C302.814 167.847 302.623 167.872 302.437 167.881C302.405 167.87 302.361 167.891 302.323 167.896C302.399 167.886 302.503 167.849 302.323 167.896C302.23 167.9 302.122 167.899 302.029 167.903C301.849 167.896 301.653 167.883 301.463 167.853C301.414 167.837 301.366 167.82 301.327 167.825C301.208 167.802 301.545 167.882 301.344 167.83C301.246 167.796 301.159 167.785 301.062 167.751C300.633 167.621 300.108 167.822 299.967 168.283C299.837 168.711 300.038 169.236 300.499 169.378L300.493 169.394Z" fill="#1E1E1E"/>
<path d="M311.386 155.548L311.604 167.974L313.304 167.852C312.611 165.59 311.838 163.191 312.198 160.783C312.456 159.088 313.554 157.336 315.2 156.685C317.126 155.912 318.934 157.266 319.764 158.974C320.769 161.071 320.349 163.549 319.97 165.749C319.778 166.831 321.508 166.937 321.684 165.851C322.057 163.721 322.365 161.459 321.747 159.351C321.197 157.466 319.888 155.72 318.001 155.013C314.255 153.626 310.991 157.214 310.495 160.65C310.123 163.199 310.878 165.755 311.629 168.165C311.897 169.022 313.345 169.104 313.329 168.042L313.111 155.616C313.091 154.516 311.366 154.393 311.397 155.515L311.386 155.548Z" fill="#1E1E1E"/>
<path d="M312.945 166.416L319.621 162.441C320.016 162.195 320.228 161.74 320.021 161.286C319.83 160.892 319.277 160.646 318.866 160.886C316.641 162.211 314.415 163.536 312.19 164.861C311.795 165.107 311.583 165.562 311.79 166.016C311.982 166.41 312.534 166.656 312.945 166.416Z" fill="#1E1E1E"/>
<path d="M330.242 154.912L329.995 153.57C329.95 153.281 329.713 153.017 329.437 152.921C326.768 152.053 323.871 154.53 324.046 157.286C324.152 158.981 325.478 160.204 326.879 160.999C328.204 161.749 329.897 162.28 330.791 163.591C331.176 164.162 331.31 164.827 330.814 165.366C330.495 165.711 329.925 166.042 329.587 165.597C328.927 164.713 327.608 165.842 328.289 166.715C329.276 168.022 331.127 167.569 332.097 166.502C333.266 165.231 332.981 163.474 331.917 162.232C330.778 160.891 329.097 160.327 327.637 159.439C326.458 158.74 325.376 157.655 325.964 156.219C326.423 155.103 327.68 154.154 328.906 154.559L328.347 153.911L328.594 155.253C328.783 156.338 330.479 156.015 330.274 154.923L330.242 154.912Z" fill="#1E1E1E"/>
<path d="M219.527 180.801C223.317 182.641 227.501 183.396 231.683 183.732C235.458 184.036 239.274 184.118 243.052 184.095C249.657 184.067 256.411 183.289 262.029 179.531L260.629 179.046C262.978 186.526 272.421 186.824 278.911 186.756C289.534 186.642 300.152 186.545 310.775 186.432C316.769 186.374 322.748 186.311 328.743 186.254C329.843 186.234 329.96 184.526 328.844 184.54C318.793 184.633 308.752 184.748 298.701 184.841C293.637 184.892 288.573 184.944 283.526 185.001C279.47 185.037 275.334 185.3 271.297 184.65C267.672 184.07 263.551 182.553 262.348 178.712C262.138 178.056 261.52 177.842 260.949 178.228C255.562 181.847 248.848 182.403 242.549 182.391C235.101 182.383 226.982 182.525 220.139 179.191C219.142 178.701 218.596 180.334 219.576 180.818L219.527 180.801Z" fill="#1E1E1E"/>
<path d="M219.568 311.1C218.53 314.257 219.857 317.74 222.839 319.336C226.297 321.188 230.433 319.395 233.427 317.48C237.512 314.886 241.257 311.117 246.414 311.062C250.966 311.015 255.179 313.475 259.114 315.474C263.05 317.473 266.714 319.306 270.969 319.539C275.224 319.773 279.739 318.675 284.023 317.771C286.086 317.337 288.176 316.931 290.285 316.731C293.255 316.466 295.819 316.952 298.657 317.806C303.871 319.373 308.989 321.217 314.249 322.6C325.317 325.518 336.933 325.694 348.152 323.491C349.243 323.285 348.903 321.583 347.822 321.81C338.116 323.698 328.091 323.819 318.401 321.814C313.486 320.805 308.702 319.205 303.934 317.665C299.66 316.277 295.513 314.678 290.963 314.98C282.573 315.539 274.31 319.73 265.965 316.733C258.884 314.192 251.899 307.95 243.882 309.639C239.205 310.626 235.839 314.143 231.843 316.477C229.695 317.737 226.877 318.985 224.366 318.134C221.725 317.238 220.392 314.245 221.243 311.68C221.603 310.638 219.96 310.07 219.616 311.117L219.568 311.1Z" fill="#1E1E1E"/>
<path d="M306.102 102.531L313.648 108.785C314.457 109.447 313.892 110.764 312.859 110.643L303.214 109.51C302.866 109.463 302.505 109.611 302.284 109.881L295.594 117.95C294.943 118.726 293.675 118.233 293.741 117.199L294.411 107.576C294.431 107.255 294.304 106.938 294.066 106.728L286.474 99.7658C285.731 99.0714 286.29 97.8256 287.301 97.9568L297.479 99.1285C297.833 99.1597 298.188 99.0276 298.414 98.7417L304.781 90.8707C305.427 90.0559 306.733 90.5988 306.651 91.6269L305.726 101.618C305.695 101.971 305.838 102.294 306.102 102.531Z" fill="white"/>
<path d="M408.582 323.577L416.128 329.831C416.937 330.494 416.372 331.81 415.339 331.69L405.694 330.557C405.346 330.509 404.985 330.658 404.764 330.927L398.074 338.996C397.423 339.773 396.155 339.279 396.221 338.246L396.891 328.622C396.911 328.301 396.784 327.984 396.546 327.774L388.954 320.812C388.211 320.118 388.77 318.872 389.781 319.003L399.959 320.175C400.313 320.206 400.668 320.074 400.894 319.788L407.261 311.917C407.907 311.102 409.213 311.645 409.131 312.673L408.206 322.664C408.175 323.017 408.318 323.34 408.582 323.577Z" fill="white"/>
<path d="M326.596 391.267L334.142 397.521C334.951 398.183 334.386 399.5 333.353 399.379L323.708 398.246C323.36 398.199 322.999 398.347 322.778 398.617L316.088 406.686C315.437 407.462 314.169 406.969 314.235 405.935L314.905 396.312C314.925 395.991 314.798 395.674 314.56 395.464L306.968 388.502C306.225 387.807 306.783 386.562 307.795 386.693L317.973 387.864C318.327 387.896 318.682 387.764 318.908 387.478L325.275 379.607C325.921 378.792 327.227 379.335 327.145 380.363L326.22 390.353C326.189 390.707 326.332 391.03 326.596 391.267Z" fill="#6E72FF"/>
<path d="M134.124 212.77L141.67 219.024C142.479 219.687 141.914 221.003 140.881 220.883L131.236 219.75C130.888 219.702 130.527 219.851 130.306 220.12L123.616 228.189C122.965 228.966 121.697 228.472 121.763 227.439L122.433 217.815C122.453 217.494 122.326 217.177 122.088 216.968L114.496 210.005C113.753 209.311 114.312 208.065 115.323 208.196L125.501 209.368C125.855 209.399 126.21 209.267 126.436 208.981L132.803 201.11C133.449 200.295 134.755 200.838 134.673 201.866L133.748 211.857C133.717 212.211 133.86 212.533 134.124 212.77Z" fill="white"/>
</svg>
