<svg width="94" height="95" viewBox="0 0 94 95" fill="none" xmlns="http://www.w3.org/2000/svg">
<path d="M29.5984 94.04C26.8984 94.04 24.6084 92.29 23.9084 89.68L19.6484 73.86L3.54839 66.87C1.19839 65.85 -0.221613 63.45 0.0283872 60.9C0.278387 58.35 2.11839 56.26 4.61839 55.71L21.5284 51.97L27.3384 35.89C28.1884 33.53 30.3684 32 32.8784 32C35.5984 32 37.9584 33.84 38.6084 36.49L42.6584 53L58.1584 58.81C60.6284 59.74 62.1584 62.12 61.9684 64.75C61.7784 67.38 59.9284 69.52 57.3484 70.08L41.3784 73.58L35.1184 90.22C34.2484 92.54 32.0784 94.04 29.6084 94.04H29.5984Z" fill="white"/>
<path d="M40.2083 56.35L56.7483 62.55C58.5183 63.21 58.3283 65.77 56.4883 66.17L39.3983 69.92C38.7683 70.06 38.2583 70.5 38.0283 71.1L31.3683 88.81C30.7183 90.53 28.2483 90.41 27.7683 88.64L23.2483 71.84C23.0983 71.28 22.7083 70.83 22.1783 70.6L5.13829 63.21C3.45829 62.48 3.68829 60.02 5.47829 59.63L23.5183 55.64C24.1483 55.5 24.6683 55.04 24.8883 54.43L31.0883 37.26C31.7283 35.5 34.2583 35.63 34.7083 37.45L39.0283 55.04C39.1783 55.65 39.6183 56.14 40.1983 56.36L40.2083 56.35Z" fill="#FEBD03"/>
<path d="M72.1081 40.0517C70.365 40.0517 68.8867 38.922 68.4348 37.237L65.6846 27.0239L55.2908 22.5113C53.7737 21.8528 52.8569 20.3035 53.0183 18.6572C53.1797 17.011 54.3676 15.6617 55.9815 15.3067L66.8983 12.8922L70.6491 2.5113C71.1978 0.987736 72.6052 0 74.2256 0C75.9816 0 77.5051 1.18787 77.9248 2.89865L80.5394 13.5572L90.5458 17.308C92.1404 17.9084 93.1281 19.4448 93.0055 21.1427C92.8828 22.8406 91.6885 24.2221 90.0229 24.5836L79.713 26.8432L75.6717 37.5856C75.11 39.0834 73.7091 40.0517 72.1145 40.0517H72.1081Z" fill="white"/>
<path d="M78.9577 15.7198L89.6356 19.7224C90.7783 20.1485 90.6556 21.8012 89.4677 22.0594L78.4348 24.4804C78.0281 24.5707 77.6988 24.8548 77.5504 25.2421L73.2508 36.6753C72.8312 37.7857 71.2366 37.7083 70.9267 36.5656L68.0087 25.7199C67.9119 25.3583 67.6601 25.0678 67.3179 24.9193L56.3173 20.1485C55.2327 19.6772 55.3812 18.0891 56.5368 17.8373L68.183 15.2615C68.5897 15.1711 68.9254 14.8741 69.0674 14.4803L73.07 3.39574C73.4832 2.25952 75.1165 2.34345 75.407 3.5184L78.1959 14.8741C78.2928 15.2679 78.5768 15.5843 78.9513 15.7263L78.9577 15.7198Z" fill="#F2A0FF"/>
</svg>
