<svg width="104" height="105" viewBox="0 0 104 105" fill="none" xmlns="http://www.w3.org/2000/svg">
<path d="M32.945 104.04C29.9579 104.04 27.4244 102.104 26.65 99.2163L21.937 81.714L4.12493 73.9807C1.52504 72.8522 -0.0459599 70.197 0.230625 67.3759C0.507209 64.5547 2.54287 62.2425 5.30871 61.634L24.0169 57.4963L30.4447 39.7064C31.3851 37.0954 33.7969 35.4027 36.5738 35.4027C39.5831 35.4027 42.194 37.4384 42.9131 40.3702L47.3938 58.6358L64.542 65.0636C67.2747 66.0925 68.9674 68.7256 68.7572 71.6353C68.547 74.5449 66.5003 76.9125 63.6459 77.5321L45.9777 81.4042L39.052 99.8137C38.0895 102.38 35.6888 104.04 32.9561 104.04H32.945Z" fill="white"/>
<path d="M44.6835 62.3419L62.9824 69.2011C64.9406 69.9313 64.7304 72.7635 62.6947 73.2061L43.7874 77.3549C43.0904 77.5097 42.5262 77.9965 42.2717 78.6603L34.9035 98.2536C34.1844 100.156 31.4517 100.024 30.9207 98.0655L25.9201 79.479C25.7541 78.8595 25.3226 78.3616 24.7363 78.1072L5.88428 69.9313C4.02563 69.1237 4.28009 66.4021 6.26043 65.9706L26.2188 61.5564C26.9158 61.4015 27.4911 60.8925 27.7344 60.2177L34.5937 41.2219C35.3018 39.2747 38.1008 39.4185 38.5987 41.4321L43.3781 60.8925C43.544 61.5674 44.0308 62.1095 44.6725 62.3529L44.6835 62.3419Z" fill="#FEBD03"/>
<path d="M79.9779 44.3107C78.0495 44.3107 76.4139 43.0608 75.9139 41.1967L72.8713 29.8976L61.3722 24.9051C59.6938 24.1766 58.6796 22.4625 58.8582 20.6412C59.0367 18.8199 60.3509 17.3272 62.1365 16.9344L74.2141 14.2631L78.3637 2.77835C78.9708 1.09277 80.5279 0 82.3206 0C84.2633 0 85.9488 1.31418 86.4131 3.20689L89.3057 14.9988L100.376 19.1485C102.14 19.8127 103.233 21.5126 103.097 23.391C102.962 25.2694 101.64 26.7978 99.7977 27.1978L88.3915 29.6976L83.9204 41.5824C83.2991 43.2394 81.7492 44.3107 79.985 44.3107H79.9779Z" fill="white"/>
<path d="M87.5575 17.3918L99.3709 21.82C100.635 22.2914 100.499 24.1198 99.1852 24.4055L86.979 27.0839C86.529 27.1839 86.1648 27.4981 86.0005 27.9267L81.2437 40.5756C80.7795 41.8041 79.0154 41.7184 78.6725 40.4542L75.4442 28.4552C75.3371 28.0552 75.0585 27.7338 74.68 27.5695L62.5095 22.2914C61.3096 21.77 61.4739 20.013 62.7524 19.7345L75.6371 16.8847C76.087 16.7847 76.4584 16.4562 76.6155 16.0205L81.0438 3.75717C81.5009 2.50013 83.3079 2.59298 83.6293 3.89287L86.7147 16.4562C86.8219 16.8918 87.1361 17.2418 87.5504 17.3989L87.5575 17.3918Z" fill="#F2A0FF"/>
</svg>
