<svg width="104" height="105" viewBox="0 0 104 105" fill="none" xmlns="http://www.w3.org/2000/svg">
<path d="M71.0688 104.04C74.0559 104.04 76.5894 102.104 77.3638 99.2163L82.0768 81.714L99.8889 73.9807C102.489 72.8522 104.06 70.197 103.783 67.3759C103.507 64.5547 101.471 62.2425 98.7051 61.634L79.9969 57.4963L73.5691 39.7064C72.6287 37.0954 70.2169 35.4027 67.44 35.4027C64.4307 35.4027 61.8198 37.4384 61.1007 40.3702L56.62 58.6358L39.4718 65.0636C36.7391 66.0925 35.0464 68.7256 35.2566 71.6353C35.4668 74.5449 37.5135 76.9125 40.3679 77.5321L58.0361 81.4042L64.9618 99.8137C65.9243 102.38 68.325 104.04 71.0577 104.04H71.0688Z" fill="white"/>
<path d="M59.3303 62.3419L41.0314 69.2011C39.0732 69.9313 39.2834 72.7635 41.3191 73.2061L60.2264 77.3549C60.9234 77.5097 61.4876 77.9965 61.7421 78.6603L69.1103 98.2536C69.8294 100.156 72.5621 100.024 73.0931 98.0655L78.0937 79.479C78.2597 78.8595 78.6912 78.3616 79.2775 78.1072L98.1295 69.9313C99.9882 69.1237 99.7337 66.4021 97.7534 65.9706L77.795 61.5564C77.098 61.4015 76.5227 60.8925 76.2793 60.2177L69.4201 41.2219C68.712 39.2747 65.913 39.4185 65.4151 41.4321L60.6357 60.8925C60.4698 61.5674 59.983 62.1095 59.3413 62.3529L59.3303 62.3419Z" fill="#FEBD03"/>
<path d="M24.0359 44.3107C25.9643 44.3107 27.5999 43.0608 28.0999 41.1967L31.1425 29.8976L42.6415 24.9051C44.32 24.1766 45.3342 22.4625 45.1556 20.6412C44.9771 18.8199 43.6629 17.3272 41.8773 16.9344L29.7997 14.2631L25.6501 2.77835C25.043 1.09277 23.4859 0 21.6932 0C19.7505 0 18.0649 1.31418 17.6007 3.20689L14.7081 14.9988L3.63753 19.1485C1.87339 19.8127 0.780617 21.5126 0.916321 23.391C1.05202 25.2694 2.37335 26.7978 4.21606 27.1978L15.6223 29.6976L20.0934 41.5824C20.7147 43.2394 22.2646 44.3107 24.0288 44.3107H24.0359Z" fill="white"/>
<path d="M16.4563 17.3918L4.64293 21.82C3.37875 22.2914 3.51445 24.1198 4.82863 24.4055L17.0348 27.0839C17.4848 27.1839 17.849 27.4981 18.0133 27.9267L22.77 40.5756C23.2343 41.8041 24.9984 41.7184 25.3413 40.4542L28.5696 28.4552C28.6767 28.0552 28.9553 27.7338 29.3338 27.5695L41.5043 22.2914C42.7042 21.77 42.5399 20.013 41.2614 19.7345L28.3767 16.8847C27.9268 16.7847 27.5554 16.4562 27.3982 16.0205L22.97 3.75717C22.5129 2.50013 20.7059 2.59298 20.3845 3.89287L17.2991 16.4562C17.1919 16.8918 16.8777 17.2418 16.4634 17.3989L16.4563 17.3918Z" fill="#F2A0FF"/>
</svg>
