<svg width="329" height="84" viewBox="0 0 329 84" fill="none" xmlns="http://www.w3.org/2000/svg">
<path fill-rule="evenodd" clip-rule="evenodd" d="M260.963 13.7289C260.963 13.7289 306.276 8.24167 292.039 57.5244H272.55L260.963 13.7289Z" fill="white"/>
<path fill-rule="evenodd" clip-rule="evenodd" d="M328.688 13.7289C328.688 13.7289 283.368 8.24167 297.612 57.5244H317.108L328.696 13.7289H328.688Z" fill="white"/>
<path d="M314.514 63.9316H317.109V74.8275H314.514V63.9316ZM301.425 74.8275V63.9316H305.002L306.346 69.238C306.464 69.7097 306.574 70.1578 306.669 70.6059C306.763 71.0462 306.85 71.4785 306.92 71.8952C307.015 71.4471 307.109 70.9833 307.219 70.4959C307.329 70.0085 307.455 69.4896 307.596 68.9315L308.854 63.9316H312.431V74.8275H310.057V69.9927C310.057 69.6547 310.065 69.1752 310.081 68.562C310.096 67.9488 310.12 67.2413 310.151 66.4315L308.202 74.8275H305.623L303.713 66.4315C303.744 67.3985 303.768 68.2711 303.791 69.0415C303.807 69.8119 303.815 70.4172 303.815 70.8496V74.8196H301.417L301.425 74.8275ZM291.693 74.8275V63.9316H296.347C297.526 63.9316 298.422 64.2225 299.035 64.8042C299.656 65.3938 299.963 66.235 299.963 67.3356C299.963 68.4912 299.656 69.3874 299.059 70.0006C298.454 70.6216 297.573 70.9282 296.433 70.9282H294.311V74.8196H291.701L291.693 74.8275ZM294.311 68.7349H296.04C296.512 68.7349 296.85 68.6249 297.078 68.4126C297.298 68.2003 297.408 67.8623 297.408 67.4221C297.408 66.9818 297.298 66.6595 297.062 66.4473C296.834 66.235 296.48 66.125 296.009 66.125H294.311V68.7349ZM284.264 63.9316H287.102L290.687 74.8275H287.896L287.275 72.8307H283.879L283.297 74.8275H280.601L284.264 63.9316ZM284.508 70.5666H286.732L285.6 66.8089L284.515 70.5666H284.508ZM275.459 74.8275V66.1407H272.551V63.9316H280.97V66.1407H278.061V74.8275H275.459Z" fill="white"/>
<path d="M68.075 40.61C68.075 40.61 68.2513 40.38 68.7802 40.2842C69.358 38.7606 69.5049 37.534 69.593 36.8441C69.8183 35.5697 72.1197 35.6367 72.9815 34.094C72.6388 35.8667 69.7301 35.5313 69.642 37.5915C70.3863 36.4991 71.7769 36.4417 72.7269 35.6176C73.6867 34.7935 73.2264 33.222 72.9815 32.1871C72.864 32.6853 72.58 33.0782 71.6888 33.1549C70.7878 33.2315 69.7203 34.0556 69.8574 35.1193C70.8074 34.506 72.4429 34.2856 72.9228 33.2603C72.7955 34.9468 69.1621 35.0139 69.1425 36.3458C69.1131 36.9495 69.0152 37.4286 68.9075 37.9557C68.1632 36.1925 66.3514 35.033 65.0489 32.8866C65.7932 33.8927 67.9477 35.8188 68.7018 36.8249C68.3786 33.4519 65.705 34.2473 64.3731 30.9893C64.0793 35.5217 66.8704 36.4225 67.7812 38.1473C67.6245 36.8345 65.5875 35.4259 64.7061 32.8387C65.7638 35.3876 68.1534 36.7291 68.6333 39.0481C68.6333 39.0481 68.457 39.7476 68.0848 40.6004" fill="white"/>
<path d="M26.6382 61.491C24.0136 59.7374 19.7045 62.3439 16.8546 61.4144C19.4596 61.8743 21.7807 60.4849 23.8569 60.619C23.8569 60.619 22.5152 59.7949 20.6642 59.6704C18.2746 59.5075 16.5902 61.5198 14.3964 60.4849C15.3072 61.2898 17.452 62.8996 19.205 63.0146C21.6338 63.1775 23.4455 62.133 24.9341 62.2289C23.2497 61.5485 19.6457 63.0913 17.119 61.7689C19.6653 62.6217 24.1898 60.8394 26.4717 62.4013C27.1964 62.8805 29.5371 64.3945 29.5371 64.3945C30.2814 64.1645 30.7906 64.1262 30.7906 64.1262L29.4783 63.3213C28.5675 60.8394 29.7917 58.0318 28.3618 55.9524C29.8896 57.9072 29.3314 61.079 29.6056 61.6922C30.2128 60.322 30.5947 56.4794 26.2171 54.1125C27.3531 55.617 26.1289 56.8052 26.0114 58.463C25.8939 60.1207 27.9309 61.8935 27.9309 61.8935C27.5196 59.8237 29.018 57.0927 27.2062 55.0804C29.4489 56.8915 27.882 59.9866 28.2835 62.5738C27.5784 62.1235 26.6284 61.5006 26.6284 61.5006" fill="white"/>
<path d="M20.2328 57.0061C18.1175 55.3771 14.1217 58.3764 11.7615 56.9773C14.1315 57.6481 16.6191 55.9712 17.7257 56.2587C14.6898 54.1505 12.8388 56.3737 11.3306 56.2778C10.2533 56.2012 9.07812 55.3867 9.07812 55.3867C10.0771 56.4791 12.212 58.6734 13.8377 58.7788C15.7768 58.913 18.3819 57.6577 19.5375 57.9739C18.3035 56.939 14.3372 58.9322 11.8399 57.4373C14.8367 58.5968 18.0587 56.2587 19.9488 57.7439C19.9488 57.7439 22.4755 59.6221 23.2492 60.1683C24.2579 60.0341 24.9729 60.3599 24.9729 60.3599L23.6214 59.4304C23.0925 57.6098 23.8662 53.9301 22.0446 51.3908C24.2286 53.4893 23.5626 56.5174 23.8368 57.2169C24.2579 55.5496 24.7084 52.2436 19.8411 49.5605C21.2024 51.4962 20.0859 52.4832 20.2035 53.681C20.3014 55.0513 21.9467 57.1498 22.1426 57.8398C22.1915 55.9329 22.5931 52.8473 20.9967 50.6338C23.6312 53.2785 22.2209 56.8049 22.691 58.7788C21.9859 58.271 20.7715 57.3894 20.2524 56.9965" fill="white"/>
<path d="M14.6705 52.4736C12.9566 50.8829 8.6965 53.3935 6.48319 51.6208C8.9903 52.7036 11.0959 51.4291 12.4572 51.6687C12.4572 51.6687 11.2722 50.7871 9.40163 50.6625C7.53108 50.538 6.94348 51.937 4.83789 50.2218C4.83789 50.2218 6.9043 53.5852 9.38204 53.7481C10.3908 53.8152 12.467 53.2115 14.2396 53.3265C11.9675 52.0807 9.30369 53.9493 7.10997 52.3874C9.19596 53.4989 12.8685 51.7454 14.1612 52.9623C15.0426 53.7481 16.3452 54.9363 17.54 55.8754C18.4312 55.7412 18.911 56.0095 18.911 56.0095L17.7652 55.1088C16.7467 53.221 17.9513 49.4072 16.6194 47.1266C18.0688 49.3593 17.4224 51.6879 17.5889 53.1731C17.7946 52.0328 18.2941 51.0267 18.1863 49.7139C18.0786 48.334 17.0307 46.8967 15.1112 45.373C15.1112 45.373 15.8457 46.2546 15.1895 48.3819C14.6901 50.0493 15.0133 51.592 16.4431 53.4031C16.1787 50.6817 17.0405 49.7426 16.5312 47.5387C17.442 50.0205 16.5214 52.2724 16.6096 54.1793C16.1493 53.796 15.0231 52.8282 14.6509 52.4928" fill="white"/>
<path d="M8.66718 46.1404C8.66718 46.1404 8.37338 45.9392 7.7466 45.9296C6.51263 44.2143 5.97399 43.1507 5.52349 42.2883C4.80857 40.9755 1.89992 41.7133 0.636573 40.1035C1.71385 42.0487 4.35807 41.1288 5.23948 42.5661C4.35807 42.0104 2.6834 42.7099 1.59633 41.9529C0.509258 41.1959 0.146901 39.7202 0 38.0912C0 38.0912 0.411324 38.9919 1.11645 39.0398C1.81178 39.0877 3.49625 38.302 4.47559 40.6113C3.29059 39.9789 1.41025 40.5251 0.528845 39.4806C1.42005 41.2725 5.2101 40.1801 5.90543 41.7804C6.42449 42.7578 7.01209 43.7735 7.01209 43.7735C7.13941 40.688 8.99036 39.8064 9.17644 37.2479C8.71615 39.4135 6.93374 40.6497 6.7085 42.8536C5.02403 38.3882 8.73573 38.4553 9.22541 35.3506C9.22541 35.3506 10.5181 38.2349 9.81301 40.113C9.0883 42.0679 8.17751 42.6907 7.98164 43.831C8.1873 40.7359 9.75425 40.6018 9.48983 37.6695C9.14706 40.4963 7.35486 41.5025 7.7368 44.8563L8.67697 46.1404H8.66718Z" fill="white"/>
<path d="M5.36746 40.61C5.36746 40.61 5.18139 40.38 4.66234 40.2842C4.08452 38.7606 3.93762 37.534 3.84948 36.8441C3.62423 35.5697 1.32278 35.6367 0.460956 34.094C0.803726 35.8667 3.71237 35.5313 3.80051 37.5915C3.05621 36.4991 1.66555 36.4417 0.715585 35.6176C-0.244171 34.7935 0.225914 33.222 0.460956 32.1871C0.578477 32.6853 0.862486 33.0782 1.75369 33.1549C2.65468 33.2315 3.72217 34.0556 3.58506 35.1193C2.6351 34.506 0.999594 34.2856 0.519717 33.2603C0.647031 34.9468 4.28039 35.0139 4.30977 36.3458C4.33915 36.9495 4.43709 37.4286 4.54481 37.9557C5.28911 36.1925 7.11069 35.033 8.40342 32.8866C7.65912 33.8927 5.49478 35.8188 4.75048 36.8249C5.07366 33.4519 7.74726 34.2473 9.07917 30.9893C9.37297 35.5217 6.58185 36.4225 5.67106 38.1473C5.82775 36.8345 7.86478 35.4259 8.74619 32.8387C7.6885 35.3876 5.29891 36.7291 4.82882 39.0481C4.82882 39.0481 5.00511 39.7476 5.37726 40.6004" fill="white"/>
<path d="M12.1743 50.1066C11.3908 48.353 13.183 45.4016 12.0666 42.4981C13.3299 45.622 12.3016 46.8677 12.2624 48.7746C12.6444 47.4523 13.4181 46.6857 13.3397 44.9704C13.2614 43.2551 11.3027 40.5625 10.9012 39.7959C11.4006 44.75 8.44301 44.9129 10.8424 48.3434C10.7053 46.8869 12.4485 45.5166 11.43 41.7028C12.7913 45.21 11.0774 46.5419 11.2537 49.1675C10.8914 48.7938 10.3919 48.2188 9.93161 47.7014C8.11983 45.4304 4.50605 47.9793 2.74324 45.9957C4.56481 47.0402 6.17094 46.0628 7.76726 46.3311C5.0251 44.2517 3.00766 46.2449 1.68555 44.6733C2.32212 46.6665 3.44836 48.0943 5.52457 48.2284C6.69978 48.3051 8.12962 47.9218 9.04041 48.1134C7.32656 47.0402 4.18287 48.2668 3.06642 46.6282C4.47667 47.9314 8.13941 46.4557 9.59863 48.2763C10.4702 49.3208 11.5377 50.4036 12.3506 51.2277C12.9774 51.199 13.4279 51.3331 13.4279 51.3331L12.1645 50.1066H12.1743Z" fill="white"/>
<path d="M4.13278 32.4366C4.38741 31.2867 2.42872 31.2292 1.45917 29.7918C1.66483 31.325 4.23071 31.3825 3.88794 32.7432C3.44724 31.8425 2.10554 31.6125 1.49835 31.028C0.783425 30.3476 1.2731 29.0732 1.65504 28.0574C1.65504 28.0574 1.58649 29.3223 2.36996 29.4373C3.15343 29.5619 4.27968 29.7823 4.40699 31.21C3.51579 30.1847 2.02719 30.6447 1.54731 29.2552C1.54731 29.2552 1.50814 30.0985 2.87922 30.6543C4.2503 31.21 4.73018 31.6796 4.62245 32.312C4.59307 32.4653 4.5441 32.7337 4.5441 32.7337C5.17088 31.6508 7.73676 30.568 8.74548 29.1498C7.59965 30.271 6.36568 30.6351 4.9946 31.6029C5.87601 29.9643 6.777 29.4469 8.09911 29.1211C9.11763 28.8719 9.72482 27.5496 9.72482 27.5496C9.10784 31.8233 6.79659 31.7371 5.42551 33.0307C6.15022 32.0341 8.17746 30.9322 8.73569 29.696C7.96201 30.6447 5.85642 31.8521 4.78894 33.184C4.63224 33.3757 4.40699 33.7494 4.37761 34.0369C4.33844 34.5447 4.28947 35.2826 4.28947 35.2826C4.28947 35.2826 4.21112 35.043 3.82918 34.813C3.89773 34.1039 3.93691 33.4332 4.14257 32.427" fill="white"/>
<path d="M5.52351 28.7277C7.08067 27.4436 8.98059 27.5011 9.36253 26.5621C8.43216 27.2999 7.08066 27.2807 6.04256 28.1144C7.36467 26.1213 9.17646 26.7633 10.2929 25.4601C10.2929 25.4601 10.0285 27.1562 8.82389 28.0569C7.98166 28.6798 7.01211 28.5935 6.21884 29.2451C6.59099 28.3348 8.6672 28.1719 9.33315 27.0028C8.55947 27.8557 6.75748 28.2007 5.68021 29.1876C5.51372 29.341 5.28847 29.5039 5.2395 29.7051C5.13177 30.1076 4.89673 31.0083 4.89673 31.0083C4.89673 31.0083 4.88694 30.7975 4.56376 30.5579C4.70086 30.0213 4.90653 29.3314 5.03384 28.9385C5.36682 27.9132 3.29061 27.5011 2.80094 26.4567C3.22206 27.8174 5.19053 28.1144 4.7988 29.0822C4.56376 28.4019 3.40813 28.3252 2.82053 27.5874C2.31127 26.9454 2.45817 25.9679 2.84991 25.0576C2.83032 25.4505 3.13392 25.9296 3.78028 26.0925C4.58334 26.2937 5.2395 26.725 5.26888 27.664C4.89673 26.9933 3.52565 27.0124 2.82053 26.0254C3.1535 27.1753 5.86628 27.6928 5.5333 28.7181" fill="white"/>
<path d="M10.0472 17.6793C10.8894 17.0948 12.2997 16.6252 13.2301 16.1078C12.8579 16.2323 11.6239 16.539 11.1734 16.8456C12.1234 15.5616 13.563 15.8682 14.9341 14.9004C14.0527 17.2672 11.8394 17.0756 11.3889 17.526C11.9177 17.0373 13.4455 16.5773 13.945 15.9832C12.4858 16.9223 11.242 17.0756 10.0962 18.053C9.97865 18.2734 9.74361 18.7429 9.74361 18.7429C9.74361 18.7429 9.64567 18.6471 9.4596 18.628C9.6065 18.3405 9.69464 18.1872 9.69464 18.1872C10.0668 17.4876 9.20497 17.0948 8.58798 15.9928C8.58798 16.7977 9.61629 17.3631 9.49877 17.8614C9.02869 16.9127 7.65761 16.7402 8.58798 14.9387C8.58798 15.5903 10.1158 15.964 10.0276 17.1618C9.83175 16.5581 8.62716 16.0024 8.5586 15.4466C8.87199 16.4815 10.1353 16.9894 10.057 17.6793" fill="white"/>
<path d="M11.3801 15.3795C11.6935 14.8238 10.7141 14.1913 10.3909 13.626C10.5476 14.0476 11.2528 14.7567 11.194 15.14C10.7827 14.5363 9.32345 13.5972 10.4203 12.3515C10.5182 13.3768 11.3899 13.166 11.6445 14.3255C11.2723 13.8464 10.7141 13.808 10.2538 12.9456C10.5574 13.8559 11.4682 14.1434 11.7522 14.8717C12.5357 14.2392 14.2789 13.7601 14.9449 13.2906C14.3083 13.5589 13.3877 13.8655 12.8197 14.1626C14.1712 12.8594 15.1016 13.1085 16.551 12.2461C15.4345 14.5363 13.5248 14.3351 13.2114 14.6609C13.5836 14.2392 14.9645 13.7505 15.3072 13.3577C14.0047 14.1913 12.0362 14.7567 11.7424 15.3604C11.6445 15.5233 11.3409 16.0311 11.3409 16.0311C11.2625 15.9162 11.0863 15.9066 11.0863 15.9066C11.194 15.7149 11.3801 15.3891 11.3801 15.3891" fill="white"/>
<path d="M8.73538 20.1903C8.36323 19.165 7.11946 18.8775 6.96277 17.5552C7.29574 18.5517 8.19674 18.6476 8.45137 19.4333C8.5493 17.9768 7.08029 17.8714 7.0607 16.8652C5.81694 18.7913 7.46223 19.5675 8.06942 20.5832C8.2555 20.037 7.07049 19.165 6.85504 18.293C7.26636 19.2225 8.57868 20.1712 8.2555 20.8324C8.14777 21.0528 7.94211 21.5031 7.94211 21.5031C8.12818 21.6756 8.17715 21.8193 8.17715 21.8193C8.31426 21.5031 8.61786 20.8515 8.61786 20.8515C9.61678 19.6346 11.7713 19.3567 12.9759 18.2834C12.3002 19.2033 10.1456 19.7208 9.36215 20.4778C10.4101 19.7112 12.7899 20.0849 13.7202 17.3156C12.9759 18.2834 10.2827 18.2259 9.41112 19.6346C10.508 18.935 11.7518 18.753 12.927 18.1014C11.9672 18.8105 9.99873 19.3088 8.73538 20.1808" fill="white"/>
<path d="M7.37466 23.6682C7.49218 23.3807 7.71743 23.2849 7.9133 23.1795C8.78492 22.7483 10.5281 22.02 11.3116 21.378C10.3323 22.4416 8.22669 23.1316 7.89371 23.5532C8.56946 23.237 11.3704 23.0741 12.5358 20.0077C11.0276 21.2342 9.43128 20.8988 8.40297 22.2787C8.99058 21.9146 10.156 21.8475 11.2431 21.0522C10.1756 22.0871 8.39318 22.3362 7.51177 22.8728C7.11024 22.0296 5.87627 21.3588 5.55309 20.4964C6.21904 21.378 6.91437 21.5217 7.43342 22.2691C7.19838 20.5443 5.67061 20.6401 5.55309 19.5286C5.29846 19.9598 4.87734 20.9851 5.3866 21.7134C5.89586 22.4512 6.51284 22.662 6.85561 23.3807C6.94375 22.6141 5.50412 21.6654 5.40619 20.621C5.6804 21.4738 6.5814 22.0775 6.97313 22.8441C7.04169 22.9878 7.14941 23.2178 7.05148 23.4669C6.88499 23.8502 6.61078 24.5114 6.61078 24.5114C6.84582 24.6552 6.89479 24.8181 6.89479 24.8181C7.04169 24.4539 7.37466 23.649 7.37466 23.649" fill="white"/>
<path d="M6.56223 25.8051C6.88541 24.9619 4.47623 24.2528 4.2314 22.8633C4.73086 24.042 5.75917 23.9174 6.18029 24.7415C6.20967 24.0228 5.77876 23.3808 5.1226 23.0933C4.38809 22.7771 4.3685 22.2692 4.41747 21.7422C4.16284 22.0872 3.51648 23.5437 3.90821 24.2528C4.29995 24.9619 5.24991 25.096 5.87669 26.0255C5.89628 25.0098 4.14326 24.7606 4.14326 23.2275C4.66231 24.4732 6.43492 25.0865 6.06277 26.0351C5.8669 26.5621 5.63186 27.1946 5.63186 27.1946C5.82772 27.415 5.91587 27.6162 5.91587 27.6162C6.03339 27.2521 6.21946 26.7346 6.21946 26.7346C6.56223 25.8147 9.2946 25.0385 10.2837 24.0228C9.41212 25.2973 7.68848 25.5943 7.36529 26.0926C8.51112 25.5177 10.5579 25.6039 11.2141 22.8442C9.65695 24.1761 8.23691 23.6778 7.17922 25.1535C8.09001 24.5211 9.42191 24.4157 10.2544 23.9078C9.19666 24.7511 7.24777 25.096 6.56223 25.8147" fill="white"/>
<path d="M44.5403 73.0274L45.0594 72.0979C41.9353 70.4593 38.8308 68.8015 35.785 67.0575C34.6979 66.4443 33.6305 65.8118 32.5532 65.1794C31.564 64.5853 30.1734 64.8919 29.0471 65.3806C27.9209 65.8693 24.7087 67.1629 22.2015 65.6777C25.1983 66.8946 28.9002 64.8248 29.6543 64.8823C25.12 62.2472 24.2288 66.5688 20.047 64.384C23.5236 68.6003 27.3137 68.3128 30.4574 66.4059C29.243 66.1855 26.3148 68.3703 22.9458 66.3484C26.873 68.1212 30.4084 64.9494 32.0635 65.9651C33.131 66.6168 34.1985 67.2492 35.2758 67.8816C38.3215 69.664 41.426 71.3696 44.5305 73.0274H44.5403Z" fill="white"/>
<path d="M12.7019 13.205C12.7019 13.205 12.4766 13.2721 12.32 13.3679L12.5452 12.9846C12.9174 12.3905 11.6834 11.9018 11.5561 11.4418C11.6638 12.0455 12.3983 12.1797 12.2906 12.7929C11.9772 11.8347 10.6649 11.8155 11.6246 10.5602C11.8205 11.3077 12.7705 11.3843 12.8292 12.2659C12.506 11.5664 11.9086 11.6047 11.6246 10.8381C11.5463 11.5185 13.0055 12.2467 12.79 12.6013C13.1328 12.0359 14.6214 11.7005 15.4832 11.2406C15.0915 11.3268 14.1415 11.7101 13.9261 11.7197C14.6214 11.1927 16.3744 10.819 17.4811 10.0332C16.9522 10.6944 16.2275 11.4993 14.7487 11.873C14.7487 11.873 15.5812 11.4514 15.9631 11.1543C14.9838 11.7101 13.3189 12.1605 12.9761 12.7354C12.7509 13.0996 12.7019 13.1954 12.7019 13.1954" fill="white"/>
<path d="M14.2503 10.8571C14.2503 10.8571 14.0446 10.9146 13.9173 10.9912L14.123 10.6654C14.456 10.148 13.3983 9.69762 13.2808 9.29515C13.3689 9.82219 14.0055 9.95634 13.8977 10.493C13.6431 9.6497 12.4973 9.61137 13.3591 8.53814C13.5158 9.19933 14.3384 9.27599 14.3776 10.0426C14.1034 9.41973 13.5844 9.44847 13.3493 8.7777C13.2612 9.37181 14.5343 10.033 14.3384 10.3396C14.6518 9.86052 15.9544 9.58263 16.7182 9.19933C16.3755 9.26641 15.5332 9.59221 15.3472 9.59221C15.9642 9.14184 17.5017 8.84478 18.4909 8.18359C18.0208 8.74896 17.3744 9.43889 16.0719 9.74553C16.0719 9.74553 16.8064 9.39098 17.1492 9.14184C16.2775 9.61137 14.8183 9.96592 14.5049 10.4642C14.3091 10.7804 14.2601 10.8571 14.2601 10.8571" fill="white"/>
<path d="M46.803 61.491C49.4277 59.7374 53.7368 62.3439 56.5867 61.4144C53.9816 61.8743 51.6606 60.4849 49.5844 60.619C49.5844 60.619 50.9261 59.7949 52.777 59.6704C55.1666 59.5075 56.8511 61.5198 59.0448 60.4849C58.134 61.2898 55.9795 62.8996 54.2362 63.0146C51.8075 63.1775 49.9957 62.133 48.5071 62.2289C50.1916 61.5485 53.7955 63.0913 56.3222 61.7689C53.7759 62.6217 49.2514 60.8394 46.9695 62.4013C46.2448 62.8805 43.9042 64.3945 43.9042 64.3945C43.1599 64.1645 42.6506 64.1262 42.6506 64.1262L43.9629 63.3213C44.8835 60.8394 43.6495 58.0318 45.0794 55.9524C43.5516 57.9072 44.1098 61.079 43.8356 61.6922C43.2284 60.322 42.8465 56.4794 47.2241 54.1125C46.0881 55.617 47.3123 56.8052 47.4298 58.463C47.5473 60.1207 45.5103 61.8935 45.5103 61.8935C45.9216 59.8237 44.4232 57.0927 46.235 55.0804C43.9923 56.8915 45.5593 59.9866 45.1577 62.5738C45.8629 62.1235 46.8226 61.5006 46.8226 61.5006" fill="white"/>
<path d="M53.2068 57.0061C55.3222 55.3771 59.3179 58.3764 61.6781 56.9773C59.3081 57.6481 56.8206 55.9712 55.7139 56.2587C58.7499 54.1505 60.6008 56.3737 62.109 56.2778C63.1863 56.2012 64.3615 55.3867 64.3615 55.3867C63.3626 56.4791 61.2276 58.6734 59.6117 58.7788C57.6628 58.913 55.0675 57.6577 53.9119 57.9739C55.1459 56.939 59.1122 58.9322 61.6095 57.4373C58.6128 58.5968 55.3907 56.2587 53.5006 57.7439C53.5006 57.7439 50.9641 59.6221 50.2002 60.1683C49.1915 60.0341 48.4766 60.3599 48.4766 60.3599L49.8281 59.4304C50.3569 57.6098 49.5832 53.9301 51.4048 51.3908C49.2209 53.4893 49.8868 56.5174 49.6126 57.2169C49.1915 55.5496 48.741 52.2436 53.6083 49.5605C52.247 51.4962 53.3635 52.4832 53.246 53.681C53.148 55.0513 51.5027 57.1498 51.3069 57.8398C51.2579 55.9329 50.8564 52.8473 52.4527 50.6338C49.8183 53.2785 51.2383 56.8049 50.7584 58.7788C51.4636 58.271 52.6779 57.3894 53.197 56.9965" fill="white"/>
<path d="M58.7699 52.4736C60.4838 50.8829 64.7439 53.3935 66.9572 51.6208C64.4501 52.7036 62.3347 51.4291 60.9832 51.6687C60.9832 51.6687 62.1682 50.7871 64.0388 50.6625C65.9093 50.538 66.4969 51.937 68.6025 50.2218C68.6025 50.2218 66.5361 53.5852 64.0584 53.7481C63.0496 53.8152 60.9734 53.2115 59.191 53.3265C61.4631 52.0807 64.1269 53.9493 66.3206 52.3874C64.2346 53.4989 60.5621 51.7454 59.2596 52.9623C58.3782 53.7481 57.0756 54.9363 55.8808 55.8754C54.9896 55.7412 54.5098 56.0095 54.5098 56.0095L55.6556 55.1088C56.6741 53.221 55.4597 49.4072 56.8014 47.1266C55.352 49.3593 55.9984 51.6879 55.8319 53.1731C55.6262 52.0328 55.117 51.0267 55.2247 49.7139C55.3324 48.334 56.3803 46.8967 58.2998 45.373C58.2998 45.373 57.5653 46.2546 58.2215 48.3819C58.7209 50.0493 58.3978 51.592 56.9679 53.4031C57.2323 50.6817 56.3705 49.7426 56.8798 47.5387C55.969 50.0205 56.8896 52.2724 56.7916 54.1793C57.2519 53.796 58.3782 52.8282 58.7503 52.4928" fill="white"/>
<path d="M64.7743 46.1404C64.7743 46.1404 65.0681 45.9392 65.6851 45.9296C66.919 44.2143 67.4577 43.1507 67.9082 42.2883C68.6231 40.9755 71.5317 41.7133 72.7951 40.1035C71.7178 42.0487 69.0736 41.1288 68.1922 42.5661C69.0736 42.0104 70.7483 42.7099 71.8353 41.9529C72.9224 41.1959 73.2848 39.7202 73.4317 38.0912C73.4317 38.0912 73.0203 38.9919 72.3152 39.0398C71.6101 39.0877 69.9354 38.302 68.9561 40.6113C70.1411 39.9789 72.0214 40.5251 72.9126 39.4806C72.0312 41.2725 68.2314 40.1801 67.536 41.7804C67.017 42.7578 66.4196 43.7735 66.4196 43.7735C66.2923 40.688 64.4413 39.8064 64.2552 37.2479C64.7155 39.4135 66.4979 40.6497 66.7232 42.8536C68.4076 38.3882 64.6959 38.4553 64.2063 35.3506C64.2063 35.3506 62.9135 38.2349 63.6187 40.113C64.3434 42.0679 65.2542 42.6907 65.45 43.831C65.2444 40.7359 63.6774 40.6018 63.9418 37.6695C64.2846 40.4963 66.0768 41.5025 65.6949 44.8563L64.7547 46.1404H64.7743Z" fill="white"/>
<path d="M61.2673 50.1066C62.0508 48.353 60.2586 45.4016 61.375 42.4981C60.1117 45.622 61.14 46.8677 61.1791 48.7746C60.807 47.4523 60.0235 46.6857 60.1019 44.9704C60.1802 43.2551 62.1389 40.5625 62.5404 39.7959C62.041 44.75 64.9986 44.9129 62.5992 48.3434C62.7363 46.8869 60.9931 45.5166 62.0018 41.7028C60.6405 45.21 62.3641 46.5419 62.1781 49.1675C62.5404 48.7938 63.0399 48.2188 63.5002 47.7014C65.312 45.4304 68.9257 47.9793 70.6886 45.9957C68.867 47.0402 67.2609 46.0628 65.6645 46.3311C68.4067 44.2517 70.4241 46.2449 71.7462 44.6733C71.1097 46.6665 69.9834 48.0943 67.9072 48.2284C66.732 48.3051 65.3022 47.9218 64.3914 48.1134C66.1052 47.0402 69.2489 48.2668 70.3556 46.6282C68.9453 47.9314 65.2924 46.4557 63.8234 48.2763C62.9518 49.3208 61.8843 50.4036 61.0714 51.2277C60.4446 51.199 59.9941 51.3331 59.9941 51.3331L61.2575 50.1066H61.2673Z" fill="white"/>
<path d="M69.3088 32.4368C69.0542 31.2869 71.0129 31.2295 71.9824 29.7921C71.7768 31.3253 69.2109 31.3828 69.5537 32.7435C69.9944 31.8427 71.3361 31.6127 71.9433 31.0282C72.6582 30.3479 72.1685 29.0734 71.7866 28.0577C71.7866 28.0577 71.8551 29.3226 71.0717 29.4375C70.2882 29.5621 69.1619 29.7825 69.0346 31.2103C69.9258 30.185 71.4144 30.6449 71.8943 29.2555C71.8943 29.2555 71.9335 30.0987 70.5624 30.6545C69.1913 31.2103 68.7016 31.6798 68.8192 32.3123C68.8486 32.4656 68.8975 32.7339 68.8975 32.7339C68.2707 31.6511 65.7049 30.5683 64.6961 29.1501C65.842 30.2712 67.0759 30.6353 68.447 31.6032C67.5558 29.9646 66.6646 29.4471 65.3425 29.1213C64.3142 28.8722 63.7168 27.5498 63.7168 27.5498C64.3338 31.8236 66.645 31.7373 68.0161 33.0309C67.2914 32.0344 65.2642 30.9324 64.7059 29.6963C65.4796 30.6449 67.5852 31.8523 68.6527 33.1843C68.8094 33.3759 69.0346 33.7496 69.064 34.0371C69.1032 34.545 69.1522 35.2828 69.1522 35.2828C69.1522 35.2828 69.2305 35.0433 69.6124 34.8133C69.5439 34.1042 69.5047 33.4334 69.299 32.4273" fill="white"/>
<path d="M67.9178 28.7277C66.3607 27.4436 64.4706 27.5011 64.0788 26.5621C65.0092 27.2999 66.3607 27.2807 67.3988 28.1144C66.0767 26.1213 64.2649 26.7633 63.1484 25.4601C63.1484 25.4601 63.4129 27.1562 64.6175 28.0569C65.4597 28.6798 66.4292 28.5935 67.2225 29.2451C66.8504 28.3348 64.7741 28.1719 64.1082 27.0028C64.8819 27.8557 66.6839 28.2007 67.7611 29.1876C67.9276 29.341 68.1529 29.5039 68.2116 29.7051C68.3194 30.1076 68.5544 31.0083 68.5544 31.0083C68.5544 31.0083 68.5642 30.7975 68.8874 30.5579C68.7503 30.0213 68.5446 29.3314 68.4173 28.9385C68.0843 27.9132 70.1605 27.5011 70.6502 26.4567C70.2291 27.8174 68.2606 28.1144 68.6523 29.0822C68.8874 28.4019 70.043 28.3252 70.6306 27.5874C71.1399 26.9454 70.993 25.9679 70.6012 25.0576C70.6208 25.4505 70.3172 25.9296 69.6709 26.0925C68.8678 26.2937 68.2116 26.725 68.1823 27.664C68.5544 26.9933 69.9255 27.0124 70.6306 26.0254C70.2976 27.1753 67.5849 27.6928 67.9178 28.7181" fill="white"/>
<path d="M63.3928 17.6793C62.5505 17.0948 61.1403 16.6252 60.2099 16.1078C60.5821 16.2323 61.816 16.539 62.2665 16.8456C61.3264 15.5616 59.8769 15.8682 58.5059 14.9004C59.3873 17.2672 61.6006 17.0756 62.0511 17.526C61.5222 17.0373 59.9945 16.5773 59.495 15.9832C60.9542 16.9223 62.198 17.0756 63.3438 18.053C63.4613 18.2734 63.6964 18.7429 63.6964 18.7429C63.6964 18.7429 63.7943 18.6471 63.9804 18.628C63.8335 18.3405 63.7453 18.1872 63.7453 18.1872C63.3732 17.4876 64.235 17.0948 64.852 15.9928C64.852 16.7977 63.8237 17.3631 63.9412 17.8614C64.4113 16.9127 65.7726 16.7402 64.852 14.9387C64.852 15.5903 63.3242 15.964 63.4124 17.1618C63.6082 16.5581 64.8128 16.0024 64.8814 15.4466C64.568 16.4815 63.3046 16.9894 63.383 17.6793" fill="white"/>
<path d="M62.0616 15.3795C61.7482 14.8238 62.7275 14.1913 63.0507 13.626C62.894 14.0476 62.1889 14.7567 62.2476 15.14C62.6687 14.5363 64.1182 13.5972 63.0213 12.3515C62.9234 13.3768 62.0518 13.166 61.7971 14.3255C62.1693 13.8464 62.7275 13.808 63.1878 12.9456C62.8842 13.8559 61.9734 14.1434 61.6796 14.8717C60.8961 14.2392 59.1529 13.7601 58.4967 13.2906C59.1333 13.5589 60.0539 13.8655 60.6219 14.1626C59.2704 12.8594 58.3401 13.1085 56.8906 12.2461C58.0071 14.5363 59.9168 14.3351 60.2302 14.6609C59.858 14.2392 58.4772 13.7505 58.1344 13.3577C59.4369 14.1913 61.4054 14.7567 61.709 15.3604C61.8069 15.5233 62.1105 16.0311 62.1105 16.0311C62.1889 15.9162 62.3651 15.9066 62.3651 15.9066C62.2574 15.7149 62.0713 15.3891 62.0713 15.3891" fill="white"/>
<path d="M64.7056 20.1903C65.0777 19.165 66.3215 18.8775 66.4782 17.5552C66.1452 18.5517 65.2442 18.6476 64.9896 19.4333C64.8916 17.9768 66.3606 17.8714 66.3802 16.8652C67.624 18.7913 65.9787 19.5675 65.3715 20.5832C65.1854 20.037 66.3704 19.165 66.5859 18.293C66.1746 19.2225 64.8622 20.1712 65.1854 20.8324C65.2932 21.0528 65.4988 21.5031 65.4988 21.5031C65.3127 21.6756 65.2638 21.8193 65.2638 21.8193C65.1169 21.5031 64.8231 20.8515 64.8231 20.8515C63.8241 19.6346 61.6696 19.3567 60.465 18.2834C61.1407 19.2033 63.2953 19.7208 64.0788 20.4778C63.0309 19.7112 60.6511 20.0849 59.7207 17.3156C60.465 18.2834 63.1582 18.2259 64.0396 19.6346C62.9427 18.935 61.699 18.753 60.5238 18.1014C61.4835 18.8105 63.452 19.3088 64.7153 20.1808" fill="white"/>
<path d="M66.0674 23.6679C65.9499 23.3805 65.7246 23.2846 65.5287 23.1792C64.6571 22.748 62.9139 22.0197 62.1304 21.3777C63.1098 22.4414 65.2154 23.1313 65.5483 23.5529C64.8726 23.2367 62.0619 23.0738 60.9062 20.0074C62.4144 21.234 64.0108 20.8986 65.0391 22.2785C64.4515 21.9143 63.2861 21.8473 62.199 21.0519C63.2665 22.0868 65.0489 22.336 65.9303 22.8726C66.3318 22.0293 67.5658 21.3586 67.889 20.4961C67.223 21.3777 66.5277 21.5215 66.0086 22.2689C66.2437 20.5441 67.7714 20.6399 67.8792 19.5283C68.1338 19.9595 68.5549 20.9848 68.0457 21.7131C67.5364 22.451 66.9096 22.6618 66.5766 23.3805C66.4885 22.6139 67.9281 21.6652 68.0261 20.6207C67.7519 21.4736 66.8509 22.0772 66.4591 22.8438C66.3906 22.9876 66.2828 23.2176 66.3808 23.4667C66.5473 23.85 66.8215 24.5112 66.8215 24.5112C66.5864 24.6549 66.5375 24.8178 66.5375 24.8178C66.3906 24.4537 66.0576 23.6488 66.0576 23.6488" fill="white"/>
<path d="M66.8804 25.8051C66.5572 24.9619 68.9664 24.2528 69.2112 22.8633C68.7118 24.042 67.6835 23.9174 67.2623 24.7415C67.233 24.0228 67.6639 23.3808 68.32 23.0933C69.0545 22.7771 69.0741 22.2692 69.0252 21.7422C69.2798 22.0872 69.9262 23.5437 69.5344 24.2528C69.1427 24.9619 68.1927 25.096 67.5659 26.0255C67.5463 25.0098 69.2994 24.7606 69.2994 23.2275C68.7803 24.4732 67.0077 25.0865 67.3799 26.0351C67.5757 26.5621 67.8108 27.1946 67.8108 27.1946C67.6149 27.415 67.5268 27.6162 67.5268 27.6162C67.3994 27.2521 67.2232 26.7346 67.2232 26.7346C66.8804 25.8147 64.148 25.0385 63.1589 24.0228C64.0305 25.2973 65.7542 25.5943 66.0773 26.0926C64.9315 25.5177 62.8847 25.6039 62.2285 22.8442C63.7857 24.1761 65.2057 23.6778 66.2634 25.1535C65.3526 24.5211 64.0207 24.4157 63.1883 23.9078C64.246 24.7511 66.1949 25.096 66.8804 25.8147" fill="white"/>
<path d="M28.8999 73.0274L28.3809 72.0979C31.505 70.4689 34.6095 68.8015 37.6552 67.0575C38.7423 66.4443 39.8098 65.8118 40.8871 65.1794C41.8762 64.5853 43.2669 64.8919 44.3931 65.3806C45.5096 65.8693 48.7316 67.1629 51.2387 65.6777C48.2419 66.8946 44.54 64.8248 43.7859 64.8823C48.3301 62.2472 49.2115 66.5688 53.3933 64.384C49.9166 68.6003 46.1265 68.3128 42.9829 66.4059C44.1972 66.1855 47.1255 68.3703 50.5042 66.3484C46.577 68.1212 43.0416 64.9494 41.3865 65.9651C40.319 66.6168 39.2516 67.2492 38.1743 67.8816C35.1285 69.664 32.024 71.3696 28.9195 73.0274H28.8999Z" fill="white"/>
<path d="M60.7382 13.205C60.7382 13.205 60.9732 13.2721 61.1201 13.3679L60.8851 12.9846C60.5227 12.3905 61.7469 11.9018 61.8742 11.4418C61.7665 12.0455 61.032 12.1797 61.1397 12.7929C61.4531 11.8347 62.7654 11.8155 61.8155 10.5602C61.6196 11.3077 60.6696 11.3843 60.6109 12.2659C60.934 11.5664 61.5314 11.6047 61.8155 10.8381C61.8938 11.5185 60.4346 12.2467 60.65 12.6013C60.3073 12.0359 58.8187 11.7005 57.9568 11.2406C58.3486 11.3268 59.2985 11.7101 59.514 11.7197C58.8187 11.1927 57.0656 10.819 55.959 10.0332C56.4878 10.6944 57.2027 11.4993 58.6913 11.873C58.6913 11.873 57.8589 11.4514 57.477 11.1543C58.4661 11.7101 60.1212 12.1605 60.4738 12.7354C60.699 13.0996 60.748 13.1954 60.748 13.1954" fill="white"/>
<path d="M59.1918 10.8571C59.1918 10.8571 59.3974 10.9146 59.5247 10.9912L59.3191 10.6654C58.9861 10.148 60.0438 9.69762 60.1515 9.29515C60.0634 9.82219 59.4268 9.95634 59.5345 10.493C59.7891 9.6497 60.935 9.61137 60.0732 8.53814C59.9165 9.19933 59.0938 9.27599 59.0546 10.0426C59.3289 9.41973 59.8479 9.44847 60.083 8.7777C60.1711 9.37181 58.8979 10.033 59.0938 10.3396C58.7804 9.86052 57.4779 9.58263 56.714 9.19933C57.0568 9.26641 57.899 9.59221 58.0851 9.59221C57.4681 9.14184 55.9305 8.84478 54.9414 8.18359C55.4115 8.74896 56.0579 9.43889 57.3604 9.74553C57.3604 9.74553 56.6259 9.39098 56.2831 9.14184C57.1547 9.61137 58.6139 9.96592 58.9273 10.4642C59.1232 10.7804 59.1722 10.8571 59.1722 10.8571" fill="white"/>
<path d="M30.1545 0.958242C29.0185 1.9644 28.6757 3.64132 29.185 5.65363C29.6844 7.64677 30.9576 9.74532 32.7694 11.5756C35.2863 14.1149 38.4202 15.696 40.9664 15.696C42.1123 15.696 43.0818 15.3606 43.787 14.7473C44.923 13.7412 45.2756 12.0739 44.7565 10.0424C44.257 8.04923 42.9741 5.95068 41.1721 4.12044C38.665 1.5811 35.5213 0 32.9652 0C31.8292 0 30.8498 0.325802 30.1447 0.94866" fill="white"/>
<mask id="mask0_106_325" style="mask-type:luminance" maskUnits="userSpaceOnUse" x="28" y="0" width="17" height="16">
<path d="M30.1545 0.958242C29.0185 1.9644 28.6757 3.64132 29.185 5.65363C29.6844 7.64677 30.9576 9.74532 32.7694 11.5756C35.2863 14.1149 38.4202 15.696 40.9664 15.696C42.1123 15.696 43.0818 15.3606 43.787 14.7473C44.923 13.7412 45.2756 12.0739 44.7565 10.0424C44.257 8.04923 42.9741 5.95068 41.1721 4.12044C38.665 1.5811 35.5213 0 32.9652 0C31.8292 0 30.8498 0.325802 30.1447 0.94866" fill="white"/>
</mask>
<g mask="url(#mask0_106_325)">
<path d="M45.2756 0.00976562H28.6758V15.7058H45.2756V0.00976562Z" fill="white"/>
</g>
<path d="M23.5241 18.3215C16.0223 18.6282 15.6502 20.7076 16.3945 22.8061C16.7862 23.9177 17.5893 25.1634 19.1072 25.9012C22.3195 27.4919 21.9473 30.3762 21.9473 33.3276C21.9473 36.1257 21.9767 39.9778 22.0453 43.5616C22.0844 45.5452 23.1715 47.088 24.4251 47.0592C26.2662 47.0209 26.9518 45.5452 27.1378 43.4945C27.3239 42.0476 27.461 36.164 27.461 33.3276C27.461 31.3536 28.3424 30.0887 29.9779 30.06C32.0443 30.06 32.4948 31.574 32.4948 33.3276C32.4948 35.0812 32.6515 39.6807 32.632 43.5904C32.6124 46.8867 33.7974 48.0845 35.2272 48.0845C36.7942 48.0845 38.0477 46.6663 38.0183 43.5904C38.0183 41.9614 38.0771 35.7328 38.0771 33.3276C38.0771 31.5644 39.0271 30.06 40.4765 30.06C42.7877 30.06 43.1403 32.3502 43.1109 33.3276C43.0717 34.305 43.1109 37.0072 43.1109 42.2584C43.1109 46.6472 44.0021 48.5062 45.9216 48.5062C47.5473 48.5062 48.4287 46.7813 48.4385 42.2584V33.3276C48.4385 31.0853 49.604 29.6096 53.2961 29.2551C58.7412 28.661 59.2407 25.6329 58.134 22.8444C57.0861 20.2189 56.2439 19.1935 53.1002 18.8007C49.8586 18.3886 43.6202 18.1299 37.0292 18.1299C37.0292 18.1299 26.325 18.1299 23.5241 18.3024" fill="white"/>
<mask id="mask1_106_325" style="mask-type:luminance" maskUnits="userSpaceOnUse" x="16" y="18" width="43" height="31">
<path d="M23.5241 18.3215C16.0223 18.6282 15.6502 20.7076 16.3945 22.8061C16.7862 23.9177 17.5893 25.1634 19.1072 25.9012C22.3195 27.4919 21.9473 30.3762 21.9473 33.3276C21.9473 36.1257 21.9767 39.9778 22.0453 43.5616C22.0844 45.5452 23.1715 47.088 24.4251 47.0592C26.2662 47.0209 26.9518 45.5452 27.1378 43.4945C27.3239 42.0476 27.461 36.164 27.461 33.3276C27.461 31.3536 28.3424 30.0887 29.9779 30.06C32.0443 30.06 32.4948 31.574 32.4948 33.3276C32.4948 35.0812 32.6515 39.6807 32.632 43.5904C32.6124 46.8867 33.7974 48.0845 35.2272 48.0845C36.7942 48.0845 38.0477 46.6663 38.0183 43.5904C38.0183 41.9614 38.0771 35.7328 38.0771 33.3276C38.0771 31.5644 39.0271 30.06 40.4765 30.06C42.7877 30.06 43.1403 32.3502 43.1109 33.3276C43.0717 34.305 43.1109 37.0072 43.1109 42.2584C43.1109 46.6472 44.0021 48.5062 45.9216 48.5062C47.5473 48.5062 48.4287 46.7813 48.4385 42.2584V33.3276C48.4385 31.0853 49.604 29.6096 53.2961 29.2551C58.7412 28.661 59.2407 25.6329 58.134 22.8444C57.0861 20.2189 56.2439 19.1935 53.1002 18.8007C49.8586 18.3886 43.6202 18.1299 37.0292 18.1299C37.0292 18.1299 26.325 18.1299 23.5241 18.3024" fill="white"/>
</mask>
<g mask="url(#mask1_106_325)">
<path d="M59.2409 18.1494H15.6503V48.5161H59.2409V18.1494Z" fill="white"/>
</g>
<path d="M5.63196 66.6546C6.0237 66.2809 5.81804 66.0701 5.54382 65.7826L5.69072 65.6484C5.93556 65.9072 6.1804 66.1659 6.42523 66.415C6.67007 66.6642 6.9247 66.9133 7.2087 67.172L7.0618 67.3062C6.768 67.0283 6.56234 66.8175 6.1706 67.1912L3.37948 69.8455C2.98774 70.2192 3.1934 70.4301 3.46762 70.7175L3.32072 70.8613C3.05629 70.6026 2.84084 70.3534 2.596 70.1138C2.34137 69.8551 2.07695 69.5964 1.80273 69.3281L1.94964 69.1939C2.24344 69.4814 2.4491 69.6826 2.84084 69.3089L5.63196 66.6546Z" fill="white"/>
<path d="M8.26569 75.1069L8.12858 74.9919L7.7956 69.1083L5.97403 71.3026C5.29828 72.1171 5.22973 72.328 5.87609 72.855L5.74878 73.0083C5.48435 72.7975 5.21993 72.5675 4.95551 72.3567C4.69109 72.1459 4.41687 71.9351 4.14265 71.7338L4.26997 71.5805C4.63233 71.8776 4.91634 72.0884 5.53332 71.3505L7.5018 68.9837C7.92292 68.4758 7.85436 68.1213 7.33531 67.7092L7.46263 67.5559C7.6487 67.7092 7.81519 67.853 8.00126 68.0063C8.16775 68.1309 8.34403 68.2554 8.50073 68.3896C8.45176 68.9454 8.55949 69.9228 8.62804 71.2068C8.67701 72.1651 8.75536 73.2 8.80433 73.957L10.7532 71.6189C11.2037 71.0727 11.2135 70.8139 10.6161 70.3252L10.7434 70.1719C11.0176 70.4019 11.2919 70.6319 11.5661 70.8523C11.8011 71.0343 12.0362 71.2068 12.2712 71.3985L12.1439 71.5518C11.7815 71.2643 11.5563 71.1302 11.0764 71.7051L8.2461 75.1069H8.26569Z" fill="white"/>
<path d="M10.6847 75.1256L10.8414 75.2214C10.6455 75.7772 10.7141 76.4671 11.2625 76.8025C11.7718 77.1091 12.3888 77.0037 12.7119 76.4959C13.4758 75.2981 11.3017 74.4644 12.2614 72.9408C12.7903 72.1071 13.6717 72.0496 14.4748 72.5383C14.749 72.7012 14.984 72.9216 15.2191 73.1229L14.7979 74.014L14.6412 73.9182C14.8567 73.4199 14.7196 72.9695 14.2495 72.6821C13.75 72.3754 13.231 72.5575 12.9372 73.027C12.1733 74.2248 14.416 75.1352 13.4758 76.6109C12.947 77.4541 11.8697 77.4541 11.096 76.975C10.7533 76.7642 10.4497 76.4767 10.2244 76.1413L10.6945 75.1256H10.6847Z" fill="white"/>
<path d="M16.2079 73.6891C16.5115 73.852 16.8249 74.0053 17.1383 74.149C17.3733 74.264 17.628 74.3599 17.9218 74.5036C18.6367 74.8486 19.5279 75.6247 18.9991 76.6884C18.5975 77.4933 17.5594 77.6849 16.8249 77.34C16.6878 77.2729 16.5801 77.2154 16.4723 77.1675L16.5801 76.9375C16.6682 76.995 16.7466 77.0333 16.8347 77.0813C17.4321 77.3687 17.9903 76.9088 18.2352 76.4201C18.7052 75.4714 18.1666 74.8869 17.7063 74.6665C17.5986 74.6186 17.4713 74.5611 17.3929 74.5419L15.4734 78.3941C15.2384 78.8732 15.493 78.9977 15.8749 79.1894L15.7868 79.3715C15.444 79.2086 15.1502 79.0552 14.8466 78.9019C14.5137 78.739 14.1807 78.5953 13.8281 78.4324L13.9163 78.2503C14.2884 78.4228 14.5528 78.5378 14.7977 78.0587L16.4136 74.8102C16.678 74.2832 16.6584 74.1011 16.1296 73.852L16.2177 73.6699L16.2079 73.6891Z" fill="white"/>
<path d="M20.6843 76.5065C20.8802 76.0082 20.606 75.9028 20.224 75.7495L20.2926 75.5674C20.6256 75.7015 20.9585 75.8357 21.2817 75.9603C21.6147 76.0848 21.9477 76.1998 22.3198 76.334L22.2513 76.516C21.8595 76.3819 21.5853 76.2861 21.3894 76.7844L19.9988 80.3394C19.8029 80.8377 20.0771 80.9431 20.4591 81.0964L20.3905 81.2785C20.038 81.1444 19.7344 81.0198 19.421 80.8952C19.0782 80.7611 18.7256 80.6461 18.3633 80.5119L18.4318 80.3298C18.8236 80.464 19.0978 80.5598 19.2937 80.0615L20.6843 76.5065Z" fill="white"/>
<path d="M23.5821 79.658L23.112 81.3541C22.9651 81.8619 23.2491 81.9482 23.6506 82.0632L23.6017 82.2548C23.2393 82.159 22.9259 82.0632 22.5929 81.9673C22.2306 81.8715 21.878 81.7853 21.5059 81.6895L21.5548 81.4978C21.927 81.6224 22.26 81.6032 22.3775 81.1912L23.4058 77.4828C23.5527 76.9749 23.2687 76.8887 22.8769 76.7737L22.9259 76.582C23.3372 76.697 23.6898 76.8024 24.0619 76.8982C24.3264 76.9653 24.5908 77.0228 25.0707 77.157C26.4809 77.5307 26.5789 78.3931 26.4417 78.9106C26.2655 79.5334 25.6583 79.8688 25.0315 79.8784C25.4428 81.0379 25.6387 81.7182 25.8639 82.1494C26.0304 82.4752 26.1969 82.7339 26.5789 82.8393L26.5299 83.031C26.3438 82.9831 26.1577 82.916 25.9717 82.8681C25.766 82.8106 25.5408 82.7627 25.3351 82.7148C24.8552 81.8044 24.5908 80.8175 24.2872 79.84L23.6114 79.658H23.5821ZM24.7181 77.3199C24.532 77.272 24.3949 77.2624 24.2578 77.2432L23.6604 79.3897C23.7681 79.4376 23.915 79.5047 24.0424 79.5334C24.9629 79.7826 25.4918 79.2843 25.6289 78.7572C25.8052 78.1248 25.5897 77.5594 24.7083 77.3199" fill="white"/>
<path d="M29.5953 80.5882L30.604 80.732C31.221 80.8182 31.2993 80.3487 31.3385 80.1762L31.4952 80.1954C31.456 80.3583 31.3777 80.7607 31.3385 81.029C31.2993 81.2686 31.2895 81.6231 31.2504 81.8627L31.0937 81.8435C31.2014 81.1248 30.9566 81.0865 30.3592 81.0099L29.5365 80.8949L29.3504 82.1693C29.2329 83.003 29.2329 83.2138 29.987 83.3192L30.4669 83.3863C31.221 83.4534 31.5735 83.4055 31.9947 82.6389L32.1709 82.6964C31.9947 83.0509 31.8184 83.4246 31.6911 83.7983C30.9272 83.6929 30.1633 83.5684 29.3896 83.463C28.8216 83.3863 28.2536 83.3001 27.6855 83.2426L27.7149 83.0509C28.3809 83.1467 28.4592 83.0317 28.567 82.3035L29.0566 78.9688C29.1448 78.3555 29.0272 78.3076 28.4298 78.2022L28.4592 78.001C28.9685 78.0872 29.4973 78.1639 30.0066 78.231C30.7411 78.3364 31.4756 78.4418 32.2199 78.528L32.0534 79.6492L31.8967 79.6683C31.8869 78.9496 31.5735 78.6909 30.7999 78.5855L29.8989 78.4609L29.5855 80.5882H29.5953Z" fill="white"/>
<path d="M33.9436 79.5247C33.9534 78.8444 33.5911 78.8827 33.2385 78.8731V78.6719C33.5421 78.691 33.8555 78.7006 34.1591 78.7006C34.4823 78.7006 34.923 78.7006 35.5008 78.7006C37.5084 78.7294 38.5857 80.0613 38.5563 81.4029C38.5465 82.1503 38.0667 84.038 35.3245 83.9997C34.9328 83.9997 34.5606 83.971 34.1983 83.971C33.8457 83.971 33.5127 83.971 33.1602 83.971V83.7697C33.6302 83.7314 33.8555 83.7218 33.8849 83.2044L33.9436 79.5247ZM34.6488 83.099C34.6488 83.6835 35.0699 83.7601 35.442 83.7601C37.1167 83.7793 37.6847 82.5528 37.7043 81.422C37.7239 80.0038 36.8131 78.9689 35.3147 78.9402C35.0013 78.9402 34.8446 78.9594 34.7075 78.9594L34.639 83.0894L34.6488 83.099Z" fill="white"/>
<path d="M42.7876 83.5101C43.1695 83.4718 43.4731 83.3185 43.3948 82.8969L42.7484 79.1022C42.6603 78.5752 42.3665 78.6135 41.9649 78.671L41.9355 78.4794C42.151 78.441 42.3665 78.4219 42.5721 78.3931L42.8072 78.3548C43.2479 78.2877 43.5221 78.2207 43.7963 78.1823C44.3643 78.0961 45.6081 78.0482 45.7844 79.1118C45.9019 79.8113 45.3241 80.2713 44.7561 80.5013V80.5204C45.3241 80.3959 46.5385 80.5875 46.7147 81.6416C46.8518 82.4369 46.2447 83.1652 44.8932 83.3856C44.5308 83.4431 44.1684 83.491 43.8159 83.5485C43.4829 83.606 43.1401 83.6635 42.817 83.7305L42.7876 83.5389V83.5101ZM43.7865 80.6067L44.0803 80.5588C44.6973 80.4534 45.2065 80.1755 45.0499 79.2268C44.903 78.3644 44.3643 78.3261 43.7473 78.4219C43.6494 78.4411 43.5417 78.4602 43.4241 78.489L43.7767 80.5971L43.7865 80.6067ZM44.1293 82.619C44.188 82.9544 44.237 83.2323 44.9225 83.1173C45.8333 82.9735 46.0292 82.3124 45.9508 81.8524C45.7648 80.7792 45.0499 80.6546 44.2958 80.7792L43.8355 80.8558L44.1391 82.6286L44.1293 82.619Z" fill="white"/>
<path d="M50.9556 81.2015C51.1123 81.7094 51.3963 81.6328 51.788 81.5273L51.8468 81.719C51.4746 81.8148 51.1319 81.9106 50.7891 82.0161C50.4561 82.1119 50.1134 82.2173 49.7706 82.3227L49.7118 82.131C50.1036 82.0065 50.3876 81.9202 50.2309 81.4124L49.6922 79.6588L47.4985 78.0202C47.1949 77.7806 47.1557 77.8094 46.7052 77.9052L46.6465 77.7135C46.7934 77.6752 47.3418 77.5315 47.6846 77.4261C47.9882 77.3398 48.282 77.2344 48.5856 77.1482L48.6443 77.3398C48.5268 77.3782 48.233 77.4644 48.2722 77.6081C48.3016 77.6944 48.4485 77.8285 48.6541 77.9914L50.1329 79.1222L50.7108 77.5411C50.7597 77.3877 50.8968 77.1003 50.8381 76.9374C50.7793 76.7266 50.6226 76.7649 50.2505 76.8799L50.1917 76.6882C50.4757 76.6116 50.7695 76.5349 51.0535 76.4582C51.2494 76.4008 51.4453 76.3241 51.6607 76.2666L51.7195 76.4582C51.4061 76.5541 51.3277 76.7936 51.2298 77.0619L50.3778 79.3521L50.9458 81.2303L50.9556 81.2015Z" fill="white"/>
<path d="M60.5232 78.0293C59.9258 78.3072 59.348 78.5947 58.7604 78.8917C58.1434 79.1984 57.5362 79.505 56.9388 79.8212L56.8507 79.6487C57.2033 79.4954 57.4383 79.2654 57.2424 78.8821L55.4502 75.4612C55.2054 74.9917 54.941 75.1163 54.5688 75.2887L54.4807 75.1067C54.8137 74.9534 55.1271 74.8 55.4405 74.6467C55.7538 74.4838 56.0672 74.3209 56.41 74.1484L56.4981 74.3209C56.1358 74.5126 55.8812 74.6467 56.126 75.1258L57.7615 78.2497C58.0259 78.748 58.2414 78.9013 59.2207 78.4126C60.0238 78.0101 60.2001 77.6843 60.0727 76.9273L60.2392 76.8794L60.5232 78.0389V78.0293Z" fill="white"/>
<path d="M59.788 73.1139C59.4942 72.6635 59.2396 72.8168 58.8968 73.0181L58.7891 72.8551C59.1025 72.6731 59.406 72.491 59.6999 72.3089C60.0034 72.1173 60.2972 71.9257 60.6204 71.7148L60.7282 71.8777C60.3854 72.0981 60.1406 72.261 60.4344 72.7114L62.5106 75.9311C62.8044 76.3815 63.059 76.2377 63.4018 76.0269L63.5095 76.1898C63.1961 76.3815 62.9023 76.5444 62.6183 76.7264C62.3049 76.9181 62.0013 77.1193 61.6781 77.3301L61.5704 77.1672C61.9132 76.9468 62.158 76.7839 61.874 76.3336L59.7978 73.1139H59.788Z" fill="white"/>
<path d="M65.195 74.11C65.5279 74.5316 65.763 74.3591 66.096 74.1292L66.2233 74.2825C65.9099 74.5029 65.6259 74.7137 65.3419 74.9245C65.0677 75.1353 64.7836 75.3461 64.48 75.5953L64.3527 75.442C64.8914 75.0395 64.862 74.9053 64.4017 74.3208L62.3157 71.6473C61.9338 71.149 61.8162 71.1969 61.307 71.5515L61.1895 71.3886C61.6302 71.0628 62.0904 70.737 62.5312 70.4016C63.0894 69.98 63.6574 69.5583 64.196 69.1367L64.9012 69.9608L64.7738 70.095C64.3136 69.6254 63.9218 69.6542 63.2461 70.1525L62.5214 70.6987L63.8631 72.4139L64.5878 71.8677C65.097 71.494 65.0774 71.3886 64.8228 70.8999L64.9599 70.7945C65.0383 70.9191 65.2831 71.2544 65.4496 71.4652C65.5965 71.6569 65.8315 71.9348 65.9784 72.0881L65.8511 72.1839C65.4496 71.8198 65.3419 71.6952 64.8032 72.0977L64.0491 72.663L65.195 74.1292V74.11Z" fill="white"/>
<path d="M67.4864 69.4149L68.2209 68.7154C68.6714 68.2842 68.3286 67.9392 68.2209 67.805L68.3286 67.6996C68.4364 67.8338 68.7204 68.1404 68.9065 68.3321C69.0827 68.5046 69.357 68.7345 69.5234 68.9166L69.4157 69.022C68.8967 68.495 68.7204 68.6675 68.2895 69.0699L67.6921 69.6353L68.6127 70.5648C69.2101 71.1685 69.3863 71.3026 69.9348 70.7852L70.2775 70.4594C70.7966 69.9132 70.9729 69.6161 70.6105 68.8208L70.7672 68.7154C70.9435 69.0699 71.1394 69.434 71.3646 69.7694C70.8064 70.2965 70.2384 70.8139 69.6801 71.3409C69.2688 71.7338 68.8575 72.1267 68.456 72.5292L68.3188 72.3854C68.8085 71.9255 68.7596 71.8009 68.2405 71.2643L65.8509 68.8399C65.4102 68.3896 65.3025 68.4566 64.8422 68.8591L64.7051 68.7154C65.087 68.3704 65.469 68.0158 65.8411 67.6613C66.3797 67.1534 66.9086 66.6551 67.4374 66.1377L68.2405 66.9522L68.1524 67.0864C67.5648 66.6551 67.1632 66.7318 66.605 67.2684L65.9488 67.8817L67.4766 69.434L67.4864 69.4149Z" fill="white"/>
<path d="M246.65 65.084H84.4629V66.1138H246.65V65.084Z" fill="white"/>
<path d="M87.7292 71.0725C87.8478 71.0403 87.9663 71.0161 88.0849 70.9678L88.1442 71.0081L89.2366 76.8756C89.2959 77.2786 89.4907 77.4881 89.948 77.4639L89.8972 77.7057C89.4822 77.7057 89.0673 77.6896 88.6438 77.6896C88.2881 77.6896 87.9325 77.6977 87.5683 77.7057L87.6191 77.4639C87.9155 77.472 88.3728 77.48 88.3135 77.1012L88.0171 75.2314H85.6967L84.8837 76.8353C84.816 76.9803 84.7736 77.0932 84.7736 77.1738C84.7736 77.4317 85.0277 77.4559 85.1971 77.4559H85.4935L85.4427 77.6977C85.0531 77.6977 84.6551 77.6815 84.274 77.6815C83.9691 77.6815 83.6727 77.6896 83.3594 77.6977L83.4102 77.4559C83.876 77.4639 84.1046 77.1899 84.2994 76.8191L87.7123 71.0645L87.7292 71.0725ZM85.9169 74.8364H87.9748L87.5344 72.0236H87.5175L85.9169 74.8364Z" fill="white"/>
<path d="M97.4 76.4887C96.7564 77.1899 95.9773 77.8428 94.961 77.8428C94.165 77.8428 93.75 77.2947 93.75 76.5613C93.75 75.2798 94.7747 74.1595 95.9434 73.7081C96.2229 73.5953 96.7648 73.3857 97.0528 73.3857C97.273 73.3857 97.5355 73.5147 97.5355 73.7645C97.5355 74.0466 97.3238 74.2562 97.0782 74.2562C96.731 74.2562 96.5701 73.9499 96.2652 73.9499C95.2659 73.9499 94.5376 75.6747 94.5376 76.4646C94.5376 77.0046 94.8933 77.335 95.4776 77.335C96.1551 77.335 96.8157 76.7708 97.256 76.3275L97.3915 76.4968L97.4 76.4887Z" fill="white"/>
<path d="M100.821 73.386C101.973 73.386 102.727 74.2161 102.727 75.3042C102.727 76.6341 101.533 77.843 100.118 77.843C98.9243 77.843 98.1621 77.0854 98.1621 75.9409C98.1621 74.5788 99.3816 73.3779 100.821 73.3779V73.386ZM100.101 77.6012C101.38 77.6012 101.931 75.9409 101.931 74.9657C101.931 74.2967 101.66 73.6358 100.813 73.6358C99.4832 73.6358 98.9582 75.2317 98.9582 76.2714C98.9582 76.9806 99.2376 77.6012 100.11 77.6012H100.101Z" fill="white"/>
<path d="M103.498 74.5708C103.879 74.1275 104.574 73.378 105.226 73.378C105.463 73.378 105.564 73.523 105.564 73.7004C105.564 73.8615 105.497 74.0389 105.454 74.1517L104.938 75.5783H104.955C105.429 74.9254 106.902 73.3699 107.876 73.378C108.181 73.378 108.274 73.5553 108.274 73.7648C108.274 73.918 108.224 74.0953 108.173 74.2242L107.377 76.3036C107.284 76.5293 107.224 76.6825 107.224 76.7953C107.224 76.9081 107.267 76.9968 107.402 76.9968C107.673 76.9968 108.105 76.5535 108.257 76.3359L108.427 76.4568L108.071 76.8759C107.724 77.2789 107.241 77.698 106.691 77.698C106.437 77.698 106.31 77.5529 106.31 77.3837C106.31 77.2305 106.335 77.0693 106.445 76.7953L107.216 74.7804C107.25 74.6917 107.343 74.4418 107.343 74.3048C107.343 74.1839 107.224 74.1275 107.114 74.1275C106.555 74.1275 105.996 74.7642 105.666 75.1108C105.124 75.6669 104.692 76.3198 104.421 77.0371L104.226 77.5771C104.192 77.6496 103.981 77.6819 103.862 77.6819C103.761 77.6819 103.591 77.6255 103.54 77.561L104.514 74.7723C104.574 74.595 104.633 74.4096 104.633 74.2968C104.633 74.2001 104.591 74.1275 104.472 74.1275C104.26 74.1275 104.074 74.2807 103.896 74.4499L103.625 74.732L103.473 74.5627L103.498 74.5708Z" fill="white"/>
<path d="M109.215 76.521C109.317 77.061 109.96 77.2786 110.477 77.2786C110.756 77.2786 111.358 77.2141 111.358 76.8514C111.358 76.1986 109.909 75.7956 109.622 75.1831C109.554 75.0541 109.528 74.8929 109.528 74.7478C109.528 74.2562 110.223 73.829 110.612 73.5953C110.883 73.4341 111.027 73.3857 111.349 73.3857C111.756 73.3857 112.213 73.4905 112.213 73.9499C112.213 74.0628 112.12 74.3771 112.001 74.3771H111.883C111.806 74.3771 111.781 74.3126 111.747 74.232C111.654 74.0547 111.264 73.8935 110.934 73.8935C110.604 73.8935 110.189 74.0628 110.189 74.4335C110.189 75.2072 111.942 75.4168 111.942 76.4001C111.942 76.7708 111.552 77.1738 111.298 77.4076C110.968 77.7219 110.57 77.8428 110.121 77.8428C109.672 77.8428 108.859 77.7138 108.859 77.1093C108.859 76.8917 108.978 76.7144 109.088 76.521H109.215Z" fill="white"/>
<path d="M114.566 72.3389H115.362L114.956 73.5317H116.014L115.896 73.9186H114.845L113.982 76.6508C113.956 76.7395 113.922 76.8523 113.922 76.941C113.922 77.0538 113.973 77.1505 114.117 77.1505C114.507 77.1505 115.091 76.5702 115.345 76.3284L115.481 76.4896C115.032 76.9652 114.219 77.8517 113.499 77.8517C113.211 77.8517 113.059 77.6099 113.059 77.3601C113.059 77.1747 113.135 76.9168 113.186 76.7556L114.066 73.9186H113.092L113.211 73.5317H114.176L114.558 72.3389H114.566Z" fill="white"/>
<path d="M116.378 74.6109C116.666 74.1918 117.378 73.3859 117.945 73.3859C118.182 73.3859 118.25 73.4826 118.25 73.6196C118.25 73.7566 118.157 74.0065 118.114 74.1515L117.301 76.5533C117.242 76.7307 117.2 76.8677 117.2 76.9483C117.2 77.045 117.234 77.0933 117.327 77.0933C117.462 77.0933 117.979 76.5856 118.081 76.4808L118.241 76.6017C117.937 76.9966 117.225 77.851 116.666 77.851C116.378 77.851 116.285 77.6898 116.285 77.4722C116.285 77.3593 116.336 77.1981 116.395 77.0127L117.251 74.6109C117.301 74.482 117.344 74.345 117.344 74.2644C117.344 74.1999 117.301 74.1515 117.225 74.1515C117.013 74.1515 116.641 74.6029 116.522 74.756L116.387 74.6271L116.378 74.6109ZM118.614 71.6288C118.614 71.8464 118.394 72.056 118.157 72.056C117.92 72.056 117.699 71.8464 117.699 71.6288C117.699 71.4112 117.911 71.1855 118.157 71.1855C118.402 71.1855 118.614 71.4032 118.614 71.6288Z" fill="white"/>
<path d="M120.63 72.3389H121.427L121.02 73.5317H122.079L121.96 73.9186H120.91L120.046 76.6508C120.021 76.7395 119.987 76.8523 119.987 76.941C119.987 77.0538 120.038 77.1505 120.182 77.1505C120.571 77.1505 121.156 76.5702 121.41 76.3284L121.545 76.4896C121.096 76.9652 120.283 77.8517 119.563 77.8517C119.275 77.8517 119.123 77.6099 119.123 77.3601C119.123 77.1747 119.199 76.9168 119.25 76.7556L120.131 73.9186H119.157L119.275 73.5317H120.241L120.622 72.3389H120.63Z" fill="white"/>
<path d="M127.109 76.5454C126.703 76.9726 126.076 77.698 125.415 77.698C125.178 77.698 125.051 77.5771 125.051 77.3675C125.051 77.2144 125.127 76.9726 125.237 76.6663L125.83 74.9979H125.813C125.331 75.5944 123.713 77.698 122.739 77.698C122.519 77.698 122.324 77.5287 122.324 77.3272C122.324 77.2547 122.367 77.1015 122.426 76.9242L123.29 74.4902C123.29 74.4902 123.332 74.3854 123.332 74.2806C123.332 74.2081 123.298 74.1355 123.205 74.1355C122.917 74.1355 122.57 74.5708 122.384 74.7481L122.223 74.5869L122.561 74.2564C122.968 73.8696 123.493 73.3779 123.959 73.3779C124.154 73.3779 124.289 73.4908 124.289 73.6842C124.289 73.8373 124.238 73.9743 124.162 74.1758L123.273 76.7147C123.264 76.763 123.256 76.8033 123.256 76.8436C123.256 76.9081 123.332 76.9403 123.425 76.9403C124.103 76.9403 125.974 74.5144 126.313 73.6681C126.381 73.4988 126.449 73.3779 126.652 73.3779C126.821 73.3779 126.991 73.5552 127.101 73.652L126.017 76.7308C126 76.7791 125.991 76.8275 125.991 76.8597C125.991 76.9323 126.034 76.9887 126.144 76.9887C126.398 76.9887 126.813 76.5535 127.007 76.4003L127.143 76.5293L127.109 76.5454Z" fill="white"/>
<path d="M131.3 76.6177C130.648 77.3108 129.92 77.8428 129.048 77.8428C128.175 77.8428 127.828 77.198 127.828 76.5693C127.828 75.0541 129.251 73.3857 130.691 73.3857C131.139 73.3857 131.664 73.5389 131.664 74.0547C131.664 75.3362 129.767 75.7795 128.709 75.8762C128.65 76.118 128.633 76.3598 128.633 76.6016C128.633 77.0771 128.98 77.327 129.446 77.327C130.022 77.327 130.606 76.9643 131.173 76.4484L131.309 76.6096L131.3 76.6177ZM130.868 74.095C130.868 73.8532 130.716 73.692 130.462 73.692C129.7 73.692 128.912 75.0138 128.751 75.6344C129.666 75.578 130.868 75.1266 130.868 74.095Z" fill="white"/>
<path d="M132.182 74.5708C132.563 74.1275 133.257 73.378 133.909 73.378C134.146 73.378 134.248 73.523 134.248 73.7004C134.248 73.8615 134.18 74.0389 134.138 74.1517L133.621 75.5783H133.638C134.113 74.9254 135.586 73.3699 136.56 73.378C136.865 73.378 136.958 73.5553 136.958 73.7648C136.958 73.918 136.907 74.0953 136.856 74.2242L136.06 76.3036C135.967 76.5293 135.908 76.6825 135.908 76.7953C135.908 76.9081 135.95 76.9968 136.086 76.9968C136.357 76.9968 136.789 76.5535 136.941 76.3359L137.11 76.4568L136.755 76.8759C136.408 77.2789 135.925 77.698 135.374 77.698C135.12 77.698 134.993 77.5529 134.993 77.3837C134.993 77.2305 135.019 77.0693 135.129 76.7953L135.899 74.7804C135.933 74.6917 136.026 74.4418 136.026 74.3048C136.026 74.1839 135.908 74.1275 135.798 74.1275C135.239 74.1275 134.68 74.7642 134.35 75.1108C133.808 75.6669 133.376 76.3198 133.105 77.0371L132.91 77.5771C132.876 77.6496 132.664 77.6819 132.546 77.6819C132.444 77.6819 132.275 77.6255 132.224 77.561L133.198 74.7723C133.257 74.595 133.316 74.4096 133.316 74.2968C133.316 74.2001 133.274 74.1275 133.156 74.1275C132.944 74.1275 132.758 74.2807 132.58 74.4499L132.309 74.732L132.156 74.5627L132.182 74.5708Z" fill="white"/>
<path d="M139.388 72.3389H140.184L139.778 73.5317H140.836L140.718 73.9186H139.668L138.804 76.6508C138.779 76.7395 138.745 76.8523 138.745 76.941C138.745 77.0538 138.795 77.1505 138.939 77.1505C139.329 77.1505 139.913 76.5702 140.167 76.3284L140.303 76.4896C139.854 76.9652 139.041 77.8517 138.321 77.8517C138.033 77.8517 137.881 77.6099 137.881 77.3601C137.881 77.1747 137.957 76.9168 138.008 76.7556L138.889 73.9186H137.915L138.033 73.5317H138.999L139.38 72.3389H139.388Z" fill="white"/>
<path d="M148.619 76.5454C148.212 76.9726 147.586 77.698 146.925 77.698C146.688 77.698 146.561 77.5771 146.561 77.3675C146.561 77.2144 146.637 76.9726 146.747 76.6663L147.34 74.9979H147.323C146.84 75.5944 145.223 77.698 144.249 77.698C144.029 77.698 143.834 77.5287 143.834 77.3272C143.834 77.2547 143.876 77.1015 143.936 76.9242L144.799 74.4902C144.799 74.4902 144.842 74.3854 144.842 74.2806C144.842 74.2081 144.808 74.1355 144.715 74.1355C144.427 74.1355 144.08 74.5708 143.893 74.7481L143.732 74.5869L144.071 74.2564C144.478 73.8696 145.003 73.3779 145.469 73.3779C145.663 73.3779 145.799 73.4908 145.799 73.6842C145.799 73.8373 145.748 73.9743 145.672 74.1758L144.783 76.7147C144.774 76.763 144.766 76.8033 144.766 76.8436C144.766 76.9081 144.842 76.9403 144.935 76.9403C145.612 76.9403 147.484 74.5144 147.823 73.6681C147.891 73.4988 147.958 73.3779 148.162 73.3779C148.331 73.3779 148.5 73.5552 148.61 73.652L147.526 76.7308C147.509 76.7791 147.501 76.8275 147.501 76.8597C147.501 76.9323 147.543 76.9887 147.653 76.9887C147.907 76.9887 148.322 76.5535 148.517 76.4003L148.653 76.5293L148.619 76.5454Z" fill="white"/>
<path d="M149.279 74.5708C149.66 74.1275 150.355 73.378 151.007 73.378C151.244 73.378 151.346 73.523 151.346 73.7004C151.346 73.8615 151.278 74.0389 151.236 74.1517L150.719 75.5783H150.736C151.21 74.9254 152.684 73.3699 153.658 73.378C153.962 73.378 154.056 73.5553 154.056 73.7648C154.056 73.918 154.005 74.0953 153.954 74.2242L153.158 76.3036C153.065 76.5293 153.006 76.6825 153.006 76.7953C153.006 76.9081 153.048 76.9968 153.183 76.9968C153.454 76.9968 153.886 76.5535 154.039 76.3359L154.208 76.4568L153.852 76.8759C153.505 77.2789 153.022 77.698 152.472 77.698C152.218 77.698 152.091 77.5529 152.091 77.3837C152.091 77.2305 152.116 77.0693 152.226 76.7953L152.997 74.7804C153.031 74.6917 153.124 74.4418 153.124 74.3048C153.124 74.1839 153.006 74.1275 152.895 74.1275C152.337 74.1275 151.778 74.7642 151.447 75.1108C150.905 75.6669 150.473 76.3198 150.202 77.0371L150.008 77.5771C149.974 77.6496 149.762 77.6819 149.643 77.6819C149.542 77.6819 149.372 77.6255 149.322 77.561L150.296 74.7723C150.355 74.595 150.414 74.4096 150.414 74.2968C150.414 74.2001 150.372 74.1275 150.253 74.1275C150.041 74.1275 149.855 74.2807 149.677 74.4499L149.406 74.732L149.254 74.5627L149.279 74.5708Z" fill="white"/>
<path d="M154.988 74.6109C155.276 74.1918 155.987 73.3859 156.554 73.3859C156.792 73.3859 156.859 73.4826 156.859 73.6196C156.859 73.7566 156.766 74.0065 156.724 74.1515L155.911 76.5533C155.851 76.7307 155.809 76.8677 155.809 76.9483C155.809 77.045 155.843 77.0933 155.936 77.0933C156.072 77.0933 156.588 76.5856 156.69 76.4808L156.851 76.6017C156.546 76.9966 155.835 77.851 155.276 77.851C154.988 77.851 154.895 77.6898 154.895 77.4722C154.895 77.3593 154.945 77.1981 155.005 77.0127L155.86 74.6109C155.911 74.482 155.953 74.345 155.953 74.2644C155.953 74.1999 155.911 74.1515 155.835 74.1515C155.623 74.1515 155.25 74.6029 155.132 74.756L154.996 74.6271L154.988 74.6109ZM157.232 71.6288C157.232 71.8464 157.012 72.056 156.775 72.056C156.537 72.056 156.317 71.8464 156.317 71.6288C156.317 71.4112 156.529 71.1855 156.775 71.1855C157.02 71.1855 157.232 71.4032 157.232 71.6288Z" fill="white"/>
<path d="M159.248 72.3389H160.044L159.637 73.5317H160.696L160.577 73.9186H159.527L158.663 76.6508C158.638 76.7395 158.604 76.8523 158.604 76.941C158.604 77.0538 158.655 77.1505 158.799 77.1505C159.188 77.1505 159.773 76.5702 160.027 76.3284L160.162 76.4896C159.713 76.9652 158.9 77.8517 158.181 77.8517C157.893 77.8517 157.74 77.6099 157.74 77.3601C157.74 77.1747 157.816 76.9168 157.867 76.7556L158.748 73.9186H157.774L157.893 73.5317H158.858L159.239 72.3389H159.248Z" fill="white"/>
<path d="M166.462 73.386C167.614 73.386 168.367 74.2161 168.367 75.3042C168.367 76.6341 167.173 77.843 165.759 77.843C164.565 77.843 163.803 77.0854 163.803 75.9409C163.803 74.5788 165.022 73.3779 166.462 73.3779V73.386ZM165.751 77.6012C167.029 77.6012 167.58 75.9409 167.58 74.9657C167.58 74.2967 167.309 73.6358 166.462 73.6358C165.132 73.6358 164.607 75.2317 164.607 76.2714C164.607 76.9806 164.887 77.6012 165.759 77.6012H165.751Z" fill="white"/>
<path d="M172.339 73.5229L172.221 73.9098H171.137L169.477 79.6806L168.876 79.8498L168.842 79.7934L170.375 73.9098H169.485L169.596 73.5229H170.468C170.79 72.4751 171.044 71.6933 171.958 70.9357C172.229 70.7101 172.644 70.4844 173.017 70.4844C173.212 70.4844 173.423 70.5569 173.423 70.7906C173.423 70.9196 173.322 71.242 173.144 71.242C172.958 71.242 172.746 71.0566 172.517 71.0566C171.916 71.0566 171.73 71.7014 171.594 72.2333L171.247 73.531H172.339V73.5229Z" fill="white"/>
<path d="M175.101 77.4563H175.211C175.77 77.4563 175.948 77.3676 176.168 76.5455L177.396 71.8628C177.227 71.4195 176.93 71.3631 176.49 71.3551H176.363L176.414 71.1133C176.718 71.1294 177.032 71.1294 177.345 71.1294C177.633 71.1294 177.921 71.1133 178.209 71.1133L179.555 76.4408L182.418 71.1133C182.655 71.1294 182.892 71.1294 183.129 71.1294C183.468 71.1294 183.815 71.1133 184.145 71.1133L184.095 71.3551H183.985C183.409 71.3551 183.248 71.5646 183.222 71.9999L182.901 76.7793C182.867 77.287 183.053 77.4563 183.587 77.4563H183.747L183.697 77.6981C183.273 77.6981 182.833 77.682 182.409 77.682C181.935 77.682 181.452 77.69 180.978 77.6981L181.029 77.4563H181.148C181.723 77.4563 181.944 77.3838 181.994 76.7954L182.359 72.1046H182.342L179.327 77.7061H178.988L177.675 72.4351H177.658L176.574 76.8196C176.558 76.9163 176.524 77.005 176.524 77.0936C176.524 77.3112 176.591 77.4644 176.922 77.4644H177.32L177.269 77.7061C176.981 77.7061 176.693 77.69 176.405 77.69C175.956 77.69 175.499 77.6981 175.059 77.7061L175.109 77.4644L175.101 77.4563Z" fill="white"/>
<path d="M188.659 71.0725C188.777 71.0403 188.896 71.0161 189.015 70.9678L189.074 71.0081L190.166 76.8756C190.226 77.2786 190.42 77.4881 190.878 77.4639L190.827 77.7057C190.412 77.7057 189.997 77.6896 189.574 77.6896C189.218 77.6896 188.862 77.6977 188.498 77.7057L188.549 77.4639C188.845 77.472 189.303 77.48 189.243 77.1012L188.947 75.2314H186.626L185.813 76.8353C185.746 76.9803 185.703 77.0932 185.703 77.1738C185.703 77.4317 185.957 77.4559 186.127 77.4559H186.423L186.372 77.6977C185.983 77.6977 185.585 77.6815 185.204 77.6815C184.899 77.6815 184.602 77.6896 184.289 77.6977L184.34 77.4559C184.806 77.4639 185.034 77.1899 185.229 76.8191L188.642 71.0645L188.659 71.0725ZM186.855 74.8364H188.913L188.473 72.0236H188.456L186.855 74.8364Z" fill="white"/>
<path d="M194.019 74.0951H197.72L198.118 72.0399C198.245 71.379 197.957 71.3629 197.652 71.3629H197.313L197.364 71.1211C197.838 71.1372 198.296 71.1533 198.761 71.1533C199.168 71.1533 199.566 71.1211 199.981 71.1211L199.93 71.3629H199.752C199.126 71.3629 199.1 71.5644 198.948 72.3139L198.126 76.505C197.957 77.3432 198.025 77.4722 198.507 77.4561H198.872L198.821 77.6979C198.38 77.6979 197.94 77.6817 197.5 77.6817C197.059 77.6817 196.644 77.6898 196.221 77.6979L196.272 77.4561H196.458C197.042 77.4641 197.093 77.2707 197.212 76.6662L197.627 74.482H193.943L193.536 76.505C193.367 77.3432 193.435 77.4722 193.917 77.4561H194.282L194.231 77.6979C193.79 77.6979 193.35 77.6817 192.91 77.6817C192.469 77.6817 192.054 77.6898 191.631 77.6979L191.682 77.4561H191.868C192.452 77.4641 192.503 77.2707 192.622 76.6662L193.511 72.0399C193.638 71.379 193.35 71.3629 193.045 71.3629H192.706L192.757 71.1211C193.231 71.1372 193.689 71.1533 194.155 71.1533C194.561 71.1533 194.959 71.1211 195.374 71.1211L195.323 71.3629H195.145C194.519 71.3629 194.493 71.5644 194.341 72.3139L194.002 74.0951H194.019Z" fill="white"/>
<path d="M199.957 77.4556H200.093C200.719 77.4636 200.804 77.2138 200.889 76.8189L201.82 71.9508C201.837 71.8621 201.837 71.7976 201.837 71.717C201.837 71.5639 201.676 71.3463 201.193 71.3463H200.999L201.05 71.1045C201.854 71.1126 202.659 71.1448 203.463 71.1448C204.268 71.1448 205.064 71.1126 205.868 71.1045L205.758 72.4182H205.563V72.1926C205.563 71.5155 205.165 71.4108 204.03 71.4108H202.819L202.303 74.0947H203.59C204.047 74.1027 204.445 74.0463 204.556 73.6675L204.683 73.2161H204.852L204.445 75.36H204.285L204.31 74.9893C204.352 74.5621 204.039 74.4815 203.421 74.4815H202.244L201.854 76.5851C201.837 76.706 201.803 76.8269 201.803 76.9478C201.803 77.2057 201.913 77.3992 202.371 77.3992H203.929C205.064 77.3992 205.233 77.0768 205.656 76.1177H205.885L205.436 77.7054C204.979 77.7054 203.234 77.6893 202.091 77.6893C201.363 77.6893 200.635 77.6974 199.906 77.7054L199.957 77.4636V77.4556Z" fill="white"/>
<path d="M206.273 78.8341C206.866 78.7616 207.603 78.5762 207.603 77.8831C207.603 77.8266 207.595 77.7541 207.535 77.7138C207.315 77.609 207.18 77.6655 206.976 77.472C206.883 77.3753 206.858 77.2705 206.858 77.1496C206.858 76.7063 207.222 76.6016 207.501 76.6016C208.018 76.6016 208.255 77.0529 208.255 77.4962C208.255 78.4472 207.264 79.0517 206.341 79.0275L206.273 78.8422V78.8341Z" fill="white"/>
<path d="M213.023 77.4561H213.133C213.692 77.4561 213.87 77.3674 214.09 76.5453L215.318 71.8626C215.149 71.4193 214.852 71.3629 214.412 71.3548H214.285L214.336 71.113C214.64 71.1292 214.954 71.1292 215.267 71.1292C215.555 71.1292 215.843 71.113 216.131 71.113L217.478 76.4405L220.34 71.113C220.577 71.1292 220.814 71.1292 221.051 71.1292C221.39 71.1292 221.737 71.113 222.068 71.113L222.017 71.3548H221.907C221.331 71.3548 221.17 71.5644 221.144 71.9996L220.823 76.779C220.789 77.2868 220.975 77.4561 221.509 77.4561H221.669L221.619 77.6979C221.195 77.6979 220.755 77.6817 220.331 77.6817C219.857 77.6817 219.374 77.6898 218.9 77.6979L218.951 77.4561H219.07C219.645 77.4561 219.866 77.3835 219.916 76.7952L220.281 72.1044H220.264L217.249 77.7059H216.91L215.597 72.4348H215.581L214.497 76.8193C214.48 76.9161 214.446 77.0047 214.446 77.0934C214.446 77.311 214.513 77.4641 214.844 77.4641H215.242L215.191 77.7059C214.903 77.7059 214.615 77.6898 214.327 77.6898C213.878 77.6898 213.421 77.6978 212.981 77.7059L213.031 77.4641L213.023 77.4561Z" fill="white"/>
<path d="M226.319 73.3944C226.362 73.3299 226.421 73.209 226.54 73.209H226.751C226.811 73.209 226.845 73.2251 226.845 73.2573C226.845 73.2735 226.836 73.2976 226.828 73.3299L225.845 76.6827C225.82 76.7714 225.803 76.8278 225.803 76.9165C225.803 76.9809 225.837 77.0454 225.921 77.0454C226.209 77.0454 226.463 76.6505 226.658 76.4893L226.819 76.6102C226.43 76.9971 225.854 77.8353 225.227 77.8353C225.075 77.8353 224.888 77.7627 224.888 77.5693C224.888 77.4081 224.964 77.1421 225.058 76.8762L225.337 76.046V76.0138C224.821 76.7392 223.897 77.8272 223.101 77.8272C222.5 77.8272 222.348 77.3839 222.348 77.0454C222.348 75.5463 224.287 73.3702 225.566 73.3702C225.811 73.3702 226.04 73.4991 226.192 73.6845L226.328 73.3782L226.319 73.3944ZM223.576 77.1421C224.541 77.1421 225.769 75.1514 225.769 74.3051C225.769 74.0714 225.532 73.8215 225.269 73.8215C224.194 73.8215 223.067 75.5463 223.067 76.4893C223.067 76.8117 223.186 77.1421 223.576 77.1421Z" fill="white"/>
<path d="M227.471 74.5708C227.852 74.1275 228.546 73.378 229.198 73.378C229.435 73.378 229.537 73.523 229.537 73.7004C229.537 73.8615 229.469 74.0389 229.427 74.1517L228.91 75.5783H228.927C229.402 74.9254 230.875 73.3699 231.849 73.378C232.154 73.378 232.247 73.5553 232.247 73.7648C232.247 73.918 232.196 74.0953 232.145 74.2242L231.349 76.3036C231.256 76.5293 231.197 76.6825 231.197 76.7953C231.197 76.9081 231.239 76.9968 231.375 76.9968C231.646 76.9968 232.078 76.5535 232.23 76.3359L232.399 76.4568L232.044 76.8759C231.697 77.2789 231.214 77.698 230.663 77.698C230.409 77.698 230.282 77.5529 230.282 77.3837C230.282 77.2305 230.308 77.0693 230.418 76.7953L231.188 74.7804C231.222 74.6917 231.315 74.4418 231.315 74.3048C231.315 74.1839 231.197 74.1275 231.087 74.1275C230.528 74.1275 229.969 74.7642 229.639 75.1108C229.097 75.6669 228.665 76.3198 228.394 77.0371L228.199 77.5771C228.165 77.6496 227.953 77.6819 227.835 77.6819C227.733 77.6819 227.564 77.6255 227.513 77.561L228.487 74.7723C228.546 74.595 228.606 74.4096 228.606 74.2968C228.606 74.2001 228.563 74.1275 228.445 74.1275C228.233 74.1275 228.047 74.2807 227.869 74.4499L227.598 74.732L227.445 74.5627L227.471 74.5708Z" fill="white"/>
<path d="M233.179 74.6109C233.467 74.1918 234.178 73.3859 234.746 73.3859C234.983 73.3859 235.051 73.4826 235.051 73.6196C235.051 73.7566 234.958 74.0065 234.915 74.1515L234.102 76.5533C234.043 76.7307 234.001 76.8677 234.001 76.9483C234.001 77.045 234.034 77.0933 234.128 77.0933C234.263 77.0933 234.78 76.5856 234.881 76.4808L235.042 76.6017C234.737 76.9966 234.026 77.851 233.467 77.851C233.179 77.851 233.086 77.6898 233.086 77.4722C233.086 77.3593 233.137 77.1981 233.196 77.0127L234.051 74.6109C234.102 74.482 234.145 74.345 234.145 74.2644C234.145 74.1999 234.102 74.1515 234.026 74.1515C233.814 74.1515 233.442 74.6029 233.323 74.756L233.188 74.6271L233.179 74.6109ZM235.423 71.6288C235.423 71.8464 235.203 72.056 234.966 72.056C234.729 72.056 234.509 71.8464 234.509 71.6288C234.509 71.4112 234.72 71.1855 234.966 71.1855C235.212 71.1855 235.423 71.4032 235.423 71.6288Z" fill="white"/>
<path d="M237.327 72.588L238.149 72.3623L237.844 73.5552C238.056 73.4826 238.428 73.3859 238.936 73.3859C239.783 73.3859 240.435 73.668 240.435 74.5546C240.435 75.8199 239.013 77.8429 237.564 77.8429C237.277 77.8429 236.989 77.7301 236.768 77.5689L236.286 79.4146L237.09 79.5435L237.039 79.7128C236.76 79.7289 236.514 79.7531 236.167 79.7773C235.879 79.8095 235.701 79.8256 235.481 79.8498L235.422 79.7773L236.929 74.0468C236.531 74.1758 236.125 74.3128 235.752 74.4981L235.82 74.1274C236.209 73.9662 236.607 73.8372 237.014 73.7244L237.336 72.588H237.327ZM237.133 76.1987C237.09 76.4164 237.022 76.6017 237.022 76.9644C237.022 77.174 237.209 77.6011 237.564 77.6011C238.598 77.6011 239.572 75.4814 239.572 74.5707C239.572 73.7969 238.953 73.6922 238.606 73.6922C238.259 73.6922 237.946 73.7486 237.751 73.8372L237.124 76.2068L237.133 76.1987Z" fill="white"/>
<path d="M245.077 73.3944C245.12 73.3299 245.179 73.209 245.297 73.209H245.509C245.568 73.209 245.602 73.2251 245.602 73.2573C245.602 73.2735 245.594 73.2976 245.585 73.3299L244.603 76.6827C244.578 76.7714 244.561 76.8278 244.561 76.9165C244.561 76.9809 244.595 77.0454 244.679 77.0454C244.967 77.0454 245.221 76.6505 245.416 76.4893L245.577 76.6102C245.187 76.9971 244.611 77.8353 243.985 77.8353C243.832 77.8353 243.646 77.7627 243.646 77.5693C243.646 77.4081 243.722 77.1421 243.815 76.8762L244.095 76.046V76.0138C243.578 76.7392 242.655 77.8272 241.859 77.8272C241.258 77.8272 241.105 77.3839 241.105 77.0454C241.105 75.5463 243.045 73.3702 244.324 73.3702C244.569 73.3702 244.798 73.4991 244.95 73.6845L245.086 73.3782L245.077 73.3944ZM242.342 77.1421C243.307 77.1421 244.535 75.1514 244.535 74.3051C244.535 74.0714 244.298 73.8215 244.036 73.8215C242.96 73.8215 241.834 75.5463 241.834 76.4893C241.834 76.8117 241.952 77.1421 242.342 77.1421Z" fill="white"/>
<path d="M247.278 76.6982C247.278 76.6982 247.244 76.8191 247.244 76.8836C247.244 76.9883 247.252 77.0851 247.371 77.0851C247.557 77.0851 248.023 76.4967 248.133 76.3597L248.252 76.5612C247.922 76.9642 247.371 77.8427 246.753 77.8427C246.448 77.8427 246.389 77.6251 246.389 77.3833C246.389 77.206 246.431 77.0367 246.456 76.9239L247.845 71.2176L247.252 70.9113L247.303 70.7823C247.523 70.7662 247.778 70.7259 248.032 70.6776C248.303 70.6211 248.54 70.5567 248.76 70.4922L248.828 70.5486L247.278 76.7063V76.6982Z" fill="white"/>
<path d="M101.01 59.5684V59.2375H101.164C101.561 59.2375 101.981 59.1823 101.981 58.6087V52.8283C101.981 52.2547 101.561 52.1995 101.164 52.1995H101.01V51.8686C101.495 51.8686 102.113 51.9127 102.731 51.9127C103.359 51.9127 103.988 51.8686 104.496 51.8686C106.349 51.8686 107.044 52.6407 107.044 53.6005C107.044 54.7257 106.007 55.211 105.036 55.3875V55.4096C106.239 55.3765 107.496 56.0494 107.496 57.3842C107.496 58.5756 106.327 59.5684 104.893 59.5684C104.341 59.5684 103.646 59.5243 102.962 59.5243C102.278 59.5243 101.484 59.5684 101.01 59.5684ZM103.393 55.6413V58.2336C103.393 59.0058 103.536 59.1713 104.385 59.1713C105.323 59.1713 106.018 58.4101 106.018 57.4283C106.018 56.2039 105.202 55.6413 104.099 55.6413H103.393ZM103.393 52.2657V55.2441H103.933C104.871 55.2441 105.566 54.847 105.566 53.8101C105.566 52.5415 104.805 52.2657 104.054 52.2657H103.393Z" fill="white"/>
<path d="M109.029 59.5684V59.2375H109.184C109.581 59.2375 110 59.1823 110 58.6087V52.8283C110 52.2547 109.581 52.1995 109.184 52.1995H109.029V51.8686C109.702 51.8686 110.85 51.9127 111.776 51.9127C112.703 51.9127 113.85 51.8686 114.6 51.8686C114.578 52.3429 114.589 53.071 114.622 53.5563L114.291 53.6446C114.236 52.9276 114.104 52.3539 112.946 52.3539H111.412V55.2441H112.725C113.387 55.2441 113.53 54.8691 113.596 54.2734H113.927C113.905 54.7036 113.894 55.1338 113.894 55.564C113.894 55.9832 113.905 56.4024 113.927 56.8216L113.596 56.8878C113.53 56.2259 113.497 55.7957 112.736 55.7957H111.412V58.366C111.412 59.083 112.052 59.083 112.758 59.083C114.082 59.083 114.666 58.9948 114.997 57.7372L115.306 57.8144C115.163 58.3991 115.03 58.9837 114.931 59.5684C114.225 59.5684 112.957 59.5243 111.964 59.5243C110.971 59.5243 109.658 59.5684 109.029 59.5684Z" fill="white"/>
<path d="M118.63 51.8686L123.539 57.3952L123.561 57.3732V53.2364C123.561 52.3319 122.932 52.1995 122.602 52.1995H122.359V51.8686C122.877 51.8686 123.385 51.9127 123.903 51.9127C124.355 51.9127 124.808 51.8686 125.26 51.8686V52.1995H125.095C124.631 52.1995 124.113 52.2877 124.113 53.6005V58.6197C124.113 59.0058 124.124 59.3919 124.179 59.7339H123.76L118.079 53.4019V57.9468C118.079 58.9065 118.266 59.2375 119.116 59.2375H119.303V59.5684C118.829 59.5684 118.354 59.5243 117.88 59.5243C117.384 59.5243 116.876 59.5684 116.38 59.5684V59.2375H116.534C117.295 59.2375 117.527 58.719 117.527 57.8365V53.1923C117.527 52.5746 117.02 52.1995 116.523 52.1995H116.38V51.8686C116.799 51.8686 117.229 51.9127 117.648 51.9127C117.979 51.9127 118.299 51.8686 118.63 51.8686Z" fill="white"/>
<path d="M133.909 53.9976L133.578 54.0197C133.247 52.6628 132.309 52.1885 131.018 52.1885C129.044 52.1885 128.073 53.6446 128.073 55.4868C128.073 57.307 128.945 59.2485 131.052 59.2485C131.581 59.2595 132.133 59.1713 132.276 59.0389V57.2408C132.276 56.7885 131.846 56.6782 131.438 56.6782H131.294V56.3473C131.846 56.3693 132.397 56.3914 132.949 56.3914C133.445 56.3914 133.931 56.3693 134.427 56.3473V56.6782H134.284C133.898 56.6782 133.688 56.8547 133.688 57.2408V58.9175L133.942 59.061V59.2595C132.96 59.5353 132 59.7339 130.864 59.7339C128.393 59.7339 126.529 58.2557 126.529 55.5971C126.529 53.0379 128.713 51.7031 130.941 51.7031C131.625 51.7031 132.1 51.8024 132.53 51.9016C132.96 52.0009 133.335 52.1002 133.776 52.1112C133.776 52.5194 133.776 53.3578 133.909 53.9976Z" fill="white"/>
<path d="M137.63 56.8437L137.277 57.9909C137.166 58.366 137.034 58.6528 137.034 58.8514C137.034 59.1823 137.497 59.2375 137.861 59.2375H137.983V59.5684C137.541 59.5463 137.089 59.5243 136.648 59.5243C136.251 59.5243 135.854 59.5463 135.457 59.5684V59.2375H135.523C135.953 59.2375 136.317 58.9837 136.482 58.5204L138.248 53.4571C138.391 53.0489 138.589 52.4973 138.656 52.0892C139.009 51.9678 139.45 51.7472 139.66 51.6148C139.693 51.6038 139.715 51.5928 139.748 51.5928C139.781 51.5928 139.803 51.5928 139.825 51.6259C139.858 51.7141 139.891 51.8134 139.924 51.9016L141.954 57.671C142.086 58.0571 142.219 58.4653 142.362 58.7962C142.495 59.1051 142.726 59.2375 143.09 59.2375H143.156V59.5684C142.66 59.5463 142.164 59.5243 141.634 59.5243C141.094 59.5243 140.542 59.5463 139.979 59.5684V59.2375H140.101C140.354 59.2375 140.785 59.1933 140.785 58.9175C140.785 58.7741 140.685 58.4763 140.564 58.1233L140.134 56.8437H137.63ZM139.902 56.2259L138.887 53.1041H138.865L137.839 56.2259H139.902Z" fill="white"/>
<path d="M146.595 52.7952V58.4873C146.595 58.9286 146.904 59.061 147.257 59.1051C147.709 59.1382 148.205 59.1382 148.713 59.083C149.176 59.0279 149.573 58.7631 149.772 58.4873C149.948 58.2446 150.047 57.9358 150.114 57.6931H150.434C150.312 58.3219 150.158 58.9396 150.025 59.5684C149.055 59.5684 148.084 59.5243 147.113 59.5243C146.142 59.5243 145.172 59.5684 144.201 59.5684V59.2375H144.355C144.752 59.2375 145.183 59.1823 145.183 58.4984V52.8283C145.183 52.2547 144.752 52.1995 144.355 52.1995H144.201V51.8686C144.786 51.8686 145.359 51.9127 145.944 51.9127C146.506 51.9127 147.058 51.8686 147.621 51.8686V52.1995H147.345C146.926 52.1995 146.595 52.2105 146.595 52.7952Z" fill="white"/>
<path d="M152.533 56.9871V53.0048C152.533 52.2105 152.125 52.1995 151.684 52.1995H151.551V51.8686C152.026 51.8686 152.61 51.9127 153.305 51.9127C153.967 51.9127 154.519 51.8686 154.96 51.8686V52.1995H154.828C154.386 52.1995 153.945 52.2105 153.945 53.0048V56.8106C153.945 58.2115 154.464 59.1823 156.041 59.1823C157.497 59.1823 158.137 58.2557 158.137 56.7664V53.0048C158.137 52.2105 157.718 52.1995 157.343 52.1995H157.122V51.8686C157.563 51.8686 158.016 51.9127 158.457 51.9127C158.887 51.9127 159.306 51.8686 159.737 51.8686V52.1995H159.505C159.207 52.1995 158.799 52.2105 158.799 53.0048V56.5238C158.799 59.0168 157.475 59.7339 155.831 59.7339C153.713 59.7339 152.533 58.9617 152.533 56.9871Z" fill="white"/>
<path d="M163.248 52.3098V55.5971H163.789C164.892 55.5971 165.487 55.1779 165.487 53.8762C165.487 52.8945 164.859 52.2657 163.877 52.2657C163.546 52.2657 163.402 52.2988 163.248 52.3098ZM161.836 58.6418V53.0379C161.836 52.2326 161.395 52.1995 161.053 52.1995H160.854V51.8686C161.207 51.8686 161.891 51.9127 162.564 51.9127C163.226 51.9127 163.755 51.8686 164.34 51.8686C165.73 51.8686 166.966 52.2436 166.966 53.8101C166.966 54.8029 166.304 55.4096 165.432 55.7516L167.319 58.5756C167.627 59.0389 167.848 59.1713 168.389 59.2375V59.5684C168.025 59.5684 167.672 59.5243 167.308 59.5243C166.966 59.5243 166.613 59.5684 166.271 59.5684C165.421 58.4542 164.693 57.2629 163.976 55.9943H163.248V58.355C163.248 59.2044 163.645 59.2375 164.153 59.2375H164.351V59.5684C163.722 59.5684 163.083 59.5243 162.454 59.5243C161.924 59.5243 161.406 59.5684 160.854 59.5684V59.2375H161.053C161.461 59.2375 161.836 59.0499 161.836 58.6418Z" fill="white"/>
<path d="M169.994 56.9871V53.0048C169.994 52.2105 169.586 52.1995 169.145 52.1995H169.013V51.8686C169.487 51.8686 170.072 51.9127 170.767 51.9127C171.428 51.9127 171.98 51.8686 172.421 51.8686V52.1995H172.289C171.848 52.1995 171.406 52.2105 171.406 53.0048V56.8106C171.406 58.2115 171.925 59.1823 173.502 59.1823C174.958 59.1823 175.598 58.2557 175.598 56.7664V53.0048C175.598 52.2105 175.179 52.1995 174.804 52.1995H174.583V51.8686C175.025 51.8686 175.477 51.9127 175.918 51.9127C176.348 51.9127 176.768 51.8686 177.198 51.8686V52.1995H176.966C176.668 52.1995 176.26 52.2105 176.26 53.0048V56.5238C176.26 59.0168 174.936 59.7339 173.293 59.7339C171.175 59.7339 169.994 58.9617 169.994 56.9871Z" fill="white"/>
<path d="M189.35 54.0969L189.019 54.141C188.711 53.071 188.203 52.1885 186.548 52.1885C184.739 52.1885 183.791 53.6115 183.791 55.542C183.791 57.3842 184.728 59.2485 186.813 59.2485C187.993 59.2485 188.777 58.5094 189.064 57.4063L189.372 57.4504C189.229 58.0461 189.152 58.6418 189.097 59.2375C188.457 59.5132 187.585 59.7339 186.57 59.7339C184.088 59.7339 182.246 58.377 182.246 55.6082C182.246 53.1372 184.243 51.7031 186.515 51.7031C187.806 51.7031 188.225 52.1002 189.262 52.2547C189.251 52.8614 189.273 53.4791 189.35 54.0969Z" fill="white"/>
<path d="M192.281 56.8437L191.928 57.9909C191.817 58.366 191.685 58.6528 191.685 58.8514C191.685 59.1823 192.148 59.2375 192.512 59.2375H192.634V59.5684C192.192 59.5463 191.74 59.5243 191.299 59.5243C190.902 59.5243 190.505 59.5463 190.108 59.5684V59.2375H190.174C190.604 59.2375 190.968 58.9837 191.133 58.5204L192.898 53.4571C193.042 53.0489 193.24 52.4973 193.307 52.0892C193.66 51.9678 194.101 51.7472 194.31 51.6148C194.344 51.6038 194.366 51.5928 194.399 51.5928C194.432 51.5928 194.454 51.5928 194.476 51.6259C194.509 51.7141 194.542 51.8134 194.575 51.9016L196.605 57.671C196.737 58.0571 196.87 58.4653 197.013 58.7962C197.146 59.1051 197.377 59.2375 197.741 59.2375H197.807V59.5684C197.311 59.5463 196.815 59.5243 196.285 59.5243C195.745 59.5243 195.193 59.5463 194.63 59.5684V59.2375H194.752C195.005 59.2375 195.436 59.1933 195.436 58.9175C195.436 58.7741 195.336 58.4763 195.215 58.1233L194.785 56.8437H192.281ZM194.553 56.2259L193.538 53.1041H193.516L192.49 56.2259H194.553Z" fill="white"/>
<path d="M201.632 51.8686L204.213 57.6379L206.827 51.8686C207.158 51.8686 207.555 51.9127 207.953 51.9127C208.339 51.9127 208.736 51.8686 209.122 51.8686V52.1995H209.023C208.692 52.1995 208.019 52.2216 207.997 52.7069C207.986 52.9937 208.03 53.3247 208.052 53.5674L208.471 58.6197C208.515 59.1713 208.791 59.2154 209.453 59.2375V59.5684C208.934 59.5463 208.394 59.5243 207.864 59.5243C207.258 59.5243 206.651 59.5463 206.044 59.5684V59.2375C206.618 59.2044 206.993 59.2044 206.993 58.719C206.993 58.5866 206.993 58.4653 206.982 58.1784L206.673 53.5232H206.651L203.838 59.7339H203.573L200.904 53.6446H200.882L200.507 58.4873C200.507 58.8403 200.595 59.0168 200.738 59.1161C200.904 59.2154 201.135 59.2264 201.444 59.2375H201.577V59.5684C201.08 59.5463 200.573 59.5243 200.076 59.5243C199.646 59.5243 199.205 59.5463 198.775 59.5684V59.2375H198.929C199.801 59.2044 199.834 58.8293 199.933 58.035L200.264 54.9683C200.352 54.1851 200.396 53.4681 200.396 53.0268C200.396 52.4091 199.922 52.1995 199.436 52.1995H199.293V51.8686C199.745 51.8686 200.187 51.9127 200.639 51.9127C200.97 51.9127 201.301 51.8686 201.632 51.8686Z" fill="white"/>
<path d="M212.828 52.2657V58.3219C212.828 59.2154 213.314 59.2375 213.876 59.2375H214.053V59.5684C213.49 59.5684 212.939 59.5243 212.376 59.5243C211.769 59.5243 211.174 59.5684 210.545 59.5684V59.2375H210.721C211.052 59.2375 211.416 59.2264 211.416 58.3439V53.071C211.416 52.3319 211.207 52.1995 210.677 52.1995H210.545V51.8686C210.942 51.8686 211.527 51.9127 212.089 51.9127C212.663 51.9127 213.204 51.8686 213.7 51.8686C215.2 51.8686 216.292 52.365 216.292 53.9755C216.292 55.2662 215.377 56.0935 214.163 56.2149C213.821 56.2369 213.534 56.2369 213.281 56.2369V55.906H213.512C214.406 55.906 214.814 55.1118 214.814 54.0197C214.814 52.9607 214.285 52.2657 213.148 52.2657H212.828Z" fill="white"/>
<path d="M218.263 56.9871V53.0048C218.263 52.2105 217.855 52.1995 217.414 52.1995H217.281V51.8686C217.756 51.8686 218.34 51.9127 219.035 51.9127C219.697 51.9127 220.249 51.8686 220.69 51.8686V52.1995H220.558C220.116 52.1995 219.675 52.2105 219.675 53.0048V56.8106C219.675 58.2115 220.194 59.1823 221.771 59.1823C223.227 59.1823 223.867 58.2557 223.867 56.7664V53.0048C223.867 52.2105 223.448 52.1995 223.073 52.1995H222.852V51.8686C223.293 51.8686 223.746 51.9127 224.187 51.9127C224.617 51.9127 225.036 51.8686 225.467 51.8686V52.1995H225.235C224.937 52.1995 224.529 52.2105 224.529 53.0048V56.5238C224.529 59.0168 223.205 59.7339 221.562 59.7339C219.444 59.7339 218.263 58.9617 218.263 56.9871Z" fill="white"/>
<path d="M231.052 53.446L230.743 53.5012C230.666 52.7842 230.203 52.1002 229.441 52.1002C228.57 52.1002 228.085 52.6187 228.085 53.4902C228.085 55.3213 231.394 54.7698 231.394 57.4173C231.394 58.9396 230.136 59.7339 228.724 59.7339C228.107 59.7339 227.511 59.5132 226.97 59.2375C226.915 58.6749 226.838 58.1233 226.783 57.5607L227.092 57.4945C227.224 58.4322 227.754 59.2485 228.802 59.2485C229.552 59.2485 230.158 58.7741 230.158 57.9909C230.158 56.0384 226.915 56.6451 226.915 53.9866C226.915 52.5525 227.93 51.7031 229.353 51.7031C229.662 51.7031 230.6 51.8244 230.942 51.8686C230.942 52.387 230.986 52.9165 231.052 53.446Z" fill="white"/>
<path d="M99.5451 14.0111H91.8307C88.3028 14.0111 88.1617 14.9185 87.4561 18.5986H86.0449C86.2331 17.187 86.4683 15.7755 86.6094 14.3136C86.7975 12.902 86.8916 11.4905 86.8916 10.0286H88.0206C88.3969 11.5409 89.5728 11.4905 90.8429 11.4905H115.115C116.385 11.4905 117.561 11.4401 117.655 9.92773L115.475 10.1294C115.286 11.4905 118.408 12.8516 118.267 14.2127C118.173 15.5739 118.173 16.935 118.173 18.2961L116.761 18.8506C116.667 16.9854 116.432 14.0111 113.28 14.0111H105.566V40.8302C105.566 44.7119 107.212 45.1656 109.47 45.1656H110.364V46.6779C108.53 46.6779 105.237 46.4763 102.697 46.4763C99.8744 46.4763 96.5816 46.6779 94.7471 46.6779V45.1656H95.6409C98.228 45.1656 99.5451 44.9135 99.5451 40.931V14.0111Z" fill="white"/>
<path d="M126.337 34.2262L124.831 39.469C124.361 41.183 123.796 42.4937 123.796 43.4012C123.796 44.9135 125.772 45.1656 127.324 45.1656H127.842V46.6779C125.96 46.5771 124.032 46.4763 122.15 46.4763C120.457 46.4763 118.763 46.5771 117.07 46.6779V45.1656H117.352C119.187 45.1656 120.739 44.0061 121.444 41.8888L128.971 18.7498C129.582 16.8846 130.429 14.364 130.711 12.4987C132.216 11.9442 134.098 10.936 134.992 10.331C135.133 10.2806 135.227 10.2302 135.368 10.2302C135.509 10.2302 135.603 10.2302 135.697 10.3814C135.838 10.7847 135.98 11.2384 136.121 11.6417L144.776 38.0071C145.34 39.7715 145.905 41.6367 146.516 43.1491C147.081 44.5606 148.069 45.1656 149.621 45.1656H149.903V46.6779C147.786 46.5771 145.67 46.4763 143.412 46.4763C141.107 46.4763 138.755 46.5771 136.356 46.6779V45.1656H136.873C137.955 45.1656 139.79 44.9639 139.79 43.7036C139.79 43.0483 139.366 41.6872 138.849 40.074L137.014 34.2262H126.337ZM136.027 31.4032L131.699 17.1366H131.605L127.23 31.4032H136.027Z" fill="white"/>
<path d="M165.197 13.3053V40.9814C165.197 45.0647 167.267 45.1656 169.666 45.1656H170.418V46.6779C168.019 46.6779 165.667 46.4763 163.268 46.4763C160.681 46.4763 158.141 46.6779 155.46 46.6779V45.1656H156.212C157.624 45.1656 159.176 45.1152 159.176 41.0822V16.9854C159.176 13.6078 158.282 13.0029 156.024 13.0029H155.46V11.4905C157.153 11.4905 159.646 11.6921 162.045 11.6921C164.491 11.6921 166.796 11.4905 168.913 11.4905C175.31 11.4905 179.967 13.759 179.967 21.1191C179.967 27.0173 176.063 30.7982 170.889 31.3527C169.43 31.4536 168.207 31.4536 167.125 31.4536V29.9412H168.113C171.923 29.9412 173.664 26.3116 173.664 21.3208C173.664 16.4813 171.406 13.3053 166.561 13.3053H165.197Z" fill="white"/>
<path d="M194.068 11.4905L205.075 37.8559L216.223 11.4905C217.634 11.4905 219.327 11.6921 221.021 11.6921C222.667 11.6921 224.361 11.4905 226.007 11.4905V13.0029H225.584C224.172 13.0029 221.303 13.1037 221.209 15.3218C221.162 16.6325 221.35 18.1449 221.444 19.2539L223.232 42.3425C223.42 44.8631 224.596 45.0647 227.418 45.1656V46.6779C225.207 46.5771 222.902 46.4763 220.645 46.4763C218.057 46.4763 215.47 46.5771 212.883 46.6779V45.1656C215.329 45.0143 216.928 45.0143 216.928 42.7962C216.928 42.1913 216.928 41.6367 216.881 40.326L215.564 19.0523H215.47L203.475 47.4341H202.346L190.963 19.6068H190.869L189.27 41.7376C189.27 43.3507 189.646 44.1573 190.257 44.611C190.963 45.0647 191.951 45.1152 193.268 45.1656H193.832V46.6779C191.716 46.5771 189.552 46.4763 187.435 46.4763C185.601 46.4763 183.719 46.5771 181.884 46.6779V45.1656H182.543C186.259 45.0143 186.4 43.3003 186.824 39.6707L188.235 25.6562C188.611 22.077 188.799 18.8002 188.799 16.7837C188.799 13.9607 186.776 13.0029 184.707 13.0029H184.095V11.4905C186.024 11.4905 187.905 11.6921 189.834 11.6921C191.245 11.6921 192.656 11.4905 194.068 11.4905Z" fill="white"/>
<path d="M231.652 46.6779V45.1656H232.31C234.004 45.1656 235.791 44.9135 235.791 42.2921V15.8763C235.791 13.2549 234.004 13.0029 232.31 13.0029H231.652V11.4905C233.486 11.4905 236.309 11.6921 238.613 11.6921C240.965 11.6921 243.788 11.4905 245.999 11.4905V13.0029H245.34C243.647 13.0029 241.859 13.2549 241.859 15.8763V42.2921C241.859 44.9135 243.647 45.1656 245.34 45.1656H245.999V46.6779C243.741 46.6779 240.918 46.4763 238.566 46.4763C236.261 46.4763 233.486 46.6779 231.652 46.6779Z" fill="white"/>
</svg>
